<?xml version="1.0" encoding="utf-8" ?>
<svg baseProfile="full" height="300mm" version="1.1" viewBox="0,0,200,300" width="200mm" xmlns="http://www.w3.org/2000/svg" xmlns:ev="http://www.w3.org/2001/xml-events" xmlns:xlink="http://www.w3.org/1999/xlink"><defs /><rect fill="#222222" height="300" width="200" x="0" y="0" /><text fill="#FFFFFF" style="font-size:12px; font-family:Arial; font-weight:bold;" x="10" y="20">Marathons</text><text fill="#FFFFFF" style="font-size:4px; font-family:Arial" x="10" y="280">ATHLETE</text><text fill="#FFFFFF" style="font-size:9px; font-family:Arial" x="10" y="290">Chenle LI</text><text fill="#FFFFFF" style="font-size:4px; font-family:Arial" x="65" y="280">SPECIAL TRACKS</text><rect fill="yellow" height="2.6" width="2.6" x="65" y="283" /><text fill="#FFFFFF" style="font-size:3px; font-family:Arial" x="70" y="285.5">Over 20.0 km</text><rect fill="red" height="2.6" width="2.6" x="65" y="287" /><text fill="#FFFFFF" style="font-size:3px; font-family:Arial" x="70" y="289.5">Over 40.0 km</text><text fill="#FFFFFF" style="font-size:4px; font-family:Arial" x="120" y="280">STATISTICS</text><text fill="#FFFFFF" style="font-size:3px; font-family:Arial" x="120" y="285">Number: 4</text><text fill="#FFFFFF" style="font-size:3px; font-family:Arial" x="120" y="290">Weekly: 1.0</text><text fill="#FFFFFF" style="font-size:3px; font-family:Arial" x="141" y="285">Total: 169.1 km</text><text fill="#FFFFFF" style="font-size:3px; font-family:Arial" x="141" y="290">Avg: 42.3 km</text><text fill="#FFFFFF" style="font-size:3px; font-family:Arial" x="167" y="285">Min: 41.8 km</text><text fill="#FFFFFF" style="font-size:3px; font-family:Arial" x="167" y="290">Max: 42.6 km</text><polyline fill="none" points="85.31820689653978,92.01796059370099 85.21393103446462,91.50272388667508 85.19903448276455,90.66545920241333 84.97558620685595,89.0633680531464 84.9457931034558,87.87184827504097 84.73724137930549,85.89132124398748 84.5882758620719,85.25529093361547 84.57337931031361,84.90104464342585 84.13393103447743,83.12174525399314 83.97751724135014,81.87380353730259 83.44124137930339,79.18464331590803 83.3667586206866,79.14438593749219 83.05393103449023,79.19269478987553 81.14717241376638,79.59526775203994 79.36703448274056,79.70798792298592 79.07655172410887,79.8126565519342 78.59986206894973,80.118610446807 78.24979310343042,80.19107308936509 77.49751724136877,80.4728718107508 77.24427586203092,80.65000207392586 77.16979310344323,80.8432347699054 77.1846896551433,81.05256981562707 77.50496551723336,81.75303424870799 77.832689655188,82.85605559787655 77.9742068965279,84.61120593923988 77.94441379309865,85.60148509317514 77.7656551724067,87.10701473589143 77.57944827585015,87.79133972647105 77.56455172409187,87.63032245638897 77.75075862067752,86.61590835169045 77.80289655170054,85.47266878626397 77.71351724135457,84.2569576192036 77.46027586204582,83.05733569806034 77.07296551723266,81.88185481859546 76.06744827586226,79.35372414779704 75.34496551722987,77.86419378200662 74.8906206896354,77.09124051326944 74.09365517241531,75.93985234709544 73.19986206895555,74.85286667715263 72.34331034478964,73.95911502552917 71.30799999998999,73.01704477646126 69.87048275861889,71.93808281964448 68.61172413791064,71.10872442005348 67.39765517238993,70.40819362254842 66.07931034479407,69.80428425587888 65.54303448274732,69.63518905135425 65.10358620685292,69.60298041208443 64.60455172412912,69.69960630215792 63.971448275842704,70.0136398707109 59.91958620684454,73.22639440343482 54.221655172412284,77.48576940856583 53.40979310343391,77.97691568946175 52.67986206890782,78.21846225320041 52.21806896547787,78.2667715036223 51.67434482756653,78.23456533899298 51.29448275861796,78.16210143476928 50.86248275858816,78.00107036920235 50.44537931034574,77.78367806461756 49.968689655157505,77.4294082226188 44.12924137926893,72.53392876364524 37.50772413791856,67.15509680160176 36.18937931032269,66.14855023140262 35.90634482752648,66.02776403670578 35.07213793101255,65.43188357473264 34.47627586204908,64.95678742729069 33.75379310344579,64.41726902575465 33.13558620688855,64.0065891018603 32.755724137910875,63.644223215727834 32.04813793100766,63.16911950428039 29.8657931034395,61.47805608277122 28.79324137925869,60.5197755038389 27.348275862052105,59.59369826457987 25.947999999974854,58.57097800133488 23.959310344798723,57.53214236778149 23.22193103446625,56.90400452972972 22.85696551721776,56.388606755070214 22.611172413744498,55.929578619434324 22.43241379308165,55.43028272623633 21.918482758599566,53.41697029720672 21.665241379261715,52.651902103556495 21.397103448252892,52.15259162738221 21.00979310341063,51.74186682829895 20.637379310297547,51.52442367896583 20.160689655138412,51.395568280509906 19.587172413768712,51.395568280509906 20.026620689604897,51.34724746795837 20.547999999980675,51.435835608426714 21.00979310341063,51.69354616484634 21.344965517200762,52.03179037193331 21.63544827583246,52.490834450756665 21.79931034479523,52.8854497894572 22.424965517187957,54.93098461176851 21.80675862065982,52.756595953898795 21.330068965500686,51.66133237766917 19.929793103423435,49.398290681885555 15.207586206874112,39.814084908408404 14.909655172377825,39.274445606766676 14.5,38.742858083962346 14.946896551729878,39.266391269156884 15.267172413761728,39.7979763101539 19.92234482752974,49.309700932659325 20.331999999965774,50.03452409836609 21.143862068944145,51.29087316032383 21.508827586163534,51.98346983335796 22.000413793051848,53.25590374253807 22.633517241338268,55.58329299407342 22.88675862067612,56.20338510170404 23.229379310301738,56.69462446922262 23.974206896527903,57.30665739446704 25.545793103432516,58.1441707263366 26.00013793099788,58.32133620730019 26.916275862051407,58.49850140864146 28.800689655152382,58.49850140864146 29.06882758619031,58.53876618813956 29.418896551709622,58.434077731435536 29.552965517243138,58.442130693088984 29.65724137928919,58.385759949233034 30.528689655126072,58.23275350177573 30.662758620630484,58.24080647787923 30.774482758599333,58.305230266050785 31.41503448272124,58.32133620730019 31.526758620660985,58.26496540277731 31.928965517232427,58.22470052506833 32.53227586203138,58.079746845724 32.92703448270913,58.05558788099006 33.03131034481339,57.97505796090263 33.26965517239296,57.91868698246981 33.38882758616819,57.95089897362777 33.74634482755209,57.7978919333691 34.36455172410933,57.62877864626353 34.48372413791367,57.66099072059296 34.736965517222416,57.59656656266452 35.720137930999044,57.21807388814341 35.846758620638866,57.22612693707924 36.18937931032269,57.04090666580305 36.32344827585621,57.00869441351824 36.44262068963144,57.04895972744271 37.49282758618938,56.549668813888275 37.604551724129124,56.501350220511085 37.738620689633535,56.517456420617236 38.29724137930316,56.22754446512408 38.43875862064306,56.24365070452768 38.64731034479337,56.122853852721164 39.26551724135061,56.00205687091511 39.36979310339666,55.905419191862165 39.503862068930175,55.88931290394248 40.136965517216595,55.55913349196635 43.302482758590486,54.27061917763058 43.943034482741496,53.892115286646 45.14220689650392,53.00625012592354 45.81999999997788,52.67606223153416 46.43075862067053,52.51499461341882 47.13089655170916,52.45056750144431 47.734206896537216,52.49888783890492 48.27793103447766,52.6357953486804 48.695034482720075,52.83712961846322 49.29089655171265,53.25590374253807 49.6111724137736,53.62635647269053 49.86441379308235,54.05318092821108 50.00593103445135,54.46389726787311 50.10275862069102,55.0356763359523 50.1102068964974,56.1711726090507 50.22937931033084,56.96037601774151 50.46772413791041,57.64488468457421 50.79544827583595,58.20859456995095 51.145517241355265,58.67566633038223 51.60731034481432,59.0622070072277 52.411724137899,59.54538098152989 53.32041379305883,59.98828863104427 53.722620689630276,60.294296531777945 54.26634482759982,60.833834745921195 54.772827586188214,61.647163571135025 55.70386206894182,63.74085423303768 56.143310344807105,64.54610947663605 56.77641379306442,65.39967372994579 57.42441379308002,66.08413094374555 58.25862068962306,66.72026979014481 59.234344827593304,67.27588178376755 67.81475862066145,70.85911049898277 69.5055172413704,71.76093882138957 70.55572413789923,72.47756509347528 71.76234482755535,73.47600306415552 73.02855172412819,74.68377907218382 73.84041379310656,75.65804225729516 75.09917241378571,77.55018215788004 75.90358620687039,79.05581965421152 77.2591724137601,82.59841654366028 77.59434482757933,83.83829907431937 77.75075862067752,85.23113781293068 77.72096551721916,86.51124605804216 77.38579310342902,88.24218685586675 77.07296551723266,89.19218024578004 76.76758620690089,89.95699960004276 76.31324137927731,90.81842148519354 75.86634482754744,91.50272388667508 74.10855172411539,93.7488166203184 73.79572413791902,94.03058135910396 73.67655172408558,94.28014382390393 73.4456551723706,94.4089500406917 73.25944827584317,94.61020945906057 73.0211034482345,94.70681385195348 72.88703448273009,94.66656203166349 72.77531034481945,94.76316637614946 72.75296551722568,94.88392169005965 72.38799999997718,95.05297891171358 72.09751724137459,95.39914290603338 72.03793103445787,96.11561848627753 71.9411034482473,96.53423131968884 71.62082758618635,96.83208950245898 71.57613793099881,96.9689429976861 71.47186206892366,97.07359555811854 71.2260689655086,97.1782480211914 71.1590344827564,97.31510109521332 70.7940689654788,97.50025498915784 70.62275862065144,97.72565931827558 70.48124137931154,97.72565931827558 70.37696551723639,97.83031117466453 69.99710344828782,97.95106319567276 69.8630344827543,98.20061696166522 69.81834482756676,98.45017017400096 69.4980689654767,98.66752252075094 69.46082758618286,98.81242385194491 69.34165517237852,98.88487444754719 69.16289655171568,99.51277765478153 68.95434482756536,99.70597793651541 68.82772413792554,99.979677767682 68.37337931030197,100.29362675400625 68.3584827586019,100.43047603795276 68.23931034479756,100.66392443225777 68.12013793102233,100.76052362615155 67.93393103446579,101.16301937447133 67.70303448275081,101.29181770982541 67.67324137929245,101.43671566084231 67.36041379309609,101.98410623606469 67.15186206897488,102.16120261666947 66.9954482758476,102.40269723188976 66.88372413787874,102.46709570840903 66.86137931034318,102.86958535153099 66.66027586205746,103.06277986880741 66.54110344825312,103.06277986880741 66.54855172411771,103.4974663198227 66.28786206894438,103.69870947844174 66.16868965514004,103.93215109152516 65.94524137928966,104.05289656344394 65.74413793100393,104.09314502526831 65.57282758617657,104.20584064182913 65.31958620686783,104.17364190575609 65.08124137928826,104.10119471590588 64.6194482758292,103.8114054900725 64.01613793100114,103.28012330424099 63.554344827571185,103.02253103840485 62.98082758617238,102.61199214581575 62.63075862068217,102.4912451275959 62.28813793102745,102.57979295361292 62.07213793101255,102.83738623307727 62.04979310341878,103.1674267605049 62.24344827583991,103.4974663198227 62.41475862066727,103.57796362646332 62.66799999997602,103.61821225819585 63.569241379300365,103.44916790821298 65.192965517228,103.56991389839823 66.74220689653885,103.56991389839823 67.1369655172166,103.67456031843176 68.04565517237643,104.02874747942406 70.05668965514633,104.55197647268506 70.73448275859118,104.8337141536249 71.63572413791553,105.09130227317655 72.02303448272869,105.14764959572494 72.35820689654793,105.14764959572494 73.89255172410049,104.91421050432837 74.5331034482515,104.94640902847459 74.86827586204163,105.04300454566692 75.45668965514051,105.38108820284106 75.87379310344113,105.7111212693635 76.30579310344183,106.14579748985125 76.56648275858606,106.29873872364988 76.69310344825499,106.29068919021665 76.8346206896531,105.86406309395534 76.79737931033014,105.7433195655176 76.70055172411958,105.66282380790653 75.63544827583246,105.31669139407313 74.69696551721427,104.90616087183298 73.52013793104561,104.54392681428726 73.53503448274569,104.46343019870255 73.66165517238551,104.447330868672 75.65034482753254,105.17984805307788 77.06551724136807,105.63062548873131 77.10275862066192,105.78356742272445 76.79737931033014,106.32288732052257 76.77503448276548,106.4838778338526 76.89420689654071,106.60462056771212 77.44537931034574,106.93465004592872 77.56455172409187,107.06344177490973 77.6166896551731,107.29687640796328 77.56455172409187,107.72349707247486 77.63903448276687,107.88448558220261 77.832689655188,108.01327622417739 79.4191724137927,108.56063480836747 80.14165517239599,108.72162212063267 81.52703448274406,108.87455985398265 81.96648275860935,108.8826092026211 82.89006896549836,108.80211569040694 84.04455172413145,108.90675724506582 84.44675862067379,108.8987078981445 84.60317241380108,108.85846115500317 84.78937931032851,108.72967148019234 85.28096551724593,108.04547386165359 85.57144827584852,107.8281396300008 87.03131034478429,107.69934877615742 87.12813793102396,107.91668325651699 87.23241379309911,108.8906585506702 87.36648275860352,109.06774406222394 87.93255172413774,109.13213872462075 89.22855172413983,109.10799073054659 90.01806896549533,108.8987078981445 90.16703448275803,108.93090528230823 90.52455172414193,109.71973831707874 91.14275862069917,111.25714191603038 91.31406896552653,111.25714191603038 92.11848275861121,110.94322351551818 93.16124137927545,110.33148257868015 93.25806896548602,110.38782727765647 93.43682758620707,110.75809174073947 93.53365517238853,110.80638701568387 93.94331034482457,110.7097964450586 94.59131034484017,110.75004252622603 95.05310344827012,110.63735346269095 95.5,110.76614095466357" stroke="red" stroke-linecap="round" stroke-linejoin="round" stroke-width="0.5"><title>2025-02-09 42.6km</title><desc>13577755492</desc></polyline><polyline fill="none" points="165.93128131711273,48.1157307731919 166.39513242663816,48.0050221162237 167.22136721547577,47.87728116559447 167.9316392269393,47.71547566526715 168.43172870436683,47.664379122717946 168.65640658553457,47.62179864534846 168.90282748750178,47.59625034793862 169.8522727272939,47.55366983390559 170.5552970651479,47.54515372833703 170.96116678600083,47.5196054061671 171.15685397278867,47.494057075738965 172.18602362205274,47.44296039013716 172.40345382964006,47.42592815424723 173.00501073730993,47.42592815424723 173.78051181102637,47.40037979356566 174.0051896921941,47.366315299790585 174.65023264137562,47.349283047398785 175.1285790980619,47.374831424618606 175.6504115962889,47.51108929695329 176.0707766643318,47.69844348808692 176.45490336438525,47.97947394259245 176.78829634934664,48.277535454632016 176.96948818900273,48.42230778372323 177.12893700785935,48.59262783162558 177.73049391552922,49.17171325091476 178.01315318542765,49.42719076445064 178.33929849680862,49.682667452754686 178.95535075163934,50.05736510286806 179.20177165354835,50.16807088704809 179.53516463853884,50.270260704164684 179.86855762347113,50.34690298032365 180.54983894058387,50.40651358822652 180.7455261274299,50.39799778984889 181.39781675022095,50.32987136983138 181.66598067290033,50.2787765162866 182.15882247677655,50.21916581210826 182.3617573371739,50.22768162973807 182.46322476735804,50.2787765162866 182.5139584824792,50.32135556321009 182.58643521834165,50.449092566363106 182.83285612025065,51.07925876281661 183.06478167502792,51.59871631185524 183.23147816752316,52.01598301977356 183.49239441662212,52.91863408100471 183.59386184683535,53.21667698062811 183.75331066572107,53.60838879802759 183.948997852538,54.247045210329816 183.99973156765918,54.48547561575833 184.20266642808565,55.115609656320885 184.33312455262057,55.67761686310405 184.49982104511582,56.248135246707534 184.78248031498515,57.4317348904151 184.92743378671003,58.23214475671557 184.96367215464124,58.54719748302159 185.11587329994654,59.3390812282305 185.23908375093015,60.27570768456644 185.3767895490455,61.59548069009179 185.44926628490794,62.18298546304868 185.45651395848836,62.932260583264 185.48550465286826,63.44312591540802 185.5,64.06467428863834 185.48550465286826,65.09490125044249 185.5,65.37586991221906 185.45651395848836,66.27836856201611 185.41302791700582,66.84029648418073 185.3477988546947,67.2830247640959 185.32605583392433,67.64912512469164 185.318808160373,67.99819598426257 185.17385468864813,69.02837173923035 185.10862562636612,69.59028013546776 184.96367215464124,70.35651242834865 184.85495705081848,71.07165587568306 184.39110594129306,73.71081981690077 184.22440944885602,74.80051345402171 183.9707408733084,76.25625264150585 183.83303507519304,77.2182176483766 183.427165354311,79.58477207273972 183.34744094489724,80.06999211831135 183.31120257696602,80.38495792464528 183.180744452402,81.12554826205451 183.0575340014184,82.12150365558773 182.9705619184242,83.87503569678665 182.94881889765384,84.73476294722786 182.84010379386018,86.62442766186723 182.80386542592896,87.86715555270348 182.76037938441732,88.37785999088374 182.77487473157817,88.65023434459727 182.73138869006652,89.6205603665876 182.6589119542041,90.69301213845756 182.55744452399085,91.59522222295345 182.4487294202263,92.34421901375754 182.10808876162628,94.1060358122777 181.99937365783262,94.53158954939136 181.89065855406807,95.07629499679751 181.82542949178605,95.50184352129145 181.79643879740615,95.85930251512764 181.75295275592362,96.16569465451903 181.73845740873367,96.71038886511815 181.75295275592362,97.13592861110374 181.73845740873367,97.47635876202548 181.73845740873367,99.27210359626042 181.76744810311357,100.10613237767393 181.76744810311357,101.24652486832201 181.83267716536648,102.5571049212449 181.81818181820563,102.64220677250705 181.774695776694,102.65071695260121 181.73845740873367,102.6081660429627 181.7167143879924,102.5400845400145 181.6877236936416,101.8167149581277 181.64423765212996,99.65507708612131 181.6587329992908,97.96146919937746 181.6224946313596,96.78698618809722 181.68047602006118,95.92738975962129 181.76020042950404,95.28055857385334 182.00662133144215,94.01241368328192 182.12258410881623,93.50174557715218 182.26028990696068,92.83787211697927 182.43423407300725,91.69735856605257 182.53570150324958,90.87175268853753 182.6009305655316,90.04613820455415 182.6371689334046,88.9396310689699 182.6951503221353,88.14804340127739 182.7531317108369,86.53079668827559 182.8763421617914,83.69627935368044 182.9995526127459,81.85761925845873 183.1517537580803,80.73397262489016 183.35468861847767,79.42303139668365 183.52863278455334,78.4610931809948 183.60110952041578,77.94181194123667 183.6953292770486,77.49914327691658 183.78230136007187,76.89472629572992 183.93450250540627,76.10301819821325 184.32587687901105,73.76189954126312 184.35486757336184,73.45542070068768 184.51431639227667,72.62962458500988 184.95642448103172,69.964883516579 185.08688260559575,69.06242690710496 185.18110236222856,68.23658495480049 185.21009305655025,67.76832022546296 185.2898174659931,66.97652083410503 185.318808160373,66.4571642427909 185.3767895490455,64.61810366273858 185.36229420185555,63.6219280024452 185.23908375093015,61.55290771093132 185.15935934145818,60.65035516248463 184.99266284899204,59.26244766380114 184.89844309235923,58.76007023647253 184.74624194705393,57.79788083416497 184.31862920543063,55.873466921271756 184.19541875447612,55.405129019054584 183.3039549033565,52.63762117563601 182.91982820330304,51.61574764914985 182.6661596278136,51.07074303688569 182.39799570507603,50.363934587163385 182.3545096635644,50.32135556321009 182.30377594847232,50.312839755628374 181.8689155332686,50.41502938569465 181.383321403031,50.50018730987358 180.88323192557436,50.559797802248795 180.57158196138334,50.576829363257275 180.25993199716322,50.568313583200506 180.0135110952251,50.542766237602336 179.8250715819886,50.517218883709575 179.51342161776847,50.432060977873334 179.05681818182347,50.270260704164684 178.53498568359646,49.99775423182291 178.25232641375624,49.81040548744204 177.46957766645937,49.214292893826496 177.09269863995723,48.958814692581655 176.73756263422547,48.74591556112864 176.353435934172,48.55004785404162 175.94756621331908,48.37972771444038 175.44022906228201,48.217923242089455 175.0705977093894,48.124246817315 174.5487652111624,48.04760238723975 174.0051896921941,47.996506059258536 172.86005726558506,47.94540969827358 172.4179491768009,47.89431330426305 170.1276843235537,47.77508825654513 169.5188797423325,47.758056092199695 169.0332856120367,47.78360433733178 168.3012705798028,47.8432168772415 167.93888690051972,47.902829372222186 164.9745884037402,48.46488783010136 164.090372226201,48.58411183795397 156.84994631353766,49.19726103940775 154.04509663564386,49.45273847041972 153.37106299211155,49.49531796203519 151.85629921258078,49.64008806203492 148.24695776664885,49.929627467048704 144.98550465283915,50.21916581210826 144.70284538296983,50.24471326224739 144.0215640658862,50.261744891096896 143.6591803865449,50.261744891096896 143.1735862562782,50.22768162973807 142.2531317108078,50.134007585351355 141.48487831067177,49.99775423182291 141.1877236936416,49.929627467048704 139.89039012169815,49.674151576444274 137.0058160343615,49.12913358511287 135.99838940586778,49.009910398839565 135.5780243378831,49.01842634668719 135.2083929849614,48.98436254981789 134.73004652830423,48.98436254981789 132.75867931282846,49.095069835922914 131.80923407303635,49.12913358511287 131.13520042950404,49.12061764918326 130.5771295633458,49.103585774602834 129.83061918398016,49.02694229359622 129.07686113097589,48.924750870035496 128.3810844667314,48.81404334555555 128.2578740157769,48.81404334555555 128.19989262707531,48.83959124956891 128.15640658556367,48.88217107127275 128.12741589118377,48.941782783142116 127.9824624194589,49.42719076445064 127.62732641375624,50.28729232749174 127.32292412311654,50.90042832541076 126.89531138155144,51.658325976321066 126.51118468146888,52.22887334922416 125.89513242660905,53.01230482761457 125.25733715103706,53.702058727853 124.89495347172488,54.05119112540706 124.52532211883226,54.37477587403555 123.87303149607033,54.88569646637188 122.64092698637978,55.73722345386341 120.24919470294844,57.355099478423654 119.85057265570504,57.63609562611964 119.35773085185792,58.03630053772213 118.99534717251663,58.36838392743812 118.66920186113566,58.69195101771038 118.09663564784569,59.305021875443344 117.77049033643561,59.70521834483225 117.32113457407104,60.3097666195099 117.1544380816049,60.54817875354638 116.91526485327631,60.9483689349363 116.46590909094084,61.79131609911565 116.14701145311119,62.52356594271987 115.73389405870694,63.724100442217605 115.40774874732597,64.5585037622659 114.87866857551853,65.71643664962903 114.3495884037111,66.77218422128499 112.36372584107448,70.25434855124331 112.24051539011998,70.49273072605138 112.11005726558506,70.70557134682895 111.17510737295379,72.32314136026253 110.6315318539855,73.31069416904938 110.45758768790984,73.59163366522989 110.1096993557876,74.24715527860826 109.70382963493466,74.93672410390718 108.88484251970658,76.40948678816494 108.26879026484676,77.74601649114629 107.89191123837372,78.7335016496072 107.64549033643561,79.49113277423749 107.41356478168746,80.32536989523942 107.21062992126099,81.1766232023947 107.08017179672606,81.83208201207162 107.02219040802447,82.19811509001738 106.88448460985092,83.4749614174143 106.77576950608636,84.95607736233069 106.6670544022927,85.84132883728307 106.5728346456599,86.39460598360165 106.36989978523343,87.35644782103918 105.65238010021858,90.35255283184961 105.52916964926408,90.95686709443544 105.24651037936565,92.07185736390238 105.13779527560109,92.58253468911425 104.93486041520373,93.36556685946562 104.86238367931219,93.72303549404023 104.58697208305239,94.84649784296926 104.51449534716085,95.11884995213768 104.5,95.13587192785053 104.51449534716085,95.03374001859629 104.58697208305239,94.769898643528 104.90586972082383,93.37407803619135 106.24668933427893,87.75650249035243 106.48586256263661,86.6754990553527 106.5728346456599,86.15627168684296 106.71054044383345,85.08375847429852 106.78301717969589,84.28362010846467 106.80476020040805,83.66223048068787 106.93521832500119,82.58968348609778 107.10916249107686,81.37241016842017 107.29035433073295,80.5211589663304 107.43530780245783,80.06147951156163 107.56576592699275,79.5251834410592 107.97163564784569,78.37596534233307 108.07310307802982,78.16314534516277 108.26154259129544,77.66940074844024 108.83410880458541,76.41799978759809 109.10952040087432,75.89870514578797 110.60978883321513,73.28515416539449 110.77648532571038,72.95313336815161 112.04482820330304,70.76516661807545 112.49418396563851,69.95636982304859 112.87831066569197,69.3263539613472 114.37857909806189,66.6700157170053 114.71197208305239,66.00591722402896 115.21930923408945,64.907588255046 115.6614173228445,63.783700971158396 115.98756263422547,62.847116040553374 116.29196492483607,62.089325574139366 116.62535790982656,61.41667402373423 116.8500357909943,60.9909422393539 117.04572297781124,60.65886985729594 117.34287759484141,60.22461925466632 117.61104151752079,59.84145497893769 117.86471009306842,59.51789258990175 118.48076234789914,58.81967450482625 118.82140300641186,58.470563151553506 119.56066571225529,57.814910836816125 119.98103078023996,57.48282512385049 120.43038654257543,57.16776815884077 122.01037938438822,56.12040760785749 123.94550823196187,54.79202793815057 124.40935934145818,54.42586808175838 124.69201861132751,54.18743749669375 125.00366857551853,53.906429098773515 125.36605225485982,53.54878060313786 125.79366499642492,53.071913426800165 126.17779169650748,52.60355893741507 126.85907301359111,51.658325976321066 127.22870436648373,51.01964866194612 127.54035433070385,50.38948199054721 127.8592519685044,49.57196098916029 128.09842519686208,48.89068703286466 128.14915891195415,48.77997946067626 128.228883321397,48.686303701630095 128.33759842519066,48.62669179721706 128.40282748750178,48.62669179721706 128.93915533286054,48.737399583958904 130.32346098785638,48.899202993532526 131.45409806727548,48.958814692581655 132.36730493916548,48.941782783142116 133.39647458840045,48.899202993532526 135.0272011453053,48.805527375719976 135.78095919828047,48.82255931446707 136.23756263422547,48.85662318100367 136.9478346456599,48.941782783142116 139.15837508946424,49.3846112361789 139.91938081601984,49.51234975224361 140.83258768790984,49.708215076207125 141.52836435218342,49.81040548744204 142.07918754476123,49.938143315841444 142.94166070150095,50.048849266902835 143.70991410166607,50.09994426898629 145.0289906943508,50.048849266902835 145.95669291340164,49.97220670191018 148.98622047246317,49.699699202647025 150.40676449533203,49.58899276288139 151.63886900502257,49.46125437058072 154.34949892628356,49.25687251378986 155.08876163206878,49.17171325091476 155.45114531141007,49.15468138735014 156.45857193990378,49.05249012884451 157.5312276306504,48.967330645915354 160.01717967074364,48.74591556112864" stroke="red" stroke-linecap="round" stroke-linejoin="round" stroke-width="0.5"><title>2024-12-08 42.6km</title><desc>13069307927</desc></polyline><polyline fill="none" points="14.743517474620603,213.4353595696739 14.522829763242044,212.65766347004683 14.5,212.08609852646623 14.644588500552345,211.9174391832421 14.979425028170226,211.84247935296298 15.717587373161223,211.87058929813793 16.35682074408396,211.992398938346 17.07976324687479,212.282867279122 17.17108229987207,212.2360176231159 17.262401352869347,212.07672857291618 17.582018038316164,211.3083883858999 17.916854565934045,211.08350683675963 18.236471251409966,211.00854617002187 18.92136414878769,210.9616957150938 19.431228861300042,210.84925450349692 20.405298759869765,210.79303383425577 21.41741826379439,210.98043590060115 22.246899661782663,211.28964828266908 23.053551296470687,211.52389923547162 23.89825253665913,211.86121931760863 24.590755355136935,212.00176890243165 25.321307778998744,212.26412742023967 25.71702367530088,212.33908682760375 26.12034949264489,212.48900541674084 27.20095828632475,212.73262248268293 28.334836527588777,212.8263211427402 30.107948139775544,213.1261560654748 30.762401352869347,213.08867676593218 31.515783540002303,212.9293895331066 32.48224351747194,213.0699371091032 32.954058624542085,213.0324577813517 36.35569334833417,212.02987878767453 37.30693348363275,211.98302897305985 39.422491544508375,212.1704280553604 39.68122886130004,212.27349735028838 40.74661781283794,212.8919101348729 41.568489289755234,213.0699371091032 42.679537767748116,213.18237497958035 43.311161217599874,213.19174479447975 43.881905298738275,213.13552588741732 44.384160090150544,213.0137181104219 46.043122886127094,212.47963551373687 46.90304396839929,211.92680915675737 47.70969560314552,211.158467428344 48.234780157828936,210.60563129796355 49.1479706876853,209.35002218204318 50.0078917699866,207.7476843863551 52.19193912061746,204.674098180476 52.80073280716897,203.58706791677105 53.04425028181868,203.24033941973175 53.69870349494158,202.5375064487598 54.30749718149309,202.1626594941772 54.80975197290536,202.012720185754 55.578354002238484,201.9002655069853 57.26014656142797,201.89089427612635 58.94193912061746,202.11580349261203 60.41826381057035,202.22825784698944 60.928128523082705,202.3407120320917 61.749999999970896,202.6593313040721 61.833709131897194,202.75304259605036 61.76521984214196,203.35279208156862 61.85653889513924,203.8213430173928 63.903607666288735,208.06628060282674 64.08624577225419,208.5629131724054 64.2841037203907,208.6097651312084 65.74520856820163,208.55354277711012 65.97350620065117,208.6003947417994 66.73449830888421,209.14387538561277 67.46505073280423,209.86538668512367 67.761837655009,210.02468044884154 68.54565952648409,210.06216128508095 69.23055242389091,209.92160805227468 70.1361330326763,209.60301974586764 72.0157835400023,208.6940985830879 73.17249154450838,208.73158008667815 73.38556933484506,208.64724667711562 73.49971815105528,208.12250332353142 73.8193348365021,207.2323052778229 74.00197294249665,206.0797173167084 74.34441939118551,201.77843941398896 74.39768883879879,200.625767317797 74.49661781283794,200.1103390817443 74.46617812849581,199.59490728967648 74.74013528748765,198.88266841595032 75.10541149941855,198.31099809184525 75.28043968431302,197.67372109870485 75.1662908680737,198.50780312340794 75.03692220966332,198.77020902567892 74.67164599776152,199.7167369432791 74.3063697857724,203.09977335445728 74.19983089063317,204.280520083812 74.00958286353853,206.9980408716001 73.33229988723178,209.21883792283188 73.31708004508982,209.40624393690086 73.93348365274142,211.0553965955478 74.0248027057387,211.4395689770463 74.03241262680967,212.06735861823108 74.45856820742483,212.7232526102016 74.76296505072969,213.791410504964 75.0445321307634,214.55035552144545 75.29565952648409,215.03757542073436 75.5315670800046,215.98389730331837 75.98055242389091,217.09885523571575 76.11753100340138,217.62353556650487 76.53607666288735,218.75720727616863 76.61217587371357,219.24439975328278 76.41431792557705,219.93770664974 76.36104847799288,220.34057121665683 76.09470124013023,220.89333534482284 76.04143179254606,221.30556355922454 76.69588500563987,221.59599570887804 77.129650507326,221.68031450871058 77.4568771138729,221.95200777229184 77.76888387821964,222.1206444736963 78.33201803828706,222.39233613684337 78.91037204058375,222.59844639505172 79.48872604282224,222.9357165008405 79.87683201802429,223.0481395312745 80.75197294249665,223.46972438963712 80.896561443049,223.33856491068582 81.28466741822194,222.40170479729568 81.84019165727659,221.38051389943575 82.04565952648409,221.15566265339294 82.82187147685909,220.61226934978913 83.81877113867085,220.08760999804508 85.30270574969472,219.15070913891395 86.50507328071399,218.49487155013048 86.7866403607477,218.27001162357192 86.77903043967672,218.1669505977843 86.29960541147739,217.54858145902836 85.67559188272571,216.50858546101517 85.10484780155821,215.7028128465463 83.95574971812312,213.64149452842685 83.97857948139426,213.50094802730746 84.15360766628874,213.21985423215665 84.34385569332517,211.9549190701946 84.45800450956449,210.6712222391143 84.57215332580381,210.08090169612842 84.60259301011683,208.9658390583063 85.18094701241353,207.66334986635775 85.66798196165473,206.86685248330468 85.88866967303329,206.3702086411722 86.40614430664573,205.47998971939523 86.63444193909527,204.98333665920654 87.73788049604627,203.05291794057848 87.94334836525377,202.7811559607144 89.13810597517295,201.68472689956252 91.07863585118321,199.64176487228542 92.04509582862374,198.16105105311 92.74520856820163,196.85837348923815 92.88979706875398,196.2585718655173 93.0876550168905,194.74030248131749 93.2474633596139,194.68406968930503 93.97040586243384,194.7965352310348 94.03128523111809,194.90900060343847 94.00084554677596,195.07769834461942 93.58229988723178,195.9961571407548 92.99633596389322,196.6521922242755 92.38754227734171,197.90801474280306 91.31454340470373,199.64176487228542 90.98731679818593,199.99788153950794 88.10315670800628,202.9404648274358 87.86724915445666,203.2965657718014 87.89768883876968,203.39027626455209 88.06510710256407,203.43713146684604 90.01324689964531,203.59643893489556 92.144024802692,204.49605120304477 93.09526493796147,204.60850197500258 93.5746899661608,204.60850197500258 93.67361894022906,204.6366146415603 93.74971815105528,204.75843607432034 94.56397970687249,215.47794452001835 94.77705749715096,219.63789905124577 94.9673055242165,221.5678894211378 95.03579481394263,221.81147689719364 95.21843291993719,224.0224653796031 94.6400789176696,224.98741019417503 93.14853438554564,227.22640892075287 92.81369785792776,229.24988146701799 92.11358511834987,230.65503851594985 92.15163472379209,230.7674499390705 92.3494926718995,230.9173315736407 95.0510146561137,232.33182470257452 95.44673055238673,232.56600972486194 95.5,232.6409487770943 95.32497181510553,232.6128466413138 92.60822998869116,231.13278589695983 91.97660653886851,230.74871471361985 91.93094701235532,230.63630326236307 92.69954904168844,229.156203391467 92.7984780157858,228.29435958903196 93.01916572713526,227.22640892075287 94.91403607666143,224.3222553935484 95.14233370908187,223.88193839671294 94.73139797066688,220.4811048570773 94.46505073277513,215.8808331252585 94.25197294246755,213.5759061941353 93.95518602026277,209.62176027208625 93.88669673050754,208.08502151443827 93.6583990980871,206.24838983613154 93.59751972943195,204.8052904186552 93.48337091319263,204.68346906224906 92.50930101465201,204.6366146415603 92.05270574972383,204.57101840317773 90.37091319050523,203.7463750651077 89.91431792554795,203.57769689745328 87.73788049604627,203.43713146684604 87.58568207436474,203.558954855318 86.65727170233731,205.20823656714492 85.58427282975754,207.29789917995367 85.37119503944996,207.62586782695143 84.9450394588348,208.47857957246015 84.78523111611139,209.03143143876514 84.74718151069828,209.7154628326316 84.51127395711956,211.31775843574724 84.26014656142797,213.64149452842685 84.2905862457701,213.80078024351678 84.57215332580381,214.2317869469116 84.69391206311411,214.59720372672018 84.88416009015054,214.8689227380819 85.19616685455549,215.54353118513973 85.90388951517525,216.58354061142745 86.07891770009883,216.94894589328032 86.80186020291876,217.9608281199762 86.92361894022906,218.26064244526788 86.91600901915808,218.3824416714051 86.23111612172215,218.8415292783102 85.62993235624162,219.12260193171096 84.0470687711204,220.1438236761751 83.27846674178727,220.5747938039276 82.91319052988547,220.70595813221735 82.15219842162332,221.22124433668068 81.90868094700272,221.53041435434716 80.95744081170415,223.44161880639876 80.73675310032559,223.65709467463603 80.53889515221817,223.63835766726697 79.78551296502701,223.31045927815285 79.19193912061746,222.98255945072742 78.71251409241813,222.77645025160746 78.10372040586662,222.411073456562 77.38077790301759,222.10190708120354 76.49041713637416,221.64283949830133 76.25450958285364,221.57725818489416 75.91206313416478,221.38051389943575 75.80552423899644,221.38988268666435 75.6989853438572,221.53041435434716 75.44785794810741,222.30801814018923 74.82384441938484,223.43225027629524 74.6792559188325,223.90067534302216 74.23788049604627,224.57520228269277 74.04002254788065,225.35277439738275 73.87260428408626,225.6338225694053 73.63669673056575,225.86802857232396 73.25620067643467,226.70179598739924 72.86809470120352,227.3669296170774 72.71589627958019,227.76975414951448 72.24408117248095,228.4255103737596 71.84075535510783,228.80959349131444 71.55918827504502,229.24988146701799 71.27001127394033,229.48407614240568 70.82102593008312,230.12108194821485 69.4816798195825,231.71357271957095 69.28382187147508,231.7323077032488 69.02508455468342,231.5824277023421 68.61414881623932,231.13278589695983 68.11189402479795,230.70187662947137 67.81510710256407,230.52389164206397 66.94757609919179,229.83068291574455 66.54425028184778,229.59648932604614 66.37683201802429,229.43723726601456 65.95828635850921,229.2217780566789 65.17446448703413,228.50045357605995 65.06792559189489,228.48171778250253 64.93094701238442,228.55666092842876 64.30693348363275,229.44660504366038 63.61443066515494,230.25222952864715 62.19137542275712,233.12805078586825 61.886978579481365,233.98983887437498 61.58258173617651,234.51440067416115 61.17164599773241,235.7695871864271 60.372604284086265,237.62422719967435 60.319334836502094,237.92396268223092 59.65727170233731,239.76918278430094 59.13979706875398,240.99618211641064 58.89627959410427,241.76421725591354 58.40924464483396,242.93498735449248 58.051578354032245,244.83627894733945 57.67108229987207,248.33902460600075 57.41995490412228,249.9779535457492 57.397125140880235,250.81145220381586 57.28297632469912,251.27034075951815 57.115558060846524,252.7031787456508 56.902480270538945,253.84568348774337 56.43827508453978,254.25773009737168 55.67728297630674,254.62295133144653 54.56623449831386,255.3159303106877 54.61950394586893,255.20355577710143 54.97717023672885,254.8757957567941 55.56313416006742,254.5199403946317 56.47632468995289,254.07980115799 56.81116121757077,253.80822459252522 56.85682074405486,253.46172892256436 57.16121758733061,251.94462087738066 57.27536640359904,250.68034067085682 57.44278466742253,250.0060491573895 57.91459977449267,245.18281457231933 58.24182638103957,243.009916016832 59.76381059750565,238.84189512441662 60.54002254790976,236.95918480781984 60.73027057494619,236.26603573871398 61.52170236749225,234.22401870398608 61.59019165724749,233.85869784942042 61.848928974039154,233.1748873502438 62.609921082272194,231.84471750676312 63.46223224350251,230.05550807171676 64.23083427280653,229.14683557744866 64.95377677562647,228.37867083422316 65.12119503942085,228.275623743888 65.23534385566018,228.29435958903196 66.07243517471943,228.90327200117463 66.20180383312982,228.91263984569377 66.20180383312982,228.48171778250253 66.40727170233731,227.7603861617681 66.39966178123723,227.39503372467152 66.59751972940285,227.02967950214952 66.68883878240013,226.53316961988457 66.85625704619451,226.05539284639235 66.84864712515264,225.427720679887 67.13782412622822,224.9967785293702 67.25958286359673,224.70635959198262 67.40417136411997,223.90067534302216 67.57158962791436,223.40414467894152" stroke="red" stroke-linecap="round" stroke-linejoin="round" stroke-width="0.5"><title>2024-03-03 42.1km</title><desc>10878173593</desc></polyline><polyline fill="none" points="121.60832380401553,184.53197146402817 121.68623495122301,184.5 121.82830821964308,184.5213143115543 121.85122326294368,184.57460005186294 121.91080237549613,184.60657146955054 122.10787174783763,184.6225571709656 122.295775102888,184.69715704519695 122.63950075230969,184.77175681131484 122.87781720256316,184.7930710103501 122.96489436709089,184.8410279259042 123.18029577407287,184.8676706374572 123.29487099054677,184.9209560191921 123.36361612043402,184.90497041046183 123.638596639983,184.979569875406 124.24813679163344,185.04884071031483 124.57353040644375,185.14475402015887 124.66060757097148,185.14475402015887 124.68352261425753,185.11811145201136 124.82559588269214,185.14475402015887 124.92183906454011,185.18205359238345 124.97683516843244,185.29395214687975 125.02266525503364,185.2140246327799 125.14640648882778,185.2566526557457 125.18307055810874,185.33125161098724 125.2426496706612,185.36855104807182 125.33889285250916,185.33658010365252 125.3709739131009,185.36855104807182 125.45346806898306,185.34723708733145 125.48554912958934,185.36855104807182 125.55429425947659,185.33125161098724 125.74678062315797,185.36855104807182 125.985097073426,185.36322255872074 126.09050627259421,185.40585045812622 126.7596255368262,185.52840547229061 127.51582196557138,185.7415439323704 127.8778796496481,185.8054852983114 128.91363960658782,185.94402465201347 130.26104415237205,186.237087440888 131.45720941238687,186.44489458927274 132.31881504030025,186.65270089876867 133.52872932629543,186.91378968829667 134.17951655588695,187.25480162319218 136.0768821407546,188.45365377682174 136.54893203263055,188.6987490021529 138.61586893786443,189.89223951198073 138.9320965353545,190.04142388044784 139.68829296409967,190.3504472686691 139.9128603884019,190.40372697571001 140.19242391662556,190.44102273786484 141.0494465358497,190.3824150995133 141.41150421992643,190.47831847298585 141.85147305121063,190.75537165960122 142.38310205565358,191.3201293079983 143.31803582211433,192.36970961650513 143.75342164472386,192.68937449593068 144.11089632014045,192.79592901477008 144.25755259722064,192.7639626822638 144.5050350648089,192.77994585098713 145.31622759747552,192.74265178290443 145.54079502174864,192.76929040573668 145.87993766252475,192.7586349582598 146.07700703486626,192.82789532742754 146.2007482686895,192.96108808323334 146.26949339857674,194.13316948002102 146.2511613639217,194.76714784591604 146.27407640720776,195.4437379973533 146.31532348514884,195.67814511051984 146.31074047650327,196.35472329450567 146.33823852843489,196.32275917087827 146.30157445916848,196.13097401253253 146.31532348514884,195.61421600364702 146.27865941588243,195.34784387082254 146.26949339857674,194.65526987785051 146.2924084418628,194.56470182094927 146.27865941588243,193.92006575570122 146.21908030331542,192.89182789320694 146.08617305220105,192.74797950857828 145.87077164521907,192.7373240566958 145.7974435066717,192.78527357280473 145.54079502174864,192.73199632991964 145.45830086591013,192.59880298155986 145.46746688323037,191.90619201648587 145.5087139611569,191.82627476720518 145.57745909104415,191.78365218353065 146.96611071474035,191.74102956457136 147.2319252169691,191.70906257719253 147.3373344161373,191.73037390433092 147.63064697029768,191.69307907608527 147.9835386370687,191.7143904098266 149.35385822612443,191.67709556999034 150.72876082384028,191.5971779651336 150.81583798838255,191.61848933856163 151.1366485945182,191.58119442928364 151.50328928724048,191.63447286283554 151.9799221877911,191.86889731558767 152.28698376794637,192.08733732236942 152.50696818357392,192.16725416648842 152.56196428749536,192.22053199367292 152.67195649530913,192.23651533107477 152.90568993691704,192.35905408636245 152.96068604082393,192.42298723422573 153.01568214475992,192.41765947492604 153.30899469893484,192.5721642705612 153.55189415784844,192.74797950857828 153.69396742628305,192.81723989207967 153.93228387656563,192.90781102224355 154.58765411481727,193.31804297001509 155.21552630110818,193.6217190601492 155.9029775999661,194.01063494627306 156.0542168857355,194.0639108663454 156.20087316280114,194.07989363160596 156.31544837930414,194.0212901347113 156.66834004603152,193.3553366214037 157.2412161284301,192.71068541734348 157.73618106360664,191.84225822698863 157.84617327140586,191.6877512412757 158.02032760046131,191.19758808030383 158.03407662644167,190.84061849404316 158.14406883427,190.27585558614737 158.1990649381769,190.19593580638684 158.32280617197102,190.13199989327768 158.9185972976411,190.44102273786484 159.20274383451033,190.63815703180808 159.55563550125225,190.79266716703205 160.16059264425712,191.09103025397417 161.21468463585188,191.7037347440455 161.45758409478003,191.79963565654907 162.0946222983912,192.1832375204358 163.65742825114285,193.02502048365204 163.80408452822303,193.07829742338072 164.02865195252525,193.2381279118199 166.1185039010743,194.35692744149492 166.51722565443197,194.54871920611913 166.85636829519353,194.7564928118045 167.19551093596965,194.9109905906007 168.08919762447476,195.41710075788797 168.39167619596992,195.53963194532844 168.34584610939783,195.57692398798463 168.25418593622453,195.58757885236264 167.94254134739458,195.47570266650655 166.92511342508078,194.90566308869165 166.32932229939615,194.62863223060413 165.75644621701213,194.2610312913348 164.92233864105947,193.866789686821 164.07906504777202,193.38730258681244 163.63909621650237,193.17952345700178 162.89206580507744,192.76929040573668 162.47042900844826,192.52421455600052 162.2046145062195,192.42298723422573 162.09920530706586,192.49224805482663 161.65923647578165,193.27009394998822 160.6509745707881,195.07614287607066 160.04601742778323,196.23752141088698 160.0597664537636,196.21621194886393 159.9726892892504,196.55716228348683 159.94060822861502,196.49856160534182 159.8993611506885,196.54650761969242 159.61979762249393,197.05260171584814 159.3448171029595,197.69187136120308 159.14316472194332,198.04346628435815 159.00567446218338,198.21393568625717 158.3640532499121,199.46047604232808 158.30905714599066,199.63094075501795 158.18531591219653,199.78542391366864 157.95158247057407,200.17962021923813 157.39703842283052,201.31957634531864 157.39703842283052,201.4367666667713 157.54827770857082,201.88421816942355 157.63077186445298,202.02271427555388 157.76826212419837,202.13990299763827 158.024910609136,202.53940800152122 158.26781006804958,202.9495632494545 158.4557134230854,203.35438860420254 158.7077788993338,204.1160908466336 158.82693712445325,204.74994636683914 158.93692933228158,205.0642079772806 158.99650844483403,205.3891205085747 159.4364772761328,206.4011300193706 159.5098054146656,206.91777984362852 159.1706627738895,208.39845889472053 158.92318030630122,208.55291577000753 158.6665318213927,208.82454570371556 158.49696050102648,208.9843273489605 158.42821537112468,209.01095757501753 158.23114599878318,208.92574080321356 158.05240866108215,208.9097626428338 157.2412161284301,208.89911053313335 157.14497294658213,208.80324144694168 157.13122392060177,208.42508942347922 157.02581472143356,208.37715446181392 156.3383634225902,208.36650224205368 156.22378820610174,208.42508942347922 155.9946377731394,208.46237214063513 155.66007814103796,208.64345924030204 155.44009372539585,208.845849951711 155.1971942664677,209.13345643761204 154.7022293312766,209.74594638364215 154.61056915810332,209.9003992209291 154.51890898491547,210.75787034887617 154.55557305418188,211.22654419116952 154.51890898491547,211.63130453487247 154.46391288100858,211.72184259785354 154.32183961257397,211.82835776245702 154.22559643074055,211.83900926683054 153.65272034837108,211.82303200945535 153.50606407127634,211.8443350181733 153.1944194824464,211.80705474715433 152.92402197155752,211.66858493300242 152.7911147204577,211.85498651923626 152.73153560787614,211.88694100918656 152.3878099584399,211.88694100918656 152.32823084588745,211.82303200945535 152.30073279392673,211.89226675559257 152.23198766402493,211.90291824674568 152.0395013003581,211.90291824674568 151.85159794532228,211.86563801809098 151.5995324690739,211.92422122243806 151.5674514084676,211.88694100918656 151.36121601882041,211.91889547933897 151.2191427503858,212.0360617004444 151.1733126637846,212.31299898262296 151.23289177636616,212.82426390269757 151.2649728369579,213.3568261361288 151.28788788027305,213.92133609711527 151.26038982831233,214.01719566523388 150.9899923174089,214.0651253824508 149.50509751187928,214.08642746469923 149.11554177587095,214.1290316027662 149.0009665593825,214.20358875969396 149.04679664596915,214.4166086139121 149.05137965464382,214.86394744296558 149.04679664596915,215.12489330087192 149.01471558536286,215.30595699756668 149.04679664596915,215.35388551673168 149.05596266327484,216.663914455934 149.11095876719628,218.0218361524967 149.08804372391023,218.14431360623712 149.01929859400843,218.2135398644714 148.87722532558837,218.3093914532219 148.5609977280983,218.32536670067202 148.46475454626488,218.50641915945016 148.51058463285153,218.86852217004343 148.6755729445722,219.16672274022494 148.6389088753058,219.1880227149777 148.6984879878728,219.19867269905444 148.75348409177968,219.2732225259897 148.7672331177746,219.87494218385473 148.60224480603938,219.8589674164068 148.57932976275333,219.9335162888492 148.61141082335962,220.46068024021952 148.5839127713989,220.55120280088522 148.60224480603938,220.76952126412652 148.56558073677297,220.8547184625204 148.5976617973647,221.0836852358043 148.57474675407866,221.5469404823125 148.61141082335962,221.8185019681914 148.57932976275333,223.62355080273846 148.49683560687117,223.719392337709 148.33184729516506,223.74069043239433 146.86528452424682,223.70874328706486 146.84695248959179,223.88445234159735 146.91569761949359,224.34768243469807 146.91111461083347,224.83753042175886 146.93861266279418,224.83220601212815 146.96611071474035,224.88012567907936 146.92944664547394,225.1090745845686 146.96152770609478,227.7818447787722 146.9981917753612,228.16517895112702 146.98444274938083,228.4473536748592 147.0806859312288,228.8466548922661 147.11735000050976,229.3950235284101 147.25484026025515,234.48978169762267 147.2319252169691,234.96888668780593 147.2685892862355,235.02212030109513 147.27317229491018,235.14988074896246 147.26400627758994,235.99096247062698 147.33275140746264,237.65179245641048 147.5069057365181,240.87748264662514 147.54815281445917,240.24407093684567 147.44732662395108,240.04180337581784 147.41982857199037,240.1003545933927 147.44274361529096,241.70782572315875 147.5114887451782,243.76765763113872 147.56190184042498,243.89539643911849 147.45649264127132,244.0071676369007 147.44274361529096,244.09764890553924 147.5527358230902,244.26264375199753 147.6031489183515,247.58371824983624 147.5802338750509,248.32880178872801 147.59398290103127,249.41979758048183 147.6489790049527,249.7710401027798 147.70855811750516,251.39949695736505 147.8781294379005,257.99262610236474 147.89646147254098,259.19515620864695 147.86896342058026,259.663390451773 147.90104448121565,259.7219194339086 147.88271244656062,260.04648804113094 147.9927046543744,261.7491096418198 148.0431177496357,265.1648251254992 148.10269686218817,265.5 148.1301949141489,265.4627584545815 148.13477792282356,265.10098204589303 148.02936872365535,260.19014890509425 147.96978961108834,258.90782855022553 147.91021049852134,256.8486002511927 147.83229935131385,253.28865546359157 147.8552143945999,252.99065195000367 147.75438820410636,249.39318820117842 147.69480909153935,248.24897192361823 147.71772413483995,248.0946338346148 147.67189404823876,246.6470265517819 147.73605616948043,246.02965228104222 147.70855811750516,245.73160688832286 147.73605616948043,245.3696923134412 147.7039751088596,245.29518017437294 147.6489790049527,244.1668403569456 147.53898679713893,244.01781250026033 147.3006703468709,243.8741066597322 147.16776309575653,243.84749442315297 145.86160562791338,243.86878421351503 143.70759155812266,243.87942910540733 143.0109742419445,243.85813931943994 142.9559781380376,243.69314318057513 142.94681212073192,243.46959918373977 143.08888538915198,242.84686437556593 143.02930627658498,242.71912297384188 142.7818238089967,242.54880061332733 142.67183160118293,242.37847769100335 142.65349956654245,242.28267080032674 142.70391266178922,241.96863585680694 142.6855806271633,241.81427899804112 142.76807478301635,241.56943613768817 142.91473106011108,241.50556389622943 143.24929069222708,241.59604954830866 143.4646920991945,241.57475882090148 143.77175367936434,241.61201758809693 144.11547932878602,241.59604954830866 144.2483865799004,241.649276328415 144.42254090895585,241.80895633950786 144.58294621203095,241.88879615989208 144.93125487011275,241.92605470047783 145.03208106059174,241.91540940591221 145.39872175332857,241.75040705944048 145.7378643941047,241.78234303862337 145.97159783572715,241.7450843943334 146.46197976224357,241.75572972402006 147.08985194854904,241.57475882090148 147.65814502227295,241.53750002682136 148.0614497842762,241.58540418570556 148.6297428580001,241.72379372837895 149.22553398367018,242.03783016095258 149.55092759848048,242.08573385566706 149.77091201410803,242.05912069742044 150.0733905856032,241.93669999285703 150.33920508783194,241.73443906245666 150.53627446017344,241.51620927529075 150.78833993642183,241.39378728352312 151.01749036936963,241.36717376864544 151.26955584563257,241.46298235801441 151.41162911406718,241.6173402669374 151.5078722959006,241.78234303862337 151.54453636518156,241.94734528304252 151.54453636518156,242.13896013099293 151.4712082266342,242.43170366458799 151.17789567245927,242.91605750287272" stroke="red" stroke-linecap="round" stroke-linejoin="round" stroke-width="0.5"><title>2023-10-29 41.8km</title><desc>10122270628</desc></polyline></svg>