<?xml version="1.0" encoding="utf-8" ?>
<svg baseProfile="full" height="300mm" version="1.1" viewBox="0,0,200,300" width="200mm" xmlns="http://www.w3.org/2000/svg" xmlns:ev="http://www.w3.org/2001/xml-events" xmlns:xlink="http://www.w3.org/1999/xlink"><defs /><rect fill="#222222" height="300" width="200" x="0" y="0" /><text fill="#FFFFFF" style="font-size:12px; font-family:Arial; font-weight:bold;" x="10" y="20">Marathons</text><text fill="#FFFFFF" style="font-size:4px; font-family:Arial" x="10" y="280">ATHLETE</text><text fill="#FFFFFF" style="font-size:9px; font-family:Arial" x="10" y="290">Chenle LI</text><text fill="#FFFFFF" style="font-size:4px; font-family:Arial" x="65" y="280">SPECIAL TRACKS</text><rect fill="yellow" height="2.6" width="2.6" x="65" y="283" /><text fill="#FFFFFF" style="font-size:3px; font-family:Arial" x="70" y="285.5">Over 20.0 km</text><rect fill="red" height="2.6" width="2.6" x="65" y="287" /><text fill="#FFFFFF" style="font-size:3px; font-family:Arial" x="70" y="289.5">Over 40.0 km</text><text fill="#FFFFFF" style="font-size:4px; font-family:Arial" x="120" y="280">STATISTICS</text><text fill="#FFFFFF" style="font-size:3px; font-family:Arial" x="120" y="285">Number: 3</text><text fill="#FFFFFF" style="font-size:3px; font-family:Arial" x="120" y="290">Weekly: 1.0</text><text fill="#FFFFFF" style="font-size:3px; font-family:Arial" x="141" y="285">Total: 126.5 km</text><text fill="#FFFFFF" style="font-size:3px; font-family:Arial" x="141" y="290">Avg: 42.2 km</text><text fill="#FFFFFF" style="font-size:3px; font-family:Arial" x="167" y="285">Min: 41.8 km</text><text fill="#FFFFFF" style="font-size:3px; font-family:Arial" x="167" y="290">Max: 42.6 km</text><polyline fill="none" points="75.93128131711273,48.1157307731919 76.39513242663816,48.0050221162237 77.22136721547577,47.87728116559447 77.9316392269393,47.71547566526715 78.43172870436683,47.664379122717946 78.65640658553457,47.62179864534846 78.90282748750178,47.59625034793862 79.8522727272939,47.55366983390559 80.5552970651479,47.54515372833703 80.96116678600083,47.5196054061671 81.15685397278867,47.494057075738965 82.18602362205274,47.44296039013716 82.40345382964006,47.42592815424723 83.00501073730993,47.42592815424723 83.78051181102637,47.40037979356566 84.00518969219411,47.366315299790585 84.65023264137562,47.349283047398785 85.12857909806189,47.374831424618606 85.6504115962889,47.51108929695329 86.07077666433179,47.69844348808692 86.45490336438525,47.97947394259245 86.78829634934664,48.277535454632016 86.96948818900273,48.42230778372323 87.12893700785935,48.59262783162558 87.73049391552922,49.17171325091476 88.01315318542765,49.42719076445064 88.33929849680862,49.682667452754686 88.95535075163934,50.05736510286806 89.20177165354835,50.16807088704809 89.53516463853884,50.270260704164684 89.86855762347113,50.34690298032365 90.54983894058387,50.40651358822652 90.74552612742991,50.39799778984889 91.39781675022095,50.32987136983138 91.66598067290033,50.2787765162866 92.15882247677655,50.21916581210826 92.36175733717391,50.22768162973807 92.46322476735804,50.2787765162866 92.51395848247921,50.32135556321009 92.58643521834165,50.449092566363106 92.83285612025065,51.07925876281661 93.06478167502792,51.59871631185524 93.23147816752316,52.01598301977356 93.49239441662212,52.91863408100471 93.59386184683535,53.21667698062811 93.75331066572107,53.60838879802759 93.94899785253801,54.247045210329816 93.99973156765918,54.48547561575833 94.20266642808565,55.115609656320885 94.33312455262057,55.67761686310405 94.49982104511582,56.248135246707534 94.78248031498515,57.4317348904151 94.92743378671003,58.23214475671557 94.96367215464124,58.54719748302159 95.11587329994654,59.3390812282305 95.23908375093015,60.27570768456644 95.3767895490455,61.59548069009179 95.44926628490794,62.18298546304868 95.45651395848836,62.932260583264 95.48550465286826,63.44312591540802 95.5,64.06467428863834 95.48550465286826,65.09490125044249 95.5,65.37586991221906 95.45651395848836,66.27836856201611 95.41302791700582,66.84029648418073 95.3477988546947,67.2830247640959 95.32605583392433,67.64912512469164 95.31880816037301,67.99819598426257 95.17385468864813,69.02837173923035 95.10862562636612,69.59028013546776 94.96367215464124,70.35651242834865 94.85495705081848,71.07165587568306 94.39110594129306,73.71081981690077 94.22440944885602,74.80051345402171 93.97074087330839,76.25625264150585 93.83303507519304,77.2182176483766 93.427165354311,79.58477207273972 93.34744094489724,80.06999211831135 93.31120257696602,80.38495792464528 93.180744452402,81.12554826205451 93.05753400141839,82.12150365558773 92.97056191842421,83.87503569678665 92.94881889765384,84.73476294722786 92.84010379386018,86.62442766186723 92.80386542592896,87.86715555270348 92.76037938441732,88.37785999088374 92.77487473157817,88.65023434459727 92.73138869006652,89.6205603665876 92.65891195420409,90.69301213845756 92.55744452399085,91.59522222295345 92.4487294202263,92.34421901375754 92.10808876162628,94.1060358122777 91.99937365783262,94.53158954939136 91.89065855406807,95.07629499679751 91.82542949178605,95.50184352129145 91.79643879740615,95.85930251512764 91.75295275592362,96.16569465451903 91.73845740873367,96.71038886511815 91.75295275592362,97.13592861110374 91.73845740873367,97.47635876202548 91.73845740873367,99.27210359626042 91.76744810311357,100.10613237767393 91.76744810311357,101.24652486832201 91.83267716536648,102.5571049212449 91.81818181820563,102.64220677250705 91.77469577669399,102.65071695260121 91.73845740873367,102.6081660429627 91.7167143879924,102.5400845400145 91.6877236936416,101.8167149581277 91.64423765212996,99.65507708612131 91.6587329992908,97.96146919937746 91.62249463135959,96.78698618809722 91.68047602006118,95.92738975962129 91.76020042950404,95.28055857385334 92.00662133144215,94.01241368328192 92.12258410881623,93.50174557715218 92.26028990696068,92.83787211697927 92.43423407300725,91.69735856605257 92.53570150324958,90.87175268853753 92.6009305655316,90.04613820455415 92.63716893340461,88.9396310689699 92.6951503221353,88.14804340127739 92.7531317108369,86.53079668827559 92.8763421617914,83.69627935368044 92.9995526127459,81.85761925845873 93.1517537580803,80.73397262489016 93.35468861847767,79.42303139668365 93.52863278455334,78.4610931809948 93.60110952041578,77.94181194123667 93.69532927704859,77.49914327691658 93.78230136007187,76.89472629572992 93.93450250540627,76.10301819821325 94.32587687901105,73.76189954126312 94.35486757336184,73.45542070068768 94.51431639227667,72.62962458500988 94.95642448103172,69.964883516579 95.08688260559575,69.06242690710496 95.18110236222856,68.23658495480049 95.21009305655025,67.76832022546296 95.28981746599311,66.97652083410503 95.31880816037301,66.4571642427909 95.3767895490455,64.61810366273858 95.36229420185555,63.6219280024452 95.23908375093015,61.55290771093132 95.15935934145818,60.65035516248463 94.99266284899204,59.26244766380114 94.89844309235923,58.76007023647253 94.74624194705393,57.79788083416497 94.31862920543063,55.873466921271756 94.19541875447612,55.405129019054584 93.3039549033565,52.63762117563601 92.91982820330304,51.61574764914985 92.66615962781361,51.07074303688569 92.39799570507603,50.363934587163385 92.35450966356439,50.32135556321009 92.30377594847232,50.312839755628374 91.86891553326859,50.41502938569465 91.383321403031,50.50018730987358 90.88323192557436,50.559797802248795 90.57158196138334,50.576829363257275 90.25993199716322,50.568313583200506 90.01351109522511,50.542766237602336 89.8250715819886,50.517218883709575 89.51342161776847,50.432060977873334 89.05681818182347,50.270260704164684 88.53498568359646,49.99775423182291 88.25232641375624,49.81040548744204 87.46957766645937,49.214292893826496 87.09269863995723,48.958814692581655 86.73756263422547,48.74591556112864 86.35343593417201,48.55004785404162 85.94756621331908,48.37972771444038 85.44022906228201,48.217923242089455 85.0705977093894,48.124246817315 84.54876521116239,48.04760238723975 84.00518969219411,47.996506059258536 82.86005726558506,47.94540969827358 82.4179491768009,47.89431330426305 80.1276843235537,47.77508825654513 79.5188797423325,47.758056092199695 79.0332856120367,47.78360433733178 78.3012705798028,47.8432168772415 77.93888690051972,47.902829372222186 74.9745884037402,48.46488783010136 74.090372226201,48.58411183795397 66.84994631353766,49.19726103940775 64.04509663564386,49.45273847041972 63.37106299211155,49.49531796203519 61.85629921258078,49.64008806203492 58.24695776664885,49.929627467048704 54.985504652839154,50.21916581210826 54.70284538296983,50.24471326224739 54.021564065886196,50.261744891096896 53.659180386544904,50.261744891096896 53.17358625627821,50.22768162973807 52.25313171080779,50.134007585351355 51.484878310671775,49.99775423182291 51.1877236936416,49.929627467048704 49.89039012169815,49.674151576444274 47.00581603436149,49.12913358511287 45.99838940586778,49.009910398839565 45.57802433788311,49.01842634668719 45.20839298496139,48.98436254981789 44.73004652830423,48.98436254981789 42.75867931282846,49.095069835922914 41.80923407303635,49.12913358511287 41.13520042950404,49.12061764918326 40.57712956334581,49.103585774602834 39.83061918398016,49.02694229359622 39.076861130975885,48.924750870035496 38.38108446673141,48.81404334555555 38.257874015776906,48.81404334555555 38.199892627075315,48.83959124956891 38.15640658556367,48.88217107127275 38.12741589118377,48.941782783142116 37.9824624194589,49.42719076445064 37.627326413756236,50.28729232749174 37.322924123116536,50.90042832541076 36.89531138155144,51.658325976321066 36.511184681468876,52.22887334922416 35.89513242660905,53.01230482761457 35.25733715103706,53.702058727853 34.894953471724875,54.05119112540706 34.525322118832264,54.37477587403555 33.873031496070325,54.88569646637188 32.64092698637978,55.73722345386341 30.249194702948444,57.355099478423654 29.850572655705037,57.63609562611964 29.357730851857923,58.03630053772213 28.99534717251663,58.36838392743812 28.66920186113566,58.69195101771038 28.096635647845687,59.305021875443344 27.770490336435614,59.70521834483225 27.32113457407104,60.3097666195099 27.154438081604894,60.54817875354638 26.915264853276312,60.9483689349363 26.46590909094084,61.79131609911565 26.14701145311119,62.52356594271987 25.733894058706937,63.724100442217605 25.407748747325968,64.5585037622659 24.87866857551853,65.71643664962903 24.349588403711095,66.77218422128499 22.363725841074483,70.25434855124331 22.24051539011998,70.49273072605138 22.110057265585056,70.70557134682895 21.17510737295379,72.32314136026253 20.631531853985507,73.31069416904938 20.457587687909836,73.59163366522989 20.109699355787598,74.24715527860826 19.703829634934664,74.93672410390718 18.88484251970658,76.40948678816494 18.268790264846757,77.74601649114629 17.891911238373723,78.7335016496072 17.645490336435614,79.49113277423749 17.413564781687455,80.32536989523942 17.21062992126099,81.1766232023947 17.080171796726063,81.83208201207162 17.02219040802447,82.19811509001738 16.884484609850915,83.4749614174143 16.775769506086363,84.95607736233069 16.667054402292706,85.84132883728307 16.572834645659896,86.39460598360165 16.36989978523343,87.35644782103918 15.65238010021858,90.35255283184961 15.529169649264077,90.95686709443544 15.246510379365645,92.07185736390238 15.137795275601093,92.58253468911425 14.93486041520373,93.36556685946562 14.862383679312188,93.72303549404023 14.586972083052387,94.84649784296926 14.514495347160846,95.11884995213768 14.5,95.13587192785053 14.514495347160846,95.03374001859629 14.586972083052387,94.769898643528 14.90586972082383,93.37407803619135 16.246689334278926,87.75650249035243 16.485862562636612,86.6754990553527 16.572834645659896,86.15627168684296 16.71054044383345,85.08375847429852 16.78301717969589,84.28362010846467 16.804760200408055,83.66223048068787 16.935218325001188,82.58968348609778 17.10916249107686,81.37241016842017 17.290354330732953,80.5211589663304 17.435307802457828,80.06147951156163 17.565765926992754,79.5251834410592 17.971635647845687,78.37596534233307 18.073103078029817,78.16314534516277 18.261542591295438,77.66940074844024 18.834108804585412,76.41799978759809 19.109520400874317,75.89870514578797 20.609788833215134,73.28515416539449 20.776485325710382,72.95313336815161 22.04482820330304,70.76516661807545 22.494183965638513,69.95636982304859 22.87831066569197,69.3263539613472 24.37857909806189,66.6700157170053 24.711972083052387,66.00591722402896 25.21930923408945,64.907588255046 25.6614173228445,63.783700971158396 25.98756263422547,62.847116040553374 26.291964924836066,62.089325574139366 26.625357909826562,61.41667402373423 26.850035790994298,60.9909422393539 27.045722977811238,60.65886985729594 27.34287759484141,60.22461925466632 27.61104151752079,59.84145497893769 27.864710093068425,59.51789258990175 28.480762347899145,58.81967450482625 28.821403006411856,58.470563151553506 29.560665712255286,57.814910836816125 29.981030780239962,57.48282512385049 30.430386542575434,57.16776815884077 32.010379384388216,56.12040760785749 33.94550823196187,54.79202793815057 34.409359341458185,54.42586808175838 34.69201861132751,54.18743749669375 35.00366857551853,53.906429098773515 35.366052254859824,53.54878060313786 35.79366499642492,53.071913426800165 36.177791696507484,52.60355893741507 36.859073013591114,51.658325976321066 37.228704366483726,51.01964866194612 37.54035433070385,50.38948199054721 37.859251968504395,49.57196098916029 38.09842519686208,48.89068703286466 38.149158911954146,48.77997946067626 38.22888332139701,48.686303701630095 38.33759842519066,48.62669179721706 38.40282748750178,48.62669179721706 38.93915533286054,48.737399583958904 40.32346098785638,48.899202993532526 41.45409806727548,48.958814692581655 42.36730493916548,48.941782783142116 43.39647458840045,48.899202993532526 45.0272011453053,48.805527375719976 45.78095919828047,48.82255931446707 46.23756263422547,48.85662318100367 46.947834645659896,48.941782783142116 49.15837508946424,49.3846112361789 49.91938081601984,49.51234975224361 50.832587687909836,49.708215076207125 51.52836435218342,49.81040548744204 52.079187544761226,49.938143315841444 52.94166070150095,50.048849266902835 53.70991410166607,50.09994426898629 55.028990694350796,50.048849266902835 55.95669291340164,49.97220670191018 58.986220472463174,49.699699202647025 60.40676449533203,49.58899276288139 61.63886900502257,49.46125437058072 64.34949892628356,49.25687251378986 65.08876163206878,49.17171325091476 65.45114531141007,49.15468138735014 66.45857193990378,49.05249012884451 67.53122763065039,48.967330645915354 70.01717967074364,48.74591556112864" stroke="red" stroke-linecap="round" stroke-linejoin="round" stroke-width="0.5"><title>2024-12-08 42.6km</title><desc>13069307927</desc></polyline><polyline fill="none" points="104.7435174746206,63.43535956967389 104.52282976324204,62.65766347004683 104.5,62.08609852646623 104.64458850055235,61.917439183242095 104.97942502817023,61.84247935296298 105.71758737316122,61.87058929813793 106.35682074408396,61.992398938346014 107.07976324687479,62.282867279122 107.17108229987207,62.23601762311591 107.26240135286935,62.07672857291618 107.58201803831616,61.30838838589989 107.91685456593405,61.083506836759625 108.23647125140997,61.00854617002187 108.92136414878769,60.96169571509381 109.43122886130004,60.84925450349692 110.40529875986977,60.793033834255766 111.41741826379439,60.98043590060115 112.24689966178266,61.28964828266908 113.05355129647069,61.52389923547162 113.89825253665913,61.86121931760863 114.59075535513693,62.00176890243165 115.32130777899874,62.264127420239674 115.71702367530088,62.33908682760375 116.12034949264489,62.48900541674084 117.20095828632475,62.73262248268293 118.33483652758878,62.8263211427402 120.10794813977554,63.12615606547479 120.76240135286935,63.08867676593218 121.5157835400023,62.92938953310659 122.48224351747194,63.06993710910319 122.95405862454209,63.032457781351695 126.35569334833417,62.029878787674534 127.30693348363275,61.983028973059845 129.42249154450838,62.17042805536039 129.68122886130004,62.27349735028838 130.74661781283794,62.89191013487289 131.56848928975523,63.06993710910319 132.67953776774812,63.182374979580345 133.31116121759987,63.191744794479746 133.88190529873827,63.135525887417316 134.38416009015054,63.013718110421905 136.0431228861271,62.479635513736866 136.9030439683993,61.92680915675737 137.70969560314552,61.15846742834401 138.23478015782894,60.605631297963555 139.1479706876853,59.350022182043176 140.0078917699866,57.747684386355104 142.19193912061746,54.674098180475994 142.80073280716897,53.58706791677105 143.04425028181868,53.240339419731754 143.69870349494158,52.537506448759814 144.3074971814931,52.162659494177205 144.80975197290536,52.012720185754006 145.57835400223848,51.900265506985306 147.26014656142797,51.890894276126346 148.94193912061746,52.11580349261203 150.41826381057035,52.228257846989436 150.9281285230827,52.34071203209169 151.7499999999709,52.65933130407211 151.8337091318972,52.75304259605036 151.76521984214196,53.35279208156862 151.85653889513924,53.82134301739279 153.90360766628874,58.06628060282674 154.0862457722542,58.56291317240539 154.2841037203907,58.609765131208405 155.74520856820163,58.553542777110124 155.97350620065117,58.60039474179939 156.7344983088842,59.14387538561277 157.46505073280423,59.86538668512367 157.761837655009,60.024680448841536 158.5456595264841,60.06216128508095 159.2305524238909,59.92160805227468 160.1361330326763,59.60301974586764 162.0157835400023,58.69409858308791 163.17249154450838,58.73158008667815 163.38556933484506,58.64724667711562 163.49971815105528,58.12250332353142 163.8193348365021,57.23230527782289 164.00197294249665,56.07971731670841 164.3444193911855,51.77843941398896 164.39768883879879,50.625767317797 164.49661781283794,50.110339081744314 164.4661781284958,49.594907289676485 164.74013528748765,48.88266841595032 165.10541149941855,48.31099809184525 165.28043968431302,47.673721098704846 165.1662908680737,48.50780312340794 165.03692220966332,48.77020902567892 164.67164599776152,49.7167369432791 164.3063697857724,53.099773354457284 164.19983089063317,54.28052008381201 164.00958286353853,56.9980408716001 163.33229988723178,59.21883792283188 163.31708004508982,59.406243936900864 163.93348365274142,61.05539659554779 164.0248027057387,61.43956897704629 164.03241262680967,62.06735861823108 164.45856820742483,62.7232526102016 164.7629650507297,63.791410504964006 165.0445321307634,64.55035552144545 165.2956595264841,65.03757542073436 165.5315670800046,65.98389730331837 165.9805524238909,67.09885523571575 166.11753100340138,67.62353556650487 166.53607666288735,68.75720727616863 166.61217587371357,69.24439975328278 166.41431792557705,69.93770664974 166.36104847799288,70.34057121665683 166.09470124013023,70.89333534482284 166.04143179254606,71.30556355922454 166.69588500563987,71.59599570887804 167.129650507326,71.68031450871058 167.4568771138729,71.95200777229184 167.76888387821964,72.1206444736963 168.33201803828706,72.39233613684337 168.91037204058375,72.59844639505172 169.48872604282224,72.9357165008405 169.8768320180243,73.0481395312745 170.75197294249665,73.46972438963712 170.896561443049,73.33856491068582 171.28466741822194,72.40170479729568 171.8401916572766,71.38051389943575 172.0456595264841,71.15566265339294 172.8218714768591,70.61226934978913 173.81877113867085,70.08760999804508 175.30270574969472,69.15070913891395 176.505073280714,68.49487155013048 176.7866403607477,68.27001162357192 176.77903043967672,68.16695059778431 176.2996054114774,67.54858145902836 175.6755918827257,66.50858546101517 175.1048478015582,65.7028128465463 173.95574971812312,63.64149452842685 173.97857948139426,63.50094802730746 174.15360766628874,63.21985423215665 174.34385569332517,61.95491907019459 174.4580045095645,60.671222239114286 174.5721533258038,60.08090169612842 174.60259301011683,58.9658390583063 175.18094701241353,57.66334986635775 175.66798196165473,56.86685248330468 175.8886696730333,56.37020864117221 176.40614430664573,55.479989719395235 176.63444193909527,54.98333665920654 177.73788049604627,53.05291794057848 177.94334836525377,52.781155960714386 179.13810597517295,51.68472689956252 181.0786358511832,49.64176487228542 182.04509582862374,48.161051053109986 182.74520856820163,46.85837348923815 182.88979706875398,46.2585718655173 183.0876550168905,44.740302481317485 183.2474633596139,44.68406968930503 183.97040586243384,44.796535231034795 184.0312852311181,44.90900060343847 184.00084554677596,45.07769834461942 183.58229988723178,45.9961571407548 182.99633596389322,46.652192224275495 182.3875422773417,47.90801474280306 181.31454340470373,49.64176487228542 180.98731679818593,49.997881539507944 178.10315670800628,52.94046482743579 177.86724915445666,53.2965657718014 177.89768883876968,53.390276264552085 178.06510710256407,53.43713146684604 180.0132468996453,53.59643893489556 182.144024802692,54.49605120304477 183.09526493796147,54.60850197500258 183.5746899661608,54.60850197500258 183.67361894022906,54.6366146415603 183.74971815105528,54.75843607432034 184.5639797068725,65.47794452001835 184.77705749715096,69.63789905124577 184.9673055242165,71.5678894211378 185.03579481394263,71.81147689719364 185.2184329199372,74.02246537960309 184.6400789176696,74.98741019417503 183.14853438554564,77.22640892075287 182.81369785792776,79.24988146701799 182.11358511834987,80.65503851594985 182.15163472379209,80.7674499390705 182.3494926718995,80.9173315736407 185.0510146561137,82.33182470257452 185.44673055238673,82.56600972486194 185.5,82.64094877709431 185.32497181510553,82.61284664131381 182.60822998869116,81.13278589695983 181.9766065388685,80.74871471361985 181.93094701235532,80.63630326236307 182.69954904168844,79.15620339146699 182.7984780157858,78.29435958903196 183.01916572713526,77.22640892075287 184.91403607666143,74.3222553935484 185.14233370908187,73.88193839671294 184.73139797066688,70.4811048570773 184.46505073277513,65.8808331252585 184.25197294246755,63.575906194135314 183.95518602026277,59.62176027208625 183.88669673050754,58.08502151443827 183.6583990980871,56.24838983613154 183.59751972943195,54.805290418655204 183.48337091319263,54.68346906224906 182.509301014652,54.6366146415603 182.05270574972383,54.57101840317773 180.37091319050523,53.74637506510771 179.91431792554795,53.57769689745328 177.73788049604627,53.43713146684604 177.58568207436474,53.55895485531801 176.6572717023373,55.20823656714492 175.58427282975754,57.297899179953674 175.37119503944996,57.625867826951435 174.9450394588348,58.47857957246015 174.7852311161114,59.03143143876514 174.74718151069828,59.7154628326316 174.51127395711956,61.31775843574724 174.26014656142797,63.64149452842685 174.2905862457701,63.80078024351678 174.5721533258038,64.2317869469116 174.6939120631141,64.59720372672018 174.88416009015054,64.86892273808189 175.19616685455549,65.54353118513973 175.90388951517525,66.58354061142745 176.07891770009883,66.94894589328032 176.80186020291876,67.96082811997621 176.92361894022906,68.26064244526788 176.91600901915808,68.3824416714051 176.23111612172215,68.84152927831019 175.62993235624162,69.12260193171096 174.0470687711204,70.14382367617509 173.27846674178727,70.5747938039276 172.91319052988547,70.70595813221735 172.15219842162332,71.22124433668068 171.90868094700272,71.53041435434716 170.95744081170415,73.44161880639876 170.7367531003256,73.65709467463603 170.53889515221817,73.63835766726697 169.785512965027,73.31045927815285 169.19193912061746,72.98255945072742 168.71251409241813,72.77645025160746 168.10372040586662,72.41107345656201 167.3807779030176,72.10190708120354 166.49041713637416,71.64283949830133 166.25450958285364,71.57725818489416 165.91206313416478,71.38051389943575 165.80552423899644,71.38988268666435 165.6989853438572,71.53041435434716 165.4478579481074,72.30801814018923 164.82384441938484,73.43225027629524 164.6792559188325,73.90067534302216 164.23788049604627,74.57520228269277 164.04002254788065,75.35277439738275 163.87260428408626,75.63382256940531 163.63669673056575,75.86802857232396 163.25620067643467,76.70179598739924 162.86809470120352,77.3669296170774 162.7158962795802,77.76975414951448 162.24408117248095,78.42551037375961 161.84075535510783,78.80959349131444 161.55918827504502,79.24988146701799 161.27001127394033,79.48407614240568 160.82102593008312,80.12108194821485 159.4816798195825,81.71357271957095 159.28382187147508,81.73230770324881 159.02508455468342,81.5824277023421 158.61414881623932,81.13278589695983 158.11189402479795,80.70187662947137 157.81510710256407,80.52389164206397 156.9475760991918,79.83068291574455 156.54425028184778,79.59648932604614 156.3768320180243,79.43723726601456 155.9582863585092,79.22177805667889 155.17446448703413,78.50045357605995 155.0679255918949,78.48171778250253 154.93094701238442,78.55666092842876 154.30693348363275,79.44660504366038 153.61443066515494,80.25222952864715 152.19137542275712,83.12805078586825 151.88697857948137,83.98983887437498 151.5825817361765,84.51440067416115 151.1716459977324,85.76958718642709 150.37260428408626,87.62422719967435 150.3193348365021,87.92396268223092 149.6572717023373,89.76918278430094 149.13979706875398,90.99618211641064 148.89627959410427,91.76421725591354 148.40924464483396,92.93498735449248 148.05157835403224,94.83627894733945 147.67108229987207,98.33902460600075 147.41995490412228,99.97795354574919 147.39712514088023,100.81145220381586 147.28297632469912,101.27034075951815 147.11555806084652,102.7031787456508 146.90248027053894,103.84568348774337 146.43827508453978,104.25773009737168 145.67728297630674,104.62295133144653 144.56623449831386,105.31593031068769 144.61950394586893,105.20355577710143 144.97717023672885,104.8757957567941 145.56313416006742,104.5199403946317 146.4763246899529,104.07980115799 146.81116121757077,103.80822459252522 146.85682074405486,103.46172892256436 147.1612175873306,101.94462087738066 147.27536640359904,100.68034067085682 147.44278466742253,100.0060491573895 147.91459977449267,95.18281457231933 148.24182638103957,93.009916016832 149.76381059750565,88.84189512441662 150.54002254790976,86.95918480781984 150.7302705749462,86.26603573871398 151.52170236749225,84.22401870398608 151.5901916572475,83.85869784942042 151.84892897403915,83.17488735024381 152.6099210822722,81.84471750676312 153.4622322435025,80.05550807171676 154.23083427280653,79.14683557744866 154.95377677562647,78.37867083422316 155.12119503942085,78.27562374388799 155.23534385566018,78.29435958903196 156.07243517471943,78.90327200117463 156.20180383312982,78.91263984569377 156.20180383312982,78.48171778250253 156.4072717023373,77.76038616176811 156.39966178123723,77.39503372467152 156.59751972940285,77.02967950214952 156.68883878240013,76.53316961988457 156.85625704619451,76.05539284639235 156.84864712515264,75.42772067988699 157.13782412622822,74.9967785293702 157.25958286359673,74.70635959198262 157.40417136411997,73.90067534302216 157.57158962791436,73.40414467894152" stroke="red" stroke-linecap="round" stroke-linejoin="round" stroke-width="0.5"><title>2024-03-03 42.1km</title><desc>10878173593</desc></polyline><polyline fill="none" points="31.608323804015527,184.53197146402817 31.686234951223014,184.5 31.828308219643077,184.5213143115543 31.851223262943677,184.57460005186294 31.910802375496132,184.60657146955054 32.107871747837635,184.6225571709656 32.295775102888,184.69715704519695 32.63950075230969,184.77175681131484 32.877817202563165,184.7930710103501 32.96489436709089,184.8410279259042 33.180295774072874,184.8676706374572 33.29487099054677,184.9209560191921 33.36361612043402,184.90497041046183 33.63859663998301,184.979569875406 34.24813679163344,185.04884071031483 34.57353040644375,185.14475402015887 34.66060757097148,185.14475402015887 34.68352261425753,185.11811145201136 34.82559588269214,185.14475402015887 34.92183906454011,185.18205359238345 34.976835168432444,185.29395214687975 35.022665255033644,185.2140246327799 35.14640648882778,185.2566526557457 35.18307055810874,185.33125161098724 35.242649670661194,185.36855104807182 35.33889285250916,185.33658010365252 35.3709739131009,185.36855104807182 35.45346806898306,185.34723708733145 35.485549129589344,185.36855104807182 35.55429425947659,185.33125161098724 35.746780623157974,185.36855104807182 35.985097073426004,185.36322255872074 36.09050627259421,185.40585045812622 36.759625536826206,185.52840547229061 37.51582196557138,185.7415439323704 37.877879649648094,185.8054852983114 38.91363960658782,185.94402465201347 40.26104415237205,186.237087440888 41.457209412386874,186.44489458927274 42.31881504030025,186.65270089876867 43.528729326295434,186.91378968829667 44.17951655588695,187.25480162319218 46.076882140754606,188.45365377682174 46.548932032630546,188.6987490021529 48.615868937864434,189.89223951198073 48.9320965353545,190.04142388044784 49.688292964099674,190.3504472686691 49.912860388401896,190.40372697571001 50.19242391662556,190.44102273786484 51.04944653584971,190.3824150995133 51.41150421992643,190.47831847298585 51.85147305121063,190.75537165960122 52.38310205565358,191.3201293079983 53.318035822114325,192.36970961650513 53.75342164472386,192.68937449593068 54.110896320140455,192.79592901477008 54.25755259722064,192.7639626822638 54.50503506480891,192.77994585098713 55.31622759747552,192.74265178290443 55.540795021748636,192.76929040573668 55.87993766252475,192.7586349582598 56.077007034866256,192.82789532742754 56.200748268689495,192.96108808323334 56.26949339857674,194.13316948002102 56.25116136392171,194.76714784591604 56.27407640720776,195.4437379973533 56.31532348514884,195.67814511051984 56.31074047650327,196.35472329450567 56.338238528434886,196.32275917087827 56.30157445916848,196.13097401253253 56.31532348514884,195.61421600364702 56.27865941588243,195.34784387082254 56.26949339857674,194.65526987785051 56.29240844186279,194.56470182094927 56.27865941588243,193.92006575570122 56.21908030331542,192.89182789320694 56.08617305220105,192.74797950857828 55.870771645219065,192.7373240566958 55.7974435066717,192.78527357280473 55.540795021748636,192.73199632991964 55.45830086591013,192.59880298155986 55.46746688323037,191.90619201648587 55.5087139611569,191.82627476720518 55.57745909104415,191.78365218353065 56.96611071474035,191.74102956457136 57.2319252169691,191.70906257719253 57.33733441613731,191.73037390433092 57.630646970297676,191.69307907608527 57.983538637068705,191.7143904098266 59.35385822612443,191.67709556999034 60.728760823840275,191.5971779651336 60.815837988382555,191.61848933856163 61.13664859451819,191.58119442928364 61.50328928724048,191.63447286283554 61.97992218779109,191.86889731558767 62.28698376794637,192.08733732236942 62.50696818357392,192.16725416648842 62.56196428749536,192.22053199367292 62.67195649530913,192.23651533107477 62.90568993691704,192.35905408636245 62.96068604082393,192.42298723422573 63.01568214475992,192.41765947492604 63.30899469893484,192.5721642705612 63.55189415784844,192.74797950857828 63.69396742628305,192.81723989207967 63.932283876565634,192.90781102224355 64.58765411481727,193.31804297001509 65.21552630110818,193.6217190601492 65.9029775999661,194.01063494627306 66.05421688573551,194.0639108663454 66.20087316280114,194.07989363160596 66.31544837930414,194.0212901347113 66.66834004603152,193.3553366214037 67.2412161284301,192.71068541734348 67.73618106360664,191.84225822698863 67.84617327140586,191.6877512412757 68.02032760046131,191.19758808030383 68.03407662644167,190.84061849404316 68.14406883427,190.27585558614737 68.19906493817689,190.19593580638684 68.32280617197102,190.13199989327768 68.9185972976411,190.44102273786484 69.20274383451033,190.63815703180808 69.55563550125225,190.79266716703205 70.16059264425712,191.09103025397417 71.21468463585188,191.7037347440455 71.45758409478003,191.79963565654907 72.09462229839119,192.1832375204358 73.65742825114285,193.02502048365204 73.80408452822303,193.07829742338072 74.02865195252525,193.2381279118199 76.11850390107429,194.35692744149492 76.51722565443197,194.54871920611913 76.85636829519353,194.7564928118045 77.19551093596965,194.9109905906007 78.08919762447476,195.41710075788797 78.39167619596992,195.53963194532844 78.34584610939783,195.57692398798463 78.25418593622453,195.58757885236264 77.94254134739458,195.47570266650655 76.92511342508078,194.90566308869165 76.32932229939615,194.62863223060413 75.75644621701213,194.2610312913348 74.92233864105947,193.866789686821 74.07906504777202,193.38730258681244 73.63909621650237,193.17952345700178 72.89206580507744,192.76929040573668 72.47042900844826,192.52421455600052 72.20461450621951,192.42298723422573 72.09920530706586,192.49224805482663 71.65923647578165,193.27009394998822 70.6509745707881,195.07614287607066 70.04601742778323,196.23752141088698 70.05976645376359,196.21621194886393 69.97268928925041,196.55716228348683 69.94060822861502,196.49856160534182 69.89936115068849,196.54650761969242 69.61979762249393,197.05260171584814 69.3448171029595,197.69187136120308 69.14316472194332,198.04346628435815 69.00567446218338,198.21393568625717 68.3640532499121,199.46047604232808 68.30905714599066,199.63094075501795 68.18531591219653,199.78542391366864 67.95158247057407,200.17962021923813 67.39703842283052,201.31957634531864 67.39703842283052,201.4367666667713 67.54827770857082,201.88421816942355 67.63077186445298,202.02271427555388 67.76826212419837,202.13990299763827 68.02491060913599,202.53940800152122 68.26781006804958,202.9495632494545 68.4557134230854,203.35438860420254 68.70777889933379,204.1160908466336 68.82693712445325,204.74994636683914 68.93692933228158,205.0642079772806 68.99650844483403,205.3891205085747 69.43647727613279,206.4011300193706 69.5098054146656,206.91777984362852 69.17066277388949,208.39845889472053 68.92318030630122,208.55291577000753 68.66653182139271,208.82454570371556 68.49696050102648,208.9843273489605 68.42821537112468,209.01095757501753 68.23114599878318,208.92574080321356 68.05240866108215,208.9097626428338 67.2412161284301,208.89911053313335 67.14497294658213,208.80324144694168 67.13122392060177,208.42508942347922 67.02581472143356,208.37715446181392 66.33836342259019,208.36650224205368 66.22378820610174,208.42508942347922 65.9946377731394,208.46237214063513 65.66007814103796,208.64345924030204 65.44009372539585,208.845849951711 65.1971942664677,209.13345643761204 64.70222933127661,209.74594638364215 64.61056915810332,209.9003992209291 64.51890898491547,210.75787034887617 64.55557305418188,211.22654419116952 64.51890898491547,211.63130453487247 64.46391288100858,211.72184259785354 64.32183961257397,211.82835776245702 64.22559643074055,211.83900926683054 63.652720348371076,211.82303200945535 63.50606407127634,211.8443350181733 63.19441948244639,211.80705474715433 62.92402197155752,211.66858493300242 62.7911147204577,211.85498651923626 62.73153560787614,211.88694100918656 62.3878099584399,211.88694100918656 62.32823084588745,211.82303200945535 62.30073279392673,211.89226675559257 62.23198766402493,211.90291824674568 62.0395013003581,211.90291824674568 61.85159794532228,211.86563801809098 61.59953246907389,211.92422122243806 61.567451408467605,211.88694100918656 61.361216018820414,211.91889547933897 61.2191427503858,212.0360617004444 61.1733126637846,212.31299898262296 61.23289177636616,212.82426390269757 61.264972836957895,213.3568261361288 61.28788788027305,213.92133609711527 61.26038982831233,214.01719566523388 60.989992317408905,214.0651253824508 59.505097511879285,214.08642746469923 59.11554177587095,214.1290316027662 59.000966559382505,214.20358875969396 59.04679664596915,214.4166086139121 59.051379654643824,214.86394744296558 59.04679664596915,215.12489330087192 59.014715585362865,215.30595699756668 59.04679664596915,215.35388551673168 59.05596266327484,216.663914455934 59.11095876719628,218.0218361524967 59.08804372391023,218.14431360623712 59.01929859400843,218.2135398644714 58.87722532558837,218.3093914532219 58.5609977280983,218.32536670067202 58.464754546264885,218.50641915945016 58.51058463285153,218.86852217004343 58.675572944572195,219.16672274022494 58.63890887530579,219.1880227149777 58.698487987872795,219.19867269905444 58.75348409177968,219.2732225259897 58.767233117774595,219.87494218385473 58.60224480603938,219.8589674164068 58.57932976275333,219.9335162888492 58.61141082335962,220.46068024021952 58.5839127713989,220.55120280088522 58.60224480603938,220.76952126412652 58.56558073677297,220.8547184625204 58.59766179736471,221.0836852358043 58.57474675407866,221.5469404823125 58.61141082335962,221.8185019681914 58.57932976275333,223.62355080273846 58.49683560687117,223.719392337709 58.33184729516506,223.74069043239433 56.86528452424682,223.70874328706486 56.846952489591786,223.88445234159735 56.915697619493585,224.34768243469807 56.911114610833465,224.83753042175886 56.938612662794185,224.83220601212815 56.96611071474035,224.88012567907936 56.929446645473945,225.1090745845686 56.961527706094785,227.7818447787722 56.99819177536119,228.16517895112702 56.98444274938083,228.4473536748592 57.0806859312288,228.8466548922661 57.11735000050976,229.3950235284101 57.25484026025515,234.48978169762267 57.2319252169691,234.96888668780593 57.26858928623551,235.02212030109513 57.27317229491018,235.14988074896246 57.26400627758994,235.99096247062698 57.33275140746264,237.65179245641048 57.50690573651809,240.87748264662514 57.54815281445917,240.24407093684567 57.447326623951085,240.04180337581784 57.419828571990365,240.1003545933927 57.442743615290965,241.70782572315875 57.51148874517821,243.76765763113872 57.56190184042498,243.89539643911849 57.456492641271325,244.0071676369007 57.442743615290965,244.09764890553924 57.55273582309019,244.26264375199753 57.60314891835151,247.58371824983624 57.58023387505091,248.32880178872801 57.59398290103127,249.41979758048183 57.64897900495271,249.7710401027798 57.70855811750516,251.39949695736505 57.8781294379005,257.99262610236474 57.89646147254098,259.19515620864695 57.86896342058026,259.663390451773 57.90104448121565,259.7219194339086 57.88271244656062,260.04648804113094 57.99270465437439,261.7491096418198 58.04311774963571,265.1648251254992 58.10269686218817,265.5 58.13019491414889,265.4627584545815 58.13477792282356,265.10098204589303 58.02936872365535,260.19014890509425 57.969789611088345,258.90782855022553 57.91021049852134,256.8486002511927 57.83229935131385,253.28865546359157 57.8552143945999,252.99065195000367 57.75438820410636,249.39318820117842 57.694809091539355,248.24897192361823 57.717724134839955,248.0946338346148 57.671894048238755,246.6470265517819 57.736056169480435,246.02965228104222 57.70855811750516,245.73160688832286 57.736056169480435,245.3696923134412 57.703975108859595,245.29518017437294 57.64897900495271,244.1668403569456 57.53898679713893,244.01781250026033 57.3006703468709,243.8741066597322 57.16776309575653,243.84749442315297 55.86160562791338,243.86878421351503 53.70759155812266,243.87942910540733 53.010974241944496,243.85813931943994 52.95597813803761,243.69314318057513 52.94681212073192,243.46959918373977 53.08888538915198,242.84686437556593 53.029306276584975,242.71912297384188 52.781823808996705,242.54880061332733 52.67183160118293,242.37847769100335 52.65349956654245,242.28267080032674 52.70391266178922,241.96863585680694 52.68558062716329,241.81427899804112 52.768074783016345,241.56943613768817 52.91473106011108,241.50556389622943 53.24929069222708,241.59604954830866 53.46469209919451,241.57475882090148 53.77175367936434,241.61201758809693 54.11547932878602,241.59604954830866 54.2483865799004,241.649276328415 54.42254090895585,241.80895633950786 54.58294621203095,241.88879615989208 54.93125487011275,241.92605470047783 55.032081060591736,241.91540940591221 55.39872175332857,241.75040705944048 55.73786439410469,241.78234303862337 55.97159783572715,241.7450843943334 56.46197976224357,241.75572972402006 57.08985194854904,241.57475882090148 57.65814502227295,241.53750002682136 58.06144978427619,241.58540418570556 58.6297428580001,241.72379372837895 59.225533983670175,242.03783016095258 59.550927598480484,242.08573385566706 59.770912014108035,242.05912069742044 60.07339058560319,241.93669999285703 60.33920508783194,241.73443906245666 60.536274460173445,241.51620927529075 60.788339936421835,241.39378728352312 61.017490369369625,241.36717376864544 61.26955584563257,241.46298235801441 61.41162911406718,241.6173402669374 61.5078722959006,241.78234303862337 61.54453636518156,241.94734528304252 61.54453636518156,242.13896013099293 61.47120822663419,242.43170366458799 61.17789567245927,242.91605750287272" stroke="red" stroke-linecap="round" stroke-linejoin="round" stroke-width="0.5"><title>2023-10-29 41.8km</title><desc>10122270628</desc></polyline></svg>