<?xml version="1.0" encoding="utf-8" ?>
<svg baseProfile="full" height="300mm" version="1.1" viewBox="0,0,200,300" width="200mm" xmlns="http://www.w3.org/2000/svg" xmlns:ev="http://www.w3.org/2001/xml-events" xmlns:xlink="http://www.w3.org/1999/xlink"><defs /><rect fill="#222222" height="300" width="200" x="0" y="0" /><text fill="#FFFFFF" style="font-size:12px; font-family:Arial; font-weight:bold;" x="10" y="20">Marathons</text><text fill="#FFFFFF" style="font-size:4px; font-family:Arial" x="10" y="280">ATHLETE</text><text fill="#FFFFFF" style="font-size:9px; font-family:Arial" x="10" y="290">Chenle LI</text><text fill="#FFFFFF" style="font-size:4px; font-family:Arial" x="65" y="280">SPECIAL TRACKS</text><rect fill="yellow" height="2.6" width="2.6" x="65" y="283" /><text fill="#FFFFFF" style="font-size:3px; font-family:Arial" x="70" y="285.5">Over 20.0 km</text><rect fill="red" height="2.6" width="2.6" x="65" y="287" /><text fill="#FFFFFF" style="font-size:3px; font-family:Arial" x="70" y="289.5">Over 40.0 km</text><text fill="#FFFFFF" style="font-size:4px; font-family:Arial" x="120" y="280">STATISTICS</text><text fill="#FFFFFF" style="font-size:3px; font-family:Arial" x="120" y="285">Number: 5</text><text fill="#FFFFFF" style="font-size:3px; font-family:Arial" x="120" y="290">Weekly: 1.0</text><text fill="#FFFFFF" style="font-size:3px; font-family:Arial" x="141" y="285">Total: 213.1 km</text><text fill="#FFFFFF" style="font-size:3px; font-family:Arial" x="141" y="290">Avg: 42.6 km</text><text fill="#FFFFFF" style="font-size:3px; font-family:Arial" x="167" y="285">Min: 41.8 km</text><text fill="#FFFFFF" style="font-size:3px; font-family:Arial" x="167" y="290">Max: 44.0 km</text><polyline fill="none" points="40.986640277085826,61.22331930082146 41.515091538836714,61.42473410536695 42.191984166245675,61.9437610334644 42.453240969829494,62.08320023701526 42.76793666504091,62.14517309853545 44.115784265246475,62.21489248108628 44.18109846612788,62.23813225488266 44.240475012367824,62.30785151508098 44.264225630875444,62.54799493113751 44.32953983175685,66.50633114452285 44.394854032667354,68.00128137677893 44.42454230578733,70.2165186580205 44.40079168730881,70.45662622600139 44.44829292429495,71.35508360061067 44.44235526965349,71.72685460943467 44.299851558636874,72.00568115412534 44.299851558636874,72.37744759788256 44.32953983175685,72.5943101521334 44.49579416131019,72.79568172912695 44.6917367640126,72.75695648530018 44.917367639776785,72.57881999911115 45.0479960415978,72.51685934180205 45.83176645223284,72.50136916612973 46.28302820384852,72.39293780976368 49.45373577438295,72.26127086443012 49.67342899553478,72.21480009971856 51.549727857491234,72.16058415603402 51.882236516597914,72.12960359188583 52.582879762514494,72.13734873461362 53.88916378028807,72.05215210225651 56.50173181595164,71.9437198265623 57.178624443360604,71.96695533288948 57.8377041068743,71.9437198265623 58.36021771401283,72.01342631497027 58.80554181098705,72.16832929424345 58.930232558137504,72.24578061405191 59.08461157840793,72.37744759788256 59.32211776348413,72.68725097507559 59.41118258287315,72.90411226131255 59.500247402262175,73.34557713713002 59.55368629391887,73.87223217759674 59.523998020769795,75.40569792567112 59.55368629391887,75.73871745010183 59.51212271154509,76.28083778054861 59.52993567541125,76.70678557790961 59.57743691242649,76.91588597092414 59.62493814941263,78.44151942198732 59.666501731815515,78.69707809087049 59.642751113307895,78.92165893401761 59.690252350323135,79.97485294928993 59.642751113307895,80.23040422393024 59.642751113307895,80.49369818766718 59.71994062347221,82.49933574218812 59.67243938642787,82.90200285894389 59.68431469571078,83.33564094794565 59.642751113307895,83.73830171084046 59.45274616527604,84.08675567117098 59.434933201409876,84.17967634033266 59.518060366186546,84.41197730053318 59.690252350323135,84.59781733563068 59.73181593269692,84.69073710884186 59.749628896592185,85.441832628454 59.8268184067274,85.83673425098095 59.9455714992655,89.55331125684097 59.8921326076088,89.97140986340673 59.92775853537023,90.89276367059938 59.785254824353615,91.14051994548208 59.749628896592185,91.31085171277664 59.785254824353615,91.47344061647891 59.86244433448883,91.56634833755379 59.99307273628074,91.63602902149796 60.34933201386593,91.62828672781689 60.569025235046865,91.59731754171298 60.75903018307872,91.48118293278094 61.15091538842535,91.43472901796486 62.201880257285666,91.4966675619944 62.38594755070517,91.48118293278094 63.52003958437126,91.67474047300493 64.44037605146877,91.7444210144713 65.06382978725014,91.89152407903384 65.9247897080786,92.15476012310319 67.04700643246179,92.37928395132622 67.46857991095749,92.3947683182414 68.4542305789364,92.50315875986053 68.82236516577541,92.58832252278808 69.34487877288484,92.61154897986489 69.5467590301705,92.68122828998457 69.84364176151576,92.6580018634595 71.04304799603415,93.37801635409414 71.1558634339599,93.47866276193236 71.2330529440951,93.62576101429295 71.32805541812559,93.73414893910376 71.57743691242649,93.86576254984902 73.80405739735579,94.57801877463498 73.97624938149238,94.67092105500342 75.10440376051702,95.02704495499347 76.52350321624544,95.53025943100874 77.59228104900103,96.03346913078713 78.41167738742661,96.37410067828023 78.72637308263802,96.55989878178661 79.6645225136017,96.99342515787066 80.49579416131019,97.34179199846767 82.05145967341377,97.79079477226333 82.47897080652183,97.86820865929258 82.63334982682136,97.96110517452689 82.55022266207379,98.04626017051851 82.49084611577564,98.34043092254069 82.33052944089286,98.3868787868305 81.84364176151576,97.75208778634624 82.56803562591085,97.94562243328619 83.0371103414218,98.03077745414339 84.53339930728544,98.11593233823442 85.2221672439482,98.10819099079526 85.9465611083724,98.16238039918608 85.9881246907753,98.2630177249921 86.0,98.95973243410845 85.94062345376005,100.65503331880245 85.95249876301386,101.6226465125983 85.92281048986479,103.48815491358619 85.88718456213246,103.59652267929414 84.18901533895405,103.55781993124037 83.67243938645697,103.55781993124037 82.04552201880142,103.59652267929414 81.73082632359001,103.54233882412882 80.90549233052297,103.57330103384447 79.29045027215034,103.56556048311904 78.90450272141607,103.50363603653022 77.71103414153913,103.48815491358619 75.9891142998531,103.40300865661993 74.81939633845468,103.45719265413209 74.23156853043474,103.45719265413209 73.92874814447714,103.5268577124807 70.39584364177426,103.50363603653022 69.91489361703862,103.49589547564392 69.76645225135144,103.45719265413209 67.61702127658646,103.49589547564392 65.77041068777908,103.46493322069728 65.19445818901295,103.48815491358619 64.70163285502349,103.46493322069728 63.92973775358405,103.48815491358619 62.095002474001376,103.4726737861456 61.5784265215334,103.44171151765113 61.447798119770596,103.34108402022684 61.12716476994683,103.35656518608812 60.59871350816684,103.33334343558454 60.474022761016386,103.34882460371955 60.319643740716856,103.44171151765113 59.981197426997824,103.45719265413209 56.02078179118689,103.54233882412882 55.50420583871892,103.58878213193748 53.081642751116306,103.61200377058412 52.51162790696253,103.64296593964536 50.64720435428899,103.66618755457239 49.98218703613384,103.75133338899468 49.80405739732669,103.73585233836275 49.46561108363676,103.60426322550848 49.2756061356049,103.58104158346396 47.62493814941263,103.61200377058412 47.298367145005614,103.68166862556245 46.92429490349605,103.83647908668354 46.36021771401283,103.88292213686145 44.115784265246475,103.93710564403955 42.963879267685115,103.99902958445091 42.12073231075192,104.01451055825237 39.585353785252664,104.16157958395706 36.74121721921256,104.26994597349403 34.686788718478056,104.29316731385552 34.437407224148046,104.3473504018475 31.456704601703677,104.52538015832033 29.224146462162025,104.54860138683216 28.410687778319698,104.48667808819664 27.199406234547496,104.49441850447329 26.789708065305604,104.47119725225275 25.84562097970047,104.50989933367964 24.42058386935969,104.49441850447329 24.135576447297353,104.54086097846448 23.019297377526527,104.50215891963671 22.449282533401856,104.51763974656205 22.15239980208571,104.48667808819664 21.107372587837745,104.51763974656205 17.63978228601627,104.50989933367964 16.00098960910691,104.48667808819664 14.67689262740896,104.50989933367964 14.427511133108055,104.47893767078858 14.380009896092815,104.44023556674802 14.356259277585195,104.38605257365998 14.326571004465222,103.40300865661993 14.172191984165693,102.63668619139571 14.1187530925381,102.24965043428165 14.17812963880715,101.94776058265052 14.231568530434743,100.98015332164141 14.21375556656858,100.15186747976986 14.27313211283763,99.90415331271652 14.231568530434743,99.03714461443815 14.1187530925381,97.61274240311832 14.095002474001376,96.59860663808286 14.14250371104572,96.3431342644144 14.14250371104572,96.14959376785555 14.07125185552286,95.77799403392419 14.0,93.54059891792713 14.02375061850762,93.38575839222904 14.219693221180933,92.8980077802189 14.249381494300906,92.07733789288977 14.302820385957602,91.99991554958251 14.397822859958978,91.98443106737614 15.971301335986936,91.96120433553733 16.297872340423055,91.9070085883759 17.07570509647485,91.9070085883759 17.515091538865818,91.86055504670367 18.767936665011803,91.82958599634003 19.0707570509403,91.84507052378831 19.094507669477025,91.57409064027888 19.33201385452412,90.95470284787007 19.539831766480347,90.25788293071673 19.949529935693135,89.19715058352085 20.40079168730881,87.86539816696313 20.733300346357282,86.33229290868621 20.84611578428303,85.27148200056399 20.89361702129827,85.24825232707735 21.232063334988197,85.25599555269218 21.612073231081013,85.19404971599215 22.858980702614645,85.10113082518728 23.25086590796127,85.11661731827917 24.076199901028303,85.04692806363164 24.45620979712112,85.054671318685 25.352795645711012,85.0004685096319 26.041563582373783,84.938522374272 27.31815932705649,84.87657616650176 28.042553191509796,84.80688659623411 29.53290450273198,84.75268353378851 30.874814448296092,84.69073710884186 31.112320633343188,84.65202055645932 33.855517070769565,84.52812739882938 35.01929737752653,84.44295068497377 35.71994062347221,84.4274639950163 36.76496783772018,84.45843737040559 36.990598713513464,84.50489739954355 37.364670954993926,84.50489739954355 37.46561108363676,84.44295068497377 37.53686293915962,84.3655171899627 37.566551212308696,84.12547263644592 37.53686293915962,83.21174471312042 37.489361702115275,82.9174899946338 37.4596734289953,81.84886701394498 37.489361702115275,81.63204233038414 37.471548738278216,81.19839030201183 37.42998515587533,80.86540508607504 37.4596734289953,80.83442961078254 37.798119742714334,80.83442961078254 38.70064324591658,80.74150307628952 39.656605640775524,80.73375919107275 39.71004453240312,80.05229285960377 39.61504205837264,78.74354317098187 40.77882236518781,78.68158972178935 41.431964374060044,78.68158972178935 41.467590301821474,78.65835715965295 41.42008906483534,78.61963620014649 41.17664522511768,78.6041478084262 41.42008906483534,78.68933390689926 44.64423552696826,78.62738039432588 44.73330034635728,78.65061297000284 44.857991093507735,78.74354317098187 44.905492330522975,78.74354317098187 44.88767936665681,78.61189200485751 44.84017812964157,78.52670578190009 44.66798614547588,72.93509237258695 44.69767441859585,72.7492114331435 44.84611578428303,72.57881999911115 44.905492330522975,72.47038880125547 44.917367639776785,72.26127086443012 44.881741712015355,71.99019082903396 44.70361207323731,71.64165731698813 44.590796635340666,66.35915759715135 44.602671944594476,64.89514583646815 44.49579416131019,63.04377144290265 44.53735774371307,62.29235835408326 44.48985650666873,61.95925429642011 44.466105888190214,61.39374726220558 44.48391885205638,61.03739726301501 44.4542305789073,59.39505758496307 44.42454230578733,58.69782251158176 44.287976249383064,58.00057825953991 44.264225630875444,57.52799638079159 44.287976249383064,57.373050584585144 44.42454230578733,57.14837837491723 44.43641761507024,56.76875764801298 44.382978723413544,56.551830296666594 44.23453735775547,56.35814441070397 44.2048490846355,55.99401302746992 44.32360217711539,54.98682807686055 44.29391390399542,51.918669714974385 44.252350321621634,50.86491775275863 44.2701632855169,50.45425873626664 44.757050964894006,48.501647764824156 45.19643740722677,47.07588633434352 45.5883226126025,46.270004195121146 45.808015833754325,45.89805445533784 45.903018307784805,45.626839456130256 46.8649183572561,43.6120559665942 47.630875804054085,41.88393058058864 47.761504205845995,41.8374331541163 48.37308263237355,41.814184425580606 48.69371598219732,41.8374331541163 49.524987629876705,41.783186104963534 49.89312221671571,41.80643484711618 50.13062840179191,41.736688590019185 52.07224146465887,41.651443039885635 53.87135081645101,41.64369343762155 54.12073231075192,41.61269501719653 54.13854527461808,41.49645077887544 54.07916872834903,41.10896814111766 54.073231073707575,39.51250975939183 54.0435428005876,38.95451295100065 54.09104403760284,37.83850168851495 54.05541810984141,37.466492705741985 54.08510638299049,36.427953791851905 54.16823354776716,35.73041621693119 54.25136071254383,35.699414333597815 54.637308263249,35.699414333597815 54.66105888175662,35.660661953894305 54.643245917890454,35.4513986131642 54.65512122711516,35.590907598907506 54.607619990129024,35.676162909163395 54.18604651163332,35.66841243208546 54.13854527461808,35.528903650632856 54.0969816922443,35.55215513975054 54.01979218207998,37.24173601175062 53.98416625431855,37.613746574043034 53.91885205343715,37.70674880612205 52.67194458187441,37.68349826340636 52.452251360722585,37.55949519654314 52.060366155346856,37.41224117732054 50.71845620981185,36.79997007330894 50.2375061850762,36.6139622593837 49.98218703613384,36.47445597002297 49.821870361221954,36.466705609840574 49.60217714004102,36.396952317038085 49.53092528451816,36.41245305671691 49.35279564571101,37.22623551491779 49.03216229588725,38.427510564550175 48.86590796636301,38.9622629469668 48.72340425531729,39.28776175230087 48.658090054406784,39.34201135862895 48.70559129145113,39.34201135862895 48.70559129145113,39.37301110869521 48.52746165264398,39.76825633088811 48.46808510637493,39.81475557478916 48.46808510637493,39.90775394004231 48.1949529935664,40.55873792240163 47.92182088075788,41.17871522522182 47.797130133607425,41.39570556590843 46.76991588322562,41.43445374742441 46.31865413160995,41.41120484192652 45.84957941612811,41.48095152783935 45.08362196935923,41.47320190058963 44.77486392876017,41.418954478223895 44.394854032667354,41.132217179350846 44.228599703114014,41.10896814111766 43.97328055417165,41.16321588113351 43.55764473034651,41.48095152783935 43.49826818407746,41.55844773774152 43.46857991095749,41.682441437635134 43.53983176648035,41.79868526754581 43.51608114794362,41.922678404767794 43.53983176648035,42.023422614933224 43.95546759030549,42.356652098147606 44.002968827291625,42.46514496564123 44.020781791215995,44.54196556596435 43.95546759030549,47.40133525976489 43.95546759030549,50.183067073729035 44.002968827291625,50.80293169019569 43.99109351806692,51.78695186643745 44.06828302820213,53.61547623345541 44.080158337485045,54.8938561926625 43.961405244946945,55.800325101467024 43.961405244946945,56.296164777581 43.93171697179787,56.42012397128201 43.818901533901226,56.62930445273378 43.80108857000596,56.737768080805836 43.818901533901226,57.194862358577666 43.842652152408846,57.256840939960966 43.95546759030549,57.38079788516916 44.00890648193308,57.52024910172986 44.02671944582835,57.992831049614324 44.18109846612788,58.86051151632637 44.2048490846355,60.11552418519932 44.18109846612788,60.36342440516091 44.115784265246475,60.40990556723045 44.121721919829724,60.510614611790515 44.13953488372499,59.852128930200706 44.02671944582835,59.836635050876794 43.71796140522929,59.86762280500625 43.17169717961224,59.836635050876794 43.130133597238455,59.79015338573663 43.08857001486467,59.58873236535874" stroke="red" stroke-linecap="round" stroke-linejoin="round" stroke-width="0.5"><title>2025-03-23 44.0km</title><desc>13960233188</desc></polyline><polyline fill="none" points="176.9495172413881,85.12707608329947 176.85682758621988,84.66908789926674 176.84358620690182,83.92485262437549 176.64496551721822,82.50077160279761 176.6184827586403,81.44164291115158 176.43310344827478,79.6811744391016 176.3006896551815,79.1158141632186 176.28744827586343,78.80092857193813 175.89682758622803,77.21932911466865 175.75779310343205,76.1100475887215 175.28110344827292,73.71968294747785 175.21489655171172,73.68389861110336 174.93682758620707,73.72683981322189 173.24193103448488,74.0846824462642 171.65958620689344,74.18487815377011 171.40137931035133,74.27791693506151 170.97765517240623,74.54987595272542 170.666482758621,74.61428719055402 169.99779310345184,74.86477494289284 169.77268965516123,75.02222406571673 169.70648275862914,75.19398646213813 169.7197241379181,75.38006205834245 170.00441379309632,76.00269710996508 170.29572413794813,76.98316053144663 170.42151724136784,78.54329416821565 170.39503448276082,79.42354230504861 170.2361379310314,80.76179087634955 170.07062068965752,81.3700797568672 170.05737931033946,81.22695329457201 170.22289655171335,80.32525186816929 170.269241379312,79.3090389211211 170.18979310343275,78.22840677262866 169.96468965517124,77.16207617605687 169.6204137931054,76.11720428320405 168.72662068967475,73.86997702027293 168.08441379311262,72.54595002845599 167.68055172413005,71.85888045624597 166.97213793103583,70.83542430853413 166.17765517241787,69.86921482413891 165.4162758620514,69.07476891158876 164.49599999998463,68.23737313463062 163.21820689656306,67.2782958396856 162.0993103448127,66.54108837338572 161.0201379310165,65.9183943311582 159.8482758620521,65.38158600523457 159.37158620689297,65.23127915676014 158.98096551722847,65.20264925518859 158.53737931034993,65.28853893525229 157.97462068963796,65.56767988508363 154.37296551722102,68.42346169194207 149.30813793104608,72.2095728076165 148.5864827586047,72.64614727951994 147.93765517239808,72.86085533617734 147.52717241377104,72.90379689211841 147.04386206896743,72.87516919021436 146.70620689657517,72.8107568309133 146.32220689655514,72.66761810595926 145.95144827588229,72.47438050188794 145.52772413790808,72.15947397566924 140.33710344825522,67.80793667880062 134.4513103448262,63.026752712539746 133.2794482758618,62.132044650141324 133.02786206893506,62.02467914374574 132.28634482758935,61.49500762198295 131.75668965518707,61.07269993537193 131.11448275862494,60.59312802289787 130.56496551723103,60.228079201660876 130.22731034483877,59.90597619175969 129.5983448275656,59.483661781589035 127.65848275861936,57.98049429579987 126.70510344824288,57.12868933675054 125.42068965514773,56.30550956851948 124.17599999997765,55.39642489008111 122.40827586204978,54.473015438030416 121.75282758619869,53.91467069309874 121.42841379309539,53.456539337843424 121.20993103444926,53.04851432838768 121.05103448274895,52.60469575665775 120.59420689655235,50.81508470863628 120.36910344826174,50.135024092051026 120.13075862068217,49.69119255767873 119.78648275861633,49.32610384737927 119.45544827583944,49.13282104796963 119.03172413792345,49.01828291601123 118.52193103445461,49.01828291601123 118.91255172411911,48.97533108263451 119.37599999998929,49.05407609638496 119.78648275861633,49.28315214653412 120.08441379308351,49.58381366394315 120.34262068962562,49.99185284511623 120.48827586206608,50.34262203508115 121.04441379307536,52.16087521046575 120.49489655171055,50.22808529235772 120.07117241379456,49.25451766904007 118.82648275862448,47.242925050566555 114.62896551724407,38.72363102970121 114.36413793102838,38.243951650460076 114.0,37.77142940797057 114.39724137930898,38.23679223925865 114.6819310344581,38.709312275692355 118.8198620689509,47.16417860680667 119.18399999997928,47.80846586521511 119.90565517242067,48.92522058695613 120.23006896549487,49.540862074100005 120.66703448272892,50.67191443781485 121.2297931034409,52.74070488362486 121.45489655173151,53.291897868184606 121.75944827584317,53.728555083755055 122.42151724136784,54.27258435064141 123.81848275862285,55.01704064563819 124.22234482757631,55.17452107316058 125.0366896551568,55.332001252128975 126.71172413791646,55.332001252128975 126.95006896549603,55.36779216724244 127.26124137931038,55.2747357612825 127.38041379311471,55.28189394941728 127.47310344828293,55.231786621545325 128.24772413790924,55.09578089047136 128.36689655168448,55.10293909145548 128.46620689652627,55.16020468093484 129.03558620688273,55.17452107316058 129.13489655169542,55.1244136913665 129.49241379310843,55.08862268895609 130.02868965515518,54.95977497398417 130.3795862068655,54.938300338661065 130.47227586206282,54.866718187469814 130.68413793100626,54.816610651083465 130.79006896549254,54.845243532116 131.10786206895136,54.70923727410991 131.65737931034528,54.55891435223748 131.76331034483155,54.587547307193745 131.98841379309306,54.530281389037555 132.86234482756117,54.19384345613071 132.97489655169193,54.201001721849025 133.2794482758618,54.0363614807211 133.39862068966613,54.00772836757824 133.5045517241233,54.0435197577317 134.43806896553724,53.59970561235241 134.53737931034993,53.556755751567835 134.65655172412517,53.571072373888455 135.15310344827594,53.313372857897775 135.27889655169565,53.32768951514299 135.46427586203208,53.22031453575619 136.013793103426,53.1129394408199 136.1064827585942,53.02703928166011 136.22565517239855,53.012722581283015 136.78841379308142,52.719229770642414 139.60220689655398,51.57388371345587 140.17158620688133,51.23743581035524 141.23751724135946,50.4500001119377 141.8399999999965,50.15649976136774 142.38289655174594,50.01332854526845 143.00524137931643,49.95606000128464 143.54151724139228,49.99901141236478 144.024827586225,50.120706976609654 144.39558620689786,50.29967077197216 144.92524137930013,50.67191443781485 145.20993103447836,51.00120575350593 145.43503448273987,51.38060526952904 145.56082758618868,51.745686460330035 145.64689655174152,52.253934520849725 145.6535172413569,53.26326454138325 145.75944827587227,53.96477868244256 145.97131034481572,54.573230830734246 146.26262068963842,55.074306284404884 146.57379310342367,55.489481182565214 146.9842758620798,55.83307289531513 147.6993103448185,56.26256087247748 148.50703448275453,56.65625656093471 148.86455172410933,56.92826358380262 149.34786206897115,57.407853107491974 149.79806896552327,58.13081206323113 150.62565517242183,59.99187042936683 151.01627586205723,60.70765286812093 151.5790344827401,61.466376648844744 152.15503448277013,62.074783061107155 152.89655172411585,62.640239813466906 153.7638620689686,63.134117141133174 161.39089655171847,66.31920933243237 162.89379310345976,67.1208345079067 163.8273103448155,67.75783563865116 164.8998620689672,68.64533605703036 166.02537931033294,69.71891473083815 166.74703448277432,70.58492645093793 167.8659310344956,72.26682858478307 168.5809655172343,73.60517302596418 169.7859310344793,76.75414803880994 170.08386206897558,77.8562658438459 170.22289655171335,79.0943447226091 170.19641379310633,80.23221871826536 169.89848275861004,81.7708327607761 169.6204137931054,82.61527132958872 169.34896551724523,83.29511075560004 168.94510344826267,84.06081909795466 168.5478620689537,84.66908789926674 166.9853793103539,86.6656147736212 166.70731034484925,86.91607231920352 166.60137931033387,87.1379056212536 166.3961379310058,87.25240003617364 166.230620689661,87.4312972969492 166.01875862065936,87.51716786840552 165.89958620688412,87.48138847259543 165.80027586207143,87.56725900102174 165.7804137931089,87.67459705783403 165.4560000000056,87.82487014374783 165.19779310346348,88.13257147202967 165.14482758619124,88.7694386544681 165.0587586206675,89.14153895084019 164.77406896548928,89.40630177997082 164.7343448275642,89.52794933127734 164.64165517239599,89.62097382944194 164.42317241380806,89.71399824105902 164.36358620689134,89.83564541796659 164.03917241378804,90.00022665703727 163.8868965517031,90.20058606068778 163.7611034482834,90.20058606068778 163.66841379311518,90.29360993303271 163.3307586206938,90.40094506282185 163.21158620688948,90.62277063259535 163.1718620689644,90.84459571022308 162.88717241378617,91.0377977962271 162.85406896550558,91.1665989795074 162.7481379310193,91.23099950893811 162.589241379319,91.78913569314318 162.40386206898256,91.96086927691067 162.2913103448227,92.2041580157238 161.88744827584014,92.48322378134617 161.8742068965512,92.60486758929619 161.7682758620649,92.81237727312691 161.66234482757864,92.89824322325148 161.49682758620474,93.25601722175634 161.29158620690578,93.37050463095511 161.26510344826966,93.49930280963599 160.987034482765,93.98587220983609 160.80165517242858,94.14329121482297 160.6626206896326,94.35795309501555 160.5633103447908,94.4151961852549 160.54344827585737,94.77296475692128 160.36468965516542,94.94469321672659 160.25875862067915,94.94469321672659 160.26537931032362,95.33108117317897 160.03365517241764,95.50996398083953 159.92772413793136,95.71746763691772 159.72910344827687,95.82479694528593 159.55034482758492,95.86057335579972 159.3980689655,95.9607472371863 159.17296551723848,95.9321261384539 158.96110344826593,95.86772863636725 158.5506206896389,95.6101382134002 158.01434482756304,95.13788738154835 157.6038620689651,94.90891647859098 157.09406896549626,94.54399301850935 156.78289655174012,94.43666233564727 156.47834482759936,94.51537151432422 156.28634482758935,94.7443433182998 156.2664827586268,95.03771267600678 156.43862068964518,95.33108117317897 156.5908965517301,95.40263433463406 156.81599999999162,95.4384108961749 157.61710344828316,95.28814925174811 159.06041379310773,95.39547902080085 160.4375172413711,95.39547902080085 160.78841379311052,95.48849806083308 161.59613793101744,95.80333109282219 163.38372413793695,96.2684235312845 163.9862068965449,96.51885702544678 164.78731034483644,96.74782424282603 165.13158620687318,96.79791075176036 165.42951724136947,96.79791075176036 166.79337931034388,96.59040933718643 167.36275862067123,96.61903024753701 167.66068965516752,96.70489292948332 168.1837241379253,97.00541173585952 168.55448275862727,97.2987744616621 168.9384827586182,97.68515332431707 169.17020689652418,97.8211010876912 169.28275862068404,97.81394594685844 169.40855172416195,97.43472275018576 169.37544827585225,97.32739516934816 169.28937931035762,97.25584338480985 168.34262068965472,96.94817012806743 167.50841379308258,96.58325410830003 166.4623448275961,96.26126827936969 166.47558620688505,96.18971573218005 166.5881379310158,96.17540521660703 168.35586206894368,96.82653160273912 169.61379310346092,97.22722265664925 169.64689655171242,97.36317104242335 169.37544827585225,97.8425665071336 169.35558620691882,97.98566918565484 169.461517241376,98.0929960601934 169.95144827585318,98.38635559638351 170.05737931033946,98.50083713325148 170.10372413793812,98.70833458485868 170.05737931033946,99.08755295331503 170.12358620690065,99.23065385085647 170.29572413794813,99.3451344214991 171.7059310344921,99.83167538521957 172.34813793102512,99.97477521833935 173.57958620687714,100.11071987020841 173.97020689654164,100.11787484677916 174.79117241379572,100.04632505814516 175.81737931034877,100.13933977339184 176.17489655170357,100.13218479835632 176.31393103449955,100.0964099155608 176.47944827587344,99.9819302046235 176.9164137931075,99.37375454369612 177.1746206896496,99.18056856000476 178.47227586206282,99.06608780103124 178.55834482758655,99.25927400580258 178.65103448275477,100.12502982281876 178.7702068965591,100.28243916642532 179.27337931035436,100.33967886633764 180.42537931035622,100.31821398271131 181.12717241377686,100.13218479835632 181.25958620692836,100.16080469538429 181.57737931035808,100.86198961518676 182.126896551752,102.22857059202943 182.27917241380783,102.22857059202943 182.99420689657563,101.94953201379394 183.92110344825778,101.40576229216822 184.00717241378152,101.45584646902716 184.16606896554003,101.7849704362161 184.25213793103467,101.8278995695 184.61627586209215,101.74204128450219 185.19227586209308,101.7778155788692 185.60275862069102,101.677647522396 186.0,101.79212529303913" stroke="red" stroke-linecap="round" stroke-linejoin="round" stroke-width="0.5"><title>2025-02-09 42.6km</title><desc>13577755492</desc></polyline><polyline fill="none" points="68.60558339298586,126.10287179839361 69.01789549033856,126.00446410331642 69.75232641375624,125.89091659164114 70.38367931282846,125.74708948023908 70.82820329276728,125.70167033130565 71.02791696490021,125.66382101808995 71.24695776664885,125.64111142038746 72.09090909091174,125.60326207458274 72.7158196134551,125.59569220296544 73.07659269866417,125.57298258326045 73.25053686471074,125.55027295621403 74.16535433070385,125.50485368012596 74.35862562633702,125.48971391488885 74.89334287762176,125.48971391488885 75.58267716533737,125.46700426094321 75.7823908374994,125.43672471092577 76.35576234789914,125.42158493102761 76.78095919828047,125.44429459966341 77.24481030780589,125.56541270840535 77.6184681460727,125.73194976719242 77.95991410166607,125.98175461564097 78.25626342164469,126.24669818190159 78.41732283466263,126.37538469664287 78.55905511809397,126.52678029477829 79.09377236937871,127.04152288970363 79.34502505368437,127.26861401284987 79.63493199716322,127.49570440244861 80.1825340014475,127.82876898032555 80.40157480316702,127.92717412182537 80.69792412314564,128.01800951480982 80.99427344309515,128.08613598251395 81.59985683608102,128.13912318953226 81.77380100215669,128.13155359097436 82.35361488908529,128.0709967731891 82.59198282036232,128.02557912559132 83.03006442377227,127.97259183298593 83.21045096637681,127.98016144865687 83.30064423766453,128.02557912559132 83.34574087330839,128.06342716729705 83.41016463850974,128.1769711701054 83.62920544022927,128.73711890028062 83.83536148892017,129.19885894387698 83.98353614890948,129.56976268424478 84.21546170365764,130.37211918312096 84.30565497497446,130.63704620501085 84.4473872584058,130.98523448713968 84.62133142448147,131.55292907584953 84.66642806012533,131.7648672140058 84.84681460272986,132.3249863611709 84.96277738010394,132.82454832275835 85.11095204009325,133.33167577485438 85.36220472442801,134.3837643470397 85.49105225485982,135.09523978374636 85.52326413744595,135.3752866515788 85.65855404437752,136.07918331398832 85.76807444525184,136.91174016406148 85.89047959915479,138.08487172452442 85.95490336435614,138.60709818937903 85.96134574088501,139.27312051846093 85.98711524697137,139.7272230359231 86.0,140.27971047878964 85.98711524697137,141.19546777816868 86.0,141.44521769975108 85.96134574088501,142.24743872179533 85.92269148177002,142.74693020815903 85.86471009306842,143.1404664569709 85.84538296348182,143.46588899972994 85.83894058698206,143.77617420823663 85.71009305657935,144.69188599043264 85.65211166787776,145.19136012042145 85.52326413744595,145.87245549186628 85.42662848962937,146.50813855616434 85.01431639227667,148.85406205946492 84.86614173231646,149.82267862580193 84.64065855403896,151.11666901467106 84.51825340016512,151.97174902078405 84.15748031495605,154.0753529535432 84.08661417325493,154.5066596607212 84.0544022906397,154.78662926635297 83.93843951323652,155.4449317884937 83.8289191123913,156.33022547163273 83.75161059413222,157.8889206193635 83.73228346457472,158.65312261976214 83.63564781675814,160.33282458833128 83.60343593414291,161.43747160241037 83.56478167505702,161.89143110300938 83.57766642808565,162.13354163964686 83.53901216894155,162.99605365918978 83.4745884037402,163.94934412308066 83.38439513242338,164.7513086426261 83.2877594846359,165.4170835677869 82.98496778812842,166.98314294424927 82.88833214028273,167.36141293279798 82.79169649249525,167.8455955527097 82.73371510379366,168.2238609078122 82.7079455977073,168.54160223567305 82.6692913385923,168.81395080401853 82.65640658553457,169.298123435663 82.6692913385923,169.6763809876502 82.65640658553457,169.97898556624568 82.65640658553457,171.57520319667674 82.68217609165004,172.31656211349036 82.68217609165004,173.33024432740058 82.74015748032252,174.49520437444153 82.7272727272939,174.57085046445718 82.6886184681498,174.57841506897967 82.65640658553457,174.54059203818906 82.63707945597707,174.4800751466828 82.61130994989071,173.837079962781 82.57265569080482,171.91562407655147 82.58554044380435,170.41019484389108 82.55332856118912,169.36620994497935 82.60486757339095,168.6021242307761 82.67573371512117,168.02716317676095 82.8947745168116,166.89992327402433 82.99785254115704,166.4459960685781 83.1202576950891,165.85588632620056 83.27487473154906,164.84209650316188 83.36506800289499,164.10822461203497 83.42304939156747,163.37434507071885 83.4552612741245,162.39078317241365 83.50680028635543,161.68714969002758 83.55833929849905,160.24959705625224 83.66785969937337,157.730026092162 83.77738010021858,156.09566156307847 83.91267000717926,155.09686455546034 84.09305654975469,153.93158346372365 84.24767358627287,153.07652727199456 84.31209735147422,152.61494394776673 84.39584824626218,152.22146069059818 84.47315676449216,151.68420115175832 84.60844667145284,150.98046062063804 84.95633500357508,148.89946625890298 84.98210450966144,148.62704062283592 85.12383679312188,147.8929996311199 85.51682176091708,145.52434090362658 85.63278453829116,144.7221572507624 85.71653543307912,143.98807551537902 85.74230493916548,143.57184020041313 85.8131710808957,142.8680185192061 85.83894058698206,142.40636821581575 85.89047959915479,140.77164770021045 85.87759484609705,139.88615822439897 85.76807444525184,138.0470290763842 85.69720830352162,137.24476014443644 85.54903364356142,136.0110645900495 85.46528274874436,135.56450687686447 85.32999284181278,134.7092274081515 84.94989262704621,132.99863726335752 84.840372226201,132.5823369058271 84.04795991408173,130.12232993390353 83.70651395848836,129.21399791035947 83.48103078026907,128.72954936612223 83.24266284896294,128.10127518859372 83.20400858981884,128.06342716729705 83.15891195417498,128.05585756056098 82.77236936290865,128.1466927872898 82.34073013602756,128.2223887198852 81.89620615605963,128.2753758242252 81.61918396566762,128.2905149895596 81.3421617752465,128.28294540729257 81.12312097352697,128.260236655653 80.95561918398016,128.23752789663558 80.67859699358814,128.16183198033104 80.27272727273521,128.01800951480982 79.80887616320979,127.77578153939976 79.55762347890413,127.60924932217313 78.86184681463055,127.07937146117911 78.52684323550784,126.85227972674329 78.21116678597173,126.66303605434223 77.86972083037836,126.48893142581073 77.50894774516928,126.33753574617003 77.05798138870159,126.19370954852639 76.72942018613685,126.1104416153903 76.26556907658232,126.04231323310523 75.7823908374994,125.99689427489648 74.76449534718995,125.95147528735833 74.37151037936565,125.90605627045443 72.33571939871763,125.80007845026557 71.79455977096222,125.78493874862761 71.36292054402293,125.80764829985128 70.7122405153641,125.86063722422114 70.39012168932823,125.91362610863871 67.75518969219411,126.41323362675757 66.9692197566037,126.51921052262333 60.53328561203671,127.06423203503073 58.04008589836303,127.29132308482076 57.44094488187693,127.32917152181471 56.094488188944524,127.45785605514538 52.88618468143977,127.71522441515117 49.98711524694227,127.97259183298593 49.73586256263661,127.99530067755404 49.13027916965075,128.01043990319886 48.80816034358577,128.01043990319886 48.37652111670468,127.98016144865687 47.558339298469946,127.8968956314202 46.8754473872541,127.77578153939976 46.61130994989071,127.71522441515117 45.458124552620575,127.4881347346236 42.89405869721668,127.0036742978773 41.998568360781064,126.89769813230669 41.62491052254336,126.90526786372357 41.29634931994951,126.87498893317388 40.87115246959729,126.87498893317388 39.118826055841055,126.97339540971006 38.274874731578166,127.0036742978773 37.675733715092065,126.99610457705421 37.17967072298052,126.98096513298515 36.51610594132217,126.91283759431099 35.846098783105845,126.82200077336893 35.22763063709135,126.72359408493503 35.118110236217035,126.72359408493503 35.066571224073414,126.746303332955 35.02791696492932,126.78415206335194 35.002147458842956,126.83714025167865 34.87329992841114,127.26861401284987 34.557623478904134,128.03314873555064 34.287043664982775,128.5781585114819 33.90694345027441,129.25184531229024 33.565497494651936,129.75899853264127 33.01789549033856,130.45538206899073 32.45096635646769,131.0684966469853 32.12884753043181,131.37883655591577 31.800286327837966,131.66646744358877 31.220472440938465,132.1206190812154 30.125268432340818,132.8775319589913 27.99928418037598,134.31564398082264 27.644953471724875,134.56541833433585 27.20687186831492,134.9211560335316 26.884753042220837,135.21634126883873 26.594846098771086,135.50395646019024 26.08589835363091,136.04890833373065 25.795991410152055,136.40463852873654 25.396564065857092,136.94201477290335 25.248389405867783,137.1539366698198 25.03579098067712,137.50966127550055 24.636363636382157,138.2589476436624 24.35289906943217,138.90983639352635 23.98568360772333,139.9769781708601 23.695776664302684,140.71867001090868 23.225483178248396,141.74794368856237 22.755189692194108,142.68638597447716 20.989978525409242,145.78164315666072 20.880458124534925,145.9935384231576 20.764495347160846,146.18273008607503 19.93342877595569,147.62057009801356 19.450250536872772,148.49839481693198 19.295633500354597,148.74811881353526 18.98639942734735,149.33080469210108 18.62562634216738,149.9437547590278 17.897637795307674,151.25287714503793 17.350035790965194,152.4409035476856 17.015032211871585,153.31866813298984 16.795991410152055,153.99211802154605 16.58983536149026,154.73366212910332 16.40944881888572,155.49033173546195 16.293486041511642,156.0729617885081 16.24194702936802,156.3983245244599 16.11954187543597,157.53329903770646 16.022906227619387,158.84984654429718 15.926270579802804,159.6367367442508 15.842519685043953,160.12853865209036 15.662133142439416,160.98350917425705 15.024337866867427,163.64671362831723 14.91481746599311,164.18388186172524 14.663564781658351,165.17498432347202 14.566929133870872,165.62891972366197 14.386542591266334,166.324948319525 14.322118826035876,166.6426982169287 14.077308518259088,167.64133141597267 14.01288475302863,167.88342217967875 14.0,167.89855282475764 14.01288475302863,167.8077689054262 14.077308518259088,167.57324323869398 14.360773085179972,166.33251380995353 15.552612741565099,161.3391133247569 15.765211166784866,160.37822138253978 15.842519685043953,159.91668594386283 15.9649248389469,158.96334086604475 16.029348604148254,158.25210676308052 16.04867573370575,157.69976042728376 16.164638511108933,156.74638532097742 16.319255547627108,155.66436459415127 16.480314960645046,154.9076968589652 16.60916249107686,154.49909289916832 16.725125268421834,154.02238528094313 17.08589835363091,153.0008580820795 17.176091624918627,152.81168475125742 17.34359341446543,152.37280066528183 17.85254115963471,151.2604442556476 18.097351467440603,150.7988490184798 19.430923407286173,148.47569259146258 19.57909806727548,148.180562993919 20.706513958488358,146.2357036605099 21.10594130278332,145.5167731760448 21.447387258405797,144.95675907675468 22.78095919828047,142.59556952623097 23.07730851828819,142.00525975468918 23.528274874726776,141.0289673378211 23.921259842521977,140.0299564188099 24.211166785971727,139.1974364804919 24.481746599863982,138.52384495479055 24.7780959198426,137.92593246554316 24.97780959197553,137.5475042127582 25.1517537580512,137.25232876204245 25.415891195414588,136.8663282263733 25.654259126691613,136.5257377590533 25.87974230494001,136.2381267465753 26.42734430922428,135.61748844873364 26.73013600570266,135.30716724582453 27.387258410890354,134.7243651882818 27.760916249098955,134.42917788786872 28.160343593393918,134.14912725229806 29.564781674998812,133.2181400958725 31.284896206168924,132.03735816724657 31.697208303492516,131.7118827393424 31.948460987827275,131.49994444150798 32.225483178248396,131.25015919891302 32.547602004313376,130.93224942501547 32.92770221902174,130.50836749048904 33.26914817467332,130.0920523888126 33.87473156763008,129.25184531229024 34.203292770223925,128.68413214395696 34.48031496061594,128.1239839915943 34.76377952756593,127.39729865702975 34.97637795275659,126.79172180699243 35.02147458840045,126.69331507616153 35.09234073013067,126.61004773478635 35.188976377947256,126.55705937530729 35.24695776664885,126.55705937530729 35.7236936292029,126.6554662968556 36.954187544761226,126.79929154981073 37.95919828204205,126.85227972674329 38.77093772368971,126.83714025167865 39.68575518968282,126.79929154981073 41.135289906931575,126.71602433397493 41.80529706511879,126.7311638350875 42.21116678597173,126.76144282756286 42.84251968504395,126.83714025167865 44.80744452396175,127.23076554327417 45.48389405867783,127.34431089088321 46.2956335003546,127.51841340107057 46.914101646398194,127.60924932217313 47.40372226200998,127.72279405852896 48.17036506801378,127.82119934836373 48.85325697925873,127.86661712798377 50.02576950608636,127.82119934836373 50.850393700791756,127.75307262392016 53.543307086627465,127.51084373569029 54.80601288474281,127.41243801145174 55.90121689334046,127.29889277384791 58.310665712255286,127.11722001226008 58.96778811738477,127.04152288970363 59.289906943478854,127.026383455428 60.18539727991447,126.93554678119835 61.13886900502257,126.85984946303506 63.34860415174626,126.66303605434223" stroke="red" stroke-linecap="round" stroke-linejoin="round" stroke-width="0.5"><title>2024-12-08 42.6km</title><desc>13069307927</desc></polyline><polyline fill="none" points="114.21645997744054,139.7203196174887 114.02029312288505,139.0290341955988 114.0,138.52097646796756 114.12852311160532,138.3710570517651 114.42615558061516,138.30442609151942 115.08229988726089,138.32941270944866 115.6505073280714,138.43768794519565 116.2931228861271,138.69588202588056 116.3742953776673,138.6542378872109 116.4554678692075,138.5126476203659 116.7395715896273,137.82967856524192 117.03720405860804,137.6297838548926 117.32130777902785,137.5631521511241 117.93010146560846,137.52150730230642 118.38331454340369,137.42155955865746 119.24915445322404,137.37158563044795 120.14881623449037,137.53816524497233 120.8861330327054,137.81302069569938 121.60315670797718,138.0212437648588 122.35400225481135,138.32108383786544 122.96956031568698,138.4460168021542 123.61894024800858,138.67922437354719 123.97068771137856,138.74585495786596 124.32919954901445,138.87911592599266 125.28974069896503,139.09566442904907 126.29763246898074,139.1789521268729 127.87373167980695,139.44547205819254 128.4554678692366,139.412157125269 129.12514092444326,139.27056847386848 129.9842164599686,139.3954996525281 130.40360766625963,139.3621846945316 133.42728297630674,138.47100336681615 134.27282976324204,138.42935908716026 136.153325817344,138.5959360492052 136.38331454340369,138.6875532002523 137.33032694473513,139.23725345321873 138.06087936868425,139.3954996525281 139.0484780157858,139.49544442629121 139.6099210823013,139.50377315064543 140.11724915445666,139.45380078881135 140.56369785792776,139.3455272092615 142.03833145432873,138.87078712331277 142.80270574969472,138.3793859171128 143.5197294250247,137.69641549185326 143.98647125140997,137.20500559818174 144.79819616684108,136.08890860625252 145.56257046220708,134.66460834342433 147.5039458849933,131.93253171597462 148.04509582862374,130.9662825926789 148.26155580606428,130.65807948420115 148.84329199552303,130.0333390655578 149.38444193912437,129.70014177259873 149.83089064259548,129.566862387328 150.51409244642127,129.4669026728734 152.0090191657073,129.45857268988766 153.5039458849933,129.6584919934321 154.81623449828476,129.7584514195405 155.26944757607998,129.85841069518938 155.9999999999709,130.14162782584026 156.07440811724518,130.2249267520383 156.01352874859003,130.75803740583797 156.09470124013023,131.17452712656814 157.91431792557705,134.94780498028558 158.07666290865745,135.38925615324843 158.252536640357,135.43090233884868 159.55129650505842,135.38092691297788 159.75422773390892,135.42257310381683 160.4306651634688,135.90566700942873 161.08004509581951,136.54701038677013 161.34385569332517,136.68860484340985 162.0405862457701,136.72192114228528 162.6493799323507,136.5969849353496 163.4543404734868,136.31379532965366 165.12514092444326,135.5058654071836 166.153325817344,135.53918229926785 166.34272829763358,135.46421926854237 166.44419391205884,134.9977807320247 166.72829763244954,134.2064935802846 166.89064261555905,133.1819709481788 167.1950394588348,129.35861281243706 167.24239007892902,128.3340153935933 167.33032694473513,127.87585696154565 167.30326944755507,127.41769536859647 167.54678692220477,126.7845941475025 167.87147688836558,126.276442748298 168.02705749718007,125.7099743099534 167.9255918827257,126.45138055413554 167.81059751971043,126.68463024504308 167.48590755357873,127.52598839402344 167.16121758735972,130.53313187062304 167.06651634722948,131.58268451893673 166.89740698982496,133.99825855252857 166.29537767753936,135.97230037584814 166.28184892894933,136.138883499465 166.8297632468748,137.6047969738138 166.9109357384441,137.94628353514418 166.9177001127391,138.50431877176015 167.29650507328915,139.0873356535085 167.56708004508982,140.03680933774012 167.81736189403455,140.7114271301689 168.0405862457701,141.14451148509397 168.25028184888652,141.9856864918329 168.6493799323507,142.9767602095235 168.77113866969012,143.4431427257805 169.14317925591604,144.45085091214423 169.2108229988662,144.88391089180368 169.03494926716667,145.5001836886513 168.98759864710155,145.85828552591556 168.75084554677596,146.34963141761546 168.70349492671085,146.71605649708363 169.2852311161114,146.97421840788593 169.67080045095645,147.04916845218395 169.96166854567127,147.29067357536405 170.23900789173786,147.44057286550378 170.7395715895982,147.68207656608138 171.25366403607768,147.86528568448557 171.76775648252806,148.16508133407478 172.1127395715739,148.26501291667955 172.89064261555905,148.63975501300592 173.01916572716436,148.52316880949365 173.36414881621022,147.69040426425636 173.85794813980465,146.7826790217223 174.040586245741,146.58281124745554 174.7305524238618,146.09979497759196 175.61668545659631,145.63343110936694 176.9357384441828,144.8006303456932 178.00450958285364,144.21766360010952 178.25479143176926,144.01778810983524 178.24802705750335,143.92617830913514 177.8218714768882,143.37651685246237 177.2671927846386,142.452075965346 176.75986471251235,141.7358336413672 175.73844419390662,139.90355069193174 175.75873731679167,139.7786204687145 175.91431792557705,139.52875931747258 176.08342728295247,138.40437250683317 176.18489289740683,137.263308656984 176.28635851183208,136.73857928544749 176.31341600898304,135.74741249626823 176.82750845549162,134.58964432564244 177.2604284103436,133.88164665182558 177.45659526492818,133.44018545882136 177.91657271704753,132.64887975056627 178.11950394586893,132.2074103637351 179.10033821873367,130.49148261384107 179.28297632467002,130.24991640952067 180.34498308904585,129.27531279960385 182.06989853439154,127.45934655313613 182.92897406988777,126.14315649164928 183.55129650505842,124.9852208793236 183.67981961666374,124.45206388045335 183.85569334836327,123.10249109450524 183.99774520855863,123.05250639049336 184.64036076661432,123.15247576091497 184.69447576100356,123.25244498083339 184.6674182637944,123.40239852854575 184.29537767753936,124.21880634732952 183.77452085679397,124.80194864379882 183.23337091319263,125.91823532693525 182.27959413750796,127.45934655313613 181.98872604282224,127.77589470177918 179.42502818489447,130.3915242910516 179.21533258174895,130.708058463817 179.24239007892902,130.7913566795978 179.39120631339028,130.83300574830355 181.122886133031,130.9746123865698 183.016910935723,131.7742677360293 183.8624577226292,131.87422397777118 184.28861330324435,131.87422397777118 184.37655016907956,131.89921301471622 184.44419391205884,132.00749873272434 185.16798196165473,141.5359506844543 185.3573844419152,145.23368804554775 185.52649379931972,146.94923504100734 185.58737316794577,147.16575724194263 185.74971815105528,149.13108033742174 185.2356257046049,149.98880906148406 183.9098083426943,151.97903015177144 183.61217587371357,153.7776724151263 182.98985343854292,155.02670090306492 183.0236753100471,155.1266221680562 183.19954904168844,155.259850287679 185.6009019165649,156.51717751340038 185.95264937990578,156.72534197764617 186.0,156.791954468521 185.8444193911855,156.76697479227732 183.42953776774812,155.45136524173722 182.86809470120352,155.10996863432229 182.82750845543342,155.01004734431626 183.51071025928832,153.69440301463328 183.59864712512353,152.9283196346878 183.79481397967902,151.97903015177144 185.4791431792546,149.39756034981838 185.682074408076,149.00616746373998 185.3167981961451,145.98320431739558 185.08004509581951,141.8940738891106 184.89064261552994,139.84524995034008 184.6268320180243,136.3304535751813 184.56595264936914,134.96446356838715 184.36302142051863,133.33190207656298 184.3089064261585,132.04914703880058 184.20744081173325,131.9408613886626 183.3416009019129,131.89921301471622 182.9357384441828,131.84090524726344 181.44081172489678,131.10788894675352 181.03494926716667,130.95795279772574 179.10033821873367,130.83300574830355 178.96505073277513,130.94129320471984 178.13979706875398,132.4073213930169 177.1860202930984,134.26479927106993 176.99661781283794,134.55632695728127 176.6178128522879,135.31429295329872 176.47576099209255,135.80571683445305 176.44193912061746,136.4137447401081 176.23224351744284,137.83800749843795 176.0090191657073,139.90355069193174 176.03607666291646,140.04513799423148 176.28635851183208,140.4282550639182 176.39458850055235,140.75306997930602 176.56369785792776,140.9945979894037 176.84103720405255,141.59424994233996 177.47012401351822,142.51870276570844 177.6257046223036,142.84350746068958 178.2683201803884,143.74295832886128 178.37655016907956,144.0094599513468 178.36978579478455,144.11772593013302 177.76099210820394,144.5258038029424 177.2266065388976,144.77564616152085 175.81961668544682,145.6833988232611 175.13641488159192,146.06648338126251 174.81172491546022,146.18307389529946 174.13528748587123,146.64110607704788 173.9188275084598,146.91592387052515 173.0732807214954,148.61477227234718 172.877113866969,148.80630637745344 172.70124013529858,148.78965125979448 172.0315670800046,148.4981860250191 171.5039458849933,148.2067195117561 171.07779030437814,148.02351133475895 170.5366403607768,147.6987319613836 169.894024802692,147.42391740551102 169.10259301011683,147.01585733181855 168.89289740697131,146.95756283101218 168.58850056369556,146.7826790217223 168.49379932356533,146.79100683258002 168.3990980834351,146.91592387052515 168.17587373164133,147.60712723572215 167.62119503944996,148.60644469003455 167.49267192784464,149.02282252712757 167.10033821870456,149.62240202906105 166.92446448700503,150.31357724211557 166.77564825254376,150.56339783946896 166.56595264936914,150.77158095317282 166.2277339346183,151.51270754435245 165.88275084551424,152.10393743740133 165.7474633596139,152.46200368845166 165.32807215332286,153.0448981100053 164.96956031565787,153.38630532560637 164.71927846671315,153.7776724151263 164.4622322435025,153.9858454599089 164.06313416006742,154.55207284286007 162.87260428408626,155.96762019517337 162.69673055241583,155.98427351399732 162.46674182638526,155.85104684651742 162.10146561442525,155.45136524173722 161.65501691092504,155.06833478174667 161.39120631339028,154.91012590405444 160.62006764372927,154.2939403695491 160.26155580609338,154.08576828981313 160.1127395715739,153.94421090312244 159.740698985348,153.75269160593598 159.04396843290306,153.11151428982703 158.94926719277282,153.09486025110527 158.82750845546252,153.16147638082475 158.27282976324204,153.9525378165854 157.65727170236642,154.66864846990939 156.39233370914008,157.22493403188128 156.1217587373103,157.99096788832685 155.85118376548053,158.45724504369718 155.48590755354962,159.57296638793196 154.77564825251466,161.22153528859053 154.72829763244954,161.48796682864486 154.13979706875398,163.12816247493174 153.67981961666374,164.21882854792057 153.4633596391941,164.90152644969203 153.03043968431302,165.94221098176786 152.71251409247634,167.6322479531882 152.3742953776673,170.74579964977602 152.15107102590264,172.20262537399685 152.1307779030176,172.94351307005127 152.02931228862144,173.35141400845168 151.88049605407286,174.62504777390131 151.6910935738124,175.64060754465754 151.27846674181637,176.00687119765644 150.6020293122565,176.3315122946151 149.61443066515494,176.94749360949936 149.66178128522006,176.84760513519723 149.97970687711495,176.55626289492648 150.50056369786034,176.2399470174496 151.31228861329146,175.84871214043233 151.6099210823013,175.60731074890646 151.6505073280423,175.29931459783256 151.92108229987207,173.95077411321836 152.02254791429732,172.8269694851988 152.1713641488168,172.227599251004 152.59075535510783,167.94027961983375 152.88162344982265,166.00881423718238 154.23449830891332,162.30390677725518 154.92446448703413,160.63038649583177 155.09357384440955,160.01425398996798 155.7970687711204,158.19912773687247 155.85794813977554,157.8743980883737 156.0879368658061,157.2665665335444 156.764374295366,156.08419333933853 157.52198421646608,154.49378495263227 158.20518602026277,153.68607606883597 158.84780157834757,153.00326296374988 158.99661781283794,152.91166555012023 159.0980834272632,152.9283196346878 159.84216459977324,153.46957511214714 159.95715896278853,153.47790208505467 159.95715896278853,153.09486025110527 160.13979706875398,152.45367658822943 160.13303269442986,152.12891886637226 160.3089064261294,151.8041595574614 160.3900789176987,151.36281743989093 160.53889515215997,150.9381269745645 160.53213077792316,150.3801961598947 160.7891770011047,149.99713647054887 160.89740698985406,149.7389863039789 161.02593010145938,149.02282252712757 161.17474633592064,148.58146193683206" stroke="red" stroke-linecap="round" stroke-linejoin="round" stroke-width="0.5"><title>2024-03-03 42.1km</title><desc>10878173593</desc></polyline><polyline fill="none" points="29.207398936909158,194.02841907913535 29.276653289984097,194.0 29.402940639687586,194.01894605471534 29.42330956707883,194.0663111572103 29.476268778234953,194.09473019515644 29.65144155365124,194.10893970752295 29.818466758122668,194.17525070684133 30.124000668729423,194.24156161005521 30.335837513397564,194.2605075647516 30.413239437431912,194.30313593413302 30.60470735473791,194.32681834440518 30.70655199160683,194.37418312816953 30.767658773736912,194.3599736981887 31.012085902213585,194.42628433369464 31.553899370352156,194.48785840916753 31.843138139069197,194.57311468458647 31.920540063088993,194.57311468458647 31.940908990465687,194.54943240178545 32.067196340169176,194.57311468458647 32.15274583514838,194.60626985989438 32.201631260846625,194.70573524167048 32.24236911558546,194.63468856246982 32.35236132341379,194.67258013844184 32.38495160720777,194.73889032087754 32.43791081837844,194.7720453760594 32.523460313357646,194.74362675880184 32.551976811664645,194.7720453760594 32.62530495021201,194.75309963318068 32.65382144853356,194.7720453760594 32.71492823064909,194.73889032087754 32.88602722059295,194.7720453760594 33.097864065275644,194.7673089410855 33.191561131199705,194.80520040721967 33.7863338105235,194.91413819758964 34.45850841385254,195.10359460654945 34.78033746636356,195.1604313762764 35.701012983641704,195.2835774684536 36.8987059132196,195.54407772523336 37.9619639221346,195.72879519046546 38.7278355913877,195.9135119100174 39.80331495671999,196.14559083403947 40.381792494124966,196.448712553949 42.06833968068531,197.51435891272922 42.48793958456372,197.7322213352454 44.325216833662125,198.7931017884257 44.60630803143431,198.92571011595282 45.27848263476335,199.2003975721491 45.47809812302876,199.24775731174304 45.72659903700696,199.28090910032188 46.488396920773084,199.2288134217888 46.810225973284105,199.3140608648755 47.20130937885551,199.56033036408917 47.673868493919144,200.0623371626607 48.50492073077476,200.99529743689345 48.891930350873736,201.27944399638363 49.20968561791233,201.37415912423967 49.340046753088245,201.34574460645672 49.56003116873035,201.3599518675437 50.28109119775763,201.32680158480434 50.48070668600849,201.350480360652 50.782166811142815,201.34100885178486 50.9573395865591,201.40257362437842 51.06733179438743,201.52096718509347 51.12843857651751,202.56281731557465 51.112143434613245,203.12635364081507 51.13251236197539,203.7277671087577 51.169176431256346,203.93612898712672 51.16510264578392,204.53753181733555 51.18954535861849,204.5091192630025 51.15695507482451,204.33864356669437 51.169176431256346,203.87930311435048 51.13658614746237,203.6425278851748 51.12843857651751,203.02690655808692 51.148807503894204,202.94640161862117 51.13658614746237,202.3733917828431 51.083626936291694,201.45940257173788 50.96548715751851,201.33153734095686 50.77401924019796,201.32206582817162 50.70883867261,201.36468762026925 50.48070668600849,201.31733007103685 50.407378547490225,201.19893598360795 50.41552611843508,200.58328179243108 50.45219018770149,200.5122442375141 50.51329696981702,200.47435749647047 51.747653968661325,200.4364707240602 51.98393352620769,200.40805562417154 52.077630592131754,200.42699902607274 52.33835286249814,200.39384806762973 52.652034344064305,200.412791475399 53.870096201018896,200.37964050665687 55.092231843431364,200.3086026356723 55.16963376745116,200.32754607871902 55.45479875068122,200.29439504825132 55.78070158866467,200.34175365585543 56.20437527804461,200.55013094718743 56.477318904857384,200.74429984210292 56.67286060763581,200.8153370368782 56.72174603333406,200.86269510548664 56.81951688473055,200.8769025165093 57.02727994394081,200.98582585454278 57.076165369624505,201.04265531931014 57.1250507953373,201.03791953326436 57.38577306573279,201.17525712938732 57.60168369587336,201.33153734095686 57.7279710455914,201.39310212629061 57.93980789028865,201.47360979755103 58.52235921318061,201.83826041778957 59.080467823223444,202.108194720131 59.6915356444224,202.4538977300217 59.82597056509985,202.5012541034157 59.95633170027577,202.51546100587075 60.05817633715924,202.46336900863025 60.37185781871085,201.8714103301354 60.88108100305544,201.29838703763744 61.321049834325095,200.5264517573196 61.41882068570703,200.38911221446324 61.573624533746624,199.95341162693512 61.58584589017846,199.63610532803796 61.6836167415895,199.1340938543508 61.732502167273196,199.06305405012245 61.84249437508697,199.0062221273547 62.372086486793705,199.28090910032188 62.62466118624434,199.4561395838282 62.93834266779595,199.59348192625112 63.47608235044754,199.85869355908653 64.4130530096445,200.4033197724857 64.62896363981417,200.48856502804483 65.19521982080187,200.8295444626092 66.58438066768576,201.57779598546767 66.71474180287623,201.6251532652277 66.91435729114164,201.76722481050456 68.7720034676313,202.7617132813284 69.12642280395085,202.93219484988367 69.42788292907062,203.11688249938015 69.72934305420495,203.2542138583085 70.52373122176505,203.70408956256506 70.7926010631054,203.81300617362285 70.75186320836656,203.84615465598472 70.67038749887433,203.85562564654174 70.39337008657458,203.7561801480042 69.48898971118615,203.24947830105884 68.95939759946486,203.00322864942427 68.45017441513482,202.67647225896144 67.70874545873085,202.3260352771722 66.9591689313529,201.89982452160984 66.56808552579605,201.71513196177693 65.90405849341187,201.350480360652 65.52927022973017,201.13263516088773 65.29299067219836,201.04265531931014 65.19929360628885,201.1042204931764 64.80821020070289,201.79563906665499 63.91197739627387,203.4010158898418 63.374237713593175,204.43335236523126 63.38645907002501,204.41441062121157 63.309057146005216,204.71747758532 63.28054064766911,204.66538809363556 63.243876578388154,204.7080067730567 62.995375664453604,205.15786819186542 62.75094853596238,205.72610787662416 62.57170197505911,206.03863669720522 62.449488410842605,206.1901650544496 61.87915844436793,207.29820092651426 61.830273018669686,207.4497251155699 61.72028081084136,207.58704347881576 61.51251775161654,207.93744019487713 61.01958970919077,208.9507345291713 61.01958970919077,209.05490370379266 61.154024629853666,209.4526383728189 61.22735276840103,209.57574602271052 61.349566332632094,209.67991377567887 61.577698319233605,210.03502933468553 61.79360894938873,210.39961177729128 61.960634153860155,210.7594565370673 62.184692354974686,211.4365251970048 62.29061077730148,211.99995232607762 62.38838162871252,212.27929597980255 62.441340839868644,212.56810711873186 62.832424245469156,213.46767112832822 62.89760481304256,213.92691541655586 62.59614468792279,215.24307457308169 62.376160272280686,215.3803695733368 62.14802828569373,215.6218184033023 61.997298223141115,215.76384653240893 61.93619144101103,215.78751784445922 61.76101866559475,215.71176960285447 61.602141032068175,215.69756679362763 60.88108100305544,215.6880982516741 60.79553150807624,215.60288128616594 60.7833101516444,215.26674615420416 60.68961308573489,215.22413729938853 60.07854526453593,215.21466865960247 59.97670062765246,215.26674615420416 59.773011353914626,215.29988634722758 59.47562501426728,215.46085265804504 59.2800833114743,215.64075551263159 59.064172681304626,215.8964057223202 58.624203850034974,216.4408412299017 58.54272814054275,216.57813264082506 58.461252431050525,217.34032919899983 58.493842714844504,217.75692816992523 58.461252431050525,218.11671514210684 58.41236700533773,218.1971934203102 58.28607965563424,218.29187356662806 58.20053016066959,218.3013415705136 57.69130697633955,218.2871395639595 57.56094584114908,218.3060755717088 57.28392842884932,218.27293755302526 57.043575085830525,218.14985327377872 56.92543530707189,218.31554357265122 56.87247609590122,218.34394756372058 56.56694218527991,218.34394756372058 56.51398297412379,218.2871395639595 56.48954026127467,218.3486815605247 56.42843347914459,218.3581495526596 56.25733448921528,218.3581495526596 56.09030928474385,218.32501157163279 55.86625108362932,218.37708553105404 55.83773458530777,218.34394756372058 55.65441423896118,218.3723515371894 55.52812688924314,218.47649928928513 55.4873890344752,218.7226657623287 55.54034824567498,219.17712346906046 55.568864743981976,219.65051212100298 55.58923367135867,220.15229875298974 55.56479095850955,220.23750725798163 55.32443761549075,220.28011145106575 54.004531121681794,220.29904663528578 53.6582593563362,220.3369169802354 53.55641471945273,220.40319000861564 53.59715257420612,220.59254099014288 53.6012263596931,220.9901755048595 53.59715257420612,221.2221273785508 53.56863607588457,221.38307288672513 53.59715257420612,221.425676014871 53.60530014515098,222.59014618305082 53.65418557084922,223.79718769110696 53.63381664348708,223.90605653887542 53.572709861357,223.96759099064002 53.44642251163896,224.05279240286472 53.165331313881325,224.06699262281836 53.07978181891667,224.22792814173226 53.12051967365551,224.54979748448022 53.26717595073569,224.8148646579757 53.23458566694171,224.83379796886948 53.287544878112385,224.8432646213805 53.33643030381063,224.90953113421347 53.34865166024247,225.44439305231572 53.20199538314773,225.43019325902424 53.18162645578559,225.49645892342232 53.21014295410714,225.96504910241492 53.18570024125802,226.04551360078403 53.20199538314773,226.23957445699853 53.169405099368305,226.31530530001692 53.19792159766075,226.51883132071453 53.17755267029861,226.93061376205515 53.21014295410714,227.17200174950267 53.18162645578559,228.7764896024346 53.10829831723822,228.86168207796072 52.96164204015804,228.88061371768345 51.658030688224244,228.85221625516715 51.64173554631998,229.00840208141744 51.70284232845006,229.42016216417323 51.69876854297763,229.8555825971198 51.723211255826754,229.85084978855593 51.747653968661325,229.89344504807013 51.715063684867346,230.09695518627996 51.74358018320345,232.47275091446136 51.77617046699743,232.81349240100099 51.76394911058014,233.0643143776506 51.849498605544795,233.419248793125 51.88208888935333,233.90668758080938 52.004302453569835,238.43536150899672 51.98393352620769,238.86123261138346 52.01652381000167,238.90855137874678 52.02059759548865,239.02211622129835 52.012450024529244,239.76974441833227 52.073556806644774,241.24603773903073 52.22836065469892,244.11331790811164 52.265024723965325,243.55028527719696 52.17540144351369,243.37049188961464 52.15095873066457,243.42253741634704 52.171327658055816,244.85140064280495 52.232434440171346,246.68236233878633 52.27724608038261,246.79590794588148 52.1835490144731,246.8952601216879 52.171327658055816,246.97568791603408 52.2690985094232,247.12235000177316 52.31391014966357,250.07441622207625 52.293541222272324,250.73671270109116 52.30576257870416,251.70648673820688 52.35464800440241,252.01870231358043 52.40760721555853,253.466219517657 52.55833727814024,259.3267787576551 52.57463242004451,260.39569440768537 52.550189707195386,260.8119026237946 52.57870620553149,260.86392838569736 52.56241106361267,261.152433814339 52.66018191500916,262.66587523717317 52.70499355523498,265.7020667782199 52.75795276640565,266.0 52.782395479254774,265.9668964040684 52.786469264741754,265.6453173741247 52.69277219881769,261.28013236008337 52.63981298764702,260.1402920446453 52.586853776461794,258.30986688994744 52.51759942340141,255.1454715231921 52.53796835076355,254.88057951111477 52.44834507032647,251.68283395660183 52.395385859155795,250.66575282099075 52.41575478653249,250.52856340854487 52.3750169317791,249.24180137936128 52.432049928436754,248.69302424981652 52.40760721555853,248.42809501184092 52.432049928436754,248.10639316750166 52.4035334301152,248.04016015499656 52.35464800440241,247.03719142839327 52.25687715302047,246.9047222224508 52.045040308337775,246.77698369753853 51.92690052956459,246.75332837613314 50.76587166926765,246.7722526342368 48.85119249612035,246.78171476036005 48.23197710396198,246.76279050616722 48.183091678263736,246.61612727161992 48.17494410731888,246.41742149665515 48.30123145703692,245.86387944494345 48.24827224586625,245.7503315323047 48.028287830224144,245.59893387851116 47.930516978827654,245.4475357253359 47.91422183693794,245.36237404473286 47.959033477149205,245.08323187271526 47.94273833525949,244.9460257760329 48.01606647380686,244.72838767794383 48.14642760899733,244.67161235220192 48.443813948659226,244.75204404293981 48.635281865950674,244.73311895191 48.908225492778,244.76623785608535 49.213759403384756,244.75204404293981 49.33189918214339,244.7993567363701 49.48670303018298,244.9412945240074 49.62928552181984,245.0122632532366 49.93889321788447,245.0453819559807 50.02851649832155,245.03591947192035 50.354419336305,244.88925071950143 50.655879461424774,244.9176382565529 50.86364252064959,244.88451946162604 51.299537566446816,244.89398197690753 51.85764617648965,244.73311895191 52.362795575361815,244.7000000238404 52.721288697139244,244.7425814984017 53.22643809601141,244.86559442522412 53.75603020770359,245.1447379208439 54.04526897643518,245.18731898281476 54.24081067921361,245.16366284214746 54.50968052055396,245.05484443809473 54.74596007808577,244.87505694440188 54.92113285350206,244.68107491136834 55.14519105460204,244.57225536312762 55.348880328339874,244.5485989054614 55.572938529454404,244.6337620960112 55.699225879172445,244.77096912616616 55.7847753741371,244.9176382565529 55.81736565794563,245.0643069182588 55.81736565794563,245.23463122754765 55.75218509034312,245.49484770185518 55.49146281996218,245.92538444699676" stroke="red" stroke-linecap="round" stroke-linejoin="round" stroke-width="0.5"><title>2023-10-29 41.8km</title><desc>10122270628</desc></polyline></svg>