<?xml version="1.0" encoding="utf-8" ?>
<svg baseProfile="full" height="300mm" version="1.1" viewBox="0,0,200,300" width="200mm" xmlns="http://www.w3.org/2000/svg" xmlns:ev="http://www.w3.org/2001/xml-events" xmlns:xlink="http://www.w3.org/1999/xlink"><defs /><rect fill="#222222" height="300" width="200" x="0" y="0" /><text fill="#FFFFFF" style="font-size:12px; font-family:Arial; font-weight:bold;" x="10" y="20">Marathons</text><text fill="#FFFFFF" style="font-size:4px; font-family:Arial" x="10" y="280">ATHLETE</text><text fill="#FFFFFF" style="font-size:9px; font-family:Arial" x="10" y="290">Chenle LI</text><text fill="#FFFFFF" style="font-size:4px; font-family:Arial" x="65" y="280">SPECIAL TRACKS</text><rect fill="yellow" height="2.6" width="2.6" x="65" y="283" /><text fill="#FFFFFF" style="font-size:3px; font-family:Arial" x="70" y="285.5">Over 20.0 km</text><rect fill="red" height="2.6" width="2.6" x="65" y="287" /><text fill="#FFFFFF" style="font-size:3px; font-family:Arial" x="70" y="289.5">Over 40.0 km</text><text fill="#FFFFFF" style="font-size:4px; font-family:Arial" x="120" y="280">STATISTICS</text><text fill="#FFFFFF" style="font-size:3px; font-family:Arial" x="120" y="285">Number: 1</text><text fill="#FFFFFF" style="font-size:3px; font-family:Arial" x="120" y="290">Weekly: 1.0</text><text fill="#FFFFFF" style="font-size:3px; font-family:Arial" x="141" y="285">Total: 42.1 km</text><text fill="#FFFFFF" style="font-size:3px; font-family:Arial" x="141" y="290">Avg: 42.1 km</text><text fill="#FFFFFF" style="font-size:3px; font-family:Arial" x="167" y="285">Min: 42.1 km</text><text fill="#FFFFFF" style="font-size:3px; font-family:Arial" x="167" y="290">Max: 42.1 km</text><polyline fill="none" points="19.487034949241206,126.87071913934778 19.045659526484087,125.31532694009366 19.0,124.17219705293246 19.28917700110469,123.83487836648419 19.958850056340452,123.68495870592596 21.435174746322446,123.74117859627586 22.713641488167923,123.98479787669203 24.15952649374958,124.565734558244 24.342164599744137,124.47203524623183 24.524802705738693,124.15345714583236 25.16403607663233,122.61677677179978 25.83370913186809,122.16701367351925 26.472942502819933,122.01709234004375 27.842728297575377,121.92339143018762 28.862457722600084,121.69850900699385 30.81059751973953,121.58606766851153 32.83483652758878,121.9608718012023 34.49379932356533,122.57929656533815 36.107102592941374,123.04779847094323 37.79650507331826,123.72243863521726 39.18151071027387,124.0035378048633 40.64261555799749,124.52825484047935 41.43404735060176,124.6781736552075 42.24069898528978,124.97801083348168 44.4019165726495,125.46524496536586 46.669673055177554,125.6526422854804 50.21589627955109,126.25231213094958 51.52480270573869,126.17735353186436 53.031567080004606,125.85877906621317 54.964487034943886,126.13987421820639 55.90811724908417,126.06491556270339 62.71138669666834,124.05975757534907 64.6138669672655,123.96605794611969 68.84498308901675,124.34085611072078 69.36245772260008,124.54699470057676 71.49323562567588,125.78382026974577 73.13697857951047,126.13987421820639 75.35907553549623,126.36474995916069 76.62232243519975,126.38348958895949 77.76381059747655,126.27105177483463 78.76832018030109,126.02743622084381 82.08624577225419,124.95927102747373 83.80608793679858,123.85361831351474 85.41939120629104,122.31693485668802 86.46956031565787,121.21126259592711 88.2959413753706,118.70004436408635 90.0157835399732,115.49536877271021 94.38387824123492,109.34819636095199 95.60146561433794,107.1741358335421 96.08850056363735,106.48067883946351 97.39740698988317,105.07501289751963 98.61499436298618,104.32531898835441 99.61950394581072,104.02544037150801 101.15670800447697,103.80053101397061 104.52029312285595,103.78178855225269 107.88387824123492,104.23160698522406 110.8365276211407,104.45651569397887 111.85625704616541,104.68142406418337 113.49999999994179,105.31866260814422 113.66741826379439,105.50608519210073 113.53043968428392,106.70558416313725 113.71307779027848,107.64268603478558 117.80721533257747,116.13256120565347 118.17249154450838,117.12582634481078 118.5682074407814,117.21953026241681 121.49041713640327,117.10708555422025 121.94701240130235,117.20078948359878 123.46899661776843,118.28775077122555 124.93010146560846,119.73077337024733 125.523675310018,120.04936089768307 127.09131905296817,120.1243225701619 128.46110484778183,119.84321610454936 130.2722660653526,119.20603949173528 134.0315670800046,117.38819716617581 136.34498308901675,117.4631601733563 136.77113866969012,117.29449335423124 136.99943630211055,116.24500664706284 137.6386696730042,114.46461055564578 138.0039458849933,112.15943463341682 138.68883878237102,103.55687882797793 138.79537767759757,101.251534635594 138.99323562567588,100.22067816348863 138.93235625699162,99.18981457935297 139.4802705749753,97.76533683190064 140.2108229988371,96.6219961836905 140.56087936862605,95.34744219740969 140.3325817361474,97.01560624681588 140.07384441932663,97.54041805135785 139.34329199552303,99.4334738865582 138.6127395715448,106.19954670891457 138.39966178126633,108.56104016762401 138.01916572707705,113.9960817432002 136.66459977446357,118.43767584566376 136.63416009017965,118.81248787380173 137.86696730548283,122.11079319109558 138.0496054114774,122.87913795409258 138.06482525361935,124.13471723646217 138.91713641484967,125.4465052204032 139.52593010145938,127.58282100992801 140.0890642615268,129.1007110428909 140.59131905296817,130.0751508414687 141.0631341600092,131.96779460663674 141.96110484778183,134.1977104714315 142.23506200680276,135.24707113300974 143.0721533257747,137.51441455233726 143.22435174742714,138.48879950656556 142.8286358511541,139.87541329948 142.72209695598576,140.68114243331365 142.18940248026047,141.7866706896457 142.08286358509213,142.61112711844908 143.39177001127973,143.19199141775607 144.259301014652,143.36062901742116 144.9137542277458,143.90401554458367 145.53776775643928,144.2412889473926 146.66403607657412,144.78467227368674 147.8207440811675,145.19689279010345 148.97745208564447,145.871433001681 149.75366403604858,146.096279062549 151.5039458849933,146.93944877927424 151.793122886098,146.67712982137164 152.5693348364439,144.80340959459136 153.68038331455318,142.7610277988715 154.09131905296817,142.31132530678588 155.64374295371817,141.22453869957826 157.6375422773417,140.17521999609016 160.60541149938945,138.3014182778279 163.01014656142797,136.98974310026097 163.5732807214954,136.54002324714384 163.55806087935343,136.33390119556861 162.59921082295477,135.0971629180567 161.35118376545142,133.01717092203035 160.20969560311642,131.4056256930926 157.91149943624623,127.2829890568537 157.95715896278853,127.00189605461492 158.30721533257747,126.4397084643133 158.68771138665034,123.90983814038918 158.91600901912898,121.34244447822857 159.14430665160762,120.16180339225684 159.20518602023367,117.9316781166126 160.36189402482705,115.3266997327155 161.33596392330946,113.73370496660937 161.77733934606658,112.74041728234442 162.81228861329146,110.95997943879047 163.26888387819054,109.96667331841309 165.47576099209255,106.10583588115696 165.88669673050754,105.56231192142877 168.2762119503459,103.36945379912504 172.15727170236642,99.28352974457084 174.0901916572475,96.32210210621997 175.49041713640327,93.7167469784763 175.77959413750796,92.5171437310346 176.175310033781,89.48060496263497 176.4949267192278,89.36813937861007 177.94081172486767,89.59307046206959 178.06257046223618,89.81800120687694 178.00169109355193,90.15539668923884 177.16459977446357,91.9923142815096 175.99267192778643,93.30438444855099 174.77508455468342,95.81602948560612 172.62908680940745,99.28352974457084 171.97463359637186,99.99576307901589 166.20631341601256,105.88092965487158 165.73449830891332,106.5931315436028 165.79537767753936,106.78055252910417 166.13021420512814,106.87426293369208 170.02649379929062,107.19287786979112 174.288049605384,108.99210240608954 176.19052987592295,109.21700395000516 177.1493799323216,109.21700395000516 177.34723788045812,109.2732292831206 177.49943630211055,109.51687214864069 179.12795941374497,130.9558890400367 179.55411499430193,139.27579810249154 179.934611048433,143.1357788422756 180.07158962788526,143.62295379438729 180.43686583987437,148.04493075920618 179.2801578353392,149.97482038835005 176.2970687710913,154.45281784150575 175.62739571585553,158.49976293403597 174.22717023669975,161.3100770318997 174.30326944758417,161.534899878141 174.698985343799,161.8346631472814 180.1020293122274,164.66364940514904 180.89346110477345,165.13201944972388 181.0,165.28189755418862 180.64994363021106,165.22569328262762 175.21645997738233,162.26557179391966 173.95321307773702,161.4974294272397 173.86189402471064,161.27260652472614 175.39909808337688,158.31240678293398 175.5969560315716,156.5887191780639 176.03833145427052,154.45281784150575 179.82807215332286,148.6445107870968 180.28466741816374,147.76387679342588 179.46279594133375,140.9622097141546 178.93010146555025,131.761666250517 178.5039458849351,127.15181238827063 177.91037204052554,119.2435205441725 177.77339346101508,116.17004302887653 177.3167981961742,112.49677967226307 177.1950394588639,109.61058083731041 176.96674182638526,109.36693812449812 175.01860202930402,109.2732292831206 174.10541149944765,109.14203680635546 170.74182638101047,107.49275013021543 169.8286358510959,107.15539379490656 165.47576099209255,106.87426293369208 165.17136414872948,107.11790971063601 163.31454340467462,110.41647313428984 161.16854565951508,114.59579835990735 160.74239007889992,115.25173565390287 159.8900789176696,116.9571591449203 159.57046223222278,118.06286287753028 159.49436302139657,119.4309256652632 159.0225479142391,122.63551687149447 158.52029312285595,127.2829890568537 158.5811724915402,127.60156048703357 159.14430665160762,128.4635738938232 159.38782412622822,129.19440745344036 159.7683201803011,129.73784547616378 160.39233370911097,131.08706237027945 161.8077790303505,133.1670812228549 162.15783540019765,133.89789178656065 163.60372040583752,135.92165623995243 163.84723788045812,136.52128489053575 163.83201803831616,136.7648833428102 162.4622322434443,137.68305855662038 161.25986471248325,138.24520386342192 158.0941375422408,140.28764735235018 156.55693348357454,141.1495876078552 155.82638105977094,141.4119162644347 154.30439684324665,142.44248867336137 153.81736189400544,143.06082870869432 151.9148816234083,146.88323761279753 151.47350620065117,147.31418934927206 151.07779030443635,147.27671533453395 149.57102593005402,146.6209185563057 148.38387824123492,145.96511890145484 147.42502818483626,145.55290050321491 146.20744081173325,144.82214691312402 144.76155580603518,144.20381416240707 142.98083427274833,143.28567899660266 142.5090191657073,143.15451636978833 141.82412626832956,142.7610277988715 141.61104847799288,142.7797653733287 141.3979706877144,143.06082870869432 140.89571589621482,144.61603628037847 139.64768883876968,146.86450055259047 139.358511837665,147.80135068604432 138.47576099209255,149.15040456538554 138.0800450957613,150.7055487947655 137.74520856817253,151.26764513881062 137.2733934611315,151.73605714464793 136.51240135286935,153.40359197479847 135.73618940240704,154.7338592341548 135.43179255916039,155.53950829902897 134.4881623449619,156.85102074751921 133.68151071021566,157.6191869826289 133.11837655009003,158.49976293403597 132.54002254788065,158.96815228481137 131.64205186016625,160.2421638964297 128.963359639165,163.4271454391419 128.56764374295017,163.46461540649761 128.05016910936683,163.1648554046842 127.22829763247864,162.26557179391966 126.2237880495959,161.40375325894274 125.63021420512814,161.04778328412795 123.89515219838358,159.6613658314891 123.08850056369556,159.19297865209228 122.75366403604858,158.87447453202913 121.91657271701843,158.44355611335777 120.34892897406826,157.0009071521199 120.13585118378978,156.96343556500506 119.86189402476884,157.1133218568575 118.6138669672655,158.89321008732077 117.22886133030988,160.5044590572943 114.38275084551424,166.2561015717365 113.77395715896273,167.97967774874996 113.16516347235302,169.0288013483223 112.34329199546482,171.53917437285418 110.74520856817253,175.2484543993487 110.63866967300419,175.84792536446184 109.31454340467462,179.53836556860188 108.27959413750796,181.99236423282127 107.79255918820854,183.52843451182707 106.81848928966792,185.86997470898496 106.10315670806449,189.6725578946789 105.34216459974414,196.6780492120015 104.83990980824456,199.95590709149837 104.79425028176047,201.62290440763172 104.56595264939824,202.5406815190363 104.23111612169305,205.4063574913016 103.80496054107789,207.69136697548674 102.87655016907956,208.51546019474335 101.35456595261348,209.24590266289306 99.13246899662772,210.63186062137538 99.23900789173786,210.40711155420286 99.9543404734577,209.7515915135882 101.12626832013484,209.0398807892634 102.95264937990578,208.15960231598 103.62232243514154,207.61644918505044 103.71364148810972,206.92345784512872 104.32243517466122,203.88924175476131 104.55073280719807,201.36068134171364 104.88556933484506,200.012098314779 105.82919954898534,190.36562914463866 106.48365276207915,186.019832033664 109.5276211950113,177.68379024883325 111.08004509581951,173.91836961563968 111.46054114989238,172.53207147742796 113.0434047349845,168.44803740797215 113.18038331449497,167.71739569884085 113.69785794807831,166.34977470048761 115.21984216454439,163.68943501352624 116.92446448700503,160.11101614343352 118.46166854561307,158.2936711548973 119.90755355125293,156.75734166844632 120.24239007884171,156.55124748777598 120.47068771132035,156.5887191780639 122.14487034943886,157.80654400234926 122.40360766625963,157.82527969138755 122.40360766625963,156.96343556500506 122.81454340467462,155.52077232353622 122.79932356247446,154.79006744934304 123.1950394588057,154.05935900429904 123.37767756480025,153.06633923976915 123.71251409238903,152.1107856927847 123.69729425030528,150.85544135977398 124.27564825245645,149.9935570587404 124.51916572719347,149.41271918396524 124.80834272823995,147.80135068604432 125.14317925582873,146.80828935788304" stroke="red" stroke-linecap="round" stroke-linejoin="round" stroke-width="0.5"><title>2024-03-03 42.1km</title><desc>10878173593</desc></polyline></svg>