<?xml version="1.0" encoding="utf-8" ?>
<svg baseProfile="full" height="300mm" version="1.1" viewBox="0,0,200,300" width="200mm" xmlns="http://www.w3.org/2000/svg" xmlns:ev="http://www.w3.org/2001/xml-events" xmlns:xlink="http://www.w3.org/1999/xlink"><defs /><rect fill="#222222" height="300" width="200" x="0" y="0" /><text fill="#FFFFFF" style="font-size:12px; font-family:Arial; font-weight:bold;" x="10" y="20">Marathons</text><text fill="#FFFFFF" style="font-size:4px; font-family:Arial" x="10" y="280">ATHLETE</text><text fill="#FFFFFF" style="font-size:9px; font-family:Arial" x="10" y="290">Chenle LI</text><text fill="#FFFFFF" style="font-size:4px; font-family:Arial" x="65" y="280">SPECIAL TRACKS</text><rect fill="yellow" height="2.6" width="2.6" x="65" y="283" /><text fill="#FFFFFF" style="font-size:3px; font-family:Arial" x="70" y="285.5">Over 20.0 km</text><rect fill="red" height="2.6" width="2.6" x="65" y="287" /><text fill="#FFFFFF" style="font-size:3px; font-family:Arial" x="70" y="289.5">Over 40.0 km</text><text fill="#FFFFFF" style="font-size:4px; font-family:Arial" x="120" y="280">STATISTICS</text><text fill="#FFFFFF" style="font-size:3px; font-family:Arial" x="120" y="285">Number: 2</text><text fill="#FFFFFF" style="font-size:3px; font-family:Arial" x="120" y="290">Weekly: 1.0</text><text fill="#FFFFFF" style="font-size:3px; font-family:Arial" x="141" y="285">Total: 83.9 km</text><text fill="#FFFFFF" style="font-size:3px; font-family:Arial" x="141" y="290">Avg: 42.0 km</text><text fill="#FFFFFF" style="font-size:3px; font-family:Arial" x="167" y="285">Min: 41.8 km</text><text fill="#FFFFFF" style="font-size:3px; font-family:Arial" x="167" y="290">Max: 42.1 km</text><polyline fill="none" points="46.324689966160804,74.5804794262367 46.03043968434213,73.5435512933982 46.0,72.78146470195497 46.19278466748074,72.55658557765855 46.63923337095184,72.45663913727913 47.623449830920435,72.4941190641839 48.475760992150754,72.65653191779711 49.43968432920519,73.04382303883176 49.5614430665737,72.98135683081637 49.683201803825796,72.76897143055976 50.10935738449916,71.74451784786652 50.55580608797027,71.44467578235344 50.98196166858543,71.3447282266934 51.89515219844179,71.28226095346326 52.57497181510553,71.13233933799347 53.87373167986516,71.05737844567193 55.22322435176466,71.30724786747305 56.32919954910176,71.71953104355634 57.404735062038526,72.03186564729549 58.531003382231575,72.48162575680908 59.45434047351591,72.6690252032422 60.42841037205653,73.01883656032442 60.95603156712605,73.11878243680985 61.49379932356533,73.31867388899263 62.934611048491206,73.64349664357724 64.44644870352931,73.76842819031299 66.81059751973953,74.16820808729244 67.683201803884,74.11823568791442 68.68771138670854,73.90585271081363 69.976324689982,74.09324947879941 70.60541149944765,74.04327704180469 75.14092446444556,72.70650505022786 76.40924464486307,72.64403863075131 79.22998872603057,72.89390407381143 79.57497181510553,73.03132980038936 80.99549041717546,73.85588017983537 82.09131905302638,74.09324947879941 83.57271702372236,74.24316663944046 84.4148816234665,74.25565972596814 85.17587373172864,74.18070118322066 85.8455467869062,74.01829081389587 88.0574971815222,73.30618068498006 89.20405862457119,72.5690788756765 90.27959413756616,71.54462323778716 90.97970687714405,70.80750839727989 92.19729425030528,69.13336290939333 93.34385569335427,66.99691251514014 96.25591882754816,62.89879757396557 97.06764374295017,61.449423889032914 97.39233370916918,60.987119226309005 98.26493799331365,60.05000859834399 99.07666290871566,59.550212658905366 99.74633596395142,59.350293581002916 100.77113866969012,59.20035400931374 103.01352874859003,59.18785903483513 105.25591882748995,59.4877379901518 107.22435174748534,59.63767712932167 107.90417136414908,59.78761604279134 109.0,60.212441738767666 109.11161217588233,60.337390128064726 109.02029312291415,61.13705610876059 109.14205186022446,61.761790689852205 111.87147688842379,67.42170747043565 112.11499436304439,68.08388422987628 112.37880496057915,68.1463535082803 114.32694475760218,68.07139036947774 114.63134160090704,68.13385965572525 115.64599774521776,68.85850051415036 116.62006764375838,69.82051558016246 117.0157835400314,70.03290726512205 118.06087936868425,70.08288171343884 118.97406989854062,69.89547740303533 120.18151071027387,69.47069299449504 122.68771138670854,68.2587981107863 124.22998872603057,68.30877344890177 124.51409244647948,68.1963289028281 124.66629086813191,67.49667109804432 125.09244644868886,66.30974037043052 125.33596392336767,64.77295642227546 125.79255918826675,59.037919218659226 125.86358511843719,57.50102309039357 125.99549041711725,56.81378544232575 125.95490417140536,56.12654305290198 126.32018038333626,55.17689122126467 126.80721533257747,54.41466412245791 127.0405862457701,53.564961464944645 126.88838782411767,54.677070831210585 126.7158962796093,55.0269453675719 126.22886133036809,56.2889825910388 125.74182638106868,60.79969780594547 125.59977452090243,62.37402677841601 125.34611048473744,65.99738782880013 124.44306651636725,68.95845056377584 124.4227733934531,69.20832524920115 125.24464487034129,71.40719546072796 125.3664036077098,71.91942530272354 125.37655016913777,72.75647815764387 125.94475760991918,73.63100348027365 126.35062006767839,75.0552140066211 126.72604284103727,76.0671406952606 127.06087936868425,76.71676722764823 127.37542277335888,77.97852973775298 127.97406989859883,79.46514031429251 128.15670800459338,80.16471408867801 128.7147688838886,81.67627636822726 128.81623449834296,82.3258663377128 128.5524239008082,83.25027553298423 128.48139797069598,83.78742828887334 128.12626832019305,84.52444712643046 128.05524239008082,85.07408474563272 128.9278466742253,85.4613276118398 129.50620067649288,85.5737526782832 129.942502818536,85.93601036306063 130.358511837665,86.16085929825931 131.10935738444095,86.52311484912207 131.88049605413107,86.79792852673563 132.6516347238212,87.24762200111581 133.16910935740452,87.39751937503024 134.33596392336767,87.95963251951616 134.5287485907902,87.78475321424776 135.04622322437353,86.53560639639181 135.78692220972152,85.17401853258343 136.06087936868425,84.87421687119058 137.09582863585092,84.14969246638793 138.42502818489447,83.45014666406496 140.40360766631784,82.20094551855436 142.00676437432412,81.32649540017155 142.382187147683,81.02668216476013 142.37204058625503,80.88926746370998 141.7328072153614,80.06477527870447 140.90078917698702,78.67811394802266 140.13979706878308,77.60375046206173 138.60766629088903,74.85532603790489 138.63810597523116,74.66793070307904 138.87147688842379,74.29313897620887 139.12514092447236,72.60655876025703 139.2773393461248,70.89496298548329 139.42953776777722,70.10786892817123 139.47012401354732,68.62111874440598 140.24126268323744,66.88446648847457 140.89064261555905,65.822469977742 141.18489289743593,65.16027818823204 141.87485907558585,63.97331962586031 142.1792559188325,63.3111155456063 143.6505073281005,60.73722392076888 143.92446448700503,60.374874614288274 145.51747463358333,58.91296919941669 148.10484780161642,56.18901982971147 149.39346110483166,54.214734737477556 150.32694475766039,52.47783131898905 150.5197294250247,51.678095820687304 150.78354002255946,49.6537366417615 150.99661781283794,49.57875958574732 151.9605411499506,49.72871364137245 152.041713641549,49.87866747125372 152.0011273957207,50.103597792825894 151.44306651636725,51.328209521001554 150.66178128524916,52.202922965698235 149.85005636978894,53.87735299040651 148.41939120629104,56.18901982971147 147.9830890643061,56.66384205267968 144.1375422773417,60.58728643658105 143.82299887266709,61.06208769573277 143.86358511837898,61.187035019400355 144.08680947014363,61.24950862246624 146.6843291996047,61.46191857985832 149.52536640362814,62.661401604054845 150.79368658398744,62.811335966667684 151.43291995488107,62.811335966667684 151.56482525367755,62.848819522077974 151.6662908681319,63.01124809909379 152.75197294249665,77.30392602669599 153.03607666288735,82.85053206832526 153.28974069899414,85.42385256151465 153.3810597519623,85.74863586292486 153.62457722664112,88.69662050613988 152.853438556951,89.9832135922261 150.86471251409966,92.96854522766807 150.41826381057035,95.66650862269307 149.48478015785804,97.54005135459738 149.53551296511432,97.68993325209158 149.79932356259087,97.88977543152578 153.40135287487647,99.77576627010421 153.92897406988777,100.08801296648016 154.0,100.18793170278514 153.76662908680737,100.15046218842326 150.14430665160762,98.17704786262038 149.30214205186348,97.6649529514907 149.24126268317923,97.51507101648167 150.26606538897613,95.54160452196083 150.3979706877144,94.39247945204261 150.69222096953308,92.96854522766807 153.2187147688819,89.0963405247312 153.52311161218677,88.50925119561725 152.9751972942613,83.97480647610064 152.62006764375838,77.84111083368043 152.33596392330946,74.76787492552103 151.94024802703643,69.49568036278652 151.84892897406826,67.44669535258436 151.5445321308216,64.99785311484447 151.4633596392814,63.07372055820451 151.31116121762898,62.91129208300117 150.01240135292755,62.848819522077974 149.40360766631784,62.76135787090607 147.16121758735972,61.66183342014119 146.55242390075,61.43692919659952 143.6505073281005,61.24950862246624 143.4475760991918,61.411939807090675 142.20969560317462,63.61098208952899 140.77903043967672,66.39719890661218 140.494926719286,66.83449043593282 139.9267192785046,67.97143942995172 139.71364148816792,68.70857525168685 139.66290868096985,69.62061711017304 139.3483652761788,71.75701124766783 139.01352874859003,74.85532603790489 139.05411499441834,75.06770699135814 139.42953776777722,75.64238259588456 139.59188275085762,76.12960496896267 139.8455467869062,76.49189698410919 140.26155580609338,77.39137491351721 141.20518602029188,78.77805414856994 141.4385569334845,79.26526119104528 142.40248027059715,80.61443749330647 142.56482525367755,81.01418992702384 142.55467869224958,81.1765888952068 141.641488162335,81.78870570441359 140.83990980836097,82.16346924228128 138.72942502819933,83.52509823490254 137.70462232240243,84.09972507190105 137.21758737321943,84.27461084295646 136.2029312288505,84.96165911557182 135.8782412626897,85.37388580579864 134.6099210822722,87.92215840852441 134.31567080045352,88.2094595661838 134.05186020297697,88.18447688969172 133.047350620036,87.74727903753228 132.25591882748995,87.31007926763414 131.61668545659631,87.0352670021457 130.8049605411943,86.54809794208268 129.84103720408166,86.1358761082738 128.65388951520436,85.5237859977351 128.33934611047152,85.43634424652555 127.88275084557245,85.17401853258343 127.7406989854062,85.18651024888095 127.59864712518174,85.37388580579864 127.26381059753476,86.41069085358322 126.4317925592186,87.90966703506274 126.23900789179606,88.53423379069864 125.6505073281005,89.43360304359521 125.38669673056575,90.470365863177 125.16347237880109,90.84509675920708 124.84892897412647,91.15737142976286 124.3416009019711,92.26906131653232 123.82412626832956,93.15590615610563 123.62119503947906,93.6930055326884 122.9921082300134,94.56734716501524 122.45434047351591,95.07945798841683 122.07891770009883,95.66650862269307 121.69334836531198,95.97876818987424 121.09470124013023,96.82810926429374 119.3089064261294,98.95143029276369 119.04509582865285,98.97641027100326 118.70011273957789,98.77657026978704 118.15219842165243,98.17704786262038 117.48252536641667,97.60250217262364 117.08680947014363,97.3651888560853 115.93010146560846,96.44091055433091 115.39233370916918,96.12865243472334 115.16910935740452,95.91631635468366 114.61104847805109,95.6290374089076 113.56595264939824,94.66727143474418 113.423900789232,94.64229037666519 113.24126268323744,94.74221457124077 112.40924464492127,95.92880672487809 111.48590755357873,97.00297270486772 109.58850056369556,100.83740104782919 109.18263810599456,101.98645183249755 108.77677564829355,102.68586756554578 108.22886133036809,104.35944958190521 107.16347237880109,106.83230293289671 107.09244644868886,107.23195024297456 106.20969560317462,109.69224371240125 105.5197294250247,111.32824282188813 105.1950394588639,112.35228967454896 104.54565952648409,113.91331647265906 104.06877113872906,116.44837192978594 103.5614430665737,121.11869947466766 103.22660653886851,123.30393806099892 103.19616685452638,124.41526960508054 103.04396843299037,125.02712101268844 102.8207440811675,126.93757166086289 102.5366403607768,128.4609113169863 101.91770011273911,129.01030679649557 100.90304396842839,129.49726844193356 99.42164599779062,130.42124041425268 99.49267192784464,130.27140770279948 99.96956031571608,129.834394342397 100.75084554683417,129.35992052617803 101.9684329199954,128.77306821065577 102.4148816234665,128.41096612336696 102.47576099209255,127.94897189675248 102.88162344985176,125.92616116983845 103.03382187150419,124.24045422780182 103.25704622326884,123.3413988765169 103.8861330327345,116.91041942975426 104.32243517477764,114.01322135577357 106.35174746339908,108.4558601658864 107.38669673056575,105.94557974376221 107.64036076661432,105.02138098495197 108.69560315669514,102.29869160531962 108.78692220972152,101.81159713256784 109.13190529873827,100.8998498003275 110.146561443049,99.12629000901507 111.28297632472822,96.74067742895568 112.30777903040871,95.5291141032576 113.27170236752136,94.50489444562845 113.49492671928601,94.36749832518399 113.64712514093844,94.39247945204261 114.76324689970352,95.20436266822799 114.93573844421189,95.21685312759655 114.93573844421189,94.64229037666519 115.20969560317462,93.68051488235506 115.19954904168844,93.19337829956203 115.4633596392232,92.70623933619936 115.5851183765335,92.04422615984367 115.80834272829816,91.40719046185404 115.79819616687018,90.57029423984204 116.18376550165704,89.99570470582694 116.34611048479564,89.60847945597197 116.53889515221817,88.53423379069864 116.76211950392462,87.87219290525536" stroke="red" stroke-linecap="round" stroke-linejoin="round" stroke-width="0.5"><title>2024-03-03 42.1km</title><desc>10878173593</desc></polyline><polyline fill="none" points="68.81109840536374,156.04262861870666 68.91497993498342,156.0 69.1044109595532,156.02841908207483 69.13496435061097,156.09946673581726 69.21440316736698,156.14209529273649 69.47716233049869,156.16340956128988 69.7277001372131,156.26287606026744 70.18600100310869,156.36234241508646 70.50375627013273,156.39076134713105 70.6198591561697,156.45470390120317 70.90706103213597,156.4902275166096 71.0598279874248,156.56127469225612 71.15148816059809,156.53996054728486 71.51812885334948,156.63942650054378 72.33084905555006,156.7317876137531 72.76470720861107,156.85967202688335 72.88081009464804,156.85967202688335 72.9113634857058,156.82414860268182 73.10079451027559,156.85967202688335 73.22911875275895,156.90940478984703 73.30244689129177,157.0586028625039 73.3635536734073,156.95203284370655 73.5285419851134,157.00887020766095 73.57742741084076,157.10833548131632 73.65686622756766,157.1580680640982 73.78519047005102,157.11544013820094 73.82796521749697,157.1580680640982 73.93795742533985,157.12964944977284 73.9807321728149,157.1580680640982 74.07239234598819,157.10833548131632 74.3290408308967,157.1580680640982 74.64679609792074,157.15096341163007 74.78734169682139,157.20780061083497 75.67950071577798,157.3712072963899 76.68776262077154,157.65539190982963 77.1705061995599,157.74064706441277 78.55151947546983,157.92536620268947 80.3480588698585,158.31611658784823 81.9429458832019,158.59319278570183 83.0917533870961,158.87026786502975 84.70497243510908,159.21838625106466 85.572688741202,159.67306883092533 88.10250952103524,161.27153836909565 88.73190937686013,161.59833200286812 91.48782525051502,163.18965268263855 91.90946204715874,163.38856517393288 92.9177239521523,163.80059635822545 93.21714718456496,163.8716359676182 93.58989855551044,163.92136365048646 94.73259538118145,163.84322013268684 95.21533895994071,163.9710912973169 95.80196406831965,164.3404955461374 96.51080274090054,165.09350574400014 97.75738109616213,166.49294615534018 98.33789552631788,166.9191659945791 98.81452842688304,167.06123868635768 99.01007012964692,167.01861690968508 99.34004675311735,167.03992780132103 100.42163679664372,166.99020237720833 100.72106002902729,167.02572054097982 101.17325021672877,167.0115132776773 101.43600937986048,167.1038604365749 101.6009976915957,167.28145077764202 101.6926578647981,168.8442259733638 101.66821515193442,169.68953046122624 101.69876854299218,170.59165066314017 101.75376464688452,170.90419348069554 101.74765396869043,171.80629772600514 101.78431803794228,171.7636788945092 101.73543261224404,171.50796535004338 101.75376464688452,170.81895467152935 101.70487922121538,170.46379182776582 101.6926578647981,169.54035983713402 101.72321125585586,169.41960242792993 101.70487922121538,168.5600876742683 101.62544040445937,167.1891038576141 101.44823073627776,166.99730601144256 101.16102886031149,166.98309874226106 101.063258008915,167.04703143041115 100.72106002902729,166.9759951065571 100.61106782124261,166.79840397541557 100.6232891776599,165.87492268865026 100.67828528158134,165.76836635627842 100.76994545475463,165.71153624470753 102.62148095300654,165.65470608609758 102.97590028934064,165.61208343625913 103.11644588821218,165.64049853911274 103.50752929376904,165.59077210145188 103.97805151611101,165.61918721310212 105.80514430152834,165.56946075998712 107.63834776516887,165.4629039535139 107.75445065120584,165.49131911808217 108.18219812604366,165.4415925723806 108.67105238302611,165.51263048378314 109.30656291707419,165.82519642078842 109.71597835730063,166.11644976316165 110.009290911461,166.22300555531547 110.08261905002291,166.29404265822814 110.22927532711765,166.3153537747712 110.5409199159185,166.47873878181417 110.61424805445131,166.5639829789725 110.68757619304233,166.5568792999038 111.07865959859919,166.76288569408644 111.40252554381732,166.99730601144256 111.5919565683871,167.08965318943956 111.90971183544025,167.21041469632473 112.78353881978546,167.75739062669163 113.62070173484972,168.16229208020377 114.53730346664088,168.68084659503074 114.73895584765705,168.7518811551272 114.93449755042093,168.77319150880794 115.08726450576796,168.69505351295084 115.55778672808083,167.80711549520493 116.32162150461227,166.94758055645798 116.98157475149492,165.78967763598484 117.12823102856055,165.5836683216985 117.36043680063449,164.93011744040996 117.37876883527497,164.4541579920624 117.5254251123988,163.70114078152983 117.59875325093162,163.5945810751873 117.76374156263773,163.50933319103933 118.55812973019783,163.92136365048646 118.93699177936651,164.1842093757441 119.40751400170848,164.3902228893785 120.21412352568586,164.78804033863707 121.61957951448858,165.6049796587322 121.94344545973581,165.7328475420727 122.79282973121735,166.24431669391925 124.8765710015432,167.36669397820515 125.07211270433618,167.43772989784338 125.37153593671974,167.6508372157623 128.1580052014615,169.1425699219908 128.689634205919,169.3982922748255 129.14182439362048,169.67532374907023 129.59401458132197,169.88132078747003 130.78559683266212,170.55613434385305 131.18890159466537,170.71950926043792 131.12779481257894,170.76923198398435 131.00558124831878,170.78343846981443 130.59005512986914,170.63427022201358 129.23348456679378,169.87421745159372 128.43909639920457,169.5048429741364 127.67526162270224,169.01470838845125 126.5631181881181,168.48905291576375 125.43875339705846,167.84973678241658 124.85212828870863,167.57269794266904 123.85608774013235,167.02572054097982 123.29390534461709,166.69895274133887 122.93948600831209,166.5639829789725 122.79894040944055,166.6563307397737 122.21231530106161,167.6934585999843 120.86796609443263,170.10152383476088 120.06135657039704,171.6500285478469 120.07968860503752,171.621615931821 119.96358571902965,172.0762163779873 119.9208109715255,171.9980821404606 119.86581486760406,172.06201015959232 119.49306349668768,172.73680228779995 119.1264228039654,173.58916181493987 118.8575529626105,174.0579550458133 118.67423261626391,174.28524758167623 117.81873766655917,175.9473013897732 117.74540952802636,176.1745876733621 117.58042121629114,176.38056521822728 117.2687766274612,176.9061602923175 116.52938456382253,178.4261017937606 116.52938456382253,178.58235555569263 116.7310369447805,179.17895755923382 116.84102915262338,179.36361903406942 117.02434949896997,179.51987066352012 117.36654747888679,180.0525440020283 117.69041342410492,180.59941766593693 117.94095123081934,181.13918480560824 118.27703853245475,182.15478779550904 118.43591616596677,182.99992848911643 118.58257244306151,183.41894396970747 118.66201125981752,183.85216067810688 119.24863636819646,185.20150669249415 119.34640721959295,185.8903731248356 118.89421703189146,187.8646118596298 118.56424040845013,188.07055436001247 118.22204242856242,188.43272760495893 117.99594733474078,188.64576979861886 117.90428716153838,188.68127676669246 117.64152799840667,188.56765440428717 117.40321154813864,188.54635019044508 116.32162150461227,188.53214737751114 116.19329726212891,188.404321929258 116.17496522748843,187.90011923130805 116.03441962861689,187.8362059490828 115.11781789679662,187.82200298940734 114.9650509414787,187.90011923130805 114.65951703087194,187.94982952084683 114.21343752142275,188.19127898706938 113.92012496723328,188.46113326895284 113.59625902198604,188.84460858348757 112.93630577507429,189.6612618448562 112.81409221081412,189.86719896124123 112.69187864658306,191.01049379850156 112.74076407228131,191.63539225489512 112.69187864658306,192.17507271316572 112.61855050802114,192.29579013046896 112.42911948345136,192.43781034994754 112.30079524102621,192.45201235577406 111.53696046452387,192.4307093459429 111.34141876173089,192.45911335756682 110.92589264328126,192.40940632954153 110.56536262875306,192.2247799106699 110.38815296062967,192.4733153589841 110.30871414387366,192.5159213455845 109.85041327794897,192.5159213455845 109.77097446122207,192.4307093459429 109.73431039194111,192.52302234079252 109.64265021873871,192.53722432899667 109.3860017338302,192.53722432899667 109.13546392711578,192.48751735745464 108.79937662548036,192.5656282965865 108.75660187797621,192.5159213455845 108.48162135845632,192.55852730578772 108.29219033388654,192.71474893392588 108.2310835517419,193.08399864349485 108.31052236852702,193.76568520359433 108.35329711597296,194.47576818150992 108.38385050705983,195.22844812949188 108.34718643777887,195.3562608869761 107.98665642325068,195.4201671766059 106.00679668254452,195.4485699529323 105.4873890345043,195.50537547035492 105.33462207918637,195.60478501293255 105.39572886133101,195.88881148521614 105.4018395395542,196.48526325728744 105.39572886133101,196.83319106783165 105.35295411382685,197.07460933009133 105.39572886133101,197.13851402231376 105.40795021771919,198.88521927457623 105.48127835628111,200.69578153666953 105.45072496525245,200.85908480831858 105.35906479205005,200.95138648596185 105.16963376748026,201.07918860430073 104.74799697083654,201.10048893422936 104.61967272838228,201.34189221260021 104.68077951049781,201.82469622672215 104.90076392612536,202.222296986969 104.85187850042712,202.25069695330603 104.93131731718313,202.2648969320726 105.00464545571594,202.36429670132202 105.02297749038553,203.1665895784754 104.80299307475798,203.14528988854 104.77243968370021,203.24468838513712 104.81521443117526,203.94757365362602 104.7785503618943,204.06827040117787 104.80299307475798,204.3593616854996 104.75410764905973,204.4729579500272 104.79688239650568,204.77824698107725 104.76632900547702,205.39592064308817 104.81521443117526,205.75800262425764 104.77243968370021,208.1647344036537 104.66244747585733,208.29252311695018 104.44246306025889,208.32092057653063 102.4870460323582,208.27832438275072 102.46260331949452,208.5126031221298 102.55426349266781,209.13024324626167 102.54815281447372,209.78337389568333 102.58481688375468,209.77627468283754 102.62148095300654,209.84016757211066 102.5725955273083,210.1454327794272 102.61537027481245,213.70912637169386 102.6642557005107,214.22023860150512 102.64592366587021,214.59647156648134 102.77424790832447,215.12887318969297 102.82313333402271,215.86003137121588 103.0064536803693,222.6530422634969 102.97590028934064,223.291848917077 103.02478571500978,223.36282706812926 103.03089639323298,223.5331743319548 103.0186750368157,224.6546166275075 103.11033520998899,226.86905660854973 103.34254098206293,231.16997686216928 103.39753708598437,230.32542791579908 103.26310216530692,230.05573783442378 103.22643809602596,230.13380612452602 103.25699148708372,232.27710096420924 103.34865166025702,235.02354350818496 103.41586912059574,235.19386191882222 103.2753235217242,235.34289018253185 103.25699148708372,235.46353187405475 103.40364776414935,235.68352500266337 103.47086522451718,240.11162433311983 103.44031183343031,241.10506905163493 103.4586438680708,242.55973010731395 103.53197200663271,243.02805347037065 103.61141082335962,245.19932927648915 103.83750591723947,253.99016813648632 103.86194863007404,255.5935416115317 103.82528456079308,256.21785393569735 103.86805930829723,256.2958925785497 103.84361659543356,256.72865072151035 103.9902728725283,258.99881285575975 104.05749033286702,263.55310016732983 104.13692914962303,264.0 104.17359321890399,263.9503446061062 104.17970389712718,263.4679760611907 104.03915829822654,256.9201985401305 103.95971948147053,255.2104380669698 103.88028066471452,252.46480033492844 103.77639913512394,247.7182072847936 103.8069525261526,247.32086926667398 103.67251760550425,242.52425093490456 103.59307878874824,240.9986292314934 103.62363217980601,240.7928451128173 103.56252539766137,238.86270206904737 103.64807489266968,238.03953637472296 103.61141082335962,237.64214251776866 103.64807489266968,237.1595897512525 103.60530014519463,237.06024023249483 103.53197200663271,235.555787142599 103.38531572953798,235.35708333367802 103.06756046251394,235.1654755463096 102.89035079436144,235.1299925642088 101.1488075038942,235.15837895135337 98.27678874420235,235.17257214054553 97.3479656559648,235.14418575925083 97.27463751740288,234.9241909074335 97.2624161609856,234.62613224498637 97.45184718555538,233.7958191674188 97.37240836879937,233.6254972984607 97.04243174535804,233.3984008177722 96.89577546826331,233.17130358800932 96.87133275542874,233.04356106710475 96.93855021573836,232.62484780907835 96.91410750290379,232.41903866405482 97.02409971071756,232.09258151691756 97.21964141351054,232.00741852830834 97.66572092298884,232.12806606441154 97.95292279895511,232.09967842786864 98.36233823918155,232.14935678413167 98.82063910507713,232.12806606441154 98.99784877322963,232.19903510455333 99.23005454530357,232.4119417860129 99.44392828273703,232.51839487985853 99.9083398268267,232.56807293397287 100.04277474750415,232.5538792078878 100.5316290044575,232.33387607925397 100.98381919215899,232.37645738483116 101.29546378098894,232.32677919244452 101.9493063497066,232.34097296536493 102.78646926477086,232.09967842786864 103.54419336305,232.05000003576424 104.0819330457307,232.11387224760983 104.83965714400983,232.29839163784345 105.63404531156993,232.71710688126768 106.06790346466005,232.7809784742276 106.36121601882041,232.74549426322483 106.76452078085276,232.58226665714756 107.11894011712866,232.31258541660645 107.38169928026036,232.02161236705433 107.71778658192488,231.85838304469507 108.02332049253164,231.82289835819392 108.35940779419616,231.9506431440168 108.54883881876594,232.1564536892547 108.6771630612202,232.37645738483116 108.72604848694755,232.59646037739003 108.72604848694755,232.85194684132875 108.62827763552195,233.2422715527864 108.2371942299651,233.88807667049696" stroke="red" stroke-linecap="round" stroke-linejoin="round" stroke-width="0.5"><title>2023-10-29 41.8km</title><desc>10122270628</desc></polyline></svg>