<?xml version="1.0" encoding="utf-8" ?>
<svg baseProfile="full" height="200mm" version="1.1" viewBox="0,0,200,200" width="200mm" xmlns="http://www.w3.org/2000/svg" xmlns:ev="http://www.w3.org/2001/xml-events" xmlns:xlink="http://www.w3.org/1999/xlink"><defs /><rect fill="#1a1a1a" height="200" width="200" x="0" y="0" /><rect fill="#1a1a1a" height="200" width="180" x="10" y="0" /><text alignment-baseline="middle" fill="#e1ed5e" style="dominant-baseline: central; font-size:9.0px; font-family:Arial;" text-anchor="middle" x="100.0" y="100.0">2025</text><line stroke="#e1ed5e" stroke-width="0.3" x1="100.0" x2="100.0" y1="15.0" y2="10.0" /><path d="M 100.0 14.0 a86.0,86.0 0 0,1 42.46469731375804,11.215312516191453" fill="none" id="id37" stroke="none" /><text fill="#e1ed5e" style="font-size:6.75px; font-family:Arial;" text-anchor="middle"><textPath startOffset="22.20632615414155" xlink:href="#id37">January</textPath></text><path d="M 100.0 79.0 l 0.0 -15.545172011913493 a36.54517201191349,36.54517201191349 0 0,0 0.6290650616173086,0.005414561588267995 l -0.26758458234478016 15.542868826933784" fill="#ffc912" stroke="none" /><path d="M 100.36148047927253 79.00311137660856 l 0.25407662641984075 -14.758248183914766 a35.760435101653215,35.760435101653215 0 0,0 0.615374702837142,0.01589331304206609 l -0.5080779644518505 14.75168807873034" fill="#ffbf11" stroke="none" /><path d="M 100.72285384407766 79.0124445844662 l 0.26732429496925764 -7.761573796075753 a28.766176026244228,28.766176026244228 0 0,0 0.49472229471334916,0.02130378268634774 l -0.40088742207193834 7.755822286865211" fill="#ff6309" stroke="none" /><path d="M 101.08401301168833 79.027996857942 l 1.4047764250662302 -27.177695546747255 a48.21397677731256,48.21397677731256 0 0,0 0.8284491713152379,0.04997431641028748 l -1.87238764522108 27.149487960956662" fill="#aaff21" stroke="none" /><path d="M 101.44485096284872 79.0497635885617 l 0.5341981145008196 -7.745834744969864 a28.764233608149524,28.764233608149524 0 0,0 0.49366247561193105,0.03831770921608286 l -0.6674507794750917 7.735491773565316" fill="#ff6309" stroke="none" /><path d="M 101.80526077348638 79.07773832637324 l 1.6356317835660743 -18.956328459617154 a40.02676220486036,40.02676220486036 0 0,0 0.6859345695934829,0.06513775253197845 l -1.9616914802498013 18.925365162569996" fill="#fff417" stroke="none" /><path d="M 102.16513564639614 79.11191278185805 l 1.842116297099797 -17.771766837716772 a38.86698320887469,38.86698320887469 0 0,0 0.6648721191788672,0.07470612946192355 l -2.1477551197883895 17.737424754784247" fill="#ffe615" stroke="none" /><path d="M 102.52436894288641 79.15227682838746 l 2.0588778564624506 -17.00342405045334 a38.12762118530669,38.12762118530669 0 0,0 0.650866220569746,0.08450111541555995 l -2.3512588055400427 16.965464611873642" fill="#ffdd14" stroke="none" /><path d="M 102.88285421437855 79.19881850522331 l 1.7569431095987469 -12.677190652403128 a33.79835973583114,33.79835973583114 0 0,0 0.5755877072459219,0.08482666592333893 l -1.9748997972733244 12.64506950231882" fill="#ffa60f" stroke="none" /><path d="M 103.2404852339499 79.25152402106235 l 2.1572568953933526 -13.81268225064794 a34.980126904648856,34.980126904648856 0 0,0 0.5941137920211428,0.09803386624689356 l -2.3946998935533705 13.773502121461421" fill="#ffb510" stroke="none" /><path d="M 103.59715602781102 79.31037775812273 l 3.9961351512701175 -22.98441492891762 a44.32921828462899,44.32921828462899 0 0,0 0.7506517285575507,0.13717680534879312 l -4.391182000930569 22.912222642218087" fill="#d6ff1c" stroke="none" /><path d="M 103.95276090670814 79.375362276772 l 1.462240499443959 -7.6296495733103855 a28.768506927957873,28.768506927957873 0 0,0 0.4855488192736185,0.09739652534015379 l -1.5933557281847028 7.6033490918930235" fill="#ff6309" stroke="none" /><path d="M 104.307194497241 79.44645832069477 l 3.50500013926217 -16.725542924620964 a38.088850520136404,38.088850520136404 0 0,0 0.6405406995149929,0.13999738729517194 l -3.792383562930691 16.662732039229923" fill="#ffdc14" stroke="none" /><path d="M 104.66035177308747 79.52364482259891 l 3.6206475209253086 -15.908169215631396 a37.314991151206456,37.314991151206456 0 0,0 0.6250728575332127,0.1479345500840596 l -3.893944065421045 15.843488753406467" fill="#ffd313" stroke="none" /><path d="M 105.01212808612495 79.60689891045804 l 4.079384985182217 -16.59800167842451 a38.09195838908792,38.09195838908792 0 0,0 0.6353940207751139,0.16197608353360526 l -4.364487894642356 16.52532259872204" fill="#ffdc14" stroke="none" /><path d="M 105.36241919743992 79.69619591428918 l 4.964036312875574 -18.79540130303457 a40.439875685241944,40.439875685241944 0 0,0 0.6714985719511714,0.1835459257197652 l -5.286832774050456 18.70716883648851" fill="#fff917" stroke="none" /><path d="M 105.71112130821622 79.79150937346287 l 6.250668355522776 -22.117648366258802 a43.98393404411448,43.98393404411448 0 0,0 0.7268026369673956,0.2121736199713488 l -6.630461210213598 22.006776417368748" fill="#daff1b" stroke="none" /><path d="M 106.0581310904928 79.89281104454417 l 7.876463247546851 -26.142308981670638 a48.30309491949756,48.30309491949756 0 0,0 0.794044519502531,0.24671349742010068 l -8.3252931397601 26.002855349368016" fill="#a9ff21" stroke="none" /><path d="M 106.40334571778207 80.00007090966166 l 4.775992711082105 -14.917126103680063 a36.663037941900114,36.663037941900114 0 0,0 0.5993833673443959,0.1976072724755234 l -5.032058900668917 14.832705106945305" fill="#ffcb12" stroke="none" /><path d="M 106.74666289553966 80.11325718540242 l 5.271640339062409 -15.53890527171604 a37.408771096818754,37.408771096818754 0 0,0 0.6080136562486623,0.21212402600406483 l -5.538335999374344 15.445860392539768" fill="#ffd413" stroke="none" /><path d="M 107.08798089147638 80.2323363322302 l 5.506289753854976 -15.356486646625266 a37.31382570034964,37.31382570034964 0 0,0 0.6027385319333366,0.22199368803076483 l -5.76981061156089 15.259429690788176" fill="#ffd313" stroke="none" /><path d="M 107.4271985657038 80.35727306442388 l 5.240913137466204 -13.860653480800934 a35.81839685759917,35.81839685759917 0 0,0 0.5748287020825688,0.22302460590833342 l -5.47872500454844 13.768386171002055" fill="#ffc011" stroke="none" /><path d="M 107.76421540070413 80.48803036053334 l 2.872064040953818 -7.217680535320105 a28.76811844433893,28.76811844433893 0 0,0 0.45853110880533643,0.18704635231218406 l -2.995879019347542 7.167173296824342" fill="#ff6309" stroke="none" /><path d="M 108.09893153111575 80.62456947434976 l 11.757821330703575 -28.12875370668444 a51.487262053783404,51.487262053783404 0 0,0 0.8147644498751713,0.34883961661503765 l -12.240269538369061 27.922194562106608" fill="#86ff25" stroke="none" /><path d="M 108.43124777332544 80.76684994638697 l 8.427452466654904 -19.224492295632686 a41.99054689860577,41.99054689860577 0 0,0 0.6594872963104509,0.2958927262612274 l -8.757121881432136 19.07657923885493" fill="#f2ff19" stroke="none" /><path d="M 108.76106565485865 80.91482961587045 l 3.2414576108351114 -7.061215294216365 a28.769672378814693,28.769672378814693 0 0,0 0.4482887455295378,0.21047757692193447 l -3.3625245676642472 7.004372734654428" fill="#ff6309" stroke="none" /><path d="M 109.08828744355905 81.06846463323043 l 5.3797030558060275 -11.206295938173614 a33.430698838865624,33.430698838865624 0 0,0 0.5166296351015661,0.25350791824646735 l -5.571803957918025 11.112032859792315" fill="#ffa10e" stroke="none" /><path d="M 109.41281617654863 81.2277094730956 l 5.591341316630398 -11.150996860256997 a33.47428670091078,33.47428670091078 0 0,0 0.5128571753078686,0.2627053646734502 l -5.782458979527022 11.053098970271048" fill="#ffa20e" stroke="none" /><path d="M 109.73455568895987 81.39251694778311 l 5.043547802243937 -9.640679374789977 a31.880260715673156,31.880260715673156 0 0,0 0.48405614510291783,0.2585660287880739 l -5.208748993875166 9.55243461950015" fill="#ff8d0d" stroke="none" /><path d="M 110.05341064243156 81.56283822128135 l 4.091193643277247 -7.502926295560547 a29.54586264945828,29.54586264945828 0 0,0 0.44442029897857943,0.24731941521793108 l -4.219738031327862 7.431391482782436" fill="#ff6d0a" stroke="none" /><path d="M 110.36928655335952 81.73862282372117 l 5.930575359894411 -10.444351495358125 a33.0106703500669,33.0106703500669 0 0,0 0.49170693090527773,0.2848283918666515 l -6.109479023265017 10.340718946101424" fill="#ff9b0e" stroke="none" /><line stroke="#e1ed5e" stroke-width="0.3" x1="143.23703022742887" x2="145.7803849466894" y1="26.81831364943548" y2="22.513508569990506" /><path d="M 143.74570117128098 25.957352633546492 a86.0,86.0 0 0,1 28.547481713284135,27.462654790039103" fill="none" id="id38" stroke="none" /><text fill="#e1ed5e" style="font-size:6.75px; font-family:Arial;" text-anchor="middle"><textPath startOffset="19.985693538727396" xlink:href="#id38">February</textPath></text><path d="M 110.68208982089419 81.91981866633111 l 8.357375561110102 -14.145440466423134 a37.42982690896534,37.42982690896534 0 0,0 0.5518902031392142,0.3325076722497461 l -8.599627830466954 13.999486184714772" fill="#ffd413" stroke="none" /><path d="M 110.99172775467656 82.1063720568725 l 4.081001474443792 -6.6435344514408206 a28.796866232140545,28.796866232140545 0 0,0 0.4201337278678938,0.26308770184773284 l -4.194754354683949 6.572302408270144" fill="#ff6309" stroke="none" /><path d="M 111.2981086023043 82.29822771554956 l 7.936550481292612 -12.43491404527955 a35.75181076531273,35.75181076531273 0 0,0 0.5159036928481099,0.3355581126232432 l -8.149421199925003 12.296457008496779" fill="#ffbf11" stroke="none" /><path d="M 111.60114157652 82.49532879139004 l 4.292241393800299 -6.476455256655699 a28.769672378814693,28.769672378814693 0 0,0 0.41044089467403144,0.2771315242525807 l -4.403086982880873 6.401611820104448" fill="#ff6309" stroke="none" /><path d="M 111.90073688211348 82.69761687909136 l 5.457186006582554 -7.934157689837455 a30.629731946302932,30.629731946302932 0 0,0 0.4318338015333405,0.3025271746543299 l -5.592950947699546 7.839045672419189" fill="#ff7c0b" stroke="none" /><path d="M 112.19680574252982 82.90503203632743 l 4.51217657947779 -6.32423896066802 a28.76889541157681,28.76889541157681 0 0,0 0.40064753364017314,0.29108747193004253 l -4.6203694294717526 6.245632253921303" fill="#ff6309" stroke="none" /><path d="M 112.48926042617603 83.11751280151076 l 3.70821728887997 -5.012621145886435 a27.23516208399879,27.23516208399879 0 0,0 0.3744884668937383,0.2820569493042424 l -3.7939519095320913 4.948047607076345" fill="#ff4e07" stroke="none" /><path d="M 112.77801427241765 83.33499621200491 l 2.370924464336877 -3.092144392459548 a24.89649069797557,24.89649069797557 0 0,0 0.3378423495094814,0.2636913125587021 l -2.423799369005789 3.050874690677622" fill="#ff2d04" stroke="none" /><path d="M 113.06298171725822 83.55741782278167 l 20.591468493804292 -25.91880783325805 a54.102766866663785,54.102766866663785 0 0,0 0.7241954235465163,0.5855823347587118 l -21.0345673159153 25.560519401235208" fill="#6bff28" stroke="none" /><path d="M 113.34407831869373 83.78471172551755 l 1.364614660244662 -1.658235179004722 a23.14753744550438,23.14753744550438 0 0,0 0.3054840733799116,0.2558341262040378 l -1.392956270583691 1.6344998954068648" fill="#ff1402" stroke="none" /><path d="M 113.6212207817346 84.01681056812373 l 1.337016275636227 -1.5688597042382095 a23.061294082099536,23.061294082099536 0 0,0 0.29991344881200294,0.2600819874135686 l -1.3638235230949942 1.5456127234049697" fill="#ff1302" stroke="none" /><path d="M 114.16331599549186 84.49514656593476 l 2.6279108850319886 -2.8768244049045286 a24.89641300125178,24.89641300125178 0 0,0 0.3139225659294737,0.2917568125142742 l -2.677041334756309 2.831163006315614" fill="#ff2d04" stroke="none" /><path d="M 114.42810811169701 84.74124197986012 l 5.346182170648357 -5.653970669056388 a28.781326887382917,28.781326887382917 0 0,0 0.3570484726300806,0.3434803477810034 l -5.442713886890856 5.561107234513083" fill="#ff6309" stroke="none" /><path d="M 114.68862486808459 84.99185889309783 l 8.161081821212175 -8.338606823832544 a32.66771701126602,32.66771701126602 0 0,0 0.39849045659768123,0.39677921193720067 l -8.30340807797718 8.196891761245224" fill="#ff970d" stroke="none" /><path d="M 114.94478906791727 85.2469230424477 l 5.53376227238434 -5.462775038059681 a28.775888116717745,28.775888116717745 0 0,0 0.344948542031376,0.3554997943962178 l -5.626975078118825 5.366711048113348" fill="#ff6309" stroke="none" /><path d="M 115.19652480421416 85.50635884689758 l 8.621225255828838 -8.222468410895887 a32.91362714205551,32.91362714205551 0 0,0 0.3874916277140973,0.4133490513729801 l -8.761484205513398 8.072849942644853" fill="#ff9a0e" stroke="none" /><path d="M 115.4437574822437 85.77008943001954 l 12.157569989937622 -11.202010514863174 a37.53153192040402,37.53153192040402 0 0,0 0.43367928085277563,0.4788794936941051 l -12.348592911406435 10.99107823389952" fill="#ffd513" stroke="none" /><path d="M 115.68641384162765 86.03803664274999 l 10.486814878765522 -9.333970565218491 a35.039098718004055,35.039098718004055 0 0,0 0.3971233613230454,0.45398065170657803 l -10.645930103666414 9.152074357308965" fill="#ffb610" stroke="none" /><path d="M 115.9244219780498 86.31012108654704 l 8.851821832713538 -7.609718532976733 a32.67315578193119,32.67315578193119 0 0,0 0.3629666889431703,0.4296380741216338 l -8.981499135143826 7.456221509225992" fill="#ff970d" stroke="none" /><path d="M 116.15771136456269 86.58626213691792 l 5.98467703953174 -4.9683329026132474 a28.77821901843139,28.77821901843139 0 0,0 0.3131364971936639,0.3838683198832311 l -6.069312028801813 4.8645804131219155" fill="#ff6309" stroke="none" /><path d="M 116.38621287248628 86.86637796730983 l 15.178433318657698 -12.16558138277098 a40.45215176760047,40.45215176760047 0 0,0 0.43080755590559566,0.547081846807837 l -15.385594955157258 11.902507142010105" fill="#fff917" stroke="none" /><path d="M 116.60985879189232 87.15038557335679 l 6.1546067053802505 -4.7612881062162975 a28.781326887382917,28.781326887382917 0 0,0 0.29976993631167953,0.3944620975492071 l -6.235652581916043 4.654641232786057" fill="#ff6309" stroke="none" /><path d="M 116.82858285166822 87.43820079747576 l 6.234407319293592 -4.653711698840416 a28.77977295290715,28.77977295290715 0 0,0 0.29291968968597004,0.39954212754189483 l -6.313589621493188 4.545707127627027" fill="#ff6309" stroke="none" /><path d="M 117.04232023915458 87.72973835380427 l 13.482505750681925 -9.707238855136815 a37.61350196400052,37.61350196400052 0 0,0 0.3737839611842273,0.5286909052138573 l -13.647602331670036 9.473721449591165" fill="#ffd614" stroke="none" /><path d="M 117.2510076193507 88.02491185347247 l 11.535151989702152 -8.007327160723547 a35.04197349678422,35.04197349678422 0 0,0 0.3396994513633301,0.49846702816501953 l -11.671275906734216 7.807582109288121" fill="#ffb610" stroke="none" /><path d="M 117.45458315368197 88.32363383020206 l 13.642363304510656 -9.126154887937203 a37.413432900246036,37.413432900246036 0 0,0 0.35347385572472967,0.5383649327160827 l -13.79743379559331 8.889971891243446" fill="#ffd413" stroke="none" /><path d="M 117.65298651832404 88.62581576622439 l 6.537011864139874 -4.21193191327282 a28.776431993784264,28.776431993784264 0 0,0 0.2647053590335282,0.4187003088615694 l -6.6085448194193575 4.098783956697044" fill="#ff6309" stroke="none" /><line stroke="#e1ed5e" stroke-width="0.3" x1="172.23445277983987" x2="176.4835382374775" y1="55.19839476539836" y2="52.563006222186495" /><path d="M 173.08426987136738 54.67131705675599 a86.0,86.0 0 0,1 12.851231095245387,41.99856678651699" fill="none" id="id39" stroke="none" /><text fill="#e1ed5e" style="font-size:6.75px; font-family:Arial;" text-anchor="middle"><textPath startOffset="22.20632615414155" xlink:href="#id39">March</textPath></text><path d="M 117.84615892207809 88.93136811851018 l 13.937785300652557 -8.644561298022941 a37.40092372771615,37.40092372771615 0 0,0 0.33462108085427494,0.5500290742353658 l -14.084522179793055 8.403364450580494" fill="#ffd413" stroke="none" /><path d="M 118.03404312379186 89.2402003453031 l 13.377790616668651 -7.9817013783192765 a36.5779600293521,36.5779600293521 0 0,0 0.3179501300461566,0.5434798372978177 l -13.513200421185134 7.750242128667563" fill="#ffc912" stroke="none" /><path d="M 118.21658344932153 89.55222093294921 l 6.743895590177331 -3.867834568070726 a28.774334182241983,28.774334182241983 0 0,0 0.24272159177533886,0.4317746281653036 l -6.809474823245103 3.751176429970628" fill="#ff6309" stroke="none" /><path d="M 118.3937258080291 89.86733742301442 l 14.473026290820867 -7.972843207693917 a37.52376224802521,37.52376224802521 0 0,0 0.3067869554684695,0.568429635619447 l -14.6081213455078 7.722532588742012" fill="#ffd513" stroke="none" /><path d="M 118.56541770881063 90.18545643968196 l 6.8769515434626625 -3.635476537297616 a28.778762895497906,28.778762895497906 0 0,0 0.22775042469301943,0.4399413290026995 l -6.9385114013157985 3.5165624860345712" fill="#ff6309" stroke="none" /><path d="M 118.73160827565052 90.50648371742162 l 14.630011070111609 -7.414752981405877 a37.40170069495403,37.40170069495403 0 0,0 0.286105176912282,0.5767705782806203 l -14.755476259977298 7.161822814626306" fill="#ffd413" stroke="none" /><path d="M 118.89224826269711 90.83032412892265 l 6.990256509293222 -3.392840574325404 a28.770138559157424,28.770138559157424 0 0,0 0.21240829741117626,0.44738604521739966 l -7.047623000546155 3.272012113467464" fill="#ff6309" stroke="none" /><path d="M 119.04729006885535 91.15688171328212 l 1.823110683600274 -0.846418748629115 a23.01001424439936,23.01001424439936 0 0,0 0.1636972768930308,0.36068525073747154 l -1.8374102774566516 0.8149114890495808" fill="#ff1202" stroke="none" /><path d="M 119.196687751892 91.48605970444005 l 7.1143361137224765 -3.155285625188611 a28.782647731687316,28.782647731687316 0 0,0 0.1969682797318552,0.4546299463649124 l -7.167595103297013 3.032356534237096" fill="#ff6309" stroke="none" /><path d="M 119.34039704204932 91.81776055985345 l 15.100486458151542 -6.388482904185213 a37.396261924288865,37.396261924288865 0 0,0 0.2457082446226335,0.5950020037568478 l -15.208216389660372 6.127606329975062" fill="#ffd413" stroke="none" /><path d="M 119.47837535516314 92.15188598940014 l 17.30190542080022 -6.971183369616224 a39.6535071437821,39.6535071437821 0 0,0 0.2496404482961935,0.6353077113284576 l -17.419339418978115 6.672326653391981" fill="#fff016" stroke="none" /><path d="M 119.61058180528143 92.48833698450437 l 13.07678468301293 -5.008948782872603 a35.003280528337726,35.003280528337726 0 0,0 0.2106787641034426,0.5645143449056973 l -13.161068035617998 4.7831113009375725" fill="#ffb510" stroke="none" /><path d="M 119.7369772167798 92.82701384747503 l 15.415237758702341 -5.6023415220364 a37.40170069495403,37.40170069495403 0 0,0 0.21469808529763398,0.6069803986915082 l -15.509388924809786 5.336163496918277" fill="#ffd413" stroke="none" /><path d="M 119.85752413597 93.16781622104841 l 7.355790501859105 -2.5308347709437644 a28.77899598566927,28.77899598566927 0 0,0 0.15713702677372401,0.46981970927515126 l -7.398264822404599 2.403841958746299" fill="#ff6309" stroke="none" /><path d="M 119.97218684219823 93.5106431181261 l 15.588673061670741 -5.065066915872148 a37.39090085034748,37.39090085034748 0 0,0 0.1936216868781907,0.6138336593011217 l -15.673550232317139 4.795983090144607" fill="#ffd413" stroke="none" /><path d="M 120.08093135843002 93.85539295169968 l 7.4383239884759895 -2.276068634034924 a28.778762895497906,28.778762895497906 0 0,0 0.14087081495608267,0.47494635739852 l -7.476400700543774 2.147692889889874" fill="#ff6309" stroke="none" /><path d="M 120.18372546131832 94.20196356495316 l 15.758114236616622 -4.526722317276601 a37.39540726032719,37.39540726032719 0 0,0 0.17239857823134988,0.6202094120388962 l -15.833699585414335 4.2548016018187536" fill="#ffd413" stroke="none" /><path d="M 120.28053869075195 94.5502522615342 l 14.800094813361321 -3.9770532956787394 a36.32513489014546,36.32513489014546 0 0,0 0.15706930920625037,0.6052521209753364 l -14.866360454437874 3.7217047491545525" fill="#ffc612" stroke="none" /><path d="M 120.37134235888165 94.90015583598534 l 13.97238753093698 -3.49790395505934 a35.40357404929426,35.40357404929426 0 0,0 0.1429077063293998,0.5924447034743715 l -14.0305280375272 3.2568740199255624" fill="#ffba11" stroke="none" /><path d="M 120.45610955862082 95.25157060432595 l 24.425933670277065 -5.669935484279253 a46.075374455043814,46.075374455043814 0 0,0 0.1726852662188039,0.7741141882809235 l -24.519913323497907 5.248643126448365" fill="#c2ff1e" stroke="none" /><path d="M 120.53481517161879 95.60439243477599 l 7.624000762815096 -1.631965768877281 a28.796710838692967,28.796710838692967 0 0,0 0.09958273411610111,0.4856007776382911 l -7.650962792846194 1.5004893350755781" fill="#ff6309" stroke="none" /><path d="M 120.6074358757038 95.95851677861258 l 30.822977283182126 -6.044931852489972 a52.410143738939006,52.410143738939006 0 0,0 0.16600108431313088,0.8867844301801541 l -30.922464091405114 5.513469344847255" fill="#7cff26" stroke="none" /><path d="M 120.67395015179393 96.31383870115 l 41.29945638978386 -7.363685057272634 a62.95079207493417,62.95079207493417 0 0,0 0.18102291186822722,1.0684074729657744 l -41.420091163172316 6.651691795991021" fill="#33ff52" stroke="none" /><path d="M 120.78858239683441 97.02765380044208 l 9.240509428395141 -1.3212056770956997 a30.33448439590797,30.33448439590797 0 0,0 0.06945730363204249,0.5175375886656893 l -9.26188273108502 1.161949746365346" fill="#ff780b" stroke="none" /><path d="M 120.83666639777658 97.38593545837742 l 7.715948534260919 -0.968004530251943 a28.776431993784264,28.776431993784264 0 0,0 0.05742905269884422,0.49201705219225156 l -7.731467939963352 0.8350437397348387" fill="#ff6309" stroke="none" /><path d="M 120.87857604477298 97.74499172005257 l 11.592528437762143 -1.2520608472829358 a32.65994733888721,32.65994733888721 0 0,0 0.05555748542914751,0.5594562963667763 l -11.612363048873519 1.0523290202117244" fill="#ff970d" stroke="none" /><path d="M 120.91429891909075 98.10471618934814 l 7.930639627367545 -0.718685955097619 a28.96313722104718,28.96313722104718 0 0,0 0.040721503650391545,0.49690548832118847 l -7.941835614837431 0.5820665495686617" fill="#ff6509" stroke="none" /><path d="M 120.94382443527127 98.46500227214037 l 12.744596580859717 -0.9340665958391824 a33.77878016143653,33.77878016143653 0 0,0 0.03750958047411781,0.5802566078013154 l -12.758786752338251 0.7145509237848318" fill="#ffa50f" stroke="none" /><path d="M 120.96714384426684 98.82574320788733 l 7.7807886621239515 -0.43576006357158514 a28.792981395951138,28.792981395951138 0 0,0 0.023454477137370845,0.4950869423470739 l -7.787136747494819 0.3017620146015115" fill="#ff6309" stroke="none" /><path d="M 120.98425023603335 99.18683210126433 l 16.386992811767062 -0.6350179949941358 a37.3992920965166,37.3992920965166 0 0,0 0.01939118664235483,0.6434990809354162 l -16.39549569286506 0.3528487666337206" fill="#ffd413" stroke="none" /><line stroke="#e1ed5e" stroke-width="0.3" x1="184.98032266829074" x2="189.97916517819016" y1="98.17113171792111" y2="98.06355123074" /><path d="M 185.9800911702706 98.14961562048488 a86.0,86.0 0 0,1 -9.607161424134198,41.387399972396054" fill="none" id="id40" stroke="none" /><text fill="#e1ed5e" style="font-size:6.75px; font-family:Arial;" text-anchor="middle"><textPath startOffset="21.466115282336823" xlink:href="#id40">April</textPath></text><path d="M 120.99513854157772 99.54816195383933 l 18.66231660038865 -0.4016331996501193 a39.6666378901023,39.6666378901023 0 0,0 0.008815424604631526,0.6827643505674766 l -18.666465032110995 0.08033259102217993" fill="#fff016" stroke="none" /><path d="M 120.99980553446 99.90962569577887 l 14.009055750592317 -0.060289066209553266 a35.00918547934562,35.00918547934562 0 0,0 -0.0025935183210718917,0.6026423203139348 l -14.008017934981742 -0.1808627323080663" fill="#ffb510" stroke="none" /><path d="M 120.99824983174949 100.27111621757518 l 16.410511177698993 0.21188221659530385 a37.41187896577028,37.41187896577028 0 0,0 -0.013856535687230921,0.6438587651741411 l -16.404432579326752 -0.49433079755955983" fill="#ffd413" stroke="none" /><path d="M 120.9904718944345 100.63252640178507 l 7.777563364682274 0.23436891721439781 a28.781093797211554,28.781093797211554 0 0,0 -0.0191844727319251,0.49506599692270803 l -7.772376759099147 -0.368212161151112" fill="#ff6309" stroke="none" /><path d="M 120.9764740272857 100.99374915477107 l 19.424383879672988 0.9202197203049889 a40.44616911986878,40.44616911986878 0 0,0 -0.038931650977746445,0.6951507810114971 l -19.405665877807714 -1.2544422176519094" fill="#fff917" stroke="none" /><path d="M 120.95626037817324 101.35467743843564 l 7.782952660845277 0.503114114054485 a28.79919713385419,28.79919713385419 0 0,0 -0.036236852189550986,0.49442305781331686 l -7.773139249991388 -0.6370103083645722" fill="#ff6309" stroke="none" /><path d="M 120.92983693683757 101.71520430193887 l 16.346901001533492 1.3396317900523294 a37.40170069495403,37.40170069495403 0 0,0 -0.05810693262366034,0.6412051595294911 l -16.32141947263276 -1.6208183381303911" fill="#ffd413" stroke="none" /><path d="M 120.89721153311464 102.0752229133903 l 13.928398879937118 1.3831765284416964 a34.99690939698709,34.99690939698709 0 0,0 -0.06469045130320233,0.598953236187708 l -13.902526127132864 -1.6227260865141957" fill="#ffb510" stroke="none" /><path d="M 120.8583938346157 102.4346265915055 l 13.915722676457534 1.624266409808343 a35.01019553675487,35.01019553675487 0 0,0 -0.07501933143460492,0.5979778837124125 l -13.88570183577608 -1.8635620478081503" fill="#ffb510" stroke="none" /><path d="M 120.81339534386255 102.79330883721812 l 16.25595623218016 2.1816674046010274 a37.40170069495403,37.40170069495403 0 0,0 -0.09112826236430305,0.6373508547296558 l -16.215993918799256 -2.461163731311092" fill="#ffd413" stroke="none" /><path d="M 120.76222939487914 103.15116336523771 l 7.686079533930987 1.1665458361422556 a28.77410109207062,28.77410109207062 0 0,0 -0.07853719021087727,0.48905115841273517 l -7.66486058935882 -1.2986762242481957" fill="#ff6309" stroke="none" /><path d="M 120.70491114924044 103.5080841355445 l 19.16295582527836 3.246826843942541 a40.43606854577632,40.43606854577632 0 0,0 -0.1221815431926636,0.6852589804527663 l -19.104227839746507 -3.576204575128526" fill="#fff917" stroke="none" /><path d="M 120.64145759157962 103.86396538481128 l 7.649771100182243 1.4319943541628488 a28.782647731687316,28.782647731687316 0 0,0 -0.09535289199196836,0.48620234197404893 l -7.623988275214611 -1.5634604232048426" fill="#ff6309" stroke="none" /><path d="M 120.5718875245553 104.21870165774334 l 16.19291664483945 3.320700845352332 a37.52990028920448,37.52990028920448 0 0,0 -0.13522552295040277,0.631728624329662 l -16.133357083164604 -3.5989432890981634" fill="#ffd513" stroke="none" /><path d="M 120.49622156327973 104.57218783832717 l 4.556642618358698 1.01647154325205 a25.668640738982173,25.668640738982173 0 0,0 -0.09991143653982662,0.43041585368833896 l -4.538470615888318 -1.0947560542889538" fill="#ff3805" stroke="none" /><path d="M 120.41448212921028 104.9243191809786 l 7.567239616306396 1.8253464846076035 a28.784279362886863,28.784279362886863 0 0,0 -0.12033019305864956,0.48065930645583255 l -7.534698108952686 -1.955333630460832" fill="#ff6309" stroke="none" /><path d="M 120.32669344350535 105.2749913415812 l 7.527327960684659 1.953420999249658 a28.776665083955628,28.776665083955628 0 0,0 -0.12855210990449,0.47839022351331106 l -7.492587774438391 -2.0827021559385175" fill="#ff6309" stroke="none" /><path d="M 120.23288151984713 105.62410040840565 l 4.498097853836088 1.2503287755623302 a25.668640738982173,25.668640738982173 0 0,0 -0.12199615937504073,0.4246846351770428 l -4.475909057574947 -1.327570886243955" fill="#ff3805" stroke="none" /><path d="M 120.13307415673323 105.97154293290107 l 0.753086149848267 0.22336808780332795 a21.785513877498165,21.785513877498165 0 0,0 -0.10972971978263889,0.35860307316876017 l -0.7491296575594955 -0.23629813352414525" fill="#ff0000" stroke="none" /><path d="M 120.02730092923936 106.31721596034902 l 15.836200832207268 4.995216330047513 a37.60534380800276,37.60534380800276 0 0,0 -0.20003849078819538,0.6156551699002168 l -15.747870090402825 -5.267070399925525" fill="#ffd614" stroke="none" /><path d="M 119.9155931802556 106.66101706037122 l 1.481797059320609 0.4956053983834092 a22.562481115379633,22.562481115379633 0 0,0 -0.12635974551613552,0.3672605681556632 l -1.4730464828612426 -0.5210386696283728" fill="#ff0b01" stroke="none" /><path d="M 119.79798401119884 107.00284435728193 l 19.552403014603144 6.915978669578922 a41.73950878404628,41.73950878404628 0 0,0 -0.24541984249471163,0.6752900029172221 l -19.430458911103205 -7.251516469502276" fill="#f5ff19" stroke="none" /><path d="M 119.67450827220406 107.3425965602758 l 13.112642601101406 4.893684920959248 a34.996054733025424,34.996054733025424 0 0,0 -0.2154852413637581,0.5625639681755618 l -13.026463080144142 -5.118672455967953" fill="#ffb510" stroke="none" /><path d="M 119.54520255179757 107.68017299344265 l 15.260321038302282 5.996453871431218 a37.39618422756507,37.39618422756507 0 0,0 -0.2405774631377607,0.5970935338937703 l -15.154840960907128 -6.2582467731678015" fill="#ffd413" stroke="none" /><path d="M 119.41010516605496 108.01547362559984 l 18.8228312603901 7.77295672723228 a41.36462209176847,41.36462209176847 0 0,0 -0.2774364969036443,0.6557779252639004 l -18.68624378229415 -8.095809178162344" fill="#f9ff18" stroke="none" /><path d="M 119.26925614724726 108.34839909993367 l 32.17834715847917 13.941258676639537 a56.06857167522769,56.06857167522769 0 0,0 -0.39130233549467847,0.8822834657408554 l -31.933603738253222 -14.49309047887308" fill="#57ff2a" stroke="none" /><path d="M 119.12269723197855 108.67885076344098 l 7.0805474691885015 3.213511883971228 a28.77565502654638,28.77565502654638 0 0,0 -0.2085897672428979,0.44928380162436227 l -7.024183085105772 -3.3349157528744207" fill="#ff6309" stroke="none" /><path d="M 118.97047184881838 109.00673069616215 l 14.831381113679477 7.041588454289137 a37.41809470367333,37.41809470367333 0 0,0 -0.28125354250747825,0.579465602112943 l -14.707974314557283 -7.295843012367356" fill="#ffd413" stroke="none" /><path d="M 118.81262510543309 109.33194174019688 l 19.325697753820325 9.586449765334498 a42.57272844995036,42.57272844995036 0 0,0 -0.33129961495803983,0.6536855707148275 l -19.157819469076014 -9.91768954775202" fill="#ebff1a" stroke="none" /><path d="M 118.64920377521936 109.65438752849418 l 12.449998636937725 6.44516050223744 a35.01936375016187,35.01936375016187 0 0,0 -0.28173493662618815,0.5329363255137455 l -12.337211192086643 -6.658511842837319" fill="#ffb610" stroke="none" /><line stroke="#e1ed5e" stroke-width="0.3" x1="174.80103733775053" x2="179.2010983576182" y1="140.37084112569926" y2="142.7455964860345" /><path d="M 175.68104954172406 140.8457921977663 a86.0,86.0 0 0,1 -30.038265399797805,32.042727171017184" fill="none" id="id41" stroke="none" /><text fill="#e1ed5e" style="font-size:6.75px; font-family:Arial;" text-anchor="middle"><textPath startOffset="22.206326154141568" xlink:href="#id41">May</textPath></text><path d="M 118.48025628344425 109.97397251340804 l 14.435406129109325 7.790927882347775 a37.40364311304873,37.40364311304873 0 0,0 -0.3106703681605846,0.5639569585199109 l -14.299159351497229 -8.038255359265492" fill="#ffd413" stroke="none" /><path d="M 118.30583269289576 110.29060199501025 l 6.7823545284237365 3.8126925014533946 a28.780549920145035,28.780549920145035 0 0,0 -0.24648211679880366,0.4297623466781684 l -6.715720415472553 -3.928874693989878" fill="#ff6309" stroke="none" /><path d="M 118.12598468904814 110.60418214915192 l 14.167125402122792 8.288144388909142 a37.413432900246036,37.413432900246036 0 0,0 -0.3299849180431765,0.5530737033373868 l -14.02235960838139 -8.530780186132633" fill="#ffd413" stroke="none" /><path d="M 117.94076556474637 110.91462005526583 l 7.464276261879744 4.541040296855862 a29.73707428670091,29.73707428670091 0 0,0 -0.26980781735414827,0.43501611025418624 l -7.385003804857632 -4.668852738475322" fill="#ff700a" stroke="none" /><path d="M 117.75023020441432 111.22182372390056 l 13.860895128095326 8.762958000639061 a37.398592826002506,37.398592826002506 0 0,0 -0.348688694851106,0.54117259776927 l -13.708001569867168 -9.000252198329784" fill="#ffd413" stroke="none" /><path d="M 117.55443506779139 111.5257021239791 l 18.5429105425433 12.17470471704761 a43.18249233823974,43.18249233823974 0 0,0 -0.41331175526721514,0.6178449952491245 l -18.330595681865365 -12.492086626502543" fill="#e4ff1a" stroke="none" /><path d="M 117.35343817320211 111.8261652097733 l 11.565891209246994 7.882019624793496 a34.99628782319679,34.99628782319679 0 0,0 -0.34352871545555075,0.494878736196014 l -11.428501586629308 -8.079939623176529" fill="#ffb510" stroke="none" /><path d="M 117.14729908036423 112.12312394758627 l 13.390075032599064 9.466770161696545 a37.398592826002506,37.398592826002506 0 0,0 -0.3761589781699305,0.5224519208840737 l -13.225136262053532 -9.695855688031749" fill="#ffd413" stroke="none" /><path d="M 116.93607887273984 112.41649034213515 l 6.2723510479607985 4.598501624531424 a28.777442051193507,28.777442051193507 0 0,0 -0.2963236960431179,0.3969740153760857 l -6.192266085222588 -4.705788519416824" fill="#ff6309" stroke="none" /><path d="M 116.71984013943494 112.70617746262583 l 50.159520418304794 38.11853238787748 a84.0,84.0 0 0,0 -0.8847727311277263,1.1436880235469893 l -49.495940869959 -38.97629840553772" fill="#4dd2ff" stroke="none" /><path d="M 116.498646956653 112.99209946851258 l 21.52721976111309 16.951922248638066 a48.4005266111279,48.4005266111279 0 0,0 -0.5210710530423048,0.6501162570073521 l -21.232230796015934 -17.31996633922367" fill="#a8ff21" stroke="none" /><path d="M 116.27256486870786 113.27417163493432 l 12.708272206723311 10.366637823635605 a37.40022445720206,37.40022445720206 0 0,0 -0.41123149676415643,0.49535482924709506 l -12.527944710065611 -10.58385390999647" fill="#ffd413" stroke="none" /><path d="M 116.0416608686014 113.55231037782055 l 11.499380744623897 9.714902857029637 a36.05374023395347,36.05374023395347 0 0,0 -0.40458733067240565,0.4706264694765741 l -11.330450904380712 -9.91140642566774" fill="#ffc312" stroke="none" /><path d="M 115.80600337817218 113.82643327865902 l 10.535126350576439 9.215689639143449 a34.99706479043467,34.99706479043467 0 0,0 -0.40053499098403356,0.45000530841284814 l -10.374932509944069 -9.395669117297164" fill="#ffb510" stroke="none" /><path d="M 115.56566222782051 114.09645910891815 l 12.15275191922507 11.005684691268646 a37.39556265377476,37.39556265377476 0 0,0 -0.4361989236696742,0.4734077813097184 l -11.961506587559674 -11.2132437273797" fill="#ffd413" stroke="none" /><path d="M 115.32070863581623 114.36230785411682 l 5.676925811506502 5.321800584290957 a28.781326887382917,28.781326887382917 0 0,0 -0.3419405952867856,0.3585233470977101 l -5.584478664840752 -5.418731047971174" fill="#ff6309" stroke="none" /><path d="M 115.07121518719521 114.62390073753431 l 13.938613398404817 13.524914628670535 a40.42185004532309,40.42185004532309 0 0,0 -0.4888337034099582,0.49518596071654597 l -13.703739069939324 -13.762841083367745" fill="#fff917" stroke="none" /><path d="M 114.81725581225074 114.88116024355365 l 5.489280285926409 5.512954665270281 a28.77977295290715,28.77977295290715 0 0,0 -0.35405979585701863,0.3465220299549676 l -5.393570537693596 -5.60662679814782" fill="#ff6309" stroke="none" /><path d="M 114.55890576462653 115.13401014063108 l 13.643261025653123 14.18219569874438 a40.67925929123322,40.67925929123322 0 0,0 -0.5088087475872267,0.48111042908447565 l -13.397116443675088 -14.414940764574776" fill="#fffc17" stroke="none" /><path d="M 114.29624159901734 115.38237550388516 l 10.589351484401844 11.393860389634794 a36.554884102387014,36.554884102387014 0 0,0 -0.4645959541006508,0.4243973886071942 l -10.39165598083433 -11.57445054482857" fill="#ffc912" stroke="none" /><path d="M 114.0293411484842 115.62618273729858 l 9.356279548018632 10.421225944340582 a35.00506755298485,35.00506755298485 0 0,0 -0.45182815463133447,0.39868581330341474 l -9.17550904048071 -10.580734899416285" fill="#ffb510" stroke="none" /><path d="M 113.75828350139079 115.86535959552629 l 10.743642339238841 12.389027240245113 a37.398592826002506,37.398592826002506 0 0,0 -0.4899830482795838,0.4175741836990792 l -10.52879381438221 -12.572125814167139" fill="#ffd413" stroke="none" /><path d="M 113.48314897796784 116.09983520530334 l 9.031878184211655 10.784702490330137 a35.06714723529158,35.06714723529158 0 0,0 -0.46610896667101565,0.38357594703335607 l -8.844899088995948 -10.938573556220671" fill="#ffb610" stroke="none" /><path d="M 113.20401910651253 116.32954008644616 l 21.49333146330196 26.5810140753397 a55.183528294556915,55.183528294556915 0 0,0 -0.743775438533066,0.5909001913802094 l -21.03259853205154 -26.947048180725034" fill="#60ff29" stroke="none" /><path d="M 112.92097659922987 116.55440617244103 l 35.46855045488258 45.442446712026445 a78.64576337031122,78.64576337031122 0 0,0 -1.0743433398400473,0.8237606606391646 l -34.68107838654904 -46.04624671449298" fill="#46fffa" stroke="none" /><path d="M 112.63410532772338 116.77436683061366 l 11.227680857946421 14.907049805495818 a39.66228687357017,39.66228687357017 0 0,0 -0.548878889191904,0.40604748038318267 l -10.969416998335953 -15.09810723461877" fill="#fff016" stroke="none" /><path d="M 112.34349029814194 116.9893568818739 l 11.1707715681656 15.375248024136546 a40.0048517287521,40.0048517287521 0 0,0 -0.5605873627251928,0.3999641987867956 l -10.904456877591523 -15.565256484767561" fill="#fff417" stroke="none" /><path d="M 112.04921762599082 117.19931262002967 l 8.023994772744809 11.453622869275168 a34.98463331462857,34.98463331462857 0 0,0 -0.49618724651214463,0.3412821126279256 l -7.825650641609782 -11.590045771268189" fill="#ffb510" stroke="none" /><path d="M 111.7513745106137 117.40417183066458 l 9.563476388290946 14.16382281153481 a38.0901713644408,38.0901713644408 0 0,0 -0.5465491600684055,0.3622229808785535 l -9.318252529482576 -14.326343813504682" fill="#ffdc14" stroke="none" /><path d="M 111.45004920935366 117.60387380957326 l 4.235492307227078 6.511856039617196 a28.76811844433893,28.76811844433893 0 0,0 -0.4174366290885439,0.266427807014837 l -4.122773876091604 -6.583798275455841" fill="#ff6309" stroke="none" /><path d="M 111.1453310114006 117.79835938074945 l 12.381517143781402 19.77246719532277 a44.32921828462899,44.32921828462899 0 0,0 -0.6502057753527025,0.39940949313972124 l -12.03933216849639 -19.982665155290867" fill="#d6ff1c" stroke="none" /><line stroke="#e1ed5e" stroke-width="0.3" x1="143.8653032363475" x2="146.44561519142675" y1="172.8068346515853" y2="177.08958963109032" /><path d="M 144.38136562736335 173.6633856474863 a86.0,86.0 0 0,1 -40.68145358897372,12.25698825130547" fill="none" id="id42" stroke="none" /><text fill="#e1ed5e" style="font-size:6.75px; font-family:Arial;" text-anchor="middle"><textPath startOffset="21.466115282336833" xlink:href="#id42">June</textPath></text><path d="M 110.8373102113329 117.98757091392108 l 4.010437632361984 6.656451638021024 a28.771226313290455,28.771226313290455 0 0,0 -0.4264061913623629,0.25192829387369003 l -3.895263569971238 -6.724498504188464" fill="#ff6309" stroke="none" /><path d="M 110.5260780823613 118.17145234162733 l 8.218920453976505 14.188543934452442 a37.397116588250526,37.397116588250526 0 0,0 -0.5598014149099159,0.31786985330532874 l -7.9734702721453905 -14.3279169535524" fill="#ffd413" stroke="none" /><path d="M 110.21172684928248 118.3499491758327 l 8.47218998211658 15.224090682641163 a38.42271334225407,38.42271334225407 0 0,0 -0.5806901295686453,0.3166385585062695 l -8.208877040679285 -15.367669892907204" fill="#ffe115" stroke="none" /><path d="M 109.89434966115114 118.52300852407294 l 6.590384034424768 12.337722420086948 a34.98758579013251,34.98758579013251 0 0,0 -0.5336591441530548,0.2791852419320988 l -6.377033987745217 -12.449337080963764" fill="#ffb510" stroke="none" /><path d="M 109.57404056367764 118.69057910512821 l 13.398367035653843 26.156484014648495 a50.388397289247635,50.388397289247635 0 0,0 -0.7753720801023313,0.3887876574236507 l -12.946141047868752 -26.383239512981447" fill="#92ff23" stroke="none" /><path d="M 109.2508944713604 118.85261126421891 l 3.4216598251277324 6.973079496391903 a28.76734147710105,28.76734147710105 0 0,0 -0.44642438869993833,0.21431083574139467 l -3.301122768427561 -7.030944608632858" fill="#ff6309" stroke="none" /><path d="M 108.92500713936063 119.00905698771935 l 8.589127171108263 18.293678124952415 a41.2096948245349,41.2096948245349 0 0,0 -0.6447001730722597,0.29595022891080197 l -8.272959002268584 -18.43881542419729" fill="#fbff18" stroke="none" /><path d="M 108.59647513512805 119.15986991738527 l 5.089216754269332 11.342873615108253 a33.43225277334139,33.43225277334139 0 0,0 -0.5270822710890146,0.23105737812531493 l -4.893213808522563 -11.428795546528022" fill="#ffa10e" stroke="none" /><path d="M 108.2653958097858 119.30500536409082 l 7.338444582408346 17.139979171928815 a39.64488280744162,39.64488280744162 0 0,0 -0.6296523762457238,0.26319474433703227 l -7.042320746665162 -17.26375895928582" fill="#fff016" stroke="none" /><path d="M 107.93186726928326 119.44442032107085 l 7.112400598075907 17.435554835415232 a39.830422583847714,39.830422583847714 0 0,0 -0.6370571180124056,0.2534981746176679 l -6.811222404021635 -17.555399854438967" fill="#fff216" stroke="none" /><path d="M 107.59598834532513 119.57807347666477 l 5.064223307318439 13.052644567831406 a35.00063883972892,35.00063883972892 0 0,0 -0.5635599182917568,0.21309013919262682 l -4.838793168266408 -13.137882957130664" fill="#ffb510" stroke="none" /><path d="M 107.2578585660854 119.70592522655815 l 5.665058267311656 15.381288241326267 a37.391367030690205,37.391367030690205 0 0,0 -0.605883371517053,0.2172482207281846 l -5.399455335164868 -15.476524003094411" fill="#ffd413" stroke="none" /><path d="M 106.91757812671514 119.82793768551818 l 2.5614946903954685 7.3420431504493395 a28.776043510165323,28.776043510165323 0 0,0 -0.46909098380213676,0.1591411305790596 l -2.434733973656105 -7.385047267926522" fill="#ff6309" stroke="none" /><path d="M 106.57524785965236 119.94407469862006 l 6.693681709512971 20.303308844447372 a42.37825355030863,42.37825355030863 0 0,0 -0.6947584823664446,0.22243972630398587 l -6.3432018820555855 -20.415521417411064" fill="#edff19" stroke="none" /><path d="M 106.2309692047433 120.05430185196036 l 5.421979468074335 17.45057780178415 a39.27349246773428,39.27349246773428 0 0,0 -0.6473113611531114,0.19502960313936837 l -5.120793132480978 -17.541322774029243" fill="#ffeb16" stroke="none" /><path d="M 105.88484417918355 120.15858648285463 l 5.227045398676424 17.905290864242527 a39.65265247982043,39.65265247982043 0 0,0 -0.6568534237956735,0.18563333869616724 l -4.918060806776145 -17.992612996277213" fill="#fff016" stroke="none" /><path d="M 105.53697534728816 120.25689768951611 l 4.54951865692859 16.64430996881428 a38.25488841887167,38.25488841887167 0 0,0 -0.6366880529321626,0.16815510154704744 l -4.262340161184929 -16.720156419664914" fill="#ffde14" stroke="none" /><path d="M 105.18746579009965 120.34920634021253 l 3.4598694097471463 13.572252690996825 a35.006310700565464,35.006310700565464 0 0,0 -0.5851833516520041,0.14382383039585223 l -3.225732773351931 -13.629797779706706" fill="#ffb510" stroke="none" /><path d="M 104.83641907484287 120.43548508189849 l 3.7767425936195638 15.957998208124836 a37.39882591617387,37.39882591617387 0 0,0 -0.6277301224673963,0.14286933215976272 l -3.5014923217593052 -16.020644273862285" fill="#ffd413" stroke="none" /><path d="M 104.48393922423573 120.51570834832081 l 1.6596511540154122 7.59352821994098 a28.77278024776622,28.77278024776622 0 0,0 -0.4847645395274202,0.10158712253530351 l -1.528695153058614 -7.620971323202824" fill="#ff6309" stroke="none" /><path d="M 104.13013068566511 120.58985236759428 l 5.350280227313198 26.672637838794525 a48.20395389994388,48.20395389994388 0 0,0 -0.8149507019129844,0.15618724162064132 l -4.89036191082851 -26.76078227876363" fill="#aaff21" stroke="none" /><path d="M 103.7750983002368 120.6578951692458 l 2.2378227943650444 12.245696672439468 a33.448491388613114,33.448491388613114 0 0,0 -0.56727212432204,0.0986275301481337 l -2.0267016985709545 -12.282402781108608" fill="#ffa10e" stroke="none" /><path d="M 103.41894727170886 120.7198165907248 l 3.0378451976270537 18.41022698615243 a39.659179004618636,39.659179004618636 0 0,0 -0.674516019960945,0.10534553019532156 l -2.7204933140575918 -18.459790823694856" fill="#fff016" stroke="none" /><path d="M 103.06178313531738 120.77559828337769 l 2.342995045456381 15.898292495918483 a37.07001338110243,37.07001338110243 0 0,0 -0.6320815198140187,0.08760073910629737 l -2.0689849344555316 -15.936267800517383" fill="#ffd013" stroke="none" /><path d="M 102.70371172650421 120.8252237178851 l 1.802516720540595 13.883807801145041 a35.00032805283377,35.00032805283377 0 0,0 -0.5981265677317867,0.07242479761786473 l -1.563262729757428 -13.912778127488256" fill="#ffb510" stroke="none" /><path d="M 102.34483914955558 120.86867818915974 l 1.8324473549289864 16.308476492230895 a37.411101998532395,37.411101998532395 0 0,0 -0.6405625144635829,0.06639692372625434 l -1.5514522438598009 -16.33760278441291" fill="#ffd413" stroke="none" /><path d="M 101.98527174616119 120.90594882070398 l 0.735254093411448 7.742609784678211 a28.777442051193507,28.777442051193507 0 0,0 -0.49354091788575455,0.04258478710706059 l -0.6018688577841517 -7.754118824063935" fill="#ff6309" stroke="none" /><path d="M 101.62511606390274 120.93702456842531 l 1.804049290293853 23.242293367542132 a44.31220270211939,44.31220270211939 0 0,0 -0.7609824022046077,0.052481801872935774 l -1.403704127310315 -23.269903513931354" fill="#d7ff1c" stroke="none" /><path d="M 101.26447882468166 120.96189622390904 l 0.4690070315818808 7.774963512558679 a28.78909655976173,28.78909655976173 0 0,0 -0.4949146360795444,0.025581433568894408 l -0.33510432708885685 -7.781884752889775" fill="#ff6309" stroke="none" /><path d="M 100.90346689309514 120.98055641714683 l 0.7054405704621678 16.381934745634492 a37.397116588250526,37.397116588250526 0 0,0 -0.643372244256437,0.022159040951927295 l -0.42334797453107853 -16.391650585012513" fill="#ffd413" stroke="none" /><line stroke="#e1ed5e" stroke-width="0.3" x1="102.19456741930631" x2="102.32365962044197" y1="184.97166512339345" y2="189.96999836594603" /><path d="M 102.22038585953345 185.97133177190398 a86.0,86.0 0 0,1 -42.740103519485714,-10.115201625700543" fill="none" id="id43" stroke="none" /><text fill="#e1ed5e" style="font-size:6.75px; font-family:Arial;" text-anchor="middle"><textPath startOffset="22.20632615414155" xlink:href="#id43">July</textPath></text><path d="M 100.54218724476979 120.99299961872073 l 0.42124768392581874 16.3103292328399 a37.31576811844434,37.31576811844434 0 0,0 -0.6422582286011341,0.011057057855363308 l -0.14042976543201668 -16.315163767974425" fill="#ffd313" stroke="none" /><path d="M 100.18074693466247 120.99922214144158 l 0.12044594368364911 13.993438572951833 a34.99395692148315,34.99395692148315 0 0,0 -0.6023857566921995,0.0 l 0.12044594368363948 -13.993438572951833" fill="#ffb510" stroke="none" /><path d="M 99.81925306533755 120.99922214144158 l -0.16050319773199884 18.647299938338623 a39.64799067639315,39.64799067639315 0 0,0 -0.682399145009912,-0.011748120134262968 l 0.48146203263457865 -18.641774340925203" fill="#fff016" stroke="none" /><path d="M 99.45781275523022 120.99299961872073 l -0.20060483391326667 7.767237688601316 a28.76982777226227,28.76982777226227 0 0,0 -0.4949501552354286,-0.017047084105563076 l 0.3342753408233383 -7.76263380606966" fill="#ff6309" stroke="none" /><path d="M 99.09653310690486 120.98055641714683 l -0.86964336207898 20.195097086943264 a41.21381275089567,41.21381275089567 0 0,0 -0.7085084832974108,-0.03662179571419718 l 1.2171399137898795 -20.177135484466866" fill="#fbff18" stroke="none" /><path d="M 98.73552117531835 120.96189622390904 l -0.4679777892183042 7.757901248491218 a28.772003280528338,28.772003280528338 0 0,0 -0.49410742047377654,-0.03407654062712447 l 0.6014479704710107 -7.7486963633478085" fill="#ff6309" stroke="none" /><path d="M 98.37488393609728 120.93702456842531 l -1.2691195533259838 16.350578188516202 a37.39975827685933,37.39975827685933 0 0,0 -0.6414159742144617,-0.055344069192888125 l 1.5503798452819872 -16.32630986704465" fill="#ffd413" stroke="none" /><path d="M 98.01472825383883 120.90594882070398 l -1.8653344933478133 19.642946879604256 a40.73131609617128,40.73131609617128 0 0,0 -0.697412074549386,-0.07228961307296865 l 2.2031791645027927 -19.607927898075527" fill="#fffd17" stroke="none" /><path d="M 97.65516085044442 120.86867818915974 l -1.5639394218021387 13.918800574067154 a35.00638839728925,35.00638839728925 0 0,0 -0.5982301339904351,-0.07243733804949029 l 1.8032969788439632 -13.889817707292314" fill="#ffb510" stroke="none" /><path d="M 97.2962882734958 120.8252237178851 l -2.402215249867127 18.50296002587558 a39.65824664393318,39.65824664393318 0 0,0 -0.6762135355644421,-0.09371703435745846 l 2.7203573766184 -18.458868426025518" fill="#fff016" stroke="none" /><path d="M 96.93821686468263 120.77559828337769 l -1.1333217585586353 7.690106235817651 a28.77316873138516,28.77316873138516 0 0,0 -0.4893687600567428,-0.0764293359439997 l 1.2655263822238951 -7.669458592526546" fill="#ff6309" stroke="none" /><path d="M 96.58105272829116 120.7198165907248 l -3.7971483773898633 23.011825481579475 a44.323002546725945,44.323002546725945 0 0,0 -0.7516991878315903,-0.13069253913858733 l 4.192696536693504 -22.943054363919885" fill="#d6ff1c" stroke="none" /><path d="M 96.22490169976321 120.6578951692458 l -1.3987247960360367 7.654028560084046 a28.780783010316398,28.780783010316398 0 0,0 -0.48657666888795537,-0.09325357665460653 l 1.5302690794956872 -7.6288177850809715" fill="#ff6309" stroke="none" /><path d="M 95.86986931433489 120.58985236759428 l -3.6681654487377013 18.286826930576144 a39.65109854534467,39.65109854534467 0 0,0 -0.6680427251927507,-0.1399948483218976 l 3.982399635359839 -18.220976101527704" fill="#fff016" stroke="none" /><path d="M 95.51606077576429 120.51570834832081 l -3.552920936088041 16.25594952657937 a37.63968575991713,37.63968575991713 0 0,0 -0.6317728958835802,-0.143789454227142 l 3.832213981364484 -16.192383338774544" fill="#ffd714" stroke="none" /><path d="M 95.16358092515715 120.4354850818985 l -3.2245159816207405 13.624656428453742 a35.00102732334786,35.00102732334786 0 0,0 -0.5850950320225907,-0.1438021235797481 l 3.4585642983865417 -13.567133046559963" fill="#ffb510" stroke="none" /><path d="M 94.81253420990036 120.34920634021253 l -4.052716245296671 15.897851176439136 a37.40628480165753,37.40628480165753 0 0,0 -0.6225644779568877,-0.16442493702890226 l 4.325771166065048 -15.825734890106652" fill="#ffd413" stroke="none" /><path d="M 94.46302465271185 120.25689768951611 l -2.051052809490678 7.503729800421854 a28.77899598566927,28.77899598566927 0 0,0 -0.47672931984079875,-0.13472846770747599 l 2.1799132974360904 -7.467312539375857" fill="#ff6309" stroke="none" /><path d="M 94.11515582081647 120.15858648285463 l -6.5349498311273315 22.38552922061796 a44.31989467777442,44.31989467777442 0 0,0 -0.7304868894357278,-0.22008970751165824 l 6.919311695003305 -22.269724144000577" fill="#d6ff1c" stroke="none" /><path d="M 93.76903079525671 120.05430185196036 l -2.3085889023043613 7.4301665082302195 a28.780549920145035,28.780549920145035 0 0,0 -0.47183471495478935,-0.15106657567932363 l 2.436144962350091 -7.389327085891189" fill="#ff6309" stroke="none" /><path d="M 93.42475214034765 119.94407469862007 l -5.839279400518574 17.711731486912086 a39.64946691414512,39.64946691414512 0 0,0 -0.6463434570293299,-0.21927479326145283 l 6.14329259048513 -17.60859370675251" fill="#fff016" stroke="none" /><path d="M 93.08242187328487 119.8279376855182 l -6.406270528014488 18.36237054345508 a40.44780075106833,40.44780075106833 0 0,0 -0.6554093052921335,-0.2350064585316042 l 6.721399393936348 -18.249376543883518" fill="#fff917" stroke="none" /><path d="M 92.7421414339146 119.70592522655815 l -4.84032378609694 13.142038761524528 a35.00506755298485,35.00506755298485 0 0,0 -0.5636312268553404,-0.21311710198974418 l 5.065825233712564 -13.056773409428152" fill="#ffb510" stroke="none" /><path d="M 92.40401165467489 119.57807347666478 l -5.933310532093206 15.292649787789783 a37.40333232615358,37.40333232615358 0 0,0 -0.5982376673408214,-0.23805111405328594 l 6.195669275475885 -15.188251829330431" fill="#ffd413" stroke="none" /><path d="M 92.06813273071674 119.44442032107085 l -2.9337867443601944 7.191973926573337 a28.76734147710105,28.76734147710105 0 0,0 -0.4568918769997919,-0.1909808416409421 l 3.0571500808574483 -7.140408041912422" fill="#ff6309" stroke="none" /><path d="M 91.7346041902142 119.30500536409082 l -9.789179877796117 22.86401938878249 a45.871498251823716,45.871498251823716 0 0,0 -0.7231954616024907,-0.31702763761100905 l 10.181296014056352 -22.69212719787703" fill="#c5ff1e" stroke="none" /><path d="M 91.40352486487194 119.15986991738527 l -3.18533252884241 7.0994862355671025 a28.781326887382917,28.781326887382917 0 0,0 -0.45026604794214137,-0.20669505845518543 l 3.307066572551971 -7.043604106777842" fill="#ff6309" stroke="none" /><path d="M 91.07499286063937 119.00905698771935 l -6.972742660609825 14.850997934969632 a37.406440195105105,37.406440195105105 0 0,0 -0.5804897616567289,-0.27867036189995564 l 7.2273450902667955 -14.728773296570115" fill="#ffd413" stroke="none" /><path d="M 90.7491055286396 118.85261126421891 l -6.848111411539027 13.95592423365102 a36.54556049553244,36.54556049553244 0 0,0 -0.5623597650321233,-0.2819788605843256 l 7.08732508425391 -13.835977532157392" fill="#ffc912" stroke="none" /><path d="M 90.42595943632237 118.69057910512821 l -6.382205666385264 12.459433306072198 a34.998929511805585,34.998929511805585 0 0,0 -0.5338321678316783,-0.27927575974315055 l 6.595728736743438 -12.34772812738433" fill="#ffb510" stroke="none" /><path d="M 90.10565033884886 118.52300852407294 l -8.176332928615583 15.306744729980009 a38.35364095480641,38.35364095480641 0 0,0 -0.5796462248017241,-0.3160693383942262 l 8.438601965285947 -15.163734739826017" fill="#ffe015" stroke="none" /><line stroke="#e1ed5e" stroke-width="0.3" x1="58.666819895761336" x2="56.23545636021788" y1="174.27360380694188" y2="178.64263932499728" /><path d="M 58.180547188652646 175.14741091055294 a86.0,86.0 0 0,1 -31.652253787137756,-30.449443065178592" fill="none" id="id44" stroke="none" /><text fill="#e1ed5e" style="font-size:6.75px; font-family:Arial;" text-anchor="middle"><textPath startOffset="22.20632615414155" xlink:href="#id44">August</textPath></text><path d="M 89.7882731507175 118.34994917583269 l -3.781542200856522 6.795237300815515 a28.77658738723184,28.77658738723184 0 0,0 -0.43075979661790303,-0.24459665465976063 l 3.8979507643956324 -6.729137480361121" fill="#ff6309" stroke="none" /><path d="M 89.4739219176387 118.17145234162733 l -11.684077136657576 20.170537324861098 a44.31026028402469,44.31026028402469 0 0,0 -0.656703649689692,-0.3879920915743823 l 12.029548657375651 -19.966426660992965" fill="#d7ff1c" stroke="none" /><path d="M 89.1626897886671 117.98757091392108 l -4.014046304496681 6.662441246573534 a28.77821901843139,28.77821901843139 0 0,0 -0.422109049837166,-0.2592938544012443 l 4.128134554266156 -6.592358925343912" fill="#ff6309" stroke="none" /><path d="M 88.8546689885994 117.79835938074946 l -9.02655732622976 14.414817388450523 a38.00781283722536,38.00781283722536 0 0,0 -0.5515082017093866,-0.3519986280383677 l 9.27334732998607 -14.257304331588351" fill="#ffdb14" stroke="none" /><path d="M 88.54995079064634 117.60387380957326 l -10.676126453502878 16.414006562432963 a40.58058445202227,40.58058445202227 0 0,0 -0.5822836588244777,-0.38590585811141537 l 10.957084811067316 -16.22780268323023" fill="#fffb17" stroke="none" /><path d="M 88.24862548938628 117.40417183066458 l -7.837128900231848 11.607045449492617 a35.00514524970864,35.00514524970864 0 0,0 -0.4964781674000693,-0.34148221066739487 l 8.035763952254808 -11.47042244946012" fill="#ffb510" stroke="none" /><path d="M 87.95078237400918 117.19931262002967 l -11.039401219927754 15.75787894393361 a40.240039711658824,40.240039711658824 0 0,0 -0.5638830482579403,-0.4023155829085361 l 11.309011596034582 -15.565519099180854" fill="#fff717" stroke="none" /><path d="M 87.65650970185807 116.9893568818739 l -4.590646713376394 6.318483139561684 a28.81007467518453,28.81007467518453 0 0,0 -0.39869717637962493,-0.29494663958233674 l 4.698728860174583 -6.23852655123958" fill="#ff6309" stroke="none" /><path d="M 87.36589467227662 116.77436683061367 l -16.363748627947835 21.726233483808596 a48.1992920965166,48.1992920965166 0 0,0 -0.6584282004495977,-0.5048546672859424 l 16.735305556890918 -21.441339474695287" fill="#aaff21" stroke="none" /><path d="M 87.07902340077011 116.55440617244103 l -4.789164769015716 6.135896787999466 a28.78365778909656,28.78365778909656 0 0,0 -0.3879523175900683,-0.3082127841738037 l 4.894074579323142 -6.0525500898205316" fill="#ff6309" stroke="none" /><path d="M 86.79598089348748 116.32954008644616 l -11.725163104245837 14.500624346754106 a39.64799067639315,39.64799067639315 0 0,0 -0.5269970733791903,-0.433682713612976 l 11.973030306169715 -14.29664651428395" fill="#fff016" stroke="none" /><path d="M 86.51685102203217 116.09983520530335 l -9.985590085354742 11.92350207393116 a36.55255320067337,36.55255320067337 0 0,0 -0.4788985383218597,-0.40812772383980456 l 10.189354100253658 -11.749849959868405" fill="#ffc912" stroke="none" /><path d="M 86.24171649860922 115.8653595955263 l -9.167720804594513 10.571753898048158 a34.993179954245264,34.993179954245264 0 0,0 -0.4516747153673372,-0.39855042099301446 l 9.348337872868438 -10.412380335282855" fill="#ffb510" stroke="none" /><path d="M 85.97065885151581 115.62618273729859 l -9.344341082106576 10.40792862353484 a34.98719730651357,34.98719730651357 0 0,0 -0.4446713678095487,-0.40619675143765116 l 9.522111999382979 -10.245539105510613" fill="#ffb510" stroke="none" /><path d="M 85.70375840098266 115.38237550388516 l -5.297849374014429 5.7003449381909155 a28.782103854620797,28.782103854620797 0 0,0 -0.3600012996881344,-0.34040369900329714 l 5.39518650809338 -5.608306602441687" fill="#ff6309" stroke="none" /><path d="M 85.44109423537348 115.13401014063109 l -14.546426882094817 15.12103831858404 a41.982000258989075,41.982000258989075 0 0,0 -0.5164786555366307,-0.5054830687900019 l 14.804555490007242 -14.868405146871467" fill="#f2ff19" stroke="none" /><path d="M 85.18274418774928 114.88116024355367 l -5.486539209183207 5.510201766705784 a28.775888116717745,28.775888116717745 0 0,0 -0.34799555045683556,-0.35251765534164137 l 5.580575384695576 -5.414943617383478" fill="#ff6309" stroke="none" /><path d="M 84.9287848128048 114.62390073753433 l -5.578902550347646 5.413320432845892 a28.7735572150041,28.7735572150041 0 0,0 -0.34184828660315486,-0.3584265618119681 l 5.671257388329758 -5.316486754451424" fill="#ff6309" stroke="none" /><path d="M 84.67929136418377 114.36230785411682 l -7.937492974390965 7.440955924296181 a31.879872232054215,31.879872232054215 0 0,0 -0.3718613912323284,-0.40358209666595646 l 8.064400773619022 -7.30322257282888" fill="#ff8d0c" stroke="none" /><path d="M 84.43433777217949 114.09645910891817 l -5.7620468913956335 5.218181995691461 a28.773712608451678,28.773712608451678 0 0,0 -0.3293098661049233,-0.3699831255588062 l 5.851015607148895 -5.1182247003917904" fill="#ff6309" stroke="none" /><path d="M 84.19399662182784 113.82643327865904 l -7.6040629710746765 6.6517175025711035 a31.102827297448957,31.102827297448957 0 0,0 -0.34902924886525233,-0.40599986871688803 l 7.717434729510708 -6.519840534692685" fill="#ff820c" stroke="none" /><path d="M 83.95833913139862 113.55231037782056 l -5.942879968821625 5.02066179651292 a28.77977295290715,28.77977295290715 0 0,0 -0.3164459379515272,-0.3811795176034749 l 6.028421906666689 -4.917621021795684" fill="#ff6309" stroke="none" /><path d="M 83.72743513129214 113.27417163493432 l -12.70670685198873 10.365360902167847 a37.398204342383565,37.398204342383565 0 0,0 -0.4026221011011925,-0.5023329771018605 l 12.883246865144784 -10.145100091487727" fill="#ffd413" stroke="none" /><path d="M 83.50135304334701 112.99209946851258 l -6.107904523611905 4.809758237959299 a28.774334182241983,28.774334182241983 0 0,0 -0.30308031239052535,-0.3917721594020108 l 6.1897916532204995 -4.703908084444036" fill="#ff6309" stroke="none" /><path d="M 83.28015986056508 112.70617746262583 l -6.187317221218411 4.7020276494712405 a28.771226313290455,28.771226313290455 0 0,0 -0.2962596920769031,-0.39688827160395906 l 6.267338179990399 -4.594826498357974" fill="#ff6309" stroke="none" /><path d="M 83.06392112726016 112.41649034213515 l -6.89438530223759 5.054538843579612 a29.548737428238443,29.548737428238443 0 0,0 -0.29720430736338965,-0.4127907887044438 l 6.980369401976587 -4.935114449424031" fill="#ff6d0a" stroke="none" /><path d="M 82.85270091963577 112.12312394758628 l -8.24959668487936 5.832456916956337 a31.10313808434411,31.10313808434411 0 0,0 -0.3053129842436943,-0.43982612512142316 l 8.34877057628519 -5.689589529647901" fill="#ff820c" stroke="none" /><path d="M 82.44556493220864 111.52570212397912 l -5.196543173259947 3.4118904116307154 a27.216514870289636,27.216514870289636 0 0,0 -0.25375529749662035,-0.3938338568808441 l 5.254503334133613 -3.321934954828423" fill="#ff4d07" stroke="none" /><path d="M 82.24976979558568 111.22182372390057 l -3.6461038696133485 2.305093197814263 a25.31364440799413,25.31364440799413 0 0,0 -0.22967354088544736,-0.3703068775548077 l 3.6852420501667518 -2.241989988894191" fill="#ff3304" stroke="none" /><path d="M 82.05923443525364 110.91462005526583 l -28.484805579856598 17.329295627337746 a54.34199507920749,54.34199507920749 0 0,0 -0.47929413054199066,-0.8033245317352584 l 28.778880586096818 -16.836409001716376" fill="#68ff28" stroke="none" /><line stroke="#e1ed5e" stroke-width="0.3" x1="26.63291911575756" x2="22.317208475507996" y1="142.92168965132927" y2="145.44649492493687" /><path d="M 25.769776987707644 143.4266507060508 a86.0,86.0 0 0,1 -11.730757126820373,-40.83630448921669" fill="none" id="id45" stroke="none" /><text fill="#e1ed5e" style="font-size:6.75px; font-family:Arial;" text-anchor="middle"><textPath startOffset="21.46611528233685" xlink:href="#id45">September</textPath></text><path d="M 81.87401531095188 110.60418214915194 l -0.7375623440120551 0.4314935478779786 a21.85450856822204,21.85450856822204 0 0,0 -0.18716617814597633,-0.32634000788161993 l 0.7448805183104087 -0.41873369413805167" fill="#ff0100" stroke="none" /><path d="M 81.35079622478065 109.6543875284942 l -6.900190447016517 3.5721156462685233 a28.769983165709846,28.769983165709846 0 0,0 -0.22388709138890553,-0.4417504714841807 l 6.96065620819169 -3.4528109630816575" fill="#ff6309" stroke="none" /><path d="M 81.18737489456691 109.33194174019688 l -5.568441442019836 2.762207338391052 a27.21589329649933,27.21589329649933 0 0,0 -0.2045685773892248,-0.4214718606329502 l 5.615163276023779 -2.6659465217928173" fill="#ff4d07" stroke="none" /><path d="M 81.02952815118164 109.00673069616217 l -10.528869816208687 4.998858000226752 a32.655285535459925,32.655285535459925 0 0,0 -0.2367125406114406,-0.5098577535408233 l 10.613356973659954 -4.816880179407101" fill="#ff970d" stroke="none" /><path d="M 80.87730276802145 108.67885076344099 l -0.7096324941391188 0.32206725017967586 a21.779298139595113,21.779298139595113 0 0,0 -0.15199763384062445,-0.34271453810717806 l 0.7150712127110231 -0.3098043755798019" fill="#ff0000" stroke="none" /><path d="M 80.73074385275274 108.34839909993369 l -7.129466741129393 3.0888391990759105 a28.76982777226227,28.76982777226227 0 0,0 -0.19296200061854613,-0.4561051694087302 l 7.181579722940246 -2.965659504001022" fill="#ff6309" stroke="none" /><path d="M 80.58989483394504 108.01547362559985 l -7.1906283324189575 2.9693961602429364 a28.779617559459574,28.779617559459574 0 0,0 -0.18514529023596027,-0.4595154267109092 l 7.240676236912305 -2.845181365689222" fill="#ff6309" stroke="none" /><path d="M 80.45479744820244 107.68017299344265 l -6.9160577922464865 2.717624447039306 a28.430836966374585,28.430836966374585 0 0,0 -0.17506046931888372,-0.45702764452651123 l 6.96181254115888 -2.5981732356796368" fill="#ff5e08" stroke="none" /><path d="M 80.32549172779594 107.34259656027581 l -7.281954445152198 2.717651334473216 a28.772547157594857,28.772547157594857 0 0,0 -0.1691767391926693,-0.465501727739916 l 7.327655445350092 -2.5919018097271826" fill="#ff6309" stroke="none" /><path d="M 80.20201598880116 107.00284435728193 l -7.333735149879052 2.59405229255061 a28.77899598566927,28.77899598566927 0 0,0 -0.16117494305536795,-0.4684498288373954 l 7.377300923877648 -2.4674297606239177" fill="#ff6309" stroke="none" /><path d="M 80.0844068197444 106.66101706037122 l -15.548921703522385 5.200529645294238 a37.39556265377476,37.39556265377476 0 0,0 -0.19892257743019012,-0.6122207417293684 l 15.636136531968825 -4.932110003587066" fill="#ffd413" stroke="none" /><path d="M 79.97269907076064 106.31721596034903 l -7.418384252841398 2.3399825851536487 a28.77868519877412,28.77868519877412 0 0,0 -0.14495306745259018,-0.4737150113634201 l 7.457564092800118 -2.211940601238181" fill="#ff6309" stroke="none" /><path d="M 79.86692584326677 105.97154293290107 l -15.716483358702876 4.661566057925245 a37.393231752061126,37.393231752061126 0 0,0 -0.17771999330857274,-0.6186666113798961 l 15.794395988897552 -4.390341971040753" fill="#ffd413" stroke="none" /><path d="M 79.76711848015287 105.62410040840567 l -15.799860659769102 4.391860976509665 a37.398903612897655,37.398903612897655 0 0,0 -0.16706967098259398,-0.621728397169365 l 15.873118407093472 -4.1192416461647605" fill="#ffd413" stroke="none" /><path d="M 79.67330655649465 105.27499134158121 l -7.529584128521806 1.9540064986000187 a28.77899598566927,28.77899598566927 0 0,0 -0.12030810635665198,-0.48057108106040136 l 7.562103549173517 -1.8241075781422253" fill="#ff6309" stroke="none" /><path d="M 79.58551787078972 104.9243191809786 l -15.936461009331977 3.8441445699414785 a37.393542538956275,37.393542538956275 0 0,0 -0.1455489049993332,-0.6270208733683751 l 16.000270480261864 -3.569255039224529" fill="#ffd413" stroke="none" /><path d="M 79.50377843672027 104.57218783832718 l -3.802333536265534 0.8482042945380299 a24.895791427461475,24.895791427461475 0 0,0 -0.08970304714641428,-0.4190627725859604 l 3.816370622136389 -0.7826277025359057" fill="#ff2d04" stroke="none" /><path d="M 79.4281124754447 104.21870165774334 l -19.031999243437593 3.902914920306801 a40.428065783226145,40.428065783226145 0 0,0 -0.13393253553348614,-0.6829191132282469 l 19.096361711946745 -3.574732080010599" fill="#fff917" stroke="none" /><path d="M 79.35854240842038 103.8639653848113 l -7.6373991321864985 1.429678390967646 a28.770060862433635,28.770060862433635 0 0,0 -0.08693155789711823,-0.48755834291449324 l 7.660877132422806 -1.298001297319939" fill="#ff6309" stroke="none" /><path d="M 79.23777060512086 103.15116336523772 l -7.680164624188411 1.1656481075537282 a28.76811844433893,28.76811844433893 0 0,0 -0.07009276574626108,-0.4902286403767067 l 7.69909144095127 -1.033273995196621" fill="#ff6309" stroke="none" /><path d="M 79.18660465613746 102.79330883721812 l -7.7035578072602835 1.0338734139975951 a28.772624854318643,28.772624854318643 0 0,0 -0.061653556830998345,-0.4914395094187111 l 7.72021287333813 -0.9011161502914753" fill="#ff6309" stroke="none" /><path d="M 79.1416061653843 102.43462659150553 l -7.721910675005631 0.9013143205398452 a28.774334182241983,28.774334182241983 0 0,0 -0.05318825851401172,-0.49245721621020044 l 7.736281235020694 -0.7682607824448626" fill="#ff6309" stroke="none" /><path d="M 79.10278846688536 102.07522291339032 l -7.739373891920561 0.7685679024858159 a28.777442051193507,28.777442051193507 0 0,0 -0.044708365001583684,-0.4933530823045137 l 7.75145685319922 -0.6352334316327359" fill="#ff6309" stroke="none" /><path d="M 79.07016306316243 101.71520430193888 l -19.36392907803194 1.5868778412995201 a40.42884275046402,40.42884275046402 0 0,0 -0.05086995974693797,-0.6940801843757367 l 19.388375596443215 -1.2533245204270227" fill="#fff917" stroke="none" /><path d="M 79.04373962182676 101.35467743843564 l -7.75426475006113 0.501259638838305 a28.770449346052576,28.770449346052576 0 0,0 -0.027693131804245322,-0.49447947155852323 l 7.761744232752907 -0.36770845094434423" fill="#ff6309" stroke="none" /><path d="M 79.0095281055655 100.63252640178507 l -7.774689890244763 0.23428232800117377 a28.77821901843139,28.77821901843139 0 0,0 -0.010658818264880267,-0.4952734017468241 l 7.77757077119465 -0.1004191104642208" fill="#ff6309" stroke="none" /><line stroke="#e1ed5e" stroke-width="0.3" x1="15.007084014347285" x2="10.007500721073583" y1="101.09737516637583" y2="101.16192664675087" /><path d="M 14.007167355692545 101.11028546245083 a86.0,86.0 0 0,1 10.666146001902534,-42.60595125391555" fill="none" id="id46" stroke="none" /><text fill="#e1ed5e" style="font-size:6.75px; font-family:Arial;" text-anchor="middle"><textPath startOffset="22.20632615414155" xlink:href="#id46">October</textPath></text><path d="M 79.00175016825051 100.2711162175752 l -7.770578648835169 0.10032883257048611 a28.771226313290455,28.771226313290455 0 0,0 -0.002131403559995628,-0.4952631244148339 l 7.771154349684668 0.03344377004802316" fill="#ff6309" stroke="none" /><path d="M 79.00019446554 99.90962569577889 l -7.520351647817223 -0.03236442102067845 a28.52042128890232,28.52042128890232 0 0,0 0.006338314435955285,-0.4909094381323052 l 7.518680326263552 0.16181011721345562" fill="#ff5f08" stroke="none" /><path d="M 79.00486145842228 99.54816195383935 l -7.769815683470862 -0.16721482120708214 a28.771614796909397,28.771614796909397 0 0,0 0.014917815853011102,-0.49504968251962483 l 7.765786173162205 0.30093465115170137" fill="#ff6309" stroke="none" /><path d="M 79.01574976396665 99.18683210126434 l -16.3871480886713 -0.6350240121828505 a37.399447489964174,37.399447489964174 0 0,0 0.03046521907685795,-0.6430726241458116 l 16.373789261360944 0.9170077429516712" fill="#ffd413" stroke="none" /><path d="M 79.03285615573316 98.82574320788736 l -7.760619120228119 -0.43463047616849954 a28.77278024776622,28.77278024776622 0 0,0 0.031950677644657255,-0.4942628414581736 l 7.751987851579049 0.568152381879685" fill="#ff6309" stroke="none" /><path d="M 79.05617556472873 98.46500227214037 l -7.753537629238299 -0.5682659669220439 a28.774334182241983,28.774334182241983 0 0,0 0.0404560509276659,-0.49366629273687085 l 7.742607094491136 0.7016461768666931" fill="#ff6309" stroke="none" /><path d="M 79.08570108090925 98.10471618934814 l -7.738738112333186 -0.7012955641458922 a28.770449346052576,28.770449346052576 0 0,0 0.048941102193087734,-0.49283022011446825 l 7.72551988445787 0.8344013149647909" fill="#ff6309" stroke="none" /><path d="M 79.16333360222342 97.38593545837743 l -7.722732666775777 -0.9688556337784908 a28.783269305477617,28.783269305477617 0 0,0 0.06590546420967655,-0.49107225940790095 l 7.704911203508267 1.1016462352510512" fill="#ff6309" stroke="none" /><path d="M 79.21141760316559 97.0276538004421 l -7.118745710302014 -1.0178364427993591 a28.19114257348815,28.19114257348815 0 0,0 0.07281920675352929,-0.4797875894497975 l 7.100170610109182 1.1402231446412487" fill="#ff5b08" stroke="none" /><path d="M 79.26566170972629 96.67025291283419 l -9.107387629508741 -1.4625640329825227 a30.224077351405015,30.224077351405015 0 0,0 0.08691313183429224,-0.5129662239563074 l 9.080862636154226 1.6191160452546582" fill="#ff760a" stroke="none" /><path d="M 79.32604984820605 96.31383870115002 l -32.84589144379803 -5.856416068404327 a54.363905555315746,54.363905555315746 0 0,0 0.1721893249259276,-0.9198422589789483 l 32.74021639496224 6.420936404845848" fill="#68ff28" stroke="none" /><path d="M 79.81627453868168 94.20196356495316 l -3.734578533457796 -1.0728060311774483 a24.885613156645228,24.885613156645228 0 0,0 0.12181401329821184,-0.4106962958517585 l 3.715558623047877 1.1369317137757462" fill="#ff2d04" stroke="none" /><path d="M 79.91906864156998 93.8553929516997 l -3.7157072156742754 -1.1369771819506627 a24.885768550092806,24.885768550092806 0 0,0 0.12886623152553758,-0.4085411698092983 l 3.695585500380534 1.2007685181863754" fill="#ff2d04" stroke="none" /><path d="M 80.14247586403 93.16781622104843 l -4.276600173019544 -1.4714079223118788 a25.522648594984243,25.522648594984243 0 0,0 0.14650841227139016,-0.4141990105261976 l 4.250638679938344 1.5448045592646875" fill="#ff3605" stroke="none" /><path d="M 80.2630227832202 92.82701384747504 l -4.2596205995320915 -1.548068847618543 a25.532205292010186,25.532205292010186 0 0,0 0.15367398068307378,-0.41176986633432655 l 4.23234203034739 1.6211618509822108" fill="#ff3605" stroke="none" /><path d="M 80.38941819471856 92.48833698450439 l -6.020704616303684 -2.306178605131041 a27.447274139940433,27.447274139940433 0 0,0 0.17279555616502784,-0.43974584272770184 l 5.980115510256965 2.409473452754506" fill="#ff5007" stroke="none" /><path d="M 80.52162464483688 92.15188598940014 l -5.98451159420642 -2.411244697399217 a27.45201364009151,27.45201364009151 0 0,0 0.1803705968398506,-0.4367817071151016 l 5.94211931048037 2.5139009749676298" fill="#ff5107" stroke="none" /><path d="M 80.65960295795068 91.81776055985345 l -7.158435877471916 -3.028481589031762 a28.77270255104243,28.77270255104243 0 0,0 0.19690022188180936,-0.4544728594636243 l 7.105244945747426 3.1512535930819854" fill="#ff6309" stroke="none" /><path d="M 80.95270993114464 91.15688171328213 l -7.049314328586604 -3.2727973492605447 a28.772003280528338,28.772003280528338 0 0,0 0.21242206454305543,-0.4474150423081913 l 6.991934070201797 3.393654807209268" fill="#ff6309" stroke="none" /><path d="M 81.10775173730289 90.83032412892265 l -7.550911344613514 -3.6649639893871413 a29.393343980662152,29.393343980662152 0 0,0 0.22484506649092623,-0.4532739338137716 l 7.486706265169175 3.7943975116998745" fill="#ff6b09" stroke="none" /><path d="M 81.26839172434947 90.50648371742162 l -7.430084874048035 -3.765700771375151 a29.329865757327234,29.329865757327234 0 0,0 0.23211176264514163,-0.4483660457402174 l 7.364163678242779 3.893039539375704" fill="#ff6a09" stroke="none" /><path d="M 81.43458229118936 90.18545643968196 l -4.035487511395981 -2.1333464503154795 a25.564682522553632,25.564682522553632 0 0,0 0.20901185405588313,-0.38726722216629916 l 3.9981675581216263 2.202494655814251" fill="#ff3605" stroke="none" /><path d="M 81.6062741919709 89.86733742301443 l -7.305451762199834 -4.024398235103798 a29.340587905209993,29.340587905209993 0 0,0 0.24749814035217518,-0.44027157510188974 l 7.2350959805552275 4.149553320140473" fill="#ff6a09" stroke="none" /><line stroke="#e1ed5e" stroke-width="0.3" x1="26.266209847984243" x2="21.928928074336255" y1="57.711370442889674" y2="55.22380399835377" /><path d="M 25.398753493254645 57.213857153982495 a86.0,86.0 0 0,1 29.58750427330803,-30.492523968695096" fill="none" id="id47" stroke="none" /><text fill="#e1ed5e" style="font-size:6.75px; font-family:Arial;" text-anchor="middle"><textPath startOffset="21.46611528233685" xlink:href="#id47">November</textPath></text><path d="M 81.78341655067845 89.55222093294921 l -8.329108705118077 -4.777003756967618 a30.6017611257392,30.6017611257392 0 0,0 0.266002639889228,-0.4546847375932845 l 8.245646390758525 4.919667906914794" fill="#ff7b0b" stroke="none" /><path d="M 82.15384107792192 88.93136811851018 l -6.609073043450003 -4.099111574386192 a28.77705356757457,28.77705356757457 0 0,0 0.264711076695575,-0.4187093528298303 l 6.537534370508466 4.212268574930237" fill="#ff6309" stroke="none" /><path d="M 82.34701348167596 88.62581576622439 l -9.149739646980676 -5.895366448493699 a31.884534035481504,31.884534035481504 0 0,0 0.30123803965164,-0.4588062011434177 l 9.046904971971117 6.051990713614783" fill="#ff8d0d" stroke="none" /><path d="M 82.54541684631803 88.32363383020206 l -9.703352891452067 -6.491126166565702 a32.67432123278802,32.67432123278802 0 0,0 0.3167472573274306,-0.46478751556932674 l 9.590181168455896 6.657191705405445" fill="#ff970d" stroke="none" /><path d="M 82.7489923806493 88.02491185347247 l -6.402198279353804 -4.444197719836972 a28.793525273017657,28.793525273017657 0 0,0 0.28613549313508935,-0.4047183629819897 l 6.3247501664148364 4.553742583150748" fill="#ff6309" stroke="none" /><path d="M 82.95767976084542 87.72973835380427 l -9.512378347029701 -6.84879579527555 a32.72140544740363,32.72140544740363 0 0,0 0.33303751024810563,-0.45426278970333817 l 9.393078224267962 7.011521028650389" fill="#ff980e" stroke="none" /><path d="M 83.17141714833178 87.43820079747576 l -20.6207396070597 -15.392477942713072 a46.73214486122502,46.73214486122502 0 0,0 0.4867354498134374,-0.6404867974663719 l 20.352728217022158 15.745149516060469" fill="#bbff1f" stroke="none" /><path d="M 83.39014120810768 87.1503855733568 l -18.58377810205091 -14.376665460769049 a44.49564466698321,44.49564466698321 0 0,0 0.4738699695767347,-0.6017667391136068 l 18.333554051880203 14.694424593835702" fill="#d4ff1c" stroke="none" /><path d="M 83.6137871275137 86.86637796730984 l -6.069130149508177 -4.864434636064281 a28.777985928260026,28.777985928260026 0 0,0 0.31313396093389395,-0.383865210728642 l 5.984497696497891 4.968184016401006" fill="#ff6309" stroke="none" /><path d="M 83.84228863543731 86.58626213691792 l -8.978510084579678 -7.453740072355248 a32.669270945741786,32.669270945741786 0 0,0 0.3629235322264295,-0.42958699018134017 l 8.848875938866126 7.607186012165704" fill="#ff970d" stroke="none" /><path d="M 84.80347519578584 85.50635884689758 l -5.638782280021352 -5.37797213244692 a28.792204428713255,28.792204428713255 0 0,0 0.34514413245106984,-0.355701367516596 l 5.545373883867164 5.474237695513639" fill="#ff6309" stroke="none" /><path d="M 85.05521093208273 85.24692304244772 l -4.5854806679539735 -4.526658012652769 a27.443389303751026,27.443389303751026 0 0,0 0.33476256484249034,-0.33332498800186394 l 4.50688230294417 4.604918851304742" fill="#ff5007" stroke="none" /><path d="M 85.31137513191541 84.99185889309783 l -5.449996200029581 -5.568547957123415 a28.791738248370528,28.791738248370528 0 0,0 0.3571776313916903,-0.3436045984073359 l 5.353335325025463 5.661535642293064" fill="#ff6309" stroke="none" /><path d="M 85.57189188830299 84.74124197986013 l -5.6982881875989 -6.02634800837836 a29.293814477489533,29.293814477489533 0 0,0 0.36937005367692066,-0.3432892094900129 l 5.593710250127123 6.12354180394302" fill="#ff6a09" stroke="none" /><path d="M 85.83668400450813 84.49514656593479 l -8.1846776831671 -8.95992350399884 a33.13545128847067,33.13545128847067 0 0,0 0.42443201512607254,-0.3810592538591879 l 8.029234680445056 9.099481766627306" fill="#ff9d0e" stroke="none" /><path d="M 86.10567301691215 84.25364557470407 l -5.487166334532974 -6.218571507585624 a29.293348297146803,29.293348297146803 0 0,0 0.38096167039765566,-0.3303662065102072 l 5.379310865488545 6.312102707515512" fill="#ff6a09" stroke="none" /><path d="M 86.37877921826538 84.01681056812374 l -7.833111184400267 -9.191400822832453 a33.07640177839168,33.07640177839168 0 0,0 0.4365178789235015,-0.36557117001628353 l 7.6737357685176555 9.32487315024255" fill="#ff9c0e" stroke="none" /><path d="M 86.65592168130627 83.78471172551755 l -5.279241882053612 -6.4151623621915705 a29.30811067466655,29.30811067466655 0 0,0 0.3923052526259168,-0.31721689795522123 l 5.168033230863195 6.505085357410926" fill="#ff6a09" stroke="none" /><path d="M 86.93701828274178 83.55741782278169 l -10.207216030664192 -12.847984634555726 a37.40908188371391,37.40908188371391 0 0,0 0.5076366894397034,-0.39621848810743054 l 9.984546786065062 13.021781511886378" fill="#ffd413" stroke="none" /><path d="M 87.22198572758235 83.33499621200491 l -5.063802978566762 -6.6041791799868825 a29.32209608494842,29.32209608494842 0 0,0 0.40318419163785296,-0.30366997425674375 l 4.949372633170519 6.690365743749481" fill="#ff6a09" stroke="none" /><path d="M 87.51073957382395 83.11751280151077 l -7.028746813850878 -9.501181339573648 a32.81844865541503,32.81844865541503 0 0,0 0.4570432866323363,-0.33206138487773734 l 6.864158210864761 9.620761959268053" fill="#ff990e" stroke="none" /><path d="M 87.80319425747018 82.90503203632743 l -9.526247627571971 -13.351930123761779 a37.401933785125394,37.401933785125394 0 0,0 0.5273118053871176,-0.3694156179511615 l 9.295004682601192 13.513930584476883" fill="#ffd413" stroke="none" /><path d="M 88.09926311788651 82.69761687909137 l -4.648338927827343 -6.75818159848426 a29.20244313031467,29.20244313031467 0 0,0 0.4166149939858226,-0.28130030366849185 l 4.53131923943498 6.8371938144514175" fill="#ff6909" stroke="none" /><path d="M 88.39885842347998 82.49532879139004 l -6.584298298089668 -9.93488236370984 a32.91867742910174,32.91867742910174 0 0,0 0.4750211775518265,-0.3089669874533898 l 6.412310094753554 10.046748275322765" fill="#ff9a0e" stroke="none" /><path d="M 88.70189139769569 82.29822771554957 l -4.18388603248946 -6.555274021362813 a28.776665083955628,28.776665083955628 0 0,0 0.41983900192011553,-0.26290314448627344 l 4.070427878197103 6.626321507172016" fill="#ff6309" stroke="none" /><path d="M 89.00827224532344 82.1063720568725 l -8.590640273657264 -13.984855182086283 a37.41265593300815,37.41265593300815 0 0,0 0.5516370228765073,-0.33235513397432265 l 8.348641184563109 14.130656925519226" fill="#ffd413" stroke="none" /><line stroke="#e1ed5e" stroke-width="0.3" x1="56.762969772571076" x2="54.21961505331055" y1="26.818313649435495" y2="22.513508569990535" /><path d="M 56.25429882871897 25.957352633546506 a86.0,86.0 0 0,1 42.265352541879196,-11.944610805530505" fill="none" id="id48" stroke="none" /><text fill="#e1ed5e" style="font-size:6.75px; font-family:Arial;" text-anchor="middle"><textPath startOffset="22.20632615414155" xlink:href="#id48">December</textPath></text><path d="M 89.3179101791058 81.91981866633112 l -3.958530112885065 -6.7000880404279775 a28.782103854620797,28.782103854620797 0 0,0 0.42872076820228044,-0.24834274095358028 l 3.842612612217464 6.7672349387716055" fill="#ff6309" stroke="none" /><path d="M 89.63071344664047 81.73862282372117 l -6.20012604093914 -10.919057891921714 a33.55656753140242,33.55656753140242 0 0,0 0.504748158885579,-0.28089180394059016 l 6.011253792981515 11.024165093422488" fill="#ffa30f" stroke="none" /><path d="M 89.94658935756843 81.56283822128135 l -7.851714393666659 -14.399424599780671 a37.40100142443994,37.40100142443994 0 0,0 0.5678806937611707,-0.30334219965335685 l 7.602688653377183 14.532445525935778" fill="#ffd413" stroke="none" /><path d="M 90.26544431104013 81.39251694778311 l -3.603362520219243 -6.887782983461187 a28.773401821556522,28.773401821556522 0 0,0 0.44083525107048444,-0.22581293773234729 l 3.484266781559995 6.94878844650604" fill="#ff6309" stroke="none" /><path d="M 90.58718382345135 81.22770947309562 l -5.579326363411569 -11.12703504178941 a33.44748133120387,33.44748133120387 0 0,0 0.5168889875289534,-0.2536351813562302 l 5.38696610887219 11.22142538328047" fill="#ffa10e" stroke="none" /><path d="M 90.91171255644093 81.06846463323043 l -3.3648783348616154 -7.009275795568683 a28.775111149479862,28.775111149479862 0 0,0 0.4483734923993038,-0.21051736671362142 l 3.243726631162703 7.066158144922312" fill="#ff6309" stroke="none" /><path d="M 91.23893434514133 80.91482961587045 l -8.167176596260166 -17.791438055307545 a40.5764665256615,40.5764665256615 0 0,0 0.6372782966475009,-0.28592819548926274 l 7.859716181145891 17.929386581313338" fill="#fffb17" stroke="none" /><path d="M 91.56875222667455 80.76684994638697 l -3.120054026187537 -7.117388656385774 a28.771226313290455,28.771226313290455 0 0,0 0.4552926577236804,-0.19493255528307016 l 2.9970776106735486 7.170040739631631" fill="#ff6309" stroke="none" /><path d="M 91.90106846888425 80.62456947434976 l -5.398455332323002 -12.91496240403954 a34.99784175767255,34.99784175767255 0 0,0 0.5578258174231595,-0.22755115709904836 l 5.175345645311462 13.005974447322167" fill="#ffb510" stroke="none" /><path d="M 92.23578459929587 80.48803036053334 l -6.150003185274676 -15.45535115149176 a37.63401389908059,37.63401389908059 0 0,0 0.6039664882203014,-0.23432961424710394 l 5.883053532054698 15.558923469629416" fill="#ffd714" stroke="none" /><path d="M 92.57280143429618 80.3572730644239 l -2.8842183188810675 -7.627897969764132 a29.154970432080113,29.154970432080113 0 0,0 0.47094672676855814,-0.1734536539517801 l 2.75248926633994 7.676414891522234" fill="#ff6809" stroke="none" /><path d="M 92.91201910852362 80.23233633223022 l -4.626984833834987 -12.904193929347652 a34.70865455173307,34.70865455173307 0 0,0 0.5641280196789172,-0.19681318912194623 l 4.404174810092785 12.981927971641808" fill="#ffb210" stroke="none" /><path d="M 93.25333710446033 80.11325718540243 l -2.747648138274994 -8.099081385407182 a29.552466870980275,29.552466870980275 0 0,0 0.48313664390093547,-0.15928255543231568 l 2.607828672131649 8.14517766509873" fill="#ff6d0a" stroke="none" /><path d="M 93.59665428221793 80.00007090966166 l -6.163336242413994 -19.250294024556887 a41.21288039021021,41.21288039021021 0 0,0 0.677489959210654,-0.21049942817888417 l 5.831060910492611 19.353533587618294" fill="#fbff18" stroke="none" /><path d="M 93.94186890950719 79.89281104454417 l -2.2736903519893086 -7.546472806669975 a28.881555661069626,28.881555661069626 0 0,0 0.47724677817888855,-0.13932142151876034 l 2.143453356086999 7.584492557107434" fill="#ff6409" stroke="none" /><path d="M 94.28887869178378 79.79150937346287 l -3.8679993503401566 -13.686704308372446 a35.222773773039236,35.222773773039236 0 0,0 0.5848693124787662,-0.15986687666672328 l 3.631832148637668 13.751257725865466" fill="#ffb811" stroke="none" /><path d="M 94.63758080256005 79.69619591428918 l -4.113510446988575 -15.57504311860842 a37.109094833167866,37.109094833167866 0 0,0 0.6189993366192438,-0.1577967134994005 l 3.844802221684332 15.643542828276685" fill="#ffd013" stroke="none" /><path d="M 94.98787191387505 79.60689891045804 l -1.9449599987311126 -7.913557911466787 a29.149065481072213,29.149065481072213 0 0,0 0.48828337063901206,-0.115560898027271 l 1.8084529411295664 7.945864721634929" fill="#ff6809" stroke="none" /><path d="M 95.33964822691252 79.52364482259891 l -3.1129399148160304 -13.677436048878532 a35.02721111926447,35.02721111926447 0 0,0 0.5890530694942353,-0.1287441856073111 l 2.8770441211682742 13.728993732581712" fill="#ffb610" stroke="none" /><path d="M 95.692805502759 79.44645832069477 l -1.6788680234033773 -8.011406012702125 a29.18542754780507,29.18542754780507 0 0,0 0.4925855179526333,-0.09880802089733977 l 1.5407160959836077 8.039117989676676" fill="#ff6809" stroke="none" /><path d="M 96.04723909329186 79.375362276772 l -3.0955449296975077 -16.151873143310382 a37.44583243406569,37.44583243406569 0 0,0 0.6340914622817753,-0.11587616172136901 l 2.817058346312839 16.202764786382488" fill="#ffd413" stroke="none" /><path d="M 96.40284397218896 79.31037775812273 l -1.6021406302705945 -9.214969871304977 a30.353209306340915,30.353209306340915 0 0,0 0.515528726644056,-0.08506665711685024 l 1.4432826974876527 9.241182791361453" fill="#ff780b" stroke="none" /><path d="M 96.75951476605007 79.25152402106235 l -2.570168036698675 -16.456507566391192 a37.65600207191264,37.65600207191264 0 0,0 0.6412835435218586,-0.09450852445884655 l 2.2865155127481676 16.498310575011008" fill="#ffd714" stroke="none" /><path d="M 97.11714578562143 79.19881850522333 l -2.2514240080883163 -16.245108469363874 a37.40037985064963,37.40037985064963 0 0,0 0.6384516821271132,-0.08288935202606992 l 1.971457597453345 16.28145614455408" fill="#ffd413" stroke="none" /><path d="M 97.47563105711357 79.15227682838746 l -0.9386470117966533 -7.751898989623393 a28.808520740708765,28.808520740708765 0 0,0 0.49280856536635576,-0.055372784362914144 l 0.8050717429205796 7.766907727456905" fill="#ff6309" stroke="none" /><path d="M 97.83486435360386 79.11191278185805 l -1.691347587910671 -16.31722981942357 a37.404653170457976,37.404653170457976 0 0,0 0.6409997526643978,-0.06087065022375843 l 1.4102227081560368 16.34392601416251" fill="#ffd413" stroke="none" /><path d="M 98.19473922651362 79.07773832637324 l -0.6840151538681509 -7.927466351754467 a28.95692148314413,28.95692148314413 0 0,0 0.49696945658998726,-0.038574394586678266 l 0.5474555079158294 7.938066008529607" fill="#ff6509" stroke="none" /><path d="M 98.55514903715128 79.0497635885617 l -1.6063096210925496 -23.29137549627008 a44.346700047481335,44.346700047481335 0 0,0 0.7619986850408076,-0.04596584160980376 l 1.205148887212119 23.315574607260192" fill="#d6ff1c" stroke="none" /><path d="M 98.91598698831166 79.02799685794201 l -0.41810927781079305 -8.089007229087198 a29.099805758190527,29.099805758190527 0 0,0 0.5004600773933545,-0.02155086367829804 l 0.27880836802811443 8.095005819289689" fill="#ff6709" stroke="none" /><path d="M 99.27714615592234 79.0124445844662 l -0.565024952724378 -16.405104024304254 a37.414831441274224,37.414831441274224 0 0,0 0.6438439776928429,-0.016628590419047146 l 0.2825543398366562 16.41239940686566" fill="#ffd413" stroke="none" /><path d="M 99.63851952072746 79.00311137660856 l -0.28256637662906464 -16.413098573775287 a37.41553071178832,37.41553071178832 0 0,0 0.6440468559015963,-0.005543514621594007 l 4.020645428499328e-15 16.41553071178832" fill="#ffd413" stroke="none" /></svg>