<?xml version="1.0" encoding="utf-8" ?>
<svg baseProfile="full" height="200mm" version="1.1" viewBox="0,0,200,200" width="200mm" xmlns="http://www.w3.org/2000/svg" xmlns:ev="http://www.w3.org/2001/xml-events" xmlns:xlink="http://www.w3.org/1999/xlink"><defs /><rect fill="#1a1a1a" height="200" width="200" x="0" y="0" /><rect fill="#1a1a1a" height="200" width="180" x="10" y="0" /><text alignment-baseline="middle" fill="#e1ed5e" style="dominant-baseline: central; font-size:9.0px; font-family:Arial;" text-anchor="middle" x="100.0" y="100.0">2026</text><line stroke="#e1ed5e" stroke-width="0.3" x1="100.0" x2="100.0" y1="15.0" y2="10.0" /><path d="M 100.0 14.0 a86.0,86.0 0 0,1 42.46469731375804,11.215312516191453" fill="none" id="id49" stroke="none" /><text fill="#e1ed5e" style="font-size:6.75px; font-family:Arial;" text-anchor="middle"><textPath startOffset="22.20632615414155" xlink:href="#id49">January</textPath></text><path d="M 100.0 79.0 l 0.0 -9.388554203429607 a30.388554203429607,30.388554203429607 0 0,0 0.523089006564521,0.004502392224594008 l -0.16160852729199263 9.387163187813572" fill="#ff6c09" stroke="none" /><path d="M 100.36148047927253 79.00311137660856 l 0.34079224399051283 -19.79519559447548 a40.79812890091146,40.79812890091146 0 0,0 0.7020646246988516,0.01813225796357195 l -0.6814835038842322 19.78639654436955" fill="#fff417" stroke="none" /><path d="M 100.72285384407766 79.0124445844662 l 0.09352588561384557 -2.715458627202895 a23.717068760140325,23.717068760140325 0 0,0 0.40788746721796515,0.01756449235248473 l -0.14025418522114227 2.7134464083262153" fill="#ff0c01" stroke="none" /><path d="M 101.08401301168833 79.027996857942 l 0.2867131950910458 -5.546935289045884 a26.554340244988765,26.554340244988765 0 0,0 0.45627684421036113,0.02752386528078193 l -0.38215208814101886 5.541178154384798" fill="#ff3605" stroke="none" /><path d="M 102.88285421437855 79.19881850522331 l 1.2064971184964421 -8.705457740317783 a29.788664845435797,29.788664845435797 0 0,0 0.5073024085877268,0.0747631879445097 l -1.3561685075128247 8.683400068212304" fill="#ff6309" stroke="none" /><path d="M 104.307194497241 79.44645832069477 l 1.0998850392366324 -5.248551698994582 a26.36255928047005,26.36255928047005 0 0,0 0.44333950570628256,0.0968968443857013 l -1.190067269096443 5.22884135651301" fill="#ff3304" stroke="none" /><path d="M 106.40334571778207 80.00007090966166 l 0.784326266092717 -2.449730249919649 a23.572225882198982,23.572225882198982 0 0,0 0.385369050635276,0.12705011707267347 l -0.8263781389704106 2.4358664085877395" fill="#ff0a01" stroke="none" /><path d="M 106.74666289553966 80.11325718540242 l 3.1111308395650896 -9.17049804132019 a30.683861287046113,30.683861287046113 0 0,0 0.4987120972426229,0.17399085825922778 l -3.268524940870986 9.115586329888755" fill="#ff700a" stroke="none" /><path d="M 107.08798089147638 80.2323363322302 l 2.8590501874863907 -7.973602550688179 a29.47068507329289,29.47068507329289 0 0,0 0.4760465356405363,0.17533195659838752 l -2.9958790488995035 7.923207326283467" fill="#ff5f08" stroke="none" /><path d="M 107.4271985657038 80.35727306442388 l 2.936301438047953 -7.765642299432709 a29.302232618869517,29.302232618869517 0 0,0 0.4702545569359487,0.18245146224826664 l -3.0695391599835684 7.713948133293895" fill="#ff5d08" stroke="none" /><path d="M 107.76421540070413 80.48803036053334 l 3.08810568923653 -7.76060700819595 a29.352449813291614,29.352449813291614 0 0,0 0.46784468664790607,0.19084559456418096 l -3.2212342454728238 7.70630052744819" fill="#ff5d08" stroke="none" /><path d="M 108.09893153111575 80.62456947434976 l 7.743955378607382 -18.52620544518571 a41.07957004278455,41.07957004278455 0 0,0 0.6500670642003668,0.27832479127490395 l -8.061706200598064 18.390161125948016" fill="#fff817" stroke="none" /><path d="M 108.76106565485865 80.91482961587045 l 3.921378769922695 -8.542360588654951 a30.399422103714983,30.399422103714983 0 0,0 0.4736834893445788,0.22240074964943476 l -4.067840470566872 8.473594856365514" fill="#ff6c09" stroke="none" /><path d="M 109.08828744355905 81.06846463323043 l 5.981419512972667 -12.459713203017138 a34.82106481033968,34.82106481033968 0 0,0 0.5381160021070083,0.26405118522177046 l -6.195006782090107 12.354906857660536" fill="#ffa80f" stroke="none" /><path d="M 109.41281617654863 81.2277094730956 l 6.944894839436401 -13.85043340477751 a36.4940656327191,36.4940656327191 0 0,0 0.5591229944083331,0.28640451419087126 l -7.18227832143349 13.72883636527414" fill="#ffbe11" stroke="none" /><path d="M 109.73455568895987 81.39251694778311 l 4.42611408487764 -8.460462444623314 a30.548293599865566,30.548293599865566 0 0,0 0.46383213021069647,0.24776306043463892 l -4.5710912616166475 8.38302065768692" fill="#ff6e0a" stroke="none" /><path d="M 110.05341064243156 81.56283822128135 l 5.679204696434888 -10.415213253171522 a32.86296898306018,32.86296898306018 0 0,0 0.49431525063436144,0.2750859017942558 l -5.857644036141284 10.315911953817087" fill="#ff8d0d" stroke="none" /><path d="M 110.36928655335952 81.73862282372117 l 15.907573853023484 -28.014869161413657 a53.216203997686044,53.216203997686044 0 0,0 0.7926763093460882,0.4591692820887494 l -16.3874468948349 27.736895721934857" fill="#7aff26" stroke="none" /><line stroke="#e1ed5e" stroke-width="0.3" x1="143.23703022742887" x2="145.7803849466894" y1="26.81831364943548" y2="22.513508569990506" /><path d="M 143.74570117128098 25.957352633546492 a86.0,86.0 0 0,1 28.547481713284135,27.462654790039103" fill="none" id="id50" stroke="none" /><text fill="#e1ed5e" style="font-size:6.75px; font-family:Arial;" text-anchor="middle"><textPath startOffset="19.985693538727396" xlink:href="#id50">February</textPath></text><path d="M 110.68208982089419 81.91981866633111 l 16.522696802611055 -27.965815614854293 a53.48209279949557,53.48209279949557 0 0,0 0.7885754623234464,0.4751078926188054 l -17.00163433115214 27.677261112776872" fill="#77ff27" stroke="none" /><path d="M 110.99172775467656 82.1063720568725 l 5.842163316167228 -9.510560950530058 a32.16161465947097,32.16161465947097 0 0,0 0.4692239409735886,0.2938279887909741 l -6.005006409513079 9.408588620416142" fill="#ff840c" stroke="none" /><path d="M 111.2981086023043 82.29822771554956 l 8.801630160879297 -13.790312903175606 a37.35975010372688,37.35975010372688 0 0,0 0.5391064852327812,0.350649854217893 l -9.037703671896358 13.636764124798184" fill="#ffc912" stroke="none" /><path d="M 111.60114157652 82.49532879139004 l 10.401552355641112 -15.694641156103994 a39.82854355562364,39.82854355562364 0 0,0 0.5682116513280677,0.3836590434188682 l -10.67016870137572 15.513270200386454" fill="#ffe815" stroke="none" /><path d="M 111.90073688211348 82.69761687909136 l 5.470127934981702 -7.952973852710694 a30.652569229327867,30.652569229327867 0 0,0 0.4321557733600166,0.3027527364947804 l -5.6062148479253695 7.857636273451978" fill="#ff6f0a" stroke="none" /><path d="M 112.19680574252982 82.90503203632743 l 10.947213529674668 -15.343547198486004 a39.84849926907869,39.84849926907869 0 0,0 0.5549466784530804,0.4031923626714768 l -11.209705524481537 15.152835600997852" fill="#ffe815" stroke="none" /><path d="M 112.48926042617603 83.11751280151076 l 5.577940375604166 -7.540038702988799 a30.378997946282116,30.378997946282116 0 0,0 0.4177167858073879,0.31461562289296635 l -5.706903315169937 7.442906490589984" fill="#ff6c09" stroke="none" /><path d="M 112.77801427241765 83.33499621200491 l 12.038608447719731 -15.700675481048776 a40.78482509194143,40.78482509194143 0 0,0 0.5534451140342905,0.4319726901046991 l -12.307086116913453 15.491124401720853" fill="#fff417" stroke="none" /><path d="M 113.06298171725822 83.55741782278167 l 5.835806982816443 -7.345622765327117 a30.381621232557897,30.381621232557897 0 0,0 0.4066747845034724,0.32883606006624133 l -5.9613851658844075 7.244080607996746" fill="#ff6c09" stroke="none" /><path d="M 113.34407831869373 83.78471172551755 l 12.573881516150836 -15.27937026777967 a40.78791682219503,40.78791682219503 0 0,0 0.5382887490671324,0.4508013469880301 l -12.835027802177086 15.06066776339782" fill="#fff417" stroke="none" /><path d="M 113.6212207817346 84.01681056812373 l 13.791233089202047 -16.182682484631588 a42.26211002038846,42.26211002038846 0 0,0 0.5496211585162294,0.4766260526084419 l -14.067748046365042 15.942891438603477" fill="#f8ff18" stroke="none" /><path d="M 113.89432698308785 84.25364557470407 l 6.459495527176379 -7.320506139184621 a30.762934630501803,30.762934630501803 0 0,0 0.3940424478527523,0.35377520030626153 l -6.584548962625122 7.208231930109062" fill="#ff710a" stroke="none" /><path d="M 114.16331599549186 84.49514656593476 l 11.530764379168978 -12.622948731685526 a38.09670616963026,38.09670616963026 0 0,0 0.4803670212905863,0.44644879400037885 l -11.746339284254411 12.422595351610507" fill="#ffd213" stroke="none" /><path d="M 114.42810811169701 84.74124197986012 l 6.446698735213213 -6.8178457818466045 a30.38312025328692,30.38312025328692 0 0,0 0.3769196160628643,0.362596372019455 l -6.563101594888495 6.705866323064847" fill="#ff6c09" stroke="none" /><path d="M 114.68862486808459 84.99185889309783 l 11.950962914967397 -12.210927803112629 a38.08602564693601,38.08602564693601 0 0,0 0.46458458498353306,0.46258951113111885 l -12.159383300118252 12.003402441331392" fill="#ffd213" stroke="none" /><path d="M 114.94478906791727 85.2469230424477 l 6.683427000075963 -6.59769183922278 a30.391364867296513,30.391364867296513 0 0,0 0.364313933901731,0.3754575329846221 l -6.796005197680803 6.481670110688044" fill="#ff6c09" stroke="none" /><path d="M 115.19652480421416 85.50635884689758 l 14.311950331456709 -13.64998083296225 a40.777611054683035,40.777611054683035 0 0,0 0.4800741897474354,0.5121096734176874 l -14.544791843174607 13.401601742666507" fill="#fff417" stroke="none" /><path d="M 115.4437574822437 85.77008943001954 l 21.120984328557284 -19.46091930612632 a49.719738147252016,49.719738147252016 0 0,0 0.5745147927779136,0.6343935835354312 l -21.452842761951235 19.09447293532134" fill="#a0ff22" stroke="none" /><path d="M 115.68641384162765 86.03803664274999 l 35.72697804688308 -31.79941338995674 a68.8290670231798,68.8290670231798 0 0,0 0.7800894273267813,0.8917770675272335 l -36.26905933778771 31.17972076622656" fill="#3aff92" stroke="none" /><path d="M 115.9244219780498 86.31012108654704 l 47.773265934149435 -41.069636740358895 a84.0,84.0 0 0,0 0.9331575460515311,1.1045642014835737 l -48.47313409368808 40.241213589246215" fill="#4dd2ff" stroke="none" /><path d="M 116.15771136456269 86.58626213691792 l 43.37387448403813 -36.00793264020892 a77.37254829062562,77.37254829062562 0 0,0 0.8418925693475632,1.0320607435221862 l -43.98726554546211 35.25598772707863" fill="#45ffec" stroke="none" /><path d="M 116.38621287248628 86.86637796730983 l 37.83548160720278 -30.32530571405941 a69.48863614394763,69.48863614394763 0 0,0 0.7400404723183176,0.9397762475576636 l -38.35187616011506 29.669537072548707" fill="#3bff99" stroke="none" /><path d="M 116.60985879189232 87.15038557335679 l 7.55329289344127 -5.843330912578284 a30.54969893179902,30.54969893179902 0 0,0 0.31818829406162596,0.4186984973725088 l -7.65275712772701 5.712447639324742" fill="#ff6e0a" stroke="none" /><path d="M 117.04232023915458 87.72973835380427 l 16.081553064814443 -11.578521058951939 a40.816117149659675,40.816117149659675 0 0,0 0.4056099313209659,0.5737064829491696 l -16.27847561593929 11.299988075670976" fill="#fff417" stroke="none" /><path d="M 117.2510076193507 88.02491185347247 l 7.697084517753714 -5.343065611308468 a30.369816444316882,30.369816444316882 0 0,0 0.29440721953306176,0.4320062667219645 l -7.787916202955509 5.209781321316097" fill="#ff6b09" stroke="none" /><path d="M 117.45458315368197 88.32363383020206 l 16.437868525966188 -10.99622776838931 a40.776767855522955,40.776767855522955 0 0,0 0.3852499019887889,0.5867620312054703 l -16.6247150633129 10.711647673206166" fill="#fff417" stroke="none" /><path d="M 117.65298651832404 88.62581576622439 l 7.879590421547473 -5.076983039008371 a30.373563996139428,30.373563996139428 0 0,0 0.27939687465293095,0.44193875839635705 l -7.965814892446359 4.940596632897808" fill="#ff6b09" stroke="none" /><line stroke="#e1ed5e" stroke-width="0.3" x1="172.23445277983987" x2="176.4835382374775" y1="55.19839476539836" y2="52.563006222186495" /><path d="M 173.08426987136738 54.67131705675599 a86.0,86.0 0 0,1 12.851231095245387,41.99856678651699" fill="none" id="id51" stroke="none" /><text fill="#e1ed5e" style="font-size:6.75px; font-family:Arial;" text-anchor="middle"><textPath startOffset="22.20632615414155" xlink:href="#id51">March</textPath></text><path d="M 117.84615892207809 88.93136811851018 l 27.868011280900298 -17.284434117410203 a53.79295222317564,53.79295222317564 0 0,0 0.4812783755370786,0.7910951057546862 l -28.161405454723603 16.802171238448434" fill="#74ff27" stroke="none" /><path d="M 118.03404312379186 89.2402003453031 l 8.052092617303975 -4.804186325192615 a30.376374660006334,30.376374660006334 0 0,0 0.2640434913737551,0.45133591771302 l -8.133595783148058 4.664870995125699" fill="#ff6b09" stroke="none" /><path d="M 118.21658344932153 89.55222093294921 l 17.16027793780905 -9.841954893583098 a40.78229549446121,40.78229549446121 0 0,0 0.344012953209421,0.6119606577626993 l -17.3271485323109 9.545110725885605" fill="#fff417" stroke="none" /><path d="M 118.3937258080291 89.86733742301442 l 17.32066569443787 -9.541539485920723 a40.774894079611684,40.774894079611684 0 0,0 0.33336757469972833,0.6176794861585343 l -17.482341368356064 9.24197901642973" fill="#fff417" stroke="none" /><path d="M 118.56541770881063 90.18545643968196 l 8.297962228869022 -4.386688898384405 a30.386118294744954,30.386118294744954 0 0,0 0.24047077254606775,0.46451299224938597 l -8.372242434575206 4.243203183874673" fill="#ff6c09" stroke="none" /><path d="M 118.73160827565052 90.50648371742162 l 17.637165274066685 -8.938832867092048 a40.77302030370041,40.77302030370041 0 0,0 0.3118941644493744,0.6287596034900483 l -17.78841945146947 8.633913675103049" fill="#fff417" stroke="none" /><path d="M 118.89224826269711 90.83032412892265 l 8.432747529587871 -4.092978266733287 a30.373563996139428,30.373563996139428 0 0,0 0.22424629625830775,0.4723198898555594 l -8.501952019687934 3.9472159612371867" fill="#ff6b09" stroke="none" /><path d="M 119.04729006885535 91.15688171328212 l 22.10422548087182 -10.262366974882728 a45.370329502006875,45.370329502006875 0 0,0 0.32277248124806335,0.7111863773163961 l -22.27760027908323 9.880358588724269" fill="#d2ff1c" stroke="none" /><path d="M 119.196687751892 91.48605970444005 l 16.645252199912427 -7.382350813130498 a39.2088858617659,39.2088858617659 0 0,0 0.26831815024065375,0.6193152847692384 l -16.769861059995762 7.094736383774657" fill="#ffe015" stroke="none" /><path d="M 119.34039704204932 91.81776055985345 l 18.208658277332237 -7.703440709361561 a40.77114652778914,40.77114652778914 0 0,0 0.267882572458096,0.648698897462327 l -18.33856253667653 7.388867241445931" fill="#fff417" stroke="none" /><path d="M 119.47837535516314 92.15188598940014 l 3.210790923589652 -1.2936732542147762 a24.461613618484353,24.461613618484353 0 0,0 0.1539991952697747,0.39191115446637587 l -3.2325836687411273 1.2382130948526158" fill="#ff1702" stroke="none" /><path d="M 119.61058180528143 92.48833698450437 l 8.754257927201396 -3.3532424561803817 a30.374500884095063,30.374500884095063 0 0,0 0.18281893039537825,0.4898638416059552 l -8.8106814460984 3.2020554775450933" fill="#ff6b09" stroke="none" /><path d="M 119.7369772167798 92.82701384747503 l 18.576484435728972 -6.75122964152764 a40.76524413366863,40.76524413366863 0 0,0 0.23400593287379703,0.6615662838120379 l -18.68994344941258 6.4304657312889875" fill="#fff417" stroke="none" /><path d="M 119.85752413597 93.16781622104841 l 8.860950498467755 -3.0487004244432767 a30.37075333227252,30.37075333227252 0 0,0 0.16582822701278094,0.4958052917530848 l -8.912116019252306 2.8957220297678776" fill="#ff6b09" stroke="none" /><path d="M 119.97218684219823 93.5106431181261 l 40.94699416184062 -13.304484904715844 a64.05421755728028,64.05421755728028 0 0,0 0.33169261432726277,1.051556230598015 l -41.169942259936086 12.59767850769141" fill="#34ff5b" stroke="none" /><path d="M 120.08093135843002 93.85539295169968 l 1.7917697835875106 -0.5482674605399438 a22.87377591127225,22.87377591127225 0 0,0 0.11196615592700883,0.3774942164281941 l -1.8009418366262218 0.5173438573652197" fill="#ff0000" stroke="none" /><path d="M 120.18372546131832 94.20196356495316 l 19.000836847324937 -5.458236367131747 a40.769272751877864,40.769272751877864 0 0,0 0.1879526169890511,0.676165565109942 l -19.09197623488035 5.130359498602853" fill="#fff417" stroke="none" /><path d="M 120.28053869075195 94.5502522615342 l 10.860829113816088 -2.918501318107154 a32.24612195306935,32.24612195306935 0 0,0 0.13943172172839313,0.5372873015984119 l -10.909457167414784 2.731117590959892" fill="#ff850c" stroke="none" /><path d="M 120.37134235888165 94.90015583598534 l 9.094410397748426 -2.276731448278386 a30.375063016868445,30.375063016868445 0 0,0 0.12260995399243257,0.5082974158763698 l -9.132253152001677 2.1198488007426097" fill="#ff6b09" stroke="none" /><path d="M 120.45610955862082 95.25157060432595 l 16.020183861675044 -3.7187282241956092 a37.44613117323654,37.44613117323654 0 0,0 0.1403438432567472,0.6291339306577844 l -16.08182209193383 3.4424161239878606" fill="#ffca12" stroke="none" /><path d="M 120.53481517161879 95.60439243477599 l 9.17856666142569 -1.9647304695801275 a30.386493049927203,30.386493049927203 0 0,0 0.10508040571236985,0.5124093768000247 l -9.211026363053056 1.806445436616691" fill="#ff6c09" stroke="none" /><path d="M 120.6074358757038 95.95851677861258 l 20.256572030297846 -3.97267260599828 a41.64245232653074,41.64245232653074 0 0,0 0.1318960748151137,0.7045941057064989 l -20.32195382902282 3.6234004228292185" fill="#ffff18" stroke="none" /><path d="M 120.67395015179393 96.31383870115 l 3.3056725150101127 -0.5894007677311272 a24.357806432999872,24.357806432999872 0 0,0 0.07004393275902851,0.41340325610347917 l -3.3153283092893644 0.5324117233118101" fill="#ff1602" stroke="none" /><path d="M 120.73433829027371 96.67025291283417 l 19.529355821907654 -3.13623780763363 a40.779578519389865,40.779578519389865 0 0,0 0.10533580012886767,0.6940313123384152 l -19.58044751547582 2.7996073829031327" fill="#fff417" stroke="none" /><path d="M 120.78858239683441 97.02765380044208 l 19.567463133834252 -2.7977508793335675 a40.766462088010954,40.766462088010954 0 0,0 0.09334355244993352,0.69551788690717 l -19.612722685342025 2.4605146503617332" fill="#fff417" stroke="none" /><path d="M 120.83666639777658 97.38593545837742 l 9.303168301170606 -1.1671292286674153 a30.376093593619647,30.376093593619647 0 0,0 0.06062149331612113,0.5193679338104505 l -9.321880147490317 1.006817556532112" fill="#ff6b09" stroke="none" /><path d="M 120.87857604477298 97.74499172005257 l 19.655617005735227 -2.1229215536710404 a40.76992857344682,40.76992857344682 0 0,0 0.06935328735113118,0.6983781390143452 l -19.689247418768588 1.7842678839522603" fill="#fff417" stroke="none" /><path d="M 120.91429891909075 98.10471618934814 l 38.3284240354178 -3.473376843429246 a59.48548344162073,59.48548344162073 0 0,0 0.08363521923146429,1.0205615148658889 l -38.38253373846876 2.8131014113555883" fill="#39ff2e" stroke="none" /><path d="M 120.94382443527127 98.46500227214037 l 19.729470760206624 -1.4459963070444821 a40.78238918325677,40.78238918325677 0 0,0 0.04528672443721264,0.7005655826649971 l -19.75143807564825 1.1061716601264497" fill="#fff417" stroke="none" /><path d="M 120.96714384426684 98.82574320788733 l 1.8777663648144116 -0.10516357994496023 a22.880708882143956,22.880708882143956 0 0,0 0.018638398573012926,0.3934271357111743 l -1.879298371620921 0.07282533761078612" fill="#ff0000" stroke="none" /><path d="M 120.98425023603335 99.18683210126433 l 19.764744057816525 -0.765910395356639 a40.779578519389865,40.779578519389865 0 0,0 0.02114383385186334,0.7016609092610387 l -19.774999586124032 0.42557933867060105" fill="#fff417" stroke="none" /><line stroke="#e1ed5e" stroke-width="0.3" x1="184.98032266829074" x2="189.97916517819016" y1="98.17113171792111" y2="98.06355123074" /><path d="M 185.9800911702706 98.14961562048488 a86.0,86.0 0 0,1 -9.607161424134198,41.387399972396054" fill="none" id="id52" stroke="none" /><text fill="#e1ed5e" style="font-size:6.75px; font-family:Arial;" text-anchor="middle"><textPath startOffset="21.466115282336823" xlink:href="#id52">April</textPath></text><path d="M 120.99513854157772 99.54816195383933 l 19.76844288864853 -0.42543823146281906 a40.77302030370041,40.77302030370041 0 0,0 0.00906130454983853,0.7018080232929657 l -19.772837200316083 0.0850939501093906" fill="#fff417" stroke="none" /><path d="M 120.99980553446 99.90962569577887 l 9.377224711583212 -0.04035561936246816 a30.377311547961973,30.377311547961973 0 0,0 -0.0022503840910845646,0.5229100096305718 l -9.376530030202625 -0.12106386847178835" fill="#ff6b09" stroke="none" /><path d="M 120.99824983174949 100.27111621757518 l 19.776056442959074 0.255336023922415 a40.777704743478594,40.777704743478594 0 0,0 -0.015103163397335745,0.701784656333186 l -19.768731216876734 -0.5957104960457159" fill="#fff417" stroke="none" /><path d="M 120.9904718944345 100.63252640178507 l 9.3768027320979 0.282560359872371 a30.381059099784515,30.381059099784515 0 0,0 -0.020250953767548947,0.5225871336502067 l -9.370549645479148 -0.44392474053658393" fill="#ff6c09" stroke="none" /><path d="M 120.9764740272857 100.99374915477107 l 7.271932090302182 0.34450386460995974 a28.28008785927051,28.28008785927051 0 0,0 -0.027221132040816033,0.4860515987109494 l -7.264924607373837 -0.46962717965633244" fill="#ff4e07" stroke="none" /><path d="M 120.92983693683757 101.71520430193887 l 26.929012417017763 2.2068379263547713 a48.019286507772456,48.019286507772456 0 0,0 -0.07460231470489835,0.8232303262579334 l -26.88703550603579 -2.6700496411612753" fill="#b3ff20" stroke="none" /><path d="M 120.89721153311464 102.0752229133903 l 19.68649284470037 1.9549910269548432 a40.783326071212414,40.783326071212414 0 0,0 -0.0753864216769816,0.697984637893601 l -19.649924121522336 -2.2935719867332356" fill="#fff417" stroke="none" /><path d="M 120.8583938346157 102.4346265915055 l 9.31826648943284 1.0876436393802447 a30.381527543762335,30.381527543762335 0 0,0 -0.06510108982117231,0.5189197394083829 l -9.29816389036482 -1.2478811330760227" fill="#ff6c09" stroke="none" /><path d="M 120.81339534386255 102.79330883721812 l 26.916157874231388 3.61234389737468 a48.15747748122878,48.15747748122878 0 0,0 -0.11733443028446293,0.8206367321266281 l -26.849989392930322 -4.075126101481717" fill="#b2ff20" stroke="none" /><path d="M 120.76222939487914 103.15116336523771 l 9.294294787254342 1.4106308471160267 a30.400733746852875,30.400733746852875 0 0,0 -0.08297698688091341,0.516697776515167 l -9.26863604601214 -1.5704078533243988" fill="#ff6c09" stroke="none" /><path d="M 120.70491114924044 103.5080841355445 l 28.44013631316019 4.818682403115764 a49.845468510898385,49.845468510898385 0 0,0 -0.15061296715649733,0.8447175049498354 l -28.3529769036645 -5.307518658798818" fill="#9fff22" stroke="none" /><path d="M 120.64145759157962 103.86396538481128 l 9.215366722584683 1.7250650961264815 a30.375437772050702,30.375437772050702 0 0,0 -0.10062958293786244,0.5131080754255635 l -9.184307206671157 -1.8834368986199899" fill="#ff6b09" stroke="none" /><path d="M 120.5718875245553 104.21870165774334 l 26.913773869566196 5.5192398997973156 a48.4738645438471,48.4738645438471 0 0,0 -0.1746581694024441,0.8159448207496427 l -26.81478166143931 -5.981698539963127" fill="#aeff20" stroke="none" /><path d="M 120.49622156327973 104.57218783832717 l 26.484221532039065 5.907958948555344 a48.13517954788464,48.13517954788464 0 0,0 -0.1873591588131104,0.8071383525221199 l -26.378601807295404 -6.362965958426029" fill="#b2ff20" stroke="none" /><path d="M 120.41448212921028 104.9243191809786 l 15.785393363419107 3.807704492662731 a37.23814204708531,37.23814204708531 0 0,0 -0.15567083563845008,0.621827606118004 l -15.717511213485595 -4.07885993817813" fill="#ffc712" stroke="none" /><path d="M 120.32669344350535 105.2749913415812 l 26.183367731124417 6.794860091681478 a48.05067225428627,48.05067225428627 0 0,0 -0.214653618916447,0.798805969094355 l -26.062526035866192 -7.244556993951381" fill="#b3ff20" stroke="none" /><line stroke="#e1ed5e" stroke-width="0.3" x1="174.80103733775053" x2="179.2010983576182" y1="140.37084112569926" y2="142.7455964860345" /><path d="M 175.68104954172406 140.8457921977663 a86.0,86.0 0 0,1 -30.038265399797805,32.042727171017184" fill="none" id="id53" stroke="none" /><text fill="#e1ed5e" style="font-size:6.75px; font-family:Arial;" text-anchor="middle"><textPath startOffset="22.206326154141568" xlink:href="#id53">May</textPath></text><line stroke="#e1ed5e" stroke-width="0.3" x1="143.8653032363475" x2="146.44561519142675" y1="172.8068346515853" y2="177.08958963109032" /><path d="M 144.38136562736335 173.6633856474863 a86.0,86.0 0 0,1 -40.68145358897372,12.25698825130547" fill="none" id="id54" stroke="none" /><text fill="#e1ed5e" style="font-size:6.75px; font-family:Arial;" text-anchor="middle"><textPath startOffset="21.466115282336833" xlink:href="#id54">June</textPath></text><line stroke="#e1ed5e" stroke-width="0.3" x1="102.19456741930631" x2="102.32365962044197" y1="184.97166512339345" y2="189.96999836594603" /><path d="M 102.22038585953345 185.97133177190398 a86.0,86.0 0 0,1 -42.740103519485714,-10.115201625700543" fill="none" id="id55" stroke="none" /><text fill="#e1ed5e" style="font-size:6.75px; font-family:Arial;" text-anchor="middle"><textPath startOffset="22.20632615414155" xlink:href="#id55">July</textPath></text><line stroke="#e1ed5e" stroke-width="0.3" x1="58.666819895761336" x2="56.23545636021788" y1="174.27360380694188" y2="178.64263932499728" /><path d="M 58.180547188652646 175.14741091055294 a86.0,86.0 0 0,1 -31.652253787137756,-30.449443065178592" fill="none" id="id56" stroke="none" /><text fill="#e1ed5e" style="font-size:6.75px; font-family:Arial;" text-anchor="middle"><textPath startOffset="22.20632615414155" xlink:href="#id56">August</textPath></text><line stroke="#e1ed5e" stroke-width="0.3" x1="26.63291911575756" x2="22.317208475507996" y1="142.92168965132927" y2="145.44649492493687" /><path d="M 25.769776987707644 143.4266507060508 a86.0,86.0 0 0,1 -11.730757126820373,-40.83630448921669" fill="none" id="id57" stroke="none" /><text fill="#e1ed5e" style="font-size:6.75px; font-family:Arial;" text-anchor="middle"><textPath startOffset="21.46611528233685" xlink:href="#id57">September</textPath></text><line stroke="#e1ed5e" stroke-width="0.3" x1="15.007084014347285" x2="10.007500721073583" y1="101.09737516637583" y2="101.16192664675087" /><path d="M 14.007167355692545 101.11028546245083 a86.0,86.0 0 0,1 10.666146001902534,-42.60595125391555" fill="none" id="id58" stroke="none" /><text fill="#e1ed5e" style="font-size:6.75px; font-family:Arial;" text-anchor="middle"><textPath startOffset="22.20632615414155" xlink:href="#id58">October</textPath></text><line stroke="#e1ed5e" stroke-width="0.3" x1="26.266209847984243" x2="21.928928074336255" y1="57.711370442889674" y2="55.22380399835377" /><path d="M 25.398753493254645 57.213857153982495 a86.0,86.0 0 0,1 29.58750427330803,-30.492523968695096" fill="none" id="id59" stroke="none" /><text fill="#e1ed5e" style="font-size:6.75px; font-family:Arial;" text-anchor="middle"><textPath startOffset="21.46611528233685" xlink:href="#id59">November</textPath></text><line stroke="#e1ed5e" stroke-width="0.3" x1="56.762969772571076" x2="54.21961505331055" y1="26.818313649435495" y2="22.513508569990535" /><path d="M 56.25429882871897 25.957352633546506 a86.0,86.0 0 0,1 42.265352541879196,-11.944610805530505" fill="none" id="id60" stroke="none" /><text fill="#e1ed5e" style="font-size:6.75px; font-family:Arial;" text-anchor="middle"><textPath startOffset="22.20632615414155" xlink:href="#id60">December</textPath></text></svg>