<?xml version="1.0" encoding="utf-8" ?>
<svg baseProfile="full" height="200mm" version="1.1" viewBox="0,0,200,200" width="200mm" xmlns="http://www.w3.org/2000/svg" xmlns:ev="http://www.w3.org/2001/xml-events" xmlns:xlink="http://www.w3.org/1999/xlink"><defs /><rect fill="#1a1a1a" height="200" width="200" x="0" y="0" /><text alignment-baseline="middle" fill="#e1ed5e" style="dominant-baseline: central; font-size:9.0px; font-family:Arial;" text-anchor="middle" x="100.0" y="100.0">2025</text><line stroke="#e1ed5e" stroke-width="0.3" x1="100.0" x2="100.0" y1="15.0" y2="10.0" /><path d="M 100.0 14.0 a86.0,86.0 0 0,1 42.46469731375804,11.215312516191453" fill="none" id="id37" stroke="none" /><text fill="#e1ed5e" style="font-size:6.75px; font-family:Arial;" text-anchor="middle"><textPath startOffset="22.20632615414155" xlink:href="#id37">January</textPath></text><path d="M 100.0 79.0 l 0.0 -32.123115385791614 a53.123115385791614,53.123115385791614 0 0,0 0.9144271052431323,0.007870762789767895 l -0.552946625970604 32.11835599961041" fill="#e5ff1a" stroke="none" /><path d="M 100.36148047927253 79.00311137660856 l 0.5250332888605047 -30.49698703499181 a51.50150616226796,51.50150616226796 0 0,0 0.8862510749710011,0.022889250571142505 l -1.0499109990263735 30.483430992278308" fill="#ffff18" stroke="none" /><path d="M 100.72285384407766 79.0124445844662 l 0.5524087585612905 -16.03880165723478 a37.04831187498088,37.04831187498088 0 0,0 0.6371589275308829,0.027437403718886918 l -0.8284085184815048 16.0269165269917" fill="#ff0000" stroke="none" /><path d="M 101.08401301168833 79.027996857942 l 2.9028816895084137 -56.160990003777584 a77.23596287348238,77.23596287348238 0 0,0 1.3271269809127229,0.08005592371523457 l -3.8691707192607487 56.102700810682045" fill="#42ffd6" stroke="none" /><path d="M 101.44485096284872 79.0497635885617 l 1.1038866381041645 -16.006277902955972 a37.04429799076424,37.04429799076424 0 0,0 0.6357680201931594,0.049347834462096195 l -1.379244847659665 15.98490480630541" fill="#ff0000" stroke="none" /><path d="M 101.80526077348638 79.07773832637324 l 3.3799296959785554 -39.17205457312219 a60.317601455702004,60.317601455702004 0 0,0 1.0336566265758125,0.09815815170948143 l -4.053711449644612 39.10807087689753" fill="#7aff26" stroke="none" /><path d="M 102.16513564639614 79.11191278185805 l 3.8066168917548056 -36.72423285505278 a57.92099146762897,57.92099146762897 0 0,0 0.9908166048048301,0.11132979022039564 l -4.438200200069361 36.653267111361785" fill="#9cff22" stroke="none" /><path d="M 102.52436894288641 79.15227682838746 l 4.25454095314662 -35.13650105046494 a56.3931465794061,56.3931465794061 0 0,0 0.9626720219912012,0.12498245732648516 l -4.858727703645667 35.05806026997432" fill="#b3ff20" stroke="none" /><path d="M 102.88285421437855 79.19881850522331 l 3.6306118833975445 -26.196613185285514 a47.447001437352824,47.447001437352824 0 0,0 0.8080247380782631,0.119081842179568 l -4.081005601904463 26.13023685894498" fill="#ffbd11" stroke="none" /><path d="M 103.2404852339499 79.25152402106235 l 4.457835018770255 -28.54303480108114 a49.88904859475825,49.88904859475825 0 0,0 0.8473317412985075,0.13981699753277094 l -4.948495966207638 28.462071540608747" fill="#ffe515" stroke="none" /><path d="M 103.59715602781102 79.31037775812273 l 8.257760703007273 -47.49584065526521 a69.2083549955656,69.2083549955656 0 0,0 1.1719442236602644,0.21416531599495434 l -9.07410004777044 47.34665985791952" fill="#35ff63" stroke="none" /><path d="M 103.95276090670814 79.375362276772 l 3.0216275670296664 -15.766188589536018 a37.05312853604086,37.05312853604086 0 0,0 0.6253749232145276,0.12544432637500982 l -3.2925688997113194 15.711840307083799" fill="#ff0000" stroke="none" /><path d="M 104.307194497241 79.44645832069477 l 7.242861244278707 -34.562277268199544 a56.3130294504419,56.3130294504419 0 0,0 0.9470169559704864,0.206981226423992 l -7.836720924402721 34.432482543679676" fill="#b4ff20" stroke="none" /><path d="M 104.66035177308747 79.52364482259891 l 7.481839248663776 -32.87322616300355 a54.71389797853145,54.71389797853145 0 0,0 0.916526347752211,0.21691217473429555 l -8.04658928337851 32.739568076128386" fill="#ccff1d" stroke="none" /><path d="M 105.01212808612495 79.60689891045804 l 8.429791222744006 -34.298721344541946 a56.31945166518853,56.31945166518853 0 0,0 0.9394382529737575,0.23948372814826677 l -9.01893836440279 34.14853462022481" fill="#b4ff20" stroke="none" /><path d="M 105.36241919743992 79.69619591428918 l 10.257867274518063 -38.83950877590309 a61.17127435089758,61.17127435089758 0 0,0 1.015740594525403,0.27764027430704136 l -10.924905758267178 38.657181960769755" fill="#6eff28" stroke="none" /><path d="M 105.71112130821622 79.79150937346287 l 12.9166110654094 -45.70472233997756 a68.4948469372152,68.4948469372152 0 0,0 1.131827710607154,0.33041154548559637 l -13.701428993739981 45.475612465573256" fill="#34ff58" stroke="none" /><path d="M 106.0581310904928 79.89281104454417 l 16.276213446785132 -54.02142911160056 a77.42011988134192,77.42011988134192 0 0,0 1.2726932299775697,0.3954319817072296 l -17.20369204947342 53.73325699501081" fill="#42ffd9" stroke="none" /><path d="M 106.40334571778207 80.00007090966166 l 9.869287057242753 -30.825298213855834 a53.366677880057495,53.366677880057495 0 0,0 0.8724617731466355,0.28763692942384317 l -10.398431652631807 30.650847560172757" fill="#e1ff1b" stroke="none" /><path d="M 106.74666289553966 80.11325718540242 l 10.893511551645458 -32.1101655632807 a54.90768830851096,54.90768830851096 0 0,0 0.8924277207133039,0.3113505084792307 l -11.444621276422035 31.917894201629267" fill="#c9ff1d" stroke="none" /><path d="M 107.08798089147638 80.2323363322302 l 11.378399735630387 -31.73320900481885 a54.71148964800146,54.71148964800146 0 0,0 0.8837668700910865,0.3254987966699713 l -11.92294893149405 31.532646940342552" fill="#ccff1d" stroke="none" /><path d="M 107.4271985657038 80.35727306442388 l 10.830015731747107 -28.642164316034215 a51.62128046729257,51.62128046729257 0 0,0 0.8284400267500691,0.3214218597909956 l -11.321438923496844 28.45149975235267" fill="#fdff18" stroke="none" /><path d="M 107.76421540070413 80.48803036053334 l 5.934938803651484 -14.914880612204325 a37.05232575919753,37.05232575919753 0 0,0 0.5905719571842434,0.24090912971419848 l -6.190794630424115 14.810510596306546" fill="#ff0000" stroke="none" /><path d="M 108.09893153111575 80.62456947434976 l 24.296794593347244 -58.12629157695072 a84.0,84.0 0 0,0 1.329264968838739,0.5691218881488367 l -25.2937433199763 57.69945016083909" fill="#4dd2ff" stroke="none" /><path d="M 108.43124777332544 80.76684994638697 l 17.41479784123061 -39.72619819019003 a64.37563839872779,64.37563839872779 0 0,0 1.0110588894769998,0.45363265204909703 l -18.09603884917439 39.42054520762441" fill="#43ff2d" stroke="none" /><path d="M 108.76106565485865 80.91482961587045 l 6.69826726723956 -14.591555081294203 a37.05553686657085,37.05553686657085 0 0,0 0.5773990026063335,0.2710965737990297 l -6.948444481145492 14.47409352485517" fill="#ff0000" stroke="none" /><line stroke="#e1ed5e" stroke-width="0.3" x1="143.23703022742887" x2="145.7803849466894" y1="26.81831364943548" y2="22.513508569990506" /><path d="M 143.74570117128098 25.957352633546492 a86.0,86.0 0 0,1 28.547481713284135,27.462654790039103" fill="none" id="id38" stroke="none" /><text fill="#e1ed5e" style="font-size:6.75px; font-family:Arial;" text-anchor="middle"><textPath startOffset="19.985693538727396" xlink:href="#id38">February</textPath></text><line stroke="#e1ed5e" stroke-width="0.3" x1="172.23445277983987" x2="176.4835382374775" y1="55.19839476539836" y2="52.563006222186495" /><path d="M 173.08426987136738 54.67131705675599 a86.0,86.0 0 0,1 12.851231095245387,41.99856678651699" fill="none" id="id39" stroke="none" /><text fill="#e1ed5e" style="font-size:6.75px; font-family:Arial;" text-anchor="middle"><textPath startOffset="22.20632615414155" xlink:href="#id39">March</textPath></text><line stroke="#e1ed5e" stroke-width="0.3" x1="184.98032266829074" x2="189.97916517819016" y1="98.17113171792111" y2="98.06355123074" /><path d="M 185.9800911702706 98.14961562048488 a86.0,86.0 0 0,1 -9.607161424134198,41.387399972396054" fill="none" id="id40" stroke="none" /><text fill="#e1ed5e" style="font-size:6.75px; font-family:Arial;" text-anchor="middle"><textPath startOffset="21.466115282336823" xlink:href="#id40">April</textPath></text><line stroke="#e1ed5e" stroke-width="0.3" x1="174.80103733775053" x2="179.2010983576182" y1="140.37084112569926" y2="142.7455964860345" /><path d="M 175.68104954172406 140.8457921977663 a86.0,86.0 0 0,1 -30.038265399797805,32.042727171017184" fill="none" id="id41" stroke="none" /><text fill="#e1ed5e" style="font-size:6.75px; font-family:Arial;" text-anchor="middle"><textPath startOffset="22.206326154141568" xlink:href="#id41">May</textPath></text><line stroke="#e1ed5e" stroke-width="0.3" x1="143.8653032363475" x2="146.44561519142675" y1="172.8068346515853" y2="177.08958963109032" /><path d="M 144.38136562736335 173.6633856474863 a86.0,86.0 0 0,1 -40.68145358897372,12.25698825130547" fill="none" id="id42" stroke="none" /><text fill="#e1ed5e" style="font-size:6.75px; font-family:Arial;" text-anchor="middle"><textPath startOffset="21.466115282336833" xlink:href="#id42">June</textPath></text><line stroke="#e1ed5e" stroke-width="0.3" x1="102.19456741930631" x2="102.32365962044197" y1="184.97166512339345" y2="189.96999836594603" /><path d="M 102.22038585953345 185.97133177190398 a86.0,86.0 0 0,1 -42.740103519485714,-10.115201625700543" fill="none" id="id43" stroke="none" /><text fill="#e1ed5e" style="font-size:6.75px; font-family:Arial;" text-anchor="middle"><textPath startOffset="22.20632615414155" xlink:href="#id43">July</textPath></text><line stroke="#e1ed5e" stroke-width="0.3" x1="58.666819895761336" x2="56.23545636021788" y1="174.27360380694188" y2="178.64263932499728" /><path d="M 58.180547188652646 175.14741091055294 a86.0,86.0 0 0,1 -31.652253787137756,-30.449443065178592" fill="none" id="id44" stroke="none" /><text fill="#e1ed5e" style="font-size:6.75px; font-family:Arial;" text-anchor="middle"><textPath startOffset="22.20632615414155" xlink:href="#id44">August</textPath></text><line stroke="#e1ed5e" stroke-width="0.3" x1="26.63291911575756" x2="22.317208475507996" y1="142.92168965132927" y2="145.44649492493687" /><path d="M 25.769776987707644 143.4266507060508 a86.0,86.0 0 0,1 -11.730757126820373,-40.83630448921669" fill="none" id="id45" stroke="none" /><text fill="#e1ed5e" style="font-size:6.75px; font-family:Arial;" text-anchor="middle"><textPath startOffset="21.46611528233685" xlink:href="#id45">September</textPath></text><line stroke="#e1ed5e" stroke-width="0.3" x1="15.007084014347285" x2="10.007500721073583" y1="101.09737516637583" y2="101.16192664675087" /><path d="M 14.007167355692545 101.11028546245083 a86.0,86.0 0 0,1 10.666146001902534,-42.60595125391555" fill="none" id="id46" stroke="none" /><text fill="#e1ed5e" style="font-size:6.75px; font-family:Arial;" text-anchor="middle"><textPath startOffset="22.20632615414155" xlink:href="#id46">October</textPath></text><line stroke="#e1ed5e" stroke-width="0.3" x1="26.266209847984243" x2="21.928928074336255" y1="57.711370442889674" y2="55.22380399835377" /><path d="M 25.398753493254645 57.213857153982495 a86.0,86.0 0 0,1 29.58750427330803,-30.492523968695096" fill="none" id="id47" stroke="none" /><text fill="#e1ed5e" style="font-size:6.75px; font-family:Arial;" text-anchor="middle"><textPath startOffset="21.46611528233685" xlink:href="#id47">November</textPath></text><line stroke="#e1ed5e" stroke-width="0.3" x1="56.762969772571076" x2="54.21961505331055" y1="26.818313649435495" y2="22.513508569990535" /><path d="M 56.25429882871897 25.957352633546506 a86.0,86.0 0 0,1 42.265352541879196,-11.944610805530505" fill="none" id="id48" stroke="none" /><text fill="#e1ed5e" style="font-size:6.75px; font-family:Arial;" text-anchor="middle"><textPath startOffset="22.20632615414155" xlink:href="#id48">December</textPath></text></svg>