<?xml version="1.0" encoding="utf-8" ?>
<svg baseProfile="full" height="200mm" version="1.1" viewBox="0,0,200,200" width="200mm" xmlns="http://www.w3.org/2000/svg" xmlns:ev="http://www.w3.org/2001/xml-events" xmlns:xlink="http://www.w3.org/1999/xlink"><defs /><rect fill="#1a1a1a" height="200" width="200" x="0" y="0" /><text alignment-baseline="middle" fill="#e1ed5e" style="dominant-baseline: central; font-size:9.0px; font-family:Arial;" text-anchor="middle" x="100.0" y="100.0">2025</text><line stroke="#e1ed5e" stroke-width="0.3" x1="100.0" x2="100.0" y1="15.0" y2="10.0" /><path d="M 100.0 14.0 a86.0,86.0 0 0,1 42.46469731375804,11.215312516191453" fill="none" id="id37" stroke="none" /><text fill="#e1ed5e" style="font-size:6.75px; font-family:Arial;" text-anchor="middle"><textPath startOffset="22.20632615414155" xlink:href="#id37">January</textPath></text><path d="M 100.0 79.0 l 0.0 -35.86940746600798 a56.86940746600798,56.86940746600798 0 0,0 0.9789133650836794,0.0084258163872543 l -0.617432885811151 35.864093026229284" fill="#bdff1f" stroke="none" /><path d="M 100.36148047927253 79.00311137660856 l 0.5862642133298683 -34.05363525007076 a55.05868141124511,55.05868141124511 0 0,0 0.9474638553959729,0.02447019609422619 l -1.172354703920709 34.03849826183418" fill="#daff1c" stroke="none" /><path d="M 100.72285384407766 79.0124445844662 l 0.6168322907245398 -17.90929382161671 a38.9199131488933,38.9199131488933 0 0,0 0.6693468303016102,0.028823482521246505 l -0.9250199534154816 17.896022612571272" fill="#ff0000" stroke="none" /><path d="M 101.08401301168833 79.027996857942 l 3.241424279559334 -62.71064963490173 a83.79436606090961,83.79436606090961 0 0,0 1.4398184461048658,0.08685378064266712 l -4.320404774503812 62.64556258487876" fill="#4dd5ff" stroke="none" /><path d="M 101.44485096284872 79.0497635885617 l 1.2326251405850126 -17.872977051573077 a38.91543115370825,38.91543115370825 0 0,0 0.6678811034757542,0.051840427778468944 l -1.540096433423108 17.84911136160614" fill="#ff0000" stroke="none" /><path d="M 101.80526077348638 79.07773832637324 l 3.774107025906313 -43.74041464812289 a64.90293563570344,64.90293563570344 0 0,0 1.1122350339699447,0.10562011831983814 l -4.526467186966502 43.66896898528788" fill="#47ff2c" stroke="none" /><path d="M 102.16513564639614 79.11191278185805 l 4.250555735877831 -41.00712077064266 a62.226825950609836,62.226825950609836 0 0,0 1.0644737055411497,0.11960602371653523 l -4.955796144928706 40.92787879345553" fill="#6cff28" stroke="none" /><path d="M 102.52436894288641 79.15227682838746 l 4.750718017117795 -39.234223018929214 a60.5207993033699,60.5207993033699 0 0,0 1.0331340556757485,0.13413045157264677 l -5.42536680130139 39.14663424419243" fill="#85ff25" stroke="none" /><path d="M 102.88285421437855 79.19881850522331 l 4.0540245064187745 -29.25173916935913 a50.53132843491574,50.53132843491574 0 0,0 0.8605509765939702,0.12682284434255864 l -4.5569444634414005 29.1776218408556" fill="#ffd914" stroke="none" /><path d="M 103.2404852339499 79.25152402106235 l 4.977720833865167 -31.871807366768433 a53.25817430550418,53.25817430550418 0 0,0 0.9045540623399208,0.1492591708043705 l -5.525604102343963 31.781401933024437" fill="#f7ff18" stroke="none" /><path d="M 103.59715602781102 79.31037775812273 l 9.220805013948592 -53.034945114876265 a74.8305549706038,74.8305549706038 0 0,0 1.2671481161011564,0.23156321881056133 l -10.13234825115265 52.86836641471496" fill="#3dffb0" stroke="none" /><path d="M 103.95276090670814 79.375362276772 l 3.374018650141536 -17.604887817142732 a38.92529154311537,38.92529154311537 0 0,0 0.6569728973412058,0.13178258272651436 l -3.6765579569498676 17.544201278339006" fill="#ff0000" stroke="none" /><path d="M 104.307194497241 79.44645832069477 l 8.087544999004098 -38.59303157235302 a60.43133867947616,60.43133867947616 0 0,0 1.0162746163713972,0.22211826847868948 l -8.750662339529024 38.448099805778455" fill="#86ff25" stroke="none" /><path d="M 104.66035177308747 79.52364482259891 l 8.354393320275356 -36.70699836556189 a58.64571179774961,58.64571179774961 0 0,0 0.9823891557938473,0.2324997734557687 l -8.985006163031727 36.55775267996525" fill="#a1ff22" stroke="none" /><path d="M 105.01212808612495 79.60689891045804 l 9.412898238248852 -38.29873898266429 a60.438509871772254,60.438509871772254 0 0,0 1.0081463232954375,0.256998945122265 l -10.070753450229315 38.131037041373155" fill="#86ff25" stroke="none" /><path d="M 105.36241919743992 79.69619591428918 l 11.454169889283603 -43.36908638315528 a65.85616637166127,65.85616637166127 0 0,0 1.0935325819729884,0.29890376308581673 l -12.199000360480303 43.16549607924316" fill="#3aff2e" stroke="none" /><path d="M 105.71112130821622 79.79150937346287 l 14.422984191316782 -51.03494132012293 a74.03383550650815,74.03383550650815 0 0,0 1.223355482867286,0.3571310120651 l -15.299329891907496 50.77911197913913" fill="#3cffa4" stroke="none" /><path d="M 106.0581310904928 79.89281104454417 l 18.174393271478365 -60.321566866367476 a84.0,84.0 0 0,0 1.380858509157127,0.4290394604699177 l -19.21003715334621 59.99978727101504" fill="#4dd2ff" stroke="none" /><path d="M 106.40334571778207 80.00007090966166 l 5.534954615960753 -17.28763442055706 a39.15208049947924,39.15208049947924 0 0,0 0.6400753228770902,0.21102277043993514 l -5.831712761080261 17.18979792585789" fill="#ff0500" stroke="none" /><path d="M 106.74666289553966 80.11325718540242 l 12.163944869259653 -35.85494739715483 a58.86210252528414,58.86210252528414 0 0,0 0.9566997557405763,0.33377375948575655 l -12.779326629063503 35.640252784496866" fill="#9eff22" stroke="none" /><path d="M 107.08798089147638 80.2323363322302 l 12.70538213765427 -35.43402905750858 a58.643022600638574,58.643022600638574 0 0,0 0.9472737969645167,0.3488889337944585 l -13.313438260391365 35.21007685590779" fill="#a1ff22" stroke="none" /><path d="M 107.4271985657038 80.35727306442388 l 12.093043980321292 -31.9824976569553 a55.192424147567195,55.192424147567195 0 0,0 0.8857512429623355,0.34365772129818944 l -12.641778388283296 31.76959723176656" fill="#d7ff1c" stroke="none" /><path d="M 107.76421540070413 80.48803036053334 l 6.627088801236173 -16.65429780271717 a38.92439514407836,38.92439514407836 0 0,0 0.62041061529707,0.2530810675625071 l -6.9127832861216305 16.537755848971084" fill="#ff0000" stroke="none" /><path d="M 108.09893153111575 80.62456947434976 l 18.41705686711703 -44.0599361094507 a68.75422445831887,68.75422445831887 0 0,0 1.0880069289537966,0.465827786213421 l -19.17274755386114 43.73638879527449" fill="#33ff52" stroke="none" /><path d="M 108.43124777332544 80.76684994638697 l 19.445762722676328 -44.35918412164929 a69.43423276779566,69.43423276779566 0 0,0 1.0905072170170875,0.4892788007531732 l -20.206452058160195 44.01788499037959" fill="#34ff5d" stroke="none" /><line stroke="#e1ed5e" stroke-width="0.3" x1="143.23703022742887" x2="145.7803849466894" y1="26.81831364943548" y2="22.513508569990506" /><path d="M 143.74570117128098 25.957352633546492 a86.0,86.0 0 0,1 28.547481713284135,27.462654790039103" fill="none" id="id38" stroke="none" /><text fill="#e1ed5e" style="font-size:6.75px; font-family:Arial;" text-anchor="middle"><textPath startOffset="19.985693538727396" xlink:href="#id38">February</textPath></text><line stroke="#e1ed5e" stroke-width="0.3" x1="172.23445277983987" x2="176.4835382374775" y1="55.19839476539836" y2="52.563006222186495" /><path d="M 173.08426987136738 54.67131705675599 a86.0,86.0 0 0,1 12.851231095245387,41.99856678651699" fill="none" id="id39" stroke="none" /><text fill="#e1ed5e" style="font-size:6.75px; font-family:Arial;" text-anchor="middle"><textPath startOffset="22.20632615414155" xlink:href="#id39">March</textPath></text><line stroke="#e1ed5e" stroke-width="0.3" x1="184.98032266829074" x2="189.97916517819016" y1="98.17113171792111" y2="98.06355123074" /><path d="M 185.9800911702706 98.14961562048488 a86.0,86.0 0 0,1 -9.607161424134198,41.387399972396054" fill="none" id="id40" stroke="none" /><text fill="#e1ed5e" style="font-size:6.75px; font-family:Arial;" text-anchor="middle"><textPath startOffset="21.466115282336823" xlink:href="#id40">April</textPath></text><line stroke="#e1ed5e" stroke-width="0.3" x1="174.80103733775053" x2="179.2010983576182" y1="140.37084112569926" y2="142.7455964860345" /><path d="M 175.68104954172406 140.8457921977663 a86.0,86.0 0 0,1 -30.038265399797805,32.042727171017184" fill="none" id="id41" stroke="none" /><text fill="#e1ed5e" style="font-size:6.75px; font-family:Arial;" text-anchor="middle"><textPath startOffset="22.206326154141568" xlink:href="#id41">May</textPath></text><line stroke="#e1ed5e" stroke-width="0.3" x1="143.8653032363475" x2="146.44561519142675" y1="172.8068346515853" y2="177.08958963109032" /><path d="M 144.38136562736335 173.6633856474863 a86.0,86.0 0 0,1 -40.68145358897372,12.25698825130547" fill="none" id="id42" stroke="none" /><text fill="#e1ed5e" style="font-size:6.75px; font-family:Arial;" text-anchor="middle"><textPath startOffset="21.466115282336833" xlink:href="#id42">June</textPath></text><line stroke="#e1ed5e" stroke-width="0.3" x1="102.19456741930631" x2="102.32365962044197" y1="184.97166512339345" y2="189.96999836594603" /><path d="M 102.22038585953345 185.97133177190398 a86.0,86.0 0 0,1 -42.740103519485714,-10.115201625700543" fill="none" id="id43" stroke="none" /><text fill="#e1ed5e" style="font-size:6.75px; font-family:Arial;" text-anchor="middle"><textPath startOffset="22.20632615414155" xlink:href="#id43">July</textPath></text><line stroke="#e1ed5e" stroke-width="0.3" x1="58.666819895761336" x2="56.23545636021788" y1="174.27360380694188" y2="178.64263932499728" /><path d="M 58.180547188652646 175.14741091055294 a86.0,86.0 0 0,1 -31.652253787137756,-30.449443065178592" fill="none" id="id44" stroke="none" /><text fill="#e1ed5e" style="font-size:6.75px; font-family:Arial;" text-anchor="middle"><textPath startOffset="22.20632615414155" xlink:href="#id44">August</textPath></text><line stroke="#e1ed5e" stroke-width="0.3" x1="26.63291911575756" x2="22.317208475507996" y1="142.92168965132927" y2="145.44649492493687" /><path d="M 25.769776987707644 143.4266507060508 a86.0,86.0 0 0,1 -11.730757126820373,-40.83630448921669" fill="none" id="id45" stroke="none" /><text fill="#e1ed5e" style="font-size:6.75px; font-family:Arial;" text-anchor="middle"><textPath startOffset="21.46611528233685" xlink:href="#id45">September</textPath></text><line stroke="#e1ed5e" stroke-width="0.3" x1="15.007084014347285" x2="10.007500721073583" y1="101.09737516637583" y2="101.16192664675087" /><path d="M 14.007167355692545 101.11028546245083 a86.0,86.0 0 0,1 10.666146001902534,-42.60595125391555" fill="none" id="id46" stroke="none" /><text fill="#e1ed5e" style="font-size:6.75px; font-family:Arial;" text-anchor="middle"><textPath startOffset="22.20632615414155" xlink:href="#id46">October</textPath></text><line stroke="#e1ed5e" stroke-width="0.3" x1="26.266209847984243" x2="21.928928074336255" y1="57.711370442889674" y2="55.22380399835377" /><path d="M 25.398753493254645 57.213857153982495 a86.0,86.0 0 0,1 29.58750427330803,-30.492523968695096" fill="none" id="id47" stroke="none" /><text fill="#e1ed5e" style="font-size:6.75px; font-family:Arial;" text-anchor="middle"><textPath startOffset="21.46611528233685" xlink:href="#id47">November</textPath></text><line stroke="#e1ed5e" stroke-width="0.3" x1="56.762969772571076" x2="54.21961505331055" y1="26.818313649435495" y2="22.513508569990535" /><path d="M 56.25429882871897 25.957352633546506 a86.0,86.0 0 0,1 42.265352541879196,-11.944610805530505" fill="none" id="id48" stroke="none" /><text fill="#e1ed5e" style="font-size:6.75px; font-family:Arial;" text-anchor="middle"><textPath startOffset="22.20632615414155" xlink:href="#id48">December</textPath></text></svg>