<?xml version="1.0" encoding="utf-8" ?>
<svg baseProfile="full" height="200mm" version="1.1" viewBox="0,0,200,200" width="200mm" xmlns="http://www.w3.org/2000/svg" xmlns:ev="http://www.w3.org/2001/xml-events" xmlns:xlink="http://www.w3.org/1999/xlink"><defs /><rect fill="#1a1a1a" height="200" width="200" x="0" y="0" /><rect fill="#1a1a1a" height="200" width="180" x="10" y="0" /><text alignment-baseline="middle" fill="#e1ed5e" style="dominant-baseline: central; font-size:9.0px; font-family:Arial;" text-anchor="middle" x="100.0" y="100.0">2026</text><line stroke="#e1ed5e" stroke-width="0.3" x1="100.0" x2="100.0" y1="15.0" y2="10.0" /><path d="M 100.0 14.0 a86.0,86.0 0 0,1 42.46469731375804,11.215312516191453" fill="none" id="id49" stroke="none" /><text fill="#e1ed5e" style="font-size:6.75px; font-family:Arial;" text-anchor="middle"><textPath startOffset="22.20632615414155" xlink:href="#id49">January</textPath></text><path d="M 100.0 79.0 l 0.0 -18.359671265383987 a39.35967126538399,39.35967126538399 0 0,0 0.677512039667627,0.005831560023603924 l -0.3160315603950986 18.35695108196894" fill="#ffc312" stroke="none" /><path d="M 100.36148047927253 79.00311137660856 l 0.6664320654582522 -38.710250361635694 a59.7159865528232,59.7159865528232 0 0,0 1.027607952059607,0.026540081662931213 l -1.332666652712727 38.6930434878304" fill="#44ff2d" stroke="none" /><path d="M 100.72285384407766 79.0124445844662 l 0.1828933909809945 -5.310181594519016 a26.313330270106785,26.313330270106785 0 0,0 0.45253811701982727,0.01948724325808975 l -0.2742723403901533 5.3062466247367315" fill="#ff0400" stroke="none" /><path d="M 101.08401301168833 79.027996857942 l 0.5606784490200422 -10.847240824368718 a31.861721494544355,31.861721494544355 0 0,0 0.5474723002159183,0.033025024231024866 l -0.7473127980755723 10.83598253075739" fill="#ff5908" stroke="none" /><path d="M 102.88285421437855 79.19881850522331 l 2.359350545170849 -17.02385041016666 a38.186565037340344,38.186565037340344 0 0,0 0.6503190565824511,0.09584012421017765 l -2.652038582181956 16.98071580179551" fill="#ffb310" stroke="none" /><path d="M 104.307194497241 79.44645832069477 l 2.15086660976212 -10.263740478561923 a31.486686597026733,31.486686597026733 0 0,0 0.5295120220970279,0.1157308188083872 l -2.327221356012676 10.225196161657665" fill="#ff5307" stroke="none" /><path d="M 106.40334571778207 80.00007090966166 l 1.5337795466961366 -4.790539746893301 a26.030084568317708,26.030084568317708 0 0,0 0.42555119860885887,0.1402975395002385 l -1.616013567547413 4.7634284831338265" fill="#ff0000" stroke="none" /><path d="M 106.74666289553966 80.11325718540242 l 6.083933504601556 -17.933254229600387 a39.937155387013476,39.937155387013476 0 0,0 0.6491080876242417,0.22646106620069253 l -6.391723596289071 17.82587231022749" fill="#ffcb12" stroke="none" /><path d="M 107.08798089147638 80.2323363322302 l 5.59098029751053 -15.592680029262173 a37.56474361957052,37.56474361957052 0 0,0 0.6067916649323886,0.22348649112011212 l -5.858554288215495 15.494130270335734" fill="#ffaa0f" stroke="none" /><path d="M 107.4271985657038 80.35727306442388 l 5.7420480268348175 -15.186005927309147 a37.235328501965895,37.235328501965895 0 0,0 0.5975682172347732,0.2318471845078246 l -6.002599409069258 15.084916038910775" fill="#ffa60f" stroke="none" /><path d="M 107.76421540070413 80.48803036053334 l 6.038906956135342 -15.176159225694686 a37.33353011655771,37.33353011655771 0 0,0 0.5950540350104568,0.242737481797783 l -6.299244860734187 15.069960857713323" fill="#ffa70f" stroke="none" /><path d="M 108.09893153111575 80.62456947434976 l 15.143596337026757 -36.228692341609566 a60.26635530325943,60.26635530325943 0 0,0 0.9536899393358514,0.4083202609766627 l -15.764970034152924 35.962652552670114" fill="#3eff2d" stroke="none" /><path d="M 108.76106565485865 80.91482961587045 l 7.6684038418329585 -16.704907788761105 a39.38092385361655,39.38092385361655 0 0,0 0.6136331592407017,0.288108996185862 l -7.954815212373258 16.570433809935242" fill="#ffc312" stroke="none" /><path d="M 109.08828744355905 81.06846463323043 l 11.69689108450965 -24.365438331792916 a48.02761266081939,48.02761266081939 0 0,0 0.7422066802537839,0.36419759463230955 l -12.114569031773865 24.160485577025774" fill="#caff1d" stroke="none" /><path d="M 109.41281617654863 81.2277094730956 l 13.581003364515547 -27.08504405310002 a51.29922876486052,51.29922876486052 0 0,0 0.7859518499942433,0.40259506410252355 l -14.045215702098545 26.847256463684996" fill="#a2ff22" stroke="none" /><path d="M 109.73455568895987 81.39251694778311 l 8.65543275574365 -16.54475288427999 a39.67204767000907,39.67204767000907 0 0,0 0.6023632816165412,0.32176160387805064 l -8.938941083888501 16.393312553900184" fill="#ffc712" stroke="none" /><path d="M 110.05341064243156 81.56283822128135 l 11.105898631045932 -20.367341695406914 a44.19848253960868,44.19848253960868 0 0,0 0.6648207587539354,0.369972032460402 l -11.454843478871902 20.173154265386334" fill="#fbff18" stroke="none" /><path d="M 110.36928655335952 81.73862282372117 l 31.107859660078564 -54.7841315288365 a84.0,84.0 0 0,0 1.2512130701386868,0.7247833704398019 l -32.04626946268258 54.24054400100664" fill="#4dd2ff" stroke="none" /><line stroke="#e1ed5e" stroke-width="0.3" x1="143.23703022742887" x2="145.7803849466894" y1="26.81831364943548" y2="22.513508569990506" /><path d="M 143.74570117128098 25.957352633546492 a86.0,86.0 0 0,1 28.547481713284135,27.462654790039103" fill="none" id="id50" stroke="none" /><text fill="#e1ed5e" style="font-size:6.75px; font-family:Arial;" text-anchor="middle"><textPath startOffset="19.985693538727396" xlink:href="#id50">February</textPath></text><line stroke="#e1ed5e" stroke-width="0.3" x1="172.23445277983987" x2="176.4835382374775" y1="55.19839476539836" y2="52.563006222186495" /><path d="M 173.08426987136738 54.67131705675599 a86.0,86.0 0 0,1 12.851231095245387,41.99856678651699" fill="none" id="id51" stroke="none" /><text fill="#e1ed5e" style="font-size:6.75px; font-family:Arial;" text-anchor="middle"><textPath startOffset="22.20632615414155" xlink:href="#id51">March</textPath></text><line stroke="#e1ed5e" stroke-width="0.3" x1="184.98032266829074" x2="189.97916517819016" y1="98.17113171792111" y2="98.06355123074" /><path d="M 185.9800911702706 98.14961562048488 a86.0,86.0 0 0,1 -9.607161424134198,41.387399972396054" fill="none" id="id52" stroke="none" /><text fill="#e1ed5e" style="font-size:6.75px; font-family:Arial;" text-anchor="middle"><textPath startOffset="21.466115282336823" xlink:href="#id52">April</textPath></text><line stroke="#e1ed5e" stroke-width="0.3" x1="174.80103733775053" x2="179.2010983576182" y1="140.37084112569926" y2="142.7455964860345" /><path d="M 175.68104954172406 140.8457921977663 a86.0,86.0 0 0,1 -30.038265399797805,32.042727171017184" fill="none" id="id53" stroke="none" /><text fill="#e1ed5e" style="font-size:6.75px; font-family:Arial;" text-anchor="middle"><textPath startOffset="22.206326154141568" xlink:href="#id53">May</textPath></text><line stroke="#e1ed5e" stroke-width="0.3" x1="143.8653032363475" x2="146.44561519142675" y1="172.8068346515853" y2="177.08958963109032" /><path d="M 144.38136562736335 173.6633856474863 a86.0,86.0 0 0,1 -40.68145358897372,12.25698825130547" fill="none" id="id54" stroke="none" /><text fill="#e1ed5e" style="font-size:6.75px; font-family:Arial;" text-anchor="middle"><textPath startOffset="21.466115282336833" xlink:href="#id54">June</textPath></text><line stroke="#e1ed5e" stroke-width="0.3" x1="102.19456741930631" x2="102.32365962044197" y1="184.97166512339345" y2="189.96999836594603" /><path d="M 102.22038585953345 185.97133177190398 a86.0,86.0 0 0,1 -42.740103519485714,-10.115201625700543" fill="none" id="id55" stroke="none" /><text fill="#e1ed5e" style="font-size:6.75px; font-family:Arial;" text-anchor="middle"><textPath startOffset="22.20632615414155" xlink:href="#id55">July</textPath></text><line stroke="#e1ed5e" stroke-width="0.3" x1="58.666819895761336" x2="56.23545636021788" y1="174.27360380694188" y2="178.64263932499728" /><path d="M 58.180547188652646 175.14741091055294 a86.0,86.0 0 0,1 -31.652253787137756,-30.449443065178592" fill="none" id="id56" stroke="none" /><text fill="#e1ed5e" style="font-size:6.75px; font-family:Arial;" text-anchor="middle"><textPath startOffset="22.20632615414155" xlink:href="#id56">August</textPath></text><line stroke="#e1ed5e" stroke-width="0.3" x1="26.63291911575756" x2="22.317208475507996" y1="142.92168965132927" y2="145.44649492493687" /><path d="M 25.769776987707644 143.4266507060508 a86.0,86.0 0 0,1 -11.730757126820373,-40.83630448921669" fill="none" id="id57" stroke="none" /><text fill="#e1ed5e" style="font-size:6.75px; font-family:Arial;" text-anchor="middle"><textPath startOffset="21.46611528233685" xlink:href="#id57">September</textPath></text><line stroke="#e1ed5e" stroke-width="0.3" x1="15.007084014347285" x2="10.007500721073583" y1="101.09737516637583" y2="101.16192664675087" /><path d="M 14.007167355692545 101.11028546245083 a86.0,86.0 0 0,1 10.666146001902534,-42.60595125391555" fill="none" id="id58" stroke="none" /><text fill="#e1ed5e" style="font-size:6.75px; font-family:Arial;" text-anchor="middle"><textPath startOffset="22.20632615414155" xlink:href="#id58">October</textPath></text><line stroke="#e1ed5e" stroke-width="0.3" x1="26.266209847984243" x2="21.928928074336255" y1="57.711370442889674" y2="55.22380399835377" /><path d="M 25.398753493254645 57.213857153982495 a86.0,86.0 0 0,1 29.58750427330803,-30.492523968695096" fill="none" id="id59" stroke="none" /><text fill="#e1ed5e" style="font-size:6.75px; font-family:Arial;" text-anchor="middle"><textPath startOffset="21.46611528233685" xlink:href="#id59">November</textPath></text><line stroke="#e1ed5e" stroke-width="0.3" x1="56.762969772571076" x2="54.21961505331055" y1="26.818313649435495" y2="22.513508569990535" /><path d="M 56.25429882871897 25.957352633546506 a86.0,86.0 0 0,1 42.265352541879196,-11.944610805530505" fill="none" id="id60" stroke="none" /><text fill="#e1ed5e" style="font-size:6.75px; font-family:Arial;" text-anchor="middle"><textPath startOffset="22.20632615414155" xlink:href="#id60">December</textPath></text></svg>