<?xml version="1.0" encoding="utf-8" ?>
<svg baseProfile="full" height="200mm" version="1.1" viewBox="0,0,200,200" width="200mm" xmlns="http://www.w3.org/2000/svg" xmlns:ev="http://www.w3.org/2001/xml-events" xmlns:xlink="http://www.w3.org/1999/xlink"><defs /><rect fill="#1a1a1a" height="200" width="200" x="0" y="0" /><rect fill="#1a1a1a" height="200" width="180" x="10" y="0" /><text alignment-baseline="middle" fill="#e1ed5e" style="dominant-baseline: central; font-size:9.0px; font-family:Arial;" text-anchor="middle" x="100.0" y="100.0">2024</text><line stroke="#e1ed5e" stroke-width="0.3" x1="100.0" x2="100.0" y1="15.0" y2="10.0" /><path d="M 100.0 14.0 a86.0,86.0 0 0,1 42.35913384403234,11.155469271406648" fill="none" id="id25" stroke="none" /><text fill="#e1ed5e" style="font-size:6.75px; font-family:Arial;" text-anchor="middle"><textPath startOffset="22.145653131862478" xlink:href="#id25">January</textPath></text><path d="M 100.0 79.0 l 0.0 -16.873102469552272 a37.87310246955227,37.87310246955227 0 0,0 0.6501421658261564,0.005580688566639567 l -0.2896492409773016 16.870616179180068" fill="#ffd714" stroke="none" /><path d="M 100.36049292484886 79.00309439819443 l 0.2525521408206132 -14.709896075124504 a35.7120639315086,35.7120639315086 0 0,0 0.6128643984747713,0.015785212925024876 l -0.5050298533661258 14.703393144849434" fill="#ffbb11" stroke="none" /><path d="M 100.72087961077811 79.0123766808444 l 0.5049939153428589 -14.702346848513839 a35.71101701815813,35.71101701815813 0 0,0 0.6124851615564617,0.026302748198683255 l -0.7573048375001569 14.691511531889326" fill="#ffbb11" stroke="none" /><path d="M 101.08105385017728 79.02784411241856 l 0.5954994948659947 -11.552531111431355 a32.56786906603697,32.56786906603697 0 0,0 0.5580824582106605,0.03357285484495734 l -0.7937263052091177 11.540606278761706" fill="#ff920d" stroke="none" /><path d="M 101.44090949804482 79.04949213459386 l 1.7528496707145376 -25.48604951456661 a46.54625612153501,46.54625612153501 0 0,0 0.7966746489148938,0.061667656348631306 l -2.1900933144046646 25.452204091222924" fill="#bfff1e" stroke="none" /><path d="M 101.80034050326958 79.07731436759882 l 1.1743204690560263 -13.647383903840364 a34.697814277571624,34.697814277571624 0 0,0 0.5930028901812471,0.056157990242944385 l -1.4084229226222864 13.625214158092236" fill="#ffae10" stroke="none" /><path d="M 102.15924093988457 79.11130261209362 l 2.805263278256332 -27.13837748743099 a48.282980678632505,48.282980678632505 0 0,0 0.8237170733741157,0.09229921618096772 l -3.270716253231244 27.086222510743053" fill="#abff21" stroke="none" /><path d="M 102.51750503828377 79.15144685158666 l 2.022064812601106 -16.74559735689343 a37.86723975478963,37.86723975478963 0 0,0 0.6446846683864758,0.08346733735933719 l -2.3092273028783734 16.708418423333693" fill="#ffd714" stroke="none" /><path d="M 102.87502721639298 79.19773525538626 l 1.8704119106410484 -13.533368840747544 a34.66200984098549,34.66200984098549 0 0,0 0.5887175571170946,0.08652120729371594 l -2.102454573365825 13.499266560154945" fill="#ffae10" stroke="none" /><path d="M 103.23170211078529 79.25015418208739 l 3.875583992827601 -24.884029390320727 a46.184024102271806,46.184024102271806 0 0,0 0.7823188748913,0.12873027315611746 l -4.302180370771971 24.813833118668942" fill="#c3ff1e" stroke="none" /><path d="M 103.58742460773223 79.30868818359171 l 2.8862192537919498 -16.646945672952267 a37.89529703258228,37.89529703258228 0 0,0 0.6400069342487028,0.11663058317281341 l -3.171560921591706 16.594946915848087" fill="#ffd714" stroke="none" /><path d="M 103.94208987418118 79.37332000966035 l 3.7460626654100393 -19.600982800835176 a40.95573883001617,40.95573883001617 0 0,0 0.6894284578136654,0.13790500013280052 l -4.081987608754662 19.533788404039516" fill="#fffd17" stroke="none" /><path d="M 104.29559338865022 79.4440306129975 l 2.808811786792638 -13.441181201115496 a34.731524887456814,34.731524887456814 0 0,0 0.5825594473090566,0.12696612011440558 l -3.039133650720829 13.390983622867372" fill="#ffaf10" stroke="none" /><path d="M 104.64783097203109 79.52079915486377 l 9.051340888743166 -39.88187804027688 a61.89609966615097,61.89609966615097 0 0,0 1.0341595800839911,0.2440588450292739 l -9.734632622567043 39.72062305160138" fill="#32ff44" stroke="none" /><path d="M 104.9986988182912 79.60360301121754 l 4.009133068769018 -16.35863104059193 a37.84274198238859,37.84274198238859 0 0,0 0.6296216065944628,0.16004735028017264 l -4.289359968588875 16.28739845847649" fill="#ffd614" stroke="none" /><path d="M 105.3480935250658 79.69241777938227 l 3.75049712469809 -14.241248469389793 a35.726825409750255,35.726825409750255 0 0,0 0.5917359220509597,0.161280256887754 l -3.9944144476837424 14.174767718357897" fill="#ffbc11" stroke="none" /><path d="M 105.69591212413111 79.78721728523813 l 6.828773634924714 -24.23290856371552 a46.1766957088185,46.1766957088185 0 0,0 0.7611238514718501,0.2215520604255913 l -7.2437574987781685 24.112112808987412" fill="#c3ff1e" stroke="none" /><path d="M 106.04205211174951 79.88797359093562 l 3.333691752821482 -11.096775620661091 a32.58671350634546,32.58671350634546 0 0,0 0.534359049516125,0.16554579947734124 l -3.523691435209237 11.037913233377104" fill="#ff930d" stroke="none" /><path d="M 106.38641147887787 79.99465700312896 l 3.192574282047492 -10.000693467150565 a31.4979236218549,31.4979236218549 0 0,0 0.5136820310377797,0.1688574866237107 l -3.363779050733014 9.944415059124834" fill="#ff840c" stroke="none" /><path d="M 106.72888874123014 80.10723608172694 l 7.09390894677199 -20.971881296117555 a43.139181313759934,43.139181313759934 0 0,0 0.6994591540970791,0.24330820250045238 l -7.452873872914087 20.84701466104851" fill="#e7ff1a" stroke="none" /><path d="M 107.06938296918511 80.22567764915836 l 10.257477104244293 -28.69198905333672 a51.47041306547862,51.47041306547862 0 0,0 0.829435530961964,0.30458021584844835 l -10.748501786860382 28.511677988479548" fill="#88ff25" stroke="none" /><path d="M 107.40779381753099 80.34994680014964 l 5.935218913160165 -15.743873313583542 a37.82546791210581,37.82546791210581 0 0,0 0.6056176902957653,0.23426593275616792 l -6.2046088659494565 15.639667492689336" fill="#ffd614" stroke="none" /><path d="M 107.74402155503746 80.48000691201159 l 7.350057299840012 -18.526945808391627 a40.931659822955325,40.931659822955325 0 0,0 0.650902152092688,0.2647162387294603 l -7.66701391312314 18.398042313082872" fill="#fffd17" stroke="none" /><path d="M 108.07796709384702 80.6158196554323 l 9.686086195930372 -23.24308077436415 a46.18056928821525,46.18056928821525 0 0,0 0.7291360468873257,0.31122482130680684 l -10.083657317988127 23.07338130339794" fill="#c3ff1e" stroke="none" /><path d="M 108.4095320186766 80.7573450057729 l 6.753336239795599 -15.452954936587325 a37.86420370607326,37.86420370607326 0 0,0 0.5933619976768015,0.26540327430091626 l -7.017611640328033 15.334747911376557" fill="#ffd714" stroke="none" /><path d="M 108.73861861582097 80.90454125486305 l 8.296234116931242 -18.128768777372162 a40.93689438970768,40.93689438970768 0 0,0 0.636493239870944,0.29791097468734334 l -8.60621607067369 17.983681571114285" fill="#fffd17" stroke="none" /><path d="M 109.06512990194946 81.05736502329252 l 4.989603297350489 -10.426351851831779 a32.55876091988786,32.55876091988786 0 0,0 0.5020867152682112,0.24559577232383745 l -5.167850261880767 10.33916232941072" fill="#ff920d" stroke="none" /><path d="M 109.3889696526874 81.21577127319529 l 15.004028124288137 -30.018107048558683 a54.55901683204021,54.55901683204021 0 0,0 0.8341626245161318,0.42592937972195255 l -15.517117970517846 29.756119717163898" fill="#67ff28" stroke="none" /><path d="M 109.71004243097381 81.37971332152246 l 7.793848046005718 -14.945731285601 a37.855828399269484,37.855828399269484 0 0,0 0.5736260944910635,0.3054235856982267 l -8.049262956283341 14.809737232180199" fill="#ffd714" stroke="none" /><path d="M 110.02825361518725 81.54914285379988 l 7.023638723817564 -12.922704162907964 a35.70808566077681,35.70808566077681 0 0,0 0.5360562635418908,0.2973413730935011 l -7.244439175515555 12.800229874381316" fill="#ffbb11" stroke="none" /><path d="M 110.34350942703115 81.72400993836675 l 11.372516463549562 -20.094146897611413 a44.089150487977946,44.089150487977946 0 0,0 0.6554745175230072,0.3784383891388483 l -11.715783448932967 19.895961611196395" fill="#dbff1b" stroke="none" /><line stroke="#e1ed5e" stroke-width="0.3" x1="143.13028292997686" x2="145.6673583964461" y1="26.7553504044142" y2="22.446841604673864" /><path d="M 143.63769802327073 25.89364864446614 a86.0,86.0 0 0,1 29.32050498858742,28.57503671076993" fill="none" id="id26" stroke="none" /><text fill="#e1ed5e" style="font-size:6.75px; font-family:Arial;" text-anchor="middle"><textPath startOffset="20.669276256404974" xlink:href="#id26">February</textPath></text><path d="M 110.65571695917076 81.90426304109057 l 5.866258433724036 -9.962189307054876 a32.5610641292589,32.5610641292589 0 0,0 0.4792170635231741,0.2877560776210706 l -6.036408253804645 9.860019228897885" fill="#ff920d" stroke="none" /><path d="M 110.96478420261332 82.08984904055464 l 5.494700332087683 -8.975180049704024 a31.523572998941454,31.523572998941454 0 0,0 0.4590971148472549,0.2865105543404922 l -5.647961575724651 8.879533698521985" fill="#ff840c" stroke="none" /><path d="M 111.27062007382361 82.28071324371311 l 11.879204977131728 -18.67608330755289 a43.13394674700757,43.13394674700757 0 0,0 0.6213637442109957,0.4027604718937859 l -12.19805435359973 18.46940899395521" fill="#e7ff1a" stroke="none" /><path d="M 111.5731344415666 82.4767994020092 l 16.768235562927764 -25.38924583716937 a51.426756778763945,51.426756778763945 0 0,0 0.7324730401743339,0.49284055066245325 l -17.2016048911991 25.0976556124498" fill="#89ff24" stroke="none" /><path d="M 111.8722381534696 82.67804972795209 l 9.529944677846025 -13.904474090824529 a37.85687531261996,37.85687531261996 0 0,0 0.5328894369158729,0.37199821324657356 l -9.767229205935658 13.738831061772828" fill="#ffd714" stroke="none" /><path d="M 112.16784306229584 82.88440491214696 l 7.924973819889226 -11.147468149335843 a34.67739946723743,34.67739946723743 0 0,0 0.48221234072766567,0.3490845475315115 l -8.11516717099086 11.009782830431257" fill="#ffae10" stroke="none" /><path d="M 112.45986205192187 83.09580414077388 l 11.846174987023359 -16.071611493677864 a40.96568450684565,40.96568450684565 0 0,0 0.5624920326082604,0.4221045077327017 l -12.120320008542386 15.865887958681148" fill="#fffd17" stroke="none" /><path d="M 112.7482090630111 83.31218511350987 l 19.125459501078574 -25.0358404224097 a52.50518222108484,52.50518222108484 0 0,0 0.7115453673921943,0.5533019814278488 l -19.552414813105994 24.70383738936106" fill="#7dff26" stroke="none" /><path d="M 113.03279911837588 83.53348406188908 l 8.480527103885434 -10.714868958796119 a34.664836507031765,34.664836507031765 0 0,0 0.46343457833857354,0.3733100914970373 l -8.663212452579268 10.567710573505673" fill="#ffae10" stroke="none" /><path d="M 113.31354834802062 83.75963576809568 l 6.681674756568896 -8.150556777895549 a31.53927669919853,31.53927669919853 0 0,0 0.4157562510622827,0.34683865151962606 l -6.820605341793072 8.034655942464052" fill="#ff850c" stroke="none" /><path d="M 113.59037401385872 83.9905735841838 l 23.745083482052426 -27.97164863569461 a57.691172193981416,57.691172193981416 0 0,0 0.7494921719548773,0.6473934872619006 l -24.221755133770163 27.55991101596799" fill="#48ff2c" stroke="none" /><path d="M 113.86319453409587 84.22622945171908 l 6.930226541612129 -7.885325640215111 a31.4979236218549,31.4979236218549 0 0,0 0.4030758885542162,0.36043294503444717 l -7.064567456989721 7.765197165297277" fill="#ff840c" stroke="none" /><path d="M 114.13192950727249 84.46653392183569 l 9.894832911486333 -10.876154689321083 a35.703688624704824,35.703688624704824 0 0,0 0.449815860208245,0.4163428448478859 l -10.080078543008542 10.704694098340822" fill="#ffbb11" stroke="none" /><path d="M 114.39649973595853 84.71141617570332 l 16.523095253555958 -17.546954569093362 a45.10203915455931,45.10203915455931 0 0,0 0.5591096064529422,0.5356143554109456 l -16.821877345874213 17.260728083376836" fill="#d0ff1d" stroke="none" /><path d="M 114.65682725009322 84.96080404539774 l 8.091628430553866 -8.302723603306193 a32.59351844312353,32.59351844312353 0 0,0 0.3973430510872718,0.3939469770402673 l -8.2329634017711 8.162596616037266" fill="#ff930d" stroke="none" /><path d="M 114.91283532996326 85.21462403516908 l 7.460370339903612 -7.396606873994106 a31.50556608931334,31.50556608931334 0 0,0 0.37748648882317326,0.38733439227717886 l -7.586243629877598 7.267449789649185" fill="#ff840c" stroke="none" /><path d="M 115.16444852881244 85.47280134310134 l 13.634342873285219 -13.061392051293806 a39.88108227575698,39.88108227575698 0 0,0 0.4693512775589323,0.4984347919013648 l -13.856549984580411 12.825415799447946" fill="#fff016" stroke="none" /><path d="M 115.41159269507618 85.73525988315684 l 7.719254654564978 -7.144826866484808 a31.518338432189097,31.518338432189097 0 0,0 0.36411530329966135,0.40022650193911213 l -7.8407676587065165 7.011262788988024" fill="#ff840c" stroke="none" /><path d="M 115.6541949942343 86.00192230759917 l 7.824222991207303 -6.996468445290745 a31.496143869159095,31.496143869159095 0 0,0 0.35693970327754027,0.4061318598122499 l -7.943173758443433 6.861124307667197" fill="#ff840c" stroke="none" /><path d="M 115.8921839302757 86.27271002978787 l 8.746301213502791 -7.554846675027631 a32.55739993253225,32.55739993253225 0 0,0 0.36170563820633106,0.42608833231117027 l -8.874701415216235 7.403591560266908" fill="#ff920d" stroke="none" /><path d="M 116.1254893667686 86.54754324733833 l 8.080845928325884 -6.741329078654193 a31.523572998941454,31.523572998941454 0 0,0 0.34308632751768503,0.4185095345150382 l -8.195379075082196 6.6016172624406595" fill="#ff840c" stroke="none" /><path d="M 116.35404254752997 86.82634096563983 l 11.44246783774932 -9.21724212029208 a35.69311479986507,35.69311479986507 0 0,0 0.38027371312830466,0.4804634139755089 l -11.599007981519184 9.019458762401891" fill="#ffbb11" stroke="none" /><path d="M 116.57777611688842 87.10902102172516 l 6.648807542115027 -5.170152959701538 a29.422417904544766,29.422417904544766 0 0,0 0.3066208561840411,0.4013765434066242 l -6.736580375653375 5.055255503054031" fill="#ff6809" stroke="none" /><path d="M 116.7966241395341 87.39550010848427 l 17.69597925154541 -13.279392734125652 a43.12441983551828,43.12441983551828 0 0,0 0.4392488718779317,0.5959254548908374 l -17.921330143007165 12.973660969965941" fill="#e7ff1a" stroke="none" /><path d="M 117.01052211995028 87.68569379921539 l 9.374840893291529 -6.786661839628848 a32.57352239812951,32.57352239812951 0 0,0 0.32400557222216203,0.45575441365992864 l -9.48996156404365 6.624730199259415" fill="#ff920d" stroke="none" /><path d="M 117.21940702142032 87.97951657250589 l 8.641909294993846 -6.032723852404323 a31.53927669919853,31.53927669919853 0 0,0 0.30609658498656855,0.4466040653026767 l -8.74419561679574 5.883485052031598" fill="#ff850c" stroke="none" /><path d="M 117.42321728460499 88.27688183743584 l 9.591862300259628 -6.453833026828224 a32.560959437923856,32.560959437923856 0 0,0 0.3080508040766218,0.46642817997682046 l -9.701237543256973 6.288224968512345" fill="#ff920d" stroke="none" /><path d="M 117.62189284568427 88.57770195909679 l 11.465801718372747 -7.431994147962843 a34.6637895936813,34.6637895936813 0 0,0 0.31937285845618635,0.5021071799149336 l -11.591692268454825 7.234073293369238" fill="#ffae10" stroke="none" /><path d="M 117.81537515405839 88.88188828441811 l 8.920580557358177 -5.567102031076935 a31.515197692137683,31.515197692137683 0 0,0 0.28248427677054677,0.4614168365871157 l -9.014832798584125 5.413148078365265" fill="#ff840c" stroke="none" /><line stroke="#e1ed5e" stroke-width="0.3" x1="172.87174338648825" x2="177.1583165268699" y1="56.24261187166439" y2="53.66864786411523" /><path d="M 173.72905801456457 55.72781907015455 a86.0,86.0 0 0,1 12.242430191666344,42.057860355516425" fill="none" id="id27" stroke="none" /><text fill="#e1ed5e" style="font-size:6.75px; font-family:Arial;" text-anchor="middle"><textPath startOffset="22.145653131862474" xlink:href="#id27">March</textPath></text><path d="M 118.00360718960297 89.18935116829356 l 8.369595512751575 -5.025701627395851 a30.762571684483582,30.762571684483582 0 0,0 0.26796586214807827,0.45506461686050215 l -8.454635085029421 4.881285842241792" fill="#ff7a0b" stroke="none" /><path d="M 118.18653347947321 89.5 l 5.477094138257255 -3.1622017750997484 a27.324403550199495,27.324403550199495 0 0,0 0.231042971009852,0.4082307916645102 l -5.530570474288482 3.06771421333612" fill="#ff4b07" stroke="none" /><path d="M 118.36410011445183 89.81374322990088 l 38.54279373738539 -21.379037970774814 a65.07505205485826,65.07505205485826 0 0,0 0.5334748969175043,0.9815337237983304 l -38.904113983918236 20.714249413501882" fill="#35ff6a" stroke="none" /><path d="M 118.53625476483649 90.13048839642627 l 0.9593883880784791 -0.5108202788859307 a22.086905440459713,22.086905440459713 0 0,0 0.17531947229704914,0.33619820486850693 l -0.9680159293504729 0.49427583091292565" fill="#ff0000" stroke="none" /><path d="M 118.70294669586156 90.45014215332178 l 4.7012455378328 -2.4004894693181074 a26.278641804413322,26.278641804413322 0 0,0 0.20169494127204837,0.40352499262889696 l -4.741760392316585 2.31943262052546" fill="#ff3c05" stroke="none" /><path d="M 118.8641267826498 90.77261029715802 l 9.439602534237265 -4.61738262401069 a31.508392755359615,31.508392755359615 0 0,0 0.233493307670457,0.4879112097174006 l -9.517475099867635 4.4546589122281866" fill="#ff840c" stroke="none" /><path d="M 119.0197475246899 91.09779779509293 l 9.51226004501839 -4.452218003235184 a31.50263473193202,31.50263473193202 0 0,0 0.22504212418031552,0.49175765497112733 l -9.587286634053758 4.288271366049372" fill="#ff840c" stroke="none" /><path d="M 119.16976305983485 91.42560881287824 l 9.592925090108473 -4.290793375724381 a31.5088115206998,31.5088115206998 0 0,0 0.21660975245249486,0.49564550388432593 l -9.665168724577939 4.125485802064206" fill="#ff840c" stroke="none" /><path d="M 119.31412917781788 91.75594674310238 l 9.88287308989609 -4.218410850116759 a31.745518629241452,31.745518629241452 0 0,0 0.20963252312673325,0.5030417414637068 l -9.953831457559307 4.048136599211774" fill="#ff870c" stroke="none" /><path d="M 119.4528033332814 92.08871423366111 l 9.717689801293163 -3.9520998433750565 a31.490595228401595,31.490595228401595 0 0,0 0.19935245027472132,0.5024984013512728 l -9.784100926534009 3.7847004248102185" fill="#ff840c" stroke="none" /><path d="M 119.58574465831526 92.42381321644754 l 35.465107914132865 -13.718665618477798 a59.02598671583282,59.02598671583282 0 0,0 0.3574425889443034,0.948158933908985 l -35.69538118689161 13.107838404374656" fill="#3aff2e" stroke="none" /><path d="M 119.71291397450082 92.76114493625339 l 23.84392891489889 -8.755820970379936 a46.40073516581944,46.40073516581944 0 0,0 0.26815168235999387,0.7500679803344011 l -23.99072076730283 8.345218033664619" fill="#c1ff1e" stroke="none" /><path d="M 119.83427380445688 93.10060997987247 l 35.66407895753345 -12.405817972592224 a58.76017541614806,58.76017541614806 0 0,0 0.32322175673953457,0.9555476910580522 l -35.87178613584535 11.79176860706001" fill="#3dff2e" stroke="none" /><path d="M 119.94978838288452 93.4421083053983 l 15.952398049332198 -5.243870093702204 a37.79217606756081,37.79217606756081 0 0,0 0.19730266497918897,0.6180477878946498 l -16.040065430088642 4.969253272116167" fill="#ffd614" stroke="none" /><path d="M 120.05942366710727 93.78553927170692 l 10.048128919804466 -3.1129360245450997 a31.519280654204522,31.519280654204522 0 0,0 0.15568075144250332,0.5182105891317715 l -10.100085991250596 2.939987831822605" fill="#ff840c" stroke="none" /><path d="M 120.16314734710363 94.1308016681162 l 21.235722554081956 -6.181409342756631 a43.11709144206498,43.11709144206498 0 0,0 0.20076448659824989,0.7124423368926549 l -21.33870553275479 5.815959081960963" fill="#e7ff1a" stroke="none" /><path d="M 120.26092885502905 94.47779374421319 l 10.199165914843865 -2.779828023766961 a31.571207556387918,31.571207556387918 0 0,0 0.13802709320826656,0.5241113549833165 l -10.245382488856862 2.6043361644108463" fill="#ff850c" stroke="none" /><path d="M 120.35273937422433 94.82641323984039 l 42.692019264634176 -10.852144351227322 a65.04971675177686,65.04971675177686 0 0,0 0.26581319494688666,1.0846085443584714 l -42.87201998609735 10.117679982260755" fill="#35ff69" stroke="none" /><path d="M 120.43855184770803 95.1765574152323 l 25.23659452259162 -5.955767591647364 a46.92984517314784,46.92984517314784 0 0,0 0.17830913874274162,0.7856629655445758 l -25.335114522892027 5.521670292163762" fill="#bbff1f" stroke="none" /><path d="M 120.51834098615036 95.52812308129327 l 6.173208715541221 -1.345422107373185 a27.318122070096667,27.318122070096667 0 0,0 0.09592861225849122,0.4590531362054393 l -6.1953950386240795 1.2392525198823412" fill="#ff4b07" stroke="none" /><path d="M 120.592083275326 95.88100663000786 l 19.587919412258206 -3.9181324741294055 a40.97594425768027,40.97594425768027 0 0,0 0.13204733691223264,0.6909274646182127 l -19.652293041452594 3.5813024444778785" fill="#fffd17" stroke="none" /><path d="M 120.65975698304385 96.23510406497455 l 10.363884047294492 -1.8886449125591513 a31.534565589121407,31.534565589121407 0 0,0 0.09247914176710234,0.5333951143370694 l -10.39477800655383 1.7104567653014893" fill="#ff840c" stroke="none" /><path d="M 120.7213421655516 96.59031103205396 l 25.87357091589074 -4.257486248161368 a47.221515232589255,47.221515232589255 0 0,0 0.12475139067020156,0.8009934187120362 l -25.942843798699208 3.8127046475178905" fill="#b7ff1f" stroke="none" /><path d="M 120.77682067341334 96.94652285012252 l 16.701239773181307 -2.4545071078796616 a37.880640245675664,37.880640245675664 0 0,0 0.08902939583444738,0.6441723583141505 l -16.740913685570966 2.1674464413654255" fill="#ffd714" stroke="none" /><path d="M 120.82617615685814 97.30363454192243 l 20.061022204673865 -2.5973009600515233 a41.22845975781405,41.22845975781405 0 0,0 0.08484800083143504,0.7026631637157268 l -20.102652291764965 2.2525441194123834" fill="#feff18" stroke="none" /><path d="M 120.86939407059847 97.66154086499901 l 24.53528608169688 -2.749229981163571 a45.68883408749869,45.68883408749869 0 0,0 0.0806464652345561,0.7801813945686895 l -24.578864939413105 2.32764406431195" fill="#c9ff1d" stroke="none" /><path d="M 120.9064616781168 98.02013634271609 l 18.86264381102506 -1.7863119803209024 a39.9470378168367,39.9470378168367 0 0,0 0.058791343946417704,0.6832445334998203 l -18.890528777669218 1.46224639944542" fill="#fff116" stroke="none" /><path d="M 120.93736805541906 98.37931529534042 l 20.159256688447034 -1.5604539637357233 a41.21956099433504,41.21956099433504 0 0,0 0.04855279340546661,0.7059469602421005 l -20.18307344301757 1.2141635793392886" fill="#feff18" stroke="none" /><path d="M 120.96210409425399 98.7389718711861 l 10.483473019683828 -0.6306597041041693 a31.502425349261927,31.502425349261927 0 0,0 0.027839759178346423,0.5400838906084853 l -10.492754368318746 0.45060402011895334" fill="#ff840c" stroke="none" /><path d="M 120.98066250479742 99.09900007780936 l 26.198415542620843 -1.1250726882443314 a47.22256214593972,47.22256214593972 0 0,0 0.02782828511270452,0.8101901577339814 l -26.213868514730393 0.6751762659462299" fill="#b7ff1f" stroke="none" /><path d="M 120.99303781780057 99.45929381324524 l 16.80345863255048 -0.43279748840321297 a37.8090313725034,37.8090313725034 0 0,0 0.011142084611281872,0.6489705696400558 l -16.80841214876043 0.14428000279409073" fill="#ffd614" stroke="none" /><line stroke="#e1ed5e" stroke-width="0.3" x1="184.99686870605535" x2="189.99668451229388" y1="99.2704041080226" y2="99.22748670261217" /><path d="M 185.99683186730306 99.26182062694052 a86.0,86.0 0 0,1 -10.086455211305974,41.156179273409016" fill="none" id="id28" stroke="none" /><text fill="#e1ed5e" style="font-size:6.75px; font-family:Arial;" text-anchor="middle"><textPath startOffset="21.40746469413373" xlink:href="#id28">April</textPath></text><path d="M 120.99922638620191 99.81974689727618 l 22.00635482374551 -0.18889808908522665 a43.007165540265454,43.007165540265454 0 0,0 0.0,0.7383023836181044 l -22.00635482374551 -0.18889808908522399" fill="#e8ff1a" stroke="none" /><path d="M 120.99922638620191 100.18025310272382 l 20.21567550658568 0.17352726080016256 a41.21642025428362,41.21642025428362 0 0,0 -0.012146220761984048,0.7074564663510179 l -20.209717854225026 -0.5205306431202515" fill="#feff18" stroke="none" /><path d="M 120.99303781780057 100.54070618675476 l 18.92087149926384 0.4873345328692178 a39.927146463177735,39.927146463177735 0 0,0 -0.023529092133552646,0.6850238449768649 l -18.90971772013344 -0.8120646424101934" fill="#fff016" stroke="none" /><path d="M 120.98066250479742 100.90099992219065 l 19.911214192119047 0.8550732100913572 a40.92956599625438,40.92956599625438 0 0,0 -0.036170842339180574,0.7017046782619148 l -19.893601760323293 -1.1967496817300027" fill="#fffd17" stroke="none" /><path d="M 120.96210409425399 101.26102812881392 l 10.495072787474102 0.6313575173296688 a31.51404608745216,31.51404608745216 0 0,0 -0.037120603231672086,0.5397254241359645 l -10.482688223077364 -0.8114263656199767" fill="#ff840c" stroke="none" /><path d="M 120.93736805541906 101.62068470465957 l 22.079518915890848 1.7090944047269712 a43.145567485197816,43.145567485197816 0 0,0 -0.06349872321988621,0.737951416176964 l -22.04692656997322 -2.0878668682795927" fill="#e7ff1a" stroke="none" /><path d="M 120.9064616781168 101.97986365728391 l 18.94081257474629 1.7937146435170577 a40.02555631812207,40.02555631812207 0 0,0 -0.07065007677633904,0.6834754042280199 l -18.907230105488285 -2.118594570028009" fill="#fff216" stroke="none" /><path d="M 120.86939407059847 102.33845913500097 l 22.024587369840596 2.467900953683703 a43.162422790140404,43.162422790140404 0 0,0 -0.08882808880801027,0.7356240017093535 l -21.97897719477292 -2.845618632316465" fill="#e6ff1a" stroke="none" /><path d="M 120.82617615685814 102.69636545807757 l 11.97182666585516 1.5499926462147873 a33.071748461618995,33.071748461618995 0 0,0 -0.07772724446131851,0.5623956211385711 l -11.94345490483863 -1.7552765755534434" fill="#ff990e" stroke="none" /><path d="M 120.77682067341334 103.0534771498775 l 19.7379606503109 2.900800501591079 a40.94998080658858,40.94998080658858 0 0,0 -0.10818303962457707,0.6946127196660534 l -19.685256118548057 -3.2392014031885834" fill="#fffd17" stroke="none" /><path d="M 120.7213421655516 103.40968896794604 l 19.937313344247347 3.2806773237583777 a41.20542766410367,41.20542766410367 0 0,0 -0.12084018014306482,0.6969740470369696 l -19.878058346612047 -3.6224444037159356" fill="#feff18" stroke="none" /><path d="M 120.65975698304385 103.76489593502545 l 10.415690593140846 1.898085790979198 a31.587225330650135,31.587225330650135 0 0,0 -0.10179165022114253,0.532616927014187 l -10.381572650637546 -2.0766052830266992" fill="#ff850c" stroke="none" /><path d="M 120.592083275326 104.11899336999214 l 25.70170154192278 5.141060126517022 a47.210836716414434,47.210836716414434 0 0,0 -0.16578262730312116,0.7933298856320681 l -25.609661203795294 -5.581506463434499" fill="#b7ff1f" stroke="none" /><path d="M 120.51834098615036 104.47187691870673 l 18.55031318249213 4.042954418759347 a39.985773610804145,39.985773610804145 0 0,0 -0.15192525839792165,0.6694107205926685 l -18.478177062536545 -4.360799473291033" fill="#fff116" stroke="none" /><path d="M 120.43855184770803 104.8234425847677 l 21.555529715653336 5.0870463202297485 a43.14766131189876,43.14766131189876 0 0,0 -0.17631464486719806,0.7194239185782759 l -21.46502754426984 -5.456326063416124" fill="#e7ff1a" stroke="none" /><path d="M 120.35273937422433 105.17358676015961 l 21.440980446969924 5.4502133853179275 a43.12284946549258,43.12284946549258 0 0,0 -0.18853005707649206,0.715879334793693 l -21.344260909088703 -5.817473224484424" fill="#e7ff1a" stroke="none" /><path d="M 120.26092885502905 105.52220625578681 l 19.28816562448794 5.25707531161688 a40.9917526492724,40.9917526492724 0 0,0 -0.190868351740557,0.6773244454583515 l -19.195078780672805 -5.58740768097824" fill="#fffd18" stroke="none" /><path d="M 120.16314734710363 105.8691983318838 l 21.318651036080997 6.205548615253902 a43.203461793478894,43.203461793478894 0 0,0 -0.21339152599058175,0.7103109881901497 l -21.208983190086784 -6.570597207034775" fill="#e6ff1a" stroke="none" /><path d="M 120.05942366710727 106.21446072829308 l 10.041128760324511 3.1107673572442875 a31.51195226075122,31.51195226075122 0 0,0 -0.1645153258343351,0.5153419150086087 l -9.986248718712922 -3.28267830594428" fill="#ff840c" stroke="none" /><path d="M 119.94978838288452 106.5578916946017 l 24.918032237958858 8.191052131626686 a47.229785848057986,47.229785848057986 0 0,0 -0.25979660959361434,0.7680425134312283 l -24.77375020679288 -8.617596319532074" fill="#b7ff1f" stroke="none" /><path d="M 119.83427380445688 106.89939002012753 l 17.905259999027155 6.228378884096953 a39.95761164167646,39.95761164167646 0 0,0 -0.23091661687066709,0.6459148751836142 l -17.795703212112546 -6.534828715661489" fill="#fff116" stroke="none" /><path d="M 119.71291397450082 107.23885506374661 l 20.75957359704582 7.6232029748915275 a43.11499761536403,43.11499761536403 0 0,0 -0.2610907030518032,0.6925741092864517 l -20.625652210179574 -7.9784453643721385" fill="#e7ff1a" stroke="none" /><path d="M 119.58574465831526 107.57618678355244 l 21.94097204034114 8.487239330966805 a44.52529458978445,44.52529458978445 0 0,0 -0.28186912668045694,0.7104943297763412 l -21.792044238694558 -8.86263467795671" fill="#d6ff1c" stroke="none" /><path d="M 119.4528033332814 107.91128576633889 l 18.50487480099551 7.525771484592696 a40.9766770970256,40.9766770970256 0 0,0 -0.27059076619672195,0.6493193337624892 l -18.372958190262302 -7.842323327796463" fill="#fffd17" stroke="none" /><path d="M 119.31412917781788 108.2440532568976 l 20.335282367698806 8.679922832135706 a43.110286505286915,43.110286505286915 0 0,0 -0.2963649860906983,0.6781410864536578 l -20.18328349959114 -9.027725988365207" fill="#e7ff1a" stroke="none" /><path d="M 119.16976305983485 108.57439118712176 l 9.588051170467956 4.288613333462934 a31.503472262612398,31.503472262612398 0 0,0 -0.2250481071618903,0.4917707288656328 l -9.51301859845101 -4.452573044543256" fill="#ff840c" stroke="none" /><path d="M 119.0197475246899 108.90220220490707 l 23.720439933832 11.102363604259665 a47.1901078320751,47.1901078320751 0 0,0 -0.3497028379894903,0.7307444330090697 l -23.526357837882596 -11.507920539333838" fill="#b8ff1f" stroke="none" /><path d="M 118.8641267826498 109.22738970284198 l 17.0030399819686 8.317038888379903 a39.928193376528206,39.928193376528206 0 0,0 -0.3064585558917881,0.6131224002316225 l -16.85776151286508 -8.60769314477527" fill="#fff016" stroke="none" /><path d="M 118.70294669586154 109.54985784667822 l 19.706238361416116 10.062145719846534 a43.126513662219224,43.126513662219224 0 0,0 -0.34232580193969314,0.6564548625682552 l -19.53060449050147 -10.39894682551929" fill="#e7ff1a" stroke="none" /><path d="M 118.5362547648365 109.86951160357373 l 23.204594428203663 12.3551395290395 a47.28883176102458,47.28883176102458 0 0,0 -0.3876662999484877,0.7132623281398667 l -22.989082778639837 -12.75165669065397" fill="#b7ff1f" stroke="none" /><line stroke="#e1ed5e" stroke-width="0.3" x1="174.33088141563837" x2="178.70328620479359" y1="141.23008692659167" y2="143.65538615756765" /><path d="M 175.20536237346943 141.71514677278685 a86.0,86.0 0 0,1 -30.301960400862466,31.631185727798858" fill="none" id="id29" stroke="none" /><text fill="#e1ed5e" style="font-size:6.75px; font-family:Arial;" text-anchor="middle"><textPath startOffset="22.145653131862474" xlink:href="#id29">May</textPath></text><path d="M 118.36410011445183 110.18625677009912 l 17.45228686498284 9.680489331042285 a40.95730920004188,40.95730920004188 0 0,0 -0.3463167415443038,0.6119084988795264 l -17.28353675841716 -9.978654600020935" fill="#fffd17" stroke="none" /><path d="M 118.18653347947321 110.5 l 19.150336432423398 11.05645189433154 a43.11290378866309,43.11290378866309 0 0,0 -0.3755468350282153,0.6377606282581331 l -18.957715887265415 -11.383563690883223" fill="#e7ff1a" stroke="none" /><path d="M 118.00360718960297 110.81064883170644 l 9.00558819704834 5.407596960762002 a31.504414484627823,31.504414484627823 0 0,0 -0.28238762224200614,0.46125895867861655 l -8.911432610350928 -5.5613930355651755" fill="#ff840c" stroke="none" /><path d="M 117.81537515405839 111.11811171558189 l 22.251270907384814 13.886438743089004 a47.228843626042554,47.228843626042554 0 0,0 -0.43514027079078993,0.6841127805610243 l -22.009612944968133 -14.2663651983287" fill="#b7ff1f" stroke="none" /><path d="M 117.62189284568427 111.42229804090321 l 15.868251410077248 10.285608849237494 a39.910186466900086,39.910186466900086 0 0,0 -0.3775799375757045,0.5717041499277926 l -15.689347033580816 -10.556492877504347" fill="#fff016" stroke="none" /><path d="M 117.423217284605 111.72311816256416 l 18.36046557542748 12.353740640691754 a43.129654402270646,43.129654402270646 0 0,0 -0.41858410546624086,0.610726719412793 l -18.145691733145917 -12.667102095174592" fill="#e7ff1a" stroke="none" /><path d="M 117.21940702142032 112.02048342749411 l 21.907802340606978 15.293347479416363 a47.717752160712834,47.717752160712834 0 0,0 -0.47464371230772656,0.6676458226213906 l -21.64204352976929 -15.667170528747258" fill="#b2ff20" stroke="none" /><path d="M 117.01052211995028 112.31430620078461 l 16.17066559243583 11.706314842752686 a40.96317191480452,40.96317191480452 0 0,0 -0.4172352259055781,0.5660597162862187 l -15.967328346946426 -11.982180868307783" fill="#fffd17" stroke="none" /><path d="M 116.79662413953412 112.60449989151573 l 17.702343205660384 13.28416836393587 a43.13237637698187,43.13237637698187 0 0,0 -0.4494969181958282,0.588405894963263 l -17.47169431011025 -13.58609517214001" fill="#e7ff1a" stroke="none" /><path d="M 116.57777611688842 112.89097897827486 l 8.300885388813345 6.454818685797672 a31.515197692137683,31.515197692137683 0 0,0 -0.33576226993803726,0.4242246595787303 l -8.188856688233745 -6.5963632892910855" fill="#ff840c" stroke="none" /><path d="M 116.35404254752997 113.17365903436017 l 14.778750240569043 11.904715060963923 a39.97718892133028,39.97718892133028 0 0,0 -0.43509112789849214,0.5307404312083415 l -14.572212293431923 -12.156657773870759" fill="#fff116" stroke="none" /><path d="M 116.1254893667686 113.45245675266167 l 20.599886663764938 17.185158115270394 a47.82694522316703,47.82694522316703 0 0,0 -0.5313469681624908,0.6259253924424667 l -20.301845132095334 -17.536250290162418" fill="#b0ff20" stroke="none" /><path d="M 115.89218393027572 113.72728997021213 l 7.955137085435048 6.871457944588516 a31.51195226075122,31.51195226075122 0 0,0 -0.3571188567201918,0.40633570354324255 l -7.83600716475627 -7.0070059259430515" fill="#ff840c" stroke="none" /><path d="M 115.6541949942343 113.99807769240083 l 16.869317578441333 15.084647800016434 a43.63007898379611,43.63007898379611 0 0,0 -0.504036070186634,0.5540239352585402 l -16.60788380741282 -15.372009310832647" fill="#e1ff1b" stroke="none" /><path d="M 115.41159269507618 114.26474011684316 l 15.97663670636867 14.787736418078202 a42.76993497504857,42.76993497504857 0 0,0 -0.5033495200267978,0.5345397472295256 l -15.72043135260561 -15.059817625252226" fill="#ebff1a" stroke="none" /><path d="M 115.16444852881244 114.52719865689866 l 15.976788750350607 15.305402213252986 a43.12494329219352,43.12494329219352 0 0,0 -0.5167049967589931,0.5301848459004768 l -15.711696952440807 -15.5774097512212" fill="#e7ff1a" stroke="none" /><path d="M 114.91283532996324 114.78537596483092 l 7.4564300558121035 7.392700267342042 a31.500017448555845,31.500017448555845 0 0,0 -0.38401233251797073,0.38073019555187715 l -7.328425803164168 -7.519610473122581" fill="#ff840c" stroke="none" /><path d="M 114.65682725009322 115.03919595460226 l 18.57735299192855 19.062000745192186 a47.617248479067555,47.617248479067555 0 0,0 -0.5902895203090193,0.5654840075668814 l -18.247390985754215 -19.37809688306465" fill="#b3ff20" stroke="none" /><path d="M 114.39649973595853 115.28858382429668 l 13.049742830674191 13.858374661303975 a40.03550199495155,40.03550199495155 0 0,0 -0.5043905675411644,0.4668563792021595 l -12.80992249181906 -14.080348786638513" fill="#fff216" stroke="none" /><path d="M 114.13192950727249 115.5334660781643 l 20.87089161965601 22.940765932078392 a52.01407516837857,52.01407516837857 0 0,0 -0.6656190997705248,0.595200703425852 l -20.474007493062107 -23.295662165387633" fill="#82ff25" stroke="none" /><path d="M 113.86319453409587 115.77377054828091 l 18.075606578840556 20.56672219338678 a48.38097176823665,48.38097176823665 0 0,0 -0.6285391374947105,0.5429171368687529 l -17.71988796158299 -20.87398346272025" fill="#aaff21" stroke="none" /><path d="M 113.59037401385872 116.0094264158162 l 12.912536694801155 15.21093575836407 a40.95259808996475,40.95259808996475 0 0,0 -0.5398442968597523,0.45035731266816076 l -12.649518063779507 -15.4303552549441" fill="#fffd17" stroke="none" /><path d="M 113.31354834802062 116.24036423190432 l 14.019105414547354 17.101029131092652 a43.11290378866309,43.11290378866309 0 0,0 -0.5763768822102513,0.46428841672985677 l -13.723477761981849 -17.339165841615912" fill="#e7ff1a" stroke="none" /><path d="M 113.03279911837588 116.46651593811092 l 7.344419102057884 9.279433612207278 a32.834203822396965,32.834203822396965 0 0,0 -0.4449660896987654,0.34600832270309434 l -7.184043067723889 -9.404142986531165" fill="#ff960d" stroke="none" /><path d="M 112.7482090630111 116.68781488649013 l 16.10971085105837 21.088128632701043 a47.537368990426565,47.537368990426565 0 0,0 -0.65272658397312,0.48981819730752163 l -15.745331278174485 -21.36156585727258" fill="#b4ff20" stroke="none" /><path d="M 112.45986205192187 116.90419585922612 l 12.17303027925616 16.515053471968116 a41.51657031186386,41.51657031186386 0 0,0 -0.577315567390886,0.41793194948397283 l -11.887733701491307 -16.721586192825168" fill="#faff18" stroke="none" /><path d="M 112.16784306229584 117.11559508785304 l 11.383100097391196 16.011755831660746 a40.64564309560645,40.64564309560645 0 0,0 -0.5721453153076524,0.3994018651291971 l -11.106559690909785 -16.204802512595066" fill="#fff917" stroke="none" /><path d="M 111.8722381534696 117.32195027204791 l 20.66100765786942 30.145027634526024 a57.54586062093594,57.54586062093594 0 0,0 -0.8196276436368773,0.5514820574584207 l -20.14048372613554 -30.495259366041562" fill="#49ff2c" stroke="none" /><path d="M 111.5731344415666 117.5232005979908 l 10.986678240497534 16.635231162816947 a40.93584747635721,40.93584747635721 0 0,0 -0.5896991436825566,0.38223586039210494 l -10.69949346455797 -16.821380864912946" fill="#fffd17" stroke="none" /><path d="M 111.27062007382361 117.71928675628689 l 5.633240466165958 8.856389669184413 a31.496143869159095,31.496143869159095 0 0,0 -0.458697647618512,0.28626125724528684 l -5.480378689757731 -8.951786723271248" fill="#ff840c" stroke="none" /><path d="M 110.96478420261333 117.91015095944535 l 5.479121446347087 8.949733110645472 a31.493735968453013,31.493735968453013 0 0,0 -0.4635086743560802,0.2783236412649091 l -5.324680015433571 -9.042470752446304" fill="#ff840c" stroke="none" /><line stroke="#e1ed5e" stroke-width="0.3" x1="143.1302829299769" x2="145.66735839644613" y1="173.24464959558577" y2="177.55315839532614" /><path d="M 143.63769802327073 174.10635135553383 a86.0,86.0 0 0,1 -40.68552437913181,11.842963189579606" fill="none" id="id30" stroke="none" /><text fill="#e1ed5e" style="font-size:6.75px; font-family:Arial;" text-anchor="middle"><textPath startOffset="21.407464694133747" xlink:href="#id30">June</textPath></text><path d="M 110.65571695917076 118.09573695890943 l 13.486604103539431 22.90320222109111 a47.57903614177533,47.57903614177533 0 0,0 -0.7073587359716468,0.4083937566268652 l -13.091452899707384 -23.131342874994147" fill="#b3ff20" stroke="none" /><path d="M 110.34350942703117 118.27599006163325 l 9.309328650526918 16.44869172283833 a39.900345481405665,39.900345481405665 0 0,0 -0.598991228932993,0.33225033750208316 l -9.025593233437831 -16.60607497577356" fill="#fff016" stroke="none" /><path d="M 110.02825361518725 118.45085714620011 l 14.979263162557242 27.560157069533844 a52.367827189502954,52.367827189502954 0 0,0 -0.7935251573646117,0.42250745081442126 l -14.503949189406077 -27.813234988070835" fill="#7fff26" stroke="none" /><path d="M 109.71004243097381 118.62028667847754 l 16.34091664786901 31.335862302911906 a56.34065397187293,56.34065397187293 0 0,0 -0.8614023952963302,0.43983820077337155 l -15.800587030859099 -31.611758455358114" fill="#55ff2b" stroke="none" /><path d="M 109.3889696526874 118.78422872680471 l 8.913100050885099 17.83217075079142 a40.93563809368712,40.93563809368712 0 0,0 -0.6312660398360844,0.30878385322848667 l -8.605673761786944 -17.982548354117128" fill="#fffd17" stroke="none" /><path d="M 109.06512990194946 118.94263497670748 l 8.441534938730854 17.639561342977967 a40.5553991647958,40.5553991647958 0 0,0 -0.6305616924167581,0.2951347109773967 l -8.13748453244259 -17.781872285525896" fill="#fff817" stroke="none" /><path d="M 108.73861861582097 119.09545874513695 l 8.25650315615911 18.041949457788238 a40.84141589214466,40.84141589214466 0 0,0 -0.6400172656430478,0.28627158223116783 l -7.945572487660435 -18.181024790929257" fill="#fffc17" stroke="none" /><path d="M 108.4095320186766 119.2426549942271 l 10.664934326801893 24.40345685478871 a47.63211464864425,47.63211464864425 0 0,0 -0.752054214902435,0.32100722443394364 l -10.244445036729026 -24.58293872888206" fill="#b3ff20" stroke="none" /><path d="M 108.07796709384702 119.3841803445677 l 4.037097516940769 9.68756438691037 a31.495096955808624,31.495096955808624 0 0,0 -0.5008403391793722,0.20368740580331335 l -3.870202716570956 -9.755439049292976" fill="#ff840c" stroke="none" /><path d="M 107.74402155503746 119.51999308798841 l 8.161561380742588 20.572466205967018 a43.13227168564682,43.13227168564682 0 0,0 -0.6905841010656874,0.2671327657283643 l -7.807205017183372 -20.709538859833426" fill="#e7ff1a" stroke="none" /><path d="M 107.407793817531 119.65005319985036 l 11.181211614850918 29.65949221624459 a52.697081438226306,52.697081438226306 0 0,0 -0.8492030492791296,0.3118391223831726 l -10.670419413917662 -29.847062187636485" fill="#7bff26" stroke="none" /><path d="M 107.06938296918513 119.77432235084164 l 6.717528537816835 18.790122884385152 a40.95479660800075,40.95479660800075 0 0,0 -0.6640415167663988,0.23098810971838968 l -6.393981249005415 -18.902669426672134" fill="#fffd17" stroke="none" /><path d="M 106.72888874123015 119.89276391827305 l 9.97255239409738 29.4820791467152 a52.12305884816267,52.12305884816267 0 0,0 -0.8500458333211807,0.2794269494683087 l -9.464983823128467 -29.648927017585528" fill="#81ff25" stroke="none" /><path d="M 106.38641147887787 120.00534299687104 l 5.939541287590009 18.60552848736781 a40.53058731838962,40.53058731838962 0 0,0 -0.6646232094429533,0.20590196920602633 l -5.619277445275432 -18.70474704438048" fill="#fff817" stroke="none" /><path d="M 106.0420521117495 120.11202640906438 l 9.125986821121138 30.377442061157012 a52.71864785324601,52.71864785324601 0 0,0 -0.8689539102467145,0.2529398190028354 l -8.603172898492817 -30.529625574462365" fill="#7bff26" stroke="none" /><path d="M 105.69591212413111 120.21278271476187 l 5.126783763913559 18.193146942441924 a39.90170646876127,39.90170646876127 0 0,0 -0.6608836021085503,0.1801267645735266 l -4.813718760870313 -18.278474201159593" fill="#fff016" stroke="none" /><path d="M 105.3480935250658 120.30758222061773 l 4.965318094419519 18.854121563385455 a40.49698139983947,40.49698139983947 0 0,0 -0.6737824257834976,0.17127285782848217 l -4.6409303754106235 -18.936579653049208" fill="#fff717" stroke="none" /><path d="M 104.9986988182912 120.39639698878246 l 7.904904959456055 32.25470979001247 a54.20924308164761,54.20924308164761 0 0,0 -0.905727636545193,0.21374925605617198 l -7.350045169170984 -32.38565518971487" fill="#6bff28" stroke="none" /><path d="M 104.64783097203109 120.47920084513623 l 4.189890223732822 18.461429412395475 a39.93091535123943,39.93091535123943 0 0,0 -0.6697699583574488,0.14597324509050266 l -3.8723578487562373 -18.530634115619694" fill="#fff016" stroke="none" /><path d="M 104.29559338865022 120.5559693870025 l 5.497829020777924 26.30910210093153 a47.87740644665976,47.87740644665976 0 0,0 -0.8059443544074744,0.16121144266955795 l -5.04538818083949 -26.399602940263946" fill="#b0ff20" stroke="none" /><path d="M 103.94208987418118 120.62667999033965 l 5.133136625615904 26.858739882297527 a48.34485325764538,48.34485325764538 0 0,0 -0.8164876315265639,0.148791245098185 l -4.671314260538283 -26.942899301327078" fill="#abff21" stroke="none" /><path d="M 103.58742460773223 120.69131181640829 l 4.126412547679765 23.800051023554396 a45.15511766142822,45.15511766142822 0 0,0 -0.7648900573550268,0.1258623678629622 l -3.7172449872716657 -23.86737938991303" fill="#cfff1d" stroke="none" /><path d="M 103.2317021107853 120.74984581791261 l 6.219703715088346 39.93495956526153 a61.41640396896484,61.41640396896484 0 0,0 -1.043128066646965,0.15330390370930452 l -5.533250542833696 -40.035844542269714" fill="#31ff3f" stroke="none" /><path d="M 102.875027216393 120.80226474461374 l 8.625081649178972 62.406794233841204 a84.0,84.0 0 0,0 -1.4300887124368984,0.18515361519842122 l -7.552515114851298 -62.54565944524002" fill="#4dd2ff" stroke="none" /><path d="M 102.51750503828377 120.84855314841334 l 3.925188327555688 32.50619014465396 a53.74231972733724,53.74231972733724 0 0,0 -0.9168544629998121,0.10273545495453194 l -3.366597962955076 -32.56878136011546" fill="#70ff27" stroke="none" /><path d="M 102.15924093988457 120.88869738790638 l 2.189847909032553 21.18479205000901 a42.297672362650786,42.297672362650786 0 0,0 -0.7228882418453781,0.068458268086829 l -1.8258601038021596 -21.21926207360102" fill="#f1ff19" stroke="none" /><path d="M 101.80034050326958 120.92268563240118 l 2.2783289039131454 26.477635390203773 a47.575476636383726,47.575476636383726 0 0,0 -0.8142905424506041,0.06303123791899283 l -1.8234693666873056 -26.512844395117817" fill="#b3ff20" stroke="none" /><path d="M 101.44090949804482 120.95050786540614 l 1.395031717729548 20.283455008410872 a41.33137134016541,41.33137134016541 0 0,0 -0.7082536862318517,0.04260678301465719 l -1.046633679365231 -20.304413769250218" fill="#fcff18" stroke="none" /><path d="M 101.08105385017728 120.97215588758144 l 0.9560974920784413 18.548035922823374 a39.572661602708024,39.572661602708024 0 0,0 -0.6787168235121962,0.02914702074036354 l -0.6375549079654156 -18.56171551198957" fill="#ffec16" stroke="none" /><path d="M 100.72087961077811 120.9876233191556 l 0.6529974765632338 19.011309047394732 a40.0225202694057,40.0225202694057 0 0,0 -0.6868373067822667,0.017690492643055847 l -0.3265468557102232 -19.019717257387835" fill="#fff216" stroke="none" /><line stroke="#e1ed5e" stroke-width="0.3" x1="101.45913802915013" x2="101.54496967792366" y1="184.9874750549273" y2="189.98673829345242" /><path d="M 101.47630435890484 185.9873277026323 a86.0,86.0 0 0,1 -42.54439059252881,-10.42667462771756" fill="none" id="id31" stroke="none" /><text fill="#e1ed5e" style="font-size:6.75px; font-family:Arial;" text-anchor="middle"><textPath startOffset="22.145653131862474" xlink:href="#id31">July</textPath></text><path d="M 100.36049292484886 120.99690560180557 l 0.5528424015647859 32.200298308762136 a53.20504379587517,53.20504379587517 0 0,0 -0.9133353264136342,0.007839885307466023 l -3.943980380101885e-15 -32.20504379587517" fill="#76ff27" stroke="none" /><path d="M 100.0 121.0 l 3.72445937500108e-15 30.41251875719753 a51.41251875719753,51.41251875719753 0 0,0 -0.8825642505061244,-0.007575752629220145 l 0.5220713256572685 -30.408037402762748" fill="#89ff24" stroke="none" /><path d="M 99.63950707515114 120.99690560180557 l -0.3277617399126174 19.09047817155998 a40.093291611897584,40.093291611897584 0 0,0 -0.6880518329527149,-0.017721774528981226 l 0.6554268869360762 -19.082038679680952" fill="#fff216" stroke="none" /><path d="M 99.27912038922189 120.98762331915562 l -1.0904710337920933 31.747874340592684 a52.766596484697615,52.766596484697615 0 0,0 -0.9050080359313534,-0.03886493907280828 l 1.6353048303242852 -31.724476833094048" fill="#7aff26" stroke="none" /><path d="M 98.91894614982273 120.97215588758144 l -1.1347392564688794 22.01363842746715 a43.042865285516534,43.042865285516534 0 0,0 -0.7375818177807327,-0.044371090580460376 l 1.5124654263820585 -21.990915359061997" fill="#e8ff1a" stroke="none" /><path d="M 98.55909050195518 120.95050786540614 l -1.516401912333954 22.048151000862646 a43.100236137122394,43.100236137122394 0 0,0 -0.7376933904852665,-0.05710213392262991 l 1.8946642975944565 -22.018871099944963" fill="#e7ff1a" stroke="none" /><path d="M 98.19965949673042 120.92268563240118 l -2.1700336518523895 25.219080405613912 a46.312270987704586,46.312270987704586 0 0,0 -0.7914997275294603,-0.07495584711620433 l 2.602632942766865 -25.178112802992523" fill="#c2ff1e" stroke="none" /><path d="M 97.84075906011543 120.88869738790638 l -3.7458409160803168 36.2376129101288 a57.43070015238405,57.43070015238405 0 0,0 -0.9797789528823195,-0.10978627529379288 l 4.367355770563435 -36.16797087432804" fill="#4aff2c" stroke="none" /><path d="M 97.48249496171623 120.84855314841334 l -3.3444882219519565 27.69716023970403 a48.89835634603976,48.89835634603976 0 0,0 -0.8324879460379166,-0.10778223160392224 l 3.8194539898806674 -27.63566641189971" fill="#a4ff21" stroke="none" /><path d="M 97.12497278360702 120.80226474461374 l -2.593190281419194 18.763033080055564 a39.94138448474415,39.94138448474415 0 0,0 -0.6783851949037606,-0.0996992621736647 l 2.9149005819306395 -18.715752744583018" fill="#fff116" stroke="none" /><path d="M 96.76829788921471 120.74984581791261 l -5.080010872899946 32.617313957931444 a54.010538927728085,54.010538927728085 0 0,0 -0.9148935128010071,-0.1505453793735904 l 5.639181888754017 -32.52530258006219" fill="#6dff28" stroke="none" /><path d="M 96.41257539226777 120.69131181640829 l -5.63719672103289 32.51385266018452 a53.99891818953785,53.99891818953785 0 0,0 -0.9119781289355765,-0.1661927946819338 l 6.1945095835195225 -32.41229169157122" fill="#6dff28" stroke="none" /><path d="M 96.05791012581884 120.62667999033965 l -8.714668500506756 45.59882806304198 a67.42411623064665,67.42411623064665 0 0,0 -1.134983907023941,-0.2270285684829704 l 9.496148893061655 -45.44251009789615" fill="#38ff84" stroke="none" /><path d="M 95.70440661134978 120.55596938700252 l -5.00117630917475 23.932439085604912 a45.44940500424582,45.44940500424582 0 0,0 -0.7623327897520797,-0.16614688337457223 l 5.411271515545966 -23.843060744096622" fill="#ccff1d" stroke="none" /><path d="M 95.35216902796893 120.47920084513623 l -7.119889220400676 31.371545612810422 a53.169344050624076,53.169344050624076 0 0,0 -0.888353011147875,-0.20964889177105644 l 7.657374385288439 -31.24470057739314" fill="#76ff27" stroke="none" /><path d="M 95.00130118170881 120.39639698878247 l -9.850585482891377 40.19375029073536 a62.38322844812544,62.38322844812544 0 0,0 -1.0379223719660478,-0.26383580818990887 l 10.539113148082803 -40.01872925071019" fill="#32ff4a" stroke="none" /><path d="M 94.6519064749342 120.30758222061772 l -6.478085344902895 24.59834521539626 a46.43706305908081,46.43706305908081 0 0,0 -0.7691273437103195,-0.20962907768562228 l 6.899394089547909 -24.483515643566495" fill="#c0ff1e" stroke="none" /><path d="M 94.30408787586889 120.21278271476187 l -10.646679539810819 37.7813097326751 a60.25275977991556,60.25275977991556 0 0,0 -0.9931375963901901,-0.28908788016677356 l 11.293677148582615 -37.59297815820581" fill="#2fff31" stroke="none" /><path d="M 93.95794788825049 120.11202640906438 l -11.120328189581148 37.01595585238332 a59.6502611467191,59.6502611467191 0 0,0 -0.9781488655964747,-0.30303301892173634 l 11.754117688049256 -36.81960624565494" fill="#34ff2f" stroke="none" /><path d="M 93.61358852112213 120.00534299687104 l -7.240417803074205 22.680505643930307 a44.8081705770819,44.8081705770819 0 0,0 -0.7307514090596161,-0.24021250272518707 l 7.628691949781565 -22.5528722198031" fill="#d3ff1c" stroke="none" /><path d="M 93.27111125876986 119.89276391827306 l -6.053158559846115 17.895087706395813 a39.89113264392151,39.89113264392151 0 0,0 -0.6467952577067467,-0.22498896556953962 l 6.359459589597884 -17.788540308257684" fill="#fff016" stroke="none" /><path d="M 92.93061703081489 119.77432235084164 l -11.80704162346577 33.0263968001057 a56.073481684832565,56.073481684832565 0 0,0 -0.9036130717462579,-0.3318192362904408 l 12.372243846866146 -32.81884671480654" fill="#58ff2a" stroke="none" /><path d="M 92.59220618246901 119.65005319985036 l -13.786223013384987 36.56959444482854 a60.08190352111857,60.08190352111857 0 0,0 -0.961962023142277,-0.3721075758493398 l 14.411957299020793 -36.327546980841156" fill="#30ff2f" stroke="none" /><path d="M 92.25597844496254 119.51999308798841 l -6.965191258806811 17.556831971882147 a39.88799190387009,39.88799190387009 0 0,0 -0.6343055689699633,-0.2579665528575054 l 7.265551288967214 -17.43467816244535" fill="#fff016" stroke="none" /><path d="M 91.92203290615298 119.3841803445677 l -12.32879677723078 29.584624124478058 a53.05072876801564,53.05072876801564 0 0,0 -0.8376076617200453,-0.35752490355796923 l 12.834839514121256 -29.368624571260685" fill="#77ff27" stroke="none" /><path d="M 91.59046798132341 119.24265499422711 l -16.66921349364576 38.14242261887701 a62.62579827142974,62.62579827142974 0 0,0 -0.9813957545997267,-0.43896583818240703 l 17.321522651101123 -37.85065302978475" fill="#32ff4d" stroke="none" /><path d="M 91.26138138417905 119.09545874513695 l -15.396095816401571 33.64324791174701 a57.99875533635,57.99875533635 0 0,0 -0.9017737237487823,-0.42207563593904945 l 15.971358254021842 -33.37399604423744" fill="#44ff2d" stroke="none" /><path d="M 90.93487009805054 118.94263497670748 l -8.153297765423654 17.037256508989632 a39.88767782986495,39.88767782986495 0 0,0 -0.615105506949445,-0.30087892677900563 l 8.444563521635168 -16.894783832113404" fill="#fff016" stroke="none" /><path d="M 90.6110303473126 118.78422872680471 l -15.655907069629183 31.322301615634466 a56.01705305524214,56.01705305524214 0 0,0 -0.8564548026602026,-0.4373119247203715 l 16.19128909400297 -31.048931739241258" fill="#58ff2a" stroke="none" /><path d="M 90.28995756902619 118.62028667847754 l -12.91821660786479 24.772383676287234 a48.93834843602778,48.93834843602778 0 0,0 -0.7415585623465837,-0.39483816599742527 l 13.341563985997936 -24.546975042567237" fill="#a4ff21" stroke="none" /><path d="M 89.97174638481275 118.45085714620012 l -9.016344367583272 16.58905810432265 a39.880977584421935,39.880977584421935 0 0,0 -0.5987004745478672,-0.3320890609458964 l 9.299789030287242 -16.431836127943605" fill="#fff016" stroke="none" /><line stroke="#e1ed5e" stroke-width="0.3" x1="58.13341422392154" x2="55.67067388415222" y1="173.97424548756322" y2="178.32567169271397" /><path d="M 57.64086615596768 174.84453072859336 a86.0,86.0 0 0,1 -31.369924170532247,-30.572349798747897" fill="none" id="id32" stroke="none" /><text fill="#e1ed5e" style="font-size:6.75px; font-family:Arial;" text-anchor="middle"><textPath startOffset="22.145653131862474" xlink:href="#id32">August</textPath></text><path d="M 89.65649057296885 118.27599006163327 l -14.728090774230026 26.02312517966345 a50.90183442483744,50.90183442483744 0 0,0 -0.7567588622455736,-0.4369149328291202 l 15.172642104336 -25.766463349558155" fill="#8eff24" stroke="none" /><path d="M 89.34428304082925 118.09573695890944 l -18.884273696876964 32.06962523386427 a58.21661800458316,58.21661800458316 0 0,0 -0.856802364248846,-0.5144852017999617 l 19.432008817683236 -31.740726031528396" fill="#42ff2d" stroke="none" /><path d="M 89.03521579738668 117.91015095944536 l -16.41467929489266 26.812145017166944 a52.437761001314456,52.437761001314456 0 0,0 -0.7636832533406591,-0.4765948318537738 l 16.872526677023032 -26.526414388471622" fill="#7eff26" stroke="none" /><path d="M 88.72937992617639 117.7192867562869 l -10.854851739099137 17.065629876815187 a41.22531901776263,41.22531901776263 0 0,0 -0.5938691103648351,-0.3849387824154497 l 11.146206481720982 -16.876777252695845" fill="#feff18" stroke="none" /><path d="M 88.4268655584334 117.5232005979908 l -19.179794849241613 29.04065396185585 a55.80264520106552,55.80264520106552 0 0,0 -0.7947989673164053,-0.5347762159613934 l 19.675490104655026 -28.707128071837335" fill="#5bff2a" stroke="none" /><path d="M 88.1277618465304 117.32195027204791 l -21.28886005138921 31.06108304026752 a58.65642630311631,58.65642630311631 0 0,0 -0.8256727404478783,-0.5763836978091639 l 21.818927883010854 -30.69105452665323" fill="#3eff2d" stroke="none" /><path d="M 87.83215693770417 117.11559508785305 l -6.071799567544197 8.540746484042803 a31.47907918154641,31.47907918154641 0 0,0 -0.4377375665215945,-0.31688824080310035 l 6.217518144439745 -8.435257471866636" fill="#ff840c" stroke="none" /><path d="M 86.13680546590413 115.77377054828092 l -14.24022465985012 16.20276162092369 a42.571126129793996,42.571126129793996 0 0,0 -0.5447785923137659,-0.48714437651846876 l 14.516268278987258 -15.955921714521843" fill="#eeff19" stroke="none" /><path d="M 85.86807049272751 115.53346607816431 l -12.732073107226949 13.994778675766879 a39.91981806972443,39.91981806972443 0 0,0 -0.5029331140862768,-0.4655073820428367 l 12.970435992627193 -13.774153547591665" fill="#fff016" stroke="none" /><path d="M 85.60350026404147 115.28858382429668 l -15.158730555570994 16.09804654043181 a43.111856875312625,43.111856875312625 0 0,0 -0.5344382157181186,-0.5119797211764211 l 15.432841257154427 -15.835454688949804" fill="#e7ff1a" stroke="none" /><path d="M 85.34317274990678 115.03919595460226 l -21.154851573180007 21.706741354787876 a51.31023532285645,51.31023532285645 0 0,0 -0.6255159439373453,-0.6201696859434525 l 21.524359437247316 -21.34039165861576" fill="#8aff24" stroke="none" /><path d="M 85.08716467003676 114.78537596483092 l -14.142869124156773 14.02199062722248 a40.915746740028155,40.915746740028155 0 0,0 -0.49023532955056304,-0.5030246354942248 l 14.381491254858146 -13.77714329966052" fill="#fffd17" stroke="none" /><path d="M 84.83555147118756 114.52719865689866 l -20.480922457295204 19.620260416879454 a49.362348342968815,49.362348342968815 0 0,0 -0.5809341155258896,-0.6169318990384338 l 20.814712406557348 -19.26578705789653" fill="#9fff22" stroke="none" /><path d="M 84.58840730492382 114.26474011684316 l -19.26471496054169 17.831132561982685 a47.25030534972723,47.25030534972723 0 0,0 -0.5458587006555738,-0.5999943323904031 l 19.567971362039142 -17.497800654034606" fill="#b7ff1f" stroke="none" /><path d="M 84.3458050057657 113.99807769240083 l -18.74643497164197 16.763177747896684 a46.14821966568567,46.14821966568567 0 0,0 -0.5229888427829377,-0.5950652993492755 l 19.0314348783835 -16.438900170736108" fill="#c4ff1e" stroke="none" /><path d="M 84.1078160697243 113.72728997021213 l -21.904614039646948 18.920683898892968 a49.94485093117126,49.94485093117126 0 0,0 -0.554876440336625,-0.6536430514995795 l 22.226185043490684 -18.541874064943833" fill="#99ff23" stroke="none" /><path d="M 83.8745106332314 113.45245675266167 l -33.15261098897685 27.657087200473505 a64.17418311677737,64.17418311677737 0 0,0 -0.6984387463858135,-0.8519817060390706 l 33.6224965546013 -27.08390321273594" fill="#34ff5f" stroke="none" /><path d="M 83.64595745247003 113.17365903436017 l -16.95274330699429 13.655929986381556 a42.768783370363046,42.768783370363046 0 0,0 -0.45565774097948314,-0.5757086705635763 l 17.184667478615335 -13.3629013719033" fill="#ebff1a" stroke="none" /><path d="M 83.20337586046588 112.60449989151573 l -2.764719381764422 2.074696966368365 a24.45659380925239,24.45659380925239 0 0,0 -0.2491055249360801,-0.3379594866770867 l 2.7999269262843325 -2.026931170422399" fill="#ff2203" stroke="none" /><path d="M 82.576782715395 111.72311816256416 l -4.656651149419255 3.13320271306711 a26.61260716321379,26.61260716321379 0 0,0 -0.25177498380637087,-0.3812194154548928 l 4.709750572146352 -3.052803419273156" fill="#ff4106" stroke="none" /><line stroke="#e1ed5e" stroke-width="0.3" x1="26.387840678322732" x2="22.057713659400548" y1="142.50000000000003" y2="145.00000000000006" /><path d="M 25.521815274538298 143.00000000000003 a86.0,86.0 0 0,1 -11.493303480769221,-40.785679425670985" fill="none" id="id33" stroke="none" /><text fill="#e1ed5e" style="font-size:6.75px; font-family:Arial;" text-anchor="middle"><textPath startOffset="21.40746469413373" xlink:href="#id33">September</textPath></text><path d="M 81.29705330413844 109.54985784667822 l -9.337689392858957 4.767890737664872 a31.484523130968864,31.484523130968864 0 0,0 -0.2416513414636493,-0.4834645587434724 l 9.418160647534343 -4.606894322757647" fill="#ff840c" stroke="none" /><path d="M 81.1358732173502 109.22738970284198 l -17.39181524350321 8.507208350573283 a40.360987355613204,40.360987355613204 0 0,0 -0.29909556198814935,-0.624994690112086 l 17.53529006345127 -8.207401158396092" fill="#fff617" stroke="none" /><path d="M 79.83685265289637 105.86919833188381 l -10.149340483589418 2.954325096699777 a31.570579408377633,31.570579408377633 0 0,0 -0.14700089812526357,-0.5216543282142042 l 10.198559873789256 -2.779662844582577" fill="#ff850c" stroke="none" /><path d="M 79.73907114497094 105.5222062557868 l -10.163308485779549 2.770054922024572 a31.534042132446174,31.534042132446174 0 0,0 -0.13786460859549143,-0.5234943744428655 l 10.209362575179773 -2.5951800432089036" fill="#ff840c" stroke="none" /><path d="M 79.64726062577567 105.17358676015961 l -6.107150997814256 1.5524139018161784 a27.301371456489118,27.301371456489118 0 0,0 -0.11156181972279966,-0.45521029503335 l 6.132900344053349 -1.4473477821747287" fill="#ff4b06" stroke="none" /><path d="M 79.56144815229197 104.8234425847677 l -15.302803971955417 3.6114200700065435 a36.72317284539417,36.72317284539417 0 0,0 -0.1395290629620429,-0.6147907962506316 l 15.362543896475126 -3.348194939816886" fill="#ffc812" stroke="none" /><path d="M 79.48165901384964 104.47187691870673 l -21.638554182175728 4.7160221709334005 a43.146509707213234,43.146509707213234 0 0,0 -0.15151059027374203,-0.72503302191095 l 21.716322483273835 -4.343872697737042" fill="#e7ff1a" stroke="none" /><path d="M 79.407916724674 104.11899336999214 l -10.30149960788482 2.060588431899805 a31.50556608931334,31.50556608931334 0 0,0 -0.10152849861968476,-0.5312400066380591 l 10.335354398786661 -1.883445860228431" fill="#ff840c" stroke="none" /><path d="M 79.34024301695615 103.76489593502545 l -21.76492896272569 3.9662950849391327 a43.12337292216781,43.12337292216781 0 0,0 -0.1264647996077212,-0.7294153574246413 l 21.829808579825645 -3.592086694593899" fill="#e7ff1a" stroke="none" /><path d="M 79.2786578344484 103.40968896794605 l -10.36513029189166 1.7055782451361092 a31.50451917596287,31.50451917596287 0 0,0 -0.08322970070398845,-0.5343943834783443 l 10.392881484733916 -1.5273956797263148" fill="#ff840c" stroke="none" /><path d="M 79.22317932658666 103.0534771498775 l -21.795551898833285 3.203195558077795 a43.02967417730059,43.02967417730059 0 0,0 -0.10113097007106467,-0.7317333210978525 l 21.84732738545956 -2.828573928779857" fill="#e8ff1a" stroke="none" /><path d="M 79.17382384314188 102.69636545807758 l -22.918902844389482 2.9673108256264147 a44.11019344632243,44.11019344632243 0 0,0 -0.09077859692537214,-0.7517770069795634 l 22.966463527574515 -2.5734401417234523" fill="#dbff1b" stroke="none" /><path d="M 79.13060592940153 102.33845913500099 l -19.028124847042115 2.1321410779814163 a40.147207649446884,40.147207649446884 0 0,0 -0.07086480648127386,-0.6855527193361789 l 19.061922046005055 -1.8051838363623058" fill="#fff316" stroke="none" /><path d="M 79.0935383218832 101.97986365728391 l -22.314055291863237 2.1131642359752627 a43.4138913769237,43.4138913769237 0 0,0 -0.06389362414545244,-0.7425407635290587 l 22.34704253870643 -1.7298024250705422" fill="#e3ff1b" stroke="none" /><path d="M 79.06263194458094 101.62068470465958 l -16.839688301242845 1.303498376148349 a37.890062465829914,37.890062465829914 0 0,0 -0.04463095507680193,-0.6489242916684964 l 16.859583217484712 -1.0142306603255091" fill="#ffd714" stroke="none" /><path d="M 79.03789590574601 101.26102812881392 l -26.156222338122017 1.5734933842316012 a47.20350832296114,47.20350832296114 0 0,0 -0.0417153374546477,-0.8092664022782029 l 26.179379265033237 -1.1242551885766674" fill="#b7ff1f" stroke="none" /><path d="M 79.01933749520258 100.90099992219065 l -10.444849889554318 0.44854679568052636 a31.454476717810323,31.454476717810323 0 0,0 -0.01853614260634551,-0.5396595672781335 l 10.45101071915751 -0.269180963838273" fill="#ff830c" stroke="none" /><path d="M 79.00696218219943 100.54070618675478 l -22.113421889689434 0.5695633061707182 a43.120755638791636,43.120755638791636 0 0,0 -0.012707416466089028,-0.7401433026546342 l 22.119940737754188 -0.18987308754703144" fill="#e7ff1a" stroke="none" /><line stroke="#e1ed5e" stroke-width="0.3" x1="15.003131293944662" x2="10.003315487706104" y1="100.72959589197737" y2="100.7725132973878" /><path d="M 14.003168132696942 100.73817937305945 a86.0,86.0 0 0,1 10.791469493833604,-42.45332614584628" fill="none" id="id34" stroke="none" /><text fill="#e1ed5e" style="font-size:6.75px; font-family:Arial;" text-anchor="middle"><textPath startOffset="22.145653131862435" xlink:href="#id34">October</textPath></text><path d="M 79.00077361379809 100.18025310272382 l -25.623830638095562 0.21994976820771497 a46.62477462282038,46.62477462282038 0 0,0 0.0,-0.8004057418630556 l 25.623830638095562 0.21994976820770554" fill="#beff1f" stroke="none" /><path d="M 79.00077361379809 99.81974689727619 l -18.897869529128336 -0.16221548141094677 a39.898565728709855,39.898565728709855 0 0,0 0.011757857291773349,-0.6848362412059495 l 18.892300240237898 0.4865986385859487" fill="#fff016" stroke="none" /><path d="M 79.00696218219943 99.45929381324524 l -22.125457401733318 -0.5698732982680601 a43.13279514232205,43.13279514232205 0 0,0 0.025418182885093486,-0.7400226610293806 l 22.112414531851375 0.9496022238615792" fill="#e7ff1a" stroke="none" /><path d="M 79.01933749520258 99.09900007780938 l -10.561159453715993 -0.4535416288148688 a31.57089348238278,31.57089348238278 0 0,0 0.027900266784235586,-0.5412577219979583 l 10.551817597475187 0.6347711441895391" fill="#ff850c" stroke="none" /><path d="M 79.03789590574601 98.7389718711861 l -22.07717967003335 -1.3281083064758745 a43.11709144206498,43.11709144206498 0 0,0 0.05078790706478175,-0.7384450223084739 l 22.051127801803503 1.7068967529386732" fill="#e7ff1a" stroke="none" /><path d="M 79.06263194458094 98.37931529534042 l -10.431646845177706 -0.8074754401623165 a31.462852024614097,31.462852024614097 0 0,0 0.04630489407989523,-0.5381330588940398 l 10.416248328400068 0.9864295464320371" fill="#ff840c" stroke="none" /><path d="M 79.0935383218832 98.0201363427161 l -22.027019591478872 -2.0859816567189626 a43.1255714402038,43.1255714402038 0 0,0 0.07612198838806886,-0.7364111853534407 l 21.98796521060914 2.463797364355316" fill="#e7ff1a" stroke="none" /><path d="M 79.13060592940154 97.66154086499901 l -15.639014514756413 -1.7523841962411373 a36.73688741028535,36.73688741028535 0 0,0 0.07560436338980901,-0.6261125854425207 l 15.606628065106936 2.0205904586070944" fill="#ffc812" stroke="none" /><path d="M 79.17382384314186 97.30363454192245 l -18.777540388639398 -2.4311285427647014 a39.934265473960934,39.934265473960934 0 0,0 0.09385595135619108,-0.6790949097235164 l 18.733039920728 2.753111760688285" fill="#fff016" stroke="none" /><path d="M 79.22317932658666 96.9465228501225 l -21.892398000890594 -3.217428600001526 a43.127560575569696,43.127560575569696 0 0,0 0.11393584325948032,-0.7315498457850096 l 21.833940665492847 3.5927666277179857" fill="#e7ff1a" stroke="none" /><path d="M 79.2786578344484 96.59031103205396 l -18.712666454630497 -3.0791621441047248 a39.96431188711948,39.96431188711948 0 0,0 0.11720044958883441,-0.675981048420915 l 18.657051187549428 3.399936225446232" fill="#fff116" stroke="none" /><path d="M 79.34024301695615 96.23510406497455 l -10.334324447576993 -1.8832581688085457 a31.50451917596287,31.50451917596287 0 0,0 0.10152512488120098,-0.5312223538127242 l 10.300473030413633 2.0603830876545843" fill="#ff840c" stroke="none" /><path d="M 79.407916724674 95.88100663000787 l -37.14958021188409 -7.43095647705023 a58.88549094419953,58.88549094419953 0 0,0 0.2067786143550615,-0.9895105243900018 l 37.01654388670466 8.067583452725641" fill="#3cff2e" stroke="none" /><path d="M 79.48165901384962 95.52812308129327 l -16.38534280197134 -3.5711092008214274 a37.76998150453081,37.76998150453081 0 0,0 0.14350639443950305,-0.6323156526072246 l 16.32162554597418 3.85185918736766" fill="#ffd614" stroke="none" /><path d="M 79.56144815229197 95.17655741523228 l -21.3415557877166 -5.036549055857485 a42.9278095082997,42.9278095082997 0 0,0 0.1754162626259224,-0.7157582124601621 l 21.25195199857438 5.402163092925765" fill="#e9ff1a" stroke="none" /><path d="M 79.64726062577567 94.8264132398404 l -23.441759821050326 -5.958803678222271 a45.18725790128771,45.18725790128771 0 0,0 0.19755550518704712,-0.7501504313487536 l 23.336014835058553 6.360334613943809" fill="#cfff1d" stroke="none" /><path d="M 79.73907114497095 94.47779374421319 l -25.426553452929543 -6.930120210456853 a47.35405446275897,47.35405446275897 0 0,0 0.2204928977024257,-0.7824515080782152 l 25.303842063152533 7.365579642438082" fill="#b6ff1f" stroke="none" /><path d="M 79.83685265289637 94.1308016681162 l -19.46909458907206 -5.667169689254084 a41.27714122861098,41.27714122861098 0 0,0 0.20387699942673476,-0.6786402236911607 l 19.368941269641695 6.000547516535969" fill="#fdff18" stroke="none" /><path d="M 79.94057633289273 93.78553927170692 l -25.02787019323663 -7.753698162511329 a47.2014144962602,47.2014144962602 0 0,0 0.2464257378101419,-0.7719251138849424 l 24.891079739649232 8.182192310087663" fill="#b8ff1f" stroke="none" /><path d="M 80.05021161711548 93.44210830539832 l -9.962478803229526 -3.2748646625943714 a31.486931031674946,31.486931031674946 0 0,0 0.17319997924304525,-0.5120349630125978 l 9.904793402414116 3.4454013000811305" fill="#ff840c" stroke="none" /><path d="M 80.16572619554312 93.10060997987247 l -15.839066897930572 -5.5096496680991915 a37.76998150453081,37.76998150453081 0 0,0 0.21827421584920326,-0.6105518294727306 l 15.742152512037425 5.780736453952843" fill="#ffd614" stroke="none" /><path d="M 80.28708602549916 92.7611449362534 l -25.22616429949674 -9.26339694955929 a47.87321879325788,47.87321879325788 0 0,0 0.289904976073357,-0.7690073918176982 l 25.06342863960895 9.695072621571134" fill="#b0ff20" stroke="none" /><path d="M 80.41425534168474 92.42381321644754 l -17.672407196218725 -6.8360667500434245 a39.94850349552736,39.94850349552736 0 0,0 0.25289557084835895,-0.6374620421519452 l 17.552452950404234 7.138429809408953" fill="#fff116" stroke="none" /><path d="M 80.5471966667186 92.08871423366112 l -15.14817207067108 -6.160629706450473 a37.35299591703794,37.35299591703794 0 0,0 0.24666167442036196,-0.591898224579211 l 15.04018455171424 6.419760440470949" fill="#ffd013" stroke="none" /><path d="M 80.68587082218212 91.75594674310238 l -9.646007659253609 -4.117307082664623 a31.487977945025417,31.487977945025417 0 0,0 0.21646653043135025,-0.4953177838715643 l 9.573907246805282 4.282286936312055" fill="#ff840c" stroke="none" /><path d="M 80.83023694016515 91.42560881287825 l -9.57008456473429 -4.280577099244252 a31.48379029162353,31.48379029162353 0 0,0 0.22490750709473276,-0.49146349234461706 l 9.495192592784509 4.444229573803541" fill="#ff840c" stroke="none" /><path d="M 80.9802524753101 91.09779779509293 l -9.498985359947593 -4.4460047803439045 a31.487977945025417,31.487977945025417 0 0,0 0.23334202348319055,-0.487595083951073 l 9.421264078504498 4.608412366360065" fill="#ff840c" stroke="none" /><path d="M 81.1358732173502 90.77261029715801 l -14.444120082027409 -7.065342936207251 a37.07954214989473,37.07954214989473 0 0,0 0.28459446770422997,-0.5693795776844665 l 14.320705701111436 7.312254370055488" fill="#ffcd13" stroke="none" /><path d="M 81.29705330413844 90.45014215332179 l -15.518091615648014 -7.923648149730289 a38.423988274570476,38.423988274570476 0 0,0 0.3049985144367819,-0.5848748669940766 l 15.379785032236292 8.188869259828852" fill="#ffde14" stroke="none" /><path d="M 81.46374523516351 90.13048839642627 l -16.68413555214842 -8.883362443846853 a39.90170646876127,39.90170646876127 0 0,0 0.32710782508954755,-0.6018415552426016 l 16.529182377443522 9.168458832564074" fill="#fff016" stroke="none" /><path d="M 81.63589988554816 89.8137432299009 l -19.328615980535616 -10.721257462184864 a43.102958111833615,43.102958111833615 0 0,0 0.3644593918830087,-0.6439648236328405 l 19.14172322363124 11.05147905591681" fill="#e7ff1a" stroke="none" /><line stroke="#e1ed5e" stroke-width="0.3" x1="26.387840678322718" x2="22.05771365940052" y1="57.49999999999999" y2="54.99999999999999" /><path d="M 25.521815274538284 56.99999999999999 a86.0,86.0 0 0,1 29.574782752854787,-30.34633250058573" fill="none" id="id35" stroke="none" /><text fill="#e1ed5e" style="font-size:6.75px; font-family:Arial;" text-anchor="middle"><textPath startOffset="21.40746469413373" xlink:href="#id35">November</textPath></text><path d="M 81.81346652052679 89.5 l -9.082402007944388 -5.2437272441750915 a31.48745448835018,31.48745448835018 0 0,0 0.274280153667206,-0.4657876642959658 l 8.991048144147403 5.39886607676463" fill="#ff840c" stroke="none" /><path d="M 81.99639281039701 89.18935116829357 l -8.996702609164435 -5.402261420541382 a31.494050042458152,31.494050042458152 0 0,0 0.2822947212874102,-0.4611072119510543 l 8.902639923421633 5.55590574861698" fill="#ff840c" stroke="none" /><path d="M 82.18462484594161 88.88188828441811 l -12.978183537679422 -8.099346389816288 a36.29812602510266,36.29812602510266 0 0,0 0.33443072442815347,-0.5257806462679259 l 12.83723512162538 8.320940710762885" fill="#ffc312" stroke="none" /><path d="M 82.37810715431573 88.57770195909679 l -14.080319014779228 -9.12669267179169 a37.77950841602011,37.77950841602011 0 0,0 0.3574221443738969,-0.5411826818094112 l 13.921572431484602 9.367055231940162" fill="#ffd614" stroke="none" /><path d="M 82.576782715395 88.27688183743585 l -20.68153834062084 -13.915461983300156 a45.9272162574011,45.9272162574011 0 0,0 0.4457351444171875,-0.6503408966608517 l 20.43961345938834 14.268437615031042" fill="#c6ff1e" stroke="none" /><path d="M 82.78059297857968 87.97951657250589 l -15.511484634445393 -10.82822095744857 a39.91709609501321,39.91709609501321 0 0,0 0.39705136594173623,-0.5585024703018742 l 15.323318169973684 11.092900654459964" fill="#fff016" stroke="none" /><path d="M 82.98947788004972 87.6856937992154 l -16.123006540051563 -11.671813364187779 a40.904335384508016,40.904335384508016 0 0,0 0.4166359394767812,-0.5652466691492671 l 15.920268580990962 11.94686634260591" fill="#fffc17" stroke="none" /><path d="M 83.2033758604659 87.39550010848427 l -15.1134699244413 -11.34142958969198 a39.89563437132854,39.89563437132854 0 0,0 0.4157657473505146,-0.5442507095416089 l 14.916552199736481 11.599201212474474" fill="#fff016" stroke="none" /><path d="M 83.42222388311158 87.10902102172516 l -17.454669395832116 -13.572856495823057 a43.11080996196215,43.11080996196215 0 0,0 0.4593016852725292,-0.580312675139567 l 17.21910127991803 13.870489114877307" fill="#e7ff1a" stroke="none" /><path d="M 83.64595745247003 86.82634096563983 l -8.163990088374016 -6.57633251665833 a31.483266834948296,31.483266834948296 0 0,0 0.3426476559945898,-0.41797442658386175 l 8.049895613140796 6.715509224940685" fill="#ff840c" stroke="none" /><path d="M 83.8745106332314 86.54754324733833 l -16.988909371598783 -14.17275242928761 a43.12441983551828,43.12441983551828 0 0,0 0.47910293301085916,-0.5643820503996023 l 16.74311187508081 14.46230126213677" fill="#e7ff1a" stroke="none" /><path d="M 84.10781606972428 86.27271002978789 l -18.275843821966312 -15.786238612334554 a45.14977840334082,45.14977840334082 0 0,0 0.5116737011769713,-0.5821907452935816 l 18.00215905683075 16.097641635439437" fill="#cfff1d" stroke="none" /><path d="M 84.34580500576568 86.00192230759919 l -14.085130985507991 -12.595010980468933 a39.8951109146533,39.8951109146533 0 0,0 0.46088788728874586,-0.5065965238046476 l 13.866845397377379 12.834945079831238" fill="#fff016" stroke="none" /><path d="M 84.58840730492382 85.73525988315684 l -19.224147960864055 -17.79358435271123 a47.19502832482232,47.19502832482232 0 0,0 0.5554274251014885,-0.5898446777147767 l 18.915864702026298 18.120970490370517" fill="#b8ff1f" stroke="none" /><path d="M 84.83555147118756 85.47280134310135 l -13.649235945345312 -13.07565927743244 a39.90170646876127,39.90170646876127 0 0,0 0.4780855240069876,-0.49055786466706736 l 13.422763620187522 13.308039834167236" fill="#fff016" stroke="none" /><path d="M 85.08716467003674 85.21462403516908 l -19.125544220328898 -18.96207901266074 a47.93226470622449,47.93226470622449 0 0,0 0.5843355738696299,-0.5793412827357342 l 18.797216726329292 19.287600305625148" fill="#afff20" stroke="none" /><path d="M 85.34317274990677 84.96080404539775 l -7.31527343620102 -7.506114985958088 a31.481173008247353,31.481173008247353 0 0,0 0.3902578814895922,-0.37385822247660216 l 7.1853430688461275 7.630585338740258" fill="#ff840c" stroke="none" /><path d="M 85.60350026404147 84.71141617570332 l -15.441723191244577 -16.398574912710213 a43.524654809403614,43.524654809403614 0 0,0 0.5483489464954837,-0.5075435985017872 l 15.15794447343514 16.661236257344363" fill="#e2ff1b" stroke="none" /><path d="M 85.86807049272753 84.46653392183569 l -18.364352791585386 -20.185640679054757 a48.28936685007038,48.28936685007038 0 0,0 0.617954366912812,-0.5525786053891536 l 18.015133397849183 20.497914814327313" fill="#abff21" stroke="none" /><path d="M 86.13680546590413 84.22622945171909 l -12.482839464137205 -14.203179866953198 a39.90903486221457,39.90903486221457 0 0,0 0.5184763644415233,-0.4478475349024419 l 12.237183619932834 14.41537153432035" fill="#fff016" stroke="none" /><path d="M 86.40962598614128 83.9905735841838 l -6.782460901468945 -7.989721887675067 a31.480335477566975,31.480335477566975 0 0,0 0.41497927758971215,-0.3461904726147916 l 6.644307289717324 8.10497454420174" fill="#ff840c" stroke="none" /><path d="M 86.68645165197937 83.75963576809568 l -10.647869635165184 -12.988669635516523 a37.795316807612224,37.795316807612224 0 0,0 0.505286003710313,-0.4070226372695491 l 10.423332861099626 13.169540566579471" fill="#ffd614" stroke="none" /><path d="M 86.96720088162412 83.53348406188908 l -16.611827368595353 -20.98850121463473 a47.766957088185,47.766957088185 0 0,0 0.6473333791586887,-0.5033703509947374 l 16.24908404480142 21.270572617250274" fill="#b1ff20" stroke="none" /><path d="M 87.25179093698888 83.31218511350988 l -6.362167034215061 -8.328280876092983 a31.480335477566975,31.480335477566975 0 0,0 0.4322505068115829,-0.32436883869959643 l 6.218263538492726 8.43626874205658" fill="#ff840c" stroke="none" /><path d="M 87.54013794807813 83.09580414077388 l -11.194762700887795 -15.187845620183033 a39.867786476205985,39.867786476205985 0 0,0 0.5543881297813361,-0.40133425276822493 l 10.932393560732491 15.377780644324337" fill="#fff016" stroke="none" /><path d="M 87.83215693770416 82.88440491214696 l -9.722037231533134 -13.675262890229666 a37.778880268009814,37.778880268009814 0 0,0 0.5317915455801083,-0.3712317998276776 l 9.48585059477926 13.840139505862469" fill="#ffd614" stroke="none" /><path d="M 88.12776184653039 82.6780497279521 l -8.74276171839907 -12.755950627743655 a36.46448055649261,36.46448055649261 0 0,0 0.5193648327172429,-0.3494518379682062 l 8.522500597584838 12.90415213976897" fill="#ffc512" stroke="none" /><path d="M 88.4268655584334 82.4767994020092 l -5.766960344119368 -8.731912988732406 a31.464422394639804,31.464422394639804 0 0,0 0.45325904033868253,-0.29379703382716643 l 5.616215671523659 8.829623864263478" fill="#ff840c" stroke="none" /><path d="M 88.72937992617638 82.28071324371311 l -7.3189760729595505 -11.506646036305947 a34.63709330324427,34.63709330324427 0 0,0 0.5044412193614385,-0.31480862919281366 l 7.120370724808414 11.630590462340296" fill="#ffad10" stroke="none" /><path d="M 89.03521579738668 82.08984904055464 l -11.548600668127389 -18.863771280351866 a43.118138355415454,43.118138355415454 0 0,0 0.634590674470639,-0.3810534667485768 l 11.223077237099314 19.059238747636368" fill="#e7ff1a" stroke="none" /><line stroke="#e1ed5e" stroke-width="0.3" x1="56.869717070023135" x2="54.33264160355391" y1="26.7553504044142" y2="22.446841604673864" /><path d="M 56.362301976729285 25.89364864446614 a86.0,86.0 0 0,1 42.16139366436587,-11.88097634709845" fill="none" id="id36" stroke="none" /><text fill="#e1ed5e" style="font-size:6.75px; font-family:Arial;" text-anchor="middle"><textPath startOffset="22.145653131862474" xlink:href="#id36">December</textPath></text><path d="M 89.34428304082924 81.90426304109057 l -5.324148795798166 -9.04156862536969 a31.492689055102538,31.492689055102538 0 0,0 0.4682026062063507,-0.27031690072851944 l 5.168153721731415 9.131632423374382" fill="#ff840c" stroke="none" /><path d="M 89.65649057296885 81.72400993836675 l -8.279616885306108 -14.629289698768847 a37.80976421184873,37.80976421184873 0 0,0 0.5676070434396528,-0.3148420588517219 l 8.027265653710353 14.769264673053716" fill="#ffd614" stroke="none" /><path d="M 89.97174638481275 81.54914285379989 l -5.0162848762930246 -9.229399176438601 a31.50451917596287,31.50451917596287 0 0,0 0.47738525500276735,-0.2541807594575496 l 4.857110805503695 9.314150403618726" fill="#ff840c" stroke="none" /><path d="M 90.28995756902619 81.37971332152246 l -7.2666904718868945 -13.93483712889658 a36.715739760605814,36.715739760605814 0 0,0 0.5613535510370857,-0.2866311229619472 l 7.026409699136226 14.057526203531362" fill="#ffc812" stroke="none" /><path d="M 90.61103034731259 81.2157712731953 l -4.681948392735567 -9.367033098362135 a31.471960170763204,31.471960170763204 0 0,0 0.48532722556831187,-0.23739786608287802 l 4.5204609179052015 9.446024714542228" fill="#ff840c" stroke="none" /><path d="M 90.93487009805054 81.0573650232925 l -3.615166616291867 -7.554307807290087 a29.374783347098308,29.374783347098308 0 0,0 0.4567237281145929,-0.21376976609059165 l 3.4849541743057517 7.615253804951221" fill="#ff6709" stroke="none" /><path d="M 91.26138138417902 80.90454125486306 l -0.6647965585337299 -1.4527004570730113 a22.597589772819802,22.597589772819802 0 0,0 0.35412209152390184,-0.15839430728748138 l 0.6397610641542093 1.4638985152703383" fill="#ff0701" stroke="none" /><path d="M 91.5904679813234 80.7573450057729 l -17.84015232207481 -40.82175980966997 a65.54982725929717,65.54982725929717 0 0,0 1.0349535022771472,-0.44176010798274234 l 17.13676374462723 41.121994567312115" fill="#36ff6f" stroke="none" /><path d="M 91.92203290615298 80.6158196554323 l -0.6123623896995587 -1.4694468125783968 a22.591936440727256,22.591936440727256 0 0,0 0.35926078035476083,-0.14610823177149762 l 0.587047148154357 1.4797423009291857" fill="#ff0701" stroke="none" /><path d="M 92.25597844496254 80.48000691201159 l -1.933981776061589 -4.874897446077047 a26.244512429187946,26.244512429187946 0 0,0 0.4201968112393481,-0.162541153442989 l 1.8500127023287114 4.907378487658076" fill="#ff3c05" stroke="none" /><path d="M 92.592206182469 80.34994680014964 l -1.8512683252826823 -4.910709176720465 a26.24807193457955,26.24807193457955 0 0,0 0.42298249003926497,-0.15532502926039024 l 1.7666966835892903 4.941765054989577" fill="#ff3c05" stroke="none" /><path d="M 92.93061703081487 80.22567764915836 l -3.531983646910001 -9.879586871490462 a31.49195621575721,31.49195621575721 0 0,0 0.5106109199274657,-0.1776169836036072 l 3.3618669549375313 9.938762287662653" fill="#ff840c" stroke="none" /><path d="M 93.27111125876988 80.10723608172694 l -3.359250402796348 -9.931026916188094 a31.48379029162353,31.48379029162353 0 0,0 0.5134515384546299,-0.16878171913346363 l 3.188276126693957 9.987229556723586" fill="#ff840c" stroke="none" /><path d="M 93.61358852112211 79.99465700312896 l -4.78101330977756 -14.976456097612884 a36.721079018693224,36.721079018693224 0 0,0 0.6021546443404082,-0.18654904805410089 l 4.523218032565536 15.056321733473625" fill="#ffc812" stroke="none" /><path d="M 93.95794788825049 79.88797359093562 l -6.338758459125842 -21.09966534097059 a43.0312445473263,43.0312445473263 0 0,0 0.7092778311816583,-0.2064604395311144 l 5.975620615562559 21.205369474804222" fill="#e8ff1a" stroke="none" /><path d="M 94.30408787586887 79.78721728523814 l -5.997201454128551 -21.281952257549186 a43.11080996196215,43.11080996196215 0 0,0 0.7140353107400484,-0.1946134991161862 l 5.630984742453825 21.381766250809513" fill="#e7ff1a" stroke="none" /><path d="M 94.6519064749342 79.69241777938228 l -7.338730172016573 -27.8663538071393 a49.81649935440343,49.81649935440343 0 0,0 0.8288391040223776,-0.21068765909238624 l 6.859285774768818 27.98822669806695" fill="#9aff22" stroke="none" /><path d="M 95.00130118170881 79.60360301121753 l -4.988813876405235 -20.35606305264309 a41.95847243709795,41.95847243709795 0 0,0 0.7010418503032418,-0.1654439678335708 l 4.638639872362087 20.438703164122895" fill="#f5ff19" stroke="none" /><path d="M 95.35216902796891 79.52079915486377 l -3.720958773897604 -16.395230920762305 a37.81217211255482,37.81217211255482 0 0,0 0.6342318155861083,-0.13822787227989872 l 3.438964541692377 16.456690251175917" fill="#ffd614" stroke="none" /><path d="M 95.70440661134978 79.44403061299748 l -4.287505721606311 -20.51726697242903 a41.960461572463856,41.960461572463856 0 0,0 0.7063414587908748,-0.14128807400445428 l 3.9346677772844596 20.58784444309635" fill="#f5ff19" stroke="none" /><path d="M 96.05791012581881 79.37332000966035 l -5.020822546803557 -26.27106516253899 a47.74654227785081,47.74654227785081 0 0,0 0.8063828637614553,-0.14694981980385516 l 4.569104949491063 26.353383156274205" fill="#b1ff20" stroke="none" /><path d="M 96.41257539226777 79.30868818359171 l -1.7898164867317095 -10.323185870246022 a31.47719473751556,31.47719473751556 0 0,0 0.5331974432816052,-0.0877374363865655 l 1.6123415403970314 10.352389305128256" fill="#ff840c" stroke="none" /><path d="M 96.76829788921471 79.25015418208739 l -4.192600335147939 -26.919501720196813 a48.24403550199496,48.24403550199496 0 0,0 0.819401727034912,-0.12042383622595598 l 3.729873502505342 26.98750662972165" fill="#acff21" stroke="none" /><path d="M 97.12497278360702 79.19773525538626 l -3.839749345100433 -27.782513492149963 a49.04659927646655,49.04659927646655 0 0,0 0.8350117620081775,-0.10810899010983396 l 3.3622597612014617 27.844334078460193" fill="#a3ff22" stroke="none" /><path d="M 97.48249496171623 79.15144685158666 l -2.2583409410693283 -18.70230264532817 a39.838158828387634,39.838158828387634 0 0,0 0.6796467645017359,-0.07615583756991079 l 1.936958274966793 18.738314243405053" fill="#ffef16" stroke="none" /><path d="M 97.84075906011542 79.11130261209362 l -2.6970373224015236 -26.09138953920828 a47.230413996068265,47.230413996068265 0 0,0 0.8071912478426367,-0.07644185040427438 l 2.2487465111738714 26.133843145117737" fill="#b7ff1f" stroke="none" /><path d="M 98.1996594967304 79.07731436759882 l -1.617670424803213 -18.799782426448154 a39.86925215489665,39.86925215489665 0 0,0 0.6823926371235639,-0.05282150586602352 l 1.294708792904432 18.82478169930923" fill="#fff016" stroke="none" /><path d="M 98.5590905019552 79.04949213459386 l -2.1575319199589376 -31.37004060303504 a52.44414717275234,52.44414717275234 0 0,0 0.8986820265576267,-0.05406247909336905 l 1.618705541268827 31.402455059953105" fill="#7eff26" stroke="none" /><path d="M 98.9189461498227 79.02784411241856 l -0.5389702926247302 -10.455879689848446 a31.46976165272721,31.46976165272721 0 0,0 0.5397427365402144,-0.023178875477097214 l 0.35940179548369566 10.463591133751372" fill="#ff840c" stroke="none" /><path d="M 99.27912038922189 79.0123766808444 l -0.8631774118378042 -25.13046853648854 a46.14528830830435,46.14528830830435 0 0,0 0.7919117868895168,-0.0203968385257781 l 0.4316523108775434 25.141583092364364" fill="#c4ff1e" stroke="none" /><path d="M 99.63950707515114 79.00309439819443 l -0.3772970258160645 -21.975660238611795 a42.97889887980271,42.97889887980271 0 0,0 0.7377899506649113,-0.006333039385355339 l 5.383277632386748e-15 21.978898879802713" fill="#e9ff1a" stroke="none" /></svg>