<?xml version="1.0" encoding="utf-8" ?>
<svg baseProfile="full" height="200mm" version="1.1" viewBox="0,0,200,200" width="200mm" xmlns="http://www.w3.org/2000/svg" xmlns:ev="http://www.w3.org/2001/xml-events" xmlns:xlink="http://www.w3.org/1999/xlink"><defs /><rect fill="#1a1a1a" height="200" width="200" x="0" y="0" /><text alignment-baseline="middle" fill="#e1ed5e" style="dominant-baseline: central; font-size:9.0px; font-family:Arial;" text-anchor="middle" x="100.0" y="100.0">2022</text><line stroke="#e1ed5e" stroke-width="0.3" x1="100.0" x2="100.0" y1="15.0" y2="10.0" /><path d="M 100.0 14.0 a86.0,86.0 0 0,1 42.46469731375804,11.215312516191453" fill="none" id="id1" stroke="none" /><text fill="#e1ed5e" style="font-size:6.75px; font-family:Arial;" text-anchor="middle"><textPath startOffset="22.20632615414155" xlink:href="#id1">January</textPath></text><line stroke="#e1ed5e" stroke-width="0.3" x1="143.23703022742887" x2="145.7803849466894" y1="26.81831364943548" y2="22.513508569990506" /><path d="M 143.74570117128098 25.957352633546492 a86.0,86.0 0 0,1 28.547481713284135,27.462654790039103" fill="none" id="id2" stroke="none" /><text fill="#e1ed5e" style="font-size:6.75px; font-family:Arial;" text-anchor="middle"><textPath startOffset="19.985693538727396" xlink:href="#id2">February</textPath></text><path d="M 112.48926042617603 83.11751280151076 l 8.709103680324455 -11.77262114618354 a35.64387570167846,35.64387570167846 0 0,0 0.4901098192294177,0.3691405548014614 l -8.910459653312255 11.620964001876233" fill="red" stroke="none" /><path d="M 113.06298171725822 83.55741782278167 l 11.628218407912756 -14.636622854194632 a39.69347993066175,39.69347993066175 0 0,0 0.5313191575075046,0.4296231412670502 l -11.878440963984751 14.434293615663453" fill="red" stroke="none" /><path d="M 114.42810811169701 84.74124197986012 l 5.731989828354257 -6.0619899080083535 a29.34286695549868,29.34286695549868 0 0,0 0.36401469154089866,0.3501818448538824 l -5.835487763507574 5.962424976392169" fill="red" stroke="none" /><path d="M 114.68862486808459 84.99185889309783 l 4.8367740282811 -4.941986589661497 a27.91502815996064,27.91502815996064 0 0,0 0.34051575485252267,0.3390534719856354 l -4.921125583300945 4.857997267025743" fill="red" stroke="none" /><path d="M 115.4437574822437 85.77008943001954 l 9.661957522695978 -8.902547947738118 a34.13806618693016,34.13806618693016 0 0,0 0.39446756463472793,0.4355809372759805 l -9.813768727946742 8.734914223192588" fill="red" stroke="none" /><line stroke="#e1ed5e" stroke-width="0.3" x1="172.23445277983987" x2="176.4835382374775" y1="55.19839476539836" y2="52.563006222186495" /><path d="M 173.08426987136738 54.67131705675599 a86.0,86.0 0 0,1 12.851231095245387,41.99856678651699" fill="none" id="id3" stroke="none" /><text fill="#e1ed5e" style="font-size:6.75px; font-family:Arial;" text-anchor="middle"><textPath startOffset="22.20632615414155" xlink:href="#id3">March</textPath></text><path d="M 118.03404312379186 89.2402003453031 l 4.230894797014448 -2.524313603083096 a25.926726088399302,25.926726088399302 0 0,0 0.22536538190928887,0.38522249094485445 l -4.273719853394065 2.451111699784346" fill="red" stroke="none" /><path d="M 118.21658344932153 89.55222093294921 l 16.029778419242813 -9.193578141803817 a39.479060452833515,39.479060452833515 0 0,0 0.3330197089606456,0.592404902903285 l -16.18565576949589 8.916289728965738" fill="red" stroke="none" /><path d="M 118.89224826269711 90.83032412892265 l 16.12363040441853 -7.82587983270861 a38.922495712770726,38.922495712770726 0 0,0 0.2873625731187845,0.6052588655811348 l -16.25595117137907 7.547178551486935" fill="red" stroke="none" /><path d="M 119.04729006885535 91.15688171328212 l 10.059993872966851 -4.6705707457968675 a32.09133480766062,32.09133480766062 0 0,0 0.22830338408657105,0.5030362440744053 l -10.13889957401677 4.496712492880399" fill="red" stroke="none" /><path d="M 119.196687751892 91.48605970444005 l 8.774201909473694 -3.891454201055306 a30.59843919328152,30.59843919328152 0 0,0 0.20939428458992304,0.4833108787964905 l -8.839886903906299 3.739844177672213" fill="red" stroke="none" /><path d="M 119.34039704204932 91.81776055985345 l 13.177766368837428 -5.575047889746593 a35.3085528773748,35.3085528773748 0 0,0 0.231991169738556,0.5617850188964341 l -13.271779225462181 5.347388300396856" fill="red" stroke="none" /><path d="M 119.85752413597 93.16781622104841 l 38.62469103120928 -13.289219024663382 a61.846910526279146,61.846910526279146 0 0,0 0.33769210156182705,1.0096564014078835 l -38.84772042654288 12.622389520333185" fill="red" stroke="none" /><path d="M 119.97218684219823 93.5106431181261 l 38.19886802142286 -12.411564593961597 a61.1646667331893,61.1646667331893 0 0,0 0.31672962354188394,1.004119460802407 l -38.40685312873295 11.752194966732771" fill="red" stroke="none" /><path d="M 120.08093135843002 93.85539295169968 l 38.17851828242042 -11.682326299738122 a60.92588140560786,60.92588140560786 0 0,0 0.2982295867508704,1.005481908654748 l -38.373953766282995 11.023415004336846" fill="red" stroke="none" /><path d="M 120.18372546131832 94.20196356495316 l 37.652656453942264 -10.816213013531538 a60.17541323320903,60.17541323320903 0 0,0 0.27741790893383694,0.9980198210104917 l -37.83326113344246 10.166481889102094" fill="red" stroke="none" /><path d="M 120.45610955862082 95.25157060432595 l 12.94333795644989 -3.0045071011388402 a34.28747757761683,34.28747757761683 0 0,0 0.1285055686142964,0.5760652666880639 l -12.993137912066222 2.7812636649008122" fill="red" stroke="none" /><path d="M 120.53481517161879 95.60439243477599 l 39.656170444505406 -8.488655064916257 a61.554520329240646,61.554520329240646 0 0,0 0.21286345742495677,1.0379978153222986 l -39.79641319784536 7.804781593430547" fill="red" stroke="none" /><path d="M 120.6074358757038 95.95851677861258 l 24.575074191748055 -4.819607379072288 a46.04322037634795,46.04322037634795 0 0,0 0.1458348320091238,0.7790555039970884 l -24.654394747667038 4.395873797612636" fill="red" stroke="none" /><path d="M 120.67395015179393 96.31383870115 l 24.841497568285643 -4.429234194208646 a46.23327400442298,46.23327400442298 0 0,0 0.13294958823583658,0.7846759956125848 l -24.9140590180417 4.000972410280223" fill="red" stroke="none" /><path d="M 120.73433829027371 96.67025291283417 l 24.023927515852108 -3.8580253465680094 a45.331737563554256,45.331737563554256 0 0,0 0.11709426680852995,0.7715049162868325 l -24.08677767609994 3.443921317889095" fill="red" stroke="none" /><path d="M 120.91429891909075 98.10471618934814 l 30.5659733443251 -2.7699324113339356 a51.69122434914174,51.69122434914174 0 0,0 0.07267667051955769,0.8868394635946039 l -30.609124498664155 2.243379030531563" fill="red" stroke="none" /><path d="M 120.94382443527127 98.46500227214037 l 39.79477792871739 -2.9166064626853667 a60.90151555585465,60.90151555585465 0 0,0 0.06762796903323455,1.0461747480965398 l -39.839086488755036 2.2311726503357914" fill="red" stroke="none" /><path d="M 120.96714384426684 98.82574320788733 l 25.27164328561232 -1.415328620645347 a46.31124472363325,46.31124472363325 0 0,0 0.037724680735089985,0.7963083861032463 l -25.292261574580905 0.980109127919101" fill="red" stroke="none" /><path d="M 120.98425023603335 99.18683210126433 l 25.857125329423294 -1.0019983575761313 a46.87653243790769,46.87653243790769 0 0,0 0.02430504800208592,0.8065662169055445 l -25.870542071881026 0.5567619932455877" fill="red" stroke="none" /><line stroke="#e1ed5e" stroke-width="0.3" x1="184.98032266829074" x2="189.97916517819016" y1="98.17113171792111" y2="98.06355123074" /><path d="M 185.9800911702706 98.14961562048488 a86.0,86.0 0 0,1 -9.607161424134198,41.387399972396054" fill="none" id="id4" stroke="none" /><text fill="#e1ed5e" style="font-size:6.75px; font-family:Arial;" text-anchor="middle"><textPath startOffset="21.466115282336823" xlink:href="#id4">April</textPath></text><path d="M 120.13307415673323 105.97154293290107 l 38.282325857334946 11.354676918623033 a60.9307545755585,60.9307545755585 0 0,0 -0.3068972650044546,1.0029580189914717 l -38.08120181982436 -12.011961910166562" fill="red" stroke="none" /><path d="M 120.02730092923936 106.31721596034902 l 24.73837408920247 7.803230808862168 a46.939883647266036,46.939883647266036 0 0,0 -0.24969279713311274,0.7684754110878269 l -24.600389041053113 -8.22790511992779" fill="red" stroke="none" /><path d="M 119.9155931802556 106.66101706037122 l 28.866058604249055 9.654611192761408 a51.43781951170837,51.43781951170837 0 0,0 -0.2880742481363853,0.8372786096508436 l -28.69559352516944 -10.150062505501552" fill="red" stroke="none" /><path d="M 119.79798401119884 107.00284435728193 l 19.25903427113517 6.812209737922271 a41.428328433090215,41.428328433090215 0 0,0 -0.24359016517114246,0.6702555167379017 l -19.138919844958803 -7.142713051666304" fill="red" stroke="none" /><path d="M 119.54520255179757 107.68017299344265 l 37.41850111788893 14.703381097183039 a61.203652092794435,61.203652092794435 0 0,0 -0.3937358759826952,0.9772201541448802 l -37.15986262764884 -15.345300619170732" fill="red" stroke="none" /><line stroke="#e1ed5e" stroke-width="0.3" x1="174.80103733775053" x2="179.2010983576182" y1="140.37084112569926" y2="142.7455964860345" /><path d="M 175.68104954172406 140.8457921977663 a86.0,86.0 0 0,1 -30.038265399797805,32.042727171017184" fill="none" id="id5" stroke="none" /><text fill="#e1ed5e" style="font-size:6.75px; font-family:Arial;" text-anchor="middle"><textPath startOffset="22.206326154141568" xlink:href="#id5">May</textPath></text><path d="M 113.48314897796784 116.09983520530334 l 34.30968950847901 40.9682002278737 a74.43732987415619,74.43732987415619 0 0,0 -0.9894134437737924,0.8142199053015263 l -33.59940593616053 -41.55271525203241" fill="red" stroke="none" /><path d="M 112.92097659922987 116.55440617244103 l 16.519070291454813 21.16429799990087 a47.8478526724696,47.8478526724696 0 0,0 -0.6536273492860637,0.5011735793325418 l -16.152314213675258 -21.445510921060784" fill="red" stroke="none" /><path d="M 112.63410532772338 116.77436683061366 l 14.737712845793503 19.567337386139627 a45.49654817128496,45.49654817128496 0 0,0 -0.6296181282214853,0.4657764392146724 l -14.398709747153452 -19.81812377409407" fill="red" stroke="none" /><line stroke="#e1ed5e" stroke-width="0.3" x1="143.8653032363475" x2="146.44561519142675" y1="172.8068346515853" y2="177.08958963109032" /><path d="M 144.38136562736335 173.6633856474863 a86.0,86.0 0 0,1 -40.68145358897372,12.25698825130547" fill="none" id="id6" stroke="none" /><text fill="#e1ed5e" style="font-size:6.75px; font-family:Arial;" text-anchor="middle"><textPath startOffset="21.466115282336833" xlink:href="#id6">June</textPath></text><path d="M 110.8373102113329 117.98757091392108 l 12.651856957049283 20.9993226889202 a45.51613831448654,45.51613831448654 0 0,0 -0.6745754585802035,0.3985510712829978 l -12.288513627440699 -21.213992332496943" fill="red" stroke="none" /><path d="M 109.2508944713604 118.85261126421891 l 11.394805166948068 23.22173633144841 a46.86678609800641,46.86678609800641 0 0,0 -0.7272996133753853,0.3491480123449035 l -10.99339288557245 -23.414438620292877" fill="red" stroke="none" /><path d="M 102.34483914955558 120.86867818915974 l 2.5864343428470153 23.01883520176429 a44.16368745808494,44.16368745808494 0 0,0 -0.7561820201726339,0.07838135823263463 l -2.189819726068779 -23.059945928452684" fill="red" stroke="none" /><line stroke="#e1ed5e" stroke-width="0.3" x1="102.19456741930631" x2="102.32365962044197" y1="184.97166512339345" y2="189.96999836594603" /><path d="M 102.22038585953345 185.97133177190398 a86.0,86.0 0 0,1 -42.740103519485714,-10.115201625700543" fill="none" id="id7" stroke="none" /><text fill="#e1ed5e" style="font-size:6.75px; font-family:Arial;" text-anchor="middle"><textPath startOffset="22.20632615414155" xlink:href="#id7">July</textPath></text><path d="M 99.45781275523022 120.99299961872073 l -0.5043488455847451 19.52793103341727 a40.534442869044,40.534442869044 0 0,0 -0.6973461554663091,-0.024018011585976183 l 0.8404153527256971 -19.5163562234052" fill="red" stroke="none" /><path d="M 97.2962882734958 120.8252237178851 l -2.4872860434928485 19.158214168448065 a40.31900002552613,40.31900002552613 0 0,0 -0.6874800543370636,-0.09527847119859086 l 2.8166946890167432 -19.11256113175687" fill="red" stroke="none" /><path d="M 95.86986931433489 120.58985236759428 l -4.349014740419156 21.681050374632797 a43.11293455332756,43.11293455332756 0 0,0 -0.7263678270382533,-0.15221744049796607 l 4.721574028886796 -21.60297695340829" fill="red" stroke="none" /><path d="M 95.16358092515715 120.4354850818985 l -6.1625957099879916 26.039024068923002 a47.75833254047632,47.75833254047632 0 0,0 -0.7983526554512216,-0.19621565888630543 l 6.609901650182424 -25.929087151722666" fill="red" stroke="none" /><path d="M 94.46302465271185 120.25689768951611 l -6.532801129932875 23.900103542960323 a45.776852906845875,45.776852906845875 0 0,0 -0.7583019213595897,-0.21430369744938255 l 6.943234219397079 -23.78411105217242" fill="red" stroke="none" /><path d="M 93.76903079525671 120.05430185196036 l -5.800659843074811 18.66935618057831 a40.54974462268902,40.54974462268902 0 0,0 -0.664781501695488,-0.21284204373499435 l 6.12116268986124 -18.566741290183607" fill="red" stroke="none" /><path d="M 93.42475214034765 119.94407469862007 l -5.219644942148265 15.832253148246108 a37.670480889051845,37.670480889051845 0 0,0 -0.6140831325301072,-0.20833033964599143 l 5.4913978076155985 -15.740059821701994" fill="red" stroke="none" /><path d="M 92.7421414339146 119.70592522655815 l -7.097149574535507 19.269581731864527 a41.535002123309766,41.535002123309766 0 0,0 -0.6687724332702815,-0.2528725096804695 l 7.427792228566071 -19.144560972077425" fill="red" stroke="none" /><path d="M 92.40401165467489 119.57807347666478 l -5.771354848134188 14.87522151692302 a36.9555868572927,36.9555868572927 0 0,0 -0.5910763213271011,-0.23520146668108868 l 6.026552245503147 -14.773673205835864" fill="red" stroke="none" /><path d="M 92.06813273071674 119.44442032107085 l -7.393720783298182 18.12519168138805 a40.57523130153087,40.57523130153087 0 0,0 -0.6444284607882131,-0.2693711488741697 l 7.704620703583857 -17.995235489493904" fill="red" stroke="none" /><path d="M 91.07499286063937 119.00905698771935 l -8.332237927269507 17.746538811850087 a40.60525002842682,40.60525002842682 0 0,0 -0.6301303141403387,-0.30250084374349523 l 8.636480909410087 -17.60048369160703" fill="red" stroke="none" /><path d="M 90.42595943632237 118.69057910512821 l -6.696591822220859 13.073182462044564 a35.68851393842634,35.68851393842634 0 0,0 -0.544350270942282,-0.28477833417436554 l 6.920632995689637 -12.955974708925481" fill="red" stroke="none" /><path d="M 90.10565033884886 118.52300852407294 l -9.26679591138938 17.34817805474034 a40.6680651890906,40.6680651890906 0 0,0 -0.614624579831257,-0.3351423264673988 l 9.564043303089278 -17.186095076513176" fill="red" stroke="none" /><line stroke="#e1ed5e" stroke-width="0.3" x1="58.666819895761336" x2="56.23545636021788" y1="174.27360380694188" y2="178.64263932499728" /><path d="M 58.180547188652646 175.14741091055294 a86.0,86.0 0 0,1 -31.652253787137756,-30.449443065178592" fill="none" id="id8" stroke="none" /><text fill="#e1ed5e" style="font-size:6.75px; font-family:Arial;" text-anchor="middle"><textPath startOffset="22.20632615414155" xlink:href="#id8">August</textPath></text><path d="M 89.7882731507175 118.34994917583269 l -9.591413217323625 17.235277408018888 a40.72435030202051,40.72435030202051 0 0,0 -0.6096071301796597,-0.34615083828481136 l 9.886669114424492 -17.067623403939443" fill="red" stroke="none" /><path d="M 87.65650970185807 116.9893568818739 l -13.10220659150951 18.033640270831935 a43.290805256525985,43.290805256525985 0 0,0 -0.5990932690585462,-0.44319487815225234 l 13.41068483098662 -17.805435443939917" fill="red" stroke="none" /><path d="M 87.36589467227662 116.77436683061367 l -13.144475910357265 17.45198848648739 a42.84832142500771,42.84832142500771 0 0,0 -0.5853310690053207,-0.44880690391605893 l 13.442935707856073 -17.223142240743968" fill="red" stroke="none" /><path d="M 86.79598089348748 116.32954008644616 l -12.474709628259136 15.427595893205039 a40.84008808834825,40.84008808834825 0 0,0 -0.542842311348773,-0.44672226572363355 l 12.738422068152598 -15.210578508624225" fill="red" stroke="none" /><path d="M 85.70375840098266 115.38237550388516 l -22.138206064733932 23.82012057585347 a53.51919912932697,53.51919912932697 0 0,0 -0.6694083706369707,-0.6329673968010552 l 22.54495026976172 -23.435518542306482" fill="red" stroke="none" /><path d="M 85.44109423537348 115.13401014063109 l -20.47867358842629 21.287620015161767 a50.53876838751447,50.53876838751447 0 0,0 -0.6217472961801461,-0.6085105897715773 l 20.84207083698223 -20.93195932246762" fill="red" stroke="none" /><path d="M 85.18274418774928 114.88116024355367 l -20.73169727101152 20.821109733132424 a50.382339632098876,50.382339632098876 0 0,0 -0.6092889276765555,-0.6172064669453399 l 21.08702682374361 -20.461162772206418" fill="red" stroke="none" /><path d="M 83.95833913139862 113.55231037782056 l -22.635392459028854 19.122824415828923 a50.63179720187223,50.63179720187223 0 0,0 -0.5567183098329309,-0.670603067799987 l 22.96120676875532 -18.730360090915173" fill="red" stroke="none" /><path d="M 83.72743513129214 113.27417163493432 l -22.901203878324182 18.681413371538028 a50.554362531356524,50.554362531356524 0 0,0 -0.5442588493249805,-0.6790465981566568 l 23.219380639704024 -18.284438939803113" fill="red" stroke="none" /><path d="M 83.50135304334701 112.99209946851258 l -21.221193265589203 16.710937234515864 a48.011006402417095,48.011006402417095 0 0,0 -0.5057003483197301,-0.6536858692962173 l 21.505700431127003 -16.343173371106396" fill="red" stroke="none" /><path d="M 83.06392112726016 112.41649034213515 l -23.850053043846138 17.485390538360157 a50.57302677226748,50.57302677226748 0 0,0 -0.5086688197634428,-0.7064965012191987 l 24.147501655985188 -17.07226043168982" fill="red" stroke="none" /><path d="M 82.44556493220864 111.52570212397912 l -37.217572761488555 24.435913532386092 a65.52259642494971,65.52259642494971 0 0,0 -0.610905034233987,-0.9481381795526833 l 37.63268265909959 -23.79165375291196" fill="red" stroke="none" /><path d="M 82.05923443525364 110.91462005526583 l -41.923000075014414 25.504687397219893 a70.07165184217428,70.07165184217428 0 0,0 -0.6180290472659951,-1.0358522321821908 l 42.355809997978646 -24.77927307115159" fill="red" stroke="none" /><line stroke="#e1ed5e" stroke-width="0.3" x1="26.63291911575756" x2="22.317208475507996" y1="142.92168965132927" y2="145.44649492493687" /><path d="M 25.769776987707644 143.4266507060508 a86.0,86.0 0 0,1 -11.730757126820373,-40.83630448921669" fill="none" id="id9" stroke="none" /><text fill="#e1ed5e" style="font-size:6.75px; font-family:Arial;" text-anchor="middle"><textPath startOffset="21.46611528233685" xlink:href="#id9">September</textPath></text><path d="M 80.87730276802145 108.67885076344099 l -40.39395828177926 18.332828858784968 a65.35949142670171,65.35949142670171 0 0,0 -0.45614362695298166,-1.0284834603783315 l 40.70354299346353 -17.63479706191394" fill="red" stroke="none" /><path d="M 80.73074385275274 108.34839909993369 l -26.972648040666787 11.68589118878359 a50.39530226416758,50.39530226416758 0 0,0 -0.33800613697262544,-0.7989466624045377 l 27.169805158831718 -11.219870000712893" fill="red" stroke="none" /><path d="M 80.0844068197444 106.66101706037122 l -42.235397216595494 14.126152249896842 a65.53512047172285,65.53512047172285 0 0,0 -0.34860860891786083,-1.072906976584071 l 42.472298076529604 -13.397046373334968" fill="red" stroke="none" /><path d="M 79.97269907076064 106.31721596034903 l -46.53505202074149 14.678561748273765 a69.79519691087435,69.79519691087435 0 0,0 -0.3515458686111114,-1.1488722389289476 l 46.78082466185873 -13.87536253679277" fill="red" stroke="none" /><path d="M 79.86692584326677 105.97154293290107 l -28.30294484302356 8.394756257385687 a50.52166356098772,50.52166356098772 0 0,0 -0.24011590572140884,-0.8358749680636685 l 28.443253385631074 -7.906323813817423" fill="red" stroke="none" /><path d="M 79.67330655649465 105.27499134158121 l -28.765320007239563 7.464903940118379 a50.7181497733976,50.7181497733976 0 0,0 -0.21202284333299765,-0.8469258648954293 l 28.88955416486762 -6.9686502358255575" fill="red" stroke="none" /><path d="M 79.58551787078972 104.9243191809786 l -30.69413278127722 7.403945191540086 a52.574486402695555,52.574486402695555 0 0,0 -0.20463851262133606,-0.881577356485253 l 30.81703185982911 -6.874499177706259" fill="red" stroke="none" /><path d="M 79.50377843672027 104.57218783832718 l -29.526419274242098 6.586596202536201 a51.252151736588914,51.252151736588914 0 0,0 -0.18466872993284872,-0.8627108268604783 l 29.63542204289939 -6.077371556259559" fill="red" stroke="none" /><path d="M 79.4281124754447 104.21870165774334 l -48.19509501095369 9.883425960555043 a70.19806187069392,70.19806187069392 0 0,0 -0.23255637472964236,-1.1857999445268128 l 48.358081318659 -9.052362288960275" fill="red" stroke="none" /><path d="M 79.35854240842038 103.8639653848113 l -28.90539801926959 5.4109288011817895 a50.40748518904418,50.40748518904418 0 0,0 -0.1523111556180717,-0.8542418476892415 l 28.994255617226848 -4.912568202759334" fill="red" stroke="none" /><path d="M 79.29508885075956 103.50808413554451 l -33.568755677812035 5.687637024591734 a55.04718156735069,55.04718156735069 0 0,0 -0.1502479940379064,-0.9355944022969684 l 33.661685426211235 -5.108963392601551" fill="red" stroke="none" /><path d="M 79.1416061653843 102.43462659150553 l -26.239123813719203 3.062674388124277 a47.4172593756309,47.4172593756309 0 0,0 -0.08764899419474577,-0.8115208297973832 l 26.287955109415 -2.6105572364421117" fill="red" stroke="none" /><path d="M 79.10278846688536 102.07522291339032 l -48.63181497939999 4.8294413158944165 a69.87102343530634,69.87102343530634 0 0,0 -0.10855096895765713,-1.1978508970414086 l 48.707740544634724 -3.991609030304442" fill="red" stroke="none" /><path d="M 79.07016306316243 101.71520430193888 l -29.231715956016153 2.3955449396057293 a50.32970939663194,50.32970939663194 0 0,0 -0.06332781541347401,-0.8640577271332013 l 29.26862033009396 -1.8920140759757673" fill="red" stroke="none" /><path d="M 79.04373962182676 101.35467743843564 l -62.86878113451971 4.064032315306924 a84.0,84.0 0 0,0 -0.08085459644987347,-1.4437131346582497 l 62.92942208185711 -2.9812474643132365" fill="red" stroke="none" /><path d="M 79.0235259727143 100.99374915477108 l -29.439719086828944 1.394690829411041 a50.472736934683276,50.472736934683276 0 0,0 -0.033643365059427804,-0.8681857612516485 l 29.45936458473957 -0.8877278211453957" fill="red" stroke="none" /><path d="M 79.0095281055655 100.63252640178507 l -29.52770413809705 0.8897871636891079 a50.54110750909078,50.54110750909078 0 0,0 -0.01871931266838129,-0.8698129035729238 l 29.538645513450437 -0.38138444432605517" fill="red" stroke="none" /><line stroke="#e1ed5e" stroke-width="0.3" x1="15.007084014347285" x2="10.007500721073583" y1="101.09737516637583" y2="101.16192664675087" /><path d="M 14.007167355692545 101.11028546245083 a86.0,86.0 0 0,1 10.666146001902534,-42.60595125391555" fill="none" id="id10" stroke="none" /><text fill="#e1ed5e" style="font-size:6.75px; font-family:Arial;" text-anchor="middle"><textPath startOffset="22.20632615414155" xlink:href="#id10">October</textPath></text><path d="M 79.03285615573316 98.82574320788736 l -26.32021699460006 -1.4740535861892676 a47.361461579696055,47.361461579696055 0 0,0 0.05259244253360494,-0.8135818080287898 l 26.29094396106204 1.9268944584710692" fill="red" stroke="none" /><path d="M 79.05617556472873 98.46500227214037 l -49.22965903490455 -3.6081000867549613 a70.36170291763646,70.36170291763646 0 0,0 0.09892693323725785,-1.20715915822787 l 49.16025761784779 4.45497316219061" fill="red" stroke="none" /><path d="M 79.08570108090925 98.10471618934814 l -48.936181563654806 -4.434667068282817 a70.13670866101535,70.13670866101535 0 0,0 0.1193088013599807,-1.2014233476772254 l 48.8525956366126 5.276365946664472" fill="red" stroke="none" /><path d="M 79.12142395522702 97.74499172005258 l -29.113561905047657 -3.1444348989058746 a50.28287823340628,50.28287823340628 0 0,0 0.10034941317740857,-0.8597324897501447 l 29.055122138866658 3.645111126980881" fill="red" stroke="none" /><path d="M 79.16333360222342 97.38593545837743 l -29.985475949939936 -3.7618286892944752 a51.220524863609256,51.220524863609256 0 0,0 0.1172803698000015,-0.8738749794501076 l 29.9162795810821 4.277422010809242" fill="red" stroke="none" /><path d="M 79.21141760316559 97.0276538004421 l -48.29821033620758 -6.90566577354189 a69.7893978386331,69.7893978386331 0 0,0 0.1802696920555117,-1.1877520349118516 l 48.172184750712766 7.736016920845834" fill="red" stroke="none" /><path d="M 79.32604984820605 96.31383870115002 l -48.04119187318413 -8.56573518526121 a69.79885178833734,69.79885178833734 0 0,0 0.22107714755352947,-1.1810029623017606 l 47.88662900172074 9.391416225025543" fill="red" stroke="none" /><path d="M 79.3925641242962 95.95851677861259 l -28.769382777628643 -5.642185591975649 a50.31742900835633,50.31742900835633 0 0,0 0.1740041486825768,-0.8485060252918458 l 28.66799933303107 6.136567273430898" fill="red" stroke="none" /><path d="M 80.14247586403 93.16781622104843 l -46.377185387817015 -15.956543804275997 a70.04543418783982,70.04543418783982 0 0,0 0.4020838711753967,-1.1367452490092578 l 46.095648435831805 16.752486679711865" fill="red" stroke="none" /><path d="M 80.2630227832202 92.82701384747504 l -23.011412595434948 -8.363010307209738 a45.483975392812305,45.483975392812305 0 0,0 0.27376027554077886,-0.7335414334034428 l 22.864047731392542 8.757874877642521" fill="red" stroke="none" /><path d="M 80.38941819471856 92.48833698450439 l -36.730630506563756 -14.069348959227902 a60.33301154941278,60.33301154941278 0 0,0 0.37982920389975217,-0.9666238939731109 l 36.483007752782314 14.699521858096777" fill="red" stroke="none" /><path d="M 80.52162464483688 92.15188598940014 l -31.808217555843505 -12.815982508831421 a55.29303299136056,55.29303299136056 0 0,0 0.363297115194935,-0.8797527809132181 l 31.58289875376237 13.36160986019795" fill="red" stroke="none" /><path d="M 80.803312248108 91.48605970444005 l -31.399405772150534 -13.92597876859261 a55.34902571409344,55.34902571409344 0 0,0 0.39376267619149674,-0.8676038617673257 l 31.155040778995687 14.464404639202007" fill="red" stroke="none" /><path d="M 80.95270993114464 91.15688171328213 l -31.018329175089328 -14.400933306527358 a55.19829856752009,55.19829856752009 0 0,0 0.4075259003224083,-0.8583534781410492 l 30.765845080925168 14.93272920030894" fill="red" stroke="none" /><path d="M 81.26839172434947 90.50648371742162 l -38.51839659379374 -19.52181680615959 a64.18296200551829,64.18296200551829 0 0,0 0.5079334684361881,-0.9811657890428502 l 38.17665369219744 20.181955317462776" fill="red" stroke="none" /><path d="M 81.43458229118936 90.18545643968196 l -44.748399092973834 -23.656085687965042 a71.61649544822721,71.61649544822721 0 0,0 0.5855224871817996,-1.0848842432935468 l 44.33456850657356 24.422850914591063" fill="red" stroke="none" /><line stroke="#e1ed5e" stroke-width="0.3" x1="26.266209847984243" x2="21.928928074336255" y1="57.711370442889674" y2="55.22380399835377" /><path d="M 25.398753493254645 57.213857153982495 a86.0,86.0 0 0,1 29.58750427330803,-30.492523968695096" fill="none" id="id11" stroke="none" /><text fill="#e1ed5e" style="font-size:6.75px; font-family:Arial;" text-anchor="middle"><textPath startOffset="21.46611528233685" xlink:href="#id11">November</textPath></text><path d="M 81.78341655067845 89.55222093294921 l -29.892915849298213 -17.144520065042187 a55.460426379165106,55.460426379165106 0 0,0 0.4820840135841607,-0.8240378490443246 l 29.593372161243728 17.656537326440404" fill="red" stroke="none" /><path d="M 81.96595687620814 89.24020034530311 l -29.640828958045027 -17.684851865910588 a55.51568812640539,55.51568812640539 0 0,0 0.4966914641057629,-0.8164301707628263 l 29.332021695653047 18.19244980988049" fill="red" stroke="none" /><path d="M 82.15384107792192 88.93136811851018 l -29.073604381341084 -18.032172960592558 a55.21160232148534,55.21160232148534 0 0,0 0.5078741874073005,-0.8033349982284345 l 28.758902597687822 18.529955606535207" fill="red" stroke="none" /><path d="M 82.34701348167596 88.62581576622439 l -28.806257864343465 -18.560467584031013 a55.26793616611476,55.26793616611476 0 0,0 0.5221592615324215,-0.7952843786016798 l 28.482501967453125 19.053570026610362" fill="red" stroke="none" /><path d="M 82.95767976084542 87.72973835380427 l -27.97072771804745 -20.13858105696335 a55.46627418310588,55.46627418310588 0 0,0 0.5645341208333121,-0.7700239063804389 l 27.619930984700506 20.617067407015288" fill="red" stroke="none" /><path d="M 83.17141714833178 87.43820079747576 l -23.54805055521042 -17.577587209378084 a50.385068607271236,50.385068607271236 0 0,0 0.5247822265651986,-0.6905518958786487 l 23.24199238842111 17.980323881137757" fill="red" stroke="none" /><path d="M 83.39014120810768 87.1503855733568 l -27.098023848813824 -20.96340267210485 a55.260285289292256,55.260285289292256 0 0,0 0.588511300483963,-0.7473495873563576 l 26.73315846773589 21.426744653414254" fill="red" stroke="none" /><path d="M 83.6137871275137 86.86637796730984 l -34.318946333505075 -27.506787151608837 a64.9819669506255,64.9819669506255 0 0,0 0.7070703540980929,-0.8667846491845058 l 33.840377487330585 28.093455970401426" fill="red" stroke="none" /><path d="M 83.84228863543731 86.58626213691792 l -37.712212534330774 -31.30775898632612 a70.0141484367567,70.0141484367567 0 0,0 0.7777884636205901,-0.9206562138166184 l 37.16771345722306 31.952274149771856" fill="red" stroke="none" /><path d="M 84.31358615837235 86.03803664274999 l -36.602445257695955 -32.57863808983085 a70.00108834128898,70.00108834128898 0 0,0 0.8088671071338953,-0.8931712623402838 l 36.03623450994601 33.20386213944069" fill="red" stroke="none" /><path d="M 84.5562425177563 85.77008943001954 l -25.169901080322283 -23.19159970234172 a55.22534466074615,55.22534466074615 0 0,0 0.6501671359800407,-0.6935529690709163 l 24.766966622371786 23.621422088290686" fill="red" stroke="none" /><path d="M 84.80347519578584 85.50635884689758 l -24.84454831078425 -23.69541539704969 a55.332554399660275,55.332554399660275 0 0,0 0.6632943487136065,-0.6835831315686861 l 24.43298969836753 24.1195627241685" fill="red" stroke="none" /><path d="M 85.05521093208273 85.24692304244772 l -24.320001487300615 -24.00802392856617 a55.173786522668365,55.173786522668365 0 0,0 0.6730261369675629,-0.6701359488484222 l 23.90313955016574 24.423095728064705" fill="red" stroke="none" /><path d="M 85.31137513191541 84.99185889309783 l -23.99002423655114 -24.5118703849854 a55.29800362471022,55.29800362471022 0 0,0 0.6860026923341777,-0.659934046506251 l 23.564538300604532 24.921187518253966" fill="red" stroke="none" /><path d="M 85.83668400450813 84.49514656593479 l -23.082999575230957 -25.26940197807232 a55.22524719734714,55.22524719734714 0 0,0 0.7073802239706074,-0.6350929494819496 l 22.64460836366438 25.66299393632355" fill="red" stroke="none" /><path d="M 86.10567301691215 84.25364557470407 l -25.89585334254413 -29.347609666413906 a60.13920558047576,60.13920558047576 0 0,0 0.7821138089754521,-0.6782413880660552 l 25.386845734921902 29.789016047899644" fill="red" stroke="none" /><path d="M 86.37877921826538 84.01681056812374 l -31.855875403172796 -37.3797987159796 a70.11258646975966,70.11258646975966 0 0,0 0.9252940430665022,-0.7749071510360699 l 31.207723823147184 37.92260702440948" fill="red" stroke="none" /><path d="M 86.65592168130627 83.78471172551755 l -31.112287548248855 -37.80663597924923 a69.96239537188089,69.96239537188089 0 0,0 0.93648531272964,-0.7572393280392608 l 30.456898836954714 38.336581404552625" fill="red" stroke="none" /><path d="M 86.93701828274178 83.55741782278169 l -21.358909214991026 -26.884797635386064 a55.336501667320285,55.336501667320285 0 0,0 0.7509095945977354,-0.5860968493141548 l 20.892967065233865 27.248472873923443" fill="red" stroke="none" /><path d="M 87.51073957382395 83.11751280151077 l -29.126227857351342 -39.3716803207514 a69.97413971146193,69.97413971146193 0 0,0 0.9744888044158038,-0.7080075594731818 l 28.444193736581756 39.867207115041246" fill="red" stroke="none" /><path d="M 87.80319425747018 82.90503203632743 l -28.434485675732834 -39.853600356623915 a69.95742473853123,69.95742473853123 0 0,0 0.9862959533332759,-0.6909633453320051 l 27.744258582815895 40.33714854471987" fill="red" stroke="none" /><path d="M 88.09926311788651 82.69761687909137 l -27.659807816021434 -40.21436627195754 a69.8084032014406,69.8084032014406 0 0,0 0.9959176138155762,-0.6724480185287209 l 26.963485507799316 40.68452620278492" fill="red" stroke="none" /><path d="M 88.39885842347998 82.49532879139004 l -26.99509089290931 -40.73221477473474 a69.86561421666113,69.86561421666113 0 0,0 1.008170708165829,-0.6557422726837521 l 26.289953158959193 41.19085597157803" fill="red" stroke="none" /><path d="M 88.70189139769569 82.29822771554957 l -30.5703934216616 -47.897410269710484 a77.82174640487688,77.82174640487688 0 0,0 1.1353853632094566,-0.7109782102813114 l 29.7413889060799 48.416532821314725" fill="red" stroke="none" /><line stroke="#e1ed5e" stroke-width="0.3" x1="56.762969772571076" x2="54.21961505331055" y1="26.818313649435495" y2="22.513508569990535" /><path d="M 56.25429882871897 25.957352633546506 a86.0,86.0 0 0,1 42.265352541879196,-11.944610805530505" fill="none" id="id12" stroke="none" /><text fill="#e1ed5e" style="font-size:6.75px; font-family:Arial;" text-anchor="middle"><textPath startOffset="22.20632615414155" xlink:href="#id12">December</textPath></text><path d="M 89.3179101791058 81.91981866633112 l -27.6455105194346 -46.791952851355674 a75.34851519152718,75.34851519152718 0 0,0 1.1223457978950555,-0.6501351285494095 l 26.835967989074224 47.26089213729513" fill="red" stroke="none" /><path d="M 89.63071344664047 81.73862282372117 l -24.14950775008045 -42.529760111876556 a69.9078646001332,69.9078646001332 0 0,0 1.0515338291235796,-0.5851774374357552 l 23.413849831884825 42.93915294687249" fill="red" stroke="none" /><path d="M 91.23893434514133 80.91482961587045 l -20.39449286856412 -44.42751448604914 a69.88496070136519,69.88496070136519 0 0,0 1.09758617569319,-0.49245492316444694 l 19.626724574404157 44.77198973973012" fill="red" stroke="none" /><path d="M 91.56875222667455 80.76684994638697 l -19.608215902729185 -44.729768224102976 a69.83886051363211,69.83886051363211 0 0,0 1.1051708421950974,-0.47317647811527197 l 18.83536130274378 45.06066423018103" fill="red" stroke="none" /><path d="M 91.90106846888425 80.62456947434976 l -18.886969717976022 -45.18412931443684 a69.97267776047674,69.97267776047674 0 0,0 1.1152849492631411,-0.45495273394179175 l 18.106400899124502 45.50254293456221" fill="red" stroke="none" /><path d="M 92.23578459929587 80.48803036053334 l -18.0897168743942 -45.46061491386713 a69.9275522067338,69.9275522067338 0 0,0 1.12222677733492,-0.43540655476689577 l 17.304506932059603 45.76526417252458" fill="red" stroke="none" /><path d="M 92.57280143429618 80.3572730644239 l -18.978324355050507 -50.19201246650995 a74.66017993599904,74.66017993599904 0 0,0 1.2060025045376699,-0.4441809002950331 l 18.111539524740266 50.51125663461131" fill="red" stroke="none" /><path d="M 93.25333710446033 80.11325718540243 l -12.962759044043397 -38.20956512395441 a61.34853143542701,61.34853143542701 0 0,0 1.0029526034277922,-0.33065770454006194 l 12.303123618373196 38.427036552753705" fill="red" stroke="none" /><path d="M 93.59665428221793 80.00007090966166 l -15.017061275648155 -46.90363036688539 a70.24898649667813,70.24898649667813 0 0,0 1.1548084614714187,-0.35880461029871435 l 14.207467441466008 47.15517511206663" fill="red" stroke="none" /><path d="M 93.94186890950719 79.89281104454417 l -17.616182766292674 -58.468842992117786 a82.06501040769868,82.06501040769868 0 0,0 1.3560648282905088,-0.39587250912401184 l 16.607127720278744 58.763413830160495" fill="red" stroke="none" /><path d="M 97.47563105711357 79.15227682838746 l -2.367422952187652 -19.55157088919646 a40.69438030682406,40.69438030682406 0 0,0 0.6961322088690296,-0.07821856477094317 l 2.030524039808905 19.589425407438" fill="red" stroke="none" /><path d="M 98.91598698831166 79.02799685794201 l -0.5360812123539536 -10.37136708569116 a31.38521248181263,31.38521248181263 0 0,0 0.5397646292959831,-0.023243400362546622 l 0.3574757506686464 10.379058212577899" fill="red" stroke="none" /></svg>