<?xml version="1.0" encoding="utf-8" ?>
<svg baseProfile="full" height="200mm" version="1.1" viewBox="0,0,200,200" width="200mm" xmlns="http://www.w3.org/2000/svg" xmlns:ev="http://www.w3.org/2001/xml-events" xmlns:xlink="http://www.w3.org/1999/xlink"><defs /><rect fill="#1a1a1a" height="200" width="200" x="0" y="0" /><text alignment-baseline="middle" fill="#e1ed5e" style="dominant-baseline: central; font-size:9.0px; font-family:Arial;" text-anchor="middle" x="100.0" y="100.0">2025</text><line stroke="#e1ed5e" stroke-width="0.3" x1="100.0" x2="100.0" y1="15.0" y2="10.0" /><path d="M 100.0 14.0 a86.0,86.0 0 0,1 42.46469731375804,11.215312516191453" fill="none" id="id37" stroke="none" /><text fill="#e1ed5e" style="font-size:6.75px; font-family:Arial;" text-anchor="middle"><textPath startOffset="22.20632615414155" xlink:href="#id37">January</textPath></text><path d="M 100.0 79.0 l 0.0 -15.551192766996706 a36.55119276699671,36.55119276699671 0 0,0 0.629168699018883,0.005415453628102842 l -0.2676882197463546 15.548888689977163" fill="#ffc912" stroke="none" /><path d="M 100.36148047927253 79.00311137660856 l 0.25412618021204714 -14.761126556373268 a35.76331390063685,35.76331390063685 0 0,0 0.6154242419454903,0.01589459249108012 l -0.5081770573524053 14.754565171739829" fill="#ffbf11" stroke="none" /><path d="M 100.72285384407766 79.0124445844662 l 0.2675139012829653 -7.767078882683064 a28.77168437709618,28.77168437709618 0 0,0 0.4948170276375681,0.021307862085340606 l -0.401171761309865 7.761323294073528" fill="#ff6309" stroke="none" /><path d="M 101.08401301168833 79.027996857942 l 1.4047679359432954 -27.17753131079165 a48.213812322107955,48.213812322107955 0 0,0 0.8284463455209956,0.04997414595066189 l -1.872376330303903 27.149323895460682" fill="#aaff21" stroke="none" /><path d="M 101.44485096284872 79.0497635885617 l 0.534657288577425 -7.752492736490264 a28.770907414553545,28.770907414553545 0 0,0 0.4937770139596599,0.03832659959629035 l -0.668024491899426 7.742140874705508" fill="#ff6309" stroke="none" /><path d="M 101.80526077348638 79.07773832637324 l 1.6358603447746298 -18.958977394044837 a40.02942098161448,40.02942098161448 0 0,0 0.6859801327814106,0.06514207930568454 l -1.9619656046462846 18.928009770223976" fill="#fff417" stroke="none" /><path d="M 102.16513564639614 79.11191278185805 l 1.8426170434568716 -17.776597774567378 a38.87184002859223,38.87184002859223 0 0,0 0.6649552016244668,0.0747154647427361 l -2.148338948591064 17.74224635635404" fill="#ffe615" stroke="none" /><path d="M 102.52436894288641 79.15227682838746 l 2.0590792940464966 -17.005087640476653 a38.129296926595174,38.129296926595174 0 0,0 0.6508948266921628,0.08450482931125088 l -2.351488849246506 16.967124488001268" fill="#ffdd14" stroke="none" /><path d="M 102.88285421437855 79.19881850522331 l 1.7569367587363 -12.677144827872096 a33.79831347330745,33.79831347330745 0 0,0 0.5755869193928973,0.08482654981428298 l -1.974892658557853 12.645023793896845" fill="#ffa60f" stroke="none" /><path d="M 103.2404852339499 79.25152402106235 l 2.1583420713100074 -13.819630514507853 a34.987159399045375,34.987159399045375 0 0,0 0.5942332341811061,0.09805357522670742 l -2.395904511629989 13.78043067634152" fill="#ffb510" stroke="none" /><path d="M 103.59715602781102 79.31037775812273 l 3.996121649526116 -22.984337271462444 a44.32913946218653,44.32913946218653 0 0,0 0.7506503938125457,0.13717656143267493 l -4.391167164441563 22.91214522867903" fill="#d6ff1c" stroke="none" /><path d="M 103.95276090670814 79.375362276772 l 1.4628385802409567 -7.632770227470459 a28.77168437709618,28.77168437709618 0 0,0 0.48560244759299115,0.0974072826765109 l -1.594007437301073 7.6064589887167395" fill="#ff6309" stroke="none" /><path d="M 104.307194497241 79.44645832069477 l 3.5064004363415426 -16.732225015342134 a38.09567775737532,38.09567775737532 0 0,0 0.6406555132533193,0.14002248113136917 l -3.79389867374839 16.669389036114897" fill="#ffdc14" stroke="none" /><path d="M 104.66035177308747 79.52364482259891 l 3.6213084430241955 -15.911073132824848 a37.31796933069857,37.31796933069857 0 0,0 0.6251227457713698,0.14794635701820705 l -3.8946548757580888 15.846380863665773" fill="#ffd313" stroke="none" /><path d="M 105.01212808612495 79.60689891045804 l 4.080087257300031 -16.600859048795908 a38.09490079483268,38.09490079483268 0 0,0 0.6354431016597935,0.16198859534394158 l -4.365239247644849 16.5281674572831" fill="#ffdc14" stroke="none" /><path d="M 105.36241919743992 79.69619591428918 l 4.964010282994563 -18.795302745725834 a40.43977374850759,40.43977374850759 0 0,0 0.6714968793057221,0.18354546305582387 l -5.286805051523996 18.707070741843715" fill="#fff917" stroke="none" /><path d="M 105.71112130821622 79.79150937346287 l 6.2513532329227495 -22.120071767508882 a43.986452363131576,43.986452363131576 0 0,0 0.7268442503642444,0.21218576806300346 l -6.631187701010421 22.009187670527176" fill="#daff1b" stroke="none" /><path d="M 106.0581310904928 79.89281104454417 l 7.87641116694776 -26.14213612399701 a48.302914386497434,48.302914386497434 0 0,0 0.7940415517581332,0.24671257532747007 l -8.325238091416612 26.002683413787018" fill="#a9ff21" stroke="none" /><path d="M 106.40334571778207 80.00007090966166 l 2.3988301422016605 -7.4924008258009644 a28.8670487595793,28.8670487595793 0 0,0 0.4719311290632995,0.15558827336780076 l -2.5274440935073774 7.449998828173928" fill="#ff6409" stroke="none" /><path d="M 106.74666289553966 80.11325718540242 l 5.27159849773871 -15.538781938498374 a37.40864085942417,37.40864085942417 0 0,0 0.6080115394693044,0.2121232875013109 l -5.538292041271288 15.445737797824854" fill="#ffd413" stroke="none" /><path d="M 107.08798089147638 80.2323363322302 l 5.507685701558692 -15.360379803947126 a37.31796156107315,37.31796156107315 0 0,0 0.6028053394121726,0.22201829378903165 l -5.771273366743442 15.26329824235177" fill="#ffd313" stroke="none" /><path d="M 107.4271985657038 80.35727306442388 l 5.241255185022857 -13.861558094659697 a35.8193639784626,35.8193639784626 0 0,0 0.5748442228450666,0.2230306277230531 l -5.479082572867591 13.769284763046098" fill="#ffc011" stroke="none" /><path d="M 107.76421540070413 80.48803036053334 l 2.872805056949424 -7.219542755887467 a28.770122682385484,28.770122682385484 0 0,0 0.4585630540816872,0.18705938359250562 l -2.996651980619499 7.169022486111382" fill="#ff6309" stroke="none" /><path d="M 108.09893153111575 80.62456947434976 l 7.981677046749127 -19.094917459582444 a41.69596678744118,41.69596678744118 0 0,0 0.6598212856239178,0.2825010398364251 l -8.30918209016336 18.95469689178323" fill="#f6ff19" stroke="none" /><path d="M 108.43124777332544 80.76684994638697 l 8.427442091552473 -19.22446862821035 a41.990521056979844,41.990521056979844 0 0,0 0.6594868904518643,0.2958925441643101 l -8.757111100471118 19.076555753529508" fill="#f2ff19" stroke="none" /><path d="M 108.76106565485865 80.91482961587045 l 3.241645474604079 -7.061624538043657 a28.770122682385484,28.770122682385484 0 0,0 0.44829576215524697,0.21048087132178758 l -3.3627194480589235 7.004778684081866" fill="#ff6309" stroke="none" /><path d="M 109.08828744355905 81.06846463323043 l 5.38150311084957 -11.210045578128403 a33.434858165487846,33.434858165487846 0 0,0 0.5166939122919851,0.2535394587846532 l -5.573668290151987 11.115750959208917" fill="#ffa10e" stroke="none" /><path d="M 109.41281617654863 81.2277094730956 l 5.59258563261118 -11.153478440759622 a33.47706277080382,33.47706277080382 0 0,0 0.5128997072780497,0.26272715120052764 l -5.783745827477985 11.055558764246593" fill="#ffa20e" stroke="none" /><path d="M 109.73455568895987 81.39251694778311 l 5.0435245270966895 -9.640634884633284 a31.88021050505155,31.88021050505155 0 0,0 0.4840553827264694,0.25856562155297796 l -5.20872495635147 9.552390536578553" fill="#ff8d0c" stroke="none" /><path d="M 110.05341064243156 81.56283822128135 l 4.093259325452781 -7.506714593662385 a29.550177535940993,29.550177535940993 0 0,0 0.44448520224992605,0.24735553381816616 l -4.221868616774742 7.435143662284039" fill="#ff6d0a" stroke="none" /><path d="M 110.36928655335952 81.73862282372117 l 4.987589722174734 -8.78365706728933 a31.10092484441325,31.10092484441325 0 0,0 0.46326051974679594,0.26835039443486675 l -5.138046974386858 8.696502515464413" fill="#ff820c" stroke="none" /><line stroke="#e1ed5e" stroke-width="0.3" x1="143.23703022742887" x2="145.7803849466894" y1="26.81831364943548" y2="22.513508569990506" /><path d="M 143.74570117128098 25.957352633546492 a86.0,86.0 0 0,1 28.547481713284135,27.462654790039103" fill="none" id="id38" stroke="none" /><text fill="#e1ed5e" style="font-size:6.75px; font-family:Arial;" text-anchor="middle"><textPath startOffset="19.985693538727396" xlink:href="#id38">February</textPath></text><path d="M 110.68208982089419 81.91981866633111 l 8.357332961503989 -14.14536836362151 a37.429743162082154,37.429743162082154 0 0,0 0.5518889683196014,0.3325069282847458 l -8.599583996041227 13.99941482587815" fill="#ffd413" stroke="none" /><path d="M 110.99172775467656 82.1063720568725 l 4.08132248595347 -6.644057031752835 a28.79747953351169,28.79747953351169 0 0,0 0.4201426756676054,0.2630933049590914 l -4.195084313993338 6.572819385470799" fill="#ff6309" stroke="none" /><path d="M 111.2981086023043 82.29822771554956 l 6.69506337946069 -10.489763512186885 a33.444236103377456,33.444236103377456 0 0,0 0.4826050636561537,0.31389975793516434 l -6.874635468901124 10.372964830092192" fill="#ffa10e" stroke="none" /><path d="M 111.60114157652 82.49532879139004 l 4.292490157394449 -6.476830609796211 a28.770122682385484,28.770122682385484 0 0,0 0.4104473189043124,0.27713586192154355 l -4.4033421707053035 6.401982835575997" fill="#ff6309" stroke="none" /><path d="M 111.90073688211348 82.69761687909136 l 5.45755811013281 -7.934698688117725 a30.630388558967574,30.630388558967574 0 0,0 0.4318430587982622,0.30253365996000037 l -5.593332308514723 7.839580185393789" fill="#ff7c0b" stroke="none" /><path d="M 112.19680574252982 82.90503203632743 l 4.514252184071893 -6.327148115309854 a28.772469109264243,28.772469109264243 0 0,0 0.4006973024319172,0.291123631073812 l -4.622494802857599 6.248505249419368" fill="#ff6309" stroke="none" /><path d="M 112.48926042617603 83.11751280151076 l 3.7085922690757864 -5.013128029251785 a27.235792592439118,27.235792592439118 0 0,0 0.3744971365002732,0.2820634790721447 l -3.7943355593344426 4.948547960673793" fill="#ff4e07" stroke="none" /><path d="M 112.77801427241765 83.33499621200491 l 2.371307258279123 -3.0926436298497673 a24.89711979985445,24.89711979985445 0 0,0 0.3378508863454323,0.2636979756945708 l -2.4241906997839857 3.0513672649319723" fill="#ff2d04" stroke="none" /><path d="M 113.06298171725822 83.55741782278167 l 20.591348891765616 -25.9186572882759 a54.10257459487879,54.10257459487879 0 0,0 0.7241928498824538,0.5855802537013596 l -21.03444514021256 25.56037093731041" fill="#6bff28" stroke="none" /><path d="M 113.34407831869373 83.78471172551755 l 1.364843393227122 -1.6585131278566314 a23.14789740986587,23.14789740986587 0 0,0 0.30548882392323307,0.25583810464745116 l -1.3931897541094724 1.6347738658153608" fill="#ff1402" stroke="none" /><path d="M 113.6212207817346 84.01681056812373 l 1.3374214439065584 -1.5693351301431455 a23.06191873489779,23.06191873489779 0 0,0 0.29992157245737894,0.2600890321587869 l -1.3642368150107014 1.5460811045646874" fill="#ff1302" stroke="none" /><path d="M 114.16331599549186 84.49514656593476 l 2.6279002446304336 -2.8768127566530426 a24.8963972246898,24.8963972246898 0 0,0 0.3139223670004626,0.29175662763143845 l -2.6770304954257433 2.8311515429469636" fill="#ff2d04" stroke="none" /><path d="M 114.42810811169701 84.74124197986012 l 5.346539547858379 -5.654348621060035 a28.781847047153857,28.781847047153857 0 0,0 0.3570549255032391,0.3434865554398693 l -5.443077716974037 5.561478978857864" fill="#ff6309" stroke="none" /><path d="M 114.68862486808459 84.99185889309783 l 8.161336837087324 -8.338867386973961 a32.66808160178598,32.66808160178598 0 0,0 0.39849490398048176,0.3967836402215261 l -8.303667541235129 8.197147896102315" fill="#ff970d" stroke="none" /><path d="M 114.94478906791727 85.2469230424477 l 5.534110353698247 -5.463118654178197 a28.776377230853704,28.776377230853704 0 0,0 0.3449544052460021,0.3555058369542812 l -5.627329022647358 5.367048621673801" fill="#ff6309" stroke="none" /><path d="M 115.19652480421416 85.50635884689758 l 8.621145045186944 -8.222391910230423 a32.91351629937921,32.91351629937921 0 0,0 0.38749032276496864,0.4133476593442346 l -8.761402689922376 8.072774834008134" fill="#ff9a0e" stroke="none" /><path d="M 115.4437574822437 85.77008943001954 l 12.158010773563637 -11.202416653821658 a37.53213128595071,37.53213128595071 0 0,0 0.4336862065604661,0.47888714123351667 l -12.349040620740139 10.991476725318591" fill="#ffd513" stroke="none" /><path d="M 115.68641384162765 86.03803664274999 l 10.487140353955583 -9.334260260028485 a35.039534444044456,35.039534444044456 0 0,0 0.39712829972032476,0.4539862971483566 l -10.646260517253756 9.15235840667718" fill="#ffb610" stroke="none" /><path d="M 115.9244219780498 86.31012108654704 l 8.852127737659966 -7.609981512799886 a32.67355918771156,32.67355918771156 0 0,0 0.36297117038540927,0.42964337873572506 l -8.981809521532492 7.456479184435055" fill="#ff970d" stroke="none" /><path d="M 116.15771136456269 86.58626213691792 l 5.985065316492215 -4.968655240675153 a28.778723657732463,28.778723657732463 0 0,0 0.3131419881861045,0.38387505119070103 l -6.069705796754728 4.86489601987635" fill="#ff6309" stroke="none" /><path d="M 116.38621287248628 86.86637796730983 l 15.178535598155186 -12.16566336024022 a40.45228284544402,40.45228284544402 0 0,0 0.43080895185915924,0.5470836195271014 l -15.385698630608308 11.90258734676008" fill="#fff917" stroke="none" /><path d="M 116.60985879189232 87.15038557335679 l 6.155018123491894 -4.761606384906622 a28.781847047153857,28.781847047153857 0 0,0 0.29977535400010014,0.39446922659211425 l -6.2360694177161085 4.654952382433474" fill="#ff6309" stroke="none" /><path d="M 116.82858285166822 87.43820079747576 l 6.2348179363433465 -4.654018206463406 a28.78028535244316,28.78028535244316 0 0,0 0.2929249048735022,0.3995492410518277 l -6.314005453730474 4.546006521740084" fill="#ff6309" stroke="none" /><path d="M 117.04232023915458 87.72973835380427 l 13.48243688604245 -9.70718927344062 a37.61341710716127,37.61341710716127 0 0,0 0.37378311791987134,0.5286897124762282 l -13.647532623766203 9.473673060632601" fill="#ffd614" stroke="none" /><path d="M 117.2510076193507 88.02491185347247 l 11.535075899729105 -8.007274341540203 a35.041880870923215,35.041880870923215 0 0,0 0.33969855344146593,0.4984657105754816 l -11.671198918839304 7.807530607694315" fill="#ffb610" stroke="none" /><path d="M 117.45458315368197 88.32363383020206 l 13.64227440525182 -9.126095418152719 a37.41332594355626,37.41332594355626 0 0,0 0.3534728452215333,0.538363393650388 l -13.797343885831278 8.889913960524657" fill="#ffd413" stroke="none" /><path d="M 117.65298651832404 88.62581576622439 l 6.536965829412499 -4.211902252146088 a28.776377230853704,28.776377230853704 0 0,0 0.2647048552865314,0.41869951205479555 l -6.6084982809449855 4.098755092377086" fill="#ff6309" stroke="none" /><line stroke="#e1ed5e" stroke-width="0.3" x1="172.23445277983987" x2="176.4835382374775" y1="55.19839476539836" y2="52.563006222186495" /><path d="M 173.08426987136738 54.67131705675599 a86.0,86.0 0 0,1 12.851231095245387,41.99856678651699" fill="none" id="id39" stroke="none" /><text fill="#e1ed5e" style="font-size:6.75px; font-family:Arial;" text-anchor="middle"><textPath startOffset="22.20632615414155" xlink:href="#id39">March</textPath></text><path d="M 117.84615892207809 88.93136811851018 l 13.93769447127014 -8.644504963379594 a37.400816846619826,37.400816846619826 0 0,0 0.3346201246033483,0.5500275024102715 l -14.084430394159712 8.403309687762242" fill="#ffd413" stroke="none" /><path d="M 118.03404312379186 89.2402003453031 l 13.378330295626652 -7.982023371420108 a36.57858846625004,36.57858846625004 0 0,0 0.3179555926688197,0.543489174690684 l -13.5137455627658 7.750554784375528" fill="#ffc912" stroke="none" /><path d="M 118.21658344932153 89.55222093294921 l 6.744313143677645 -3.8680740480331504 a28.774815536143002,28.774815536143002 0 0,0 0.24272565216416742,0.4317818511439592 l -6.809896437134245 3.751408686954397" fill="#ff6309" stroke="none" /><path d="M 118.3937258080291 89.86733742301442 l 14.474197819550806 -7.973488574785045 a37.52509977493985,37.52509977493985 0 0,0 0.30679789082743714,0.5684498971788209 l -14.609303809596708 7.723157694273765" fill="#ffd513" stroke="none" /><path d="M 118.56541770881063 90.18545643968196 l 6.876916854629072 -3.6354581991662758 a28.778723657732463,28.778723657732463 0 0,0 0.22775011417175847,0.4399407291744602 l -6.938476401960947 3.5165447477314706" fill="#ff6309" stroke="none" /><path d="M 118.73160827565052 90.50648371742162 l 14.629922660340279 -7.414708173742204 a37.40160157878789,37.40160157878789 0 0,0 0.28610441872087033,0.5767690498129998 l -14.755387092014557 7.161779535430254" fill="#ffd413" stroke="none" /><path d="M 118.89224826269711 90.83032412892265 l 6.99018630770004 -3.3928065007812624 a28.77006052538207,28.77006052538207 0 0,0 0.212407721292249,0.4473848317640103 l -7.047552222834045 3.2719792533767116" fill="#ff6309" stroke="none" /><path d="M 119.04729006885535 91.15688171328212 l 1.8234026942418704 -0.8465543209144786 a23.010336191692197,23.010336191692197 0 0,0 0.163699567282536,0.36069029730714364 l -1.8377045784877533 0.8150420147652722" fill="#ff1202" stroke="none" /><path d="M 119.196687751892 91.48605970444005 l 7.114321531218788 -3.1552791576892507 a28.782631779321918,28.782631779321918 0 0,0 0.19696817056504057,0.45462969439285295 l -7.16758041162651 3.0323503187097947" fill="#ff6309" stroke="none" /><path d="M 119.34039704204932 91.81776055985345 l 15.100366582869935 -6.388432189184123 a37.39613176248773,37.39613176248773 0 0,0 0.24570738940807382,0.5949999327869565 l -15.208095659164206 6.127557685943864" fill="#ffd413" stroke="none" /><path d="M 119.47837535516314 92.15188598940014 l 17.301772038053322 -6.971129627813551 a39.65336334135331,39.65336334135331 0 0,0 0.24963954298149693,0.6353054074013021 l -17.419205130916517 6.672275215516464" fill="#fff016" stroke="none" /><path d="M 119.61058180528143 92.48833698450437 l 13.077793994275453 -5.0093353907844484 a35.00436134973933,35.00436134973933 0 0,0 0.21068526938276697,0.5645317758200652 l -13.162083852159846 4.783480477935051" fill="#ffb510" stroke="none" /><path d="M 119.7369772167798 92.82701384747503 l 15.415144603773154 -5.602307666851295 a37.40160157878789,37.40160157878789 0 0,0 0.21469751633818301,0.6069787901665235 l -15.509295200921146 5.336131250258156" fill="#ffd413" stroke="none" /><path d="M 119.85752413597 93.16781622104841 l 7.356267682519348 -2.530998949818443 a28.779500620275098,28.779500620275098 0 0,0 0.15713978214370308,0.46982794748067863 l -7.3987447584348205 2.40399789941545" fill="#ff6309" stroke="none" /><path d="M 119.97218684219823 93.5106431181261 l 15.589184785601786 -5.065233185056377 a37.39143890873021,37.39143890873021 0 0,0 0.19362447311145425,0.6138424924219741 l -15.674064742481445 4.796140526207984" fill="#ffd413" stroke="none" /><path d="M 120.08093135843002 93.85539295169968 l 7.438286467958156 -2.276057153051586 a28.778723657732463,28.778723657732463 0 0,0 0.14087062288889707,0.4749457098434518 l -7.476362987958756 2.1476820564616044" fill="#ff6309" stroke="none" /><path d="M 120.18372546131832 94.20196356495316 l 15.758056347762512 -4.526705687953835 a37.39534703031967,37.39534703031967 0 0,0 0.1723983005617529,0.6202084131136193 l -15.833641418890627 4.254785971421264" fill="#ffd413" stroke="none" /><path d="M 120.28053869075195 94.5502522615342 l 14.800072906704964 -3.9770474089637577 a36.325112206340535,36.325112206340535 0 0,0 0.15706921112183633,0.605251743016078 l -14.866338449697103 3.7216992403988294" fill="#ffc612" stroke="none" /><path d="M 120.37134235888165 94.90015583598534 l 13.972461372911878 -3.497922440957722 a35.40365017002531,35.40365017002531 0 0,0 0.1429080135932671,0.5924459772814701 l -14.030602186765964 3.2568912320168457" fill="#ffba11" stroke="none" /><path d="M 120.45610955862082 95.25157060432595 l 24.426035820390975 -5.669959196148915 a46.075479321141934,46.075479321141934 0 0,0 0.17268565924501986,0.774115950140385 l -24.520015866638033 5.2486650764585665" fill="#c2ff1e" stroke="none" /><path d="M 120.53481517161879 95.60439243477599 l 7.623992678234979 -1.6319640383215772 a28.796702570969053,28.796702570969053 0 0,0 0.09958270552524721,0.48560063821913374 l -7.650954679675223 1.5004877439390316" fill="#ff6309" stroke="none" /><path d="M 120.6074358757038 95.95851677861258 l 30.823317101111364 -6.04499849680553 a52.41049003027564,52.41049003027564 0 0,0 0.1660021811377772,0.8867902894612727 l -30.922805006159 5.513530129881695" fill="#7cff26" stroke="none" /><path d="M 120.67395015179393 96.31383870115 l 41.29988757579344 -7.36376193765444 a62.95123006119875,62.95123006119875 0 0,0 0.18102417135276044,1.0684149065147848 l -41.42052360866642 6.651761242823817" fill="#33ff52" stroke="none" /><path d="M 120.78858239683441 97.02765380044208 l 9.240953528913055 -1.3212691744742822 a30.33493301287945,30.33493301287945 0 0,0 0.06945833083675101,0.517545242533895 l -9.262327858807643 1.1620055898757229" fill="#ff780b" stroke="none" /><path d="M 120.83666639777658 97.38593545837742 l 7.715894197264964 -0.9679977134026586 a28.776377230853704,28.776377230853704 0 0,0 0.05742894340860192,0.492016115860198 l -7.731413493677155 0.835037859217608" fill="#ff6309" stroke="none" /><path d="M 120.87857604477298 97.74499172005257 l 11.592844618662369 -1.2520949966687196 a32.66026535860706,32.66026535860706 0 0,0 0.05555802640907527,0.5594617439608216 l -11.612679770753672 1.052357722003463" fill="#ff970d" stroke="none" /><path d="M 120.91429891909075 98.10471618934814 l 7.930684557189863 -0.7186900267026575 a28.96318233497963,28.96318233497963 0 0,0 0.040721567079541186,0.4969062623174743 l -7.9418806080888995 0.5820698471774144" fill="#ff6509" stroke="none" /><path d="M 120.94382443527127 98.46500227214037 l 12.744589304300549 -0.9340660625315325 a33.77877286536016,33.77877286536016 0 0,0 0.03750957237220405,0.5802564824682955 l -12.758779467677169 0.7145505158102017" fill="#ffa50f" stroke="none" /><path d="M 120.96714384426684 98.82574320788733 l 7.781377754968541 -0.4357930554888001 a28.793571411922233,28.793571411922233 0 0,0 0.023454957758530372,0.4950970875001252 l -7.787726320960568 0.3017848613656751" fill="#ff6309" stroke="none" /><path d="M 120.98425023603335 99.18683210126433 l 16.38690154827957 -0.6350144584113407 a37.399200764531145,37.399200764531145 0 0,0 0.019391139287566087,0.6434975094605191 l -16.395404382022782 0.3528468015258226" fill="#ffd413" stroke="none" /><line stroke="#e1ed5e" stroke-width="0.3" x1="184.98032266829074" x2="189.97916517819016" y1="98.17113171792111" y2="98.06355123074" /><path d="M 185.9800911702706 98.14961562048488 a86.0,86.0 0 0,1 -9.607161424134198,41.387399972396054" fill="none" id="id40" stroke="none" /><text fill="#e1ed5e" style="font-size:6.75px; font-family:Arial;" text-anchor="middle"><textPath startOffset="21.466115282336823" xlink:href="#id40">April</textPath></text><path d="M 120.99513854157772 99.54816195383933 l 18.662941766769126 -0.401646653905509 a39.66726320124107,39.66726320124107 0 0,0 0.008815563572375996,0.6827751137724336 l -18.667090337459218 0.0803352820726127" fill="#fff016" stroke="none" /><path d="M 120.99980553446 99.90962569577887 l 14.008940015066157 -0.060288568132671874 a35.009069742747705,35.009069742747705 0 0,0 -0.0025935097471795547,0.6026403280433077 l -14.007902208029474 -0.18086123811432053" fill="#ffb510" stroke="none" /><path d="M 120.99824983174949 100.27111621757518 l 16.41039647033494 0.21188073556584097 a37.411764248845564,37.411764248845564 0 0,0 -0.01385649319860952,0.6438567908948606 l -16.404317914451322 -0.49432734225081637" fill="#ffd413" stroke="none" /><path d="M 120.9904718944345 100.63252640178507 l 7.777539662840808 0.23436820298364713 a28.781070084611223,28.781070084611223 0 0,0 -0.019184456925933235,0.4950655890402903 l -7.772353073063671 -0.3682110390379436" fill="#ff6309" stroke="none" /><path d="M 120.9764740272857 100.99374915477107 l 19.424243214541708 0.9202130563701858 a40.446028296975804,40.446028296975804 0 0,0 -0.03893151542800618,0.6951483606798275 l -19.40552534822617 -1.2544331333854366" fill="#fff917" stroke="none" /><path d="M 120.95626037817324 101.35467743843564 l 7.783580177637019 0.5031546786793117 a28.79982596039045,28.79982596039045 0 0,0 -0.036237643416269616,0.49443385347326 l -7.773765975556412 -0.637061668649342" fill="#ff6309" stroke="none" /><path d="M 120.92983693683757 101.71520430193887 l 16.346802216524203 1.3396236946011602 a37.40160157878789,37.40160157878789 0 0,0 -0.058106778637711014,0.6412034603073717 l -16.321320841609417 -1.6208085434571025" fill="#ffd413" stroke="none" /><path d="M 120.89721153311464 102.0752229133903 l 13.92880953215145 1.3832173087574464 a34.99732206910305,34.99732206910305 0 0,0 -0.06469121411185834,0.5989602988484856 l -13.90293601653854 -1.6227739294907233" fill="#ffb510" stroke="none" /><path d="M 120.8583938346157 102.4346265915055 l 13.915623148693616 1.6242547927613857 a35.01009533330398,35.01009533330398 0 0,0 -0.07501911672012594,0.5979761722267556 l -13.885602522726641 -1.8635487192755362" fill="#ffb510" stroke="none" /><path d="M 120.81339534386255 102.79330883721812 l 16.25588879909406 2.1816583545910593 a37.401632657289596,37.401632657289596 0 0,0 -0.09112809659231888,0.6373496953207847 l -16.215926651485137 -2.4611535218922533" fill="#ffd413" stroke="none" /><path d="M 120.76222939487914 103.15116336523771 l 7.68601004166593 1.1665352890340597 a28.77403080397494,28.77403080397494 0 0,0 -0.07853699836371854,0.4890499637802946 l -7.664791288940923 -1.2986644825075593" fill="#ff6309" stroke="none" /><path d="M 120.70491114924044 103.5080841355445 l 19.162801720492425 3.2468007335887776 a40.43591224467069,40.43591224467069 0 0,0 -0.12218107091355794,0.6852563316607313 l -19.104074207239677 -3.5761758159827273" fill="#fff917" stroke="none" /><path d="M 120.64145759157962 103.86396538481128 l 7.649755420178726 1.4319914189539105 a28.782631779321918,28.782631779321918 0 0,0 -0.0953528391440098,0.4862020725034467 l -7.623972648059053 -1.5634572185253022" fill="#ff6309" stroke="none" /><path d="M 120.5718875245553 104.21870165774334 l 16.1928035679012 3.3206776565289307 a37.52978485907195,37.52978485907195 0 0,0 -0.1352251070393581,0.6317266813317254 l -16.133244422137402 -3.598918157276825" fill="#ffd513" stroke="none" /><path d="M 120.49622156327973 104.57218783832717 l 4.556637832085157 1.0164704755556648 a25.668635835066393,25.668635835066393 0 0,0 -0.0999114174520504,0.4304157714586986 l -4.538465848702554 -1.0947549043629283" fill="#ff3805" stroke="none" /><path d="M 120.41448212921028 104.9243191809786 l 7.5671561221882975 1.8253263444108232 a28.78419347403262,28.78419347403262 0 0,0 -0.12032983400771476,0.4806578722258283 l -7.534614973885522 -1.9553120560340476" fill="#ff6309" stroke="none" /><path d="M 120.32669344350535 105.2749913415812 l 7.527808908706366 1.9535458103340242 a28.777161963021765,28.777161963021765 0 0,0 -0.12855432957977667,0.4783984837507922 l -7.493066502784813 -2.0828352272603645" fill="#ff6309" stroke="none" /><path d="M 120.23288151984713 105.62410040840565 l 4.4980931290576605 1.250327462223533 a25.668635835066393,25.668635835066393 0 0,0 -0.12199613606804535,0.4246845540423343 l -4.475904356103516 -1.3275694917704493" fill="#ff3805" stroke="none" /><path d="M 120.13307415673323 105.97154293290107 l 0.7531039455520175 0.2233733660737073 a21.78553243948109,21.78553243948109 0 0,0 -0.10972981327601236,0.3586033787105142 l -0.7491473597698725 -0.23630371733627858" fill="#ff0000" stroke="none" /><path d="M 120.02730092923936 106.31721596034902 l 15.836453391354192 4.995295994835071 a37.60560863360777,37.60560863360777 0 0,0 -0.20003989950591963,0.6156595054875654 l -15.748121240832026 -5.267154400300432" fill="#ffd614" stroke="none" /><path d="M 119.9155931802556 106.66101706037122 l 1.481780736344503 0.495599938961672 a22.562463903615207,22.562463903615207 0 0,0 -0.1263596491227397,0.3672602879913342 l -1.4730302562785325 -0.5210329300423066" fill="#ff0b01" stroke="none" /><path d="M 119.79798401119884 107.00284435728193 l 19.55250460563908 6.91601460385447 a41.73961654308646,41.73961654308646 0 0,0 -0.24542047609600307,0.6752917463158552 l -19.43055986853785 -7.251554147176456" fill="#f5ff19" stroke="none" /><path d="M 119.67450827220406 107.3425965602758 l 13.113102022919058 4.893856378817881 a34.99654510656042,34.99654510656042 0 0,0 -0.2154882607972443,0.5625718509636028 l -13.026919482528308 -5.118851796614628" fill="#ffb510" stroke="none" /><path d="M 119.54520255179757 107.68017299344265 l 15.260264976422931 5.996431842243718 a37.3961239928623,37.3961239928623 0 0,0 -0.24057707563533806,0.597092572144536 l -15.1547852865302 -6.258223782231068" fill="#ffd413" stroke="none" /><path d="M 119.41010516605496 108.01547362559984 l 18.82275342019374 7.772924582839678 a41.36453787562901,41.36453787562901 0 0,0 -0.27743593205790096,0.6557765901354159 l -18.686166506943533 -8.095775698641257" fill="#f9ff18" stroke="none" /><path d="M 119.26925614724726 108.34839909993367 l 32.17930051762843 13.941671719187871 a56.069610664069884,56.069610664069884 0 0,0 -0.391309586593616,0.8822998150547253 l -31.93454984630354 -14.493519870735284" fill="#57ff2a" stroke="none" /><path d="M 119.12269723197855 108.67885076344098 l 7.0804905310290005 3.213486042543993 a28.77559249868564,28.77559249868564 0 0,0 -0.20858931398920458,0.4492828253562302 l -7.024126600199964 -3.3348889351790536" fill="#ff6309" stroke="none" /><path d="M 118.97047184881838 109.00673069616215 l 14.831312543229139 7.041555898663487 a37.41801879731378,37.41801879731378 0 0,0 -0.2812529719564469,0.5794644266088268 l -14.707906314657977 -7.29580928123759" fill="#ffd413" stroke="none" /><path d="M 118.81262510543309 109.33194174019688 l 19.325525285131302 9.58636421280002 a42.57253592804291,42.57253592804291 0 0,0 -0.33129811675869647,0.6536826146253888 l -19.157648498586337 -9.917601039128103" fill="#ebff1a" stroke="none" /><path d="M 118.64920377521936 109.65438752849418 l 12.45055818936644 6.445450173370558 a35.01999383609716,35.01999383609716 0 0,0 -0.28174000574230096,0.5329459143710847 l -12.337765675399245 -6.658811102827777" fill="#ffb610" stroke="none" /><line stroke="#e1ed5e" stroke-width="0.3" x1="174.80103733775053" x2="179.2010983576182" y1="140.37084112569926" y2="142.7455964860345" /><path d="M 175.68104954172406 140.8457921977663 a86.0,86.0 0 0,1 -30.038265399797805,32.042727171017184" fill="none" id="id41" stroke="none" /><text fill="#e1ed5e" style="font-size:6.75px; font-family:Arial;" text-anchor="middle"><textPath startOffset="22.206326154141568" xlink:href="#id41">May</textPath></text><path d="M 118.48025628344425 109.97397251340804 l 14.435312057978635 7.790877111251454 a37.403536215519054,37.403536215519054 0 0,0 -0.31066948028196806,0.5639553467623202 l -14.299066168245156 -8.03820297641158" fill="#ffd413" stroke="none" /><path d="M 118.30583269289576 110.29060199501025 l 6.782807959075681 3.8129473969530845 a28.781070084611223,28.781070084611223 0 0,0 -0.24648657158646634,0.4297701139759535 l -6.716169391336835 -3.9291373567873533" fill="#ff6309" stroke="none" /><path d="M 118.12598468904814 110.60418214915192 l 14.16703308329797 8.288090379946263 a37.41332594355626,37.41332594355626 0 0,0 -0.32998397468963275,0.5530721222225858 l -14.02226823291011 -8.530724596054952" fill="#ffd413" stroke="none" /><path d="M 117.94076556474637 110.91462005526583 l 7.464204603891795 4.540996702299679 a29.736990409692346,29.736990409692346 0 0,0 -0.26980705632862206,0.4350148832387222 l -7.384932907895211 -4.668807916903675" fill="#ff700a" stroke="none" /><path d="M 117.75023020441432 111.22182372390056 l 13.860798231586797 8.762896741966603 a37.39847818936649,37.39847818936649 0 0,0 -0.348687626027496,0.5411709389312918 l -13.70790574218225 -9.000189280819347" fill="#ffd413" stroke="none" /><path d="M 117.55443506779139 111.5257021239791 l 18.542811476611845 12.1746396734041 a43.18237382775777,43.18237382775777 0 0,0 -0.413310620970127,0.6178432996288811 l -18.330497750230997 -12.492019887238788" fill="#e4ff1a" stroke="none" /><path d="M 117.35343817320211 111.8261652097733 l 11.566745862694146 7.882602061124685 a34.99732206910305,34.99732206910305 0 0,0 -0.34353886776568826,0.4948933613559622 l -11.429346087766321 -8.080536684667667" fill="#ffb510" stroke="none" /><path d="M 117.14729908036423 112.12312394758627 l 13.38998142742367 9.466703982927624 a37.39847818936649,37.39847818936649 0 0,0 -0.3761578251425943,0.5224503194299502 l -13.225043809905474 -9.695787907808706" fill="#ffd413" stroke="none" /><path d="M 116.93607887273984 112.41649034213515 l 6.272751767176763 4.598795407189873 a28.7779389255644,28.7779389255644 0 0,0 -0.29632881239952613,0.39698086957159756 l -6.192661688082145 -4.706089156270785" fill="#ff6309" stroke="none" /><path d="M 116.71984013943494 112.70617746262583 l 50.159520418304794 38.11853238787748 a84.0,84.0 0 0,0 -0.8847727311277263,1.1436880235469893 l -49.495940869959 -38.97629840553772" fill="#4dd2ff" stroke="none" /><path d="M 116.498646956653 112.99209946851258 l 21.527932051522424 16.952483152078987 a48.40143323690366,48.40143323690366 0 0,0 -0.5210808136065128,0.6501284348119569 l -21.232933325861058 -17.320539420469196" fill="#a8ff21" stroke="none" /><path d="M 116.27256486870786 113.27417163493432 l 12.70819541010064 10.366575177607855 a37.40012534995688,37.40012534995688 0 0,0 -0.4112304070375207,0.49535351660116245 l -12.527869003169576 -10.583789951322787" fill="#ffd413" stroke="none" /><path d="M 116.0416608686014 113.55231037782055 l 11.499673296214823 9.715150010363338 a36.054123210720014,36.054123210720014 0 0,0 -0.4045916283554388,0.47063146865286926 l -11.330739158288607 -9.911658578177736" fill="#ffc312" stroke="none" /><path d="M 115.80600337817218 113.82643327865902 l 10.53506268636545 9.21563394834392 a34.99698020558429,34.99698020558429 0 0,0 -0.4005340229259268,0.45000422078930286 l -10.374869813791184 -9.395612338874088" fill="#ffb510" stroke="none" /><path d="M 115.56566222782051 114.09645910891815 l 12.152678479634835 11.005618183453844 a37.39546357470107,37.39546357470107 0 0,0 -0.4361977679661031,0.4734065270217462 l -11.96143430367301 -11.213175965276925" fill="#ffd413" stroke="none" /><path d="M 115.32070863581623 114.36230785411682 l 5.6768915056054015 5.321768424426518 a28.781279864497733,28.781279864497733 0 0,0 -0.34194003662479566,0.35852276134284716 l -5.584444917601641 -5.418698302351872" fill="#ff6309" stroke="none" /><path d="M 115.07121518719521 114.62390073753431 l 13.941317207176859 13.527538188257765 a40.42561749098076,40.42561749098076 0 0,0 -0.4888792642739753,0.495232113631253 l -13.706397317847347 -13.765510795869684" fill="#fff917" stroke="none" /><path d="M 114.81725581225074 114.88116024355365 l 5.489247113975101 5.512921350253705 a28.77972593941246,28.77972593941246 0 0,0 -0.35405921747899044,0.34652146389033456 l -5.393537944120316 -5.606592917066611" fill="#ff6309" stroke="none" /><path d="M 114.55890576462653 115.13401014063108 l 13.6431947384601 14.182126793081574 a40.679163677519114,40.679163677519114 0 0,0 -0.5088075516683487,0.48110929826853105 l -13.397051352400942 -14.414870728096027" fill="#fffc17" stroke="none" /><path d="M 114.29624159901734 115.38237550388516 l 10.589747666338184 11.394286670854962 a36.5554660609812,36.5554660609812 0 0,0 -0.4646033505297451,0.42440414506980423 l -10.392044766341575 -11.57488358251135" fill="#ffc912" stroke="none" /><path d="M 114.0293411484842 115.62618273729858 l 9.356409869443869 10.421371099154609 a35.00526262628879,35.00526262628879 0 0,0 -0.4518306725413715,0.39868803506627004 l -9.17563684399591 -10.580882275993167" fill="#ffb510" stroke="none" /><path d="M 113.75828350139079 115.86535959552629 l 10.743597776234932 12.388975852433427 a37.398524807119045,37.398524807119045 0 0,0 -0.4899821571203893,0.4175734242338804 l -10.528750142537495 -12.572073666890255" fill="#ffd413" stroke="none" /><path d="M 113.48314897796784 116.09983520530334 l 9.031843558290966 10.784661144527474 a35.06709330543175,35.06709330543175 0 0,0 -0.466108249840785,0.38357535713087787 l -8.84486517990549 -10.93853162051553" fill="#ffb610" stroke="none" /><path d="M 113.20401910651253 116.32954008644616 l 21.493191807694146 26.58084136187816 a55.183306182808934,55.183306182808934 0 0,0 -0.7437724448632543,0.590897813027856 l -21.03246187011354 -26.946873088911143" fill="#60ff29" stroke="none" /><path d="M 112.92097659922987 116.55440617244103 l 35.46885719480765 45.44283970842806 a78.64626190371362,78.64626190371362 0 0,0 -1.0743501500739063,0.8237658824360844 l -34.68137831624025 -46.046644932691514" fill="#46fffa" stroke="none" /><path d="M 112.63410532772338 116.77436683061366 l 11.227598985418593 14.906941102918193 a39.66215078771052,39.66215078771052 0 0,0 -0.5488770059254218,0.40604608718766166 l -10.969337009074609 -15.097997138845622" fill="#fff016" stroke="none" /><path d="M 112.34349029814194 116.9893568818739 l 11.170672094625173 15.375111110553938 a40.004682494256954,40.004682494256954 0 0,0 -0.5605849912448544,0.39996250679854084 l -10.904359775531434 -15.565117879196698" fill="#fff417" stroke="none" /><path d="M 112.04921762599082 117.19931262002967 l 8.025885511494119 11.456321750467424 a34.98792859196258,34.98792859196258 0 0,0 -0.4962339834486777,0.3413142587190432 l -7.827494643422558 -11.592776798551562" fill="#ffb510" stroke="none" /><path d="M 111.7513745106137 117.40417183066458 l 9.565253366963255 14.166454575344597 a38.093346869747414,38.093346869747414 0 0,0 -0.5465947248347468,0.3622531787211138 l -9.319983943388543 -14.329005775157029" fill="#ffdc14" stroke="none" /><path d="M 111.45004920935366 117.60387380957326 l 4.237055329709718 6.514259107939682 a28.770985110807807,28.770985110807807 0 0,0 -0.41747822553809283,0.266454355837007 l -4.124295302124694 -6.5862278926004985" fill="#ff6309" stroke="none" /><path d="M 111.1453310114006 117.79835938074945 l 12.381817566957887 19.772946951344 a44.32978434109692,44.32978434109692 0 0,0 -0.6502140780748993,0.399414593349824 l -12.039624288950678 -19.983150011522202" fill="#d6ff1c" stroke="none" /><line stroke="#e1ed5e" stroke-width="0.3" x1="143.8653032363475" x2="146.44561519142675" y1="172.8068346515853" y2="177.08958963109032" /><path d="M 144.38136562736335 173.6633856474863 a86.0,86.0 0 0,1 -40.68145358897372,12.25698825130547" fill="none" id="id42" stroke="none" /><text fill="#e1ed5e" style="font-size:6.75px; font-family:Arial;" text-anchor="middle"><textPath startOffset="21.466115282336833" xlink:href="#id42">June</textPath></text><path d="M 110.8373102113329 117.98757091392108 l 4.010569771966458 6.656670960939689 a28.771482366835095,28.771482366835095 0 0,0 -0.42640998622378334,0.25193053594470705 l -3.8953919147142924 -6.7247200691781455" fill="#ff6309" stroke="none" /><path d="M 110.5260780823613 118.17145234162733 l 8.219236866042044 14.189090165130597 a37.397747844576415,37.397747844576415 0 0,0 -0.5598108642529841,0.3178752188889356 l -7.97377723486786 -14.328468549814161" fill="#ffd413" stroke="none" /><path d="M 110.21172684928248 118.3499491758327 l 8.47370294122747 15.226809392532225 a38.425824680992136,38.425824680992136 0 0,0 -0.580737151851503,0.31666419880408686 l -8.210342977507318 -15.370414243096082" fill="#ffe115" stroke="none" /><path d="M 109.89434966115114 118.52300852407294 l 6.590443048245312 12.337832898646774 a34.98771104245064,34.98771104245064 0 0,0 -0.5336610546033871,0.27918624138941917 l -6.377091091115429 -12.44944855898091" fill="#ffb510" stroke="none" /><path d="M 109.57404056367764 118.69057910512821 l 13.39963565619379 26.15896063383541 a50.391179921216,50.391179921216 0 0,0 -0.7754148989902806,0.38880912770297393 l -12.947366849520751 -26.385737602447684" fill="#92ff23" stroke="none" /><path d="M 109.2508944713604 118.85261126421891 l 3.4229158022921893 6.975639081231137 a28.77019260901432,28.77019260901432 0 0,0 -0.4464686338319572,0.21433207609353597 l -3.3023345004599993 -7.033525433824233" fill="#ff6309" stroke="none" /><path d="M 108.92500713936063 119.00905698771935 l 8.589279996445793 18.294003622232687 a41.21005441327674,41.21005441327674 0 0,0 -0.6447057986155956,0.29595281132183204 l -8.273106202062777 -18.43914350388859" fill="#fbff18" stroke="none" /><path d="M 108.59647513512805 119.15986991738527 l 5.090658591080528 11.346087188731206 a33.435774981288155,33.435774981288155 0 0,0 -0.5271378011000017,0.2310817208502551 l -4.894600115322772 -11.432033462875916" fill="#ffa10e" stroke="none" /><path d="M 108.2653958097858 119.30500536409082 l 7.339556178409501 17.142575462204423 a39.647707054042925,39.647707054042925 0 0,0 -0.6296972318098644,0.26321349396648097 l -7.0433874871021755 -17.266373999190876" fill="#fff016" stroke="none" /><path d="M 107.93186726928326 119.44442032107085 l 7.112375225436844 17.435492636157246 a39.83035540856575,39.83035540856575 0 0,0 -0.6370560435951951,0.25349774708488637 l -6.811198105799783 -17.555337227648202" fill="#fff216" stroke="none" /><path d="M 107.59598834532513 119.57807347666477 l 5.0643500852954695 13.052971328278723 a35.00098933230429,35.00098933230429 0 0,0 -0.5635655617192394,0.21309227305401185 l -4.838914302815955 -13.138211851439365" fill="#ffb510" stroke="none" /><path d="M 107.2578585660854 119.70592522655815 l 5.665018662570202 15.38118070987376 a37.391252437719984,37.391252437719984 0 0,0 -0.6058815146719931,0.21724755492960954 l -5.399417587268474 -15.47641580584333" fill="#ffd413" stroke="none" /><path d="M 106.91757812671514 119.82793768551818 l 2.5614868893170333 7.342020790124054 a28.776019828084088,28.776019828084088 0 0,0 -0.4690905977500799,0.15914099960924158 l -2.4347265586297264 -7.385024776631419" fill="#ff6309" stroke="none" /><path d="M 106.57524785965236 119.94407469862006 l 6.693833444542964 20.303769087899358 a42.378738161033255,42.378738161033255 0 0,0 -0.694766427182084,0.22244226998306463 l -6.34334567226994 -20.41598420454213" fill="#edff19" stroke="none" /><path d="M 106.2309692047433 120.05430185196036 l 5.422045832765689 17.450791395770736 a39.273716134145175,39.273716134145175 0 0,0 -0.6473150476551204,0.19503071385218285 l -5.1208558106703235 -17.541537478728642" fill="#ffeb16" stroke="none" /><path d="M 105.88484417918355 120.15858648285463 l 5.227133562227414 17.90559286927667 a39.65296709045657,39.65296709045657 0 0,0 -0.6568586353782684,0.1856348115414657 l -4.91814375874454 -17.992916474156655" fill="#fff016" stroke="none" /><path d="M 105.53697534728816 120.25689768951611 l 4.549810742806425 16.645378558318974 a38.25599620842279,38.25599620842279 0 0,0 -0.6367064902195659,0.16815997100222455 l -4.262613809775361 -16.721229878624783" fill="#ffde14" stroke="none" /><path d="M 105.18746579009965 120.34920634021253 l 3.4598389052619223 13.572133029086897 a35.006187211714526,35.006187211714526 0 0,0 -0.5851812873493616,0.14382332304048695 l -3.22570433316935 -13.629677610441414" fill="#ffb510" stroke="none" /><path d="M 104.83641907484287 120.43548508189849 l 3.776725138771828 15.957924455566387 a37.39875012625642,37.39875012625642 0 0,0 -0.6277288503522164,0.14286904263048938 l -3.5014761390267495 -16.02057023177456" fill="#ffd413" stroke="none" /><path d="M 104.48393922423573 120.51570834832081 l 1.659737345370738 7.593922577807932 a28.773183914803468,28.773183914803468 0 0,0 -0.4847713405200163,0.10158854774942684 l -1.5287745434213438 -7.6213671062839" fill="#ff6309" stroke="none" /><path d="M 104.13013068566511 120.58985236759428 l 5.350316658705917 26.672819459439175 a48.204139138452135,48.204139138452135 0 0,0 -0.81495383361153,0.1561878418181211 l -4.890395210522683 -26.760964499605766" fill="#aaff21" stroke="none" /><path d="M 103.7750983002368 120.6578951692458 l 2.237803684231773 12.245592098969217 a33.448385083355134,33.448385083355134 0 0,0 -0.5672703214302797,0.09862721669229157 l -2.0266843913294434 -12.282297894182514" fill="#ffa10e" stroke="none" /><path d="M 103.41894727170886 120.7198165907248 l 3.0378331645484775 18.41015406219037 a39.65910509454339,39.65910509454339 0 0,0 -0.6745147629119833,0.10534533387012626 l -2.720482538027977 -18.459717703407602" fill="#fff016" stroke="none" /><path d="M 103.06178313531738 120.77559828337769 l 2.343094167153673 15.898965081948612 a37.07069323187929,37.07069323187929 0 0,0 -0.6320931119628498,0.08760234567249746 l -2.0690724640039924 -15.936941993113713" fill="#ffd013" stroke="none" /><path d="M 102.70371172650421 120.8252237178851 l 1.802600858742098 13.884455872036751 a35.00098156267887,35.00098156267887 0 0,0 -0.5981377356728425,0.07242614989999765 l -1.5633357000178754 -13.9134275506621" fill="#ffb510" stroke="none" /><path d="M 102.34483914955558 120.86867818915974 l 1.8324388840186434 16.30840110253862 a37.41102613443006,37.41102613443006 0 0,0 -0.6405612154989027,0.06639678908325408 l -1.5514450719141382 -16.337527260077632" fill="#ffd413" stroke="none" /><path d="M 101.98527174616119 120.90594882070398 l 0.7352672786033247 7.74274863163813 a28.777581522794787,28.777581522794787 0 0,0 -0.4935433098614552,0.04258499349678895 l -0.6018796510003278 -7.754257877413583" fill="#ff6309" stroke="none" /><path d="M 101.62511606390274 120.93702456842531 l 1.8040377870842685 23.242145167061544 a44.31205405587397,44.31205405587397 0 0,0 -0.7609798494726282,0.05248162582159268 l -1.40369517683271 -23.26975513739942" fill="#d7ff1c" stroke="none" /><path d="M 101.26447882468166 120.96189622390904 l 0.46903133176011935 7.775366348734751 a28.78950012819882,28.78950012819882 0 0,0 -0.49492157384244917,0.025581792171990636 l -0.3351216895041906 -7.7822879476689435" fill="#ff6309" stroke="none" /><path d="M 100.90346689309514 120.98055641714683 l 0.7054647201191867 16.38249555560485 a37.397677917947576,37.397677917947576 0 0,0 -0.6433819012562249,0.022159373558525857 l -0.4233624671883095 -16.39221172758947" fill="#ffd413" stroke="none" /><line stroke="#e1ed5e" stroke-width="0.3" x1="102.19456741930631" x2="102.32365962044197" y1="184.97166512339345" y2="189.96999836594603" /><path d="M 102.22038585953345 185.97133177190398 a86.0,86.0 0 0,1 -42.740103519485714,-10.115201625700543" fill="none" id="id43" stroke="none" /><text fill="#e1ed5e" style="font-size:6.75px; font-family:Arial;" text-anchor="middle"><textPath startOffset="22.20632615414155" xlink:href="#id43">July</textPath></text><path d="M 100.54218724476979 120.99299961872073 l 0.42126479707011966 16.31099183830554 a37.31643094486415,37.31643094486415 0 0,0 -0.642269636800502,0.011057254257861273 l -0.14043547037694976 -16.31582656984256" fill="#ffd313" stroke="none" /><path d="M 100.18074693466247 120.99922214144158 l 0.12045277248878432 13.994231945167316 a34.994750323086926,34.994750323086926 0 0,0 -0.6023994143024699,0.0 l 0.12045277248877469 -13.994231945167316" fill="#ffb510" stroke="none" /><path d="M 99.81925306533755 120.99922214144158 l -0.1605056383346695 18.6475834881412 a39.64827423669905,39.64827423669905 0 0,0 -0.6824040254920499,-0.011748204156188978 l 0.48146935371938737 -18.642057806705854" fill="#fff016" stroke="none" /><path d="M 99.45781275523022 120.99299961872073 l -0.20060281925139165 7.7671596827161125 a28.769749740365018,28.769749740365018 0 0,0 -0.49494881279083824,-0.017047037869057043 l 0.33427198371687294 -7.762555846420962" fill="#ff6309" stroke="none" /><path d="M 99.09653310690486 120.98055641714683 l -0.8696381067876195 20.194975047123414 a41.213690597976274,41.213690597976274 0 0,0 -0.7085063833611546,-0.03662168717147906 l 1.217132558562263 -20.17701355318973" fill="#fbff18" stroke="none" /><path d="M 98.73552117531835 120.96189622390904 l -0.4680086453008492 7.758412765163194 a28.772515727016803,28.772515727016803 0 0,0 -0.49411622082076934,-0.034077147550577565 l 0.6014876269005486 -7.7492072730963315" fill="#ff6309" stroke="none" /><path d="M 98.37488393609728 120.93702456842531 l -1.2691124852471787 16.35048712761115 a37.399666942056726,37.399666942056726 0 0,0 -0.6414144077978833,-0.0553439340358746 l 1.5503712107866037 -16.326218941296613" fill="#ffd413" stroke="none" /><path d="M 98.01472825383883 120.90594882070398 l -1.865376840657992 19.64339281890753 a40.73176404165555,40.73176404165555 0 0,0 -0.6974197443872262,-0.07229040808302085 l 2.2032291816508116 -19.608373042368747" fill="#fffd17" stroke="none" /><path d="M 97.65516085044442 120.86867818915974 l -1.56396207015098 13.919002140602569 a35.006591232236694,35.006591232236694 0 0,0 -0.598233600271401,-0.07243775776784253 l 1.8033230934737703 -13.890018854109378" fill="#ffb510" stroke="none" /><path d="M 97.2962882734958 120.8252237178851 l -2.402201733504596 18.50285591667237 a39.65814166099052,39.65814166099052 0 0,0 -0.6762117454982431,-0.09371678627059439 l 2.72034207018967 -18.45876456490917" fill="#fff016" stroke="none" /><path d="M 96.93821686468263 120.77559828337769 l -1.1333103786270609 7.6900290177795245 a28.773090679298353,28.773090679298353 0 0,0 -0.4893674325612105,-0.07642912861649888 l 1.2655136747967886 -7.6693815818159194" fill="#ff6309" stroke="none" /><path d="M 96.58105272829116 120.7198165907248 l -3.7971254310627454 23.011686420151637 a44.32286160484203,44.32286160484203 0 0,0 -0.7516967975174512,-0.13069212355183504 l 4.192671200052247 -22.942915718078794" fill="#d6ff1c" stroke="none" /><path d="M 96.22490169976321 120.6578951692458 l -1.3987177402023854 7.653989949520741 a28.780743760343313,28.780743760343313 0 0,0 -0.4865760053159757,-0.09325344947945731 l 1.5302613600900563 -7.628779301692816" fill="#ff6309" stroke="none" /><path d="M 95.86986931433489 120.58985236759428 l -3.668199820623192 18.286998284003364 a39.651273312113624,39.651273312113624 0 0,0 -0.6680456696677561,-0.1399954653652636 l 3.982436951720335 -18.221146837911558" fill="#fff016" stroke="none" /><path d="M 95.51606077576429 120.51570834832081 l -3.5529077605252763 16.25588924342443 a37.639624053724376,37.639624053724376 0 0,0 -0.6317718601602658,-0.14378921849988766 l 3.8321997700784047 -16.192323291346856" fill="#ffd714" stroke="none" /><path d="M 95.16358092515715 120.4354850818985 l -3.224492916957658 13.624558972552785 a35.00092717530088,35.00092717530088 0 0,0 -0.5850933578967368,-0.14380171212034448 l 3.458539559597605 -13.56703600211841" fill="#ffb510" stroke="none" /><path d="M 94.81253420990036 120.34920634021253 l -4.052691754562193 15.897755105056795 a37.406185657789436,37.406185657789436 0 0,0 -0.6225628278745337,-0.1644245012271552 l 4.325745025248216 -15.82563925452606" fill="#ffd413" stroke="none" /><path d="M 94.46302465271185 120.25689768951611 l -2.0512022528796017 7.504276535642788 a28.779562777278507,28.779562777278507 0 0,0 -0.4767387088472289,-0.13473112113447738 l 2.1800721298314447 -7.467856621169789" fill="#ff6309" stroke="none" /><path d="M 94.11515582081647 120.15858648285463 l -6.53498654520932 22.38565498503489 a44.32002569156141,44.32002569156141 0 0,0 -0.7304890488238407,-0.22009035811758293 l 6.919350568473407 -22.269849257811583" fill="#d6ff1c" stroke="none" /><path d="M 93.76903079525671 120.05430185196036 l -2.308637195786222 7.430321940239413 a28.78071268184161,28.78071268184161 0 0,0 -0.4718373833061211,-0.15106743000115633 l 2.4361959241832833 -7.38948166357855" fill="#ff6309" stroke="none" /><path d="M 93.42475214034765 119.94407469862007 l -5.839234382610213 17.711594938367256 a39.64932313613161,39.64932313613161 0 0,0 -0.6463411132404842,-0.2192739981210224 l 6.143245228787922 -17.60845795334811" fill="#fff016" stroke="none" /><path d="M 93.08242187328487 119.8279376855182 l -6.406313714829252 18.362494330343537 a40.44793185520527,40.44793185520527 0 0,0 -0.6554114296813393,-0.23500722026199125 l 6.721444705140318 -18.249499569041586" fill="#fff917" stroke="none" /><path d="M 92.7421414339146 119.70592522655815 l -4.840353611937685 13.142119742130884 a35.00515385153282,35.00515385153282 0 0,0 -0.5636326163843391,-0.21311762739071421 l 5.065856449082307 -13.056853864633537" fill="#ffb510" stroke="none" /><path d="M 92.40401165467489 119.57807347666478 l -5.9333421259732555 15.292731218576261 a37.403419671137655,37.403419671137655 0 0,0 -0.5982390643569768,-0.2380516699548453 l 6.19570226637209 -15.188332704215348" fill="#ffd413" stroke="none" /><path d="M 92.06813273071674 119.44442032107085 l -2.9338541201965804 7.192139093744912 a28.767519857867654,28.767519857867654 0 0,0 -0.45689471009868426,-0.19098202587650887 l 3.057220289792727 -7.140572024848431" fill="#ff6309" stroke="none" /><path d="M 91.7346041902142 119.30500536409082 l -9.789304204312252 22.86430977101174 a45.8718141298408,45.8718141298408 0 0,0 -0.723200441634909,-0.3170298207108716 l 10.181425320604903 -22.692415397006414" fill="#c5ff1e" stroke="none" /><path d="M 91.40352486487194 119.15986991738527 l -3.1853164602866255 7.0994504218837315 a28.78128763412316,28.78128763412316 0 0,0 -0.4502654338491842,-0.20669477655522817 l 3.307049889903229 -7.043568574994429" fill="#ff6309" stroke="none" /><path d="M 91.07499286063937 119.00905698771935 l -6.972997712443376 14.85154116084756 a37.40704031658635,37.40704031658635 0 0,0 -0.5804990746085574,-0.2786748326827805 l 7.227609455052175 -14.729312051665216" fill="#ffd413" stroke="none" /><path d="M 90.7491055286396 118.85261126421891 l -6.848152172096901 13.95600730053227 a36.54565302406771,36.54565302406771 0 0,0 -0.5623611888528185,-0.2819795745175802 l 7.08736726863248 -13.836059885105389" fill="#ffc912" stroke="none" /><path d="M 90.42595943632237 118.69057910512821 l -6.382202520690763 12.45942716500234 a34.998922611940884,34.998922611940884 0 0,0 -0.5338320625893243,-0.279275704685325 l 6.595725485806583 -12.347722041372299" fill="#ffb510" stroke="none" /><path d="M 90.10565033884886 118.52300852407294 l -8.176294500890975 15.306672790227033 a38.35355939490157,38.35355939490157 0 0,0 -0.5796449921706165,-0.31606866626546554 l 8.438562304930231 -15.163663472201803" fill="#ffe015" stroke="none" /><line stroke="#e1ed5e" stroke-width="0.3" x1="58.666819895761336" x2="56.23545636021788" y1="174.27360380694188" y2="178.64263932499728" /><path d="M 58.180547188652646 175.14741091055294 a86.0,86.0 0 0,1 -31.652253787137756,-30.449443065178592" fill="none" id="id44" stroke="none" /><text fill="#e1ed5e" style="font-size:6.75px; font-family:Arial;" text-anchor="middle"><textPath startOffset="22.20632615414155" xlink:href="#id44">August</textPath></text><path d="M 89.7882731507175 118.34994917583269 l -3.781519348838185 6.795196236911119 a28.776540392987656,28.776540392987656 0 0,0 -0.43075909315606464,-0.24459625521576955 l 3.8979272089154566 -6.729096815900716" fill="#ff6309" stroke="none" /><path d="M 89.4739219176387 118.17145234162733 l -11.684018212672145 20.17043560279665 a44.31014272801909,44.31014272801909 0 0,0 -0.656701907441792,-0.38799106222361346 l 12.02948799114232 -19.96632596827929" fill="#d7ff1c" stroke="none" /><path d="M 89.1626897886671 117.98757091392108 l -4.014186441516747 6.662673843457535 a28.77849056896967,28.77849056896967 0 0,0 -0.4221130328473593,-0.2592963010914196 l 4.128278674296415 -6.592589075537737" fill="#ff6309" stroke="none" /><path d="M 88.8546689885994 117.79835938074946 l -9.026502778364739 14.41473027910365 a38.00771005829809,38.00771005829809 0 0,0 -0.5515067103470292,-0.3519976761803498 l 9.273291290758692 -14.257218174099496" fill="#ffdb14" stroke="none" /><path d="M 88.54995079064634 117.60387380957326 l -10.676040755652467 16.413874806305387 a40.58042727760095,40.58042727760095 0 0,0 -0.5822814035563894,-0.3859043634427024 l 10.956996857948818 -16.227672421771366" fill="#fffb17" stroke="none" /><path d="M 88.24862548938628 117.40417183066458 l -7.837072844534835 11.606962429163206 a35.00504507677685,35.00504507677685 0 0,0 -0.4964767466468274,-0.34148123346035997 l 8.035706475804552 -11.470340406337746" fill="#ffb510" stroke="none" /><path d="M 87.95078237400918 117.19931262002967 l -11.03933005036695 15.757777354970466 a40.23991567366538,40.23991567366538 0 0,0 -0.5638813101154747,-0.40231434279003736 l 11.308938688331311 -15.56541875033621" fill="#fff717" stroke="none" /><path d="M 87.65650970185807 116.9893568818739 l -4.590984321604821 6.318947817423494 a28.810649048609367,28.810649048609367 0 0,0 -0.3987051250248559,-0.2949525198000533 l 4.699074417048242 -6.2389853488836735" fill="#ff6309" stroke="none" /><path d="M 87.36589467227662 116.77436683061367 l -16.363981623074555 21.726542832640504 a48.19967937345741,48.19967937345741 0 0,0 -0.6584334908604755,-0.5048587237474088 l 16.735543842428516 -21.44164476706573" fill="#aaff21" stroke="none" /><path d="M 87.07902340077011 116.55440617244103 l -4.789551734077774 6.136392569162961 a28.784286709537735,28.784286709537735 0 0,0 -0.38796079431476127,-0.30821951859656604 l 4.8944700211098935 -6.053039136561264" fill="#ff6309" stroke="none" /><path d="M 86.79598089348748 116.32954008644616 l -11.7253902489374 14.500905258824618 a39.64835193295332,39.64835193295332 0 0,0 -0.5270018751647714,-0.4336866651556053 l 11.97326225264686 -14.296923474811832" fill="#fff016" stroke="none" /><path d="M 86.51685102203217 116.09983520530335 l -9.986168273166488 11.924192471144899 a36.55345372799577,36.55345372799577 0 0,0 -0.4789103367102253,-0.4081377786823303 l 10.18994408645377 -11.750530302239618" fill="#ffc912" stroke="none" /><path d="M 86.24171649860922 115.8653595955263 l -9.168016635717558 10.572095035599668 a34.99363149702553,34.99363149702553 0 0,0 -0.45168054365893634,-0.39855556378270685 l 9.348639532283082 -10.412716330044672" fill="#ffb510" stroke="none" /><path d="M 85.97065885151581 115.62618273729859 l -9.344279423254989 10.407859946576165 a34.98710501166739,34.98710501166739 0 0,0 -0.44467019478402353,-0.4061956799066461 l 9.522049167505866 -10.245471500082942" fill="#ffb510" stroke="none" /><path d="M 85.70375840098266 115.38237550388516 l -5.297886120495254 5.700384476426374 a28.78215783217091,28.78215783217091 0 0,0 -0.36000197482947544,-0.34040433739157533 l 5.395223929715547 -5.608345502288867" fill="#ff6309" stroke="none" /><path d="M 85.44109423537348 115.13401014063109 l -14.546856084829264 15.121484475640106 a41.98261934792124,41.98261934792124 0 0,0 -0.5164862718059217,-0.5054905229125153 l 14.804992309010979 -14.868843849805021" fill="#f2ff19" stroke="none" /><path d="M 85.18274418774928 114.88116024355367 l -5.486626660444206 5.510289595129947 a28.77601205845866,28.77601205845866 0 0,0 -0.3479970493219333,-0.35251917368407204 l 5.580664334821673 -5.415029927465211" fill="#ff6309" stroke="none" /><path d="M 84.9287848128048 114.62390073753433 l -5.5788688368052295 5.413287719923167 a28.773510239071374,28.773510239071374 0 0,0 -0.3418477284989902,-0.3584259766419827 l 5.671223116683177 -5.316454626698683" fill="#ff6309" stroke="none" /><path d="M 84.67929136418377 114.36230785411682 l -7.937643401399839 7.441096941207499 a31.880078421419306,31.880078421419306 0 0,0 -0.37186379631926236,-0.4035847069128128 l 8.064553605714831 -7.303360979493342" fill="#ff8d0c" stroke="none" /><path d="M 84.43433777217949 114.09645910891817 l -5.762000553069508 5.218140031121638 a28.77365009232905,28.77365009232905 0 0,0 -0.32930915061936006,-0.36998232170319106 l 5.850968553337206 -5.118183539677583" fill="#ff6309" stroke="none" /><path d="M 84.19399662182784 113.82643327865904 l -7.604028715281427 6.651687537030262 a31.10278178489015,31.10278178489015 0 0,0 -0.3490287381330908,-0.4059992746200002 l 7.717399962985297 -6.519811163248732" fill="#ff820c" stroke="none" /><path d="M 83.95833913139862 113.55231037782056 l -5.94337228217499 5.021077712509562 a28.780417436075407,28.780417436075407 0 0,0 -0.3164530243201725,-0.38118805359100966 l 6.0289213063887 -4.918028401804791" fill="#ff6309" stroke="none" /><path d="M 83.72743513129214 113.27417163493432 l -12.706660167619313 10.365322819890265 a37.39814409547316,37.39814409547316 0 0,0 -0.40262145249417836,-0.5023321678648824 l 12.883199532168353 -10.145062818447123" fill="#ffd413" stroke="none" /><path d="M 83.50135304334701 112.99209946851258 l -6.107946967954521 4.809791661374115 a28.774388206744554,28.774388206744554 0 0,0 -0.30308088143108114,-0.3917728949636366 l 6.18983466660367 -4.703940772297226" fill="#ff6309" stroke="none" /><path d="M 83.28015986056508 112.70617746262583 l -6.187552016875976 4.702206081517696 a28.771521214962227,28.771521214962227 0 0,0 -0.2962627287037581,-0.3968923396618697 l 6.267576012274819 -4.595000862346518" fill="#ff6309" stroke="none" /><path d="M 83.06392112726016 112.41649034213515 l -6.894324841036367 5.054494517149233 a29.548662458982854,29.548662458982854 0 0,0 -0.2972035533147358,-0.4127897413968145 l 6.98030818672671 -4.9350711703012795" fill="#ff6d0a" stroke="none" /><path d="M 82.85270091963577 112.12312394758628 l -8.24952779963571 5.832408215155369 a31.103053721780075,31.103053721780075 0 0,0 -0.305312156128341,-0.439824932159493 l 8.348700862926185 -5.689542020808863" fill="#ff820c" stroke="none" /><path d="M 82.44556493220864 111.52570212397912 l -5.196868985863574 3.4121043301648717 a27.216904633027642,27.216904633027642 0 0,0 -0.2537589314798841,-0.3938394969035696 l 5.254832780720504 -3.322143233339854" fill="#ff4d07" stroke="none" /><path d="M 82.24976979558568 111.22182372390057 l -3.6461015378602397 2.305091723663108 a25.313641649336088,25.313641649336088 0 0,0 -0.2296735158558329,-0.37030683719909957 l 3.685239693384028 -2.2419885550987444" fill="#ff3304" stroke="none" /><path d="M 82.05923443525364 110.91462005526583 l -28.485071537354827 17.32945742784919 a54.34230638740907,54.34230638740907 0 0,0 -0.479296876267347,-0.8033291337288896 l 28.779149289320404 -16.836566200234188" fill="#68ff28" stroke="none" /><line stroke="#e1ed5e" stroke-width="0.3" x1="26.63291911575756" x2="22.317208475507996" y1="142.92168965132927" y2="145.44649492493687" /><path d="M 25.769776987707644 143.4266507060508 a86.0,86.0 0 0,1 -11.730757126820373,-40.83630448921669" fill="none" id="id45" stroke="none" /><text fill="#e1ed5e" style="font-size:6.75px; font-family:Arial;" text-anchor="middle"><textPath startOffset="21.46611528233685" xlink:href="#id45">September</textPath></text><path d="M 81.87401531095188 110.60418214915194 l -0.7375243554367099 0.4314713235530959 a21.854464556263743,21.854464556263743 0 0,0 -0.18716580121917417,-0.32633935067796915 l 0.7448421528082613 -0.41871212701681987" fill="#ff0100" stroke="none" /><path d="M 81.35079622478065 109.6543875284942 l -6.9001211493848364 3.572079772018924 a28.769905132873546,28.769905132873546 0 0,0 -0.22388648413986229,-0.4417492733242086 l 6.960586303310966 -3.4527762869920307" fill="#ff6309" stroke="none" /><path d="M 81.18737489456691 109.33194174019688 l -5.5684008313586055 2.7621871936041074 a27.215847963969658,27.215847963969658 0 0,0 -0.2045682366467401,-0.4214711586025072 l 5.6151223246200646 -2.665927079036315" fill="#ff4d07" stroke="none" /><path d="M 81.02952815118164 109.00673069616217 l -10.5291360704081 4.998984411414094 a32.65558027447497,32.65558027447497 0 0,0 -0.23671467712379762,-0.5098623553983673 l 10.613625364371725 -4.817001988736899" fill="#ff970d" stroke="none" /><path d="M 80.87730276802145 108.67885076344099 l -0.7099607334738599 0.3222162218527798 a21.779658602658767,21.779658602658767 0 0,0 -0.1520001495108913,-0.3427202102795122 l 0.715401967716031 -0.30994767508057175" fill="#ff0000" stroke="none" /><path d="M 80.73074385275274 108.34839909993369 l -7.129423657462452 3.088820533090905 a28.769780818866725,28.769780818866725 0 0,0 -0.19296168569760838,-0.4561044250286595 l 7.181536324352367 -2.9656415823960867" fill="#ff6309" stroke="none" /><path d="M 80.58989483394504 108.01547362559985 l -7.190548972186472 2.9693633881458785 a28.779531698776804,28.779531698776804 0 0,0 -0.18514473787625646,-0.45951405579942306 l 7.240596324320117 -2.84514996450365" fill="#ff6309" stroke="none" /><path d="M 80.45479744820244 107.68017299344265 l -6.9159870727135075 2.717596658212566 a28.43076098301301,28.43076098301301 0 0,0 -0.17506000145777384,-0.4570264230887883 l 6.961741353764791 -2.59814666829062" fill="#ff5e08" stroke="none" /><path d="M 80.32549172779594 107.34259656027581 l -7.281881323127136 2.71762404507303 a28.772469109264243,28.772469109264243 0 0,0 -0.16917628028432166,-0.46550046502123665 l 7.327581864416682 -2.5918757830456762" fill="#ff6309" stroke="none" /><path d="M 80.20201598880116 107.00284435728193 l -7.334057076857072 2.5941661629588397 a28.779337458141143,28.779337458141143 0 0,0 -0.16117685545030475,-0.46845538715225393 l 7.377624763250605 -2.4675380727172893" fill="#ff6309" stroke="none" /><path d="M 80.0844068197444 106.66101706037122 l -15.549078266819851 5.200582009830208 a37.39572774196556,37.39572774196556 0 0,0 -0.19892345560305574,-0.6122234444675396 l 15.636293973439157 -4.932159665384865" fill="#ffd413" stroke="none" /><path d="M 79.97269907076064 106.31721596034903 l -7.418324603745557 2.3399637700261584 a28.778622652601918,28.778622652601918 0 0,0 -0.1449527524187568,-0.4737139818146248 l 7.457504128670443 -2.211922815659486" fill="#ff6309" stroke="none" /><path d="M 79.86692584326677 105.97154293290107 l -15.717058782383356 4.661736730679234 a37.393831953361534,37.393831953361534 0 0,0 -0.17772284590424567,-0.6186765416396589 l 15.794974265173705 -4.390502713534979" fill="#ffd413" stroke="none" /><path d="M 79.76711848015287 105.62410040840567 l -15.799765180547574 4.391834436309335 a37.3988045136344,37.3988045136344 0 0,0 -0.16706922828295023,-0.6217267497193023 l 15.8730224851723 -4.119216753414493" fill="#ffd413" stroke="none" /><path d="M 79.67330655649465 105.27499134158121 l -7.529704078236913 1.9540376268162418 a28.779119908629205,28.779119908629205 0 0,0 -0.12030862440587968,-0.48057315040954945 l 7.562224016937851 -1.8241366370093006" fill="#ff6309" stroke="none" /><path d="M 79.58551787078972 104.9243191809786 l -15.936364704628794 3.844121339614395 a37.39344347209021,37.39344347209021 0 0,0 -0.14554851939602048,-0.6270192121993962 l 16.00017378995537 -3.5692334700664246" fill="#ffd413" stroke="none" /><path d="M 79.50377843672027 104.57218783832718 l -3.8023484747862346 0.8482076269435886 a24.895806733157393,24.895806733157393 0 0,0 -0.08970310229499497,-0.4190630302217695 l 3.8163856158056704 -0.7826307773056553" fill="#ff2d04" stroke="none" /><path d="M 79.4281124754447 104.21870165774334 l -19.032599688022835 3.9030380541983365 a40.42867872339875,40.42867872339875 0 0,0 -0.13393456611867136,-0.6829294671383592 l 19.09696418711717 -3.5748448599920226" fill="#fff917" stroke="none" /><path d="M 79.35854240842038 103.8639653848113 l -7.637337705120525 1.4296668921645428 a28.769998368378662,28.769998368378662 0 0,0 -0.08693136906520772,-0.48755728384485725 l 7.660815516524922 -1.2979908575864718" fill="#ff6309" stroke="none" /><path d="M 79.23777060512086 103.15116336523772 l -7.680340980612795 1.1656748738461709 a28.76829682041029,28.76829682041029 0 0,0 -0.07009320035487855,-0.49023168002836504 l 7.699268231984273 -1.0332977218374053" fill="#ff6309" stroke="none" /><path d="M 79.18660465613746 102.79330883721812 l -7.703480451996793 1.0338630323593498 a28.77254680551851,28.77254680551851 0 0,0 -0.06165338958917877,-0.4914381763368584 l 7.72013535083282 -0.9011071017350829" fill="#ff6309" stroke="none" /><path d="M 79.1416061653843 102.43462659150553 l -7.721948900745495 0.9013187823120934 a28.7743726674937,28.7743726674937 0 0,0 -0.05318832965253066,-0.4924578748645348 l 7.7363195318990785 -0.7682645855627765" fill="#ff6309" stroke="none" /><path d="M 79.10278846688536 102.07522291339032 l -7.739296196176986 0.7685601868158526 a28.77736397328285,28.77736397328285 0 0,0 -0.044708243700471446,-0.493351743756848 l 7.751379036154533 -0.6352270545104385" fill="#ff6309" stroke="none" /><path d="M 79.07016306316243 101.71520430193888 l -19.364137294981738 1.5868949047199905 a40.42905166541921,40.42905166541921 0 0,0 -0.0508702226160838,-0.6940837710163811 l 19.388584076262156 -1.2533379972068486" fill="#fff917" stroke="none" /><path d="M 79.04373962182676 101.35467743843564 l -7.754783892019472 0.5012931977789568 a28.770969571556957,28.770969571556957 0 0,0 -0.027693632549759845,-0.4944884127060668 l 7.762263875456763 -0.3677330687374523" fill="#ff6309" stroke="none" /><path d="M 79.0095281055655 100.63252640178507 l -7.775217598881828 0.23429822996121893 a28.77874696660874,28.77874696660874 0 0,0 -0.010659013805253076,-0.49528248773958744 l 7.778098675372089 -0.10042592643150267" fill="#ff6309" stroke="none" /><line stroke="#e1ed5e" stroke-width="0.3" x1="15.007084014347285" x2="10.007500721073583" y1="101.09737516637583" y2="101.16192664675087" /><path d="M 14.007167355692545 101.11028546245083 a86.0,86.0 0 0,1 10.666146001902534,-42.60595125391555" fill="none" id="id46" stroke="none" /><text fill="#e1ed5e" style="font-size:6.75px; font-family:Arial;" text-anchor="middle"><textPath startOffset="22.20632615414155" xlink:href="#id46">October</textPath></text><path d="M 79.00175016825051 100.2711162175752 l -7.77112213322209 0.10033584969965038 a28.77176984297587,28.77176984297587 0 0,0 -0.0021314438252625248,-0.4952724806448145 l 7.771697874336856 0.03344610914883949" fill="#ff6309" stroke="none" /><path d="M 79.00019446554 99.90962569577889 l -7.520275123802461 -0.03236409169360069 a28.52034476417892,28.52034476417892 0 0,0 0.006338297429272455,-0.490908120945978 l 7.518603819255474 0.16180847070005067" fill="#ff5f08" stroke="none" /><path d="M 79.00486145842228 99.54816195383935 l -7.769729891014501 -0.1672129748608063 a28.771528984587654,28.771528984587654 0 0,0 0.014917771360116882,-0.49504820601707417 l 7.765700425198739 0.3009313283028749" fill="#ff6309" stroke="none" /><path d="M 79.01574976396665 99.18683210126434 l -16.387654636714146 -0.6350436416002934 a37.399954418197495,37.399954418197495 0 0,0 0.030465632015570173,-0.6430813406293732 l 16.374295396465076 0.9170360888526755" fill="#ffd413" stroke="none" /><path d="M 79.03285615573316 98.82574320788736 l -7.760773916680946 -0.4346391454840476 a28.772935286789824,28.772935286789824 0 0,0 0.03195084980743829,-0.49426550474019515 l 7.752142475869094 0.5681637144772546" fill="#ff6309" stroke="none" /><path d="M 79.05617556472873 98.46500227214037 l -7.753545016175056 -0.5682665083193981 a28.774341588991994,28.774341588991994 0 0,0 0.040456061341385775,-0.49366641981063025 l 7.742614471014173 0.7016468453378067" fill="#ff6309" stroke="none" /><path d="M 79.08570108090925 98.10471618934814 l -7.738830629329749 -0.701303948169018 a28.770542242158506,28.770542242158506 0 0,0 0.04894126021765519,-0.4928318114002971 l 7.7256122434298655 0.8344112902737454" fill="#ff6309" stroke="none" /><path d="M 79.16333360222342 97.38593545837743 l -7.722685997977934 -0.9688497789432061 a28.783222270854324,28.783222270854324 0 0,0 0.06590535651382556,-0.49107145694871934 l 7.704864642406275 1.1016395779565848" fill="#ff6309" stroke="none" /><path d="M 79.21141760316559 97.0276538004421 l -6.165753033858598 -0.8815777934137984 a27.228458066036637,27.228458066036637 0 0,0 0.0703325419436944,-0.4634035752855331 l 6.149664598475601 0.9875804810914235" fill="#ff4d07" stroke="none" /><path d="M 79.32604984820605 96.31383870115002 l -32.845685305703775 -5.856379314022136 a54.36369616620783,54.36369616620783 0 0,0 0.17218866171807357,-0.919838716096073 l 32.74001092007584 6.4208961075807816" fill="#68ff28" stroke="none" /><path d="M 79.81627453868168 94.20196356495316 l -3.7352653889915186 -1.0730033393214662 a24.886327790137237,24.886327790137237 0 0,0 0.12181751139862637,-0.4107080897073574 l 3.7162419804811857 1.1371408157753629" fill="#ff2d04" stroke="none" /><path d="M 79.91906864156998 93.8553929516997 l -3.715692191085939 -1.1369725845448082 a24.885752837855687,24.885752837855687 0 0,0 0.12886615016269834,-0.4085409118668634 l 3.695570557155037 1.200763662838086" fill="#ff2d04" stroke="none" /><path d="M 80.14247586403 93.16781622104843 l -4.27655963548562 -1.471393974959741 a25.52260572517799,25.52260572517799 0 0,0 0.1465081661845773,-0.41419831480563923 l 4.250598388491233 1.5447899161919911" fill="#ff3605" stroke="none" /><path d="M 80.2630227832202 92.82701384747504 l -4.2596240677840145 -1.5480701080812138 a25.53220898220497,25.53220898220497 0 0,0 0.1536740028937256,-0.411769925847831 l 4.232345476388661 1.6211631709583862" fill="#ff3605" stroke="none" /><path d="M 80.38941819471856 92.48833698450439 l -6.020835110938805 -2.306228589967498 a27.44741388017684,27.44741388017684 0 0,0 0.1727964359060085,-0.4397480815725397 l 5.9802451251511055 2.4095256764358006" fill="#ff5007" stroke="none" /><path d="M 80.52162464483688 92.15188598940014 l -5.984497049505863 -2.411238837132837 a27.45199795917839,27.45199795917839 0 0,0 0.18037049381004389,-0.43678145762025244 l 5.942104868809619 2.513894865206401" fill="#ff5107" stroke="none" /><path d="M 80.65960295795068 91.81776055985345 l -7.1583783075394 -3.028457233225034 a28.77264004102362,28.77264004102362 0 0,0 0.19689979410702693,-0.45447187210044765 l 7.1051878035896925 3.151228249912081" fill="#ff6309" stroke="none" /><path d="M 80.95270993114464 91.15688171328213 l -7.049278776441639 -3.272780843404744 a28.77196408361153,28.77196408361153 0 0,0 0.21242177515444693,-0.44741443278197857 l 6.99189880744544 3.3936376918272546" fill="#ff6309" stroke="none" /><path d="M 81.10775173730289 90.83032412892265 l -7.550858724344252 -3.664938449239316 a29.393285489706543,29.393285489706543 0 0,0 0.2248446190630047,-0.4532730318263843 l 7.486654092327835 3.794371069564662" fill="#ff6b09" stroke="none" /><path d="M 81.26839172434947 90.50648371742162 l -7.430060764815937 -3.765688552382307 a29.3298387284749,29.3298387284749 0 0,0 0.23211154874322307,-0.4483656325497943 l 7.3641397829126 3.8930269071924366" fill="#ff6a09" stroke="none" /><path d="M 81.43458229118936 90.18545643968196 l -4.035758486331834 -2.1334897002737296 a25.564989031878774,25.564989031878774 0 0,0 0.20901436001629461,-0.3872718653303522 l 3.998436027097068 2.2026425489365544" fill="#ff3605" stroke="none" /><path d="M 81.6062741919709 89.86733742301443 l -7.305414420398485 -4.024377664400666 a29.340545272312422,29.340545272312422 0 0,0 0.24749778072874498,-0.44027093537193523 l 7.235058998377308 4.149532109707387" fill="#ff6a09" stroke="none" /><line stroke="#e1ed5e" stroke-width="0.3" x1="26.266209847984243" x2="21.928928074336255" y1="57.711370442889674" y2="55.22380399835377" /><path d="M 25.398753493254645 57.213857153982495 a86.0,86.0 0 0,1 29.58750427330803,-30.492523968695096" fill="none" id="id47" stroke="none" /><text fill="#e1ed5e" style="font-size:6.75px; font-family:Arial;" text-anchor="middle"><textPath startOffset="21.46611528233685" xlink:href="#id47">November</textPath></text><path d="M 81.78341655067845 89.55222093294921 l -8.33006934360686 -4.777554713118206 a30.602868545707413,30.602868545707413 0 0,0 0.26601226602263256,-0.45470119177562984 l 8.246597403113903 4.920235317247728" fill="#ff7c0b" stroke="none" /><path d="M 82.15384107792192 88.93136811851018 l -6.6090198990230675 -4.099078612890057 a28.776991031262384,28.776991031262384 0 0,0 0.2647105014436823,-0.41870844291948306 l 6.537481801333422 4.212234703523756" fill="#ff6309" stroke="none" /><path d="M 82.34701348167596 88.62581576622439 l -9.149834574392896 -5.895427612188256 a31.884646961170002,31.884646961170002 0 0,0 0.3012391065486187,-0.4588078261007118 l 9.046998832486358 6.052053502266635" fill="#ff8d0d" stroke="none" /><path d="M 82.54541684631803 88.32363383020206 l -9.697411120965237 -6.487151377406302 a32.667172555611096,32.667172555611096 0 0,0 0.3166779575285709,-0.4646858266656462 l 9.584308697767927 6.653115227342364" fill="#ff970d" stroke="none" /><path d="M 82.7489923806493 88.02491185347247 l -6.399166167561458 -4.44209292649477 a28.789834222092153,28.789834222092153 0 0,0 0.2860988133375744,-0.40466648200964994 l 6.321754734420005 4.5515859088362065" fill="#ff6309" stroke="none" /><path d="M 82.95767976084542 87.72973835380427 l -9.51230194726433 -6.848740788381087 a32.72131130558196,32.72131130558196 0 0,0 0.3330365520753905,-0.4542614827568316 l 9.393002782675307 7.011464714809419" fill="#ff980e" stroke="none" /><path d="M 83.17141714833178 87.43820079747576 l -20.62129365909224 -15.3928915182614 a46.73283624996439,46.73283624996439 0 0,0 0.48674265092543545,-0.6404962732856565 l 20.353275067942697 15.745572567428084" fill="#bbff1f" stroke="none" /><path d="M 83.39014120810768 87.1503855733568 l -18.583653508796385 -14.376569073719592 a44.49548714256486,44.49548714256486 0 0,0 0.4738682919722885,-0.6017646087263234 l 18.333431136230125 14.694326076398964" fill="#d4ff1c" stroke="none" /><path d="M 83.6137871275137 86.86637796730984 l -6.0691177239257295 -4.864424676905037 a28.777970004066106,28.777970004066106 0 0,0 0.3131337876623547,-0.3838649983182228 l 5.984485444186982 4.968173844831342" fill="#ff6309" stroke="none" /><path d="M 83.84228863543731 86.58626213691792 l -8.978874291616323 -7.4540424281534925 a32.66974430162722,32.66974430162722 0 0,0 0.362928790745673,-0.42959321460950217 l 8.849234887383526 7.6074945923921105" fill="#ff970d" stroke="none" /><path d="M 84.80347519578584 85.50635884689758 l -5.638776316838813 -5.377966445078988 a28.792196188221766,28.792196188221766 0 0,0 0.3451440336688702,-0.35570126571285604 l 5.5453680194668244 5.474231906341967" fill="#ff6309" stroke="none" /><path d="M 85.05521093208273 85.24692304244772 l -4.585452957701715 -4.526630657868288 a27.443350366078853,27.443350366078853 0 0,0 0.3347620898692696,-0.33332451506832916 l 4.506855067665133 4.604891023586726" fill="#ff5007" stroke="none" /><path d="M 85.31137513191541 84.99185889309783 l -5.4505773672735405 -5.5691417662840665 a28.79256913024223,28.79256913024223 0 0,0 0.3571879389464597,-0.3436145142668574 l 5.353906184714653 5.662139367313237" fill="#ff6309" stroke="none" /><path d="M 85.57189188830299 84.74124197986013 l -5.698264428889362 -6.026322881840847 a29.293779896871172,29.293779896871172 0 0,0 0.36936961764477233,-0.34328880424565145 l 5.593686927449734 6.123516272161146" fill="#ff6a09" stroke="none" /><path d="M 85.83668400450813 84.49514656593479 l -8.18495835379636 -8.960230759515223 a33.135867439830726,33.135867439830726 0 0,0 0.4244373456090893,-0.3810640396194715 l 8.029510020591298 9.099793807903975" fill="#ff9d0e" stroke="none" /><path d="M 86.10567301691215 84.25364557470407 l -5.48723084776627 -6.218644620032009 a29.293445802977843,29.293445802977843 0 0,0 0.38096293846656637,-0.33036730616707083 l 5.379374110652931 6.312176919618761" fill="#ff6a09" stroke="none" /><path d="M 86.37877921826538 84.01681056812374 l -7.833119284276431 -9.19141032725626 a33.076414266068234,33.076414266068234 0 0,0 0.4365180437266176,-0.36557130803415383 l 7.673743703590703 9.324882792684228" fill="#ff9c0e" stroke="none" /><path d="M 86.65592168130627 83.78471172551755 l -5.279521014843789 -6.41550155524421 a29.30854995480668,29.30854995480668 0 0,0 0.39231113263327244,-0.3172216525122424 l 5.168306483646016 6.505429305020587" fill="#ff6a09" stroke="none" /><path d="M 86.93701828274178 83.55741782278169 l -10.207173680309959 -12.847931327493466 a37.40901380144463,37.40901380144463 0 0,0 0.5076357655715932,-0.3962177670137163 l 9.984505359578941 13.021727483730404" fill="#ffd413" stroke="none" /><path d="M 87.22198572758235 83.33499621200491 l -5.064093857133265 -6.60455854193697 a29.322574128701255,29.322574128701255 0 0,0 0.4031907648270102,-0.3036749250465405 l 4.949656938547865 6.690750056489365" fill="#ff6a09" stroke="none" /><path d="M 87.51073957382395 83.11751280151077 l -7.029110969554494 -9.501673590819498 a32.81906096307097,32.81906096307097 0 0,0 0.45705181388194627,-0.33206758028722594 l 6.864513839318765 9.621260405923392" fill="#ff990e" stroke="none" /><path d="M 87.80319425747018 82.90503203632743 l -9.526190060057473 -13.351849437487285 a37.40183466755068,37.40183466755068 0 0,0 0.5273104079762895,-0.3694146389755737 l 9.294948512497523 13.513848919226803" fill="#ffd413" stroke="none" /><path d="M 88.09926311788651 82.69761687909137 l -4.64862785806697 -6.758601671774744 a29.202952975637047,29.202952975637047 0 0,0 0.41662226766511606,-0.2813052148892198 l 4.5316008959953145 6.837618798962629" fill="#ff6909" stroke="none" /><path d="M 88.39885842347998 82.49532879139004 l -6.5846147627813405 -9.935359869336361 a32.919250282943864,32.919250282943864 0 0,0 0.47502944391390123,-0.308972364125227 l 6.412618293083152 10.047231157621123" fill="#ff9a0e" stroke="none" /><path d="M 88.70189139769569 82.29822771554957 l -4.18388164958375 -6.555267154266597 a28.776656937369047,28.776656937369047 0 0,0 0.4198388830649678,-0.26290307005919084 l 4.07042361414654 6.626314565648718" fill="#ff6309" stroke="none" /><path d="M 89.00827224532344 82.1063720568725 l -8.590633094232631 -13.984843494573994 a37.41264221651875,37.41264221651875 0 0,0 0.5516368206314864,-0.3323550121239605 l 8.348634207383496 14.130645116156574" fill="#ffd413" stroke="none" /><line stroke="#e1ed5e" stroke-width="0.3" x1="56.762969772571076" x2="54.21961505331055" y1="26.818313649435495" y2="22.513508569990535" /><path d="M 56.25429882871897 25.957352633546506 a86.0,86.0 0 0,1 42.265352541879196,-11.944610805530505" fill="none" id="id48" stroke="none" /><text fill="#e1ed5e" style="font-size:6.75px; font-family:Arial;" text-anchor="middle"><textPath startOffset="22.20632615414155" xlink:href="#id48">December</textPath></text><path d="M 89.3179101791058 81.91981866633112 l -3.9585259522348366 -6.700080998237559 a28.7820956751675,28.7820956751675 0 0,0 0.4287206463661034,-0.24834267037820257 l 3.842608573403413 6.767227826005809" fill="#ff6309" stroke="none" /><path d="M 89.63071344664047 81.73862282372117 l -6.200265050066276 -10.919302701252475 a33.556849054307094,33.556849054307094 0 0,0 0.5047523934714818,-0.28089416048306043 l 6.011388567522749 11.024412259295719" fill="#ffa30f" stroke="none" /><path d="M 89.94658935756843 81.56283822128135 l -7.852005427444932 -14.399958332763829 a37.40160934841332,37.40160934841332 0 0,0 0.5678899242168967,-0.3033471302431347 l 7.60297045669973 14.532984189508714" fill="#ffd413" stroke="none" /><path d="M 90.26544431104013 81.39251694778311 l -3.6033299401122862 -6.887720706988854 a28.77333153768657,28.77333153768657 0 0,0 0.4408341742562916,-0.22581238614629404 l 3.484235278267231 6.948725618447654" fill="#ff6309" stroke="none" /><path d="M 90.58718382345135 81.22770947309562 l -5.579278717011672 -11.126940018998711 a33.447375032049706,33.447375032049706 0 0,0 0.5168873448084859,-0.2536343752804311 l 5.38692010519276 11.221329554413972" fill="#ffa10e" stroke="none" /><path d="M 90.91171255644093 81.06846463323043 l -3.365120276091847 -7.009779775992415 a28.775670194939902,28.775670194939902 0 0,0 0.4483822034400371,-0.210521456664048 l 3.2439598613522014 7.066666215296471" fill="#ff6309" stroke="none" /><path d="M 91.23893434514133 80.91482961587045 l -8.167399522462881 -17.791923679400497 a40.57700087278792,40.57700087278792 0 0,0 0.6372866888968932,-0.28593196084693684 l 7.859930715099215 17.929875970763963" fill="#fffb17" stroke="none" /><path d="M 91.56875222667455 80.76684994638697 l -3.120128753908699 -7.1175591233810405 a28.771412440206255,28.771412440206255 0 0,0 0.45529560310450096,-0.1949338163414244 l 2.9971493930138897 7.170212467685252" fill="#ff6309" stroke="none" /><path d="M 91.90106846888425 80.62456947434976 l -5.398497620735884 -12.915063572471782 a34.99795140876259,34.99795140876259 0 0,0 0.5578275651369001,-0.22755187003536562 l 5.175386186010603 13.006076328690723" fill="#ffb510" stroke="none" /><path d="M 92.23578459929587 80.48803036053334 l -6.150770354485711 -15.457279096761372 a37.63608887415538,37.63608887415538 0 0,0 0.6039997882932733,-0.23434253415806933 l 5.883787401192761 15.560864334809992" fill="#ffd714" stroke="none" /><path d="M 92.57280143429618 80.3572730644239 l -2.884200889428636 -7.627851874056346 a29.1549211512513,29.1549211512513 0 0,0 0.47094593072436136,-0.17345336076198434 l 2.7524726329317053 7.676368502624652" fill="#ff6809" stroke="none" /><path d="M 92.91201910852362 80.23233633223022 l -4.626954250344809 -12.904108635078822 a34.70856394013245,34.70856394013245 0 0,0 0.5641265469470157,-0.19681267531470362 l 4.404145699334508 12.981842163565736" fill="#ffb210" stroke="none" /><path d="M 93.25333710446033 80.11325718540243 l -2.747631534121897 -8.09903244231822 a29.552415188063783,29.552415188063783 0 0,0 0.4831357989660294,-0.1592822768705615 l 2.607812912913458 8.145128443448016" fill="#ff6d0a" stroke="none" /><path d="M 93.59665428221793 80.00007090966166 l -6.163298997114231 -19.250177694221616 a41.212758242925105,41.212758242925105 0 0,0 0.6774879512568682,-0.2104988042978687 l 5.831025673146635 19.35341663340201" fill="#fbff18" stroke="none" /></svg>