<?xml version="1.0" encoding="utf-8" ?>
<svg baseProfile="full" height="200mm" version="1.1" viewBox="0,0,200,200" width="200mm" xmlns="http://www.w3.org/2000/svg" xmlns:ev="http://www.w3.org/2001/xml-events" xmlns:xlink="http://www.w3.org/1999/xlink"><defs /><rect fill="#1a1a1a" height="200" width="200" x="0" y="0" /><rect fill="#1a1a1a" height="200" width="180" x="10" y="0" /><text alignment-baseline="middle" fill="#e1ed5e" style="dominant-baseline: central; font-size:9.0px; font-family:Arial;" text-anchor="middle" x="100.0" y="100.0">2026</text><line stroke="#e1ed5e" stroke-width="0.3" x1="100.0" x2="100.0" y1="15.0" y2="10.0" /><path d="M 100.0 14.0 a86.0,86.0 0 0,1 42.46469731375804,11.215312516191453" fill="none" id="id49" stroke="none" /><text fill="#e1ed5e" style="font-size:6.75px; font-family:Arial;" text-anchor="middle"><textPath startOffset="22.20632615414155" xlink:href="#id49">January</textPath></text><path d="M 100.0 79.0 l 0.0 -8.495938569859828 a29.495938569859828,29.495938569859828 0 0,0 0.5077240957536183,0.004370141586369105 l -0.14624361648109 8.494679804882017" fill="#ff6109" stroke="none" /><path d="M 100.36148047927253 79.00311137660856 l 0.3083914634023648 -17.91316981347229 a38.915824236160454,38.915824236160454 0 0,0 0.6696734451612579,0.017295689359403992 l -0.6166915437584906 17.905207331970526" fill="#ffde14" stroke="none" /><path d="M 100.72285384407766 79.0124445844662 l 0.0846339235679875 -2.4572867329544916 a23.458743782701376,23.458743782701376 0 0,0 0.4034447798929701,0.01737318089082941 l -0.12691953585028917 2.4554658255394672" fill="#ff0b01" stroke="none" /><path d="M 101.08401301168833 79.027996857942 l 0.2594539734107236 -5.0195611002071425 a26.02626203087656,26.02626203087656 0 0,0 0.4472030032183285,0.02697650641255762 l -0.34581902546866405 5.014351324414281" fill="#ff3104" stroke="none" /><path d="M 102.88285421437855 79.19881850522331 l 1.0917895536795494 -7.877787418773482 a28.95308361862929,28.95308361862929 0 0,0 0.49307241972689414,0.07266605748811697 l -1.2272309538350994 7.857826877124396" fill="#ff5a08" stroke="none" /><path d="M 104.307194497241 79.44645832069477 l 0.9953136047133605 -4.749546293198406 a25.85271461791874,25.85271461791874 0 0,0 0.43476544131906897,0.09502288600394762 l -1.0769217701859575 4.731709909098587" fill="#ff2e04" stroke="none" /><path d="M 106.40334571778207 80.00007090966166 l 0.7097565430273673 -2.2168224483852765 a23.327671823525613,23.327671823525613 0 0,0 0.3813709740051377,0.12573201406702933 l -0.7478103392749226 2.204276710059011" fill="#ff0901" stroke="none" /><path d="M 106.74666289553966 80.11325718540242 l 2.81534045850062 -8.298614070483314 a29.763169368903817,29.763169368903817 0 0,0 0.4837478724628386,0.16877013406381688 l -2.957770335026732 8.24892308324729" fill="#ff6509" stroke="none" /><path d="M 107.08798089147638 80.2323363322302 l 2.587226343344478 -7.215513271082576 a28.6653357341257,28.6653357341257 0 0,0 0.46303754850849405,0.17054063685029777 l -2.7110462176255483 7.169909366425953" fill="#ff5607" stroke="none" /><path d="M 107.4271985657038 80.35727306442388 l 2.6571329407816133 -7.027324815080088 a28.5128988760416,28.5128988760416 0 0,0 0.45758699694705196,0.17753664577492698 l -2.7777031027283323 6.980545465414614" fill="#ff5407" stroke="none" /><path d="M 107.76421540070413 80.48803036053334 l 2.7945044215012533 -7.022768253536967 a28.55834167689426,28.55834167689426 0 0,0 0.4551875055744156,0.1856824126014141 l -2.9149757966640566 6.973624954751973" fill="#ff5407" stroke="none" /><path d="M 108.09893153111575 80.62456947434976 l 7.007699775578893 -16.76482874619861 a39.17050739616304,39.17050739616304 0 0,0 0.6198569439685507,0.26539039439347956 l -7.295240477337759 16.64171882384234" fill="#ffe215" stroke="none" /><path d="M 108.76106565485865 80.91482961587045 l 3.5485541667582403 -7.730196708700109 a29.505773205865253,29.505773205865253 0 0,0 0.4597586612100773,0.21586285612872594 l -3.681091039267916 7.66796886993138" fill="#ff6209" stroke="none" /><path d="M 109.08828744355905 81.06846463323043 l 5.412736790102689 -11.275107506141454 a33.50702877721078,33.50702877721078 0 0,0 0.5178092188244388,0.2540867348564051 l -5.6060172759375595 11.180265611150217" fill="#ff980e" stroke="none" /><path d="M 109.41281617654863 81.2277094730956 l 6.284609818669893 -12.533605156152682 a35.020969252632256,35.020969252632256 0 0,0 0.5365537891195755,0.2748436906492803 l -6.499424095378224 12.4235689401909" fill="#ffac0f" stroke="none" /><path d="M 109.73455568895987 81.39251694778311 l 4.005301833862252 -7.656085020616741 a29.640490762870613,29.640490762870613 0 0,0 0.4500484430034825,0.24040029208786268 l -4.136495323394047 7.5860060020271245" fill="#ff6309" stroke="none" /><path d="M 110.05341064243156 81.56283822128135 l 5.139255009993405 -9.42498813700316 a31.735098669336608,31.735098669336608 0 0,0 0.47735015240788325,0.2656448429989428 l -5.300729251473323 9.335127896444037" fill="#ff800b" stroke="none" /><path d="M 110.36928655335952 81.73862282372117 l 14.395163229864101 -25.35135892926791 a50.153252373877656,50.153252373877656 0 0,0 0.7470524390495219,0.43274099159591717 l -14.829412401378951 25.09981378028194" fill="#9aff22" stroke="none" /><line stroke="#e1ed5e" stroke-width="0.3" x1="143.23703022742887" x2="145.7803849466894" y1="26.81831364943548" y2="22.513508569990506" /><path d="M 143.74570117128098 25.957352633546492 a86.0,86.0 0 0,1 28.547481713284135,27.462654790039103" fill="none" id="id50" stroke="none" /><text fill="#e1ed5e" style="font-size:6.75px; font-family:Arial;" text-anchor="middle"><textPath startOffset="19.985693538727396" xlink:href="#id50">February</textPath></text><path d="M 110.68208982089419 81.91981866633111 l 14.951803440845461 -25.306969142600877 a50.39386183063109,50.39386183063109 0 0,0 0.7430405358357368,0.44767360890373037 l -15.385206042898837 25.04584892423853" fill="#98ff23" stroke="none" /><path d="M 110.99172775467656 82.1063720568725 l 5.2867203590425 -8.606345540519401 a31.10042552160713,31.10042552160713 0 0,0 0.4537416539472995,0.2841329820754596 l -5.434081165362063 8.514068217120997" fill="#ff780b" stroke="none" /><path d="M 111.2981086023043 82.29822771554956 l 7.9648162583052216 -12.479200603829556 a35.80434887927136,35.80434887927136 0 0,0 0.5166618252734703,0.33605122304152296 l -8.178445109362972 12.340250456628505" fill="#ffb610" stroke="none" /><path d="M 111.60114157652 82.49532879139004 l 9.412626047621481 -14.20247508285615 a38.03842209805568,38.03842209805568 0 0,0 0.5426729853695211,0.3664152221615092 l -9.655703727397546 14.038347948395971" fill="#ffd313" stroke="none" /><path d="M 111.90073688211348 82.69761687909136 l 4.950056195862614 -7.196845844022408 a29.734852399715777,29.734852399715777 0 0,0 0.4192173268872472,0.2936885278989626 l -5.073204662333512 7.11057247335951" fill="#ff6509" stroke="none" /><path d="M 112.19680574252982 82.90503203632743 l 9.906408552797116 -13.884761339979557 a38.05648052451392,38.05648052451392 0 0,0 0.5299902844040438,0.3850604810491919 l -10.143944153554948 13.71218162411369" fill="#ffd313" stroke="none" /><path d="M 112.48926042617603 83.11751280151076 l 5.047618381982874 -6.823170452758064 a29.487290872682642,29.487290872682642 0 0,0 0.40545565022535435,0.30538078977257715 l -5.164320185966611 6.7352730734796395" fill="#ff6109" stroke="none" /><path d="M 112.77801427241765 83.33499621200491 l 10.894039233544621 -14.207935695100653 a38.90378528518829,38.90378528518829 0 0,0 0.5279196327307744,0.4120496470688292 l -11.136991421434827 14.0183076588086" fill="#ffde14" stroke="none" /><path d="M 113.06298171725822 83.55741782278167 l 5.280968353301501 -6.647238586404033 a29.489664750339124,29.489664750339124 0 0,0 0.39473545422823103,0.31918195197509547 l -5.394607206094223 6.5553505371648075" fill="#ff6109" stroke="none" /><path d="M 113.34407831869373 83.78471172551755 l 11.378421280977422 -13.826686023049076 a38.90658306956915,38.90658306956915 0 0,0 0.5134602981145285,0.4300082333432487 l -11.614739116051068 13.62877663231201" fill="#ffde14" stroke="none" /><path d="M 113.6212207817346 84.01681056812373 l 12.48003330328297 -14.64411594223454 a40.24061753116723,40.24061753116723 0 0,0 0.5233315330497862,0.4538279484662135 l -12.730258634979519 14.427123000348656" fill="#ffef16" stroke="none" /><path d="M 113.89432698308785 84.25364557470407 l 5.8453597861881175 -6.624509920395924 a29.83472482397778,29.83472482397778 0 0,0 0.382153007892723,0.34310074371837535 l -5.958523781676831 6.522910167908251" fill="#ff6609" stroke="none" /><path d="M 114.16331599549186 84.49514656593476 l 10.434478377209707 -11.422823437043638 a36.4712389380531,36.4712389380531 0 0,0 0.45987126376337445,0.42740022108718406 l -10.629557524767929 11.241518629881813" fill="#ffbf11" stroke="none" /><path d="M 114.42810811169701 84.74124197986012 l 5.833779647643397 -6.169639934569187 a29.491021251857116,29.491021251857116 0 0,0 0.36585262852814554,0.3519499387794183 l -5.939115519783961 6.068306909027466" fill="#ff6109" stroke="none" /><path d="M 114.68862486808459 84.99185889309783 l 10.814726589014704 -11.04997534746524 a36.46157386473742,36.46157386473742 0 0,0 0.44476904255716787,0.4428590629412911 l -11.003331431739195 10.86218043387383" fill="#ffbf11" stroke="none" /><path d="M 114.94478906791727 85.2469230424477 l 6.048001001905671 -5.970417100902084 a29.49848201020606,29.49848201020606 0 0,0 0.3536105756418959,0.36442678144610907 l -6.149875841250676 5.865426123905861" fill="#ff6209" stroke="none" /><path d="M 115.19652480421416 85.50635884689758 l 12.951243417918763 -12.352210587893092 a38.897257121632975,38.897257121632975 0 0,0 0.45793681172308587,0.48849506202535714 l -13.161947551612311 12.12744610898968" fill="#ffde14" stroke="none" /><path d="M 115.4437574822437 85.77008943001954 l 19.11290934709043 -17.610674802031895 a46.98921258316646,46.98921258316646 0 0,0 0.5429633931309686,0.5995537400027661 l -19.413216380837437 17.27906827475958" fill="#beff1f" stroke="none" /><path d="M 115.68641384162765 86.03803664274999 l 32.33024001311825 -28.7760880818007 a64.28172437181061,64.28172437181061 0 0,0 0.7285511154160504,0.8328598677152146 l -32.82078299211214 28.21531265788254" fill="#34ff5e" stroke="none" /><path d="M 115.9244219780498 86.31012108654704 l 43.231228564441224 -37.16494608989808 a78.01028276597117,78.01028276597117 0 0,0 0.8666176670557107,1.0258019725107468 l -43.86455684498405 36.41528516775823" fill="#45fff3" stroke="none" /><path d="M 116.15771136456269 86.58626213691792 l 39.250108714138996 -32.584482883116735 a72.01293521090369,72.01293521090369 0 0,0 0.7835744897950174,0.9605696735981104 l -39.80518169601043 31.904029039910522" fill="#3effb5" stroke="none" /><path d="M 116.38621287248628 86.86637796730983 l 34.23827785735449 -27.442131011476967 a64.87858503972612,64.87858503972612 0 0,0 0.6909443238558208,0.8774291248022301 l -34.705576261804275 26.8487094927217" fill="#35ff65" stroke="none" /><path d="M 116.60985879189232 87.15038557335679 l 6.8351645026871015 -5.287776946368703 a29.64176248304373,29.64176248304373 0 0,0 0.30873174424780414,0.4062547863018287 l -6.925172187159019 5.169337384185841" fill="#ff6309" stroke="none" /><path d="M 117.04232023915458 87.72973835380427 l 14.552601389540346 -10.47769459654924 a38.93210225437633,38.93210225437633 0 0,0 0.3868875440472924,0.5472249938983212 l -14.73080155339152 10.225643102319125" fill="#ffdf14" stroke="none" /><path d="M 117.2510076193507 88.02491185347247 l 6.965285156043149 -4.835074306949723 a29.478982300884958,29.478982300884958 0 0,0 0.285771408259267,0.41933427928081224 l -7.0474810299711494 4.714462004398505" fill="#ff6109" stroke="none" /><path d="M 117.45458315368197 88.32363383020206 l 14.875040202145879 -9.95076276880792 a38.8964940895291,38.8964940895291 0 0,0 0.36748549048300766,0.559705613735946 l -15.044122327986813 9.6932390910943" fill="#ffde14" stroke="none" /><path d="M 117.65298651832404 88.62581576622439 l 7.130439333531104 -4.594289502411222 a29.48237355467993,29.48237355467993 0 0,0 0.2711990937110567,0.4289718376476635 l -7.208466023488117 4.470870017049352" fill="#ff6109" stroke="none" /><line stroke="#e1ed5e" stroke-width="0.3" x1="172.23445277983987" x2="176.4835382374775" y1="55.19839476539836" y2="52.563006222186495" /><path d="M 173.08426987136738 54.67131705675599 a86.0,86.0 0 0,1 12.851231095245387,41.99856678651699" fill="none" id="id51" stroke="none" /><text fill="#e1ed5e" style="font-size:6.75px; font-family:Arial;" text-anchor="middle"><textPath startOffset="22.20632615414155" xlink:href="#id51">March</textPath></text><path d="M 117.84615892207809 88.93136811851018 l 25.21846354364128 -15.64111867433897 a50.67516633292423,50.67516633292423 0 0,0 0.4533839606273471,0.7452440219856441 l -25.48396330255485 15.204706879146245" fill="#94ff23" stroke="none" /><path d="M 118.03404312379186 89.2402003453031 l 7.286540904290297 -4.347428902534016 a29.48491699502616,29.48491699502616 0 0,0 0.256294587927974,0.43809052988022296 l -7.360295166688598 4.221358960299898" fill="#ff6109" stroke="none" /><path d="M 118.21658344932153 89.55222093294921 l 15.528766628208745 -8.906232245287404 a38.90149618887669,38.90149618887669 0 0,0 0.32814775200719265,0.5837382351106578 l -15.67977202150837 8.637610500241951" fill="#ffde14" stroke="none" /><path d="M 118.3937258080291 89.86733742301442 l 15.673905538646979 -8.634378795476504 a38.89479846263161,38.89479846263161 0 0,0 0.31799627993161683,0.5891988114483127 l -15.82020991779706 8.363299000695733" fill="#ffde14" stroke="none" /><path d="M 118.56541770881063 90.18545643968196 l 7.509034492843986 -3.9696249921149422 a29.49373425489309,29.49373425489309 0 0,0 0.23340859114502743,0.45087110562976884 l -7.57625251714913 3.8397811642248287" fill="#ff6109" stroke="none" /><path d="M 118.73160827565052 90.50648371742162 l 15.960313959757292 -8.088974434137691 a38.893102835734126,38.893102835734126 0 0,0 0.2975136921778141,0.5997694488988952 l -16.097187664888512 7.813045396739846" fill="#ffde14" stroke="none" /><path d="M 118.89224826269711 90.83032412892265 l 7.631005097711897 -3.7038388625625287 a29.48237355467993,29.48237355467993 0 0,0 0.21766668789283902,0.4584615566285473 l -7.693629979446492 3.571934890293441" fill="#ff6109" stroke="none" /><path d="M 119.04729006885535 91.15688171328212 l 20.002668968052188 -9.286673699781407 a43.053323428719075,43.053323428719075 0 0,0 0.3062888936799181,0.674866977092319 l -20.159560178695454 8.940984713847024" fill="#edff1a" stroke="none" /><path d="M 119.196687751892 91.48605970444005 l 15.062706898855737 -6.680474719589952 a37.47767828305665,37.47767828305665 0 0,0 0.25647097822868814,0.5919703783522853 l -15.175468586927105 6.420205196651064" fill="#ffcc13" stroke="none" /><path d="M 119.34039704204932 91.81776055985345 l 16.47747233618496 -6.9710370335174 a38.89140720883664,38.89140720883664 0 0,0 0.25553194101415533,0.618790863777526 l -16.595025964085313 6.686371599286571" fill="#ffde14" stroke="none" /><path d="M 119.47837535516314 92.15188598940014 l 2.9055253723215855 -1.1706774290406115 a24.132501130417932,24.132501130417932 0 0,0 0.15192725271087648,0.38663828665155814 l -2.9252461749141623 1.120490137493269" fill="#ff1502" stroke="none" /><path d="M 119.61058180528143 92.48833698450437 l 7.921947933904706 -3.034433343011164 a29.483221368128675,29.483221368128675 0 0,0 0.17745447129153805,0.47548975824893086 l -7.973006993697869 2.8976204477329" fill="#ff6109" stroke="none" /><path d="M 119.7369772167798 92.82701384747503 l 16.81032746791383 -6.1093573155793175 a38.88606598410955,38.88606598410955 0 0,0 0.22321883113385083,0.6310696945864676 l -16.91299937985749 5.8190899945662355" fill="#ffde14" stroke="none" /><path d="M 119.85752413597 93.16781622104841 l 8.018496722109841 -2.758845607400755 a29.4798301143337,29.4798301143337 0 0,0 0.16096367143133197,0.4812608897368737 l -8.064797687312943 2.6204116147415673" fill="#ff6109" stroke="none" /><path d="M 119.97218684219823 93.5106431181261 l 37.05396373941437 -12.039562642435644 a59.96084313028874,59.96084313028874 0 0,0 0.31049585138351077,0.9843566995285062 l -37.25571507456609 11.39995577648072" fill="#34ff2f" stroke="none" /><path d="M 120.08093135843002 93.85539295169968 l 1.6214174922832827 -0.49614099931369987 a22.69562689748724,22.69562689748724 0 0,0 0.11109412411498669,0.37455415866829067 l -1.6297175135099717 0.46815745389887925" fill="#ff0000" stroke="none" /><path d="M 120.18372546131832 94.20196356495316 l 17.194334626286974 -4.939295217360131 a38.88971158193915,38.88971158193915 0 0,0 0.17928755095191626,0.644992712251737 l -17.276808947805254 4.642591201689442" fill="#ffde14" stroke="none" /><path d="M 120.28053869075195 94.5502522615342 l 9.82823712462774 -2.641025165049977 a31.17689829468381,31.17689829468381 0 0,0 0.13480841552684736,0.5194718168385626 l -9.87224187202489 2.471456922662564" fill="#ff790b" stroke="none" /><path d="M 120.37134235888165 94.90015583598534 l 8.229760450244862 -2.0602714864846012 a29.48373005619792,29.48373005619792 0 0,0 0.11901205879665765,0.4933818175007332 l -8.26400530930234 1.918304437324462" fill="#ff6109" stroke="none" /><path d="M 120.45610955862082 95.25157060432595 l 14.49706685582448 -3.3651705966855476 a35.882517279245526,35.882517279245526 0 0,0 0.1344835961129999,0.6028635917913551 l -14.552844838939517 3.115128835344229" fill="#ffb711" stroke="none" /><path d="M 120.53481517161879 95.60439243477599 l 8.305915567526899 -1.7779339623759112 a29.49407338027259,29.49407338027259 0 0,0 0.10199430358143537,0.49736044680272445 l -8.335289167023332 1.634697859409775" fill="#ff6109" stroke="none" /><path d="M 120.6074358757038 95.95851677861258 l 18.330680941532428 -3.5949712476918974 a39.6798737161682,39.6798737161682 0 0,0 0.12567990836091092,0.6713870959462671 l -18.3898465738032 3.2789060742830674" fill="#ffe815" stroke="none" /><path d="M 120.67395015179393 96.31383870115 l 2.99138610813374 -0.5333635623941596 a24.03856340029714,24.03856340029714 0 0,0 0.06912590930819248,0.407985029730317 l -3.000123878962156 0.4817927443480048" fill="#ff1402" stroke="none" /><path d="M 120.73433829027371 96.67025291283417 l 17.67260472451144 -2.8380603846749644 a38.89903752987533,38.89903752987533 0 0,0 0.10047826366091572,0.6620262162033882 l -17.718838881611656 2.5334350560794943" fill="#ffde14" stroke="none" /><path d="M 120.78858239683441 97.02765380044208 l 17.707088988454093 -2.5317550593579567 a38.88716814159292,38.88716814159292 0 0,0 0.08904050616944936,0.6634551940085751 l -17.74804549368138 2.2265815232847173" fill="#ffde14" stroke="none" /><path d="M 120.83666639777658 97.38593545837742 l 8.418670721732635 -1.0561645611231616 a29.484662650991538,29.484662650991538 0 0,0 0.05884246683387246,0.5041263213437076 l -8.435603541570096 0.9110945014546012" fill="#ff6109" stroke="none" /><path d="M 120.87857604477298 97.74499172005257 l 17.786861641850745 -1.921085048646998 a38.89030505135327,38.89030505135327 0 0,0 0.06615587997758478,0.6661806831114614 l -17.817294647510558 1.6146288348311015" fill="#ffde14" stroke="none" /><path d="M 120.91429891909075 98.10471618934814 l 34.68435384497167 -3.1431459682012344 a55.82648084749047,55.82648084749047 0 0,0 0.07849074588396411,0.9577859095532316 l -34.73331907467513 2.545646141440234" fill="#5dff2a" stroke="none" /><path d="M 120.94382443527127 98.46500227214037 l 17.853693759719686 -1.308518386399302 a38.90158097022156,38.90158097022156 0 0,0 0.04319818462949729,0.6682567962492401 l -17.8735725353536 1.0010025258970268" fill="#ffde14" stroke="none" /><path d="M 120.96714384426684 98.82574320788733 l 1.6992379591507842 -0.09516516554514284 a22.701900717007945,22.701900717007945 0 0,0 0.01849274321473358,0.39035258130756795 l -1.7006243105990142 0.06590147761457513" fill="#ff0000" stroke="none" /><path d="M 120.98425023603335 99.18683210126433 l 17.88561345290744 -0.693091558931409 a38.89903752987533,38.89903752987533 0 0,0 0.020168790762219634,0.6693039759990134 l -17.894893938125303 0.38511743550739647" fill="#ffde14" stroke="none" /><line stroke="#e1ed5e" stroke-width="0.3" x1="184.98032266829074" x2="189.97916517819016" y1="98.17113171792111" y2="98.06355123074" /><path d="M 185.9800911702706 98.14961562048488 a86.0,86.0 0 0,1 -9.607161424134198,41.387399972396054" fill="none" id="id52" stroke="none" /><text fill="#e1ed5e" style="font-size:6.75px; font-family:Arial;" text-anchor="middle"><textPath startOffset="21.466115282336823" xlink:href="#id52">April</textPath></text><path d="M 120.99513854157772 99.54816195383933 l 17.888960617854046 -0.3849897440500002 a38.893102835734126,38.893102835734126 0 0,0 0.008643515909729917,0.6694498326973184 l -17.89293714088149 0.07700365329221909" fill="#ffde14" stroke="none" /><path d="M 120.99980553446 99.90962569577887 l 8.48568622805415 -0.03651881382619383 a29.485764808474904,29.485764808474904 0 0,0 -0.002184337344458146,0.5075630717228107 l -8.485057593420189 -0.10955373610030153" fill="#ff6109" stroke="none" /><path d="M 120.99824983174949 100.27111621757518 l 17.895850314427033 0.23105998292310573 a38.89734190297784,38.89734190297784 0 0,0 -0.01440671843053307,0.6694235953538146 l -17.889221533311492 -0.5390733940670352" fill="#ffde14" stroke="none" /><path d="M 120.9904718944345 100.63252640178507 l 8.485304368216388 0.2556959684885468 a29.489156062269878,29.489156062269878 0 0,0 -0.019656442328085222,0.5072454350498445 l -8.479645793037099 -0.40171865055239747" fill="#ff6109" stroke="none" /><path d="M 120.9764740272857 100.99374915477107 l 6.58055404322329 0.3117502021489469 a27.58793440346231,27.58793440346231 0 0,0 -0.026554896465211704,0.4741555149567894 l -6.574212795870549 -0.4249774334411597" fill="#ff4706" stroke="none" /><path d="M 120.92983693683757 101.71520430193887 l 24.36873988099257 1.9970230825421431 a45.45043117369679,45.45043117369679 0 0,0 -0.07061136506775516,0.7791905295725278 l -24.33075391964774 -2.4161950006632416" fill="#d0ff1d" stroke="none" /><path d="M 120.89721153311464 102.0752229133903 l 17.81480196423232 1.76912049605765 a38.9024287836703,38.9024287836703 0 0,0 -0.07190965482863404,0.6657940948793365 l -17.781710007902632 -2.075510912821778" fill="#ffde14" stroke="none" /><path d="M 120.8583938346157 102.4346265915055 l 8.432333451606981 0.984236054439329 a29.48957996899425,29.48957996899425 0 0,0 -0.06318983769281526,0.5036851794476339 l -8.414142104667318 -1.1292389881743579" fill="#ff6109" stroke="none" /><path d="M 120.81339534386255 102.79330883721812 l 24.357107482277033 3.2689007466231885 a45.57548365738647,45.57548365738647 0 0,0 -0.11104347008131216,0.7766377711180288 l -24.29722996117912 -3.6876839897216267" fill="#cfff1d" stroke="none" /><path d="M 120.76222939487914 103.15116336523771 l 8.410640856058127 1.2765152932140658 a29.506960144693494,29.506960144693494 0 0,0 -0.08053748522024828,0.5015069973455192 l -8.387421616476589 -1.42110152025279" fill="#ff6209" stroke="none" /><path d="M 120.70491114924044 103.5080841355445 l 25.736193858984567 4.360546767635544 a47.102989147987856,47.102989147987856 0 0,0 -0.1423262970427817,0.7982414581993132 l -25.657321119602596 -4.802906976568075" fill="#bdff1f" stroke="none" /><path d="M 120.64145759157962 103.86396538481128 l 8.33921686740752 1.5610547447599676 a29.484069181577418,29.484069181577418 0 0,0 -0.09767660329107128,0.49805089582588763 l -8.311110331140785 -1.7043693676538" fill="#ff6109" stroke="none" /><path d="M 120.5718875245553 104.21870165774334 l 24.35495013656151 4.994498846677387 a45.86179025902719,45.86179025902719 0 0,0 -0.16524649741748879,0.7719766225428697 l -24.265369600419575 -5.4129892886364255" fill="#cbff1d" stroke="none" /><path d="M 120.49622156327973 104.57218783832717 l 23.966237434574126 5.346260479791905 a45.55530569730637,45.55530569730637 0 0,0 -0.177317376502785,0.7638786171470983 l -23.870659492140785 -5.758007754287568" fill="#cfff1d" stroke="none" /><path d="M 120.41448212921028 104.9243191809786 l 14.284599035247751 3.445687457396209 a35.694302693624444,35.694302693624444 0 0,0 -0.14921694860131232,0.596047535560792 l -14.223170772351379 -3.691062832354397" fill="#ffb510" stroke="none" /><path d="M 120.32669344350535 105.2749913415812 l 23.693987271695374 6.148839606063079 a45.47883292422971,45.47883292422971 0 0,0 -0.20316460963585264,0.756051091544904 l -23.584634585717744 -6.555781630783532" fill="#d0ff1d" stroke="none" /><path d="M 120.23288151984713 105.62410040840565 l 10.904367796050286 3.0310689713184904 a32.317800852658095,32.317800852658095 0 0,0 -0.15359783260685583,0.5346942054470334 l -10.850577326557332 -3.2183206522701058" fill="#ff880c" stroke="none" /><path d="M 120.13307415673323 105.97154293290107 l 24.466591244882533 7.256879843741867 a46.52011740197661,46.52011740197661 0 0,0 -0.23431347433336608,0.7657499914083327 l -24.338050998043034 -7.676956807702257" fill="#c4ff1e" stroke="none" /><path d="M 120.02730092923936 106.31721596034902 l 12.423352880460552 3.918700946012803 a34.02673842129062,34.02673842129062 0 0,0 -0.18100239782387412,0.5570680999717873 l -12.354058231620431 -4.131967945962385" fill="#ff9f0e" stroke="none" /><path d="M 119.9155931802556 106.66101706037122 l 41.521023991597026 13.887221267720285 a64.78184952522447,64.78184952522447 0 0,0 -0.3628066425058243,1.0544859291468176 l -41.27582651814797 -14.599879899956402" fill="#35ff64" stroke="none" /><path d="M 119.79798401119884 107.00284435728193 l 22.62257930935365 8.001946146337806 a44.99608794651508,44.99608794651508 0 0,0 -0.2645678671937981,0.7279771431397318 l -22.481487181154627 -8.390171086483669" fill="#d5ff1c" stroke="none" /><path d="M 119.67450827220406 107.3425965602758 l 59.02352481661219 22.027789680827375 a84.0,84.0 0 0,0 -0.517222881625973,1.3503057326674246 l -58.635607655392704 -23.040518980327946" fill="#4dd2ff" stroke="none" /><path d="M 119.54520255179757 107.68017299344265 l 41.65807228851331 16.36929578505169 a65.75878496221173,65.75878496221173 0 0,0 -0.4230399970478619,1.0499505794151467 l -41.370129677208055 -17.08394573230965" fill="#36ff6f" stroke="none" /><path d="M 119.41010516605496 108.01547362559984 l 20.758804055067994 8.572423744173404 a43.45917172663265,43.45917172663265 0 0,0 -0.2914848426614837,0.6889840648211825 l -20.6081682312142 -8.92848233466075" fill="#e8ff1a" stroke="none" /><path d="M 119.26925614724726 108.34839909993367 l 30.79171058433761 13.340498821716322 a54.55738889606614,54.55738889606614 0 0,0 -0.3807557969762643,0.8585038055866869 l -30.55751370263007 -13.868550963795697" fill="#6bff28" stroke="none" /><path d="M 119.12269723197855 108.67885076344098 l 9.335531931813756 4.236938306906747 a31.252014566242487,31.252014566242487 0 0,0 -0.2265404710415921,0.4879480206371711 l -9.261216843932333 -4.397006394822749" fill="#ff7a0b" stroke="none" /><path d="M 118.97047184881838 109.00673069616215 l 24.939029442200034 11.840460469281672 a48.60709498740391,48.60709498740391 0 0,0 -0.36535579281814057,0.7527411480166025 l -24.73152039276718 -12.26799057326355" fill="#acff21" stroke="none" /><path d="M 118.81262510543309 109.33194174019688 l 20.85311016002649 10.344117741392415 a44.27773561139462,44.27773561139462 0 0,0 -0.3445679263079045,0.6798652077731344 l -20.671963563932316 -10.701537160868243" fill="#deff1b" stroke="none" /><path d="M 118.64920377521936 109.65438752849418 l 20.227899049906068 10.471652230780316 a43.777695239325624,43.777695239325624 0 0,0 -0.3521967526847192,0.6662235272677947 l -20.044649788996455 -10.818290773134246" fill="#e4ff1a" stroke="none" /><line stroke="#e1ed5e" stroke-width="0.3" x1="174.80103733775053" x2="179.2010983576182" y1="140.37084112569926" y2="142.7455964860345" /><path d="M 175.68104954172406 140.8457921977663 a86.0,86.0 0 0,1 -30.038265399797805,32.042727171017184" fill="none" id="id53" stroke="none" /><text fill="#e1ed5e" style="font-size:6.75px; font-family:Arial;" text-anchor="middle"><textPath startOffset="22.206326154141568" xlink:href="#id53">May</textPath></text><path d="M 118.48025628344425 109.97397251340804 l 16.422849029099176 8.863569979536933 a39.66206963374459,39.66206963374459 0 0,0 -0.32942859971914207,0.5980085974953671 l -16.267844019928525 -9.144949095430105" fill="#ffe815" stroke="none" /><path d="M 118.30583269289576 110.29060199501025 l 8.039619952134764 4.519462758482956 a30.22285382081261,30.22285382081261 0 0,0 -0.2588342823929322,0.451299388558668 l -7.960633673589452 -4.65718199289994" fill="#ff6c09" stroke="none" /><path d="M 118.12598468904814 110.60418214915192 l 29.319637884802447 17.152766374423532 a54.968493637361924,54.968493637361924 0 0,0 -0.48481982169998783,0.8125859079532212 l -29.02003718740423 -17.65491437626286" fill="#66ff29" stroke="none" /><path d="M 117.94076556474637 110.91462005526583 l 31.207151056796878 18.985488415362425 a57.52855112718816,57.52855112718816 0 0,0 -0.5219630103999436,0.8415705694053635 l -30.87572340672897 -19.51985531613306" fill="#4cff2c" stroke="none" /><path d="M 117.75023020441432 111.22182372390056 l 16.257165938907526 10.277897712630816 a40.23358067954266,40.23358067954266 0 0,0 -0.3751209250467392,0.5821960060157413 l -16.077840150483738 -10.55621531856801" fill="#ffef16" stroke="none" /><path d="M 117.55443506779139 111.5257021239791 l 21.71037471481981 14.254364267300986 a46.97166284477747,46.97166284477747 0 0,0 -0.4495789697854708,0.6720595601536327 l -21.46179263962362 -14.625960741660426" fill="#beff1e" stroke="none" /><path d="M 117.35343817320211 111.8261652097733 l 7.008814467271622 4.776425108806481 a29.481610522576062,29.481610522576062 0 0,0 -0.28939583088204995,0.41689627854657474 l -6.925557729227436 -4.896362649540075" fill="#ff6109" stroke="none" /><path d="M 117.14729908036423 112.12312394758627 l 21.299823093818507 15.058954428789097 a47.08552419094374,47.08552419094374 0 0,0 -0.4735911521768911,0.6577766889209861 l -21.037452149266013 -15.423364723161214" fill="#bdff1f" stroke="none" /><path d="M 116.93607887273984 112.41649034213515 l 12.489688098991893 9.156670373508081 a36.48666914282023,36.48666914282023 0 0,0 -0.3757062437123199,0.5033199104895202 l -12.330220588584481 -9.370303163506916" fill="#ffbf11" stroke="none" /><path d="M 116.71984013943494 112.70617746262583 l 41.601821088492116 31.615142077348533 a73.25159065951811,73.25159065951811 0 0,0 -0.7715596419913343,0.9973448445602069 l -41.05145462928271 -32.326564916021994" fill="#3fffc2" stroke="none" /><path d="M 116.498646956653 112.99209946851258 l 6.668838145549779 5.251473575622855 a29.488308248821134,29.488308248821134 0 0,0 -0.31746563327921695,0.3960871900884443 l -6.577454600215709 -5.36548859928955" fill="#ff6109" stroke="none" /><path d="M 116.27256486870786 113.27417163493432 l 26.060897351320115 21.258899699767987 a54.63199647955558,54.63199647955558 0 0,0 -0.6007022152824399,0.7235845153423098 l -25.691099136144132 -21.704345472224066" fill="#6aff28" stroke="none" /><path d="M 116.0416608686014 113.55231037782055 l 23.26777834621888 19.657076441972112 a51.45964811704671,51.45964811704671 0 0,0 -0.5774691206492394,0.6717270484748504 l -22.92596671599886 -20.05468058960849" fill="#8cff24" stroke="none" /><path d="M 115.80600337817218 113.82643327865902 l 11.48183983528711 10.043835155576494 a36.254876945933724,36.254876945933724 0 0,0 -0.41493042052588813,0.4661787261080225 l -11.307250565112883 -10.239988051425383" fill="#ffbc11" stroke="none" /><path d="M 115.56566222782051 114.09645910891815 l 18.929080990163907 17.142413361015556 a46.537667140365606,46.537667140365606 0 0,0 -0.5428366061681911,0.5891419244637786 l -18.631197975999996 -17.465706540280667" fill="#c3ff1e" stroke="none" /><path d="M 115.32070863581623 114.36230785411682 l 6.193946461754076 5.806478540272182 a29.49000387571862,29.49000387571862 0 0,0 -0.35036013175241626,0.36735119742106065 l -6.093079778622696 -5.91223685427575" fill="#ff6109" stroke="none" /><path d="M 115.07121518719521 114.62390073753431 l 18.26414962361426 17.72206871401698 a46.44898585362702,46.44898585362702 0 0,0 -0.5617216863900661,0.5690211026572944 l -17.956387312168655 -18.03383031065494" fill="#c4ff1e" stroke="none" /><path d="M 114.81725581225074 114.88116024355365 l 6.192839572328361 6.219548289248306 a29.776903946773466,29.776903946773466 0 0,0 -0.3663268834643012,0.35852795705838714 l -6.084862736488265 -6.325226349229266" fill="#ff6509" stroke="none" /><path d="M 114.55890576462653 115.13401014063108 l 15.543190678127097 16.15717617405515 a43.41974840126607,43.41974840126607 0 0,0 -0.5430862849895055,0.5135219801943401 l -15.262768558746783 -16.42233279099541" fill="#e8ff1a" stroke="none" /><path d="M 114.29624159901734 115.38237550388516 l 13.059541899619107 14.051719538824168 a40.183390123377045,40.183390123377045 0 0,0 -0.510712615613243,0.46652386548345637 l -12.815729734539001 -14.274436170894207" fill="#ffee16" stroke="none" /><path d="M 114.0293411484842 115.62618273729858 l 5.665634467584762 6.310505858843004 a29.480677927782445,29.480677927782445 0 0,0 -0.38052205684873347,0.33576647262809695 l -5.556170057829441 -6.40709547324339" fill="#ff6109" stroke="none" /><path d="M 113.75828350139079 115.86535959552629 l 12.374323357825078 14.269446461353217 a39.887588011110395,39.887588011110395 0 0,0 -0.5225929770441877,0.44536507244957074 l -12.126864904203844 -14.480335924025734" fill="#ffeb16" stroke="none" /><path d="M 113.48314897796784 116.09983520530334 l 9.27467287446343 11.074616553295968 a35.44529988372844,35.44529988372844 0 0,0 -0.4711353333447616,0.3877123046125481 l -9.082667412573977 -11.232623976765694" fill="#ffb210" stroke="none" /><path d="M 113.20401910651253 116.32954008644616 l 16.00420126385862 19.79255285694278 a46.45347926490537,46.45347926490537 0 0,0 -0.6261099639591122,0.4974196220544432 l -15.661133807182154 -20.06510639300235" fill="#c4ff1e" stroke="none" /><path d="M 112.92097659922987 116.55440617244103 l 5.551884323751841 7.113096089290498 a30.02327853497836,30.02327853497836 0 0,0 -0.41013409943443996,0.31447333843114245 l -5.428621495823907 -7.207608769549012" fill="#ff6909" stroke="none" /><path d="M 112.63410532772338 116.77436683061366 l 12.283231633560328 16.308510016503657 a41.41678912860926,41.41678912860926 0 0,0 -0.5731591141799459,0.4240094103711372 l -12.00068754896182 -16.517529375614565" fill="#fffd18" stroke="none" /><path d="M 112.34349029814194 116.9893568818739 l 15.135346849976058 20.832017764367368 a46.749790065241264,46.749790065241264 0 0,0 -0.6551040783334388,0.467399365798834 l -14.774515443793733 -21.08946139201042" fill="#c1ff1e" stroke="none" /><path d="M 112.04921762599082 117.19931262002967 l 4.871328778287581 6.953439562083244 a29.49000387571862,29.49000387571862 0 0,0 -0.41825688699177527,0.2876809007428586 l -4.750915006672923 -7.036261252191197" fill="#ff6109" stroke="none" /><path d="M 111.7513745106137 117.40417183066458 l 18.872718091217184 27.951115699237654 a54.72601899102125,54.72601899102125 0 0,0 -0.7852540075824724,0.5204235376333826 l -18.38878938489475 -28.271837257962353" fill="#69ff28" stroke="none" /><path d="M 111.45004920935366 117.60387380957326 l 16.569001874298596 25.474005640732088 a51.388431787352246,51.388431787352246 0 0,0 -0.7456662061845816,0.47591945276247327 l -16.128053866067084 -25.75543952231837" fill="#8dff24" stroke="none" /><path d="M 111.1453310114006 117.79835938074945 l 20.7149018489621 33.08033357355139 a60.03095730249983,60.03095730249983 0 0,0 -0.8805134998640672,0.5408833080460077 l -20.142409149165722 -33.432005348425776" fill="#33ff2f" stroke="none" /><line stroke="#e1ed5e" stroke-width="0.3" x1="143.8653032363475" x2="146.44561519142675" y1="172.8068346515853" y2="177.08958963109032" /><path d="M 144.38136562736335 173.6633856474863 a86.0,86.0 0 0,1 -40.68145358897372,12.25698825130547" fill="none" id="id54" stroke="none" /><text fill="#e1ed5e" style="font-size:6.75px; font-family:Arial;" text-anchor="middle"><textPath startOffset="21.466115282336833" xlink:href="#id54">June</textPath></text><path d="M 110.8373102113329 117.98757091392108 l 13.692420972712746 22.726431967627367 a47.53249144112137,47.53249144112137 0 0,0 -0.7044589765021624,0.4162067804108824 l -13.299194125182202 -22.958757320331998" fill="#b8ff1f" stroke="none" /><path d="M 110.5260780823613 118.17145234162733 l 18.699537597133265 32.281515831255305 a58.30641996641044,58.30641996641044 0 0,0 -0.872795000611978,0.49559577989776804 l -18.141093829600088 -32.5986147769477" fill="#44ff2d" stroke="none" /><path d="M 110.21172684928248 118.3499491758327 l 17.93359907299345 32.22575734605675 a57.87971545765778,57.87971545765778 0 0,0 -0.8747476829425779,0.4769821825443901 l -17.376228578182225 -32.52968018036091" fill="#48ff2c" stroke="none" /><path d="M 109.89434966115114 118.52300852407294 l 12.513538557750275 23.426338193970455 a47.55902800206705,47.55902800206705 0 0,0 -0.72540901600282,0.3794997122252791 l -12.108438639220958 -23.63826732514045" fill="#b8ff1f" stroke="none" /><path d="M 109.57404056367764 118.69057910512821 l 16.227893620952884 31.68032633815337 a56.59476939474194,56.59476939474194 0 0,0 -0.8708751702621981,0.43667488944143745 l -15.680164543007924 -31.95496906850411" fill="#55ff2b" stroke="none" /><path d="M 109.2508944713604 118.85261126421891 l 3.740006186462558 7.6218448905064315 a29.49000387571862,29.49000387571862 0 0,0 -0.4576389849390827,0.21969452344607512 l -3.6082545335232425 -7.685093690452066" fill="#ff6109" stroke="none" /><path d="M 108.92500713936063 119.00905698771935 l 9.73767513166224 20.739929796731293 a43.91215845229637,43.91215845229637 0 0,0 -0.6869785441195989,0.3153581554354835 l -9.379228591775222 -20.90447502250085" fill="#e2ff1b" stroke="none" /><path d="M 108.59647513512805 119.15986991738527 l 3.478904251765211 7.753800467180335 a29.49848201020606,29.49848201020606 0 0,0 -0.4650636915504481,0.20387025541365492 l -3.344919885557009 -7.812535275888444" fill="#ff6209" stroke="none" /><path d="M 108.2653958097858 119.30500536409082 l 13.720711876928679 32.046670538106646 a55.86039338544022,55.86039338544022 0 0,0 -0.8871921656068359,0.3708463971770725 l -13.167048251824381 -32.27810197830369" fill="#5dff2a" stroke="none" /><path d="M 107.93186726928326 119.44442032107085 l 14.940715425743464 36.62612355613891 a60.55626251534139,60.55626251534139 0 0,0 -0.9685510615513874,0.3854064560071362 l -14.30804328815021 -36.87787685655211" fill="#30ff31" stroke="none" /><path d="M 107.59598834532513 119.57807347666477 l 10.730051135663034 27.65587833894833 a50.66448388347006,50.66448388347006 0 0,0 -0.8157700357529689,0.3084544248545736 l -10.25241087914979 -27.836481013909538" fill="#95ff23" stroke="none" /><path d="M 107.2578585660854 119.70592522655815 l 15.655632479194658 42.506852427668925 a66.2982486596473,66.2982486596473 0 0,0 -1.074285580161137,0.3852005877956064 l -14.921627338403786 -42.77004055650449" fill="#37ff76" stroke="none" /><path d="M 106.91757812671514 119.82793768551818 l 2.7969585677222115 8.016956104275588 a29.490851689167364,29.490851689167364 0 0,0 -0.4807433873648236,0.16309425852430193 l -2.658545447420161 -8.063913349698012" fill="#ff6109" stroke="none" /><path d="M 106.57524785965236 119.94407469862006 l 6.906643579728184 20.9492658544626 a43.058410309411535,43.058410309411535 0 0,0 -0.7059091230403137,0.22600980932213222 l -6.54501311159693 -21.065048510444438" fill="#edff1a" stroke="none" /><path d="M 106.2309692047433 120.05430185196036 l 5.211911317316171 16.774475903931666 a38.56550771913959,38.56550771913959 0 0,0 -0.635642254524385,0.19151379703527444 l -4.922394088351541 -16.861705070072667" fill="#ffda14" stroke="none" /><path d="M 105.88484417918355 120.15858648285463 l 10.187882271042877 34.89868203552881 a57.35534283960985,57.35534283960985 0 0,0 -0.950101719836902,0.26850823633547505 l -9.58564938310137 -35.0688790652028" fill="#4eff2c" stroke="none" /><path d="M 105.53697534728816 120.25689768951611 l 11.22298424635095 41.05903122012778 a63.565237226277375,63.565237226277375 0 0,0 -1.0579360912161107,0.279410537121679 l -10.514557712323343 -41.24613310655304" fill="#33ff56" stroke="none" /><path d="M 105.18746579009965 120.34920634021253 l 2.105763961722999 8.26041599014796 a29.52459466442736,29.52459466442736 0 0,0 -0.49354818934454003,0.1213021369730999 l -1.963262487635248 -8.29543938543509" fill="#ff6209" stroke="none" /><path d="M 104.83641907484287 120.43548508189849 l 10.816961640212394 45.705273841930364 a67.96784768425812,67.96784768425812 0 0,0 -1.1408236570398098,0.2596477501393145 l -10.028617833779723 -45.88469832564736" fill="#39ff89" stroke="none" /><path d="M 104.48393922423573 120.51570834832081 l 1.8125399633656838 8.2930520237871 a29.48881693689038,29.48881693689038 0 0,0 -0.4968283440294186,0.10411521006287139 l -1.6695201579068872 -8.323023214576512" fill="#ff6109" stroke="none" /><path d="M 104.13013068566511 120.58985236759428 l 6.556192287398285 32.68444549699576 a54.33551611652994,54.33551611652994 0 0,0 -0.9186127571585345,0.1760543212262219 l -5.9926119156680455 -32.79245701657045" fill="#6dff28" stroke="none" /><path d="M 103.7750983002368 120.6578951692458 l 2.5476609709788813 13.941176912389087 a35.17204960919837,35.17204960919837 0 0,0 -0.5965029354167658,0.10370968133958343 l -2.3073090640900658 -13.982965172249678" fill="#ffae10" stroke="none" /><path d="M 103.41894727170886 120.7198165907248 l 3.9821509791871263 24.132995149729965 a45.4593332149086,45.4593332149086 0 0,0 -0.7731639756493086,0.12075231207616846 l -3.5661511399293007 -24.19796576915324" fill="#d0ff1d" stroke="none" /><path d="M 103.06178313531738 120.77559828337769 l 5.057029982275419 34.314260277568664 a55.684896001550285,55.684896001550285 0 0,0 -0.9494842457566639,0.1315898647417224 l -4.465617145331924 -34.396224707802986" fill="#5fff29" stroke="none" /><path d="M 102.70371172650421 120.8252237178851 l 2.2071900264556663 17.000786599485288 a38.14346618435501,38.14346618435501 0 0,0 -0.651840190634858,0.07892876931540968 l -1.9142224127694283 -17.03626089752605" fill="#ffd513" stroke="none" /><path d="M 102.34483914955558 120.86867818915974 l 2.613898877240609 23.263264987058363 a44.40965538401912,44.40965538401912 0 0,0 -0.760393546289132,0.07881790013450102 l -2.2130727343458743 -23.30481225564862" fill="#dcff1b" stroke="none" /><path d="M 101.98527174616119 120.90594882070398 l 0.8026173723458659 8.451980310159616 a29.49000387571862,29.49000387571862 0 0,0 -0.5057615459840009,0.04363923432109858 l -0.6570115086203233 -8.464543796759378" fill="#ff6109" stroke="none" /><path d="M 101.62511606390274 120.93702456842531 l 2.4548571709597176 31.62691332761015 a52.72204234222596,52.72204234222596 0 0,0 -0.9054062760188908,0.06244211778731763 l -1.9100881341618965 -31.664483789913753" fill="#7eff26" stroke="none" /><path d="M 101.26447882468166 120.96189622390904 l 0.5621074356699256 9.318335351457527 a30.335273884116013,30.335273884116013 0 0,0 -0.5214950390528976,0.026955336790435006 l -0.40162432820354843 -9.326630495010164" fill="#ff6d0a" stroke="none" /><path d="M 100.90346689309514 120.98055641714683 l 1.2047015529202851 27.97591045121644 a49.001836929138946,49.001836929138946 0 0,0 -0.8430174482407312,0.02903522544766464 l -0.7229637530049017 -27.992502475090195" fill="#a7ff21" stroke="none" /><line stroke="#e1ed5e" stroke-width="0.3" x1="102.19456741930631" x2="102.32365962044197" y1="184.97166512339345" y2="189.96999836594603" /><path d="M 102.22038585953345 185.97133177190398 a86.0,86.0 0 0,1 -42.740103519485714,-10.115201625700543" fill="none" id="id55" stroke="none" /><text fill="#e1ed5e" style="font-size:6.75px; font-family:Arial;" text-anchor="middle"><textPath startOffset="22.20632615414155" xlink:href="#id55">July</textPath></text><path d="M 100.54218724476979 120.99299961872073 l 0.6844803138282586 26.502458524857936 a47.51129610490278,47.51129610490278 0 0,0 -0.8177379808455876,0.014078100929015748 l -0.22818264309000305 -26.51031410306611" fill="#b8ff1f" stroke="none" /><path d="M 100.18074693466247 120.99922214144158 l 0.07309532832641172 8.492232744607106 a29.49254731606485,29.49254731606485 0 0,0 -0.5076845259777285,0.0 l 0.07309532832640588 -8.492232744607106" fill="#ff6109" stroke="none" /><path d="M 99.81925306533755 120.99922214144158 l -0.11680512334239584 13.570447194062693 a34.570949874039144,34.570949874039144 0 0,0 -0.5950159449132257,-0.010243739098678145 l 0.3503807581482895 -13.566425977684856" fill="#ffa60f" stroke="none" /><line stroke="#e1ed5e" stroke-width="0.3" x1="58.666819895761336" x2="56.23545636021788" y1="174.27360380694188" y2="178.64263932499728" /><path d="M 58.180547188652646 175.14741091055294 a86.0,86.0 0 0,1 -31.652253787137756,-30.449443065178592" fill="none" id="id56" stroke="none" /><text fill="#e1ed5e" style="font-size:6.75px; font-family:Arial;" text-anchor="middle"><textPath startOffset="22.20632615414155" xlink:href="#id56">August</textPath></text><line stroke="#e1ed5e" stroke-width="0.3" x1="26.63291911575756" x2="22.317208475507996" y1="142.92168965132927" y2="145.44649492493687" /><path d="M 25.769776987707644 143.4266507060508 a86.0,86.0 0 0,1 -11.730757126820373,-40.83630448921669" fill="none" id="id57" stroke="none" /><text fill="#e1ed5e" style="font-size:6.75px; font-family:Arial;" text-anchor="middle"><textPath startOffset="21.46611528233685" xlink:href="#id57">September</textPath></text><line stroke="#e1ed5e" stroke-width="0.3" x1="15.007084014347285" x2="10.007500721073583" y1="101.09737516637583" y2="101.16192664675087" /><path d="M 14.007167355692545 101.11028546245083 a86.0,86.0 0 0,1 10.666146001902534,-42.60595125391555" fill="none" id="id58" stroke="none" /><text fill="#e1ed5e" style="font-size:6.75px; font-family:Arial;" text-anchor="middle"><textPath startOffset="22.20632615414155" xlink:href="#id58">October</textPath></text><line stroke="#e1ed5e" stroke-width="0.3" x1="26.266209847984243" x2="21.928928074336255" y1="57.711370442889674" y2="55.22380399835377" /><path d="M 25.398753493254645 57.213857153982495 a86.0,86.0 0 0,1 29.58750427330803,-30.492523968695096" fill="none" id="id59" stroke="none" /><text fill="#e1ed5e" style="font-size:6.75px; font-family:Arial;" text-anchor="middle"><textPath startOffset="21.46611528233685" xlink:href="#id59">November</textPath></text><line stroke="#e1ed5e" stroke-width="0.3" x1="56.762969772571076" x2="54.21961505331055" y1="26.818313649435495" y2="22.513508569990535" /><path d="M 56.25429882871897 25.957352633546506 a86.0,86.0 0 0,1 42.265352541879196,-11.944610805530505" fill="none" id="id60" stroke="none" /><text fill="#e1ed5e" style="font-size:6.75px; font-family:Arial;" text-anchor="middle"><textPath startOffset="22.20632615414155" xlink:href="#id60">December</textPath></text></svg>