<?xml version="1.0" encoding="utf-8" ?>
<svg baseProfile="full" height="200mm" version="1.1" viewBox="0,0,200,200" width="200mm" xmlns="http://www.w3.org/2000/svg" xmlns:ev="http://www.w3.org/2001/xml-events" xmlns:xlink="http://www.w3.org/1999/xlink"><defs /><rect fill="#1a1a1a" height="200" width="200" x="0" y="0" /><text alignment-baseline="middle" fill="#e1ed5e" style="dominant-baseline: central; font-size:9.0px; font-family:Arial;" text-anchor="middle" x="100.0" y="100.0">2024</text><line stroke="#e1ed5e" stroke-width="0.3" x1="100.0" x2="100.0" y1="15.0" y2="10.0" /><path d="M 100.0 14.0 a86.0,86.0 0 0,1 42.35913384403234,11.155469271406648" fill="none" id="id25" stroke="none" /><text fill="#e1ed5e" style="font-size:6.75px; font-family:Arial;" text-anchor="middle"><textPath startOffset="22.145653131862478" xlink:href="#id25">January</textPath></text><path d="M 100.0 79.0 l 0.0 -23.86737439611653 a44.86737439611653,44.86737439611653 0 0,0 0.7702081441116508,0.0066113105866846735 l -0.4097152192627961 23.86385748372428" fill="#d6ff1c" stroke="none" /><path d="M 100.36049292484886 79.00309439819443 l 0.357126694045671 -20.800839533552008 a41.80390503670357,41.80390503670357 0 0,0 0.717408133099002,0.018477888686788367 l -0.7141481412154144 20.791643927515175" fill="#faff18" stroke="none" /><path d="M 100.72087961077811 79.0123766808444 l 0.7140968141411405 -20.79014959575044 a41.8024098237115,41.8024098237115 0 0,0 0.7169595792051152,0.030789329218268137 l -1.0708821539470919 20.77482769810634" fill="#faff18" stroke="none" /><path d="M 101.08105385017728 79.02784411241856 l 0.8423386880687804 -16.341145515944824 a37.362841172568444,37.362841172568444 0 0,0 0.6402490198250728,0.03851579115410867 l -1.1227320600263155 16.324277746966025" fill="#ffcc13" stroke="none" /><path d="M 101.44090949804482 79.04949213459386 l 2.4786554181785396 -36.03910579022773 a57.12424225975255,57.12424225975255 0 0,0 0.9777249437202832,0.07568209420865897 l -3.096949356674056 35.99124592902402" fill="#4fff2b" stroke="none" /><path d="M 101.80034050326958 79.07731436759882 l 1.6610867841939192 -19.304346333767683 a40.37568054749751,40.37568054749751 0 0,0 0.6900404465297189,0.06534754771871161 l -1.992226794108651 19.272987030543785" fill="#fff216" stroke="none" /><path d="M 102.15924093988457 79.11130261209362 l 3.966843589652929 -38.37561329948016 a59.58009258900254,59.58009258900254 0 0,0 1.0164480073304787,0.1138951193290366 l -4.625027498584204 38.301862419644145" fill="#37ff2e" stroke="none" /><path d="M 102.51750503828377 79.15144685158666 l 2.8599998884404174 -23.68490182615681 a44.85695231743915,44.85695231743915 0 0,0 0.7636835855177021,0.09887412962329332 l -3.2661612958489115 23.632316100333117" fill="#d6ff1c" stroke="none" /><path d="M 102.87502721639298 79.19773525538626 l 2.6448997036574986 -19.137176700352036 a40.319084515134364,40.319084515134364 0 0,0 0.6848002481633568,0.10064205408833302 l -2.9730250574285377 19.088953572964822" fill="#fff116" stroke="none" /><path d="M 103.23170211078529 79.25015418208739 l 5.480340746064926 -35.18771892092449 a56.611931954767165,56.611931954767165 0 0,0 0.9589589424733068,0.15779632905730767 l -6.083577191591304 35.08845659337151" fill="#54ff2b" stroke="none" /><path d="M 103.58742460773223 79.30868818359171 l 4.081326566324684 -23.540007064231627 a44.89119417536642,44.89119417536642 0 0,0 0.7581593973056057,0.13816189780740765 l -4.484820697181344 23.46647699249285" fill="#d5ff1c" stroke="none" /><path d="M 103.94208987418118 79.37332000966035 l 5.298365299714053 -27.723286124170972 a49.22504682674352,49.22504682674352 0 0,0 0.8286298596741453,0.16574917906752595 l -5.773491644919155 27.628247548440587" fill="#a4ff21" stroke="none" /><path d="M 104.29559338865022 79.4440306129975 l 3.971862919499013 -19.00680190036497 a40.41736886220707,40.41736886220707 0 0,0 0.6779293492684226,0.1477515463630131 l -4.29755468538657 18.935818895868238" fill="#fff316" stroke="none" /><path d="M 104.64783097203109 79.52079915486377 l 12.800049964037784 -56.399381909268705 a78.83365420608843,78.83365420608843 0 0,0 1.3171521173383287,0.3108443132725677 l -13.766334235115998 56.17134145234991" fill="#47fffb" stroke="none" /><path d="M 104.9986988182912 79.60360301121754 l 5.669174197370913 -23.132165335711825 a44.8167296075436,44.8167296075436 0 0,0 0.7456537190392609,0.1895422595235943 l -6.065433209635568 23.031437844352965" fill="#d6ff1c" stroke="none" /><path d="M 105.3480935250658 79.69241777938227 l 5.303462205993463 -20.138109832480122 a41.82474919405834,41.82474919405834 0 0,0 0.6927345557588195,0.1888078836258059 l -5.648378162686975 20.044101454710173" fill="#faff18" stroke="none" /><path d="M 105.69591212413111 79.78721728523813 l 9.65754939158248 -34.27123578366569 a56.60598071097695,56.60598071097695 0 0,0 0.9330282601154618,0.2715909284200514 l -10.244437664079546 34.10040116094312" fill="#55ff2b" stroke="none" /><path d="M 106.04205211174951 79.88797359093562 l 4.716003448848975 -15.69804168422266 a37.39113178670551,37.39113178670551 0 0,0 0.6131422132515896,0.18995302498938565 l -4.984786294972194 15.614772071426628" fill="#ffcc13" stroke="none" /><path d="M 106.38641147887787 79.99465700312896 l 4.5155684438208725 -14.144953835695553 a35.848234823870115,35.848234823870115 0 0,0 0.5846288248876145,0.19217910694453627 l -4.757720006356229 14.065353807348995" fill="#ffb911" stroke="none" /><path d="M 106.72888874123014 80.10723608172694 l 10.031294270566763 -29.655739066749554 a52.306384721616155,52.306384721616155 0 0,0 0.8480962896620449,0.2950119139570738 l -10.538896332273826 29.479168720223893" fill="#82ff25" stroke="none" /><path d="M 107.06938296918511 80.22567764915836 l 14.507089478989172 -40.57891119783293 a64.09412580796841,64.09412580796841 0 0,0 1.0328641661267548,0.379282028461162 l -15.201542796770052 40.32389832036304" fill="#34ff5d" stroke="none" /><path d="M 107.40779381753099 80.34994680014964 l 8.394575683340141 -22.267609335647382 a44.797380663180896,44.797380663180896 0 0,0 0.7172439022189326,0.2774453495321995 l -8.775591848052601 22.120224097977143" fill="#d7ff1c" stroke="none" /><path d="M 107.74402155503746 80.48000691201159 l 10.39462111471859 -26.20123547817056 a49.18781454283211,49.18781454283211 0 0,0 0.7821929157319426,0.3181110493300451 l -10.84286849164097 26.01893717226122" fill="#a4ff21" stroke="none" /><path d="M 108.07796709384702 80.6158196554323 l 13.697522738246484 -32.869068163725146 a56.60895633287206,56.60895633287206 0 0,0 0.8937878262471017,0.3815048751154932 l -14.259745639664015 32.62908863895025" fill="#54ff2b" stroke="none" /><path d="M 108.4095320186766 80.7573450057729 l 9.553603804099266 -21.860515132772882 a44.85693751335012,44.85693751335012 0 0,0 0.7029436630755217,0.3144177594112505 l -9.927460870030421 21.69329362245178" fill="#d6ff1c" stroke="none" /><path d="M 108.73861861582097 80.90454125486305 l 11.7339826416213 -25.64086971864974 a49.198236621509494,49.198236621509494 0 0,0 0.7649418816449088,0.3580314247896982 l -12.172413237137715 25.43566206228951" fill="#a4ff21" stroke="none" /><path d="M 109.06512990194946 81.05736502329252 l 7.055680961866691 -14.743659541382076 a37.34497263710878,37.34497263710878 0 0,0 0.5758946014341063,0.28169890800791864 l -7.307735812562864 14.620366883276937" fill="#ffcc13" stroke="none" /><path d="M 109.3889696526874 81.21577127319529 l 21.21673484053753 -42.44768220829746 a68.45477386049049,68.45477386049049 0 0,0 1.0466173538264933,0.5344102783077027 l -21.9422794160776 42.07721397831692" fill="#3aff8e" stroke="none" /><path d="M 109.71004243097381 81.37971332152246 l 11.023470946277339 -21.138959038613258 a44.84056419088252,44.84056419088252 0 0,0 0.6794651919990247,0.36177694371034097 l -11.384724954062923 20.946611627180346" fill="#d6ff1c" stroke="none" /><path d="M 110.02825361518725 81.54914285379988 l 9.935325250925144 -18.279879422697636 a41.80540024969564,41.80540024969564 0 0,0 0.6275902569131889,0.34811373622927166 l -10.247659695994434 18.10663277103522" fill="#faff18" stroke="none" /><path d="M 110.34350942703115 81.72400993836675 l 16.081565060011947 -28.414584555238868 a53.64973736841104,53.64973736841104 0 0,0 0.7976120049394966,0.46050150576069554 l -16.56696953281184 28.134336152202" fill="#73ff27" stroke="none" /><line stroke="#e1ed5e" stroke-width="0.3" x1="143.13028292997686" x2="145.6673583964461" y1="26.7553504044142" y2="22.446841604673864" /><path d="M 143.63769802327073 25.89364864446614 a86.0,86.0 0 0,1 29.32050498858742,28.57503671076993" fill="none" id="id26" stroke="none" /><text fill="#e1ed5e" style="font-size:6.75px; font-family:Arial;" text-anchor="middle"><textPath startOffset="20.669276256404974" xlink:href="#id26">February</textPath></text><path d="M 110.65571695917076 81.90426304109057 l 8.298974135568303 -14.09347241123827 a37.35539471578616,37.35539471578616 0 0,0 0.5497775653579532,0.33012563160496894 l -8.53968445748369 13.94893277909738" fill="#ffcc13" stroke="none" /><path d="M 110.96478420261332 82.08984904055464 l 7.769852992960937 -12.69147093688007 a35.88099627289435,35.88099627289435 0 0,0 0.5225569407149391,0.3261141791503553 l -7.986574062465589 12.556220960888169" fill="#ffb911" stroke="none" /><path d="M 111.27062007382361 82.28071324371311 l 16.798021042714403 -26.409279156281528 a52.29893826483387,52.29893826483387 0 0,0 0.7533895353721917,0.48833799463411687 l -17.248896210343602 26.117027319943514" fill="#82ff25" stroke="none" /><path d="M 111.5731344415666 82.4767994020092 l 23.711493763668944 -35.90222370583074 a64.02562728802482,64.02562728802482 0 0,0 0.911919179941246,0.613579921924401 l -24.324309231707193 35.48989410984922" fill="#34ff5c" stroke="none" /><path d="M 111.8722381534696 82.67804972795209 l 13.481500493848724 -19.66991212004876 a44.846515434672725,44.846515434672725 0 0,0 0.6312785764876648,0.440681473953339 l -13.81717416151015 19.435585830290293" fill="#d6ff1c" stroke="none" /><path d="M 112.16784306229584 82.88440491214696 l 11.210277344778115 -15.768658986924194 a40.34737512927143,40.34737512927143 0 0,0 0.5610571294910638,0.40616209425948424 l -11.479315484643147 15.573896121291636" fill="#fff216" stroke="none" /><path d="M 112.45986205192187 83.09580414077388 l 16.75462492243836 -22.730866526173404 a49.238444527316005,49.238444527316005 0 0,0 0.6760837290540288,0.5073458344203562 l -17.142361640403156 22.439901664489035" fill="#a3ff21" stroke="none" /><path d="M 112.7482090630111 83.31218511350987 l 27.04481299781699 -35.40252836430275 a65.55065571540055,65.55065571540055 0 0,0 0.8883364161544325,0.6907757702564638 l -27.64855935860665 34.9330515424255" fill="#36ff6d" stroke="none" /><path d="M 113.03279911837588 83.53348406188908 l 11.996075071165267 -15.156648971562925 a40.32950659381176,40.32950659381176 0 0,0 0.5391656146745301,0.434313653650501 l -12.254491456195057 14.948487024119014" fill="#fff116" stroke="none" /><path d="M 113.31354834802062 83.75963576809568 l 9.448394268241456 -11.52550471983615 a35.90333564324119,35.90333564324119 0 0,0 0.47328403786901396,0.3948303773204395 l -9.644852640272363 11.361612158603839" fill="#ffb911" stroke="none" /><path d="M 113.59037401385872 83.9905735841838 l 33.57724215153658 -39.55390682573562 a72.8839352370452,72.8839352370452 0 0,0 0.9468682442047939,0.8178822375081451 l -34.251289875504234 38.97168045576276" fill="#3fffbf" stroke="none" /><path d="M 113.86319453409587 84.22622945171908 l 9.804058070306658 -11.155218377892062 a35.85121044576522,35.85121044576522 0 0,0 0.4587844798805825,0.41024791091470447 l -9.994107577010617 10.98527493709397" fill="#ffb911" stroke="none" /><path d="M 114.13192950727249 84.46653392183569 l 13.991947863280739 -15.37960173024263 a41.791987745034106,41.791987745034106 0 0,0 0.52651979785465,0.4873388644101009 l -14.253897432449353 15.137145119700154" fill="#fbff18" stroke="none" /><path d="M 114.39649973595853 84.71141617570332 l 23.374314916724583 -24.822712429693166 a55.09583039307676,55.09583039307676 0 0,0 0.6829981221626694,0.6542967509892611 l -23.796985524752564 24.41780354839832" fill="#64ff29" stroke="none" /><path d="M 114.65682725009322 84.96080404539774 l 11.44217143844441 -11.74067589613054 a37.39410740860062,37.39410740860062 0 0,0 0.455866363625228,0.4519700933314009 l -11.642029722199599 11.54252579257048" fill="#ffcc13" stroke="none" /><path d="M 114.91283532996326 85.21462403516908 l 10.549539459656515 -10.459372997530789 a35.8556812806524,35.8556812806524 0 0,0 0.4296077459019956,0.4408153936721854 l -10.727534006709321 10.27673491179086" fill="#ffb911" stroke="none" /><path d="M 115.16444852881244 85.47280134310134 l 19.283744189773305 -18.47339071786149 a47.704474430165945,47.704474430165945 0 0,0 0.5614229790520603,0.5962117482407872 l -19.598023002561625 18.13963750967621" fill="#b5ff20" stroke="none" /><path d="M 115.41159269507618 85.73525988315684 l 10.91984808767468 -10.107248366085635 a35.87950105990228,35.87950105990228 0 0,0 0.4144975928465993,0.45560546382926803 l -11.091743381363157 9.918305326698695" fill="#ffb911" stroke="none" /><path d="M 115.6541949942343 86.00192230759917 l 11.063989027437925 -9.893487212276915 a35.842268775990874,35.842268775990874 0 0,0 0.40619349577658626,0.4621736342821815 l -11.232193587173102 9.702101300183434" fill="#ffb811" stroke="none" /><path d="M 115.8921839302757 86.27271002978787 l 12.371647648320018 -10.686334579493849 a37.347948259003886,37.347948259003886 0 0,0 0.4149275890800329,0.4887836566156995 l -12.553269800907161 10.472384140428597" fill="#ffcc13" stroke="none" /><path d="M 116.1254893667686 86.54754324733833 l 11.426826055499095 -9.532664704649088 a35.88099627289435,35.88099627289435 0 0,0 0.39051027747890255,0.47635904244132105 l -11.588783152216626 9.335103380509272" fill="#ffb911" stroke="none" /><path d="M 116.35404254752997 86.82634096563983 l 16.18045204228181 -13.033826811159374 a41.77709483146955,41.77709483146955 0 0,0 0.44509231162241647,0.5623595957162675 l -16.401810784545788 12.754147271528428" fill="#fbff18" stroke="none" /><path d="M 116.57777611688842 87.10902102172516 l 9.401856806732969 -7.310940719538059 a32.90986001676387,32.90986001676387 0 0,0 0.3429646566769207,0.4489517449034727 l -9.525973440764197 7.148468061393705" fill="#ff920d" stroke="none" /><path d="M 116.7966241395341 87.39550010848427 l 25.028163174531098 -18.781600242854843 a52.29149180805159,52.29149180805159 0 0,0 0.5326211662233883,0.7226029048388037 l -25.346886360338313 18.349191028747164" fill="#82ff25" stroke="none" /><path d="M 117.01052211995028 87.68569379921539 l 13.25671850444172 -9.596841868236544 a37.365816794463555,37.365816794463555 0 0,0 0.37167404568852674,0.5228060912768511 l -13.419507648660206 9.367858550250189" fill="#ffcc13" stroke="none" /><path d="M 117.21940702142032 87.97951657250589 l 12.220314400848148 -8.530728529236336 a35.90333564324119,35.90333564324119 0 0,0 0.34845087079317666,0.5084002340676848 l -12.364955008456649 8.319693560098601" fill="#ffb911" stroke="none" /><path d="M 117.42321728460499 88.27688183743584 l 13.563516889243077 -9.126139483608933 a37.347948259003886,37.347948259003886 0 0,0 0.35333926550082634,0.5350006828123852 l -13.718180593664629 8.891958922457489" fill="#ffcc13" stroke="none" /><path d="M 117.62189284568427 88.57770195909679 l 16.218864070141457 -10.512871739509135 a40.32801138081969,40.32801138081969 0 0,0 0.37155984448087503,0.5841537899737256 l -16.396941606248223 10.232904274856738" fill="#fff116" stroke="none" /><path d="M 117.81537515405839 88.88188828441811 l 12.620518174618592 -7.8761367504504545 a35.87652543800717,35.87652543800717 0 0,0 0.32157673387922037,0.5252714273619266 l -12.753862872953214 7.658328206963974" fill="#ffb911" stroke="none" /><line stroke="#e1ed5e" stroke-width="0.3" x1="172.87174338648825" x2="177.1583165268699" y1="56.24261187166439" y2="53.66864786411523" /><path d="M 173.72905801456457 55.72781907015455 a86.0,86.0 0 0,1 12.242430191666344,42.057860355516425" fill="none" id="id27" stroke="none" /><text fill="#e1ed5e" style="font-size:6.75px; font-family:Arial;" text-anchor="middle"><textPath startOffset="22.145653131862474" xlink:href="#id27">March</textPath></text><path d="M 118.00360718960297 89.18935116829356 l 11.617518646784868 -6.975986148971422 a34.551056130761,34.551056130761 0 0,0 0.30096650043325013,0.5111069152973646 l -11.735558857347884 6.775528065380501" fill="#ffa80f" stroke="none" /><path d="M 118.18653347947321 89.5 l 7.748892746579747 -4.473825313159357 a29.947650626318712,29.947650626318712 0 0,0 0.25322397843956646,0.44742250644973347 l -7.82455009004069 4.340146036610506" fill="#ff6a09" stroke="none" /><path d="M 118.36410011445183 89.81374322990088 l 54.50623972400795 -30.233692363961207 a83.32981888959463,83.32981888959463 0 0,0 0.6831245636930997,1.256872255272181 l -55.01720963731639 29.293565275214423" fill="#4cd8ff" stroke="none" /><path d="M 118.53625476483649 90.13048839642627 l 1.3566294003783923 -0.7223287432466355 a22.53694571904518,22.53694571904518 0 0,0 0.17889176196735698,0.3430485413353708 l -1.3688292313206938 0.6989339588067666" fill="#ff0000" stroke="none" /><path d="M 118.70294669586156 90.45014215332178 l 6.647851358966212 -3.394440271704441 a28.464325317741572,28.464325317741572 0 0,0 0.21847059167061614,0.43708753098872805 l -6.7051418638485645 3.2798208845519627" fill="#ff5507" stroke="none" /><path d="M 118.8641267826498 90.77261029715802 l 13.351425048842232 -6.530851039829985 a35.86312773743468,35.86312773743468 0 0,0 0.26576412144657374,0.555344798907427 l -13.461568428248718 6.300693738857454" fill="#ffb911" stroke="none" /><path d="M 119.0197475246899 91.09779779509293 l 13.456164965182836 -6.298164645305777 a35.85716168955543,35.85716168955543 0 0,0 0.25614910950655273,0.5597320318259905 l -13.56229853954444 6.066243631265102" fill="#ffb911" stroke="none" /><path d="M 119.16976305983485 91.42560881287824 l 13.565014823672294 -6.067458590605752 a35.86013731145054,35.86013731145054 0 0,0 0.24652327685678638,0.5640935017627815 l -13.66717198254605 5.833703019067121" fill="#ffb911" stroke="none" /><path d="M 119.31412917781788 91.75594674310238 l 13.98177457296742 -5.967988157491609 a36.202200592586536,36.202200592586536 0 0,0 0.23906236157608407,0.5736626401856432 l -14.082162779079988 5.7270930078646884" fill="#ffbd11" stroke="none" /><path d="M 119.4528033332814 92.08871423366111 l 13.747377972181425 -5.590938941418557 a35.84078836708783,35.84078836708783 0 0,0 0.22689151884663666,0.5719148440035721 l -13.841328165994186 5.35412308020142" fill="#ffb811" stroke="none" /><path d="M 119.58574465831526 92.42381321644754 l 25.06576898576246 -9.695977917739667 a47.8757281320694,47.8757281320694 0 0,0 0.28992017183052443,0.7690477003689483 l -25.228519841407426 9.264261937176562" fill="#b3ff20" stroke="none" /><path d="M 119.71291397450082 92.76114493625339 l 33.71821069818368 -12.381794014256215 a56.919723769797834,56.919723769797834 0 0,0 0.3289413332308756,0.9201074529666947 l -33.9257922014585 11.801151604908604" fill="#51ff2b" stroke="none" /><path d="M 119.83427380445688 93.10060997987247 l 25.292419441855113 -8.798016403444166 a47.77893899798876,47.77893899798876 0 0,0 0.26281733314630296,0.7769727458673494 l -25.439722196573783 8.362541983102656" fill="#b4ff20" stroke="none" /><path d="M 119.94978838288452 93.4421083053983 l 22.557753411349765 -7.415181600225791 a44.745255465704915,44.745255465704915 0 0,0 0.2336028000286569,0.7317574439196565 l -22.68172092715568 7.026855122614748" fill="#d7ff1c" stroke="none" /><path d="M 120.05942366710727 93.78553927170692 l 14.208787302123993 -4.401918626929946 a35.8750302250151,35.8750302250151 0 0,0 0.17719476928188874,0.5898237574639972 l -14.282258391409508 4.157357265875225" fill="#ffb911" stroke="none" /><path d="M 120.16314734710363 94.1308016681162 l 30.028801062997843 -8.74094634500275 a52.27511848558399,52.27511848558399 0 0,0 0.24340666250001397,0.863764375787084 l -30.17442621757244 8.224174045312651" fill="#82ff25" stroke="none" /><path d="M 120.26092885502905 94.47779374421319 l 14.427677794470862 -3.9323277399164045 a35.9539656277251,35.9539656277251 0 0,0 0.1571882024481106,0.5968692077588219 l -14.493055477723702 3.684078027784784" fill="#ffba11" stroke="none" /><path d="M 120.35273937422433 94.82641323984039 l 30.34291050802803 -7.713049196112185 a52.30787993460823,52.30787993460823 0 0,0 0.21374612189893297,0.8721571183905799 l -30.470844156443253 7.19103625311351" fill="#82ff25" stroke="none" /><path d="M 120.43855184770803 95.1765574152323 l 35.689887884927835 -8.422716362316566 a57.670291083638176,57.670291083638176 0 0,0 0.21911727806105158,0.965471156988071 l -35.82921602454655 7.808810871389468" fill="#4aff2c" stroke="none" /><path d="M 120.51834098615036 95.52812308129327 l 8.735150363635796 -1.9037853654416974 a29.94020416953643,29.94020416953643 0 0,0 0.105136152087974,0.5031145474564546 l -8.766544226548136 1.7535543666998383" fill="#ff6a09" stroke="none" /><path d="M 120.592083275326 95.88100663000786 l 27.698691851465668 -5.540514117401076 a49.247386197090364,49.247386197090364 0 0,0 0.15870253425569683,0.8303987205334976 l -27.78972067800352 5.064212831834264" fill="#a3ff21" stroke="none" /><path d="M 120.65975698304385 96.23510406497455 l 14.661871077433258 -2.6718813229313656 a35.90333564324119,35.90333564324119 0 0,0 0.1052911180107894,0.6072911886604613 l -14.705577012936281 2.4197971013503117" fill="#ffb911" stroke="none" /><path d="M 120.7213421655516 96.59031103205396 l 36.59221503015131 -6.021235058240493 a58.08430223746182,58.08430223746182 0 0,0 0.15344906753925744,0.985253090535711 l -36.69018558982883 5.392193785773341" fill="#46ff2d" stroke="none" /><path d="M 120.77682067341334 96.94652285012252 l 23.616665796944613 -3.470836587598865 a44.87035001801164,44.87035001801164 0 0,0 0.10545703892741869,0.7630346003136408 l -23.672767352427243 3.0649136790851386" fill="#d6ff1c" stroke="none" /><path d="M 120.82617615685814 97.30363454192243 l 28.373946721721975 -3.6735754693302445 a49.61076736643011,49.61076736643011 0 0,0 0.10209875545877475,0.8455241587203303 l -28.432827563440412 3.185957633686501" fill="#9fff22" stroke="none" /><path d="M 120.86939407059847 97.66154086499901 l 34.701191578403794 -3.8883408961192956 a55.918360383693795,55.918360383693795 0 0,0 0.09870284932245307,0.954860531187899 l -34.76282682020791 3.2920758426484653" fill="#5cff2a" stroke="none" /><path d="M 120.9064616781168 98.02013634271609 l 26.680411405668085 -2.5266626996359194 a47.79978315534353,47.79978315534353 0 0,0 0.07034848253167719,0.8175560023527031 l -26.7198535108975 2.0682856499075544" fill="#b4ff20" stroke="none" /><path d="M 120.93736805541906 98.37931529534042 l 28.51207876718749 -2.2070152195691044 a49.59736966585761,49.59736966585761 0 0,0 0.05842106962691559,0.8494295307130498 l -28.54576379797947 1.7172422647017205" fill="#9fff22" stroke="none" /><path d="M 120.96210409425399 98.7389718711861 l 14.82441044237156 -0.8917997199545202 a35.85121044576522,35.85121044576522 0 0,0 0.031682927711015295,0.6146403334315368 l -14.837534959539148 0.6371875931462528" fill="#ffb911" stroke="none" /><path d="M 120.98066250479742 99.09900007780936 l 37.05218007689013 -1.5911800382203418 a58.08633039765898,58.08633039765898 0 0,0 0.034230310470263085,0.9965781407969173 l -37.07403507435724 0.9548956328593047" fill="#46ff2d" stroke="none" /><path d="M 120.99303781780057 99.45929381324524 l 23.764051266288195 -0.612077663726401 a44.77193243413767,44.77193243413767 0 0,0 0.013194007920407806,0.7684848154242623 l -23.77105670580727 0.20404593233307233" fill="#d7ff1c" stroke="none" /><line stroke="#e1ed5e" stroke-width="0.3" x1="184.99686870605535" x2="189.99668451229388" y1="99.2704041080226" y2="99.22748670261217" /><path d="M 185.99683186730306 99.26182062694052 a86.0,86.0 0 0,1 -10.086455211305974,41.156179273409016" fill="none" id="id28" stroke="none" /><text fill="#e1ed5e" style="font-size:6.75px; font-family:Arial;" text-anchor="middle"><textPath startOffset="21.40746469413373" xlink:href="#id28">April</textPath></text><path d="M 120.99922638620191 99.81974689727618 l 31.12652305432578 -0.2671837645044684 a52.12766975884139,52.12766975884139 0 0,0 0.0,0.8948737344565868 l -31.12652305432578 -0.2671837645044646" fill="#84ff25" stroke="none" /><path d="M 120.99922638620191 100.18025310272382 l 28.59960256113424 0.24549319120156032 a49.600656173622355,49.600656173622355 0 0,0 -0.014617002546733069,0.8513671184638054 l -28.59117412698884 -0.7364072256344368" fill="#9fff22" stroke="none" /><path d="M 120.99303781780057 100.54070618675476 l 26.761122204458356 0.6892715797511325 a47.76999732821441,47.76999732821441 0 0,0 -0.02815088900459491,0.8195824180545153 l -26.745346628456915 -1.1485602623697584" fill="#b4ff20" stroke="none" /><path d="M 120.98066250479742 100.90099992219065 l 28.15589771590186 1.2091353952924306 a49.18184849495286,49.18184849495286 0 0,0 -0.04346366360257041,0.8431834624788198 l -28.13099246284272 -1.692290651147981" fill="#a4ff21" stroke="none" /><path d="M 120.96210409425399 101.26102812881392 l 14.840754218082735 0.8927829209161305 a35.86758376823282,35.86758376823282 0 0,0 -0.04224866404791678,0.6142863029495175 l -14.823241592869751 -1.1474126480199915" fill="#ffb911" stroke="none" /><path d="M 120.93736805541906 101.62068470465957 l 31.22192925867244 2.416774785902322 a52.31532639139051,52.31532639139051 0 0,0 -0.07699415314967398,0.8947887685457274 l -31.175841482825025 -2.9523846018237068" fill="#82ff25" stroke="none" /><path d="M 120.9064616781168 101.97986365728391 l 26.79606165750551 2.537614898726034 a47.91595084196494,47.91595084196494 0 0,0 -0.08457760284179709,0.8182115848781902 l -26.74855166218205 -2.9972310058871554" fill="#b2ff20" stroke="none" /><path d="M 120.86939407059847 102.33845913500097 l 31.14425239159758 3.489778441172489 a52.339160974729424,52.339160974729424 0 0,0 -0.10771377829749688,0.8920246027323445 l -31.079756527040416 -4.023896720828242" fill="#81ff25" stroke="none" /><path d="M 120.82617615685814 102.69636545807757 l 16.928958507255416 2.1917926083209642 a38.070254566885225,38.070254566885225 0 0,0 -0.08947503900070651,0.6473968102682772 l -16.888838951699498 -2.482077726789327" fill="#ffd513" stroke="none" /><path d="M 120.77682067341334 103.0534771498775 l 27.9191800433823 4.103158016609956 a49.219080778864274,49.219080778864274 0 0,0 -0.13002862666368892,0.8348770594239067 l -27.844629924580346 -4.581823257965313" fill="#a4ff21" stroke="none" /><path d="M 120.7213421655516 103.40968896794604 l 28.198792334463132 4.640100547736923 a49.578005917405875,49.578005917405875 0 0,0 -0.14539383537116798,0.8385930055127087 l -28.11498368159973 -5.123486586170219" fill="#a0ff22" stroke="none" /><path d="M 120.65975698304385 103.76489593502545 l 14.724628355116335 2.6833177894801334 a35.96712646287311,35.96712646287311 0 0,0 -0.11590613350948051,0.606469867791703 l -14.676395929324697 -2.935690222305151" fill="#ffba11" stroke="none" /><path d="M 120.592083275326 104.11899336999214 l 36.34403760715939 7.269825395568888 a58.063991027312134,58.063991027312134 0 0,0 -0.2038938865251218,0.9757060574404796 l -36.213886009809904 -7.892647904294776" fill="#46ff2d" stroke="none" /><path d="M 120.51834098615036 104.47187691870673 l 26.241843874351876 5.719287734092617 a47.85785959660973,47.85785959660973 0 0,0 -0.1818351135670366,0.8011990612064337 l -26.139797899227172 -6.1689211292380675" fill="#b3ff20" stroke="none" /><path d="M 120.43855184770803 104.8234425847677 l 30.480987594319853 7.193430076833243 a52.31830201328562,52.31830201328562 0 0,0 -0.21378870972511888,0.8723308912545855 l -30.353011358078437 -7.715616792695928" fill="#82ff25" stroke="none" /><path d="M 120.35273937422433 105.17358676015961 l 30.31972446586687 7.707155394863126 a52.28395652673513,52.28395652673513 0 0,0 -0.22858177115726017,0.867962216844985 l -30.182953213904877 -8.226498116080915" fill="#82ff25" stroke="none" /><path d="M 120.26092885502905 105.52220625578681 l 27.2805464857178 7.435434255884096 a49.27567681122743,49.27567681122743 0 0,0 -0.22944047536416587,0.8142033046577232 l -27.148887518279054 -7.902645484444827" fill="#a3ff21" stroke="none" /><path d="M 120.16314734710363 105.8691983318838 l 30.15176762457883 8.7767401189451 a52.40318865978582,52.40318865978582 0 0,0 -0.25883102720652607,0.8615643093411941 l -29.996660277368676 -9.293042031877018" fill="#81ff25" stroke="none" /><path d="M 120.05942366710727 106.21446072829308 l 14.198832021567727 4.398834455565764 a35.864608146337716,35.864608146337716 0 0,0 -0.18723935750767223,0.5865246205703162 l -14.1212279482828 -4.641928109827464" fill="#ffb911" stroke="none" /><path d="M 119.94978838288452 106.5578916946017 l 35.23588740671087 11.582736064239839 a58.09080123254616,58.09080123254616 0 0,0 -0.31953973404291003,0.9446624452080423 l -35.031862251095596 -12.18590018392204" fill="#45ff2d" stroke="none" /><path d="M 119.83427380445688 106.89939002012753 l 25.325319799946215 8.809460855835532 a47.81377301947725,47.81377301947725 0 0,0 -0.2763176839619645,0.7729097401737889 l -25.170361945940307 -9.242905552390242" fill="#b4ff20" stroke="none" /><path d="M 119.71291397450082 107.23885506374661 l 29.355465249450734 10.779733455160322 a52.27212805959985,52.27212805959985 0 0,0 -0.31654337051920495,0.8396688979169514 l -29.166091195117087 -11.282070633271433" fill="#82ff25" stroke="none" /><path d="M 119.58574465831526 107.57618678355244 l 31.02605949227767 12.001546327282991 a54.26640169697158,54.26640169697158 0 0,0 -0.3435355879245693,0.8659340956254901 l -30.81546522938698 -12.532381440122046" fill="#6dff28" stroke="none" /><path d="M 119.4528033332814 107.91128576633889 l 26.17588509609912 10.645504590476884 a49.25780827576775,49.25780827576775 0 0,0 -0.3252754744107527,0.7805427262071377 l -25.98928377715188 -11.093279826125299" fill="#a3ff21" stroke="none" /><path d="M 119.31412917781788 108.2440532568976 l 28.758878545843256 12.275455142594646 a52.26915243770475,52.26915243770475 0 0,0 -0.3593283156045186,0.8222135062305832 l -28.54391634822177 -12.767330718601075" fill="#82ff25" stroke="none" /><path d="M 119.16976305983485 108.57439118712176 l 13.558217356426974 6.064418169967216 a35.85269085466826,35.85269085466826 0 0,0 -0.2561171716642522,0.5596622418767104 l -13.452115719907667 -6.296269394058615" fill="#ffb911" stroke="none" /><path d="M 119.0197475246899 108.90220220490707 l 33.548707733951964 15.702489193049342 a58.04165165696529,58.04165165696529 0 0,0 -0.4301183285756783,0.8987818799208277 l -33.274210147416376 -16.276083575035273" fill="#46ff2c" stroke="none" /><path d="M 118.8641267826498 109.22738970284198 l 24.049940765681896 11.764031186395577 a47.77297295010951,47.77297295010951 0 0,0 -0.3666691393443912,0.7335839006076855 l -23.844451713125775 -12.175146943167007" fill="#b4ff20" stroke="none" /><path d="M 118.70294669586154 109.54985784667822 l 27.871369343698497 14.231319778261552 a52.2944674299467,52.2944674299467 0 0,0 -0.41509836942021133,0.7960058561348416 l -27.622962905303336 -14.707671877500898" fill="#82ff25" stroke="none" /><path d="M 118.5362547648365 109.86951160357373 l 32.81300238375034 17.471075569637744 a58.1743407069446,58.1743407069446 0 0,0 -0.4769039659886763,0.8774495826060157 l -32.508253068146324 -18.031779985718366" fill="#45ff2d" stroke="none" /><line stroke="#e1ed5e" stroke-width="0.3" x1="174.33088141563837" x2="178.70328620479359" y1="141.23008692659167" y2="143.65538615756765" /><path d="M 175.20536237346943 141.71514677278685 a86.0,86.0 0 0,1 -30.301960400862466,31.631185727798858" fill="none" id="id29" stroke="none" /><text fill="#e1ed5e" style="font-size:6.75px; font-family:Arial;" text-anchor="middle"><textPath startOffset="22.145653131862474" xlink:href="#id29">May</textPath></text><path d="M 118.36410011445183 110.18625677009912 l 24.685748429350546 13.69276852643327 a49.229029126692694,49.229029126692694 0 0,0 -0.4162587164424465,0.735489266813949 l -24.447056347886722 -14.11451456334634" fill="#a4ff21" stroke="none" /><path d="M 118.18653347947321 110.5 l 27.079867545143237 15.63456881680785 a52.26913763361571,52.26913763361571 0 0,0 -0.45530473438257035,0.7732069781041137 l -26.8074891006309 -16.09712696320551" fill="#82ff25" stroke="none" /><path d="M 118.00360718960297 110.81064883170644 l 12.734495244017474 7.646698502265239 a35.85393439814681,35.85393439814681 0 0,0 -0.3213742406688362,0.5249406699207221 l -12.601353038893233 -7.864176288310518" fill="#ffb911" stroke="none" /><path d="M 117.81537515405839 111.11811171558189 l 31.469479396780514 19.63928261622403 a58.094872357029516,58.094872357029516 0 0,0 -0.535253809920826,0.8415078924903052 l -31.127707895233797 -20.176604183393007" fill="#45ff2d" stroke="none" /><path d="M 117.62189284568427 111.42229804090321 l 22.443367113973938 14.547519410209064 a47.745748230382645,47.745748230382645 0 0,0 -0.4517101580390949,0.683946751974108 l -22.190332517014117 -14.930646040522234" fill="#b4ff20" stroke="none" /><path d="M 117.423217284605 111.72311816256416 l 25.962998321086122 17.469063962227207 a52.292898196509476,52.292898196509476 0 0,0 -0.5075156830533455,0.7404805488647741 l -25.659292901217455 -17.912179246162026" fill="#82ff25" stroke="none" /><path d="M 117.21940702142032 112.02048342749411 l 30.98765413314213 21.6317892074329 a58.791123468217386,58.791123468217386 0 0,0 -0.5847894301415003,0.8225795686807427 l -30.611749604470667 -22.160546002823146" fill="#3eff2d" stroke="none" /><path d="M 117.01052211995028 112.31430620078461 l 22.866443288796244 16.55354153126584 a49.229310404384265,49.229310404384265 0 0,0 -0.5014309558466016,0.6802873942093489 l -22.578910313365814 -16.943635234744065" fill="#a4ff21" stroke="none" /><path d="M 116.79662413953412 112.60449989151573 l 25.03235485008285 18.784745754333716 a52.296732455568346,52.296732455568346 0 0,0 -0.5450017375586717,0.7134247692551139 l -24.706201135169877 -19.211691436829707" fill="#82ff25" stroke="none" /><path d="M 116.57777611688842 112.89097897827486 l 11.741890706289897 9.130565233402036 a35.874112371495215,35.874112371495215 0 0,0 -0.38220205754477793,0.4828998141516779 l -11.583422218103559 -9.330784991468397" fill="#ffb911" stroke="none" /><path d="M 116.35404254752997 113.17365903436017 l 20.90201694235105 16.837185272612643 a47.839991061150045,47.839991061150045 0 0,0 -0.5206658154581651,0.6351276357815776 l -20.609904307654254 -17.193515190092715" fill="#b3ff20" stroke="none" /><path d="M 116.1254893667686 113.45245675266167 l 29.12971862292738 24.301047309589986 a58.93522647083912,58.93522647083912 0 0,0 -0.6547575588850562,0.7713027580021321 l -28.70826650053521 -24.797516850041674" fill="#3dff2e" stroke="none" /><path d="M 115.89218393027572 113.72728997021213 l 11.249099367289226 9.716704110397862 a35.864608146337716,35.864608146337716 0 0,0 -0.406446663537579,0.4624616927208252 l -11.080641639793061 -9.90837808092998" fill="#ffb911" stroke="none" /><path d="M 115.6541949942343 113.99807769240083 l 23.86730975700859 21.342295557852434 a53.017839632238235,53.017839632238235 0 0,0 -0.6124880852941667,0.6732316978584383 l -23.497423970872546 -21.748864831268545" fill="#7aff26" stroke="none" /><path d="M 115.41159269507618 114.26474011684316 l 22.594779224390933 20.91339032962877 a51.78788630741607,51.78788630741607 0 0,0 -0.6094797135241764,0.6472463348954661 l -22.232443677130494 -21.298178124468734" fill="#87ff25" stroke="none" /><path d="M 115.16444852881244 114.52719865689866 l 22.595036539444898 21.645533884383553 a52.290011399148554,52.290011399148554 0 0,0 -0.6265170017143108,0.642861636894262 l -22.220132736579778 -22.030218213345552" fill="#82ff25" stroke="none" /><path d="M 114.91283532996324 114.78537596483092 l 10.548477656554896 10.458320269614827 a35.85418606766033,35.85418606766033 0 0,0 -0.437093396689747,0.4333575781406287 l -10.367392339735185 -10.637857857984118" fill="#ffb911" stroke="none" /><path d="M 114.65682725009322 115.03919595460226 l 26.276055164556475 26.96154739295234 a58.64779027822523,58.64779027822523 0 0,0 -0.7270301644106139,0.6964784514176998 l -25.809352514280548 -27.40863797467562" fill="#40ff2d" stroke="none" /><path d="M 114.39649973595853 115.28858382429668 l 18.453190715374596 19.596649064152107 a47.91744605495701,47.91744605495701 0 0,0 -0.6036918886100292,0.5587681995008567 l -18.1140690554506 -19.91053500978534" fill="#b2ff20" stroke="none" /><path d="M 114.13192950727249 115.5334660781643 l 21.087645391558894 23.17901629707172 a52.33617054874529,52.33617054874529 0 0,0 -0.6697409232659135,0.5988864634118536 l -20.686639441469605 -23.537598290366958" fill="#81ff25" stroke="none" /><path d="M 113.86319453409587 115.77377054828091 l 25.560712950951036 29.083399222823434 a59.71942867495649,59.71942867495649 0 0,0 -0.7758421713984128,0.6701539891956327 l -25.057691299789767 -29.517897344483785" fill="#35ff2f" stroke="none" /><path d="M 113.59037401385872 116.0094264158162 l 18.259280412838617 21.509386414016355 a49.214447098997766,49.214447098997766 0 0,0 -0.6487534327159167,0.5412131872870162 l -17.887352645960807 -21.819661785215242" fill="#a4ff21" stroke="none" /><path d="M 113.31354834802062 116.24036423190432 l 19.823970132429 24.182020229107813 a52.26915243770475,52.26915243770475 0 0,0 -0.6987868705271182,0.5628932383695051 l -19.405932491546633 -24.518761761270724" fill="#82ff25" stroke="none" /><path d="M 113.03279911837588 116.46651593811092 l 9.22234211674367 11.65212799435796 a35.86013731145054,35.86013731145054 0 0,0 -0.4859732601359019,0.3778957464646649 l -9.020958911972539 -11.808724792443417" fill="#ffb911" stroke="none" /><path d="M 112.7482090630111 116.68781488649013 l 22.780243027227318 29.820069378265718 a58.52567134781361,58.52567134781361 0 0,0 -0.803604876434898,0.6030400807745944 l -22.264985161881654 -30.20672848630433" fill="#41ff2d" stroke="none" /><path d="M 112.45986205192187 116.90419585922612 l 15.870856745763463 21.531865261921105 a47.74893110952418,47.74893110952418 0 0,0 -0.6639806961107745,0.48067081925302363 l -15.49889503927872 -21.801136852547206" fill="#b4ff20" stroke="none" /><path d="M 112.16784306229584 117.11559508785304 l 8.607695162212593 12.107801216849737 a35.8556812806524,35.8556812806524 0 0,0 -0.5047197807557157,0.35233360548104115 l -8.39858029028312 -12.253779638135901" fill="#ffb911" stroke="none" /><path d="M 111.8722381534696 117.32195027204791 l 21.383322651673993 31.19890679713201 a58.823514815015855,58.823514815015855 0 0,0 -0.8378253156358171,0.5637262633156049 l -20.844601047941172 -31.561382734504736" fill="#3eff2d" stroke="none" /><path d="M 111.5731344415666 117.5232005979908 l 15.54064107269441 23.530511315941823 a49.19922849547453,49.19922849547453 0 0,0 -0.7087368334167329,0.4593946527052321 l -15.134418607020667 -23.79381981035095" fill="#a4ff21" stroke="none" /><path d="M 111.27062007382361 117.71928675628689 l 7.965789162274673 12.523543645507887 a35.842268775990874,35.842268775990874 0 0,0 -0.5219929284408746,0.3257621937771702 l -7.749632105044084 -12.658441636126605" fill="#ffb811" stroke="none" /><path d="M 110.96478420261333 117.91015095944535 l 7.751185774184483 12.660979437904679 a35.84524439788598,35.84524439788598 0 0,0 -0.5275519465037909,0.3167797860769411 l -7.532701071123255 -12.792173224517544" fill="#ffb911" stroke="none" /><line stroke="#e1ed5e" stroke-width="0.3" x1="143.1302829299769" x2="145.66735839644613" y1="173.24464959558577" y2="177.55315839532614" /><path d="M 143.63769802327073 174.10635135553383 a86.0,86.0 0 0,1 -40.68552437913181,11.842963189579606" fill="none" id="id30" stroke="none" /><text fill="#e1ed5e" style="font-size:6.75px; font-family:Arial;" text-anchor="middle"><textPath startOffset="21.407464694133747" xlink:href="#id30">June</textPath></text><path d="M 110.65571695917076 118.09573695890943 l 19.073272657104447 32.39058678744983 a58.589092065219766,58.589092065219766 0 0,0 -0.8710455163801033,0.5028983633584712 l -18.514434672863946 -32.71323204808447" fill="#40ff2d" stroke="none" /><path d="M 110.34350942703117 118.27599006163325 l 13.167171773636056 23.26513086998374 a47.732765044303,47.732765044303 0 0,0 -0.7165729331236257,0.39747092674342926 l -12.765854652356335 -23.487734712160314" fill="#b4ff20" stroke="none" /><path d="M 110.02825361518725 118.45085714620011 l 14.927879528770136 27.465616970824858 a52.26022557201942,52.26022557201942 0 0,0 -0.791894679358768,0.4216393131133484 l -14.454196033624815 -27.717826751660777" fill="#82ff25" stroke="none" /><path d="M 109.71004243097381 118.62028667847754 l 17.447864583327792 33.45858092571037 a58.73466067265551,58.73466067265551 0 0,0 -0.8980047944704522,0.4585276465940978 l -16.87093256714376 -33.753166523977306" fill="#3fff2d" stroke="none" /><path d="M 109.3889696526874 118.78422872680471 l 12.605257684074907 25.218959295517845 a49.19376578662232,49.19376578662232 0 0,0 -0.7586141357238053,0.37107618842163587 l -12.170483299089032 -25.431629234036702" fill="#a4ff21" stroke="none" /><path d="M 109.06512990194946 118.94263497670748 l 9.670299681202733 20.20720706241628 a43.401917622999065,43.401917622999065 0 0,0 -0.674819806834684,0.3158497432481899 l -9.321991160496543 -20.370233037235003" fill="#e7ff1a" stroke="none" /><path d="M 108.73861861582097 119.09545874513695 l 6.186768775683665 13.519206308864646 a35.86758376823282,35.86758376823282 0 0,0 -0.5620733852418327,0.2514082759338385 l -5.953781987586205 -13.623418335708335" fill="#ffb911" stroke="none" /><path d="M 108.4095320186766 119.2426549942271 l 15.080976982048892 34.50822666433172 a58.65970756989469,58.65970756989469 0 0,0 -0.9261667395684107,0.3953255078431554 l -14.48637516731005 -34.76202682183428" fill="#40ff2d" stroke="none" /><path d="M 108.07796709384702 119.3841803445677 l 5.708733336956344 13.698881817294899 a35.84078836708783,35.84078836708783 0 0,0 -0.5699462563145964,0.23179218069024862 l -5.472732619451307 -13.794861254564438" fill="#ffb811" stroke="none" /><path d="M 107.74402155503746 119.51999308798841 l 11.542439596871448 29.094487863723963 a52.30043347782594,52.30043347782594 0 0,0 -0.8373741151836709,0.3239142965978576 l -11.041293219194246 -29.28834204845986" fill="#82ff25" stroke="none" /><path d="M 107.407793817531 119.65005319985036 l 10.722813758629913 28.443537441676863 a51.3975913042191,51.3975913042191 0 0,0 -0.8282620226759643,0.3041492873510479 l -10.232962584299822 -28.62341757803663" fill="#8cff24" stroke="none" /><path d="M 107.06938296918513 119.77432235084164 l 9.499096356508371 26.57066312775438 a49.21760036996124,49.21760036996124 0 0,0 -0.7980147066555524,0.2775909396681396 l -9.041575877807796 -26.72981249999111" fill="#a4ff21" stroke="none" /><path d="M 106.72888874123015 119.89276391827305 l 10.018410721772023 29.61765114399445 a52.266176815809644,52.266176815809644 0 0,0 -0.8523798642618071,0.28019419179823785 l -9.508508119862482 -29.78526625719471" fill="#82ff25" stroke="none" /><path d="M 106.38641147887787 120.00534299687104 l 4.511944218663017 14.133601002007868 a35.83631753220065,35.83631753220065 0 0,0 -0.5876462678857205,0.18205431594189236 l -4.268657317905673 -14.208971905756405" fill="#ffb811" stroke="none" /><path d="M 106.0420521117495 120.11202640906438 l 10.872028174730032 36.18944585814719 a58.78725960098046,58.78725960098046 0 0,0 -0.9689819671620307,0.28205652854636215 l -10.249186195186395 -36.370746080996064" fill="#3fff2d" stroke="none" /><path d="M 105.69591212413111 120.21278271476187 l 7.24962377940691 25.72635725823737 a47.728309013504855,47.728309013504855 0 0,0 -0.790513979849201,0.21545810046742625 l -6.806928398623014 -25.84701585284894" fill="#b5ff20" stroke="none" /><path d="M 105.3480935250658 120.30758222061773 l 3.7795201987092546 14.35145380873444 a35.84078836708783,35.84078836708783 0 0,0 -0.5963134162899639,0.1515805385554313 l -3.5326014891938935 -14.414219579125142" fill="#ffb811" stroke="none" /><path d="M 104.9986988182912 120.39639698878246 l 8.35436700437109 34.08866831256472 a56.097475056872376,56.097475056872376 0 0,0 -0.9372762025636029,0.22119463173422516 l -7.767958648067608 -34.22705908794517" fill="#5aff2a" stroke="none" /><path d="M 104.64783097203109 120.47920084513623 l 5.926197708827522 26.111920561953994 a47.77596337609365,47.77596337609365 0 0,0 -0.8013566611089475,0.17465195450664592 l -5.477078631099439 -26.209803974594358" fill="#b4ff20" stroke="none" /><path d="M 104.29559338865022 120.5559693870025 l 5.762829328078208 27.57722450255451 a49.17292162926755,49.17292162926755 0 0,0 -0.827752410126515,0.16557366458358747 l -5.288580432420734 -27.67208756380096" fill="#a4ff21" stroke="none" /><path d="M 103.94208987418118 120.62667999033965 l 2.785330143751008 14.574024280593642 a35.837797941103695,35.837797941103695 0 0,0 -0.6052581978916627,0.11029820586725471 l -2.534737212308288 -14.61969066039226" fill="#ffb811" stroke="none" /><path d="M 103.58742460773223 120.69131181640829 l 5.343228784958812 30.81832372384822 a52.27809410747909,52.27809410747909 0 0,0 -0.8855473415018539,0.14571647805384047 l -4.8134039404038855 -30.90550620039773" fill="#82ff25" stroke="none" /><path d="M 103.2317021107853 120.74984581791261 l 4.414386885251963 28.34353047080055 a49.685231934252926,49.685231934252926 0 0,0 -0.8438797549051102,0.1240212633756967 l -3.927182024739167 -28.41513280747513" fill="#9eff22" stroke="none" /><path d="M 102.875027216393 120.80226474461374 l 4.282014636212597 30.982524824429166 a52.27702821306891,52.27702821306891 0 0,0 -0.8900093805625611,0.11522953292237584 l -3.7495274337592606 -31.05146595355194" fill="#82ff25" stroke="none" /><path d="M 102.51750503828377 120.84855314841334 l 3.5606427236165983 29.487229593168507 a50.70142901756541,50.70142901756541 0 0,0 -0.8649762740251974,0.0969223956723792 l -3.0539305479906016 -29.54400774934786" fill="#93ff23" stroke="none" /><path d="M 102.15924093988457 120.88869738790638 l 2.7499149059066332 26.6029321929435 a47.744682335972456,47.744682335972456 0 0,0 -0.8159803493535364,0.0772741874553509 l -2.2928349931680816 -26.646218135904032" fill="#b4ff20" stroke="none" /><path d="M 101.80034050326958 120.92268563240118 l 2.034926053577635 23.64892531544203 a44.73631379593057,44.73631379593057 0 0,0 -0.7656961065581814,0.05926972124822744 l -1.6286609522442175 -23.68037280368531" fill="#d7ff1c" stroke="none" /><path d="M 101.44090949804482 120.95050786540614 l 1.0182968055528512 14.805812067309594 a35.84078836708783,35.84078836708783 0 0,0 -0.6141671484724571,0.0369467705405356 l -0.763985304947929 -14.821110815674821" fill="#ffb811" stroke="none" /><path d="M 101.08105385017728 120.97215588758144 l 1.2038229542834837 23.353843709211937 a44.38484991826028,44.38484991826028 0 0,0 -0.7612514076264633,0.032691410906688326 l -0.802745786056191 -23.371067688544457" fill="#dbff1b" stroke="none" /><path d="M 100.72087961077811 120.9876233191556 l 0.9191540659429241 26.76016774487217 a47.77594857200462,47.77594857200462 0 0,0 -0.819895989190063,0.02111761231024076 l -0.4596447626821173 -26.772003074532456" fill="#b4ff20" stroke="none" /><line stroke="#e1ed5e" stroke-width="0.3" x1="101.45913802915013" x2="101.54496967792366" y1="184.9874750549273" y2="189.98673829345242" /><path d="M 101.47630435890484 185.9873277026323 a86.0,86.0 0 0,1 -42.54439059252881,-10.42667462771756" fill="none" id="id31" stroke="none" /><text fill="#e1ed5e" style="font-size:6.75px; font-family:Arial;" text-anchor="middle"><textPath startOffset="22.145653131862474" xlink:href="#id31">July</textPath></text><path d="M 100.36049292484886 120.99690560180557 l 0.5366744208824982 31.25859448947041 a52.26320119391454,52.26320119391454 0 0,0 -0.8971673457313466,0.007701102638563696 l -3.828637927322715e-15 -31.26320119391454" fill="#82ff25" stroke="none" /><path d="M 100.0 121.0 l 4.7539946018915075e-15 38.81931186364447 a59.81931186364447,59.81931186364447 0 0,0 -1.0268780331509921,-0.008814512886819061 l 0.6663851083021354 -38.813591748952085" fill="#34ff2f" stroke="none" /><path d="M 99.63950707515114 120.99690560180557 l -0.46347961266097554 26.99536386042603 a47.99934227547308,47.99934227547308 0 0,0 -0.8237297090210373,-0.021216355333940885 l 0.9268226357527567 -26.98342978774204" fill="#b1ff20" stroke="none" /><path d="M 99.27912038922189 120.98762331915562 l -1.0731393542755698 31.243281401990227 a52.261705980922464,52.261705980922464 0 0,0 -0.8963485810181593,-0.038493064819494424 l 1.6093136958945677 -31.220255768744906" fill="#82ff25" stroke="none" /><path d="M 98.91894614982273 120.97215588758144 l -0.7642146958646256 14.825560938176658 a35.84524439788598,35.84524439788598 0 0,0 -0.6142435069415265,-0.03695136407641808 l 1.0186025549385986 -14.810257596275548" fill="#ffb911" stroke="none" /><path d="M 98.55909050195518 120.95050786540614 l -2.1442986571828637 31.177631866572646 a52.25128390224508,52.25128390224508 0 0,0 -0.8943205474889748,-0.06922606645408881 l 2.6791881994470748 -31.136228033123505" fill="#82ff25" stroke="none" /><path d="M 98.19965949673042 120.92268563240118 l -2.5510713765434208 29.647316349490854 a50.756870330984185,50.756870330984185 0 0,0 -0.8674601391904947,-0.08214937707624657 l 3.0596310791189305 -29.599155216909423" fill="#93ff23" stroke="none" /><path d="M 97.84075906011543 120.88869738790638 l -3.817541427911506 36.93125032063464 a58.12803351645757,58.12803351645757 0 0,0 -0.9916755961662949,-0.11111931898778561 l 4.4509529256786005 -36.86027524113988" fill="#45ff2d" stroke="none" /><path d="M 97.48249496171623 120.84855314841334 l -4.171617232381459 34.54697498577099 a55.797929119431636,55.797929119431636 0 0,0 -0.9499522453696327,-0.12299033686961318 l 4.764047299641886 -34.470273052700975" fill="#5dff2a" stroke="none" /><path d="M 97.12497278360702 120.80226474461374 l -3.667625819294944 26.537113402659994 a47.789361076666154,47.789361076666154 0 0,0 -0.8116793007188625,-0.11928890549385737 l 4.122630225621491 -26.470243423867252" fill="#b4ff20" stroke="none" /><path d="M 96.76829788921471 120.74984581791261 l -5.017839096669004 32.21812655550581 a53.60653903662038,53.60653903662038 0 0,0 -0.9080500913709536,-0.1494192969815024 l 5.5701666910930205 -32.12724126002864" fill="#74ff27" stroke="none" /><path d="M 96.41257539226777 120.69131181640829 l -3.040515255006232 17.53688400538953 a38.798512118556786,38.798512118556786 0 0,0 -0.6552611732547847,-0.11941041366515964 l 3.341111161812074 -17.482105417793004" fill="#ffde14" stroke="none" /><path d="M 96.05791012581884 120.62667999033965 l -8.3604701830499 43.74551279614517 a65.53725801482807,65.53725801482807 0 0,0 -1.10322147794791,-0.22067519310905762 l 9.110188146528769 -43.59554820637325" fill="#36ff6d" stroke="none" /><path d="M 95.70440661134978 120.55596938700252 l -6.092140782727237 29.153099025138676 a50.782836703143474,50.782836703143474 0 0,0 -0.8517916036923942,-0.1856440155016092 l 6.591694803038768 -29.044223551503347" fill="#92ff23" stroke="none" /><path d="M 95.35216902796893 120.47920084513623 l -6.918678314586177 30.48497323588807 a52.26022557201942,52.26022557201942 0 0,0 -0.8731634662629567,-0.20606420053720217 l 7.440973934589022 -30.36171289170464" fill="#82ff25" stroke="none" /><path d="M 95.00130118170881 120.39639698878247 l -9.143589614048981 37.308965882926564 a59.41307285656177,59.41307285656177 0 0,0 -0.988505389014172,-0.25127420436715053 l 9.782700296288532 -37.146506446724146" fill="#38ff2e" stroke="none" /><path d="M 94.6519064749342 120.30758222061772 l -6.814513988585308 25.87581957348865 a47.75809484063399,47.75809484063399 0 0,0 -0.7910073162617751,-0.2155925615004376 l 7.257702705781778 -25.75502651784407" fill="#b4ff20" stroke="none" /><path d="M 94.30408787586889 120.21278271476187 l -11.244656887146416 39.90332038288117 a62.457415332947484,62.457415332947484 0 0,0 -1.0294766176201564,-0.2996656396362469 l 11.92799351714818 -39.70441104894241" fill="#32ff49" stroke="none" /><path d="M 93.95794788825049 120.11202640906438 l -14.200971535130217 47.27041562476869 a70.35746940312028,70.35746940312028 0 0,0 -1.1537263636386619,-0.35742737662924573 l 15.010338531640512 -47.01967166033279" fill="#3cffa3" stroke="none" /><path d="M 93.61358852112213 120.00534299687104 l -9.509413050616173 29.78810093989188 a52.26915243770475,52.26915243770475 0 0,0 -0.8524283920160902,-0.2802101438349562 l 10.019364180280007 -29.620469874654905" fill="#82ff25" stroke="none" /><path d="M 93.27111125876986 119.89276391827306 l -8.559595486648375 25.30492311583136 a47.713401295851256,47.713401295851256 0 0,0 -0.7736256065398538,-0.26910714461735574 l 8.992726865233251 -25.154257538645414" fill="#b5ff20" stroke="none" /><path d="M 92.93061703081489 119.77432235084164 l -12.072028679931114 33.76761275858282 a56.86064065047758,56.86064065047758 0 0,0 -0.9162979828580197,-0.3364773113550065 l 12.64991581444325 -33.5554045982191" fill="#52ff2b" stroke="none" /><path d="M 92.59220618246901 119.65005319985036 l -17.91851422996078 47.530987842526066 a71.79633803233918,71.79633803233918 0 0,0 -1.1495200141839645,-0.4446590359888136 l 18.731806506638275 -47.21638891839921" fill="#3effb3" stroke="none" /><path d="M 92.25597844496254 119.51999308798841 l -9.849263485795356 24.826577999313425 a47.70893046096408,47.70893046096408 0 0,0 -0.7586754518483066,-0.3085467015033976 l 10.273993398834104 -24.653844041230737" fill="#b5ff20" stroke="none" /><path d="M 91.92203290615298 119.3841803445677 l -17.43590172285538 41.83981681770242 a66.3274854831808,66.3274854831808 0 0,0 -1.0472317970650076,-0.44700098191514115 l 18.15156859509082 -41.534341186127875" fill="#37ff76" stroke="none" /><path d="M 91.59046798132341 119.24265499422711 l -19.933893037433474 45.61264830899857 a70.7782460256308,70.7782460256308 0 0,0 -1.10915105411531,-0.4961091586739201 l 20.71395749440442 -45.2637353994148" fill="#3cffa8" stroke="none" /><path d="M 91.26138138417905 119.09545874513695 l -16.680926130932882 36.4508340239519 a61.086364235576774,61.086364235576774 0 0,0 -0.9497803500701331,-0.44454516105410724 l 17.304195194874506 -36.15911263132726" fill="#30ff39" stroke="none" /><path d="M 90.93487009805054 118.94263497670748 l -11.532095579514335 24.097644428930302 a47.71489650884333,47.71489650884333 0 0,0 -0.7358085805671418,-0.3599208485935746 l 11.944064409343547 -23.896129830239506" fill="#b5ff20" stroke="none" /><path d="M 90.6110303473126 118.78422872680471 l -15.903897028069613 31.818447654402682 a56.57172404896065,56.57172404896065 0 0,0 -0.8649352672786831,-0.4416421103802704 l 16.44775951706188 -31.540747592349575" fill="#55ff2b" stroke="none" /><path d="M 90.28995756902619 118.62028667847754 l -18.268900298080304 35.03302516636516 a60.51032232731559,60.51032232731559 0 0,0 -0.9169076821386638,-0.4882016957082581 l 18.86759679600553 -34.71425300293433" fill="#30ff32" stroke="none" /><path d="M 89.97174638481275 118.45085714620012 l -12.753058886718106 23.464191944603105 a47.70596964315801,47.70596964315801 0 0,0 -0.7161706756978143,-0.3972478013301794 l 13.153973750572025 -23.24181122783978" fill="#b5ff20" stroke="none" /><line stroke="#e1ed5e" stroke-width="0.3" x1="58.13341422392154" x2="55.67067388415222" y1="173.97424548756322" y2="178.32567169271397" /><path d="M 57.64086615596768 174.84453072859336 a86.0,86.0 0 0,1 -31.369924170532247,-30.572349798747897" fill="none" id="id32" stroke="none" /><text fill="#e1ed5e" style="font-size:6.75px; font-family:Arial;" text-anchor="middle"><textPath startOffset="22.145653131862474" xlink:href="#id32">August</textPath></text><path d="M 89.65649057296885 118.27599006163327 l -20.826553312268356 36.79852414098308 a63.28329104768538,63.28329104768538 0 0,0 -0.9408342916033292,-0.5431909315200171 l 21.455180071732084 -36.43558631218689" fill="#33ff53" stroke="none" /><path d="M 89.34428304082925 118.09573695890944 l -26.703740042315175 45.348788587045775 a73.62701168183617,73.62701168183617 0 0,0 -1.083604644924724,-0.6506734547870072 l 27.478277443797328 -44.883701131722844" fill="#40ffc6" stroke="none" /><path d="M 89.03521579738668 117.91015095944536 l -23.21469240495177 37.919455391623664 a65.46129823401317,65.46129823401317 0 0,0 -0.9533530083788508,-0.5949627869120345 l 23.862209542120333 -37.515356807870084" fill="#36ff6c" stroke="none" /><path d="M 88.72937992617639 117.7192867562869 l -14.353769219230802 22.566509310328428 a47.744682335972456,47.744682335972456 0 0,0 -0.6877834471407918,-0.445812920872798 l 14.739038298628603 -22.316782547751735" fill="#b4ff20" stroke="none" /><path d="M 88.4268655584334 117.5232005979908 l -19.59953170911784 29.67618906525574 a56.564277592178364,56.564277592178364 0 0,0 -0.8056469232824722,-0.5420752048642559 l 20.106074920497317 -29.335364186334363" fill="#55ff2b" stroke="none" /><path d="M 88.1277618465304 117.32195027204791 l -28.27225335375159 41.25006256965154 a71.00887892863511,71.00887892863511 0 0,0 -0.9995511038834435,-0.6977642995614186 l 28.976199548808797 -40.75865345428499" fill="#3dffab" stroke="none" /><path d="M 87.83215693770417 117.11559508785305 l -15.468821267135903 21.758834325786697 a47.697027973383655,47.697027973383655 0 0,0 -0.6632589484263216,-0.4801483295890775 l 15.840061225936177 -21.490085224824554" fill="#b5ff20" stroke="none" /><path d="M 87.54013794807813 116.9041958592261 l -18.557243222790504 25.176464453469695 a52.27659889448703,52.27659889448703 0 0,0 -0.7178000495779082,-0.5386505390532395 l 18.986696261279178 -24.854194887152442" fill="#82ff25" stroke="none" /><path d="M 87.2517909369889 116.68781488649013 l -9.925610687307012 12.99294300606836 a37.350361325515834,37.350361325515834 0 0,0 -0.5061686379772752,-0.3935997944247644 l 10.147189269919515 -12.820642160022803" fill="#ffcc13" stroke="none" /><path d="M 86.96720088162412 116.46651593811092 l -27.601427185953423 34.87350158196475 a65.4747107386747,65.4747107386747 0 0,0 -0.875332123861666,-0.7051055974730565 l 28.196010080170353 -34.39454769069829" fill="#36ff6d" stroke="none" /><path d="M 86.68645165197938 116.24036423190432 l -16.959326357350204 20.687620608074127 a47.75063357976268,47.75063357976268 0 0,0 -0.6294571873766328,-0.5251155731302337 l 17.311957878888727 -20.393442851032024" fill="#b4ff20" stroke="none" /><path d="M 86.40962598614128 116.0094264158162 l -15.351570568167269 18.08411152832592 a44.721420882366004,44.721420882366004 0 0,0 -0.5809962528986227,-0.501850725497345 l 15.659746300828754 -17.817916670363854" fill="#d7ff1c" stroke="none" /><path d="M 86.13680546590413 115.77377054828092 l -26.026227914883737 29.6130697983756 a60.42459184774065,60.42459184774065 0 0,0 -0.7732476699719688,-0.6914428345706769 l 26.530740611679075 -29.16193143392154" fill="#2fff31" stroke="none" /><path d="M 85.86807049272751 115.53346607816431 l -18.010838694975003 19.797066760325208 a47.764046084424194,47.764046084424194 0 0,0 -0.6017592664536341,-0.5569793932852761 l 18.348027732742604 -19.484969620907556" fill="#b4ff20" stroke="none" /><path d="M 85.60350026404147 115.28858382429668 l -21.43547771936579 22.763734514426268 a52.26767202880171,52.26767202880171 0 0,0 -0.6479387204221423,-0.6207106371975882 l 21.823088925653245 -22.3924117469231" fill="#82ff25" stroke="none" /><path d="M 85.34317274990678 115.03919595460226 l -25.8613218609313 26.535994487423036 a58.05356894863475,58.05356894863475 0 0,0 -0.707722986482991,-0.7016741084158231 l 26.313036767544258 -26.088140368778554" fill="#46ff2c" stroke="none" /><path d="M 85.08716467003676 114.78537596483092 l -13.707520603196949 13.590363011433611 a40.30269638857773,40.30269638857773 0 0,0 -0.4828900171703696,-0.49548769790544395 l 13.938797421518128 -13.35305262146043" fill="#fff116" stroke="none" /><path d="M 84.83555147118756 114.52719865689866 l -21.443233875244747 20.54213298691017 a50.69497443474816,50.69497443474816 0 0,0 -0.5966174852589431,-0.6335870942045427 l 21.792707194239945 -20.171004432761137" fill="#93ff23" stroke="none" /><path d="M 84.58840730492382 114.26474011684316 l -27.247720482132433 25.220083293414728 a58.12803351645756,58.12803351645756 0 0,0 -0.671523551268232,-0.7381220164553978 l 27.676641734242548 -24.748623701401655" fill="#45ff2d" stroke="none" /><path d="M 84.3458050057657 113.99807769240083 l -26.508740728174416 23.704279420140555 a56.56130197028326,56.56130197028326 0 0,0 -0.640998289382118,-0.7293383868838202 l 26.911750081515127 -23.245728755445434" fill="#55ff2b" stroke="none" /><path d="M 84.1078160697243 113.72728997021213 l -30.974671739721284 26.755183716018838 a61.93006407350724,61.93006407350724 0 0,0 -0.6880295538429579,-0.8104970844012978 l 31.429395857071356 -26.219519849167984" fill="#31ff43" stroke="none" /><path d="M 83.8745106332314 113.45245675266167 l -46.8801512065357 39.10908948684755 a82.05136736910895,82.05136736910895 0 0,0 -0.8930048094299782,-1.0893206669536246 l 47.54460283520431 -38.29856653819543" fill="#4be4ff" stroke="none" /><path d="M 83.64595745247003 113.17365903436017 l -23.97242566448734 19.31048919633628 a51.78266046398835,51.78266046398835 0 0,0 -0.5516914026897238,-0.6970440649622515 l 24.300383497818626 -18.896125187459347" fill="#87ff25" stroke="none" /><line stroke="#e1ed5e" stroke-width="0.3" x1="26.387840678322732" x2="22.057713659400548" y1="142.50000000000003" y2="145.00000000000006" /><path d="M 25.521815274538298 143.00000000000003 a86.0,86.0 0 0,1 -11.493303480769221,-40.785679425670985" fill="none" id="id33" stroke="none" /><text fill="#e1ed5e" style="font-size:6.75px; font-family:Arial;" text-anchor="middle"><textPath startOffset="21.40746469413373" xlink:href="#id33">September</textPath></text><path d="M 81.29705330413844 109.54985784667822 l -13.204187256460083 6.742152096707625 a35.825895453523266,35.825895453523266 0 0,0 -0.2749724256412437,-0.5501290480080522 l 13.317979595313062 -6.51449119253582" fill="#ffb811" stroke="none" /><path d="M 81.1358732173502 109.22738970284198 l -24.597116364453658 12.03168219107377 a48.382101997353594,48.382101997353594 0 0,0 -0.35853612448987576,-0.7492026044452532 l 24.800031746903446 -11.607667084563413" fill="#adff20" stroke="none" /><path d="M 79.83685265289637 105.86919833188381 l -14.351921912194205 4.177635301488626 a35.947585065353,35.947585065353 0 0,0 -0.16738138447465248,-0.593977484404786 l 14.421521788743433 -3.9306498931808442" fill="#ffba11" stroke="none" /><path d="M 79.73907114497094 105.5222062557868 l -14.371645287582895 3.917055830998591 a35.895889186458916,35.895889186458916 0 0,0 -0.15693429634212275,-0.5959050849177655 l 14.43676906472975 -3.6697702417080227" fill="#ffb911" stroke="none" /><path d="M 79.64726062577567 105.17358676015961 l -8.6401150464556 2.1962834579019455 a29.914889177294476,29.914889177294476 0 0,0 -0.12224145877593331,-0.4987868668058981 l 8.676544031747827 -2.0476407664879477" fill="#ff6909" stroke="none" /><path d="M 79.56144815229197 104.8234425847677 l -21.63919485659649 5.106791065683961 a43.233624738901696,43.233624738901696 0 0,0 -0.1642654128407679,-0.7237837179791508 l 21.723671130994926 -4.734573013765783" fill="#e9ff1a" stroke="none" /><path d="M 79.48165901384964 104.47187691870673 l -30.59852002503884 6.6688050237062235 a52.31680680029355,52.31680680029355 0 0,0 -0.1837124331339514,-0.8791304971953918 l 30.70849016899716 -6.1425580752254225" fill="#82ff25" stroke="none" /><path d="M 79.407916724674 104.11899336999214 l -14.56711552585218 2.913831081034455 a35.8556812806524,35.8556812806524 0 0,0 -0.1155469950005242,-0.604590703355334 l 14.614988813134861 -2.663337812645807" fill="#ffb911" stroke="none" /><path d="M 79.34024301695615 103.76489593502545 l -30.777179733511737 5.608627389245037 a52.28404535126931,52.28404535126931 0 0,0 -0.15332964167629612,-0.8843646274222171 l 30.868924192680268 -5.079469728902228" fill="#82ff25" stroke="none" /><path d="M 79.2786578344484 103.40968896794605 l -14.65707962375044 2.4118168744152046 a35.85418606766033,35.85418606766033 0 0,0 -0.09472079731574821,-0.6081754668823506 l 14.696321913204455 -2.159853225601404" fill="#ffb911" stroke="none" /><path d="M 79.22317932658666 103.0534771498775 l -30.82780633913119 4.530625918037591 a52.158950798962586,52.158950798962586 0 0,0 -0.12258715393598484,-0.8869795791583821 l 30.90103800962239 -4.000758030679124" fill="#83ff25" stroke="none" /><path d="M 79.17382384314188 102.69636545807758 l -32.41196044312612 4.196377189417124 a53.68248401334624,53.68248401334624 0 0,0 -0.11047833159313847,-0.914919069849293 l 32.47922086097891 -3.6393644426444314" fill="#73ff27" stroke="none" /><path d="M 79.13060592940153 102.33845913500099 l -26.912826049763172 3.015638293659204 a48.081253300078174,48.081253300078174 0 0,0 -0.08486938220556647,-0.8210342855417578 l 26.960627824450405 -2.553199485834515" fill="#b1ff20" stroke="none" /><path d="M 79.0935383218832 101.97986365728391 l -31.55984394384503 2.988750034128156 a52.7010469310771,52.7010469310771 0 0,0 -0.07756183050837802,-0.9013860399481122 l 31.60649939705115 -2.446542946804382" fill="#7dff26" stroke="none" /><path d="M 79.06263194458094 101.62068470465958 l -23.812529832639623 1.8432404100103803 a44.883762522673166,44.883762522673166 0 0,0 -0.052868880610418806,-0.7687019209511544 l 23.84066267441511 -1.4341950649048825" fill="#d6ff1c" stroke="none" /><path d="M 79.03789590574601 101.26102812881392 l -36.98670330309044 2.225028224627352 a58.05356894863475,58.05356894863475 0 0,0 -0.05130390314571088,-0.9952820150789179 l 37.01944879569272 -1.589774416171703" fill="#46ff2c" stroke="none" /><path d="M 79.01933749520258 100.90099992219065 l -14.812834896457508 0.6361268661597019 a35.82648761708448,35.82648761708448 0 0,0 -0.0211125713364269,-0.6146694786241272 l 14.821572154790783 -0.38175112297145486" fill="#ffb811" stroke="none" /><path d="M 79.00696218219943 100.54070618675478 l -31.273673673951663 0.8054988984832423 a52.28404535126931,52.28404535126931 0 0,0 -0.015407780521656075,-0.8974259710704264 l 31.282892886071984 -0.2685260114437636" fill="#82ff25" stroke="none" /><line stroke="#e1ed5e" stroke-width="0.3" x1="15.003131293944662" x2="10.003315487706104" y1="100.72959589197737" y2="100.7725132973878" /><path d="M 14.003168132696942 100.73817937305945 a86.0,86.0 0 0,1 10.791469493833604,-42.45332614584628" fill="none" id="id34" stroke="none" /><text fill="#e1ed5e" style="font-size:6.75px; font-family:Arial;" text-anchor="middle"><textPath startOffset="22.145653131862435" xlink:href="#id34">October</textPath></text><path d="M 79.00077361379809 100.18025310272382 l -36.24205040716595 0.31109441437601276 a57.243385568269055,57.243385568269055 0 0,0 0.0,-0.9826950341996473 l 36.24205040716595 0.31109441437599944" fill="#4eff2b" stroke="none" /><path d="M 79.00077361379809 99.81974689727619 l -26.72283890221911 -0.22938343237628409 a47.72382337452865,47.72382337452865 0 0,0 0.01406391168221198,-0.8191523484331942 l 26.714963558938233 0.6880826967785306" fill="#b5ff20" stroke="none" /><path d="M 79.00696218219943 99.45929381324524 l -31.293031002691745 -0.8059974746064031 a52.30340909972105,52.30340909972105 0 0,0 0.03082243136861084,-0.8973614590746917 l 31.274583884326283 1.3430651982452333" fill="#82ff25" stroke="none" /><path d="M 79.01933749520258 99.09900007780938 l -14.934249757437865 -0.6413409427061733 a35.94801438393488,35.94801438393488 0 0,0 0.03176847662657992,-0.6162999595388684 l 14.921039691354714 0.8976126956217537" fill="#ffba11" stroke="none" /><path d="M 79.03789590574601 98.7389718711861 l -31.218680440711378 -1.8780382924909202 a52.27511848558399,52.27511848558399 0 0,0 0.06157520766477615,-0.8952900055453374 l 31.181841271881538 2.413671722190583" fill="#82ff25" stroke="none" /><path d="M 79.06263194458094 98.37931529534042 l -14.760880862313234 -1.1425855330781043 a35.80503649207946,35.80503649207946 0 0,0 0.05269542700691827,-0.6124007383762207 l 14.739091812608573 1.3958073188300055" fill="#ffb811" stroke="none" /><path d="M 79.0935383218832 98.0201363427161 l -31.147676880905646 -2.949717384739305 a52.28703577725345,52.28703577725345 0 0,0 0.0922931104994494,-0.8928521225216492 l 31.092451377924533 3.483974029543867" fill="#82ff25" stroke="none" /><path d="M 79.13060592940154 97.66154086499901 l -22.114589809098558 -2.477985914729693 a43.252988487353434,43.252988487353434 0 0,0 0.08901447264085714,-0.7371675272181719 l 22.06879325019803 2.8572471188713013" fill="#e9ff1a" stroke="none" /><path d="M 79.17382384314186 97.30363454192245 l -26.55275907597845 -3.4377862671418353 a47.7743793385674,47.7743793385674 0 0,0 0.11228226612047058,-0.8124185442994081 l 26.48983229330277 3.89309311964131" fill="#b4ff20" stroke="none" /><path d="M 79.22317932658666 96.9465228501225 l -30.963362077818182 -4.550547943506335 a52.29596264293877,52.29596264293877 0 0,0 0.1381572368868165,-0.8870685681279139 l 30.8806833487931 5.081404693565699" fill="#82ff25" stroke="none" /><path d="M 79.2786578344484 96.59031103205396 l -26.466208498151417 -4.355004536797307 a47.82212252569038,47.82212252569038 0 0,0 0.14024448303111306,-0.8088929096023946 l 26.38754919762807 4.808690479320294" fill="#b3ff20" stroke="none" /><path d="M 79.34024301695615 96.23510406497455 l -14.613517825656098 -2.6630697497259996 a35.85418606766033,35.85418606766033 0 0,0 0.11554217659066301,-0.6045654913988949 l 14.565649356783275 2.9135378061582093" fill="#ffb911" stroke="none" /><path d="M 79.407916724674 95.88100663000787 l -43.61620715588196 -8.724462974299865 a65.48021785979401,65.48021785979401 0 0,0 0.22993624574763766,-1.1003281737604116 l 43.460013199309955 9.471907599345684" fill="#36ff6d" stroke="none" /><path d="M 79.48165901384962 95.52812308129327 l -23.17152822338069 -5.050126728239865 a44.7154696385758,44.7154696385758 0 0,0 0.16989565702411893,-0.7485916127007598 l 23.08142170479891 5.447152674879633" fill="#d8ff1c" stroke="none" /><path d="M 79.56144815229197 95.17655741523228 l -30.178427861406753 -7.122026803693202 a52.00743094773664,52.00743094773664 0 0,0 0.2125183947218144,-0.8671475725450241 l 30.05172194016864 7.639030200846343" fill="#85ff25" stroke="none" /><path d="M 79.64726062577567 94.8264132398404 l -25.894375624322436 -6.582249024534547 a47.71787213073844,47.71787213073844 0 0,0 0.20861917215318146,-0.7921609768867617 l 25.77756697136453 7.0257905057940935" fill="#b5ff20" stroke="none" /><path d="M 79.73907114497095 94.47779374421319 l -30.164370932115105 -8.221433432547386 a52.2646964069066,52.2646964069066 0 0,0 0.2433581345681667,-0.8635921672767262 l 30.018794305472355 8.738033523727125" fill="#82ff25" stroke="none" /><path d="M 79.83685265289637 94.1308016681162 l -25.65459717966797 -7.467679344895885 a47.71936734373051,47.71936734373051 0 0,0 0.23569658990430228,-0.7845572916300462 l 25.52262426976004 7.9069742401166545" fill="#b5ff20" stroke="none" /><path d="M 79.94057633289273 93.78553927170692 l -35.391121364703224 -10.964259866141953 a58.050593326739644,58.050593326739644 0 0,0 0.30306634755599804,-0.9493510171900117 l 35.197690301369974 11.570179917023356" fill="#46ff2c" stroke="none" /><path d="M 80.05021161711548 93.44210830539832 l -14.09310047748685 -4.63268205149427 a35.83499996827695,35.83499996827695 0 0,0 0.19711737687094413,-0.582742499256431 l 14.01149767904354 4.873926225224863" fill="#ffb811" stroke="none" /><path d="M 80.16572619554312 93.10060997987247 l -22.397593416615045 -7.79104564235389 a44.71397442558373,44.71397442558373 0 0,0 0.25840382537849105,-0.7228014894649115 l 22.26054942119261 8.174382088199723" fill="#d8ff1c" stroke="none" /><path d="M 80.28708602549916 92.7611449362534 l -34.27868049079644 -12.587606285419149 a57.51678748448215,57.51678748448215 0 0,0 0.34830335874247637,-0.9239160399927736 l 34.05754644823953 13.174190605606068" fill="#4bff2c" stroke="none" /><path d="M 80.41425534168474 92.42381321644754 l -24.99355785085773 -9.668045099486665 a47.7983027464405,47.7983027464405 0 0,0 0.3025890334038952,-0.7627220299642582 l 24.823910142487705 10.095668146664508" fill="#b4ff20" stroke="none" /><path d="M 80.5471966667186 92.08871423366112 l -21.420522874389338 -8.711540173428904 a44.12422393088042,44.12422393088042 0 0,0 0.29137568995705454,-0.6991955843014671 l 21.267821339895807 9.077968267171636" fill="#dfff1b" stroke="none" /><path d="M 80.68587082218212 91.75594674310238 l -13.642527704494341 -5.823183842206204 a35.83334191030555,35.83334191030555 0 0,0 0.24633906980710296,-0.563671999984001 l 13.540554752670262 6.056517911966071" fill="#ffb811" stroke="none" /><path d="M 80.83023694016515 91.42560881287825 l -13.539189853680645 -6.05590741000883 a35.83184669731348,35.83184669731348 0 0,0 0.25596826940616224,-0.5593368635701998 l 13.433237119419436 6.287433255793701" fill="#ffb811" stroke="none" /><path d="M 80.9802524753101 91.09779779509293 l -13.43459133721014 -6.288067098098216 a35.83334191030555,35.83334191030555 0 0,0 0.2655433932313422,-0.5548835618313577 l 13.324668686018894 6.517763161994661" fill="#ffb811" stroke="none" /><path d="M 81.1358732173502 90.77261029715801 l -20.42981285471983 -9.993245218221038 a43.74295942199197,43.74295942199197 0 0,0 0.3357378093338965,-0.6717005205101556 l 20.25525513217419 10.342477594894962" fill="#e3ff1b" stroke="none" /><path d="M 81.29705330413844 90.45014215332179 l -21.94373583272633 -11.204627871498197 a45.63881547548972,45.63881547548972 0 0,0 0.3622677276812275,-0.6946961346191137 l 21.748160036070164 11.579670249221797" fill="#cdff1d" stroke="none" /><path d="M 81.46374523516351 90.13048839642627 l -23.592524748569875 -12.56169057437233 a47.72832381759389,47.72832381759389 0 0,0 0.39126918572681957,-0.7198912321705264 l 23.373410213227707 12.964836640017475" fill="#b5ff20" stroke="none" /><path d="M 81.63589988554816 89.8137432299009 l -27.33516446494446 -15.162354940206903 a52.25873035902736,52.25873035902736 0 0,0 0.4418765189575292,-0.7807534692076757 l 27.07085458096556 15.629365179513684" fill="#82ff25" stroke="none" /><line stroke="#e1ed5e" stroke-width="0.3" x1="26.387840678322718" x2="22.05771365940052" y1="57.49999999999999" y2="54.99999999999999" /><path d="M 25.521815274538284 56.99999999999999 a86.0,86.0 0 0,1 29.574782752854787,-30.34633250058573" fill="none" id="id35" stroke="none" /><text fill="#e1ed5e" style="font-size:6.75px; font-family:Arial;" text-anchor="middle"><textPath startOffset="21.40746469413373" xlink:href="#id35">November</textPath></text><path d="M 81.81346652052679 89.5 l -12.847332989063021 -7.417411159604297 a35.83482231920859,35.83482231920859 0 0,0 0.31214909976244776,-0.5300974137080738 l 12.718110179170795 7.636859741605944" fill="#ffb811" stroke="none" /><path d="M 81.99639281039701 89.18935116829357 l -12.721943091319282 -7.639161295222599 a35.83929315409576,35.83929315409576 0 0,0 0.3212430048988259,-0.5247263061531526 l 12.588932121965062 7.856424717500294" fill="#ffb811" stroke="none" /><path d="M 82.18462484594161 88.88188828441811 l -12.610408125956132 -7.86982733234911 a35.864608146337716,35.864608146337716 0 0,0 0.3304365320517302,-0.5195011124344684 l 12.473453902278512 8.085142119462251" fill="#ffb911" stroke="none" /><path d="M 82.37810715431573 88.57770195909679 l -19.910546190136724 -12.905775488052038 a44.727386930245245,44.727386930245245 0 0,0 0.4231542235226727,-0.6407094275205841 l 19.68606752769332 13.245664793911683" fill="#d7ff1c" stroke="none" /><path d="M 82.576782715395 88.27688183743585 l -29.247688218108017 -19.679149915996064 a56.25189650954828,56.25189650954828 0 0,0 0.5459387539166091,-0.7965409575416579 l 28.905559727376094 20.178325608607757" fill="#58ff2a" stroke="none" /><path d="M 82.78059297857968 87.97951657250589 l -21.938430134116913 -15.314728057960627 a47.75510441464984,47.75510441464984 0 0,0 0.4750152514450008,-0.6681684389470879 l 21.67229978414194 15.689073723617236" fill="#b4ff20" stroke="none" /><path d="M 82.98947788004972 87.6856937992154 l -22.799050046147986 -16.50475402080715 a49.14611142403352,49.14611142403352 0 0,0 0.5005835228052087,-0.6791376885344745 l 22.512364503758956 16.89369801861049" fill="#a5ff21" stroke="none" /><path d="M 83.2033758604659 87.39550010848427 l -21.375958634470955 -16.040917868434683 a47.72531858752072,47.72531858752072 0 0,0 0.49736150490545994,-0.6510621754400374 l 21.097445152211186 16.405500957115606" fill="#b5ff20" stroke="none" /><path d="M 83.42222388311158 87.10902102172516 l -24.682079965882824 -19.192934669696506 a52.266176815809644,52.266176815809644 0 0,0 0.5568427759866833,-0.7035526568408652 l 24.34897075925458 19.613807270452053" fill="#82ff25" stroke="none" /><path d="M 83.64595745247003 86.82634096563983 l -11.547025510587561 -9.301466380281248 a35.82737586242631,35.82737586242631 0 0,0 0.3899267005566985,-0.47564717348452124 l 11.385651990792233 9.498315835464263" fill="#ffb811" stroke="none" /><path d="M 83.8745106332314 86.54754324733833 l -24.028124686717277 -20.04511620352767 a52.29149180805159,52.29149180805159 0 0,0 0.5809471105305534,-0.6843542354342603 l 23.68048301267961 20.454637221411488" fill="#82ff25" stroke="none" /><path d="M 84.10781606972428 86.27271002978789 l -25.843291334215724 -22.322819537320473 a55.149435999455775,55.149435999455775 0 0,0 0.6249978855616274,-0.7111328644897197 l 25.456282384695506 22.763164679621493" fill="#64ff29" stroke="none" /><path d="M 84.34580500576568 86.00192230759919 l -19.922064212004003 -17.814432663918033 a47.72531858752072,47.72531858752072 0 0,0 0.5513462865422363,-0.6060261505634026 l 19.613320224619898 18.153796390039094" fill="#b5ff20" stroke="none" /><path d="M 84.58840730492382 85.73525988315684 l -27.184326099525844 -25.161406399297274 a58.04165165696529,58.04165165696529 0 0,0 0.6830788384443065,-0.7254060550617313 l 26.748391427345265 25.624353914303516" fill="#46ff2c" stroke="none" /><path d="M 84.83555147118756 85.47280134310135 l -19.30094484769724 -18.489868559057975 a47.72829420941582,47.72829420941582 0 0,0 0.5718604181736546,-0.5867791671993482 l 18.980697628372784 18.818470418325052" fill="#b5ff20" stroke="none" /><path d="M 85.08716467003674 85.21462403516908 l -27.04489244000971 -26.813740902142875 a59.08415560648476,59.08415560648476 0 0,0 0.7202867251218023,-0.7141304653183538 l 26.58061379475793 27.274051377689904" fill="#3cff2e" stroke="none" /><path d="M 85.34317274990677 84.96080404539775 l -10.348680313704023 -10.618657670836605 a35.82737586242631,35.82737586242631 0 0,0 0.4441357950588085,-0.4254720449081996 l 10.164872032779915 10.794741846050373" fill="#ffb811" stroke="none" /><path d="M 85.60350026404147 84.71141617570332 l -21.835699898490702 -23.188756599385613 a52.8514712797148,52.8514712797148 0 0,0 0.6658536115651512,-0.6163041622474813 l 21.4344165156116 23.56017850776546" fill="#7cff26" stroke="none" /><path d="M 85.86807049272753 84.46653392183569 l -25.968442985162632 -28.543867842334127 a59.589019454687865,59.589019454687865 0 0,0 0.7625549307036154,-0.6818813211822133 l 25.474623027635626 28.98544469339974" fill="#37ff2e" stroke="none" /><path d="M 86.13680546590413 84.22622945171909 l -17.65162026161115 -20.084303594474466 a47.738716288093215,47.738716288093215 0 0,0 0.6201953053891126,-0.5357099334234121 l 17.30424547645919 20.38435766036259" fill="#b4ff20" stroke="none" /><path d="M 86.40962598614128 83.9905735841838 l -9.590875403889775 -11.298027109868988 a35.819929405644025,35.819929405644025 0 0,0 0.4721845622852772,-0.3939131556842855 l 9.39551650744259 11.461002449465154" fill="#ffb811" stroke="none" /><path d="M 86.68645165197937 83.75963576809568 l -15.056806298106428 -18.366855481231198 a44.74971149650307,44.74971149650307 0 0,0 0.5982593823556309,-0.48191540986606285 l 14.739296145395553 18.622619184890663" fill="#d7ff1c" stroke="none" /><path d="M 86.96720088162412 83.53348406188908 l -23.490279785374838 -29.679201141923393 a58.85033982433892,58.85033982433892 0 0,0 0.7975343556592037,-0.6201675388040224 l 22.97733548508039 30.07806973234822" fill="#3eff2d" stroke="none" /><path d="M 87.25179093698888 83.31218511350988 l -8.996550398200771 -11.77677326439233 a35.819929405644025,35.819929405644025 0 0,0 0.4918366467402527,-0.36908338895847964 l 8.793060762549766 11.929475680614813" fill="#ffb811" stroke="none" /><path d="M 87.54013794807813 83.09580414077388 l -14.055115654018868 -19.06846374779588 a44.68865943334177,44.68865943334177 0 0,0 0.6214255797841102,-0.44986419678950523 l 13.72570906386079 19.306928715958467" fill="#d8ff1c" stroke="none" /><path d="M 87.83215693770416 82.88440491214696 l -13.755045145072534 -19.348193588040886 a44.739289417825674,44.739289417825674 0 0,0 0.6297692175860419,-0.43962782421729346 l 13.420880836312726 19.581466228063306" fill="#d7ff1c" stroke="none" /><path d="M 88.12776184653039 82.6780497279521 l -11.298297295373617 -16.484553407655508 a40.98479479065256,40.98479479065256 0 0,0 0.5837478215936835,-0.39277158620577657 l 11.013653185682944 16.676074667918392" fill="#fffa17" stroke="none" /><path d="M 88.4268655584334 82.4767994020092 l -8.15907989214929 -12.353886871965827 a35.80503649207946,35.80503649207946 0 0,0 0.5157875226864538,-0.3343272406373001 l 7.94580673720581 12.492127954307033" fill="#ffb811" stroke="none" /><path d="M 88.72937992617638 82.28071324371311 l -10.353287720443406 -16.27708793191918 a40.290779096908274,40.290779096908274 0 0,0 0.5867793108021306,-0.36619368795071877 l 10.072344280851576 16.452417416711434" fill="#fff116" stroke="none" /><path d="M 89.03521579738668 82.08984904055464 l -16.330531308083078 -26.67469560468021 a52.27659889448703,52.27659889448703 0 0,0 0.7693802055653232,-0.46199070735314374 l 15.870218345960321 26.951100312569277" fill="#82ff25" stroke="none" /><line stroke="#e1ed5e" stroke-width="0.3" x1="56.869717070023135" x2="54.33264160355391" y1="26.7553504044142" y2="22.446841604673864" /><path d="M 56.362301976729285 25.89364864446614 a86.0,86.0 0 0,1 42.16139366436587,-11.88097634709845" fill="none" id="id36" stroke="none" /><text fill="#e1ed5e" style="font-size:6.75px; font-family:Arial;" text-anchor="middle"><textPath startOffset="22.145653131862474" xlink:href="#id36">December</textPath></text><path d="M 89.34428304082924 81.90426304109057 l -7.531191195661739 -12.789609125893596 a35.842268775990874,35.842268775990874 0 0,0 0.5328679181350648,-0.30765143597779354 l 7.310530809666274 12.917007459147564" fill="#ffb811" stroke="none" /><path d="M 89.65649057296885 81.72400993836675 l -11.710350654308758 -20.69106754203597 a44.77504129283405,44.77504129283405 0 0,0 0.6721710472912584,-0.372841949154209 l 11.353435418861398 20.889042406623325" fill="#d7ff1c" stroke="none" /><path d="M 89.97174638481275 81.54914285379989 l -7.093406911127566 -13.051069769403654 a35.85418606766033,35.85418606766033 0 0,0 0.5432953813142452,-0.28927418931578286 l 6.8683227140267595 13.170914426442012" fill="#ffb911" stroke="none" /><path d="M 90.28995756902619 81.37971332152246 l -10.275630513471821 -19.704876402251482 a43.2232026602243,43.2232026602243 0 0,0 0.6608473221216712,-0.33743335139892316 l 9.935855969636567 19.87836770532324" fill="#e9ff1a" stroke="none" /><path d="M 90.61103034731259 81.2157712731953 l -6.620570302606412 -13.245575549437769 a35.80801211397457,35.80801211397457 0 0,0 0.5521932246386146,-0.2701053769261066 l 6.392216828705744 13.35727467646109" fill="#ffb811" stroke="none" /><path d="M 90.93487009805054 81.0573650232925 l -5.114802337222339 -10.687969692654638 a32.84879314951355,32.84879314951355 0 0,0 0.5107381761436185,-0.23905125511754263 l 4.930575447207198 10.774197179342723" fill="#ff910d" stroke="none" /><path d="M 91.26138138417902 80.90454125486306 l -0.9419909876811768 -2.0584203103898475 a23.263722861813697,23.263722861813697 0 0,0 0.36456092350020075,-0.16306346405389754 l 0.9065166613253574 2.074287525353591" fill="#ff0b01" stroke="none" /><path d="M 91.5904679813234 80.7573450057729 l -25.22859605602979 -57.7279649826813 a84.0,84.0 0 0,0 1.3262596993182754,-0.5661014013623844 l 24.233901281541083 58.15254103370309" fill="#4dd2ff" stroke="none" /><path d="M 91.92203290615298 80.6158196554323 l -0.8659062833411679 -2.077859857904664 a23.25106536569272,23.25106536569272 0 0,0 0.3697423595925017,-0.15037099879852153 l 0.8301094625582254 2.0924181132824766" fill="#ff0a01" stroke="none" /><path d="M 92.25597844496254 80.48000691201159 l -2.7360906201627984 -6.896735709490071 a28.41964657704788,28.41964657704788 0 0,0 0.4550225461587772,-0.17601249585181905 l 2.6172958115104916 6.94268809347993" fill="#ff5407" stroke="none" /><path d="M 92.592206182469 80.34994680014964 l -2.6178180288399844 -6.94407333698956 a28.42112698595092,28.42112698595092 0 0,0 0.45800084258387785,-0.16818425336949638 l 2.4982280346019796 6.987988439367778" fill="#ff5407" stroke="none" /><path d="M 92.93061703081487 80.22567764915836 l -4.994457642264856 -13.97038692291329 a35.83631753220065,35.83631753220065 0 0,0 0.5810504414703208,-0.2021195056897007 l 4.753901428749531 14.054064861171575" fill="#ffb811" stroke="none" /><path d="M 93.27111125876988 80.10723608172694 l -4.7510363096508454 -14.045594645654614 a35.82737586242631,35.82737586242631 0 0,0 0.5842886477442119,-0.19206728396072173 l 4.509224924258873 14.125082851017364" fill="#ffb811" stroke="none" /><path d="M 93.61358852112211 79.99465700312896 l -6.760670128750356 -21.177702887085943 a43.230649117006585,43.230649117006585 0 0,0 0.7088989985943626,-0.21961872186362097 l 6.3961304972843775 21.290638196756206" fill="#e9ff1a" stroke="none" /><path d="M 93.95794788825049 79.88797359093562 l -8.965808730348856 -29.844261292076727 a52.1619264208577,52.1619264208577 0 0,0 0.8597775507364909,-0.25026871448711263 l 8.452171167230741 29.99377370086636" fill="#83ff25" stroke="none" /><path d="M 94.30408787586887 79.78721728523814 l -8.480447409542753 -30.09411610948978 a52.266176815809644,52.266176815809644 0 0,0 0.8656737332654925,-0.23594322548160834 l 7.962592275342582 30.235259829115527" fill="#82ff25" stroke="none" /><path d="M 94.6519064749342 79.69241777938228 l -10.377464085801709 -39.40492143157362 a61.748491921549615,61.748491921549615 0 0,0 1.0273617251764255,-0.2611513330730745 l 9.699497067399905 39.577257996481954" fill="#31ff41" stroke="none" /><path d="M 95.00130118170881 79.60360301121753 l -7.05552291896426 -28.788941212474015 a50.640909901609206,50.640909901609206 0 0,0 0.8461079518966235,-0.19967917281509281 l 6.5602828133277304 28.90581652893534" fill="#94ff23" stroke="none" /><path d="M 95.35216902796891 79.52079915486377 l -5.2616868468999 -23.18396309381833 a44.77354607984198,44.77354607984198 0 0,0 0.7509964605026707,-0.16367618317773475 l 4.862927969778111 23.27087073512978" fill="#d7ff1c" stroke="none" /><path d="M 95.70440661134978 79.44403061299748 l -6.063506057351493 -29.016071498328476 a50.64284923727219,50.64284923727219 0 0,0 0.8524964375286006,-0.17052316306090598 l 5.564513134291915 29.11588405805225" fill="#94ff23" stroke="none" /><path d="M 96.05791012581881 79.37332000966035 l -7.101017978581118 -37.155526668519876 a58.82800045399207,58.82800045399207 0 0,0 0.9935356407464154,-0.18105529015753402 l 6.462147604283665 37.27195013260877" fill="#3eff2d" stroke="none" /><path d="M 96.41257539226777 79.30868818359171 l -2.530920983408115 -14.597679666219456 a35.815458570756846,35.815458570756846 0 0,0 0.6066840167661356,-0.09982962408852422 l 2.2799594635889067 14.63897528880365" fill="#ffb811" stroke="none" /><path d="M 96.76829788921471 79.25015418208739 l -5.928630922738021 -38.06606343684002 a59.52497696554242,59.52497696554242 0 0,0 1.01100308918523,-0.1485826383067782 l 5.2743027279451065 38.16222714844569" fill="#37ff2e" stroke="none" /><path d="M 97.12497278360702 79.19773525538626 l -5.430078202662719 -39.28934088403639 a60.66280444432852,60.66280444432852 0 0,0 1.0327760940547217,-0.13371354227312238 l 4.754824286717203 39.376766022509905" fill="#30ff33" stroke="none" /><path d="M 97.48249496171623 79.15144685158666 l -3.1951136288584308 -26.460124326855876 a47.65233442860094,47.65233442860094 0 0,0 0.8129581252704717,-0.09109365360493686 l 2.74041960198716 26.51107374096778" fill="#b5ff1f" stroke="none" /><path d="M 97.84075906011542 79.11130261209362 l -3.8144788194655415 -36.901622362094216 a58.09824768932844,58.09824768932844 0 0,0 0.992927926774547,-0.09403130700882338 l 3.1804513293059786 36.96166542460822" fill="#45ff2d" stroke="none" /><path d="M 98.1996594967304 79.07731436759882 l -2.2878560708110833 -26.58835551098684 a47.68660589470627,47.68660589470627 0 0,0 0.8161926044043966,-0.06317846954369362 l 1.8310944716314697 26.623711747525586" fill="#b5ff20" stroke="none" /><path d="M 98.5590905019552 79.04949213459386 l -3.0509045010782745 -44.35948186417995 a65.46427385590829,65.46427385590829 0 0,0 1.1217946990759229,-0.0674843834344287 l 2.2889654498698677 44.40531822543907" fill="#36ff6c" stroke="none" /><path d="M 98.9189461498227 79.02784411241856 l -0.7621448429418013 -14.785406344439156 a35.80503649207946,35.80503649207946 0 0,0 0.6140977040568857,-0.026371997711997587 l 0.5082213782840955 14.796310910576983" fill="#ffb811" stroke="none" /><path d="M 99.27912038922189 79.0123766808444 l -1.2207341677667025 -35.540343356716726 a56.56130197028326,56.56130197028326 0 0,0 0.970663817567347,-0.025000856758934292 l 0.6104570361286117 35.556061930825706" fill="#55ff2b" stroke="none" /><path d="M 99.63950707515114 79.00309439819443 l -0.5337341151001648 -31.08733641837772 a52.09191788383302,52.09191788383302 0 0,0 0.8942270399490093,-0.007675863649732597 l 7.615323543157691e-15 31.09191788383302" fill="#84ff25" stroke="none" /></svg>