<?xml version="1.0" encoding="utf-8" ?>
<svg baseProfile="full" height="200mm" version="1.1" viewBox="0,0,200,200" width="200mm" xmlns="http://www.w3.org/2000/svg" xmlns:ev="http://www.w3.org/2001/xml-events" xmlns:xlink="http://www.w3.org/1999/xlink"><defs /><rect fill="#1a1a1a" height="200" width="200" x="0" y="0" /><text alignment-baseline="middle" fill="#e1ed5e" style="dominant-baseline: central; font-size:9.0px; font-family:Arial;" text-anchor="middle" x="100.0" y="100.0">2025</text><line stroke="#e1ed5e" stroke-width="0.3" x1="100.0" x2="100.0" y1="15.0" y2="10.0" /><path d="M 100.0 14.0 a86.0,86.0 0 0,1 42.46469731375804,11.215312516191453" fill="none" id="id37" stroke="none" /><text fill="#e1ed5e" style="font-size:6.75px; font-family:Arial;" text-anchor="middle"><textPath startOffset="22.20632615414155" xlink:href="#id37">January</textPath></text><path d="M 100.0 79.0 l 0.0 -15.551192766996706 a36.55119276699671,36.55119276699671 0 0,0 0.629168699018883,0.005415453628102842 l -0.2676882197463546 15.548888689977163" fill="#ffc912" stroke="none" /><path d="M 100.36148047927253 79.00311137660856 l 0.25412618021204714 -14.761126556373268 a35.76331390063685,35.76331390063685 0 0,0 0.6154242419454903,0.01589459249108012 l -0.5081770573524053 14.754565171739829" fill="#ffbf11" stroke="none" /><path d="M 100.72285384407766 79.0124445844662 l 0.2675139012829653 -7.767078882683064 a28.77168437709618,28.77168437709618 0 0,0 0.4948170276375681,0.021307862085340606 l -0.401171761309865 7.761323294073528" fill="#ff6309" stroke="none" /><path d="M 101.08401301168833 79.027996857942 l 1.4047679359432954 -27.17753131079165 a48.213812322107955,48.213812322107955 0 0,0 0.8284463455209956,0.04997414595066189 l -1.872376330303903 27.149323895460682" fill="#aaff21" stroke="none" /><path d="M 101.44485096284872 79.0497635885617 l 0.534657288577425 -7.752492736490264 a28.770907414553545,28.770907414553545 0 0,0 0.4937770139596599,0.03832659959629035 l -0.668024491899426 7.742140874705508" fill="#ff6309" stroke="none" /><path d="M 101.80526077348638 79.07773832637324 l 1.6358603447746298 -18.958977394044837 a40.02942098161448,40.02942098161448 0 0,0 0.6859801327814106,0.06514207930568454 l -1.9619656046462846 18.928009770223976" fill="#fff417" stroke="none" /><path d="M 102.16513564639614 79.11191278185805 l 1.8426170434568716 -17.776597774567378 a38.87184002859223,38.87184002859223 0 0,0 0.6649552016244668,0.0747154647427361 l -2.148338948591064 17.74224635635404" fill="#ffe615" stroke="none" /><path d="M 102.52436894288641 79.15227682838746 l 2.0590792940464966 -17.005087640476653 a38.129296926595174,38.129296926595174 0 0,0 0.6508948266921628,0.08450482931125088 l -2.351488849246506 16.967124488001268" fill="#ffdd14" stroke="none" /><path d="M 102.88285421437855 79.19881850522331 l 1.7569367587363 -12.677144827872096 a33.79831347330745,33.79831347330745 0 0,0 0.5755869193928973,0.08482654981428298 l -1.974892658557853 12.645023793896845" fill="#ffa60f" stroke="none" /><path d="M 103.2404852339499 79.25152402106235 l 2.1583420713100074 -13.819630514507853 a34.987159399045375,34.987159399045375 0 0,0 0.5942332341811061,0.09805357522670742 l -2.395904511629989 13.78043067634152" fill="#ffb510" stroke="none" /><path d="M 103.59715602781102 79.31037775812273 l 3.996121649526116 -22.984337271462444 a44.32913946218653,44.32913946218653 0 0,0 0.7506503938125457,0.13717656143267493 l -4.391167164441563 22.91214522867903" fill="#d6ff1c" stroke="none" /><path d="M 103.95276090670814 79.375362276772 l 1.4628385802409567 -7.632770227470459 a28.77168437709618,28.77168437709618 0 0,0 0.48560244759299115,0.0974072826765109 l -1.594007437301073 7.6064589887167395" fill="#ff6309" stroke="none" /><path d="M 104.307194497241 79.44645832069477 l 3.5064004363415426 -16.732225015342134 a38.09567775737532,38.09567775737532 0 0,0 0.6406555132533193,0.14002248113136917 l -3.79389867374839 16.669389036114897" fill="#ffdc14" stroke="none" /><path d="M 104.66035177308747 79.52364482259891 l 3.6213084430241955 -15.911073132824848 a37.31796933069857,37.31796933069857 0 0,0 0.6251227457713698,0.14794635701820705 l -3.8946548757580888 15.846380863665773" fill="#ffd313" stroke="none" /><path d="M 105.01212808612495 79.60689891045804 l 4.080087257300031 -16.600859048795908 a38.09490079483268,38.09490079483268 0 0,0 0.6354431016597935,0.16198859534394158 l -4.365239247644849 16.5281674572831" fill="#ffdc14" stroke="none" /><path d="M 105.36241919743992 79.69619591428918 l 4.964010282994563 -18.795302745725834 a40.43977374850759,40.43977374850759 0 0,0 0.6714968793057221,0.18354546305582387 l -5.286805051523996 18.707070741843715" fill="#fff917" stroke="none" /><path d="M 105.71112130821622 79.79150937346287 l 6.2513532329227495 -22.120071767508882 a43.986452363131576,43.986452363131576 0 0,0 0.7268442503642444,0.21218576806300346 l -6.631187701010421 22.009187670527176" fill="#daff1b" stroke="none" /><path d="M 106.0581310904928 79.89281104454417 l 7.87641116694776 -26.14213612399701 a48.302914386497434,48.302914386497434 0 0,0 0.7940415517581332,0.24671257532747007 l -8.325238091416612 26.002683413787018" fill="#a9ff21" stroke="none" /><path d="M 106.40334571778207 80.00007090966166 l 2.3988301422016605 -7.4924008258009644 a28.8670487595793,28.8670487595793 0 0,0 0.4719311290632995,0.15558827336780076 l -2.5274440935073774 7.449998828173928" fill="#ff6409" stroke="none" /><path d="M 106.74666289553966 80.11325718540242 l 5.27159849773871 -15.538781938498374 a37.40864085942417,37.40864085942417 0 0,0 0.6080115394693044,0.2121232875013109 l -5.538292041271288 15.445737797824854" fill="#ffd413" stroke="none" /><path d="M 107.08798089147638 80.2323363322302 l 5.507685701558692 -15.360379803947126 a37.31796156107315,37.31796156107315 0 0,0 0.6028053394121726,0.22201829378903165 l -5.771273366743442 15.26329824235177" fill="#ffd313" stroke="none" /><path d="M 107.4271985657038 80.35727306442388 l 5.241255185022857 -13.861558094659697 a35.8193639784626,35.8193639784626 0 0,0 0.5748442228450666,0.2230306277230531 l -5.479082572867591 13.769284763046098" fill="#ffc011" stroke="none" /><path d="M 107.76421540070413 80.48803036053334 l 2.872805056949424 -7.219542755887467 a28.770122682385484,28.770122682385484 0 0,0 0.4585630540816872,0.18705938359250562 l -2.996651980619499 7.169022486111382" fill="#ff6309" stroke="none" /><path d="M 108.09893153111575 80.62456947434976 l 7.981677046749127 -19.094917459582444 a41.69596678744118,41.69596678744118 0 0,0 0.6598212856239178,0.2825010398364251 l -8.30918209016336 18.95469689178323" fill="#f6ff19" stroke="none" /><path d="M 108.43124777332544 80.76684994638697 l 8.427442091552473 -19.22446862821035 a41.990521056979844,41.990521056979844 0 0,0 0.6594868904518643,0.2958925441643101 l -8.757111100471118 19.076555753529508" fill="#f2ff19" stroke="none" /><path d="M 108.76106565485865 80.91482961587045 l 3.241645474604079 -7.061624538043657 a28.770122682385484,28.770122682385484 0 0,0 0.44829576215524697,0.21048087132178758 l -3.3627194480589235 7.004778684081866" fill="#ff6309" stroke="none" /><path d="M 109.08828744355905 81.06846463323043 l 5.38150311084957 -11.210045578128403 a33.434858165487846,33.434858165487846 0 0,0 0.5166939122919851,0.2535394587846532 l -5.573668290151987 11.115750959208917" fill="#ffa10e" stroke="none" /><path d="M 109.41281617654863 81.2277094730956 l 5.59258563261118 -11.153478440759622 a33.47706277080382,33.47706277080382 0 0,0 0.5128997072780497,0.26272715120052764 l -5.783745827477985 11.055558764246593" fill="#ffa20e" stroke="none" /><path d="M 109.73455568895987 81.39251694778311 l 5.0435245270966895 -9.640634884633284 a31.88021050505155,31.88021050505155 0 0,0 0.4840553827264694,0.25856562155297796 l -5.20872495635147 9.552390536578553" fill="#ff8c0c" stroke="none" /><path d="M 110.05341064243156 81.56283822128135 l 4.093259325452781 -7.506714593662385 a29.550177535940993,29.550177535940993 0 0,0 0.44448520224992605,0.24735553381816616 l -4.221868616774742 7.435143662284039" fill="#ff6d0a" stroke="none" /><path d="M 110.36928655335952 81.73862282372117 l 4.987589722174734 -8.78365706728933 a31.10092484441325,31.10092484441325 0 0,0 0.46326051974679594,0.26835039443486675 l -5.138046974386858 8.696502515464413" fill="#ff820c" stroke="none" /><line stroke="#e1ed5e" stroke-width="0.3" x1="143.23703022742887" x2="145.7803849466894" y1="26.81831364943548" y2="22.513508569990506" /><path d="M 143.74570117128098 25.957352633546492 a86.0,86.0 0 0,1 28.547481713284135,27.462654790039103" fill="none" id="id38" stroke="none" /><text fill="#e1ed5e" style="font-size:6.75px; font-family:Arial;" text-anchor="middle"><textPath startOffset="19.985693538727396" xlink:href="#id38">February</textPath></text><path d="M 110.68208982089419 81.91981866633111 l 8.357332961503989 -14.14536836362151 a37.429743162082154,37.429743162082154 0 0,0 0.5518889683196014,0.3325069282847458 l -8.599583996041227 13.99941482587815" fill="#ffd413" stroke="none" /><path d="M 110.99172775467656 82.1063720568725 l 4.08132248595347 -6.644057031752835 a28.79747953351169,28.79747953351169 0 0,0 0.4201426756676054,0.2630933049590914 l -4.195084313993338 6.572819385470799" fill="#ff6309" stroke="none" /><path d="M 111.2981086023043 82.29822771554956 l 6.69506337946069 -10.489763512186885 a33.444236103377456,33.444236103377456 0 0,0 0.4826050636561537,0.31389975793516434 l -6.874635468901124 10.372964830092192" fill="#ffa10e" stroke="none" /><path d="M 111.60114157652 82.49532879139004 l 4.292490157394449 -6.476830609796211 a28.770122682385484,28.770122682385484 0 0,0 0.4104473189043124,0.27713586192154355 l -4.4033421707053035 6.401982835575997" fill="#ff6309" stroke="none" /><path d="M 111.90073688211348 82.69761687909136 l 5.45755811013281 -7.934698688117725 a30.630388558967574,30.630388558967574 0 0,0 0.4318430587982622,0.30253365996000037 l -5.593332308514723 7.839580185393789" fill="#ff7c0b" stroke="none" /><path d="M 112.19680574252982 82.90503203632743 l 4.514252184071893 -6.327148115309854 a28.772469109264243,28.772469109264243 0 0,0 0.4006973024319172,0.291123631073812 l -4.622494802857599 6.248505249419368" fill="#ff6309" stroke="none" /><path d="M 112.48926042617603 83.11751280151076 l 3.7085922690757864 -5.013128029251785 a27.235792592439118,27.235792592439118 0 0,0 0.3744971365002732,0.2820634790721447 l -3.7943355593344426 4.948547960673793" fill="#ff4d07" stroke="none" /><path d="M 112.77801427241765 83.33499621200491 l 2.371307258279123 -3.0926436298497673 a24.89711979985445,24.89711979985445 0 0,0 0.3378508863454323,0.2636979756945708 l -2.4241906997839857 3.0513672649319723" fill="#ff2d04" stroke="none" /><path d="M 113.06298171725822 83.55741782278167 l 20.591348891765616 -25.9186572882759 a54.10257459487879,54.10257459487879 0 0,0 0.7241928498824538,0.5855802537013596 l -21.03444514021256 25.56037093731041" fill="#6bff28" stroke="none" /><path d="M 113.34407831869373 83.78471172551755 l 1.364843393227122 -1.6585131278566314 a23.14789740986587,23.14789740986587 0 0,0 0.30548882392323307,0.25583810464745116 l -1.3931897541094724 1.6347738658153608" fill="#ff1402" stroke="none" /><path d="M 113.6212207817346 84.01681056812373 l 1.3374214439065584 -1.5693351301431455 a23.06191873489779,23.06191873489779 0 0,0 0.29992157245737894,0.2600890321587869 l -1.3642368150107014 1.5460811045646874" fill="#ff1202" stroke="none" /><path d="M 114.16331599549186 84.49514656593476 l 2.6279002446304336 -2.8768127566530426 a24.8963972246898,24.8963972246898 0 0,0 0.3139223670004626,0.29175662763143845 l -2.6770304954257433 2.8311515429469636" fill="#ff2d04" stroke="none" /><path d="M 114.42810811169701 84.74124197986012 l 5.346539547858379 -5.654348621060035 a28.781847047153857,28.781847047153857 0 0,0 0.3570549255032391,0.3434865554398693 l -5.443077716974037 5.561478978857864" fill="#ff6309" stroke="none" /><path d="M 114.68862486808459 84.99185889309783 l 8.161336837087324 -8.338867386973961 a32.66808160178598,32.66808160178598 0 0,0 0.39849490398048176,0.3967836402215261 l -8.303667541235129 8.197147896102315" fill="#ff970d" stroke="none" /><path d="M 114.94478906791727 85.2469230424477 l 5.534110353698247 -5.463118654178197 a28.776377230853704,28.776377230853704 0 0,0 0.3449544052460021,0.3555058369542812 l -5.627329022647358 5.367048621673801" fill="#ff6309" stroke="none" /><path d="M 115.19652480421416 85.50635884689758 l 8.621145045186944 -8.222391910230423 a32.91351629937921,32.91351629937921 0 0,0 0.38749032276496864,0.4133476593442346 l -8.761402689922376 8.072774834008134" fill="#ff9a0e" stroke="none" /><path d="M 115.4437574822437 85.77008943001954 l 12.158010773563637 -11.202416653821658 a37.53213128595071,37.53213128595071 0 0,0 0.4336862065604661,0.47888714123351667 l -12.349040620740139 10.991476725318591" fill="#ffd513" stroke="none" /><path d="M 115.68641384162765 86.03803664274999 l 10.487140353955583 -9.334260260028485 a35.039534444044456,35.039534444044456 0 0,0 0.39712829972032476,0.4539862971483566 l -10.646260517253756 9.15235840667718" fill="#ffb610" stroke="none" /><path d="M 115.9244219780498 86.31012108654704 l 8.852127737659966 -7.609981512799886 a32.67355918771156,32.67355918771156 0 0,0 0.36297117038540927,0.42964337873572506 l -8.981809521532492 7.456479184435055" fill="#ff970d" stroke="none" /><path d="M 116.15771136456269 86.58626213691792 l 5.985065316492215 -4.968655240675153 a28.778723657732463,28.778723657732463 0 0,0 0.3131419881861045,0.38387505119070103 l -6.069705796754728 4.86489601987635" fill="#ff6309" stroke="none" /><path d="M 116.38621287248628 86.86637796730983 l 15.178535598155186 -12.16566336024022 a40.45228284544402,40.45228284544402 0 0,0 0.43080895185915924,0.5470836195271014 l -15.385698630608308 11.90258734676008" fill="#fff917" stroke="none" /><path d="M 116.60985879189232 87.15038557335679 l 6.155018123491894 -4.761606384906622 a28.781847047153857,28.781847047153857 0 0,0 0.29977535400010014,0.39446922659211425 l -6.2360694177161085 4.654952382433474" fill="#ff6309" stroke="none" /><path d="M 116.82858285166822 87.43820079747576 l 6.2348179363433465 -4.654018206463406 a28.78028535244316,28.78028535244316 0 0,0 0.2929249048735022,0.3995492410518277 l -6.314005453730474 4.546006521740084" fill="#ff6309" stroke="none" /><path d="M 117.04232023915458 87.72973835380427 l 13.48243688604245 -9.70718927344062 a37.61341710716127,37.61341710716127 0 0,0 0.37378311791987134,0.5286897124762282 l -13.647532623766203 9.473673060632601" fill="#ffd614" stroke="none" /><path d="M 117.2510076193507 88.02491185347247 l 11.535075899729105 -8.007274341540203 a35.041880870923215,35.041880870923215 0 0,0 0.33969855344146593,0.4984657105754816 l -11.671198918839304 7.807530607694315" fill="#ffb610" stroke="none" /><path d="M 117.45458315368197 88.32363383020206 l 13.64227440525182 -9.126095418152719 a37.41332594355626,37.41332594355626 0 0,0 0.3534728452215333,0.538363393650388 l -13.797343885831278 8.889913960524657" fill="#ffd413" stroke="none" /><path d="M 117.65298651832404 88.62581576622439 l 6.536965829412499 -4.211902252146088 a28.776377230853704,28.776377230853704 0 0,0 0.2647048552865314,0.41869951205479555 l -6.6084982809449855 4.098755092377086" fill="#ff6309" stroke="none" /><line stroke="#e1ed5e" stroke-width="0.3" x1="172.23445277983987" x2="176.4835382374775" y1="55.19839476539836" y2="52.563006222186495" /><path d="M 173.08426987136738 54.67131705675599 a86.0,86.0 0 0,1 12.851231095245387,41.99856678651699" fill="none" id="id39" stroke="none" /><text fill="#e1ed5e" style="font-size:6.75px; font-family:Arial;" text-anchor="middle"><textPath startOffset="22.20632615414155" xlink:href="#id39">March</textPath></text><path d="M 117.84615892207809 88.93136811851018 l 13.93769447127014 -8.644504963379594 a37.400816846619826,37.400816846619826 0 0,0 0.3346201246033483,0.5500275024102715 l -14.084430394159712 8.403309687762242" fill="#ffd413" stroke="none" /><path d="M 118.03404312379186 89.2402003453031 l 13.378330295626652 -7.982023371420108 a36.57858846625004,36.57858846625004 0 0,0 0.3179555926688197,0.543489174690684 l -13.5137455627658 7.750554784375528" fill="#ffc912" stroke="none" /><path d="M 118.21658344932153 89.55222093294921 l 6.744313143677645 -3.8680740480331504 a28.774815536143002,28.774815536143002 0 0,0 0.24272565216416742,0.4317818511439592 l -6.809896437134245 3.751408686954397" fill="#ff6309" stroke="none" /><path d="M 118.3937258080291 89.86733742301442 l 14.474197819550806 -7.973488574785045 a37.52509977493985,37.52509977493985 0 0,0 0.30679789082743714,0.5684498971788209 l -14.609303809596708 7.723157694273765" fill="#ffd513" stroke="none" /><path d="M 118.56541770881063 90.18545643968196 l 6.876916854629072 -3.6354581991662758 a28.778723657732463,28.778723657732463 0 0,0 0.22775011417175847,0.4399407291744602 l -6.938476401960947 3.5165447477314706" fill="#ff6309" stroke="none" /><path d="M 118.73160827565052 90.50648371742162 l 14.629922660340279 -7.414708173742204 a37.40160157878789,37.40160157878789 0 0,0 0.28610441872087033,0.5767690498129998 l -14.755387092014557 7.161779535430254" fill="#ffd413" stroke="none" /><path d="M 118.89224826269711 90.83032412892265 l 6.99018630770004 -3.3928065007812624 a28.77006052538207,28.77006052538207 0 0,0 0.212407721292249,0.4473848317640103 l -7.047552222834045 3.2719792533767116" fill="#ff6309" stroke="none" /><path d="M 119.04729006885535 91.15688171328212 l 1.8234026942418704 -0.8465543209144786 a23.010336191692197,23.010336191692197 0 0,0 0.163699567282536,0.36069029730714364 l -1.8377045784877533 0.8150420147652722" fill="#ff1202" stroke="none" /><path d="M 119.196687751892 91.48605970444005 l 7.114321531218788 -3.1552791576892507 a28.782631779321918,28.782631779321918 0 0,0 0.19696817056504057,0.45462969439285295 l -7.16758041162651 3.0323503187097947" fill="#ff6309" stroke="none" /><path d="M 119.34039704204932 91.81776055985345 l 15.100366582869935 -6.388432189184123 a37.39613176248773,37.39613176248773 0 0,0 0.24570738940807382,0.5949999327869565 l -15.208095659164206 6.127557685943864" fill="#ffd413" stroke="none" /><path d="M 119.47837535516314 92.15188598940014 l 17.301772038053322 -6.971129627813551 a39.65336334135331,39.65336334135331 0 0,0 0.24963954298149693,0.6353054074013021 l -17.419205130916517 6.672275215516464" fill="#fff016" stroke="none" /><path d="M 119.61058180528143 92.48833698450437 l 13.077793994275453 -5.0093353907844484 a35.00436134973933,35.00436134973933 0 0,0 0.21068526938276697,0.5645317758200652 l -13.162083852159846 4.783480477935051" fill="#ffb510" stroke="none" /><path d="M 119.7369772167798 92.82701384747503 l 15.415144603773154 -5.602307666851295 a37.40160157878789,37.40160157878789 0 0,0 0.21469751633818301,0.6069787901665235 l -15.509295200921146 5.336131250258156" fill="#ffd413" stroke="none" /><path d="M 119.85752413597 93.16781622104841 l 7.356267682519348 -2.530998949818443 a28.779500620275098,28.779500620275098 0 0,0 0.15713978214370308,0.46982794748067863 l -7.3987447584348205 2.40399789941545" fill="#ff6309" stroke="none" /><path d="M 119.97218684219823 93.5106431181261 l 15.589184785601786 -5.065233185056377 a37.39143890873021,37.39143890873021 0 0,0 0.19362447311145425,0.6138424924219741 l -15.674064742481445 4.796140526207984" fill="#ffd413" stroke="none" /><path d="M 120.08093135843002 93.85539295169968 l 7.438286467958156 -2.276057153051586 a28.778723657732463,28.778723657732463 0 0,0 0.14087062288889707,0.4749457098434518 l -7.476362987958756 2.1476820564616044" fill="#ff6309" stroke="none" /><path d="M 120.18372546131832 94.20196356495316 l 15.758056347762512 -4.526705687953835 a37.39534703031967,37.39534703031967 0 0,0 0.1723983005617529,0.6202084131136193 l -15.833641418890627 4.254785971421264" fill="#ffd413" stroke="none" /><path d="M 120.28053869075195 94.5502522615342 l 14.800072906704964 -3.9770474089637577 a36.325112206340535,36.325112206340535 0 0,0 0.15706921112183633,0.605251743016078 l -14.866338449697103 3.7216992403988294" fill="#ffc612" stroke="none" /><path d="M 120.37134235888165 94.90015583598534 l 13.972461372911878 -3.497922440957722 a35.40365017002531,35.40365017002531 0 0,0 0.1429080135932671,0.5924459772814701 l -14.030602186765964 3.2568912320168457" fill="#ffba11" stroke="none" /><path d="M 120.45610955862082 95.25157060432595 l 24.426035820390975 -5.669959196148915 a46.075479321141934,46.075479321141934 0 0,0 0.17268565924501986,0.774115950140385 l -24.520015866638033 5.2486650764585665" fill="#c2ff1e" stroke="none" /><path d="M 120.53481517161879 95.60439243477599 l 7.623992678234979 -1.6319640383215772 a28.796702570969053,28.796702570969053 0 0,0 0.09958270552524721,0.48560063821913374 l -7.650954679675223 1.5004877439390316" fill="#ff6309" stroke="none" /><path d="M 120.6074358757038 95.95851677861258 l 30.823317101111364 -6.04499849680553 a52.41049003027564,52.41049003027564 0 0,0 0.1660021811377772,0.8867902894612727 l -30.922805006159 5.513530129881695" fill="#7cff26" stroke="none" /><path d="M 120.67395015179393 96.31383870115 l 41.29988757579344 -7.36376193765444 a62.95123006119875,62.95123006119875 0 0,0 0.18102417135276044,1.0684149065147848 l -41.42052360866642 6.651761242823817" fill="#33ff52" stroke="none" /><path d="M 120.78858239683441 97.02765380044208 l 9.240953528913055 -1.3212691744742822 a30.33493301287945,30.33493301287945 0 0,0 0.06945833083675101,0.517545242533895 l -9.262327858807643 1.1620055898757229" fill="#ff780b" stroke="none" /><path d="M 120.83666639777658 97.38593545837742 l 7.715894197264964 -0.9679977134026586 a28.776377230853704,28.776377230853704 0 0,0 0.05742894340860192,0.492016115860198 l -7.731413493677155 0.835037859217608" fill="#ff6309" stroke="none" /><path d="M 120.87857604477298 97.74499172005257 l 11.592844618662369 -1.2520949966687196 a32.66026535860706,32.66026535860706 0 0,0 0.05555802640907527,0.5594617439608216 l -11.612679770753672 1.052357722003463" fill="#ff970d" stroke="none" /><path d="M 120.91429891909075 98.10471618934814 l 7.930684557189863 -0.7186900267026575 a28.96318233497963,28.96318233497963 0 0,0 0.040721567079541186,0.4969062623174743 l -7.9418806080888995 0.5820698471774144" fill="#ff6509" stroke="none" /><path d="M 120.94382443527127 98.46500227214037 l 12.744589304300549 -0.9340660625315325 a33.77877286536016,33.77877286536016 0 0,0 0.03750957237220405,0.5802564824682955 l -12.758779467677169 0.7145505158102017" fill="#ffa50f" stroke="none" /><path d="M 120.96714384426684 98.82574320788733 l 7.781377754968541 -0.4357930554888001 a28.793571411922233,28.793571411922233 0 0,0 0.023454957758530372,0.4950970875001252 l -7.787726320960568 0.3017848613656751" fill="#ff6309" stroke="none" /><path d="M 120.98425023603335 99.18683210126433 l 16.38690154827957 -0.6350144584113407 a37.399200764531145,37.399200764531145 0 0,0 0.019391139287566087,0.6434975094605191 l -16.395404382022782 0.3528468015258226" fill="#ffd413" stroke="none" /><line stroke="#e1ed5e" stroke-width="0.3" x1="184.98032266829074" x2="189.97916517819016" y1="98.17113171792111" y2="98.06355123074" /><path d="M 185.9800911702706 98.14961562048488 a86.0,86.0 0 0,1 -9.607161424134198,41.387399972396054" fill="none" id="id40" stroke="none" /><text fill="#e1ed5e" style="font-size:6.75px; font-family:Arial;" text-anchor="middle"><textPath startOffset="21.466115282336823" xlink:href="#id40">April</textPath></text><path d="M 120.99513854157772 99.54816195383933 l 18.662941766769126 -0.401646653905509 a39.66726320124107,39.66726320124107 0 0,0 0.008815563572375996,0.6827751137724336 l -18.667090337459218 0.0803352820726127" fill="#fff016" stroke="none" /><path d="M 120.99980553446 99.90962569577887 l 14.008940015066157 -0.060288568132671874 a35.009069742747705,35.009069742747705 0 0,0 -0.0025935097471795547,0.6026403280433077 l -14.007902208029474 -0.18086123811432053" fill="#ffb510" stroke="none" /><path d="M 120.99824983174949 100.27111621757518 l 16.41039647033494 0.21188073556584097 a37.411764248845564,37.411764248845564 0 0,0 -0.01385649319860952,0.6438567908948606 l -16.404317914451322 -0.49432734225081637" fill="#ffd413" stroke="none" /><path d="M 120.9904718944345 100.63252640178507 l 7.777539662840808 0.23436820298364713 a28.781070084611223,28.781070084611223 0 0,0 -0.019184456925933235,0.4950655890402903 l -7.772353073063671 -0.3682110390379436" fill="#ff6309" stroke="none" /><path d="M 120.9764740272857 100.99374915477107 l 19.424243214541708 0.9202130563701858 a40.446028296975804,40.446028296975804 0 0,0 -0.03893151542800618,0.6951483606798275 l -19.40552534822617 -1.2544331333854366" fill="#fff917" stroke="none" /><path d="M 120.95626037817324 101.35467743843564 l 7.783580177637019 0.5031546786793117 a28.79982596039045,28.79982596039045 0 0,0 -0.036237643416269616,0.49443385347326 l -7.773765975556412 -0.637061668649342" fill="#ff6309" stroke="none" /><path d="M 120.92983693683757 101.71520430193887 l 16.346802216524203 1.3396236946011602 a37.40160157878789,37.40160157878789 0 0,0 -0.058106778637711014,0.6412034603073717 l -16.321320841609417 -1.6208085434571025" fill="#ffd413" stroke="none" /><path d="M 120.89721153311464 102.0752229133903 l 13.92880953215145 1.3832173087574464 a34.99732206910305,34.99732206910305 0 0,0 -0.06469121411185834,0.5989602988484856 l -13.90293601653854 -1.6227739294907233" fill="#ffb510" stroke="none" /><path d="M 120.8583938346157 102.4346265915055 l 13.915623148693616 1.6242547927613857 a35.01009533330398,35.01009533330398 0 0,0 -0.07501911672012594,0.5979761722267556 l -13.885602522726641 -1.8635487192755362" fill="#ffb510" stroke="none" /><path d="M 120.81339534386255 102.79330883721812 l 16.25588879909406 2.1816583545910593 a37.401632657289596,37.401632657289596 0 0,0 -0.09112809659231888,0.6373496953207847 l -16.215926651485137 -2.4611535218922533" fill="#ffd413" stroke="none" /><path d="M 120.76222939487914 103.15116336523771 l 7.68601004166593 1.1665352890340597 a28.77403080397494,28.77403080397494 0 0,0 -0.07853699836371854,0.4890499637802946 l -7.664791288940923 -1.2986644825075593" fill="#ff6309" stroke="none" /><path d="M 120.70491114924044 103.5080841355445 l 19.162801720492425 3.2468007335887776 a40.43591224467069,40.43591224467069 0 0,0 -0.12218107091355794,0.6852563316607313 l -19.104074207239677 -3.5761758159827273" fill="#fff917" stroke="none" /><path d="M 120.64145759157962 103.86396538481128 l 7.649755420178726 1.4319914189539105 a28.782631779321918,28.782631779321918 0 0,0 -0.0953528391440098,0.4862020725034467 l -7.623972648059053 -1.5634572185253022" fill="#ff6309" stroke="none" /><path d="M 120.5718875245553 104.21870165774334 l 16.1928035679012 3.3206776565289307 a37.52978485907195,37.52978485907195 0 0,0 -0.1352251070393581,0.6317266813317254 l -16.133244422137402 -3.598918157276825" fill="#ffd513" stroke="none" /><path d="M 120.49622156327973 104.57218783832717 l 4.556637832085157 1.0164704755556648 a25.668635835066393,25.668635835066393 0 0,0 -0.0999114174520504,0.4304157714586986 l -4.538465848702554 -1.0947549043629283" fill="#ff3805" stroke="none" /><path d="M 120.41448212921028 104.9243191809786 l 7.5671561221882975 1.8253263444108232 a28.78419347403262,28.78419347403262 0 0,0 -0.12032983400771476,0.4806578722258283 l -7.534614973885522 -1.9553120560340476" fill="#ff6309" stroke="none" /><path d="M 120.32669344350535 105.2749913415812 l 7.527808908706366 1.9535458103340242 a28.777161963021765,28.777161963021765 0 0,0 -0.12855432957977667,0.4783984837507922 l -7.493066502784813 -2.0828352272603645" fill="#ff6309" stroke="none" /><path d="M 120.23288151984713 105.62410040840565 l 4.4980931290576605 1.250327462223533 a25.668635835066393,25.668635835066393 0 0,0 -0.12199613606804535,0.4246845540423343 l -4.475904356103516 -1.3275694917704493" fill="#ff3805" stroke="none" /><path d="M 120.13307415673323 105.97154293290107 l 0.7531039455520175 0.2233733660737073 a21.78553243948109,21.78553243948109 0 0,0 -0.10972981327601236,0.3586033787105142 l -0.7491473597698725 -0.23630371733627858" fill="#ff0000" stroke="none" /><path d="M 120.02730092923936 106.31721596034902 l 15.836453391354192 4.995295994835071 a37.60560863360777,37.60560863360777 0 0,0 -0.20003989950591963,0.6156595054875654 l -15.748121240832026 -5.267154400300432" fill="#ffd614" stroke="none" /><path d="M 119.9155931802556 106.66101706037122 l 1.481780736344503 0.495599938961672 a22.562463903615207,22.562463903615207 0 0,0 -0.1263596491227397,0.3672602879913342 l -1.4730302562785325 -0.5210329300423066" fill="#ff0b01" stroke="none" /><path d="M 119.79798401119884 107.00284435728193 l 19.55250460563908 6.91601460385447 a41.73961654308646,41.73961654308646 0 0,0 -0.24542047609600307,0.6752917463158552 l -19.43055986853785 -7.251554147176456" fill="#f5ff19" stroke="none" /><path d="M 119.67450827220406 107.3425965602758 l 13.113102022919058 4.893856378817881 a34.99654510656042,34.99654510656042 0 0,0 -0.2154882607972443,0.5625718509636028 l -13.026919482528308 -5.118851796614628" fill="#ffb510" stroke="none" /><path d="M 119.54520255179757 107.68017299344265 l 15.260264976422931 5.996431842243718 a37.3961239928623,37.3961239928623 0 0,0 -0.24057707563533806,0.597092572144536 l -15.1547852865302 -6.258223782231068" fill="#ffd413" stroke="none" /><path d="M 119.41010516605496 108.01547362559984 l 18.82275342019374 7.772924582839678 a41.36453787562901,41.36453787562901 0 0,0 -0.27743593205790096,0.6557765901354159 l -18.686166506943533 -8.095775698641257" fill="#faff18" stroke="none" /><path d="M 119.26925614724726 108.34839909993367 l 32.17930051762843 13.941671719187871 a56.069610664069884,56.069610664069884 0 0,0 -0.391309586593616,0.8822998150547253 l -31.93454984630354 -14.493519870735284" fill="#57ff2a" stroke="none" /><path d="M 119.12269723197855 108.67885076344098 l 7.0804905310290005 3.213486042543993 a28.77559249868564,28.77559249868564 0 0,0 -0.20858931398920458,0.4492828253562302 l -7.024126600199964 -3.3348889351790536" fill="#ff6309" stroke="none" /><path d="M 118.97047184881838 109.00673069616215 l 14.831312543229139 7.041555898663487 a37.41801879731378,37.41801879731378 0 0,0 -0.2812529719564469,0.5794644266088268 l -14.707906314657977 -7.29580928123759" fill="#ffd413" stroke="none" /><path d="M 118.81262510543309 109.33194174019688 l 19.325525285131302 9.58636421280002 a42.57253592804291,42.57253592804291 0 0,0 -0.33129811675869647,0.6536826146253888 l -19.157648498586337 -9.917601039128103" fill="#ebff1a" stroke="none" /><path d="M 118.64920377521936 109.65438752849418 l 12.45055818936644 6.445450173370558 a35.01999383609716,35.01999383609716 0 0,0 -0.28174000574230096,0.5329459143710847 l -12.337765675399245 -6.658811102827777" fill="#ffb510" stroke="none" /><line stroke="#e1ed5e" stroke-width="0.3" x1="174.80103733775053" x2="179.2010983576182" y1="140.37084112569926" y2="142.7455964860345" /><path d="M 175.68104954172406 140.8457921977663 a86.0,86.0 0 0,1 -30.038265399797805,32.042727171017184" fill="none" id="id41" stroke="none" /><text fill="#e1ed5e" style="font-size:6.75px; font-family:Arial;" text-anchor="middle"><textPath startOffset="22.206326154141568" xlink:href="#id41">May</textPath></text><path d="M 118.48025628344425 109.97397251340804 l 14.435312057978635 7.790877111251454 a37.403536215519054,37.403536215519054 0 0,0 -0.31066948028196806,0.5639553467623202 l -14.299066168245156 -8.03820297641158" fill="#ffd413" stroke="none" /><path d="M 118.30583269289576 110.29060199501025 l 6.782807959075681 3.8129473969530845 a28.781070084611223,28.781070084611223 0 0,0 -0.24648657158646634,0.4297701139759535 l -6.716169391336835 -3.9291373567873533" fill="#ff6309" stroke="none" /><path d="M 118.12598468904814 110.60418214915192 l 14.16703308329797 8.288090379946263 a37.41332594355626,37.41332594355626 0 0,0 -0.32998397468963275,0.5530721222225858 l -14.02226823291011 -8.530724596054952" fill="#ffd413" stroke="none" /><path d="M 117.94076556474637 110.91462005526583 l 7.464204603891795 4.540996702299679 a29.736990409692346,29.736990409692346 0 0,0 -0.26980705632862206,0.4350148832387222 l -7.384932907895211 -4.668807916903675" fill="#ff700a" stroke="none" /><path d="M 117.75023020441432 111.22182372390056 l 13.860798231586797 8.762896741966603 a37.39847818936649,37.39847818936649 0 0,0 -0.348687626027496,0.5411709389312918 l -13.70790574218225 -9.000189280819347" fill="#ffd413" stroke="none" /><path d="M 117.55443506779139 111.5257021239791 l 18.542811476611845 12.1746396734041 a43.18237382775777,43.18237382775777 0 0,0 -0.413310620970127,0.6178432996288811 l -18.330497750230997 -12.492019887238788" fill="#e4ff1a" stroke="none" /><path d="M 117.35343817320211 111.8261652097733 l 11.566745862694146 7.882602061124685 a34.99732206910305,34.99732206910305 0 0,0 -0.34353886776568826,0.4948933613559622 l -11.429346087766321 -8.080536684667667" fill="#ffb510" stroke="none" /><path d="M 117.14729908036423 112.12312394758627 l 13.38998142742367 9.466703982927624 a37.39847818936649,37.39847818936649 0 0,0 -0.3761578251425943,0.5224503194299502 l -13.225043809905474 -9.695787907808706" fill="#ffd413" stroke="none" /><path d="M 116.93607887273984 112.41649034213515 l 6.272751767176763 4.598795407189873 a28.7779389255644,28.7779389255644 0 0,0 -0.29632881239952613,0.39698086957159756 l -6.192661688082145 -4.706089156270785" fill="#ff6309" stroke="none" /><path d="M 116.71984013943494 112.70617746262583 l 50.159520418304794 38.11853238787748 a84.0,84.0 0 0,0 -0.8847727311277263,1.1436880235469893 l -49.495940869959 -38.97629840553772" fill="#4dd2ff" stroke="none" /><path d="M 116.498646956653 112.99209946851258 l 21.527932051522424 16.952483152078987 a48.40143323690366,48.40143323690366 0 0,0 -0.5210808136065128,0.6501284348119569 l -21.232933325861058 -17.320539420469196" fill="#a8ff21" stroke="none" /><path d="M 116.27256486870786 113.27417163493432 l 12.70819541010064 10.366575177607855 a37.40012534995688,37.40012534995688 0 0,0 -0.4112304070375207,0.49535351660116245 l -12.527869003169576 -10.583789951322787" fill="#ffd413" stroke="none" /><path d="M 116.0416608686014 113.55231037782055 l 11.499673296214823 9.715150010363338 a36.054123210720014,36.054123210720014 0 0,0 -0.4045916283554388,0.47063146865286926 l -11.330739158288607 -9.911658578177736" fill="#ffc312" stroke="none" /><path d="M 115.80600337817218 113.82643327865902 l 10.53506268636545 9.21563394834392 a34.99698020558429,34.99698020558429 0 0,0 -0.4005340229259268,0.45000422078930286 l -10.374869813791184 -9.395612338874088" fill="#ffb510" stroke="none" /><path d="M 115.56566222782051 114.09645910891815 l 12.152678479634835 11.005618183453844 a37.39546357470107,37.39546357470107 0 0,0 -0.4361977679661031,0.4734065270217462 l -11.96143430367301 -11.213175965276925" fill="#ffd413" stroke="none" /><path d="M 115.32070863581623 114.36230785411682 l 5.6768915056054015 5.321768424426518 a28.781279864497733,28.781279864497733 0 0,0 -0.34194003662479566,0.35852276134284716 l -5.584444917601641 -5.418698302351872" fill="#ff6309" stroke="none" /><path d="M 115.07121518719521 114.62390073753431 l 13.941317207176859 13.527538188257765 a40.42561749098076,40.42561749098076 0 0,0 -0.4888792642739753,0.495232113631253 l -13.706397317847347 -13.765510795869684" fill="#fff917" stroke="none" /><path d="M 114.81725581225074 114.88116024355365 l 5.489247113975101 5.512921350253705 a28.77972593941246,28.77972593941246 0 0,0 -0.35405921747899044,0.34652146389033456 l -5.393537944120316 -5.606592917066611" fill="#ff6309" stroke="none" /><path d="M 114.55890576462653 115.13401014063108 l 13.6431947384601 14.182126793081574 a40.679163677519114,40.679163677519114 0 0,0 -0.5088075516683487,0.48110929826853105 l -13.397051352400942 -14.414870728096027" fill="#fffc17" stroke="none" /><path d="M 114.29624159901734 115.38237550388516 l 10.589747666338184 11.394286670854962 a36.5554660609812,36.5554660609812 0 0,0 -0.4646033505297451,0.42440414506980423 l -10.392044766341575 -11.57488358251135" fill="#ffc912" stroke="none" /><path d="M 114.0293411484842 115.62618273729858 l 9.356409869443869 10.421371099154609 a35.00526262628879,35.00526262628879 0 0,0 -0.4518306725413715,0.39868803506627004 l -9.17563684399591 -10.580882275993167" fill="#ffb510" stroke="none" /><path d="M 113.75828350139079 115.86535959552629 l 10.743597776234932 12.388975852433427 a37.398524807119045,37.398524807119045 0 0,0 -0.4899821571203893,0.4175734242338804 l -10.528750142537495 -12.572073666890255" fill="#ffd413" stroke="none" /><path d="M 113.48314897796784 116.09983520530334 l 9.031843558290966 10.784661144527474 a35.06709330543175,35.06709330543175 0 0,0 -0.466108249840785,0.38357535713087787 l -8.84486517990549 -10.93853162051553" fill="#ffb610" stroke="none" /><path d="M 113.20401910651253 116.32954008644616 l 21.493191807694146 26.58084136187816 a55.183306182808934,55.183306182808934 0 0,0 -0.7437724448632543,0.590897813027856 l -21.03246187011354 -26.946873088911143" fill="#60ff29" stroke="none" /><path d="M 112.92097659922987 116.55440617244103 l 35.46885719480765 45.44283970842806 a78.64626190371362,78.64626190371362 0 0,0 -1.0743501500739063,0.8237658824360844 l -34.68137831624025 -46.046644932691514" fill="#46fffa" stroke="none" /><path d="M 112.63410532772338 116.77436683061366 l 11.227598985418593 14.906941102918193 a39.66215078771052,39.66215078771052 0 0,0 -0.5488770059254218,0.40604608718766166 l -10.969337009074609 -15.097997138845622" fill="#fff016" stroke="none" /><path d="M 112.34349029814194 116.9893568818739 l 11.170672094625173 15.375111110553938 a40.004682494256954,40.004682494256954 0 0,0 -0.5605849912448544,0.39996250679854084 l -10.904359775531434 -15.565117879196698" fill="#fff417" stroke="none" /><path d="M 112.04921762599082 117.19931262002967 l 8.025885511494119 11.456321750467424 a34.98792859196258,34.98792859196258 0 0,0 -0.4962339834486777,0.3413142587190432 l -7.827494643422558 -11.592776798551562" fill="#ffb510" stroke="none" /><path d="M 111.7513745106137 117.40417183066458 l 9.565253366963255 14.166454575344597 a38.093346869747414,38.093346869747414 0 0,0 -0.5465947248347468,0.3622531787211138 l -9.319983943388543 -14.329005775157029" fill="#ffdc14" stroke="none" /><path d="M 111.45004920935366 117.60387380957326 l 4.237055329709718 6.514259107939682 a28.770985110807807,28.770985110807807 0 0,0 -0.41747822553809283,0.266454355837007 l -4.124295302124694 -6.5862278926004985" fill="#ff6309" stroke="none" /><path d="M 111.1453310114006 117.79835938074945 l 12.381817566957887 19.772946951344 a44.32978434109692,44.32978434109692 0 0,0 -0.6502140780748993,0.399414593349824 l -12.039624288950678 -19.983150011522202" fill="#d6ff1c" stroke="none" /><line stroke="#e1ed5e" stroke-width="0.3" x1="143.8653032363475" x2="146.44561519142675" y1="172.8068346515853" y2="177.08958963109032" /><path d="M 144.38136562736335 173.6633856474863 a86.0,86.0 0 0,1 -40.68145358897372,12.25698825130547" fill="none" id="id42" stroke="none" /><text fill="#e1ed5e" style="font-size:6.75px; font-family:Arial;" text-anchor="middle"><textPath startOffset="21.466115282336833" xlink:href="#id42">June</textPath></text><path d="M 110.8373102113329 117.98757091392108 l 4.010569771966458 6.656670960939689 a28.771482366835095,28.771482366835095 0 0,0 -0.42640998622378334,0.25193053594470705 l -3.8953919147142924 -6.7247200691781455" fill="#ff6309" stroke="none" /><path d="M 110.5260780823613 118.17145234162733 l 8.219236866042044 14.189090165130597 a37.397747844576415,37.397747844576415 0 0,0 -0.5598108642529841,0.3178752188889356 l -7.97377723486786 -14.328468549814161" fill="#ffd413" stroke="none" /><path d="M 110.21172684928248 118.3499491758327 l 8.47370294122747 15.226809392532225 a38.425824680992136,38.425824680992136 0 0,0 -0.580737151851503,0.31666419880408686 l -8.210342977507318 -15.370414243096082" fill="#ffe115" stroke="none" /><path d="M 109.89434966115114 118.52300852407294 l 6.590443048245312 12.337832898646774 a34.98771104245064,34.98771104245064 0 0,0 -0.5336610546033871,0.27918624138941917 l -6.377091091115429 -12.44944855898091" fill="#ffb510" stroke="none" /><path d="M 109.57404056367764 118.69057910512821 l 13.39963565619379 26.15896063383541 a50.391179921216,50.391179921216 0 0,0 -0.7754148989902806,0.38880912770297393 l -12.947366849520751 -26.385737602447684" fill="#92ff23" stroke="none" /><path d="M 109.2508944713604 118.85261126421891 l 3.4229158022921893 6.975639081231137 a28.77019260901432,28.77019260901432 0 0,0 -0.4464686338319572,0.21433207609353597 l -3.3023345004599993 -7.033525433824233" fill="#ff6309" stroke="none" /><path d="M 108.92500713936063 119.00905698771935 l 8.589279996445793 18.294003622232687 a41.21005441327674,41.21005441327674 0 0,0 -0.6447057986155956,0.29595281132183204 l -8.273106202062777 -18.43914350388859" fill="#fbff18" stroke="none" /><path d="M 108.59647513512805 119.15986991738527 l 5.090658591080528 11.346087188731206 a33.435774981288155,33.435774981288155 0 0,0 -0.5271378011000017,0.2310817208502551 l -4.894600115322772 -11.432033462875916" fill="#ffa10e" stroke="none" /><path d="M 108.2653958097858 119.30500536409082 l 7.339556178409501 17.142575462204423 a39.647707054042925,39.647707054042925 0 0,0 -0.6296972318098644,0.26321349396648097 l -7.0433874871021755 -17.266373999190876" fill="#fff016" stroke="none" /><path d="M 107.93186726928326 119.44442032107085 l 7.112375225436844 17.435492636157246 a39.83035540856575,39.83035540856575 0 0,0 -0.6370560435951951,0.25349774708488637 l -6.811198105799783 -17.555337227648202" fill="#fff216" stroke="none" /><path d="M 107.59598834532513 119.57807347666477 l 5.0643500852954695 13.052971328278723 a35.00098933230429,35.00098933230429 0 0,0 -0.5635655617192394,0.21309227305401185 l -4.838914302815955 -13.138211851439365" fill="#ffb510" stroke="none" /><path d="M 107.2578585660854 119.70592522655815 l 5.665018662570202 15.38118070987376 a37.391252437719984,37.391252437719984 0 0,0 -0.6058815146719931,0.21724755492960954 l -5.399417587268474 -15.47641580584333" fill="#ffd413" stroke="none" /><path d="M 106.91757812671514 119.82793768551818 l 2.5614868893170333 7.342020790124054 a28.776019828084088,28.776019828084088 0 0,0 -0.4690905977500799,0.15914099960924158 l -2.4347265586297264 -7.385024776631419" fill="#ff6309" stroke="none" /><path d="M 106.57524785965236 119.94407469862006 l 6.693833444542964 20.303769087899358 a42.378738161033255,42.378738161033255 0 0,0 -0.694766427182084,0.22244226998306463 l -6.34334567226994 -20.41598420454213" fill="#edff19" stroke="none" /><path d="M 106.2309692047433 120.05430185196036 l 5.422045832765689 17.450791395770736 a39.273716134145175,39.273716134145175 0 0,0 -0.6473150476551204,0.19503071385218285 l -5.1208558106703235 -17.541537478728642" fill="#ffeb16" stroke="none" /><path d="M 105.88484417918355 120.15858648285463 l 5.227133562227414 17.90559286927667 a39.65296709045657,39.65296709045657 0 0,0 -0.6568586353782684,0.1856348115414657 l -4.91814375874454 -17.992916474156655" fill="#fff016" stroke="none" /><path d="M 105.53697534728816 120.25689768951611 l 4.549810742806425 16.645378558318974 a38.25599620842279,38.25599620842279 0 0,0 -0.6367064902195659,0.16815997100222455 l -4.262613809775361 -16.721229878624783" fill="#ffde14" stroke="none" /><path d="M 105.18746579009965 120.34920634021253 l 3.4598389052619223 13.572133029086897 a35.006187211714526,35.006187211714526 0 0,0 -0.5851812873493616,0.14382332304048695 l -3.22570433316935 -13.629677610441414" fill="#ffb510" stroke="none" /><path d="M 104.83641907484287 120.43548508189849 l 3.776725138771828 15.957924455566387 a37.39875012625642,37.39875012625642 0 0,0 -0.6277288503522164,0.14286904263048938 l -3.5014761390267495 -16.02057023177456" fill="#ffd413" stroke="none" /><path d="M 104.48393922423573 120.51570834832081 l 1.659737345370738 7.593922577807932 a28.773183914803468,28.773183914803468 0 0,0 -0.4847713405200163,0.10158854774942684 l -1.5287745434213438 -7.6213671062839" fill="#ff6309" stroke="none" /><path d="M 104.13013068566511 120.58985236759428 l 5.350316658705917 26.672819459439175 a48.204139138452135,48.204139138452135 0 0,0 -0.81495383361153,0.1561878418181211 l -4.890395210522683 -26.760964499605766" fill="#aaff21" stroke="none" /><path d="M 103.7750983002368 120.6578951692458 l 2.237803684231773 12.245592098969217 a33.448385083355134,33.448385083355134 0 0,0 -0.5672703214302797,0.09862721669229157 l -2.0266843913294434 -12.282297894182514" fill="#ffa10e" stroke="none" /><path d="M 103.41894727170886 120.7198165907248 l 3.0378331645484775 18.41015406219037 a39.65910509454339,39.65910509454339 0 0,0 -0.6745147629119833,0.10534533387012626 l -2.720482538027977 -18.459717703407602" fill="#fff016" stroke="none" /><path d="M 103.06178313531738 120.77559828337769 l 0.6820846354315266 4.628256069978196 a25.678246861718797,25.678246861718797 0 0,0 -0.43784028712514284,0.06068067418576237 l -0.6023157571195534 -4.639311309656561" fill="#ff3805" stroke="none" /><line stroke="#e1ed5e" stroke-width="0.3" x1="102.19456741930631" x2="102.32365962044197" y1="184.97166512339345" y2="189.96999836594603" /><path d="M 102.22038585953345 185.97133177190398 a86.0,86.0 0 0,1 -42.740103519485714,-10.115201625700543" fill="none" id="id43" stroke="none" /><text fill="#e1ed5e" style="font-size:6.75px; font-family:Arial;" text-anchor="middle"><textPath startOffset="22.20632615414155" xlink:href="#id43">July</textPath></text><line stroke="#e1ed5e" stroke-width="0.3" x1="58.666819895761336" x2="56.23545636021788" y1="174.27360380694188" y2="178.64263932499728" /><path d="M 58.180547188652646 175.14741091055294 a86.0,86.0 0 0,1 -31.652253787137756,-30.449443065178592" fill="none" id="id44" stroke="none" /><text fill="#e1ed5e" style="font-size:6.75px; font-family:Arial;" text-anchor="middle"><textPath startOffset="22.20632615414155" xlink:href="#id44">August</textPath></text><line stroke="#e1ed5e" stroke-width="0.3" x1="26.63291911575756" x2="22.317208475507996" y1="142.92168965132927" y2="145.44649492493687" /><path d="M 25.769776987707644 143.4266507060508 a86.0,86.0 0 0,1 -11.730757126820373,-40.83630448921669" fill="none" id="id45" stroke="none" /><text fill="#e1ed5e" style="font-size:6.75px; font-family:Arial;" text-anchor="middle"><textPath startOffset="21.46611528233685" xlink:href="#id45">September</textPath></text><line stroke="#e1ed5e" stroke-width="0.3" x1="15.007084014347285" x2="10.007500721073583" y1="101.09737516637583" y2="101.16192664675087" /><path d="M 14.007167355692545 101.11028546245083 a86.0,86.0 0 0,1 10.666146001902534,-42.60595125391555" fill="none" id="id46" stroke="none" /><text fill="#e1ed5e" style="font-size:6.75px; font-family:Arial;" text-anchor="middle"><textPath startOffset="22.20632615414155" xlink:href="#id46">October</textPath></text><line stroke="#e1ed5e" stroke-width="0.3" x1="26.266209847984243" x2="21.928928074336255" y1="57.711370442889674" y2="55.22380399835377" /><path d="M 25.398753493254645 57.213857153982495 a86.0,86.0 0 0,1 29.58750427330803,-30.492523968695096" fill="none" id="id47" stroke="none" /><text fill="#e1ed5e" style="font-size:6.75px; font-family:Arial;" text-anchor="middle"><textPath startOffset="21.46611528233685" xlink:href="#id47">November</textPath></text><line stroke="#e1ed5e" stroke-width="0.3" x1="56.762969772571076" x2="54.21961505331055" y1="26.818313649435495" y2="22.513508569990535" /><path d="M 56.25429882871897 25.957352633546506 a86.0,86.0 0 0,1 42.265352541879196,-11.944610805530505" fill="none" id="id48" stroke="none" /><text fill="#e1ed5e" style="font-size:6.75px; font-family:Arial;" text-anchor="middle"><textPath startOffset="22.20632615414155" xlink:href="#id48">December</textPath></text></svg>