<?xml version="1.0" encoding="utf-8" ?>
<svg baseProfile="full" height="200mm" version="1.1" viewBox="0,0,200,200" width="200mm" xmlns="http://www.w3.org/2000/svg" xmlns:ev="http://www.w3.org/2001/xml-events" xmlns:xlink="http://www.w3.org/1999/xlink"><defs /><rect fill="#1a1a1a" height="200" width="200" x="0" y="0" /><rect fill="#1a1a1a" height="200" width="180" x="10" y="0" /><text alignment-baseline="middle" fill="#e1ed5e" style="dominant-baseline: central; font-size:9.0px; font-family:Arial;" text-anchor="middle" x="100.0" y="100.0">2026</text><line stroke="#e1ed5e" stroke-width="0.3" x1="100.0" x2="100.0" y1="15.0" y2="10.0" /><path d="M 100.0 14.0 a86.0,86.0 0 0,1 42.46469731375804,11.215312516191453" fill="none" id="id49" stroke="none" /><text fill="#e1ed5e" style="font-size:6.75px; font-family:Arial;" text-anchor="middle"><textPath startOffset="22.20632615414155" xlink:href="#id49">January</textPath></text><path d="M 100.0 79.0 l 0.0 -18.209384428125595 a39.209384428125595,39.209384428125595 0 0,0 0.6749250988123643,0.0058092934069363025 l -0.313444619539836 18.206686511327216" fill="#ffc212" stroke="none" /><path d="M 100.36148047927253 79.00311137660856 l 0.6609768497347476 -38.39337970462673 a59.39906894105024,59.39906894105024 0 0,0 1.0221543528342545,0.026399231284625305 l -1.32175783776387 38.37631368119975" fill="#47ff2c" stroke="none" /><path d="M 100.72285384407766 79.0124445844662 l 0.18139627979154635 -5.266714019006776 a26.26983692046772,26.26983692046772 0 0,0 0.4517901159744823,0.0194550327596152 l -0.2720272281553602 5.262811259722966" fill="#ff0400" stroke="none" /><path d="M 101.08401301168833 79.027996857942 l 0.5560889011134282 -10.758448520143308 a31.772810655837002,31.772810655837002 0 0,0 0.5459445666504367,0.03293286717029562 l -0.7411955166034768 10.747282383592708" fill="#ff5808" stroke="none" /><path d="M 102.88285421437855 79.19881850522331 l 2.3400375996233915 -16.884498207225658 a38.04588090060052,38.04588090060052 0 0,0 0.6479231989034141,0.09548703706745189 l -2.6303297789554616 16.841716685997238" fill="#ffb210" stroke="none" /><path d="M 104.307194497241 79.44645832069477 l 2.133260252029817 -10.17972453553835 a31.400845683036152,31.400845683036152 0 0,0 0.528068434318881,0.11541530643356882 l -2.308171410502226 10.14149573100891" fill="#ff5207" stroke="none" /><path d="M 106.40334571778207 80.00007090966166 l 1.5212244810965045 -4.751325805809364 a25.988909784195073,25.988909784195073 0 0,0 0.42487805524315597,0.1400756147159875 l -1.602785358582078 4.72443646683414" fill="#ff0000" stroke="none" /><path d="M 106.74666289553966 80.11325718540242 l 6.034132224868356 -17.78645791604117 a39.78214143558445,39.78214143558445 0 0,0 0.6465886089935755,0.22558206957771285 l -6.339402837925205 17.67995499329125" fill="#ffc912" stroke="none" /><path d="M 107.08798089147638 80.2323363322302 l 5.545214186890069 -15.465042963646612 a37.42914952899031,37.42914952899031 0 0,0 0.6046013834064076,0.22267979194954712 l -5.810597896069053 15.367299903890741" fill="#ffa90f" stroke="none" /><path d="M 107.4271985657038 80.35727306442388 l 5.695045320475589 -15.06169777557739 a37.10243090608073,37.10243090608073 0 0,0 0.5954354207040887,0.2310196925889012 l -5.953463906179344 14.961435379097942" fill="#ffa40f" stroke="none" /><path d="M 107.76421540070413 80.48803036053334 l 5.989474250406757 -15.051931676149191 a37.1998286713085,37.1998286713085 0 0,0 0.59292298594454,0.24186817337634006 l -6.247681105939684 14.946602616589272" fill="#ffa60f" stroke="none" /><path d="M 108.09893153111575 80.62456947434976 l 15.01963533765415 -35.932134984382074 a59.94493253572232,59.94493253572232 0 0,0 0.9486035580849672,0.40614253797243954 l -15.63592265352943 35.66827291844684" fill="#41ff2d" stroke="none" /><path d="M 108.76106565485865 80.91482961587045 l 7.6056325566857055 -16.568166355759548 a39.23046304895847,39.23046304895847 0 0,0 0.6112886804964389,0.2870082319794028 l -7.889699448481742 16.43479314114014" fill="#ffc212" stroke="none" /><path d="M 109.08828744355905 81.06846463323043 l 11.601143794624278 -24.165990062138782 a47.80637261971376,47.80637261971376 0 0,0 0.7387876921477567,0.36251991201718436 l -12.015402753782466 23.962714989986765" fill="#cdff1d" stroke="none" /><path d="M 109.41281617654863 81.2277094730956 l 13.469833288921826 -26.863333895608296 a51.051208242236854,51.051208242236854 0 0,0 0.7821519451362947,0.40064860524517687 l -13.930245721646877 26.62749276505062" fill="#a5ff21" stroke="none" /><path d="M 109.73455568895987 81.39251694778311 l 8.584581943920238 -16.409322431944595 a39.51920381191917,39.51920381191917 0 0,0 0.6000425663184608,0.32052195813727646 l -8.865769556767011 16.259121747305564" fill="#ffc612" stroke="none" /><path d="M 110.05341064243156 81.56283822128135 l 11.014989030539134 -20.200620661978885 a44.00858662482478,44.00858662482478 0 0,0 0.66196439946518,0.36838247160872417 l -11.361077519076348 20.00802279280998" fill="#fdff18" stroke="none" /><path d="M 110.36928655335952 81.73862282372117 l 30.853219924180582 -54.33568483606046 a83.48430063858876,83.48430063858876 0 0,0 1.2435315251236878,0.7203337237576913 l -31.7839481817696 53.79654695491272" fill="#4cd7ff" stroke="none" /><line stroke="#e1ed5e" stroke-width="0.3" x1="143.23703022742887" x2="145.7803849466894" y1="26.81831364943548" y2="22.513508569990506" /><path d="M 143.74570117128098 25.957352633546492 a86.0,86.0 0 0,1 28.547481713284135,27.462654790039103" fill="none" id="id50" stroke="none" /><text fill="#e1ed5e" style="font-size:6.75px; font-family:Arial;" text-anchor="middle"><textPath startOffset="19.985693538727396" xlink:href="#id50">February</textPath></text><path d="M 110.68208982089419 81.91981866633111 l 32.04626946268258 -54.24054400100664 a84.0,84.0 0 0,0 1.23855173512945,0.7462135621655417 l -32.97518326402967 53.68088382938249" fill="#4dd2ff" stroke="none" /><path d="M 110.99172775467656 82.1063720568725 l 11.331052195142151 -18.446020198941692 a42.64828873211,42.64828873211 0 0,0 0.6222199453150626,0.38963407267372474 l -11.646891292829478 18.248241784945023" fill="#fff016" stroke="none" /><path d="M 111.2981086023043 82.29822771554956 l 17.071027521478136 -26.746728367008267 a52.73022941892461,52.73022941892461 0 0,0 0.7609046786616177,0.4949135689421403 l -17.528899225924032 26.4489158739066" fill="#91ff23" stroke="none" /><path d="M 111.60114157652 82.49532879139004 l 20.174124938635924 -30.440230527569533 a57.51852888071024,57.51852888071024 0 0,0 0.8205848208239301,0.5540625340320281 l -20.695114453866395 30.088456081238835" fill="#5bff2a" stroke="none" /><path d="M 111.90073688211348 82.69761687909136 l 10.609478337220894 -15.425032980896919 a39.721449544565644,39.721449544565644 0 0,0 0.560013538130717,0.3923252715681182 l -10.873423014935263 15.240122866564866" fill="#ffc912" stroke="none" /><path d="M 112.19680574252982 82.90503203632743 l 21.232451265585155 -29.759273193124727 a57.55723358965337,57.55723358965337 0 0,0 0.8015658352863412,0.5823716683316634 l -21.741562417225285 29.38938228997639" fill="#5bff2a" stroke="none" /><path d="M 112.48926042617603 83.11751280151076 l 10.81858382193033 -14.624132786655641 a39.190849778772545,39.190849778772545 0 0,0 0.538881362433238,0.4058742700024505 l -11.068711338121952 14.435741927147344" fill="#ffc112" stroke="none" /><path d="M 112.77801427241765 83.33499621200491 l 23.349244671147577 -30.451934283046985 a59.37326580175482,59.37326580175482 0 0,0 0.8056879927317167,0.6288522579382843 l -23.869965219038722 30.045503635885478" fill="#47ff2c" stroke="none" /><path d="M 113.06298171725822 83.55741782278167 l 11.318723894636046 -14.247057203863262 a39.19593772173221,39.19593772173221 0 0,0 0.5246592801741327,0.42423798362688725 l -11.562286573374669 14.050113122972245" fill="#ffc112" stroke="none" /><path d="M 113.34407831869373 83.78471172551755 l 24.387422953542092 -29.634800097765496 a59.37926230595728,59.37926230595728 0 0,0 0.7836435718582686,0.6562789550486425 l -24.89392406235948 29.21061998532303" fill="#47ff2c" stroke="none" /><path d="M 113.6212207817346 84.01681056812373 l 26.74851309559777 -31.386801423940973 a62.23850453703757,62.23850453703757 0 0,0 0.809415312000784,0.7019169824561483 l -27.284822206245316 30.921719448065154" fill="#30ff37" stroke="none" /><line stroke="#e1ed5e" stroke-width="0.3" x1="172.23445277983987" x2="176.4835382374775" y1="55.19839476539836" y2="52.563006222186495" /><path d="M 173.08426987136738 54.67131705675599 a86.0,86.0 0 0,1 12.851231095245387,41.99856678651699" fill="none" id="id51" stroke="none" /><text fill="#e1ed5e" style="font-size:6.75px; font-family:Arial;" text-anchor="middle"><textPath startOffset="22.20632615414155" xlink:href="#id51">March</textPath></text><line stroke="#e1ed5e" stroke-width="0.3" x1="184.98032266829074" x2="189.97916517819016" y1="98.17113171792111" y2="98.06355123074" /><path d="M 185.9800911702706 98.14961562048488 a86.0,86.0 0 0,1 -9.607161424134198,41.387399972396054" fill="none" id="id52" stroke="none" /><text fill="#e1ed5e" style="font-size:6.75px; font-family:Arial;" text-anchor="middle"><textPath startOffset="21.466115282336823" xlink:href="#id52">April</textPath></text><line stroke="#e1ed5e" stroke-width="0.3" x1="174.80103733775053" x2="179.2010983576182" y1="140.37084112569926" y2="142.7455964860345" /><path d="M 175.68104954172406 140.8457921977663 a86.0,86.0 0 0,1 -30.038265399797805,32.042727171017184" fill="none" id="id53" stroke="none" /><text fill="#e1ed5e" style="font-size:6.75px; font-family:Arial;" text-anchor="middle"><textPath startOffset="22.206326154141568" xlink:href="#id53">May</textPath></text><line stroke="#e1ed5e" stroke-width="0.3" x1="143.8653032363475" x2="146.44561519142675" y1="172.8068346515853" y2="177.08958963109032" /><path d="M 144.38136562736335 173.6633856474863 a86.0,86.0 0 0,1 -40.68145358897372,12.25698825130547" fill="none" id="id54" stroke="none" /><text fill="#e1ed5e" style="font-size:6.75px; font-family:Arial;" text-anchor="middle"><textPath startOffset="21.466115282336833" xlink:href="#id54">June</textPath></text><line stroke="#e1ed5e" stroke-width="0.3" x1="102.19456741930631" x2="102.32365962044197" y1="184.97166512339345" y2="189.96999836594603" /><path d="M 102.22038585953345 185.97133177190398 a86.0,86.0 0 0,1 -42.740103519485714,-10.115201625700543" fill="none" id="id55" stroke="none" /><text fill="#e1ed5e" style="font-size:6.75px; font-family:Arial;" text-anchor="middle"><textPath startOffset="22.20632615414155" xlink:href="#id55">July</textPath></text><line stroke="#e1ed5e" stroke-width="0.3" x1="58.666819895761336" x2="56.23545636021788" y1="174.27360380694188" y2="178.64263932499728" /><path d="M 58.180547188652646 175.14741091055294 a86.0,86.0 0 0,1 -31.652253787137756,-30.449443065178592" fill="none" id="id56" stroke="none" /><text fill="#e1ed5e" style="font-size:6.75px; font-family:Arial;" text-anchor="middle"><textPath startOffset="22.20632615414155" xlink:href="#id56">August</textPath></text><line stroke="#e1ed5e" stroke-width="0.3" x1="26.63291911575756" x2="22.317208475507996" y1="142.92168965132927" y2="145.44649492493687" /><path d="M 25.769776987707644 143.4266507060508 a86.0,86.0 0 0,1 -11.730757126820373,-40.83630448921669" fill="none" id="id57" stroke="none" /><text fill="#e1ed5e" style="font-size:6.75px; font-family:Arial;" text-anchor="middle"><textPath startOffset="21.46611528233685" xlink:href="#id57">September</textPath></text><line stroke="#e1ed5e" stroke-width="0.3" x1="15.007084014347285" x2="10.007500721073583" y1="101.09737516637583" y2="101.16192664675087" /><path d="M 14.007167355692545 101.11028546245083 a86.0,86.0 0 0,1 10.666146001902534,-42.60595125391555" fill="none" id="id58" stroke="none" /><text fill="#e1ed5e" style="font-size:6.75px; font-family:Arial;" text-anchor="middle"><textPath startOffset="22.20632615414155" xlink:href="#id58">October</textPath></text><line stroke="#e1ed5e" stroke-width="0.3" x1="26.266209847984243" x2="21.928928074336255" y1="57.711370442889674" y2="55.22380399835377" /><path d="M 25.398753493254645 57.213857153982495 a86.0,86.0 0 0,1 29.58750427330803,-30.492523968695096" fill="none" id="id59" stroke="none" /><text fill="#e1ed5e" style="font-size:6.75px; font-family:Arial;" text-anchor="middle"><textPath startOffset="21.46611528233685" xlink:href="#id59">November</textPath></text><line stroke="#e1ed5e" stroke-width="0.3" x1="56.762969772571076" x2="54.21961505331055" y1="26.818313649435495" y2="22.513508569990535" /><path d="M 56.25429882871897 25.957352633546506 a86.0,86.0 0 0,1 42.265352541879196,-11.944610805530505" fill="none" id="id60" stroke="none" /><text fill="#e1ed5e" style="font-size:6.75px; font-family:Arial;" text-anchor="middle"><textPath startOffset="22.20632615414155" xlink:href="#id60">December</textPath></text></svg>