<?xml version="1.0" encoding="utf-8" ?>
<svg baseProfile="full" height="200mm" version="1.1" viewBox="0,0,200,200" width="200mm" xmlns="http://www.w3.org/2000/svg" xmlns:ev="http://www.w3.org/2001/xml-events" xmlns:xlink="http://www.w3.org/1999/xlink"><defs /><rect fill="#1a1a1a" height="200" width="200" x="0" y="0" /><rect fill="#1a1a1a" height="200" width="180" x="10" y="0" /><text alignment-baseline="middle" fill="#e1ed5e" style="dominant-baseline: central; font-size:9.0px; font-family:Arial;" text-anchor="middle" x="100.0" y="100.0">2026</text><line stroke="#e1ed5e" stroke-width="0.3" x1="100.0" x2="100.0" y1="15.0" y2="10.0" /><path d="M 100.0 14.0 a86.0,86.0 0 0,1 42.46469731375804,11.215312516191453" fill="none" id="id49" stroke="none" /><text fill="#e1ed5e" style="font-size:6.75px; font-family:Arial;" text-anchor="middle"><textPath startOffset="22.20632615414155" xlink:href="#id49">January</textPath></text><path d="M 100.0 79.0 l 0.0 -29.456751989996363 a50.45675198999636,50.45675198999636 0 0,0 0.8685300424704279,0.007475712280263374 l -0.5070495631978995 29.452387654324657" fill="#c3ff1e" stroke="none" /><path d="M 100.36148047927253 79.00311137660856 l 1.06924158862243 -62.1077702258914 a83.11697352581629,83.11697352581629 0 0,0 1.4302981140687299,0.036940380495925434 l -2.1381663378860276 62.080163053253116" fill="#4cdbff" stroke="none" /><path d="M 100.72285384407766 79.0124445844662 l 0.2934390916298313 -8.51979863857974 a29.524850458655667,29.524850458655667 0 0,0 0.507770019784645,0.021865645174536503 l -0.44004994380380774 8.513485266881009" fill="#ff0701" stroke="none" /><path d="M 101.08401301168833 79.027996857942 l 0.8995676327853779 -17.403605877281496 a38.42683905525331,38.42683905525331 0 0,0 0.6602791368698852,0.03982984068010044 l -1.1990088184948748 17.385542767221093" fill="#ff930d" stroke="none" /><path d="M 102.88285421437855 79.19881850522331 l 3.7854056786733463 -27.313524964499905 a48.57458870297963,48.57458870297963 0 0,0 0.8272276039573955,0.1219118454409196 l -4.2550022630593975 27.24431863489802" fill="#dcff1b" stroke="none" /><path d="M 104.307194497241 79.44645832069477 l 3.4509084270361496 -16.467422177472294 a37.82512294584784,37.82512294584784 0 0,0 0.6361055894339764,0.13902804401350546 l -3.7338567406236542 16.405580635362917" fill="#ff8a0c" stroke="none" /><path d="M 106.40334571778207 80.00007090966166 l 2.4608372917624894 -7.686071236390654 a29.070403411688954,29.070403411688954 0 0,0 0.47525565978930717,0.15668431887860315 l -2.592775773794214 7.642573193252814" fill="#ff0000" stroke="none" /><path d="M 106.74666289553966 80.11325718540242 l 9.761227081803591 -28.772596991476874 a51.38328309739551,51.38328309739551 0 0,0 0.835144724354881,0.2913655958308948 l -10.255053810221746 28.60031054247377" fill="#b7ff1f" stroke="none" /><path d="M 107.08798089147638 80.2323363322302 l 8.970319654646566 -25.017316587108223 a47.57692164126874,47.57692164126874 0 0,0 0.7685206050500741,0.283052624652127 l -9.399622585469217 24.859200694649772" fill="#e9ff1a" stroke="none" /><path d="M 107.4271985657038 80.35727306442388 l 9.212696795940348 -24.36483768436386 a47.048399137746,47.048399137746 0 0,0 0.7550525032969311,0.29294864083476174 l -9.630732464236946 24.202646339638548" fill="#f0ff19" stroke="none" /><path d="M 107.76421540070413 80.48803036053334 l 9.688985272461638 -24.349039370593204 a47.20595645803977,47.20595645803977 0 0,0 0.7524092894292449,0.3069266410303472 l -10.10667843147927 24.178651843379278" fill="#eeff19" stroke="none" /><path d="M 108.09893153111575 80.62456947434976 l 24.296794593347244 -58.12629157695072 a84.0,84.0 0 0,0 1.329264968838739,0.5691218881488367 l -25.2937433199763 57.69945016083909" fill="#4dd2ff" stroke="none" /><path d="M 108.76106565485865 80.91482961587045 l 12.303394045725812 -26.80180481646563 a50.49085021603008,50.49085021603008 0 0,0 0.7867479200330212,0.3693886975933711 l -12.762920177058431 26.586051136232257" fill="#c3ff1e" stroke="none" /><path d="M 109.08828744355905 81.06846463323043 l 18.766807681357147 -39.09256672914418 a64.36383105794086,64.36383105794086 0 0,0 0.9946625020756269,0.4880765699966914 l -19.436941450443204 38.763734999012655" fill="#31ff44" stroke="none" /><path d="M 109.41281617654863 81.2277094730956 l 21.789728263714288 -43.45597553342719 a69.61290021556349,69.61290021556349 0 0,0 1.066534312994667,0.5463202995333288 l -22.53452306429771 43.074462708581365" fill="#39ff88" stroke="none" /><path d="M 109.73455568895987 81.39251694778311 l 13.887009868893696 -26.544847966144655 a50.95793712264723,50.95793712264723 0 0,0 0.7737233652502347,0.41329622597965787 l -14.34187828067224 26.301873013663243" fill="#bdff1f" stroke="none" /><path d="M 110.05341064243156 81.56283822128135 l 17.81860344185841 -32.67791260229656 a58.22027136738179,58.22027136738179 0 0,0 0.8757324406021446,0.4873441550596975 l -18.378459971532592 32.36635304967668" fill="#63ff29" stroke="none" /><line stroke="#e1ed5e" stroke-width="0.3" x1="143.23703022742887" x2="145.7803849466894" y1="26.81831364943548" y2="22.513508569990506" /><path d="M 143.74570117128098 25.957352633546492 a86.0,86.0 0 0,1 28.547481713284135,27.462654790039103" fill="none" id="id50" stroke="none" /><text fill="#e1ed5e" style="font-size:6.75px; font-family:Arial;" text-anchor="middle"><textPath startOffset="19.985693538727396" xlink:href="#id50">February</textPath></text><line stroke="#e1ed5e" stroke-width="0.3" x1="172.23445277983987" x2="176.4835382374775" y1="55.19839476539836" y2="52.563006222186495" /><path d="M 173.08426987136738 54.67131705675599 a86.0,86.0 0 0,1 12.851231095245387,41.99856678651699" fill="none" id="id51" stroke="none" /><text fill="#e1ed5e" style="font-size:6.75px; font-family:Arial;" text-anchor="middle"><textPath startOffset="22.20632615414155" xlink:href="#id51">March</textPath></text><line stroke="#e1ed5e" stroke-width="0.3" x1="184.98032266829074" x2="189.97916517819016" y1="98.17113171792111" y2="98.06355123074" /><path d="M 185.9800911702706 98.14961562048488 a86.0,86.0 0 0,1 -9.607161424134198,41.387399972396054" fill="none" id="id52" stroke="none" /><text fill="#e1ed5e" style="font-size:6.75px; font-family:Arial;" text-anchor="middle"><textPath startOffset="21.466115282336823" xlink:href="#id52">April</textPath></text><line stroke="#e1ed5e" stroke-width="0.3" x1="174.80103733775053" x2="179.2010983576182" y1="140.37084112569926" y2="142.7455964860345" /><path d="M 175.68104954172406 140.8457921977663 a86.0,86.0 0 0,1 -30.038265399797805,32.042727171017184" fill="none" id="id53" stroke="none" /><text fill="#e1ed5e" style="font-size:6.75px; font-family:Arial;" text-anchor="middle"><textPath startOffset="22.206326154141568" xlink:href="#id53">May</textPath></text><line stroke="#e1ed5e" stroke-width="0.3" x1="143.8653032363475" x2="146.44561519142675" y1="172.8068346515853" y2="177.08958963109032" /><path d="M 144.38136562736335 173.6633856474863 a86.0,86.0 0 0,1 -40.68145358897372,12.25698825130547" fill="none" id="id54" stroke="none" /><text fill="#e1ed5e" style="font-size:6.75px; font-family:Arial;" text-anchor="middle"><textPath startOffset="21.466115282336833" xlink:href="#id54">June</textPath></text><line stroke="#e1ed5e" stroke-width="0.3" x1="102.19456741930631" x2="102.32365962044197" y1="184.97166512339345" y2="189.96999836594603" /><path d="M 102.22038585953345 185.97133177190398 a86.0,86.0 0 0,1 -42.740103519485714,-10.115201625700543" fill="none" id="id55" stroke="none" /><text fill="#e1ed5e" style="font-size:6.75px; font-family:Arial;" text-anchor="middle"><textPath startOffset="22.20632615414155" xlink:href="#id55">July</textPath></text><line stroke="#e1ed5e" stroke-width="0.3" x1="58.666819895761336" x2="56.23545636021788" y1="174.27360380694188" y2="178.64263932499728" /><path d="M 58.180547188652646 175.14741091055294 a86.0,86.0 0 0,1 -31.652253787137756,-30.449443065178592" fill="none" id="id56" stroke="none" /><text fill="#e1ed5e" style="font-size:6.75px; font-family:Arial;" text-anchor="middle"><textPath startOffset="22.20632615414155" xlink:href="#id56">August</textPath></text><line stroke="#e1ed5e" stroke-width="0.3" x1="26.63291911575756" x2="22.317208475507996" y1="142.92168965132927" y2="145.44649492493687" /><path d="M 25.769776987707644 143.4266507060508 a86.0,86.0 0 0,1 -11.730757126820373,-40.83630448921669" fill="none" id="id57" stroke="none" /><text fill="#e1ed5e" style="font-size:6.75px; font-family:Arial;" text-anchor="middle"><textPath startOffset="21.46611528233685" xlink:href="#id57">September</textPath></text><line stroke="#e1ed5e" stroke-width="0.3" x1="15.007084014347285" x2="10.007500721073583" y1="101.09737516637583" y2="101.16192664675087" /><path d="M 14.007167355692545 101.11028546245083 a86.0,86.0 0 0,1 10.666146001902534,-42.60595125391555" fill="none" id="id58" stroke="none" /><text fill="#e1ed5e" style="font-size:6.75px; font-family:Arial;" text-anchor="middle"><textPath startOffset="22.20632615414155" xlink:href="#id58">October</textPath></text><line stroke="#e1ed5e" stroke-width="0.3" x1="26.266209847984243" x2="21.928928074336255" y1="57.711370442889674" y2="55.22380399835377" /><path d="M 25.398753493254645 57.213857153982495 a86.0,86.0 0 0,1 29.58750427330803,-30.492523968695096" fill="none" id="id59" stroke="none" /><text fill="#e1ed5e" style="font-size:6.75px; font-family:Arial;" text-anchor="middle"><textPath startOffset="21.46611528233685" xlink:href="#id59">November</textPath></text><line stroke="#e1ed5e" stroke-width="0.3" x1="56.762969772571076" x2="54.21961505331055" y1="26.818313649435495" y2="22.513508569990535" /><path d="M 56.25429882871897 25.957352633546506 a86.0,86.0 0 0,1 42.265352541879196,-11.944610805530505" fill="none" id="id60" stroke="none" /><text fill="#e1ed5e" style="font-size:6.75px; font-family:Arial;" text-anchor="middle"><textPath startOffset="22.20632615414155" xlink:href="#id60">December</textPath></text></svg>