<?xml version="1.0" encoding="utf-8" ?>
<svg baseProfile="full" height="200mm" version="1.1" viewBox="0,0,200,200" width="200mm" xmlns="http://www.w3.org/2000/svg" xmlns:ev="http://www.w3.org/2001/xml-events" xmlns:xlink="http://www.w3.org/1999/xlink"><defs /><rect fill="#1a1a1a" height="200" width="200" x="0" y="0" /><text alignment-baseline="middle" fill="#e1ed5e" style="dominant-baseline: central; font-size:9.0px; font-family:Arial;" text-anchor="middle" x="100.0" y="100.0">2023</text><line stroke="#e1ed5e" stroke-width="0.3" x1="100.0" x2="100.0" y1="15.0" y2="10.0" /><path d="M 100.0 14.0 a86.0,86.0 0 0,1 42.46469731375804,11.215312516191453" fill="none" id="id13" stroke="none" /><text fill="#e1ed5e" style="font-size:6.75px; font-family:Arial;" text-anchor="middle"><textPath startOffset="22.20632615414155" xlink:href="#id13">January</textPath></text><path d="M 100.36148047927253 79.00311137660856 l 0.1533158131795323 -8.905474121351752 a29.906793758959317,29.906793758959317 0 0,0 0.5146437472003932,0.013291729643235653 l -0.3065861955747933 8.901515599566157" fill="#ff6a09" stroke="none" /><path d="M 100.72285384407766 79.0124445844662 l 0.4061208920726865 -11.791435845038958 a32.79842758449818,32.79842758449818 0 0,0 0.5640691812074357,0.024290005493833797 l -0.6090309056694537 11.78269811302093" fill="#ff910d" stroke="none" /><path d="M 101.08401301168833 79.027996857942 l 0.7586345821707532 -14.677025708556064 a35.6966190016235,35.6966190016235 0 0,0 0.6133664220904191,0.03699993761153607 l -1.0111630531007842 14.661792501564225" fill="#ffb711" stroke="none" /><path d="M 101.44485096284872 79.0497635885617 l 0.9112215270403398 -13.212647467146258 a34.2440317789723,34.2440317789723 0 0,0 0.587708809949018,0.04561751479174471 l -1.1385205263516989 13.19500469016605" fill="#ffa40f" stroke="none" /><path d="M 102.16513564639614 79.11191278185805 l 1.5161251430239253 -14.626776051567326 a35.705142403663174,35.705142403663174 0 0,0 0.6107845717772673,0.0686287633009659 l -1.767676418310918 14.59851133479576" fill="#ffb711" stroke="none" /><path d="M 102.52436894288641 79.15227682838746 l 1.7688685303430596 -14.6083564969721 a35.71505947729281,35.71505947729281 0 0,0 0.6096820377655113,0.07915422649360947 l -2.020065296616417 14.575743947314354" fill="#ffb711" stroke="none" /><path d="M 102.88285421437855 79.19881850522331 l 2.016704079515825 -14.551491147223373 a35.690574867991245,35.690574867991245 0 0,0 0.6078122228155763,0.08957572185757315 l -2.266885282760057 14.514620941204832" fill="#ffb711" stroke="none" /><path d="M 103.59715602781102 79.31037775812273 l 2.0443296594233167 -11.758291290209225 a32.93468465531486,32.93468465531486 0 0,0 0.5577016451603519,0.1019164109138502 l -2.2464264256865696 11.721359397944637" fill="#ff930d" stroke="none" /><path d="M 104.307194497241 79.44645832069477 l 3.1078903121503676 -14.830570828972082 a36.15271636722326,36.15271636722326 0 0,0 0.6079807060332729,0.1328810338437205 l -3.3627137423371685 14.774876297032492" fill="#ffbd11" stroke="none" /><path d="M 104.66035177308747 79.52364482259891 l 3.263748827095003 -14.34005059003281 a35.706770798889345,35.706770798889345 0 0,0 0.5981331515289297,0.14155879205983807 l -3.510105665586456 14.281745885832104" fill="#ffb711" stroke="none" /><path d="M 105.01212808612495 79.60689891045804 l 3.5085860650525222 -14.275563009662193 a35.7004039202573,35.7004039202573 0 0,0 0.5955016268390675,0.15180662407810389 l -3.7537965805766147 14.213053389415222" fill="#ffb711" stroke="none" /><path d="M 105.36241919743992 79.69619591428918 l 3.79870846403687 -14.383103892615836 a35.87628527491074,35.87628527491074 0 0,0 0.5957207810558894,0.16283299294544992 l -4.04572713431647 14.315584358844092" fill="#ffba11" stroke="none" /><path d="M 106.0581310904928 79.89281104454417 l 4.241777438796503 -14.07863567077961 a35.70376340230048,35.70376340230048 0 0,0 0.5869267321785647,0.18236099270081657 l -4.483489543685787 14.003534543196272" fill="#ffb711" stroke="none" /><path d="M 106.40334571778207 80.00007090966166 l 3.1414478191088206 -9.811860298078122 a31.302489840285467,31.302489840285467 0 0,0 0.5117467842262956,0.16871486887785753 l -3.309877425577534 9.75633170494103" fill="#ff7d0b" stroke="none" /><path d="M 106.74666289553966 80.11325718540242 l 4.731102987650427 -13.945595000304593 a35.72626753092158,35.72626753092158 0 0,0 0.5806675255215948,0.20258349794874322 l -4.970452517235296 13.862090649183642" fill="#ffb811" stroke="none" /><path d="M 107.08798089147638 80.2323363322302 l 4.9629410346302 -13.841141881959622 a35.704012796163944,35.704012796163944 0 0,0 0.5767348657762335,0.21241631833113764 l -5.20045822617901 13.75366229582216" fill="#ffb711" stroke="none" /><path d="M 108.09893153111575 80.62456947434976 l 5.680542340042237 -13.589811573865743 a35.729274927510446,35.729274927510446 0 0,0 0.5654008752755704,0.24207514772540042 l -5.913626973108123 13.490016898177553" fill="#ffb811" stroke="none" /><path d="M 108.43124777332544 80.76684994638697 l 5.897830207547627 -13.453981714471057 a35.689929377991675,35.689929377991675 0 0,0 0.5605322333104494,0.25149447396397856 l -6.128544559324857 13.350466909990548" fill="#ffb711" stroke="none" /><path d="M 108.76106565485865 80.91482961587045 l 6.14712586591222 -13.39094456603721 a35.73446818796147,35.73446818796147 0 0,0 0.5568141237486841,0.26143169716227255 l -6.376718200960503 13.283147886234934" fill="#ffb811" stroke="none" /><path d="M 109.08828744355905 81.06846463323043 l 6.370839104469947 -13.270901319010159 a35.72088355751614,35.72088355751614 0 0,0 0.5520215753423149,0.2708745896170939 l -6.598331946822693 13.159271569258234" fill="#ffb811" stroke="none" /><path d="M 109.73455568895987 81.39251694778311 l 7.597753695144396 -14.52301241418277 a37.39035542002025,37.39035542002025 0 0,0 0.5677190494162127,0.30325585484237566 l -7.84661779108892 14.390077832838639" fill="#ffcd13" stroke="none" /><path d="M 110.05341064243156 81.56283822128135 l 7.742022252958626 -14.19825786980031 a37.171871725395704,37.171871725395704 0 0,0 0.5591285162931824,0.31115441396155585 l -7.9852748583238435 14.062888058278574" fill="#ffca12" stroke="none" /><path d="M 110.36928655335952 81.73862282372117 l 7.99495257450614 -14.0799315090985 a37.19147114901877,37.19147114901877 0 0,0 0.5539816047540258,0.3209019025119104 l -8.236130911725494 13.94022544919654" fill="#ffca12" stroke="none" /><line stroke="#e1ed5e" stroke-width="0.3" x1="143.23703022742887" x2="145.7803849466894" y1="26.81831364943548" y2="22.513508569990506" /><path d="M 143.74570117128098 25.957352633546492 a86.0,86.0 0 0,1 28.547481713284135,27.462654790039103" fill="none" id="id14" stroke="none" /><text fill="#e1ed5e" style="font-size:6.75px; font-family:Arial;" text-anchor="middle"><textPath startOffset="19.985693538727396" xlink:href="#id14">February</textPath></text><path d="M 110.68208982089419 81.91981866633111 l 5.248442514623815 -8.883354659509148 a31.317952259820437,31.317952259820437 0 0,0 0.46177266800121286,0.27821286566108316 l -5.400577248842666 8.79169518438945" fill="#ff7d0b" stroke="none" /><path d="M 111.2981086023043 82.29822771554956 l 8.853565584980458 -13.871684846329668 a37.45628342133917,37.45628342133917 0 0,0 0.5404994746778746,0.35155589330150405 l -9.091032085442613 13.717230028868636" fill="#ffce13" stroke="none" /><path d="M 111.60114157652 82.49532879139004 l 8.955908231346651 -13.513345038517583 a37.21168672218688,37.21168672218688 0 0,0 0.5308784121515051,0.3584514736748644 l -9.187191337904698 13.357181652544048" fill="#ffcb12" stroke="none" /><path d="M 111.90073688211348 82.69761687909136 l 9.220786771510474 -13.40602577615742 a37.27096911055576,37.27096911055576 0 0,0 0.5254653976750091,0.3681220913526868 l -9.450183308769134 13.245318842040797" fill="#ffcb13" stroke="none" /><path d="M 112.19680574252982 82.90503203632743 l 6.040503423827819 -8.466332472175027 a31.40031091567367,31.40031091567367 0 0,0 0.43729371405885803,0.31771248049317424 l -6.185342454240466 8.361100756865179" fill="#ff7e0b" stroke="none" /><path d="M 112.77801427241765 83.33499621200491 l 9.886636586503457 -12.894087661199462 a37.24817157738941,37.24817157738941 0 0,0 0.5054531561615139,0.39451420574917495 l -10.107122297824402 12.721995066227063" fill="#ffcb12" stroke="none" /><path d="M 113.06298171725822 83.55741782278167 l 10.059459460507503 -12.66200109728909 a37.17154898039591,37.17154898039591 0 0,0 0.49756171849918307,0.40232697326151184 l -10.275924577571176 12.48696802676345" fill="#ffca12" stroke="none" /><path d="M 113.34407831869373 83.78471172551755 l 10.284948211874896 -12.497933252538042 a37.18574976038629,37.18574976038629 0 0,0 0.4907500132673984,0.41098902289660555 l -10.498555762101413 12.319043072247617" fill="#ffca12" stroke="none" /><path d="M 113.6212207817346 84.01681056812373 l 6.685439765480269 -7.844719054136209 a31.30702294050967,31.30702294050967 0 0,0 0.40714962433148605,0.35307614210124333 l -6.819483188458519 7.728477918615295" fill="#ff7d0b" stroke="none" /><path d="M 114.16331599549186 84.49514656593476 l 13.129519505529803 -14.373136605702822 a40.467186194524416,40.467186194524416 0 0,0 0.5102567556817181,0.47422804461600376 l -13.374984145006367 14.145003975012179" fill="#fff417" stroke="none" /><path d="M 114.42810811169701 84.74124197986012 l 13.647667369289822 -14.433386020896595 a40.864074522891606,40.864074522891606 0 0,0 0.5069417213087685,0.4876775342496359 l -13.894092334211008 14.196325399884659" fill="#fff917" stroke="none" /><path d="M 114.68862486808459 84.99185889309783 l 14.38747195934286 -14.700437330017634 a41.56944839014049,41.56944839014049 0 0,0 0.5070764040164819,0.5048988567892846 l -14.638384163526664 14.45060262257823" fill="#fdff18" stroke="none" /><path d="M 114.94478906791727 85.2469230424477 l 13.600913708400698 -13.42644086317822 a40.11162389635648,40.11162389635648 0 0,0 0.4808347226482506,0.4955424482544048 l -13.830012694752059 13.1903342193737" fill="#ffef16" stroke="none" /><path d="M 115.4437574822437 85.77008943001954 l 22.907807037686105 -21.107301501945376 a52.14941090887413,52.14941090887413 0 0,0 0.6025898188174187,0.6653947285032284 l -23.26774049711956 20.709853986172597" fill="#83ff25" stroke="none" /><path d="M 115.68641384162765 86.03803664274999 l 5.967096027941549 -5.311116800337287 a28.988378851400377,28.988378851400377 0 0,0 0.32854619182481526,0.3755850922076906 l -6.057634083344213 5.207616151926649" fill="#ff5d08" stroke="none" /><path d="M 115.9244219780498 86.31012108654704 l 14.52243598754376 -12.484622077453462 a40.15116015882966,40.15116015882966 0 0,0 0.446039977201613,0.5279706447556758 l -14.73518657823249 12.23279248306868" fill="#fff016" stroke="none" /><path d="M 116.15771136456269 86.58626213691792 l 14.702938218246148 -12.206020681195808 a40.109247319539904,40.109247319539904 0 0,0 0.4364296901997678,0.5350111961574749 l -14.910866400522325 11.951125315430232" fill="#ffef16" stroke="none" /><path d="M 116.60985879189232 87.15038557335679 l 16.273435056214982 -12.589352413486612 a41.574656320818775,41.574656320818775 0 0,0 0.43301798163222394,0.5698009060307362 l -16.48772897807132 12.307366731574842" fill="#fdff18" stroke="none" /><path d="M 116.82858285166822 87.43820079747576 l 16.50462256459109 -12.319977053165337 a41.595737437395385,41.595737437395385 0 0,0 0.42336020240181116,0.5774628402943055 l -16.71424537950653 12.034051769199538" fill="#fdff18" stroke="none" /><path d="M 117.04232023915458 87.72973835380427 l 16.699839769968335 -12.023679906933948 a41.577986462407424,41.577986462407424 0 0,0 0.41318100326997276,0.5844152272983869 l -16.90433339304219 11.734438179303767" fill="#fdff18" stroke="none" /><path d="M 117.2510076193507 88.02491185347247 l 16.89959725268509 -11.731150504780514 a41.57222106309315,41.57222106309315 0 0,0 0.40300414839317744,0.591358859666992 l -17.099025866747002 11.438513621843116" fill="#fdff18" stroke="none" /><path d="M 117.65298651832404 88.62581576622439 l 17.300416946356993 -11.147016368292116 a41.580583092632935,41.580583092632935 0 0,0 0.3824867231189847,0.6050021415889952 l -17.489731265721936 10.847566578988914" fill="#fdff18" stroke="none" /><line stroke="#e1ed5e" stroke-width="0.3" x1="172.23445277983987" x2="176.4835382374775" y1="55.19839476539836" y2="52.563006222186495" /><path d="M 173.08426987136738 54.67131705675599 a86.0,86.0 0 0,1 12.851231095245387,41.99856678651699" fill="none" id="id15" stroke="none" /><text fill="#e1ed5e" style="font-size:6.75px; font-family:Arial;" text-anchor="middle"><textPath startOffset="22.20632615414155" xlink:href="#id15">March</textPath></text><path d="M 117.84615892207809 88.93136811851018 l 17.4783987537551 -10.84053787304714 a41.56724785605107,41.56724785605107 0 0,0 0.3718966276606107,0.6113002722398772 l -17.662411179701937 10.538069827600182" fill="#fdff18" stroke="none" /><path d="M 118.03404312379186 89.2402003453031 l 17.66134032739513 -10.537430916170177 a41.56600088673373,41.56600088673373 0 0,0 0.36130815870624,0.6175927629893889 l -17.8401081605717 10.231858740826894" fill="#fdff18" stroke="none" /><path d="M 118.21658344932153 89.55222093294921 l 17.868435751001908 -10.248105497917216 a41.598656812620675,41.598656812620675 0 0,0 0.35089924699305847,0.624210606010481 l -18.042192639287396 9.93901138197194" fill="#fcff18" stroke="none" /><path d="M 118.56541770881063 90.18545643968196 l 18.18825683748481 -9.615158776256974 a41.57338001104691,41.57338001104691 0 0,0 0.3290049328326559,0.6355328100658374 l -18.35107120347758 9.30065324393079" fill="#fdff18" stroke="none" /><path d="M 118.89224826269711 90.83032412892265 l 18.559879535966882 -9.008355023954206 a41.63054988668996,41.63054988668996 0 0,0 0.30735598313301354,0.6473700860263548 l -18.71219371294165 8.68754252228731" fill="#fcff18" stroke="none" /><path d="M 119.04729006885535 91.15688171328212 l 18.700617407016715 -8.682167970723945 a41.617786788971344,41.617786788971344 0 0,0 0.2960762342564641,0.6523647357920441 l -18.847295958236526 8.358981226089838" fill="#fcff18" stroke="none" /><path d="M 119.34039704204932 91.81776055985345 l 18.986943987089976 -8.032705926421833 a41.61621707465423,41.61621707465423 0 0,0 0.2734350204827914,0.6621445907703536 l -19.122400694458964 7.704686765198177" fill="#fcff18" stroke="none" /><path d="M 119.47837535516314 92.15188598940014 l 28.93051815108184 -11.656516557230969 a52.190531555891695,52.190531555891695 0 0,0 0.3285678527043588,0.8361693465237013 l -29.1268795536679 11.156798205811484" fill="#83ff25" stroke="none" /><path d="M 119.61058180528143 92.48833698450437 l 19.292276064203175 -7.3897387663010745 a41.65914215962511,41.65914215962511 0 0,0 0.2507392579016718,0.671856551460518 l -19.416619910606475 7.056559077811223" fill="#fcff18" stroke="none" /><path d="M 119.7369772167798 92.82701384747503 l 19.375228628909625 -7.04151629353956 a41.61510213738225,41.61510213738225 0 0,0 0.23888439783078763,0.6753583611866065 l -19.493566107550222 6.706960305926339" fill="#fcff18" stroke="none" /><path d="M 119.97218684219823 93.5106431181261 l 21.031429721271156 -6.833525756379143 a43.11375387363857,43.11375387363857 0 0,0 0.2232563956154978,0.7077837844128202 l -21.14594160065486 6.470491805539904" fill="#eaff1a" stroke="none" /><path d="M 120.08093135843002 93.85539295169968 l 21.08693906622625 -6.4524374940915745 a43.05205089777134,43.05205089777134 0 0,0 0.21073794997798748,0.7105036038790581 l -21.19488291331594 6.088504503465987" fill="#ebff1a" stroke="none" /><path d="M 120.18372546131832 94.20196356495316 l 21.200607510213462 -6.090148968034799 a43.05800701004002,43.05800701004002 0 0,0 0.1985040338865786,0.7141246256621177 l -21.302298314666402 5.72431303895373" fill="#ebff1a" stroke="none" /><path d="M 120.28053869075195 94.5502522615342 l 21.287819002568302 -5.720422185778456 a43.04301403777747,43.04301403777747 0 0,0 0.18611731247563085,0.7171859269985402 l -21.383132646914238 5.353139833231065" fill="#ebff1a" stroke="none" /><path d="M 120.45610955862082 95.25157060432595 l 21.50532060679694 -4.991980329401128 a43.07710764593616,43.07710764593616 0 0,0 0.1614481030215533,0.7237401890539258 l -21.58806309682053 4.621061970797237" fill="#ebff1a" stroke="none" /><path d="M 120.53481517161879 95.60439243477599 l 21.5620264546424 -4.615488662229581 a43.05048118345422,43.05048118345422 0 0,0 0.14887410736860107,0.7259630190923863 l -21.638279857925998 4.243649986973783" fill="#ebff1a" stroke="none" /><path d="M 120.6074358757038 95.95851677861258 l 21.61759282182882 -4.239592892738903 a43.029400066877606,43.029400066877606 0 0,0 0.13628901885911507,0.7280613884474039 l -21.687367564597793 3.8668534268289365" fill="#ebff1a" stroke="none" /><path d="M 120.67395015179393 96.31383870115 l 21.72392141725622 -3.8733709716621223 a43.0665304120797,43.0665304120797 0 0,0 0.12384321916039026,0.7309296898473038 l -21.787376497936833 3.4988554934989806" fill="#ebff1a" stroke="none" /><path d="M 120.78858239683441 97.02765380044208 l 21.815577322485048 -3.119185671627338 a43.0374393514176,43.0374393514176 0 0,0 0.09854344163437533,0.7342631011484455 l -21.86603676317726 2.7432042284142284" fill="#ebff1a" stroke="none" /><path d="M 120.91429891909075 98.10471618934814 l 21.93799313345444 -1.9880524508557413 a43.02788903346954,43.02788903346954 0 0,0 0.06049622066050902,0.7382071233660736 l -21.968963837934442 1.610131410281899" fill="#ebff1a" stroke="none" /><path d="M 120.94382443527127 98.46500227214037 l 22.007194599153465 -1.6129333881053338 a43.06622233730718,43.06622233730718 0 0,0 0.04782280250373537,0.7397975878593823 l -22.031697992661616 1.2338767359929161" fill="#ebff1a" stroke="none" /><path d="M 120.96714384426684 98.82574320788733 l 21.99165234408139 -1.2316339949124355 a43.02611393597074,43.02611393597074 0 0,0 0.03504864577042536,0.7398215174977335 l -22.00959459808531 0.8529013707917023" fill="#ebff1a" stroke="none" /><path d="M 120.98425023603335 99.18683210126433 l 5.307460278699825 -0.20567121883832368 a26.311443801852267,26.311443801852267 0 0,0 0.013642239972747208,0.45271952904565244 l -5.3102142131282175 0.11428154236767214" fill="#ff3705" stroke="none" /><line stroke="#e1ed5e" stroke-width="0.3" x1="184.98032266829074" x2="189.97916517819016" y1="98.17113171792111" y2="98.06355123074" /><path d="M 185.9800911702706 98.14961562048488 a86.0,86.0 0 0,1 -9.607161424134198,41.387399972396054" fill="none" id="id16" stroke="none" /><text fill="#e1ed5e" style="font-size:6.75px; font-family:Arial;" text-anchor="middle"><textPath startOffset="21.466115282336823" xlink:href="#id16">April</textPath></text><path d="M 120.99513854157772 99.54816195383933 l 23.463248440124325 -0.5049544355600822 a44.46868139340147,44.46868139340147 0 0,0 0.009882619978456169,0.7654198083607605 l -23.468464067220495 0.10099836913885898" fill="#daff1c" stroke="none" /><path d="M 120.99980553446 99.90962569577887 l 23.502674720394687 -0.1011455973583058 a44.502892363378265,44.502892363378265 0 0,0 -0.0032968223940315817,0.7660654181848983 l -23.50093360071115 -0.3034292990302772" fill="#daff1c" stroke="none" /><path d="M 120.99824983174949 100.27111621757518 l 23.544339185400375 0.30398972468655205 a44.54630156584882,44.54630156584882 0 0,0 -0.016498968628282207,0.7666422407039295 l -23.535618154087086 -0.7092217811805964" fill="#d9ff1c" stroke="none" /><path d="M 120.9904718944345 100.63252640178507 l 23.53626335121538 0.709241223536159 a44.54694705584839,44.54694705584839 0 0,0 -0.02969344032248813,0.7662557548873747 l -23.520567778041688 -1.11427422543754" fill="#d9ff1c" stroke="none" /><path d="M 120.9764740272857 100.99374915477107 l 5.8840838146756544 0.27875530033455553 a26.890683055095785,26.890683055095785 0 0,0 -0.025883753889065133,0.4621718134116113 l -5.8784137098990605 -0.37999883008159013" fill="#ff4006" stroke="none" /><path d="M 120.95626037817324 101.35467743843564 l 23.48847460454861 1.5183675921106403 a44.53749942949116,44.53749942949116 0 0,0 -0.05603971444820257,0.7646173798853015 l -23.45885833143607 -1.9224581084927121" fill="#d9ff1c" stroke="none" /><path d="M 120.92983693683757 101.71520430193887 l 23.414307496667625 1.9188071587179765 a44.49279924702148,44.49279924702148 0 0,0 -0.06912359705700544,0.7627731335476133 l -23.377809303333542 -2.32156168081416" fill="#daff1c" stroke="none" /><path d="M 120.89721153311464 102.0752229133903 l 23.38544427755014 2.3223198811803822 a44.50047177587991,44.50047177587991 0 0,0 -0.08225742364081222,0.7616015825768222 l -23.342004552408277 -2.7245177856419955" fill="#daff1c" stroke="none" /><path d="M 120.8583938346157 102.4346265915055 l 23.344408817520268 2.7247984154844036 a44.502892363378265,44.502892363378265 0 0,0 -0.09536014240485667,0.7601141606477552 l -23.294047165868562 -3.1262303304195536" fill="#daff1c" stroke="none" /><path d="M 120.81339534386255 102.79330883721812 l 8.006989298210573 1.0745961241157003 a29.078776791793615,29.078776791793615 0 0,0 -0.07084967665850234,0.49552247353401574 l -7.98730557053547 -1.2122640696301255" fill="#ff5e08" stroke="none" /><path d="M 120.76222939487914 103.15116336523771 l 23.228356088725736 3.5254568933499044 a44.494368961338594,44.494368961338594 0 0,0 -0.12144472236502235,0.7562364020950345 l -23.164229611999428 -3.924772525138144" fill="#daff1c" stroke="none" /><path d="M 120.70491114924044 103.5080841355445 l 23.16383908174683 3.9247063566347533 a44.493972865202494,44.493972865202494 0 0,0 -0.13444289870289045,0.75402717371955 l -23.09284974070475 -4.322852281087521" fill="#daff1c" stroke="none" /><path d="M 120.64145759157962 103.86396538481128 l 23.08278475108644 4.320968171338436 a44.48373304657308,44.48373304657308 0 0,0 -0.14736839474013114,0.751428269859325 l -23.004986423370646 -4.717660168265706" fill="#daff1c" stroke="none" /><path d="M 120.5718875245553 104.21870165774334 l 22.99438051062186 4.715485201012857 a44.47290641885316,44.47290641885316 0 0,0 -0.1602421530904957,0.7485979918791686 l -22.909804318806923 -5.110597012308196" fill="#daff1c" stroke="none" /><path d="M 120.49622156327973 104.57218783832717 l 6.415627789067661 1.4311640446433158 a27.57331807008736,27.57331807008736 0 0,0 -0.107325114974562,0.46235378635118757 l -6.390042108162547 -1.5413864883430684" fill="#ff4906" stroke="none" /><path d="M 120.41448212921028 104.9243191809786 l 30.306978623016214 7.310557045053998 a52.176228084310495,52.176228084310495 0 0,0 -0.21811821374108348,0.8712738397342585 l -30.176649094980068 -7.831158724185652" fill="#83ff25" stroke="none" /><path d="M 120.32669344350535 105.2749913415812 l 25.654971165678788 6.6577356097585465 a47.504772946796905,47.504772946796905 0 0,0 -0.21221495871838655,0.7897308072935109 l -25.536568130618626 -7.098357350227605" fill="#b7ff1f" stroke="none" /><path d="M 120.23288151984713 105.62410040840565 l 7.331379020578881 2.0378912268807623 a28.60934418961199,28.60934418961199 0 0,0 -0.1359725335230079,0.473338227114148 l -7.295213850169774 -2.163786929499492" fill="#ff5808" stroke="none" /><path d="M 120.13307415673323 105.97154293290107 l 25.367082161352773 7.523968720806929 a47.45938326364587,47.45938326364587 0 0,0 -0.23904438774591683,0.7812108901693666 l -25.233811001100722 -7.959506583528352" fill="#b7ff1f" stroke="none" /><path d="M 120.02730092923936 106.31721596034902 l 25.226409911830597 7.9571720563034205 a47.45162271342386,47.45162271342386 0 0,0 -0.25241495042585266,0.77685333746256 l -25.085702710388496 -8.390224293743776" fill="#b7ff1f" stroke="none" /><path d="M 119.9155931802556 106.66101706037122 l 25.03472665121268 8.373174718731505 a47.39787100073305,47.39787100073305 0 0,0 -0.26544877254553106,0.7715183868334579 l -24.886887047723917 -8.802865808654264" fill="#b8ff1f" stroke="none" /><path d="M 119.79798401119884 107.00284435728193 l 24.91194795037715 8.811730226396712 a47.4244534525332,47.4244534525332 0 0,0 -0.2788461636416554,0.7672648826799212 l -24.75657752573027 -9.239242906082765" fill="#b8ff1f" stroke="none" /><path d="M 119.67450827220406 107.3425965602758 l 8.277069623282578 3.0890318631719222 a29.834704262190026,29.834704262190026 0 0,0 -0.18370466322557885,0.4795949071151481 l -8.222670680463493 -3.231050337120214" fill="#ff6909" stroke="none" /><path d="M 119.54520255179757 107.68017299344265 l 24.61327342965726 9.671641794128542 a47.4452998454736,47.4452998454736 0 0,0 -0.30522552261417263,0.7575447157654552 l -24.443145292785694 -10.09388587773681" fill="#b7ff1f" stroke="none" /><path d="M 119.41010516605496 108.01547362559984 l 24.448840305865307 10.09623765413094 a47.45146134092397,47.45146134092397 0 0,0 -0.318261512898106,0.752276203560039 l -24.271427811774892 -10.51558838335714" fill="#b7ff1f" stroke="none" /><path d="M 119.26925614724726 108.34839909993367 l 24.27207394747058 10.515868321441888 a47.45216551183258,47.45216551183258 0 0,0 -0.33116847164601365,0.7466974776385424 l -24.087464391093295 -10.932114135573118" fill="#b7ff1f" stroke="none" /><path d="M 119.12269723197855 108.67885076344098 l 24.071447217626147 10.924844729145395 a47.43457590934452,47.43457590934452 0 0,0 -0.3438450710876226,0.7406116932291944 l -23.87982752969869 -11.33757648965342" fill="#b8ff1f" stroke="none" /><path d="M 118.97047184881838 109.00673069616215 l 7.163351899338242 3.4009898094970104 a28.92971261257653,28.92971261257653 0 0,0 -0.21745052014130622,0.44801247820764534 l -7.103748122582221 -3.523791243669931" fill="#ff5c08" stroke="none" /><path d="M 118.81262510543309 109.33194174019688 l 23.643019452145886 11.728043207858716 a47.39203225028246,47.39203225028246 0 0,0 -0.3688032834225332,0.727683866569222 l -23.437637498937082 -12.133281286130632" fill="#b8ff1f" stroke="none" /><path d="M 118.64920377521936 109.65438752849418 l 23.457518231126482 12.14357321576045 a47.41441901708546,47.41441901708546 0 0,0 -0.381454626995739,0.7215683993464267 l -23.24501109590585 -12.54555663019301" fill="#b8ff1f" stroke="none" /><line stroke="#e1ed5e" stroke-width="0.3" x1="174.80103733775053" x2="179.2010983576182" y1="140.37084112569926" y2="142.7455964860345" /><path d="M 175.68104954172406 140.8457921977663 a86.0,86.0 0 0,1 -30.038265399797805,32.042727171017184" fill="none" id="id17" stroke="none" /><text fill="#e1ed5e" style="font-size:6.75px; font-family:Arial;" text-anchor="middle"><textPath startOffset="22.206326154141568" xlink:href="#id17">May</textPath></text><path d="M 118.48025628344425 109.97397251340804 l 12.988729898370202 7.010142770935698 a35.75971564908071,35.75971564908071 0 0,0 -0.2970160952621762,0.5391704870576345 l -12.866137393656516 -7.232683776391137" fill="#ffb811" stroke="none" /><path d="M 118.30583269289576 110.29060199501025 l 23.034209585455923 12.948653420478772 a47.424277409806045,47.424277409806045 0 0,0 -0.4061505536223532,0.7081577247726193 l -22.80790703568119 -13.343230991109706" fill="#b8ff1f" stroke="none" /><path d="M 118.12598468904814 110.60418214915192 l 6.347466240484664 3.7134362272942343 a28.353906192512504,28.353906192512504 0 0,0 -0.25008027026246565,0.41914891755016226 l -6.282605094523971 -3.822147238730501" fill="#ff5407" stroke="none" /><path d="M 117.94076556474637 110.91462005526583 l 15.030358237043007 9.14401611569014 a38.59331405556803,38.59331405556803 0 0,0 -0.35016147618976795,0.564571793459174 l -14.870732121185277 -9.401384240514588" fill="#ffdc14" stroke="none" /><path d="M 117.75023020441432 111.22182372390056 l 3.8138542974508582 2.411146229753714 a25.512107128985296,25.512107128985296 0 0,0 -0.237864119088524,0.3691703950946927 l -3.7717853149852836 -2.4764382247698595" fill="#ff2c04" stroke="none" /><path d="M 117.55443506779139 111.5257021239791 l 6.163603111430078 4.046832222081399 a28.37338825431747,28.37338825431747 0 0,0 -0.2715696632425587,0.40595979949185435 l -6.093030342776799 -4.15232893577906" fill="#ff5507" stroke="none" /><path d="M 117.35343817320211 111.8261652097733 l 25.649501217505474 17.47983517265897 a52.03935486394877,52.03935486394877 0 0,0 -0.5108259715962893,0.7358829112857148 l -25.34481433874705 -17.918759346131704" fill="#84ff25" stroke="none" /><path d="M 117.14729908036423 112.12312394758627 l 4.808217958871009 3.3994054695852034 a26.88854120191542,26.88854120191542 0 0,0 -0.2704477740659873,0.37562830414688736 l -4.748990392429419 -3.481667379183222" fill="#ff4006" stroke="none" /><path d="M 116.93607887273984 112.41649034213515 l 21.326409044165207 15.63521012856873 a47.443818152520066,47.443818152520066 0 0,0 -0.4885329114499684,0.65446966979463 l -21.054114866020146 -15.999992677872674" fill="#b7ff1f" stroke="none" /><path d="M 116.71984013943494 112.70617746262583 l 21.046557787260436 15.994249705271312 a47.43432651548105,47.43432651548105 0 0,0 -0.4996261740512677,0.6458341802472984 l -20.7681247959911 -16.354161879631864" fill="#b8ff1f" stroke="none" /><path d="M 116.498646956653 112.99209946851258 l 20.76872413041109 16.354633834236378 a47.43508936729871,47.43508936729871 0 0,0 -0.5106773355249281,0.6371484962972976 l -20.48412888283131 -16.709710164111925" fill="#b8ff1f" stroke="none" /><path d="M 116.27256486870786 113.27417163493432 l 20.482889800807495 16.708699396136097 a47.43349031252707,47.43349031252707 0 0,0 -0.5215515548653981,0.6282424460110679 l -20.192242246048554 -17.058803099260935" fill="#b8ff1f" stroke="none" /><path d="M 116.0416608686014 113.55231037782055 l 2.2602563789204346 1.9095090110360344 a23.958882147311435,23.958882147311435 0 0,0 -0.26886143049166117,0.3127465845270519 l -2.2270524388579944 -1.9481326947246143" fill="#ff1602" stroke="none" /><path d="M 115.80600337817218 113.82643327865902 l 23.341180845082793 20.417892611950812 a52.01130538942235,52.01130538942235 0 0,0 -0.5952598556469214,0.6687807581257198 l -22.986262139787534 -20.8166475398174" fill="#85ff25" stroke="none" /><path d="M 115.56566222782051 114.09645910891815 l 19.605122245352106 17.75464480804449 a47.44973025410696,47.44973025410696 0 0,0 -0.5534753269227412,0.600688154669975 l -19.29660051043364 -18.089484217515796" fill="#b7ff1f" stroke="none" /><path d="M 115.32070863581623 114.36230785411682 l 15.133006933358205 14.186348001375947 a41.74271844434116,41.74271844434116 0 0,0 -0.4959302275950277,0.519980860930465 l -14.886570154384213 -14.44473597888892" fill="#fbff18" stroke="none" /><path d="M 115.07121518719521 114.62390073753431 l 21.07605499019991 20.450516583252224 a50.367051647582954,50.367051647582954 0 0,0 -0.609104045438844,0.6170191822146448 l -20.720910319705528 -20.810276259447534" fill="#97ff23" stroke="none" /><path d="M 114.81725581225074 114.88116024355365 l 1.044433507110109 1.048937980148254 a22.48024060104154,22.48024060104154 0 0,0 -0.27656053475631837,0.27067269153567486 l -1.0262230199779963 -1.0667607746065007" fill="#ff0000" stroke="none" /><path d="M 114.55890576462653 115.13401014063108 l 21.507061745494184 22.356631453877483 a52.02213201714227,52.02213201714227 0 0,0 -0.6506833285473298,0.6152617007471033 l -21.119042582556048 -22.723527791370508" fill="#84ff25" stroke="none" /><path d="M 114.29624159901734 115.38237550388516 l 15.174750247998732 16.327627431005045 a43.29045676101874,43.29045676101874 0 0,0 -0.550202019681007,0.5025964998146254 l -14.891448678850862 -16.586416697406253" fill="#e8ff1a" stroke="none" /><path d="M 114.0293411484842 115.62618273729858 l 10.82603178512207 12.058267683682214 a37.20508511991863,37.20508511991863 0 0,0 -0.48022489678644137,0.42374263662270023 l -10.616864535429041 -12.242833462077202" fill="#ffcb12" stroke="none" /><path d="M 113.75828350139079 115.86535959552629 l 20.336303453270485 23.450800900945534 a52.04038177985717,52.04038177985717 0 0,0 -0.6818145542737865,0.5810571548029837 l -19.929623422419652 -23.797382445971465" fill="#84ff25" stroke="none" /><path d="M 113.48314897796784 116.09983520530334 l 3.7942066721502146 4.530551598613847 a26.909475616219403,26.909475616219403 0 0,0 -0.3576780223659567,0.2943446618113969 l -3.7156585212395665 -4.595191379282422" fill="#ff4006" stroke="none" /><path d="M 113.20401910651253 116.32954008644616 l 9.699789104436988 11.995824432945142 a36.42678555294648,36.42678555294648 0 0,0 -0.4909680340549211,0.39005469965074746 l -9.491863577664715 -12.161013046601015" fill="#ffc111" stroke="none" /><path d="M 112.92097659922987 116.55440617244103 l 19.059106328715803 24.418602187400303 a51.97608217376442,51.97608217376442 0 0,0 -0.7100211800530691,0.5444139640083737 l -18.63595642016924 -24.74305549323605" fill="#85ff25" stroke="none" /><path d="M 112.63410532772338 116.77436683061366 l 18.682072070230777 24.8042834797613 a52.05273411121243,52.05273411121243 0 0,0 -0.7203479458821241,0.5328961892764159 l -18.252339153930087 -25.122189617777483" fill="#84ff25" stroke="none" /><path d="M 112.34349029814194 116.9893568818739 l 18.366989807153924 25.279992704044982 a52.247789452898324,52.247789452898324 0 0,0 -0.7321474579187264,0.5223677715043372 l -17.929115021386316 -25.59240473739354" fill="#82ff25" stroke="none" /><path d="M 112.04921762599082 117.19931262002967 l 0.8637147086636389 1.2328849681310499 a22.50532668966089,22.50532668966089 0 0,0 -0.3191931720870654,0.21954397432021946 l -0.8423646519536903 -1.2475697318163634" fill="#ff0000" stroke="none" /><path d="M 111.7513745106137 117.40417183066458 l 17.404901644577127 25.77723130553323 a52.102994309814704,52.102994309814704 0 0,0 -0.7476166884264215,0.49547957479703675 l -16.95861025741074 -26.073008901421584" fill="#84ff25" stroke="none" /><path d="M 111.45004920935366 117.60387380957326 l 16.921159870444008 26.015430818198723 a52.03430830577038,52.03430830577038 0 0,0 -0.7550381266032756,0.4819010557907514 l -16.470839941793802 -26.302846302813283" fill="#84ff25" stroke="none" /><path d="M 111.1453310114006 117.79835938074945 l 16.485804500064347 26.326743716519605 a52.06250448256944,52.06250448256944 0 0,0 -0.7636349659166096,0.46908696637625713 l -16.03019033421543 -26.60661914972424" fill="#84ff25" stroke="none" /><line stroke="#e1ed5e" stroke-width="0.3" x1="143.8653032363475" x2="146.44561519142675" y1="172.8068346515853" y2="177.08958963109032" /><path d="M 144.38136562736335 173.6633856474863 a86.0,86.0 0 0,1 -40.68145358897372,12.25698825130547" fill="none" id="id18" stroke="none" /><text fill="#e1ed5e" style="font-size:6.75px; font-family:Arial;" text-anchor="middle"><textPath startOffset="21.466115282336833" xlink:href="#id18">June</textPath></text><path d="M 110.8373102113329 117.98757091392108 l 16.032696253312125 26.610778428786787 a52.06736032779342,52.06736032779342 0 0,0 -0.7716683526072144,0.4559152644747829 l -15.572260029676526 -26.88281226555532" fill="#84ff25" stroke="none" /><path d="M 110.5260780823613 118.17145234162733 l 0.7656288567110879 1.32172573414724 a22.527464062600423,22.527464062600423 0 0,0 -0.3372160050579437,0.19148004846902159 l -0.7427640847319451 -1.33470894841089" fill="#ff0100" stroke="none" /><path d="M 110.21172684928248 118.3499491758327 l 15.11012710534734 27.152123094927635 a52.0733604507439,52.0733604507439 0 0,0 -0.7869950817336864,0.4291324676325849 l -14.640509211745005 -27.40819621431999" fill="#84ff25" stroke="none" /><path d="M 109.89434966115114 118.52300852407294 l 14.637785877025493 27.40309791539677 a52.06758038120236,52.06758038120236 0 0,0 -0.7941771275967653,0.4154759380295593 l -14.163917846902233 -27.651003272371046" fill="#84ff25" stroke="none" /><path d="M 109.57404056367764 118.69057910512821 l 14.161229168470864 27.645754395830835 a52.06168294984272,52.06168294984272 0 0,0 -0.8011204478428918,0.4016984235361138 l -13.683254812945213 -27.88542066027625" fill="#84ff25" stroke="none" /><path d="M 109.2508944713604 118.85261126421891 l 13.688612234298889 27.896338672850295 a52.073844568243565,52.073844568243565 0 0,0 -0.80810506063407,0.3879395375680152 l -13.206394505664585 -28.127832486917868" fill="#84ff25" stroke="none" /><path d="M 108.92500713936063 119.00905698771935 l 0.6560747265889959 1.397350351792104 a22.543704004180317,22.543704004180317 0 0,0 -0.3526822980628291,0.1618991450662806 l -0.6319244327587473 -1.4084365671924588" fill="#ff0100" stroke="none" /><path d="M 108.59647513512805 119.15986991738527 l 12.708174677942225 28.324047925389095 a52.0443134007636,52.0443134007636 0 0,0 -0.8205141032678683,0.3596892701858681 l -12.218739900016603 -28.538601748869418" fill="#84ff25" stroke="none" /><path d="M 108.2653958097858 119.30500536409082 l 12.5319652681183 29.270184065134714 a52.8401292190875,52.8401292190875 0 0,0 -0.8392233894479911,0.35079544485229247 l -12.026270419172848 -29.481564553006983" fill="#7cff26" stroke="none" /><path d="M 107.93186726928326 119.44442032107085 l 5.708213355398918 13.993287582427769 a36.11276933838672,36.11276933838672 0 0,0 -0.5775961003107436,0.22983740853862591 l -5.466496179046309 -14.089471835372462" fill="#ffbd11" stroke="none" /><path d="M 107.59598834532513 119.57807347666477 l 11.23389305354638 28.95449198084718 a52.057413913709254,52.057413913709254 0 0,0 -0.8381981844968338,0.31693483160910235 l -10.733824648289271 -29.143575062562913" fill="#84ff25" stroke="none" /><path d="M 107.2578585660854 119.70592522655815 l 0.5248530498602343 1.4250367186550474 a22.518617915560966,22.518617915560966 0 0,0 -0.36488786658658146,0.13083580686948576 l -0.500245622643918 -1.4338600665644934" fill="#ff0100" stroke="none" /><path d="M 106.91757812671514 119.82793768551818 l 10.226637093837315 29.312733346071127 a52.045457678490095,52.045457678490095 0 0,0 -0.8484159726896079,0.287828761919047 l -9.720551388210481 -29.484425094888298" fill="#84ff25" stroke="none" /><path d="M 106.57524785965236 119.94407469862006 l 9.714644338248215 29.466507801394496 a52.026591766230155,52.026591766230155 0 0,0 -0.8529354777514512,0.2730830051613857 l -9.205987515405823 -29.629363653215588" fill="#84ff25" stroke="none" /><path d="M 106.2309692047433 120.05430185196036 l 5.610537966234969 18.057451133141186 a39.90898404717572,39.90898404717572 0 0,0 -0.6577856249234533,0.1981854128916765 l -5.29887736687127 -18.151351915138587" fill="#ffed16" stroke="none" /><path d="M 105.88484417918355 120.15858648285463 l 8.564973203983033 29.339392479849582 a51.56401016018025,51.56401016018025 0 0,0 -0.8541672372506736,0.2413961932929612 l -8.058674798627754 -29.482477466481065" fill="#89ff24" stroke="none" /><path d="M 105.53697534728816 120.25689768951611 l 0.39729337464872577 1.4534887259202744 a22.50680838261443,22.50680838261443 0 0,0 -0.3745878395968594,0.09893205301342493 l -0.37221509224036897 -1.4601121282372833" fill="#ff0000" stroke="none" /><path d="M 105.18746579009965 120.34920634021253 l 7.667862103154997 30.079216796608403 a52.04118864235662,52.04118864235662 0 0,0 -0.869947063378962,0.2138118224716536 l -7.148961755032824 -30.20674987739409" fill="#84ff25" stroke="none" /><path d="M 104.83641907484287 120.43548508189849 l 7.150803111937415 30.21453022499671 a52.04918391621483,52.04918391621483 0 0,0 -0.8736327890957547,0.19883597849402884 l -6.629650173448798 -30.333142937068423" fill="#84ff25" stroke="none" /><path d="M 104.48393922423573 120.51570834832081 l 4.430294779891879 20.270264839916944 a41.74876257797342,41.74876257797342 0 0,0 -0.7033842226116499,0.1474010027249675 l -4.080719095850851 -20.34352182336845" fill="#fbff18" stroke="none" /><path d="M 104.13013068566511 120.58985236759428 l 6.103410901193354 30.427204114995057 a52.033310730316515,52.033310730316515 0 0,0 -0.8796909728721907,0.16859486863311673 l -5.578752313749459 -30.527756181976642" fill="#84ff25" stroke="none" /><path d="M 103.41894727170886 120.7198165907248 l 5.04843047133351 30.59495953699636 a52.00867941874231,52.00867941874231 0 0,0 -0.8845540509265041,0.13814915098186617 l -4.521040556798488 -30.67732699532533" fill="#85ff25" stroke="none" /><path d="M 103.06178313531738 120.77559828337769 l 0.4332442400899655 2.9397602288913736 a23.97151321298469,23.97151321298469 0 0,0 -0.4087387384550922,0.05664746471400875 l -0.3825769104480429 -2.9467822590979846" fill="#ff1602" stroke="none" /><path d="M 102.70371172650421 120.8252237178851 l 2.4615821239821645 18.960230829843816 a40.11935510612396,40.11935510612396 0 0,0 -0.6856064929738795,0.08301739828650045 l -2.134848207956905 -18.999793756855667" fill="#ffef16" stroke="none" /><path d="M 102.34483914955558 120.86867818915974 l 3.4695681578482644 30.878579178965868 a52.07289100347148,52.07289100347148 0 0,0 -0.8916054383503674,0.0924185492397066 l -2.9375301228922948 -30.933727096661332" fill="#84ff25" stroke="none" /><path d="M 101.98527174616119 120.90594882070398 l 0.5674970154820568 5.976040098546212 a27.002924963883295,27.002924963883295 0 0,0 -0.46310746968292116,0.039958861138848535 l -0.46454522805759396 -5.984923211963724" fill="#ff4106" stroke="none" /><path d="M 101.62511606390274 120.93702456842531 l 2.4051245621799966 30.986188104962157 a52.07938991414889,52.07938991414889 0 0,0 -0.894369876140775,0.061680983035560216 l -1.871391925260291 -31.022997432514003" fill="#84ff25" stroke="none" /><path d="M 101.26447882468166 120.96189622390904 l 1.0655707132947716 17.66449724213056 a38.69660712572525,38.69660712572525 0 0,0 -0.6652350897287039,0.03438505555300897 l -0.7613475551525881 -17.68022210444577" fill="#ffde14" stroke="none" /><path d="M 100.90346689309514 120.98055641714683 l 1.3352157347401346 31.006746639943 a52.0354819239514,52.0354819239514 0 0,0 -0.8952076480916739,0.030832761455956214 l -0.8012877349738085 -31.025136199825052" fill="#84ff25" stroke="none" /><line stroke="#e1ed5e" stroke-width="0.3" x1="102.19456741930631" x2="102.32365962044197" y1="184.97166512339345" y2="189.96999836594603" /><path d="M 102.22038585953345 185.97133177190398 a86.0,86.0 0 0,1 -42.740103519485714,-10.115201625700543" fill="none" id="id19" stroke="none" /><text fill="#e1ed5e" style="font-size:6.75px; font-family:Arial;" text-anchor="middle"><textPath startOffset="22.20632615414155" xlink:href="#id19">July</textPath></text><path d="M 100.54218724476979 120.99299961872073 l 0.8012036497241826 31.021880495028665 a52.03222513349907,52.03222513349907 0 0,0 -0.895549694658401,0.01541770014805132 l -0.2670942651731137 -31.031075672455877" fill="#84ff25" stroke="none" /><path d="M 100.18074693466247 120.99922214144158 l 0.013883644047760947 1.6130050893315822 a22.613064838678728,22.613064838678728 0 0,0 -0.38926115742043166,0.0 l 0.013883644047759837 -1.6130050893315822" fill="#ff0200" stroke="none" /><path d="M 99.81925306533755 120.99922214144158 l -0.2550712857489311 29.63424304455297 a50.63534076376463,50.63534076376463 0 0,0 -0.8715072984783581,-0.015003788494286593 l 0.7651382741199572 -29.625461778779524" fill="#94ff23" stroke="none" /><path d="M 99.45781275523022 120.99299961872073 l -0.8396987860326465 32.51237734762389 a53.52321901112422,53.52321901112422 0 0,0 -0.9208023686466675,-0.03171429538284514 l 1.399221506353957 -32.49310625381495" fill="#74ff27" stroke="none" /><path d="M 99.09653310690486 120.98055641714683 l -0.7592401588738533 17.631283569058255 a38.64762323689483,38.64762323689483 0 0,0 -0.6643930055228158,-0.034341529418193996 l 1.062621232810158 -17.61560223287786" fill="#ffdd14" stroke="none" /><path d="M 98.73552117531835 120.96189622390904 l -1.8690811013765574 30.98468975230884 a52.04101259962947,52.04101259962947 0 0,0 -0.8937108147713947,-0.06163553030484035 l 2.402154676926882 -30.947925877487712" fill="#84ff25" stroke="none" /><path d="M 98.37488393609728 120.93702456842531 l -0.11786334751182433 1.5184809610740746 a22.523048324194324,22.523048324194324 0 0,0 -0.3862763731304968,-0.03332955083991122 l 0.1439840383838628 -1.5162271579555" fill="#ff0100" stroke="none" /><path d="M 98.01472825383883 120.90594882070398 l -2.9355579857826712 30.91295946242663 a52.05202994030382,52.05202994030382 0 0,0 -0.8912482498591884,-0.0923815251921321 l 3.4672388322474528 -30.85784856877874" fill="#84ff25" stroke="none" /><path d="M 97.65516085044442 120.86867818915974 l -3.4664984277667474 30.851259092122916 a52.045398997581046,52.045398997581046 0 0,0 -0.8894126884085976,-0.10769549027229318 l 3.9970385392267342 -30.787018073125274" fill="#84ff25" stroke="none" /><path d="M 97.2962882734958 120.8252237178851 l -3.9988177558783025 30.800722413143582 a52.05921835166257,52.05921835166257 0 0,0 -0.8876627455662951,-0.12302196813412437 l 4.528409092631429 -30.727325879516854" fill="#84ff25" stroke="none" /><path d="M 96.93821686468263 120.77559828337769 l -4.523303520778517 30.692682240455845 a52.02420051918632,52.02420051918632 0 0,0 -0.8848180309472627,-0.13819037923208533 l 5.050957415334297 -30.610273553876652" fill="#84ff25" stroke="none" /><path d="M 96.58105272829116 120.7198165907248 l -0.24726791920207453 1.4985156328767864 a22.518779288060855,22.518779288060855 0 0,0 -0.38190887641127486,-0.06639975349945013 l 0.27302576708539933 -1.4940373008563301" fill="#ff0100" stroke="none" /><path d="M 96.22490169976321 120.6578951692458 l -5.574973182265845 30.507076216632708 a52.012288294648954,52.012288294648954 0 0,0 -0.8793355611825677,-0.16852675313690912 l 6.0992763580201075 -30.40659226514733" fill="#85ff25" stroke="none" /><path d="M 95.86986931433489 120.58985236759428 l -6.108119606328534 30.45067832221871 a52.057252541209365,52.057252541209365 0 0,0 -0.8770619258860298,-0.18379685408279714 l 6.631372993643951 -30.341025487409375" fill="#84ff25" stroke="none" /><path d="M 95.51606077576429 120.51570834832081 l -6.630220270313363 30.3357513446358 a52.05185389757666,52.05185389757666 0 0,0 -0.8736776040782077,-0.19884617823812464 l 7.151418023784434 -30.21712843281999" fill="#84ff25" stroke="none" /><path d="M 95.16358092515715 120.4354850818985 l -7.135281655754456 30.14894689126006 a51.98178889216963,51.98178889216963 0 0,0 -0.8689541068460959,-0.2135677779143872 l 7.653189047343763 -30.02165785503164" fill="#85ff25" stroke="none" /><path d="M 94.81253420990036 120.34920634021253 l -0.6377796454528322 2.5018593143643626 a23.58187197688531,23.58187197688531 0 0,0 -0.39248045868177783,-0.10365765633723632 l 0.6807505469460993 -2.4905103087235445" fill="#ff1001" stroke="none" /><path d="M 94.46302465271185 120.25689768951611 l -8.185670048223379 29.9470866830226 a52.04566306167177,52.04566306167177 0 0,0 -0.8621459054516477,-0.24365104462331896 l 8.69994712177964 -29.80174684506076" fill="#84ff25" stroke="none" /><path d="M 94.11515582081647 120.15858648285463 l -8.700711776650202 29.80436617717362 a52.04839172394265,52.04839172394265 0 0,0 -0.8578690912282737,-0.25846891997961746 l 9.21245584231872 -29.650181888088277" fill="#84ff25" stroke="none" /><path d="M 93.76903079525671 120.05430185196036 l -9.209082387838567 29.63932446411363 a52.037022297814,52.037022297814 0 0,0 -0.8531064781982927,-0.2731377541044482 l 9.7179102111278 -29.476413863349478" fill="#84ff25" stroke="none" /><path d="M 93.42475214034765 119.94407469862007 l -9.717942364587934 29.476511391385596 a52.03712498940483,52.03712498940483 0 0,0 -0.8482801378477103,-0.2877826793656437 l 10.22389223537287 -29.30486572512183" fill="#84ff25" stroke="none" /><path d="M 93.08242187328487 119.8279376855182 l -0.5410802247995158 1.5509047796306568 a22.64258133593144,22.64258133593144 0 0,0 -0.36689654883180484,-0.13155604885713107 l 0.5676963342610473 -1.541361189733568" fill="#ff0200" stroke="none" /><path d="M 92.7421414339146 119.70592522655815 l -10.74464447892966 29.17295215383884 a52.08872017868802,52.08872017868802 0 0,0 -0.8387022597571036,-0.31712542974053276 l 11.245216959447045 -28.983678473991674" fill="#84ff25" stroke="none" /><path d="M 92.40401165467489 119.57807347666478 l -11.241306125965883 28.97359860264796 a52.07790822119536,52.07790822119536 0 0,0 -0.8329462750155223,-0.33144651288066707 l 11.738373477023263 -28.775805245361227" fill="#84ff25" stroke="none" /><path d="M 92.06813273071674 119.44442032107085 l -11.727662604779384 28.74954828784483 a52.049550671896405,52.049550671896405 0 0,0 -0.8266671747338328,-0.34554694608343633 l 12.22080123901068 -28.543416298741423" fill="#84ff25" stroke="none" /><path d="M 91.7346041902142 119.30500536409082 l -12.224456218235492 28.55195302162372 a52.058836925753745,52.058836925753745 0 0,0 -0.8207430765467195,-0.3597896453424065 l 12.714119969439956 -28.337298822986863" fill="#84ff25" stroke="none" /><path d="M 91.40352486487194 119.15986991738527 l -0.6180280645509324 1.377464267150802 a22.509757098294248,22.509757098294248 0 0,0 -0.3521512197281508,-0.16165535305057718 l 0.6416472800465026 -1.3666218437661504" fill="#ff0000" stroke="none" /><path d="M 91.07499286063937 119.00905698771935 l -13.193756461523868 28.10091516376808 a52.04410801758191,52.04410801758191 0 0,0 -0.8076435956265229,-0.3877180063212156 l 13.675512725150632 -27.869642880947303" fill="#84ff25" stroke="none" /><path d="M 90.7491055286396 118.85261126421891 l -13.6612176515266 27.84051062061706 a52.01165747487666,52.01165747487666 0 0,0 -0.8003506603785301,-0.4013124361209572 l 14.138422219587891 -27.6012303435868" fill="#85ff25" stroke="none" /><path d="M 90.42595943632237 118.69057910512821 l -8.273458140343697 16.151563471719964 a39.14726183701051,39.14726183701051 0 0,0 -0.5971059098843714,-0.3123775910833888 l 8.550254952754566 -16.00675646169186" fill="#ffe315" stroke="none" /><path d="M 90.10565033884886 118.52300852407294 l -14.531382286487064 27.203901941731754 a51.84174690271916,51.84174690271916 0 0,0 -0.783494659990601,-0.42722375860094075 l 14.997499758346306 -26.94973753137105" fill="#86ff25" stroke="none" /><line stroke="#e1ed5e" stroke-width="0.3" x1="58.666819895761336" x2="56.23545636021788" y1="174.27360380694188" y2="178.64263932499728" /><path d="M 58.180547188652646 175.14741091055294 a86.0,86.0 0 0,1 -31.652253787137756,-30.449443065178592" fill="none" id="id20" stroke="none" /><text fill="#e1ed5e" style="font-size:6.75px; font-family:Arial;" text-anchor="middle"><textPath startOffset="22.20632615414155" xlink:href="#id20">August</textPath></text><path d="M 89.7882731507175 118.34994917583269 l -0.7456389783753077 1.3398749847747913 a22.53337616418732,22.53337616418732 0 0,0 -0.33730450393526484,-0.19153030044124333 l 0.7685922492317797 -1.3268415185389149" fill="#ff0100" stroke="none" /><path d="M 89.4739219176387 118.17145234162733 l -15.538574418913997 26.82465988764398 a52.00015601670263,52.00015601670263 0 0,0 -0.7706723459016498,-0.4553268061570977 l 15.99801463584403 -26.553214509193133" fill="#85ff25" stroke="none" /><path d="M 89.1626897886671 117.98757091392108 l -11.401409508011808 18.923852694514014 a43.09308352342532,43.09308352342532 0 0,0 -0.6320745744890148,-0.38827182869333626 l 11.725463282433132 -18.7247923989923" fill="#eaff1a" stroke="none" /><path d="M 88.8546689885994 117.79835938074946 l -16.468255012893785 26.298718341652773 a52.029437790319136,52.029437790319136 0 0,0 -0.7549674535227499,-0.48185594888697925 l 16.918504268463458 -26.01134796394199" fill="#84ff25" stroke="none" /><path d="M 88.54995079064634 117.60387380957326 l -16.885573204144357 25.96071811160784 a51.96904046467829,51.96904046467829 0 0,0 -0.745694608295919,-0.49420572489436204 l 17.32994251118024 -25.666214365622157" fill="#85ff25" stroke="none" /><path d="M 87.95078237400918 117.19931262002967 l -18.433391214789843 26.312219431293446 a53.12666809798407,53.12666809798407 0 0,0 -0.744463170651384,-0.5311547055366387 l 18.883581713290113 -25.991020463912587" fill="#79ff26" stroke="none" /><path d="M 87.65650970185807 116.9893568818739 l -18.255891806542007 25.127079424602258 a52.05877824484469,52.05877824484469 0 0,0 -0.7204315895047114,-0.5329580668287751 l 18.685708366465285 -24.80911140903372" fill="#84ff25" stroke="none" /><path d="M 87.36589467227662 116.77436683061367 l -18.28264434598485 24.273961229390636 a51.38881830620815,51.38881830620815 0 0,0 -0.7019988404151961,-0.5382627760641623 l 18.697771914893533 -23.955659111499106" fill="#8bff24" stroke="none" /><path d="M 87.07902340077011 116.55440617244103 l -19.08262000931352 24.448728007707626 a52.01429811578395,52.01429811578395 0 0,0 -0.7010598739637279,-0.5569643634793641 l 19.500637375994604 -24.11662973022313" fill="#85ff25" stroke="none" /><path d="M 86.79598089348748 116.32954008644616 l -0.9297978372514583 1.1498901155179293 a22.478773578315263,22.478773578315263 0 0,0 -0.29878557997086597,-0.2458801910972978 l 0.949453545767013 -1.1337148055634507" fill="#ff0000" stroke="none" /><path d="M 86.51685102203217 116.09983520530335 l -19.910125909103932 23.77410103360933 a52.01001440942322,52.01001440942322 0 0,0 -0.681416691797956,-0.5807180877696471 l 20.316408077478943 -23.427858555616734" fill="#85ff25" stroke="none" /><path d="M 86.24171649860922 115.8653595955263 l -19.604557298433754 22.606988089706807 a50.92347869743285,50.92347869743285 0 0,0 -0.6572951579779834,-0.5799865545179889 l 19.990794809318324 -22.266178393416528" fill="#90ff24" stroke="none" /><path d="M 85.97065885151581 115.62618273729859 l -20.721021543705657 23.07952067873334 a52.016527990327894,52.016527990327894 0 0,0 -0.6611064169423087,-0.6039050371949418 l 21.11522751011482 -22.71942287495182" fill="#85ff25" stroke="none" /><path d="M 85.70375840098266 115.38237550388516 l -21.104970757766285 22.70838688238113 a52.00146166692902,52.00146166692902 0 0,0 -0.6504247875810394,-0.615017234126161 l 21.492731379738142 -22.341735011509037" fill="#85ff25" stroke="none" /><path d="M 85.18274418774928 114.88116024355367 l -21.906553149854997 22.00103257563987 a52.04742348894331,52.04742348894331 0 0,0 -0.6294252922248571,-0.6376044979211765 l 22.282019067135387 -21.62068758373803" fill="#84ff25" stroke="none" /><path d="M 84.9287848128048 114.62390073753433 l -22.28589354903574 21.624447070814313 a52.05282213257601,52.05282213257601 0 0,0 -0.6184208621101961,-0.648411801508515 l 22.654820962524894 -21.237628152723296" fill="#84ff25" stroke="none" /><path d="M 84.67929136418377 114.36230785411682 l -22.63865977209411 21.22247794017286 a52.03067008940921,52.03067008940921 0 0,0 -0.6069095015614272,-0.6586803978626036 l 23.000615681651265 -20.829646287508908" fill="#84ff25" stroke="none" /><path d="M 84.43433777217949 114.09645910891817 l -20.886610812505396 18.91517694095537 a49.17861653702532,49.17861653702532 0 0,0 -0.5628402510100914,-0.6323569886383776 l 21.209109913163825 -18.552845782576128" fill="#a4ff21" stroke="none" /><path d="M 84.19399662182784 113.82643327865904 l -1.1241318620022305 0.9833437216553329 a22.493531826941616,22.493531826941616 0 0,0 -0.25241758386794655,-0.2936186759287466 l 1.1408919554409558 -0.9638479465650559" fill="#ff0000" stroke="none" /><path d="M 83.95833913139862 113.55231037782056 l -23.683602257812264 20.00837265491373 a52.00399961624548,52.00399961624548 0 0,0 -0.5718062634726705,-0.6887774799199508 l 24.02450452117847 -19.59773391788002" fill="#85ff25" stroke="none" /><path d="M 83.72743513129214 113.27417163493432 l -24.03099549214728 19.603028858377264 a52.01237631601253,52.01237631601253 0 0,0 -0.5599555541196387,-0.6986306508666892 l 24.364868958321782 -19.186470373932316" fill="#85ff25" stroke="none" /><path d="M 83.50135304334701 112.99209946851258 l -24.375622400895914 19.194938328663337 a52.0260636380487,52.0260636380487 0 0,0 -0.5479909811293004,-0.7083522130372596 l 24.70242019924328 -18.772508121512825" fill="#84ff25" stroke="none" /><path d="M 83.28015986056508 112.70617746262583 l -24.670182892633086 18.74800950577905 a51.98557381080344,51.98557381080344 0 0,0 -0.5352997443322521,-0.7171214849670465 l 24.989243903660427 -18.320575141302694" fill="#85ff25" stroke="none" /><path d="M 83.06392112726016 112.41649034213515 l -1.2009304319036873 0.8804482561373449 a22.48910141830826,22.48910141830826 0 0,0 -0.22619774623148053,-0.3141688857015614 l 1.2159079705107751 -0.8596457649846454" fill="#ff0000" stroke="none" /><path d="M 82.85270091963577 112.12312394758628 l -14.400732215442533 10.181303817329832 a38.636327161902486,38.636327161902486 0 0,0 -0.3792598777019803,-0.5463521403680097 l 14.573853000306647 -9.931910414774809" fill="#ffdd14" stroke="none" /><path d="M 82.6465618267979 111.8261652097733 l -2.437180617820592 1.6609100942839432 a23.949317159136104,23.949317159136104 0 0,0 -0.22922563697713647,-0.342661225537977 l 2.465409360208459 -1.6187119545401452" fill="#ff1602" stroke="none" /><path d="M 82.44556493220864 111.52570212397912 l -4.942149932701143 3.244863634539253 a26.912189608263017,26.912189608263017 0 0,0 -0.25091789719870045,-0.38943014860807573 l 4.997272693276889 -3.159311886009729" fill="#ff4006" stroke="none" /><line stroke="#e1ed5e" stroke-width="0.3" x1="26.63291911575756" x2="22.317208475507996" y1="142.92168965132927" y2="145.44649492493687" /><path d="M 25.769776987707644 143.4266507060508 a86.0,86.0 0 0,1 -11.730757126820373,-40.83630448921669" fill="none" id="id21" stroke="none" /><text fill="#e1ed5e" style="font-size:6.75px; font-family:Arial;" text-anchor="middle"><textPath startOffset="21.46611528233685" xlink:href="#id21">September</textPath></text><path d="M 81.87401531095188 110.60418214915194 l -26.75940202033922 15.654960439060316 a52.00231254011027,52.00231254011027 0 0,0 -0.4453577193237635,-0.7765187229548702 l 27.024911735815362 -15.192021870247139" fill="#85ff25" stroke="none" /><path d="M 81.69416730710424 110.29060199501025 l -27.052866587562228 15.207736656784448 a52.03438165690669,52.03438165690669 0 0,0 -0.43219160383656235,-0.7845532995007722 l 27.310634600850307 -14.739812838885852" fill="#84ff25" stroke="none" /><path d="M 81.51974371655577 109.97397251340807 l -27.353495731217652 14.762945404236717 a52.08308681141911,52.08308681141911 0 0,0 -0.4190146133664178,-0.7926177387093026 l 27.603562852808956 -14.28991265044129" fill="#84ff25" stroke="none" /><path d="M 81.35079622478065 109.6543875284942 l -27.564231312520757 14.269551355845998 a52.03879739531279,52.03879739531279 0 0,0 -0.40496426157452264,-0.7990329070559951 l 27.805774243881547 -13.792964237087318" fill="#84ff25" stroke="none" /><path d="M 81.02952815118164 109.00673069616217 l -26.94486393025822 12.792783173692424 a50.82752074090702,50.82752074090702 0 0,0 -0.36843994380315365,-0.7935868609958387 l 27.161078490901197 -12.327076245417759" fill="#91ff23" stroke="none" /><path d="M 80.87730276802145 108.67885076344099 l -28.224998198383318 12.80993701832588 a51.99588698056917,51.99588698056917 0 0,0 -0.36287908544319925,-0.81819654039366 l 28.4413183685578 -12.322192141439523" fill="#85ff25" stroke="none" /><path d="M 80.73074385275274 108.34839909993369 l -18.91004957097751 8.192772964959659 a41.60852987556853,41.60852987556853 0 0,0 -0.27907240985735354,-0.659644740245593 l 19.04827296202717 -7.8660536990479075" fill="#fcff18" stroke="none" /><path d="M 80.58989483394504 108.01547362559985 l -28.651773518171584 11.8318542324643 a51.99865965352183,51.99865965352183 0 0,0 -0.3345182372052688,-0.8302468311025085 l 28.851194369634243 -11.336908033518986" fill="#85ff25" stroke="none" /><path d="M 80.32549172779594 107.34259656027581 l -29.096300848456547 10.858843106562361 a52.056548370300746,52.056548370300746 0 0,0 -0.306081941882865,-0.8422060470984429 l 29.278907051344635 -10.356389262457801" fill="#84ff25" stroke="none" /><path d="M 80.0844068197444 106.66101706037122 l -29.659997085984173 9.920153761534396 a52.274988054243515,52.274988054243515 0 0,0 -0.27807244017580957,-0.8558189712712432 l 29.82636177717623 -9.40813589028535" fill="#82ff25" stroke="none" /><path d="M 79.97269907076064 106.31721596034903 l -29.662558463046462 9.356467374690824 a52.1032290334509,52.1032290334509 0 0,0 -0.26243460465335217,-0.8576514723717625 l 29.819219840205946 -8.844488929767014" fill="#84ff25" stroke="none" /><path d="M 79.76711848015287 105.62410040840567 l -29.91548309617335 8.315557056655605 a52.049712044396294,52.049712044396294 0 0,0 -0.232518267273405,-0.8652869714429097 l 30.05418943978853 -7.799379152037157" fill="#84ff25" stroke="none" /><path d="M 79.67330655649465 105.27499134158121 l -30.02739429028176 7.792425528122012 a52.022029325551436,52.022029325551436 0 0,0 -0.2174735991520992,-0.8686989248820649 l 30.157079203728916 -7.274398763842554" fill="#84ff25" stroke="none" /><path d="M 79.58551787078972 104.9243191809786 l -30.213967110068662 7.2881210912854675 a52.08054886210266,52.08054886210266 0 0,0 -0.20271593285782574,-0.8732949331826378 l 30.334943608857042 -6.7669575007542555" fill="#84ff25" stroke="none" /><path d="M 79.50377843672027 104.57218783832718 l -30.3093854494463 6.7612561228067625 a52.05436250643859,52.05436250643859 0 0,0 -0.18755920845886218,-0.8762141802441631 l 30.421278696629603 -6.238528123146436" fill="#84ff25" stroke="none" /><path d="M 79.4281124754447 104.21870165774334 l -1.4717500333384672 0.3018135452090961 a22.50237797398107,22.50237797398107 0 0,0 -0.07454723542175,-0.38011474736181855 l 1.4767272017358837 -0.2764350707793227" fill="#ff0000" stroke="none" /><path d="M 79.35854240842038 103.8639653848113 l -30.496673407644415 5.708806651672868 a52.02640105327575,52.02640105327575 0 0,0 -0.15720286852945362,-0.8816771715092677 l 30.59042271851306 -5.183010729430386" fill="#84ff25" stroke="none" /><path d="M 79.29508885075956 103.50808413554451 l -30.58608349348427 5.182275523837165 a52.02199998509691,52.02199998509691 0 0,0 -0.14199094160774825,-0.8841777289324008 l 30.67075618945331 -4.655018565211551" fill="#84ff25" stroke="none" /><path d="M 79.23777060512086 103.15116336523772 l -30.662648383612787 4.653788012352742 a52.01379932805702,52.01379932805702 0 0,0 -0.12673025727867723,-0.886351124240381 l 30.738212691908064 -4.125291416131961" fill="#85ff25" stroke="none" /><path d="M 79.18660465613746 102.79330883721812 l -27.614409170548118 3.7060542932220324 a48.86198902201279,48.86198902201279 0 0,0 -0.10470075053274529,-0.8345679977333113 l 27.67411143032771 -3.2301685412013126" fill="#a7ff21" stroke="none" /><path d="M 79.1416061653843 102.43462659150553 l -1.5582115047361311 0.18187705125811904 a22.568790092799667,22.568790092799667 0 0,0 -0.04171754710992118,-0.3862526747601186 l 1.5611113533471042 -0.15502805461321836" fill="#ff0100" stroke="none" /><path d="M 79.10278846688536 102.07522291339032 l -43.91758336283051 4.361288832763768 a65.13360362256812,65.13360362256812 0 0,0 -0.1011909578150111,-1.1166337873821455 l 43.9861489169226 -3.604673656833057" fill="#35ff69" stroke="none" /><path d="M 79.07016306316243 101.71520430193888 l -21.973270026005157 1.8007138512357341 a43.04693098845662,43.04693098845662 0 0,0 -0.054164193126375645,-0.7390273815575555 l 22.001010777795866 -1.422213333181418" fill="#ebff1a" stroke="none" /><path d="M 79.04373962182676 101.35467743843564 l -30.962700350262914 2.001524644217119 a52.02732527759329,52.02732527759329 0 0,0 -0.05007914749626318,-0.894196819814269 l 30.99256584864671 -1.4682561080674124" fill="#84ff25" stroke="none" /><path d="M 79.0235259727143 100.99374915477108 l -30.966540713280708 1.4670231813019738 a52.0012709539746,52.0012709539746 0 0,0 -0.03466223249440208,-0.8944782025126566 l 30.98720507862631 -0.9337677317753205" fill="#85ff25" stroke="none" /><line stroke="#e1ed5e" stroke-width="0.3" x1="15.007084014347285" x2="10.007500721073583" y1="101.09737516637583" y2="101.16192664675087" /><path d="M 14.007167355692545 101.11028546245083 a86.0,86.0 0 0,1 10.666146001902534,-42.60595125391555" fill="none" id="id22" stroke="none" /><text fill="#e1ed5e" style="font-size:6.75px; font-family:Arial;" text-anchor="middle"><textPath startOffset="22.20632615414155" xlink:href="#id22">October</textPath></text><path d="M 79.00175016825051 100.2711162175752 l -14.724805519900846 0.19011744355236096 a35.72603280728538,35.72603280728538 0 0,0 -0.0026466231463618158,-0.614982011486581 l 14.72589644033671 0.06337404613789553" fill="#ffb811" stroke="none" /><path d="M 79.00019446554 99.90962569577889 l -14.744703497527663 -0.06345498377826035 a35.744840038636255,35.744840038636255 0 0,0 0.007943853049462456,-0.615260173114063 l 14.741426637360485 0.31725141495279535" fill="#ffb811" stroke="none" /><path d="M 79.00486145842228 99.54816195383935 l -30.994680894373264 -0.6670389923339842 a52.00185776306512,52.00185776306512 0 0,0 0.026962481723730416,-0.8947535047216537 l 30.978606718193888 1.2004626444806323" fill="#85ff25" stroke="none" /><path d="M 79.01574976396665 99.18683210126434 l -31.041333540930026 -1.2028933931642867 a52.06463166552254,52.06463166552254 0 0,0 0.0424113326880482,-0.8952362015325797 l 31.01602860000848 1.7370407013198754" fill="#84ff25" stroke="none" /><path d="M 79.05617556472873 98.46500227214037 l -30.903081604168584 -2.2649234953656734 a51.98596990693953,51.98596990693953 0 0,0 0.07309107598316576,-0.891896259901217 l 30.859516044365918 2.796533672474669" fill="#85ff25" stroke="none" /><path d="M 79.08570108090925 98.10471618934814 l -30.88447053584494 -2.7987950843386864 a52.01102665510435,52.01102665510435 0 0,0 0.08847539849231177,-0.8909351886202449 l 30.8317180116704 3.3300058036633615" fill="#85ff25" stroke="none" /><path d="M 79.12142395522702 97.74499172005258 l -30.839652470708113 -3.3308627716284454 a52.0190072587353,52.0190072587353 0 0,0 0.10381420149130202,-0.889416680113018 l 30.777747916213222 3.861223190066325" fill="#84ff25" stroke="none" /><path d="M 79.16333360222342 97.38593545837743 l -30.765782781210596 -3.859722103733752 a52.0069483319253,52.0069483319253 0 0,0 0.11908105488530867,-0.8872921748818949 l 30.69478572726745 4.388732620680306" fill="#85ff25" stroke="none" /><path d="M 79.26566170972629 96.67025291283419 l -30.646617293985354 -4.921569390714614 a52.03928151281246,52.03928151281246 0 0,0 0.14964549230399127,-0.8832161665237981 l 30.557359940161138 5.44837134555424" fill="#84ff25" stroke="none" /><path d="M 79.32604984820605 96.31383870115002 l -30.541429912708654 -5.44553102475179 a52.02310025214162,52.02310025214162 0 0,0 0.16477518348742357,-0.8802356189499181 l 30.443169005311372 5.97044472116428" fill="#84ff25" stroke="none" /><path d="M 79.3925641242962 95.95851677861259 l -30.447084714301237 -5.97121266106121 a52.027090553957095,52.027090553957095 0 0,0 0.17991637845346187,-0.8773361573403475 l 30.33978903993278 6.49442447456496" fill="#84ff25" stroke="none" /><path d="M 79.46518482838121 95.60439243477599 l -30.333534507707064 -6.493085652231351 a52.02069433487052,52.02069433487052 0 0,0 0.19496764934312452,-0.874001742691004 l 30.217272471361902 7.014265564472314" fill="#84ff25" stroke="none" /><path d="M 79.62865764111835 94.90015583598534 l -14.299082651145559 -3.579690131584004 a35.740350949093845,35.740350949093845 0 0,0 0.1545407126866792,-0.5955084071059997 l 14.235345606588572 3.8252949642388674" fill="#ffb811" stroke="none" /><path d="M 79.71946130924805 94.55025226153421 l -19.695661376751282 -5.292580620379886 a41.3943738979865,41.3943738979865 0 0,0 0.19083442940226733,-0.6865329776532697 l 19.601640176782656 5.630824901452098" fill="#ffff18" stroke="none" /><path d="M 79.81627453868168 94.20196356495316 l -8.557933961980343 -2.4583773206478163 a29.904035756233917,29.904035756233917 0 0,0 0.14637897753816684,-0.4935171433710194 l 8.51434908733047 2.605323850765375" fill="#ff6a09" stroke="none" /><path d="M 79.91906864156998 93.8553929516997 l -19.696732179775836 -6.027045121566333 a41.5982167058028,41.5982167058028 0 0,0 0.2154084738941879,-0.6829037279182599 l 19.590068222113445 6.365199015911007" fill="#fcff18" stroke="none" /><path d="M 80.02781315780177 93.51064311812611 l -11.279459122533558 -3.664918431765085 a32.85992517718375,32.85992517718375 0 0,0 0.17941942606061714,-0.536441246985646 l 11.214702402701167 3.8585327816730532" fill="#ff920d" stroke="none" /><path d="M 80.14247586403 93.16781622104843 l -15.295878312792494 -5.262702992473193 a37.175906037892965,37.175906037892965 0 0,0 0.21340194957009506,-0.6033160484502478 l 15.20302328241259 5.525216667350053" fill="#ffca12" stroke="none" /><path d="M 80.2630227832202 92.82701384747504 l -29.147831571072427 -10.593161756182255 a52.01308048692114,52.01308048692114 0 0,0 0.31305784340201726,-0.8388393777500394 l 28.961169139168785 11.093324270961634" fill="#85ff25" stroke="none" /><path d="M 80.38941819471856 92.48833698450439 l -13.787898323460679 -5.281334685840916 a35.76477687748637,35.76477687748637 0 0,0 0.22515877096408804,-0.5730045128624419 l 13.6949460026149 5.517888203599121" fill="#ffb811" stroke="none" /><path d="M 80.52162464483688 92.15188598940014 l -15.036021866903274 -6.058226711708272 a37.210615795596695,37.210615795596695 0 0,0 0.24448847606676966,-0.592048237447645 l 14.929511703950306 6.316149519609229" fill="#ffcb12" stroke="none" /><path d="M 80.65960295795068 91.81776055985345 l -17.597608938498237 -7.444927298845077 a40.107662934995524,40.107662934995524 0 0,0 0.27446875096463,-0.6335117192462076 l 17.46684947769093 7.746738162677884" fill="#ffef16" stroke="none" /><path d="M 80.803312248108 91.48605970444005 l -13.46664177322857 -5.972602436462577 a35.73168084478154,35.73168084478154 0 0,0 0.2542014442483501,-0.5600991867229258 l 13.361838012016868 6.203523632027574" fill="#ffb811" stroke="none" /><path d="M 80.95270993114464 91.15688171328213 l -12.918811453659726 -5.997838925933047 a35.24323562806736,35.24323562806736 0 0,0 0.26019880507791887,-0.5480450424625337 l 12.813654454740057 6.219326384036113" fill="#ffb110" stroke="none" /><path d="M 81.26839172434947 90.50648371742162 l -56.19482482695157 -28.480548847735136 a84.0,84.0 0 0,0 0.6647622673595439,-1.284109110958658 l 55.69625312643191 29.44363068095413" fill="#4dd2ff" stroke="none" /><path d="M 81.6062741919709 89.86733742301443 l -2.6176934778632415 -1.442024580446116 a23.988604027745822,23.988604027745822 0 0,0 0.20235228093222823,-0.35996212870416916 l 2.592483555638583 1.4868702190850698" fill="#ff1602" stroke="none" /><line stroke="#e1ed5e" stroke-width="0.3" x1="26.266209847984243" x2="21.928928074336255" y1="57.711370442889674" y2="55.22380399835377" /><path d="M 25.398753493254645 57.213857153982495 a86.0,86.0 0 0,1 29.58750427330803,-30.492523968695096" fill="none" id="id23" stroke="none" /><text fill="#e1ed5e" style="font-size:6.75px; font-family:Arial;" text-anchor="middle"><textPath startOffset="21.46611528233685" xlink:href="#id23">November</textPath></text><path d="M 81.78341655067845 89.55222093294921 l -12.857175562174135 -7.37399140039527 a35.82169735926595,35.82169735926595 0 0,0 0.311376395094567,-0.5322431933580573 l 12.728339492609242 7.594214006107219" fill="#ffb911" stroke="none" /><path d="M 81.96595687620814 89.24020034530311 l -12.68705498661634 -7.569582091329289 a35.773623024525826,35.773623024525826 0 0,0 0.3200618383034688,-0.526097507576904 l 12.554877350026654 7.786847372113267" fill="#ffb811" stroke="none" /><path d="M 82.15384107792192 88.93136811851018 l -12.588251535433924 -7.8075468724500405 a35.81289522290828,35.81289522290828 0 0,0 0.32943157407622253,-0.5210816370249505 l 12.45199236511174 8.023076157189207" fill="#ffb911" stroke="none" /><path d="M 82.34701348167596 88.62581576622439 l -12.391552924094222 -7.984133775603741 a35.74099643909341,35.74099643909341 0 0,0 0.3376730451988916,-0.5142992142539312 l 12.252283243537411 8.19625105383534" fill="#ffb811" stroke="none" /><path d="M 82.54541684631803 88.32363383020206 l -32.95937889795788 -22.048408337983478 a60.654167089697026,60.654167089697026 0 0,0 0.5879859273667893,-0.8627967947581328 l 32.57496850492235 22.61248315601203" fill="#30ff34" stroke="none" /><path d="M 82.7489923806493 88.02491185347247 l -12.125145979057828 -8.416881789899543 a35.76018509635312,35.76018509635312 0 0,0 0.35536663538506336,-0.5026409039844596 l 11.978466723868886 8.624349194215789" fill="#ffb811" stroke="none" /><path d="M 82.95767976084542 87.72973835380427 l -16.24136041185609 -11.693580389704348 a41.01303601051785,41.01303601051785 0 0,0 0.41742948427487436,-0.5693733474342437 l 16.03766831506758 11.971416180810092" fill="#fffa17" stroke="none" /><path d="M 83.17141714833178 87.43820079747576 l -24.847996979233304 -18.547940215127237 a52.007241736470554,52.007241736470554 0 0,0 0.5416778595403337,-0.7127845683900905 l 24.525043179468863 18.972909559398353" fill="#85ff25" stroke="none" /><path d="M 83.39014120810768 87.1503855733568 l -11.804345809777091 -9.132003716277005 a35.924344939423605,35.924344939423605 0 0,0 0.3825872930017484,-0.4858470097643164 l 11.645404436181371 9.33384311999437" fill="#ffba11" stroke="none" /><path d="M 83.6137871275137 86.86637796730984 l -20.680282286802225 -16.57533764499341 a47.503129881343476,47.503129881343476 0 0,0 0.5168827051894267,-0.6336370796632215 l 20.391901089536404 16.928858894264714" fill="#b7ff1f" stroke="none" /><path d="M 83.84228863543731 86.58626213691792 l -11.33943540041971 -9.413722682915363 a35.73773964864107,35.73773964864107 0 0,0 0.39701120752325486,-0.4699360459265207 l 11.175713579409331 9.607517678471" fill="#ffb811" stroke="none" /><path d="M 84.07557802195018 86.31012108654704 l -30.086182533498327 -25.86443617353049 a60.67552694059163,60.67552694059163 0 0,0 0.6876794806458363,-0.7861365237963911 l 29.636511189274646 26.378488253529824" fill="#30ff34" stroke="none" /><path d="M 84.31358615837235 86.03803664274999 l -12.02173751741364 -10.70015494957711 a37.09395814840309,37.09395814840309 0 0,0 0.4286230875920137,-0.4732963188097309 l 11.835770789205581 10.905504055656396" fill="#ffc912" stroke="none" /><path d="M 84.5562425177563 85.77008943001954 l -20.53572027026711 -18.92165577399247 a48.92391205128898,48.92391205128898 0 0,0 0.5759804664820029,-0.614415802566354 l 20.20697248181465 19.272340993436874" fill="#a7ff21" stroke="none" /><path d="M 84.80347519578584 85.50635884689758 l -24.47348822809016 -23.3415179267993 a54.81978836683578,54.81978836683578 0 0,0 0.6571476089602205,-0.6772483759391436 l 24.068076355426822 23.759330498288566" fill="#67ff28" stroke="none" /><path d="M 85.05521093208273 85.24692304244772 l -11.096694119092383 -10.954345462448384 a36.59276450419755,36.59276450419755 0 0,0 0.446369344708748,-0.44445249288685806 l 10.906488974216321 11.143733805985352" fill="#ffc312" stroke="none" /><path d="M 85.31137513191541 84.99185889309783 l -16.45799996396737 -16.816004766607048 a44.529636187678314,44.529636187678314 0 0,0 0.5524150658444105,-0.5314228556644341 l 16.16610165451053 17.096810709033797" fill="#d9ff1c" stroke="none" /><path d="M 85.57189188830299 84.74124197986013 l -10.091416093177955 -10.672395511197509 a35.68797823776573,35.68797823776573 0 0,0 0.44999501336481473,-0.4182213226943776 l 9.906213196018284 10.844521419966535" fill="#ffb711" stroke="none" /><path d="M 85.83668400450813 84.49514656593479 l -25.750860890624676 -28.18996088467006 a59.180894846605305,59.180894846605305 0 0,0 0.7580481170464299,-0.6805830841607744 l 25.26180178598227 28.629042977600115" fill="#3aff2e" stroke="none" /><path d="M 86.10567301691215 84.25364557470407 l -9.731848156669443 -11.02904303854407 a35.70879529025161,35.70879529025161 0 0,0 0.464394925553362,-0.4027187032162866 l 9.540559432469308 11.194926735180038" fill="#ffb711" stroke="none" /><path d="M 86.37877921826538 84.01681056812374 l -15.318130749208859 -17.9743496878901 a44.616146517846914,44.616146517846914 0 0,0 0.5888108922547288,-0.49311218896858844 l 15.00646231999502 18.2353630342525" fill="#d8ff1c" stroke="none" /><path d="M 86.65592168130627 83.78471172551755 l -21.510955211553892 -26.139410417442157 a54.852473633177254,54.852473633177254 0 0,0 0.7342306627912606,-0.5936968003238585 l 21.05782115019813 26.505813315030153" fill="#66ff29" stroke="none" /><path d="M 86.93701828274178 83.55741782278169 l -9.292318656554857 -11.696388805738215 a35.9382963255505,35.9382963255505 0 0,0 0.487678308372168,-0.38064065510962447 l 9.089607793023264 11.85460785007106" fill="#ffba11" stroke="none" /><path d="M 87.22198572758235 83.33499621200491 l -17.014504505994235 -22.190207022644465 a48.96245073830829,48.96245073830829 0 0,0 0.6732426653381847,-0.5070724177485184 l 16.63001568689766 22.47979602989884" fill="#a6ff21" stroke="none" /><path d="M 87.51073957382395 83.11751280151077 l -8.775361906212312 -11.862186389614742 a35.75528524044735,35.75528524044735 0 0,0 0.4979428873178728,-0.3617766841542169 l 8.569873702540658 12.011482308585625" fill="#ffb811" stroke="none" /><path d="M 87.80319425747018 82.90503203632743 l -27.329192426494085 -38.30442813193939 a68.05437251945085,68.05437251945085 0 0,0 0.9594657389610896,-0.6721670655582439 l 26.665795547949337 38.769180040261574" fill="#39ff8a" stroke="none" /><path d="M 88.09926311788651 82.69761687909137 l -13.390004191554006 -19.467616569277116 a44.62795605079345,44.62795605079345 0 0,0 0.6366821967166184,-0.42989066131115283 l 13.052917300430849 19.695219142886934" fill="#d8ff1c" stroke="none" /><path d="M 88.39885842347998 82.49532879139004 l -13.013781386592344 -19.636167945237727 a44.5571135233415,44.5571135233415 0 0,0 0.6429654587354922,-0.41820261960934957 l 12.673848902072566 19.85726948900661" fill="#d9ff1c" stroke="none" /><path d="M 88.70189139769569 82.29822771554957 l -18.993302954326985 -29.758531773938056 a56.303197736966084,56.303197736966084 0 0,0 0.8214391165145201,-0.5143850994024254 l 18.478244685440224 30.081061214663414" fill="#57ff2a" stroke="none" /><path d="M 89.00827224532344 82.1063720568725 l -7.7092482730782725 -12.550021561530205 a35.72873212910172,35.72873212910172 0 0,0 0.5268081330056261,-0.3173960056394615 l 7.492078073854997 12.680864176628285" fill="#ffb811" stroke="none" /><line stroke="#e1ed5e" stroke-width="0.3" x1="56.762969772571076" x2="54.21961505331055" y1="26.818313649435495" y2="22.513508569990535" /><path d="M 56.25429882871897 25.957352633546506 a86.0,86.0 0 0,1 42.265352541879196,-11.944610805530505" fill="none" id="id24" stroke="none" /><text fill="#e1ed5e" style="font-size:6.75px; font-family:Arial;" text-anchor="middle"><textPath startOffset="22.20632615414155" xlink:href="#id24">December</textPath></text><path d="M 89.3179101791058 81.91981866633112 l -15.809936296130887 -26.759418793566308 a52.08087160710244,52.08087160710244 0 0,0 0.7757650864169418,-0.4493732102242711 l 15.346974477248626 27.027596161180625" fill="#84ff25" stroke="none" /><path d="M 89.63071344664047 81.73862282372117 l -7.287262334875889 -12.833616410817008 a35.75824862635443,35.75824862635443 0 0,0 0.5378652075256181,-0.29932140565370424 l 7.065273038278225 12.957153214030896" fill="#ffb811" stroke="none" /><path d="M 89.94658935756843 81.56283822128135 l -20.40309688456671 -37.41766962745323 a63.61887331723179,63.61887331723179 0 0,0 0.9659615662613134,-0.5159832153292757 l 19.755990271777094 37.763331569284254" fill="#33ff57" stroke="none" /><path d="M 90.26544431104013 81.39251694778311 l -7.58277244077283 -14.494375931355293 a37.35803690936035,37.35803690936035 0 0,0 0.5723598371361223,-0.29318493915780486 l 7.3321521160479435 14.622753395825603" fill="#ffcd13" stroke="none" /><path d="M 90.58718382345135 81.22770947309562 l -10.560311188759647 -21.06077777061227 a44.56006223902131,44.56006223902131 0 0,0 0.6886200257317213,-0.33790285598261777 l 10.1962198960175 21.239435786729715" fill="#d9ff1c" stroke="none" /><path d="M 90.91171255644093 81.06846463323043 l -13.431240356818867 -27.978208591422227 a52.03511516826983,52.03511516826983 0 0,0 0.8108106409805776,-0.3806864677241114 l 12.947651504538682 28.205260041786346" fill="#84ff25" stroke="none" /><path d="M 91.23893434514133 80.91482961587045 l -6.8490965375320165 -14.920122682068738 a37.417069903865766,37.417069903865766 0 0,0 0.5876580347082676,-0.2636650303530471 l 6.591256384356975 15.035808042938315" fill="#ffcd13" stroke="none" /><path d="M 91.56875222667455 80.76684994638697 l -9.456714266054197 -21.57241838729944 a44.55416480766168,44.55416480766168 0 0,0 0.705051077317782,-0.30186607619323447 l 9.083979430946108 21.732003991455457" fill="#d9ff1c" stroke="none" /><path d="M 91.90106846888425 80.62456947434976 l -6.409438483275712 -15.333581913122933 a37.61925497600137,37.61925497600137 0 0,0 0.5996081645016782,-0.24459522556463284 l 6.144546449185653 15.441638024871143" fill="#ffd013" stroke="none" /><path d="M 92.23578459929587 80.48803036053334 l -14.141027747964372 -35.53730671409674 a59.2474683379238,59.2474683379238 0 0,0 0.9508282981442364,-0.3689066076760514 l 13.52721628482046 35.775456025663345" fill="#3aff2e" stroke="none" /><path d="M 92.57280143429618 80.3572730644239 l -8.364986993614686 -22.122897870800173 a44.651545776232,44.651545776232 0 0,0 0.7212663575653842,-0.2656484865085159 l 7.982938310276731 22.26360962511501" fill="#d8ff1c" stroke="none" /><path d="M 92.91201910852362 80.23233633223022 l -9.487779921644353 -26.460461070150966 a49.110033224571836,49.110033224571836 0 0,0 0.7981970533617302,-0.27847527890792595 l 9.030900864219339 26.6198572022311" fill="#a5ff21" stroke="none" /><path d="M 93.25333710446033 80.11325718540243 l -11.531501495348191 -33.990731129570264 a56.893527682020256,56.893527682020256 0 0,0 0.9301202550697407,-0.30664602438485977 l 10.94469841803604 34.18419087821436" fill="#51ff2b" stroke="none" /><path d="M 93.59665428221793 80.00007090966166 l -4.9492099701630785 -15.458145291387154 a37.2311101030828,37.2311101030828 0 0,0 0.6120344665619786,-0.19016208799192919 l 4.682390130890371 15.541047514261608" fill="#ffcb12" stroke="none" /><path d="M 93.94186890950719 79.89281104454417 l -8.951384223126023 -29.710016389334974 a52.0292177369102,52.0292177369102 0 0,0 0.8597451199479007,-0.25098317627627986 l 8.438648885454702 29.859697894529955" fill="#84ff25" stroke="none" /><path d="M 94.28887869178378 79.79150937346287 l -5.211290538666727 -18.439866765096024 a40.16210414836769,40.16210414836769 0 0,0 0.6668862137977383,-0.1822851940035949 l 4.893106435645267 18.526838499925915" fill="#fff016" stroke="none" /><path d="M 94.63758080256005 79.69619591428918 l -12.054137491989236 -45.64075225159825 a68.20572525412094,68.20572525412094 0 0,0 1.1377075855862677,-0.29002699568203344 l 11.26672101771797 45.84148224344914" fill="#39ff8c" stroke="none" /><path d="M 94.98787191387505 79.60689891045804 l -5.636093338851463 -22.931860326449492 a44.614312739439065,44.614312739439065 0 0,0 0.747345640199063,-0.17687256726590092 l 5.240524011689867 23.025478805856267" fill="#d8ff1c" stroke="none" /><path d="M 95.33964822691252 79.52364482259891 l -4.575416491639763 -20.103171976926966 a41.617273331017145,41.617273331017145 0 0,0 0.6998782322733494,-0.15296627367663465 l 4.228695535212894 20.17895174869947" fill="#fcff18" stroke="none" /><path d="M 95.692805502759 79.44645832069477 l -7.237516839437386 -34.536774252784845 a56.28697246561345,56.28697246561345 0 0,0 0.9499997024386574,-0.19056100317600422 l 6.641950727531592 34.65623921203806" fill="#58ff2a" stroke="none" /><path d="M 96.04723909329186 79.375362276772 l -2.776507633696288 -14.487206646772078 a35.750869502041255,35.750869502041255 0 0,0 0.6053896961780784,-0.11063109742299031 l 2.5267228164153166 14.532853225545804" fill="#ffb811" stroke="none" /><path d="M 96.40284397218896 79.31037775812273 l -4.789017207359697 -27.544803773890454 a48.95802032967494,48.95802032967494 0 0,0 0.831518856040654,-0.1372077359751945 l 4.314169145180157 27.62315777280528" fill="#a6ff21" stroke="none" /><path d="M 96.75951476605007 79.25152402106235 l -2.728238872842407 -17.468618009709296 a38.68038185437261,38.68038185437261 0 0,0 0.6587287809518318,-0.09707949897549546 l 2.4271411114619266 17.51299199284576" fill="#ffdd14" stroke="none" /><path d="M 97.11714578562143 79.19881850522333 l -7.0703151363212475 -51.01572866305615 a72.50333899029715,72.50333899029715 0 0,0 1.237684722001119,-0.16068699870511702 l 6.191115685812271 51.12987398492541" fill="#3fffbb" stroke="none" /><path d="M 97.47563105711357 79.15227682838746 l -2.9742101844746 -24.562776671312744 a45.742189151855946,45.742189151855946 0 0,0 0.7824817808430109,-0.0879209452991523 l 2.550961700121871 24.610333570082496" fill="#cbff1d" stroke="none" /><path d="M 97.83486435360386 79.11191278185805 l -2.12856631307646 -20.535285570281072 a41.64530813531631,41.64530813531631 0 0,0 0.7136714272611859,-0.06777170138199795 l 1.7747697587250377 20.568882816178252" fill="#fcff18" stroke="none" /><path d="M 98.19473922651362 79.07773832637324 l -3.0822820461662315 -35.72243548906766 a56.8551650377281,56.8551650377281 0 0,0 0.9757694888105154,-0.07573849215057879 l 2.466922367993382 35.7701992434067" fill="#52ff2b" stroke="none" /><path d="M 98.55514903715128 79.0497635885617 l -1.3188050256359392 -19.122579268100495 a40.16800157972733,40.16800157972733 0 0,0 0.6901971139159808,-0.041634574757969105 l 0.9894458628803353 19.14244711223877" fill="#fff016" stroke="none" /><path d="M 98.91598698831166 79.02799685794201 l -1.6021745289435854 -30.99668444274233 a52.038063883949654,52.038063883949654 0 0,0 0.894953516018973,-0.03853858098451094 l 1.0683801805352882 31.01967075025103" fill="#84ff25" stroke="none" /><path d="M 99.27714615592234 79.0124445844662 l -0.5582949699906754 -16.209703686149595 a37.21931524036353,37.21931524036353 0 0,0 0.6404794849596518,-0.016541695497969258 l 0.27918884983614456 16.216912173789922" fill="#ffcb12" stroke="none" /><path d="M 99.63851952072746 79.00311137660856 l -0.7341726806428185 -42.645019274115434 a63.65133853016432,63.65133853016432 0 0,0 1.0956531599153436,-0.009430632657438815 l 1.0446565042063181e-14 42.65133853016432" fill="#34ff58" stroke="none" /></svg>