<?xml version="1.0" encoding="utf-8" ?>
<svg baseProfile="full" height="200mm" version="1.1" viewBox="0,0,200,200" width="200mm" xmlns="http://www.w3.org/2000/svg" xmlns:ev="http://www.w3.org/2001/xml-events" xmlns:xlink="http://www.w3.org/1999/xlink"><defs /><rect fill="#1a1a1a" height="200" width="200" x="0" y="0" /><rect fill="#1a1a1a" height="200" width="180" x="10" y="0" /><text alignment-baseline="middle" fill="#e1ed5e" style="dominant-baseline: central; font-size:9.0px; font-family:Arial;" text-anchor="middle" x="100.0" y="100.0">2026</text><line stroke="#e1ed5e" stroke-width="0.3" x1="100.0" x2="100.0" y1="15.0" y2="10.0" /><path d="M 100.0 14.0 a86.0,86.0 0 0,1 42.46469731375804,11.215312516191453" fill="none" id="id49" stroke="none" /><text fill="#e1ed5e" style="font-size:6.75px; font-family:Arial;" text-anchor="middle"><textPath startOffset="22.20632615414155" xlink:href="#id49">January</textPath></text><path d="M 100.0 79.0 l 0.0 -12.366515837104075 a33.366515837104075,33.366515837104075 0 0,0 0.5743497207833709,0.004943609375460699 l -0.21286924151084255 12.364683604337174" fill="#ff830c" stroke="none" /><path d="M 100.36148047927253 79.00311137660856 l 0.4488883582236125 -26.0740466011508 a47.077910324969146,47.077910324969146 0 0,0 0.8101287077203988,0.02092323440791858 l -0.8976437011388791 26.062456574600525" fill="#c9ff1d" stroke="none" /><path d="M 100.72285384407766 79.0124445844662 l 0.12319142229591719 -3.576776720960778 a24.57889757301522,24.57889757301522 0 0,0 0.4227092470599074,0.018202749370920868 l -0.18474150174515613 3.574126245065662" fill="#ff0300" stroke="none" /><path d="M 101.08401301168833 79.027996857942 l 0.3776559405179679 -7.306371312669146 a28.31612505141917,28.31612505141917 0 0,0 0.4865491689693063,0.02934997458037449 l -0.5033671583268862 7.298788068708467" fill="#ff3b05" stroke="none" /><path d="M 102.88285421437855 79.19881850522331 l 1.589186726733324 -11.466747561147775 a32.57634718222954,32.57634718222954 0 0,0 0.5547767741281351,0.08175967535194159 l -1.7863324812901147 11.437693401634863" fill="#ff780b" stroke="none" /><path d="M 104.307194497241 79.44645832069477 l 1.4487582924903368 -6.913343236998722 a28.063512957630607,28.063512957630607 0 0,0 0.4719444660380474,0.10314878077812936 l -1.5675454826819122 6.887380958124723" fill="#ff3705" stroke="none" /><path d="M 106.40334571778207 80.00007090966166 l 1.0331072261956082 -3.2267617863033378 a24.388111888111887,24.388111888111887 0 0,0 0.3987075116315581,0.1314475979506872 l -1.0884975600695839 3.2085004640934147" fill="#ff0000" stroke="none" /><path d="M 106.74666289553966 80.11325718540242 l 4.0979524605322295 -12.079294298656842 a33.75549156725627,33.75549156725627 0 0,0 0.5486360349330941,0.19140833983722008 l -4.305270499528597 12.006965105647415" fill="#ff880c" stroke="none" /><path d="M 107.08798089147638 80.2323363322302 l 3.7659141819419037 -10.50275474639519 a32.15750719868367,32.15750719868367 0 0,0 0.5194473714709097,0.1913168507094346 l -3.94614387918539 10.436374627879431" fill="#ff720a" stroke="none" /><path d="M 107.4271985657038 80.35727306442388 l 3.867668807074352 -10.228831447353102 a31.935623200329083,31.935623200329083 0 0,0 0.512516316892291,0.198848368535493 l -4.04316828896631 10.160740374927062" fill="#ff6f0a" stroke="none" /><path d="M 107.76421540070413 80.48803036053334 l 4.067623947747396 -10.222199008803505 a32.00176881941588,32.00176881941588 0 0,0 0.5100718202648514,0.20807110262671466 l -4.2429796376006355 10.150667019993211" fill="#ff700a" stroke="none" /><path d="M 108.09893153111575 80.62456947434976 l 10.200265637960802 -24.40254463841107 a47.44862196626903,47.44862196626903 0 0,0 0.7508546547551632,0.3214767776607547 l -10.61880405050628 24.223348332787523" fill="#c5ff1e" stroke="none" /><path d="M 108.76106565485865 80.91482961587045 l 5.165203460594401 -11.2519175175306 a33.38083093377211,33.38083093377211 0 0,0 0.5201397717359343,0.24421259714291454 l -5.358121443629933 11.161339937747684" fill="#ff830c" stroke="none" /><path d="M 109.08828744355905 81.06846463323043 l 7.8786698710776015 -16.411817763655247 a39.20497737556561,39.20497737556561 0 0,0 0.6058638873608092,0.2972947782899753 l -8.160005025448843 16.27376782523044" fill="#ffd213" stroke="none" /><path d="M 109.41281617654863 81.2277094730956 l 9.147750564995345 -18.243661413635746 a41.40863842040312,41.40863842040312 0 0,0 0.6344188159520964,0.3249739584911621 l -9.460429868536197 18.08349492983208" fill="#ffee16" stroke="none" /><path d="M 109.73455568895987 81.39251694778311 l 5.83003609943201 -11.144042047756276 a33.57692307692308,33.57692307692308 0 0,0 0.5098175354959421,0.27232687136258 l -6.0209986814562635 11.042036449891942" fill="#ff860c" stroke="none" /><path d="M 110.05341064243156 81.56283822128135 l 7.48059533969164 -13.718821540713021 a36.62579185520362,36.62579185520362 0 0,0 0.5509145412247849,0.30658334572907475 l -7.71563396998846 13.588022797423767" fill="#ffb010" stroke="none" /><path d="M 110.36928655335952 81.73862282372117 l 20.95330758291367 -36.90092378999791 a63.434882764294535,63.434882764294535 0 0,0 0.9448875525881028,0.5473398587304653 l -21.5853918679671 36.534779773877396" fill="#32ff4d" stroke="none" /><line stroke="#e1ed5e" stroke-width="0.3" x1="143.23703022742887" x2="145.7803849466894" y1="26.81831364943548" y2="22.513508569990506" /><path d="M 143.74570117128098 25.957352633546492 a86.0,86.0 0 0,1 28.547481713284135,27.462654790039103" fill="none" id="id50" stroke="none" /><text fill="#e1ed5e" style="font-size:6.75px; font-family:Arial;" text-anchor="middle"><textPath startOffset="19.985693538727396" xlink:href="#id50">February</textPath></text><path d="M 110.68208982089419 81.91981866633111 l 21.76354178223928 -36.83631091699869 a63.785109008638415,63.785109008638415 0 0,0 0.940489969500836,0.5666346834101602 l -22.394393817957752 36.45622962412992" fill="#33ff51" stroke="none" /><path d="M 110.99172775467656 82.1063720568725 l 7.695242910344898 -12.527221983924862 a35.70197449609214,35.70197449609214 0 0,0 0.5208762480045976,0.32617265871520024 l -7.9097383107217585 12.392904983886718" fill="#ffa30f" stroke="none" /><path d="M 111.2981086023043 82.29822771554956 l 11.59342497453823 -18.16447125090302 a42.548909913615795,42.548909913615795 0 0,0 0.6139867962266534,0.39935409141966655 l -11.904378796549164 17.962218235323824" fill="#fffd17" stroke="none" /><path d="M 111.60114157652 82.49532879139004 l 13.70082753418141 -20.67283462492294 a45.80078157136981,45.80078157136981 0 0,0 0.653414245299703,0.4411882152047005 l -14.054646473887656 20.43393449741957" fill="#d9ff1c" stroke="none" /><path d="M 111.90073688211348 82.69761687909136 l 7.205201383853711 -10.475582818246309 a33.71427396133278,33.71427396133278 0 0,0 0.47532127007125646,0.332992925466171 l -7.3844537935086185 10.350005050016202" fill="#ff880c" stroke="none" /><path d="M 112.19680574252982 82.90503203632743 l 14.41956733204228 -20.210376945804647 a45.82706705059647,45.82706705059647 0 0,0 0.6382066855579002,0.46368429871515643 l -14.765319333953968 19.959173412272815" fill="#d8ff1c" stroke="none" /><path d="M 112.48926042617603 83.11751280151076 l 7.347210922863196 -9.931668498950236 a33.35392842451666,33.35392842451666 0 0,0 0.45862262475460874,0.34542505272103535 l -7.517079701376188 9.803726856723353" fill="#ff830c" stroke="none" /><path d="M 112.77801427241765 83.33499621200491 l 15.857142516260614 -20.680782981334264 a47.060386672151374,47.060386672151374 0 0,0 0.638603721103437,0.49844033368561075 l -16.21077879252348 20.40476425842543" fill="#c9ff1d" stroke="none" /><path d="M 113.06298171725822 83.55741782278167 l 7.686870407471168 -9.675585643168205 a33.35738379267791,33.35738379267791 0 0,0 0.44650701032865164,0.3610442832045729 l -7.852280816364311 9.541835262699502" fill="#ff830c" stroke="none" /><path d="M 113.34407831869373 83.78471172551755 l 16.562199198524908 -20.1258436925731 a47.06445907034143,47.06445907034143 0 0,0 0.621121909925773,0.5201717370529622 l -16.9061786454098 19.837770798126318" fill="#c9ff1d" stroke="none" /><path d="M 113.6212207817346 84.01681056812373 l 18.1656833113356 -21.315678100885748 a49.00625257095845,49.00625257095845 0 0,0 0.6373291182005576,0.5526855309581047 l -18.52990622818292 20.999827576507972" fill="#b2ff20" stroke="none" /><path d="M 113.89432698308785 84.25364557470407 l 8.508387128163905 -9.642502257991353 a33.859646236116824,33.859646236116824 0 0,0 0.43370822863820085,0.3893875299401495 l -8.673106344398096 9.494615719281907" fill="#ff8a0c" stroke="none" /><path d="M 114.16331599549186 84.49514656593476 l 15.18821505624573 -16.62683007617066 a43.51962155491567,43.51962155491567 0 0,0 0.5487453660939772,0.5099990133539033 l -15.472168306134552 16.362926476742114" fill="#f5ff19" stroke="none" /><path d="M 114.42810811169701 84.74124197986012 l 8.491531313408231 -8.980402733931063 a33.35935828877005,33.35935828877005 0 0,0 0.41384151507436023,0.39811520961533187 l -8.64485607209501 8.83290443755343" fill="#ff830c" stroke="none" /><path d="M 114.68862486808459 84.99185889309783 l 15.741696639787195 -16.084119960426342 a43.505553270259156,43.505553270259156 0 0,0 0.53069358294066,0.5284146160416475 l -16.01622602289518 15.810769493734577" fill="#f5ff19" stroke="none" /><path d="M 114.94478906791727 85.2469230424477 l 8.803347571064387 -8.690418018599297 a33.37021801727684,33.37021801727684 0 0,0 0.4000226858555696,0.412258540760966 l -8.951634520623067 8.537595282288217" fill="#ff830c" stroke="none" /><path d="M 115.19652480421416 85.50635884689758 l 18.851567195421083 -17.97962715977415 a47.05088440970795,47.05088440970795 0 0,0 0.5539293407747757,0.5908931991321675 l -19.158263858166322 17.652464543763926" fill="#caff1d" stroke="none" /><path d="M 115.4437574822437 85.77008943001954 l 27.82036312885298 -25.63374099878999 a58.82937062937063,58.82937062937063 0 0,0 0.6797771857987142,0.7506269469917388 l -28.257483955267727 25.1510612645287" fill="#46ff2c" stroke="none" /><path d="M 115.68641384162765 86.03803664274999 l 47.05924152488298 -41.88589007175005 a84.0,84.0 0 0,0 0.9520325456886072,1.0883377751882088 l -47.773265934149435 41.069636740358895" fill="#4dd2ff" stroke="none" /><line stroke="#e1ed5e" stroke-width="0.3" x1="172.23445277983987" x2="176.4835382374775" y1="55.19839476539836" y2="52.563006222186495" /><path d="M 173.08426987136738 54.67131705675599 a86.0,86.0 0 0,1 12.851231095245387,41.99856678651699" fill="none" id="id51" stroke="none" /><text fill="#e1ed5e" style="font-size:6.75px; font-family:Arial;" text-anchor="middle"><textPath startOffset="22.20632615414155" xlink:href="#id51">March</textPath></text><line stroke="#e1ed5e" stroke-width="0.3" x1="184.98032266829074" x2="189.97916517819016" y1="98.17113171792111" y2="98.06355123074" /><path d="M 185.9800911702706 98.14961562048488 a86.0,86.0 0 0,1 -9.607161424134198,41.387399972396054" fill="none" id="id52" stroke="none" /><text fill="#e1ed5e" style="font-size:6.75px; font-family:Arial;" text-anchor="middle"><textPath startOffset="21.466115282336823" xlink:href="#id52">April</textPath></text><line stroke="#e1ed5e" stroke-width="0.3" x1="174.80103733775053" x2="179.2010983576182" y1="140.37084112569926" y2="142.7455964860345" /><path d="M 175.68104954172406 140.8457921977663 a86.0,86.0 0 0,1 -30.038265399797805,32.042727171017184" fill="none" id="id53" stroke="none" /><text fill="#e1ed5e" style="font-size:6.75px; font-family:Arial;" text-anchor="middle"><textPath startOffset="22.206326154141568" xlink:href="#id53">May</textPath></text><line stroke="#e1ed5e" stroke-width="0.3" x1="143.8653032363475" x2="146.44561519142675" y1="172.8068346515853" y2="177.08958963109032" /><path d="M 144.38136562736335 173.6633856474863 a86.0,86.0 0 0,1 -40.68145358897372,12.25698825130547" fill="none" id="id54" stroke="none" /><text fill="#e1ed5e" style="font-size:6.75px; font-family:Arial;" text-anchor="middle"><textPath startOffset="21.466115282336833" xlink:href="#id54">June</textPath></text><line stroke="#e1ed5e" stroke-width="0.3" x1="102.19456741930631" x2="102.32365962044197" y1="184.97166512339345" y2="189.96999836594603" /><path d="M 102.22038585953345 185.97133177190398 a86.0,86.0 0 0,1 -42.740103519485714,-10.115201625700543" fill="none" id="id55" stroke="none" /><text fill="#e1ed5e" style="font-size:6.75px; font-family:Arial;" text-anchor="middle"><textPath startOffset="22.20632615414155" xlink:href="#id55">July</textPath></text><line stroke="#e1ed5e" stroke-width="0.3" x1="58.666819895761336" x2="56.23545636021788" y1="174.27360380694188" y2="178.64263932499728" /><path d="M 58.180547188652646 175.14741091055294 a86.0,86.0 0 0,1 -31.652253787137756,-30.449443065178592" fill="none" id="id56" stroke="none" /><text fill="#e1ed5e" style="font-size:6.75px; font-family:Arial;" text-anchor="middle"><textPath startOffset="22.20632615414155" xlink:href="#id56">August</textPath></text><line stroke="#e1ed5e" stroke-width="0.3" x1="26.63291911575756" x2="22.317208475507996" y1="142.92168965132927" y2="145.44649492493687" /><path d="M 25.769776987707644 143.4266507060508 a86.0,86.0 0 0,1 -11.730757126820373,-40.83630448921669" fill="none" id="id57" stroke="none" /><text fill="#e1ed5e" style="font-size:6.75px; font-family:Arial;" text-anchor="middle"><textPath startOffset="21.46611528233685" xlink:href="#id57">September</textPath></text><line stroke="#e1ed5e" stroke-width="0.3" x1="15.007084014347285" x2="10.007500721073583" y1="101.09737516637583" y2="101.16192664675087" /><path d="M 14.007167355692545 101.11028546245083 a86.0,86.0 0 0,1 10.666146001902534,-42.60595125391555" fill="none" id="id58" stroke="none" /><text fill="#e1ed5e" style="font-size:6.75px; font-family:Arial;" text-anchor="middle"><textPath startOffset="22.20632615414155" xlink:href="#id58">October</textPath></text><line stroke="#e1ed5e" stroke-width="0.3" x1="26.266209847984243" x2="21.928928074336255" y1="57.711370442889674" y2="55.22380399835377" /><path d="M 25.398753493254645 57.213857153982495 a86.0,86.0 0 0,1 29.58750427330803,-30.492523968695096" fill="none" id="id59" stroke="none" /><text fill="#e1ed5e" style="font-size:6.75px; font-family:Arial;" text-anchor="middle"><textPath startOffset="21.46611528233685" xlink:href="#id59">November</textPath></text><line stroke="#e1ed5e" stroke-width="0.3" x1="56.762969772571076" x2="54.21961505331055" y1="26.818313649435495" y2="22.513508569990535" /><path d="M 56.25429882871897 25.957352633546506 a86.0,86.0 0 0,1 42.265352541879196,-11.944610805530505" fill="none" id="id60" stroke="none" /><text fill="#e1ed5e" style="font-size:6.75px; font-family:Arial;" text-anchor="middle"><textPath startOffset="22.20632615414155" xlink:href="#id60">December</textPath></text></svg>