<?xml version="1.0" encoding="utf-8" ?>
<svg baseProfile="full" height="200mm" version="1.1" viewBox="0,0,200,200" width="200mm" xmlns="http://www.w3.org/2000/svg" xmlns:ev="http://www.w3.org/2001/xml-events" xmlns:xlink="http://www.w3.org/1999/xlink"><defs /><rect fill="#1a1a1a" height="200" width="200" x="0" y="0" /><text alignment-baseline="middle" fill="#e1ed5e" style="dominant-baseline: central; font-size:9.0px; font-family:Arial;" text-anchor="middle" x="100.0" y="100.0">2024</text><line stroke="#e1ed5e" stroke-width="0.3" x1="100.0" x2="100.0" y1="15.0" y2="10.0" /><path d="M 100.0 14.0 a86.0,86.0 0 0,1 42.35913384403234,11.155469271406648" fill="none" id="id25" stroke="none" /><text fill="#e1ed5e" style="font-size:6.75px; font-family:Arial;" text-anchor="middle"><textPath startOffset="22.145653131862478" xlink:href="#id25">January</textPath></text><path d="M 100.0 79.0 l 0.0 -24.118076009501188 a45.11807600950119,45.11807600950119 0 0,0 0.774511770677049,0.006648252044770359 l -0.41401884582819426 24.114522155650853" fill="#d3ff1c" stroke="none" /><path d="M 100.36049292484886 79.00309439819443 l 0.3609929910438945 -21.026031950668873 a42.02913064133016,42.02913064133016 0 0,0 0.721273290681754,0.018577441435462225 l -0.7218795957963898 21.016736791883368" fill="#f8ff18" stroke="none" /><path d="M 100.72087961077811 79.0123766808444 l 0.7218282267029852 -21.015241236777488 a42.02763420427553,42.02763420427553 0 0,0 0.7208224372986294,0.03095521696565903 l -1.0824764246024507 20.999753451385995" fill="#f8ff18" stroke="none" /><path d="M 101.08105385017728 79.02784411241856 l 0.8511950962613176 -16.512957468871576 a37.534881235154394,37.534881235154394 0 0,0 0.6431970954527412,0.038693140063151624 l -1.1345365438465211 16.495912350983733" fill="#ffce13" stroke="none" /><path d="M 101.44090949804482 79.04949213459386 l 2.5054883455967136 -36.42925066586991 a57.515308788598574,57.515308788598574 0 0,0 0.9844183454142301,0.07620020583180134 l -3.1304756857861773 36.38087269304305" fill="#4bff2c" stroke="none" /><path d="M 101.80034050326958 79.07731436759882 l 1.678550247846499 -19.50729825280312 a40.57938242280285,40.57938242280285 0 0,0 0.6935218128147845,0.06567723672547021 l -2.0131716240462967 19.47560926057247" fill="#fff417" stroke="none" /><path d="M 102.15924093988457 79.11130261209362 l 4.0097873579406995 -38.79105530221819 a59.99774821852732,59.99774821852732 0 0,0 1.0235732938806237,0.11469352254890587 l -4.67509655342212 38.71650601916231" fill="#33ff2f" stroke="none" /><path d="M 102.51750503828377 79.15144685158666 l 2.8902990978958547 -23.935822745511643 a45.10969596199525,45.10969596199525 0 0,0 0.7679865121036524,0.09943122961743599 l -3.300763431890299 23.88267991969381" fill="#d3ff1c" stroke="none" /><path d="M 102.87502721639298 79.19773525538626 l 2.673529465687774 -19.344327396503108 a40.528204275534435,40.528204275534435 0 0,0 0.6883520466612636,0.10116404615462667 l -3.00520661795672 19.295582277049597" fill="#fff417" stroke="none" /><path d="M 103.23170211078529 79.25015418208739 l 5.539682431781169 -35.5687351120758 a56.99754156769596,56.99754156769596 0 0,0 0.9654908479189149,0.15887115161270096 l -6.149450782753155 35.468397961967426" fill="#51ff2b" stroke="none" /><path d="M 103.58742460773223 79.30868818359171 l 4.125504214097688 -23.794811996833268 a45.14980047505938,45.14980047505938 0 0,0 0.7625269531239857,0.13895781196845564 l -4.533365900772727 23.720486010933445" fill="#d3ff1c" stroke="none" /><path d="M 103.94208987418118 79.37332000966035 l 5.354547230644021 -28.01725372702085 a49.5243349168646,49.5243349168646 0 0,0 0.8336679259454086,0.1667569334210537 l -5.834711642120387 27.92120739693694" fill="#a0ff22" stroke="none" /><path d="M 104.29559338865022 79.4440306129975 l 4.014859525240902 -19.212556223786397 a40.627567695962,40.627567695962 0 0,0 0.6814550601841994,0.14851995864726827 l -4.344077002044235 19.14080480700541" fill="#fff517" stroke="none" /><path d="M 104.64783097203109 79.52079915486377 l 12.937806069544145 -57.00636072783699 a79.45606888361044,79.45606888361044 0 0,0 1.3275514172137017,0.3132985197273302 l -13.914489640497733 56.775866064463436" fill="#47fdff" stroke="none" /><path d="M 104.9986988182912 79.60360301121754 l 5.730574816294689 -23.382700813933415 a45.074679334916866,45.074679334916866 0 0,0 0.7499454461515548,0.19063319977287108 l -6.1311255556716375 23.280882382325274" fill="#d3ff1c" stroke="none" /><path d="M 105.3480935250658 79.69241777938227 l 5.360885758271838 -20.356156413720246 a42.05023040380047,42.05023040380047 0 0,0 0.6964691537820603,0.18982576492405992 l -5.709536312988591 20.261130154652044" fill="#f8ff18" stroke="none" /><path d="M 105.69591212413111 79.78721728523813 l 9.760912782695987 -34.63803599401075 a56.98706650831354,56.98706650831354 0 0,0 0.9393096426474443,0.27341934732926165 l -10.354082437725035 34.46537295237897" fill="#51ff2b" stroke="none" /><path d="M 106.04205211174951 79.88797359093562 l 4.765112476018123 -15.861509663823284 a37.561817102137766,37.561817102137766 0 0,0 0.6159411221658924,0.1908201341256529 l -5.0366942310556455 15.777372941890984" fill="#ffce13" stroke="none" /><path d="M 106.38641147887787 79.99465700312896 l 4.5634019789392815 -14.294791703168004 a36.00552256532067,36.00552256532067 0 0,0 0.5871939427492123,0.1930223121353582 l -4.808118659336236 14.214348469630623" fill="#ffba11" stroke="none" /><path d="M 106.72888874123014 80.10723608172694 l 10.139891907339743 -29.9767886833334 a52.645304038004745,52.645304038004745 0 0,0 0.8535915311369384,0.2969234441983046 l -10.6529892105217 29.798306806566504" fill="#7eff26" stroke="none" /><path d="M 107.06938296918511 80.22567764915836 l 14.661833110555778 -41.01175667609829 a64.55380047505938,64.55380047505938 0 0,0 1.0402717325102482,0.3820021894426664 l -15.363693994720151 40.7540236376469" fill="#35ff62" stroke="none" /><path d="M 107.40779381753099 80.34994680014964 l 8.48368349205102 -22.50397838489752 a45.04998812351544,45.04998812351544 0 0,0 0.7212883610220536,0.27900983308211746 l -8.8687441155666 22.355028663677363" fill="#d4ff1c" stroke="none" /><path d="M 107.74402155503746 80.48000691201159 l 10.506025252416682 -26.482046679738758 a49.48991686460808,49.48991686460808 0 0,0 0.7869969977615185,0.32006482766881456 l -10.95907671136864 26.29779459549065" fill="#a1ff22" stroke="none" /><path d="M 108.07796709384702 80.6158196554323 l 13.845098346885564 -33.22319590144498 a56.99260332541568,56.99260332541568 0 0,0 0.8998451541634739,0.38409038821200997 l -14.413378576219468 32.980630863573566" fill="#51ff2b" stroke="none" /><path d="M 108.4095320186766 80.7573450057729 l 9.653084075262608 -22.088145461366313 a45.10535629453682,45.10535629453682 0 0,0 0.7068365817120685,0.31615901240145183 l -10.030834059830308 21.919182698055007" fill="#d3ff1c" stroke="none" /><path d="M 108.73861861582097 80.90454125486305 l 11.858471516179563 -25.91290037622439 a49.49739904988124,49.49739904988124 0 0,0 0.7695933058948603,0.3602085262028544 l -12.301553535945928 25.705515618451003" fill="#a1ff22" stroke="none" /><path d="M 109.06512990194946 81.05736502329252 l 7.1320393982026316 -14.903219305284944 a37.5218622327791,37.5218622327791 0 0,0 0.5786224053660115,0.2830332136030117 l -7.38682205283071 14.77859234158471" fill="#ffce13" stroke="none" /><path d="M 109.3889696526874 81.21577127319529 l 21.446458433075406 -42.90728327910715 a68.9685890736342,68.9685890736342 0 0,0 1.0544731670650593,0.5384215125221998 l -22.179858821854044 42.532803814912114" fill="#3aff94" stroke="none" /><path d="M 109.71004243097381 81.37971332152246 l 11.14037089025372 -21.363130095023347 a45.09338479809976,45.09338479809976 0 0,0 0.6832961607997943,0.3638167188165749 l -11.505455866840073 21.1687429084842" fill="#d3ff1c" stroke="none" /><path d="M 110.02825361518725 81.54914285379988 l 10.039449052714895 -18.471455490282565 a42.02344418052256,42.02344418052256 0 0,0 0.6308635719813068,0.34992938891932884 l -10.3550568128523 18.29639318593009" fill="#f8ff18" stroke="none" /><path d="M 110.34350942703115 81.72400993836675 l 16.25564812293054 -28.722172647099104 a54.003171021377675,54.003171021377675 0 0,0 0.8028665120141537,0.46353519683470756 l -16.74630710280509 28.438890552988227" fill="#70ff27" stroke="none" /><line stroke="#e1ed5e" stroke-width="0.3" x1="143.13028292997686" x2="145.6673583964461" y1="26.7553504044142" y2="22.446841604673864" /><path d="M 143.63769802327073 25.89364864446614 a86.0,86.0 0 0,1 29.32050498858742,28.57503671076993" fill="none" id="id26" stroke="none" /><text fill="#e1ed5e" style="font-size:6.75px; font-family:Arial;" text-anchor="middle"><textPath startOffset="20.669276256404974" xlink:href="#id26">February</textPath></text><path d="M 110.65571695917076 81.90426304109057 l 8.385112758678575 -14.239754624981254 a37.52515439429929,37.52515439429929 0 0,0 0.5522760013525126,0.33162587063380516 l -8.628321516588523 14.093714753811527" fill="#ffce13" stroke="none" /><path d="M 110.96478420261332 82.08984904055464 l 7.8540150217103895 -12.828943285820289 a36.04218527315915,36.04218527315915 0 0,0 0.5249044349209152,0.3275791891548052 l -8.073083585421017 12.69222829982394" fill="#ffbb11" stroke="none" /><path d="M 111.27062007382361 82.28071324371311 l 16.979898574545327 -26.695220845374813 a52.63782185273159,52.63782185273159 0 0,0 0.7582713046260657,0.4915022984846152 l -17.4356555114284 26.399804705186305" fill="#7eff26" stroke="none" /><path d="M 111.5731344415666 82.4767994020092 l 23.968181345528453 -36.2908814208731 a64.49139904988124,64.49139904988124 0 0,0 0.9185531829350962,0.6180435752048103 l -24.58763081656055 35.87408817161117" fill="#35ff61" stroke="none" /><path d="M 111.8722381534696 82.67804972795209 l 13.621912776348507 -19.874777836487844 a45.09488123515439,45.09488123515439 0 0,0 0.6347746788594238,0.44312202492982 l -13.961082546381693 19.638010995752897" fill="#d3ff1c" stroke="none" /><path d="M 112.16784306229584 82.88440491214696 l 11.327799455156576 -15.933968552868595 a40.550201900237525,40.550201900237525 0 0,0 0.5638775708589986,0.408203876303633 l -11.599658036389544 15.737163905191888" fill="#fff417" stroke="none" /><path d="M 112.45986205192187 83.09580414077388 l 16.932686165715104 -22.97244080033025 a49.538551068883606,49.538551068883606 0 0,0 0.6802044349716166,0.5104380889626814 l -17.32454358959749 22.678383684103554" fill="#a0ff22" stroke="none" /><path d="M 112.7482090630111 83.31218511350987 l 27.337550210224585 -35.78573077233506 a66.03287885985748,66.03287885985748 0 0,0 0.8948714595534406,0.6958574595303891 l -27.94783161441325 35.31117226118388" fill="#36ff73" stroke="none" /><path d="M 113.03279911837588 83.53348406188908 l 12.121896234627162 -15.315619901343902 a40.53224465558195,40.53224465558195 0 0,0 0.5418760220393706,0.43649696596394605 l -12.38302302702179 15.105274641586549" fill="#fff417" stroke="none" /><path d="M 113.31354834802062 83.75963576809568 l 9.550652580963673 -11.650243234388183 a36.06463182897862,36.06463182897862 0 0,0 0.47541027234586686,0.39660415774317986 l -9.749237187471433 11.484576892733132" fill="#ffbb11" stroke="none" /><path d="M 113.59037401385872 83.9905735841838 l 33.94074855560856 -39.982116455708564 a73.4456294536817,73.4456294536817 0 0,0 0.9541654684141733,0.8241854059800988 l -34.62209350378559 39.39358691726375" fill="#40ffc5" stroke="none" /><path d="M 113.86319453409587 84.22622945171908 l 9.90592754327646 -11.27112713821047 a36.00552256532067,36.00552256532067 0 0,0 0.46075919718103786,0.41201371530148273 l -10.097951767280874 11.099417893025601" fill="#ffba11" stroke="none" /><path d="M 114.13192950727249 84.46653392183569 l 14.143476737083661 -15.546158506503708 a42.017159144893114,42.017159144893114 0 0,0 0.5293566382715191,0.48996460154838667 l -14.408263146669144 15.301076158822948" fill="#f8ff18" stroke="none" /><path d="M 114.39649973595853 84.71141617570332 l 23.617782678472956 -25.081266755555212 a55.450973871733964,55.450973871733964 0 0,0 0.6874006754464778,0.6585142974453652 l -24.04485583978475 24.672140327804264" fill="#60ff29" stroke="none" /><path d="M 114.65682725009322 84.96080404539774 l 11.566012230465482 -11.867747458522476 a37.571543942992875,37.571543942992875 0 0,0 0.45802946774277825,0.45411470949066307 l -11.768033618338222 11.667452738803155" fill="#ffcf13" stroke="none" /><path d="M 114.91283532996326 85.21462403516908 l 10.663704510863319 -10.572562284932445 a36.01644655581948,36.01644655581948 0 0,0 0.4315339680519317,0.4427918672889295 l -10.843625280066062 10.387947725575774" fill="#ffbb11" stroke="none" /><path d="M 115.16444852881244 85.47280134310134 l 19.48865766392867 -18.66969319077202 a47.988242280285036,47.988242280285036 0 0,0 0.5647625775630192,0.5997582861292132 l -19.80627607522795 18.33239344469831" fill="#b2ff20" stroke="none" /><path d="M 115.41159269507618 85.73525988315684 l 11.033748584852521 -10.212672965837758 a36.03470308788599,36.03470308788599 0 0,0 0.41629056279054455,0.457576251879768 l -11.207436848484944 10.021759138400318" fill="#ffbb11" stroke="none" /><path d="M 115.6541949942343 86.00192230759917 l 11.183788230868949 -10.000612398703481 a36.00297862232779,36.00297862232779 0 0,0 0.4080147893642577,0.46424593205469905 l -11.353814084191796 9.807154188837485" fill="#ffba11" stroke="none" /><path d="M 115.8921839302757 86.27271002978787 l 12.501788444057867 -10.798747099251077 a37.51991686460808,37.51991686460808 0 0,0 0.41683812291782146,0.49103426067264544 l -12.685321130482802 10.58254605612888" fill="#ffce13" stroke="none" /><path d="M 116.1254893667686 86.54754324733833 l 11.550599936918623 -9.635921278699897 a36.04218527315915,36.04218527315915 0 0,0 0.39226457551291516,0.47849900079794616 l -11.714311331670165 9.436219996203455" fill="#ffbb11" stroke="none" /><path d="M 116.35404254752997 86.82634096563983 l 16.35563522150729 -13.174941979776824 a42.002045130641335,42.002045130641335 0 0,0 0.4474889274967952,0.5653876415822814 l -16.579390579645644 12.892234394279864" fill="#f8ff18" stroke="none" /><path d="M 116.57777611688842 87.10902102172516 l 9.503672840406221 -7.390113483151154 a33.03883610451307,33.03883610451307 0 0,0 0.3443087596184678,0.4507112188002419 l -9.629133577378996 7.22588135111003" fill="#ff930d" stroke="none" /><path d="M 116.7966241395341 87.39550010848427 l 25.29427966323807 -18.981299017154534 a52.62420427553444,52.62420427553444 0 0,0 0.5360100483592866,0.7272005743098089 l -25.61639173118118 18.54429213357585" fill="#7eff26" stroke="none" /><path d="M 117.01052211995028 87.68569379921539 l 13.40021052141366 -9.700719022735422 a37.54296199524941,37.54296199524941 0 0,0 0.37343609129862404,0.5252846290944702 l -13.564761711242245 9.469257166931449" fill="#ffce13" stroke="none" /><path d="M 117.21940702142032 87.97951657250589 l 12.352572718620308 -8.623055106739896 a36.06463182897862,36.06463182897862 0 0,0 0.35001629070107326,0.5106842284964467 l -12.498778746136706 8.4097361431734" fill="#ffbb11" stroke="none" /><path d="M 117.42321728460499 88.27688183743584 l 13.710416590415521 -9.224980158483119 a37.52500475059382,37.52500475059382 0 0,0 0.35501435111079577,0.5375369759238587 l -13.86675538044704 8.988263304220201" fill="#ffce13" stroke="none" /><path d="M 117.62189284568427 88.57770195909679 l 16.3889882049013 -10.62314414827898 a40.530748218527314,40.530748218527314 0 0,0 0.37342774883097685,0.5870904458627517 l -16.568933645358168 10.340240027737556" fill="#fff417" stroke="none" /><path d="M 117.81537515405839 88.88188828441811 l 12.750899860857178 -7.9575045656511545 a36.03021377672209,36.03021377672209 0 0,0 0.32295430858568597,0.5275215921161797 l -12.885622133898266 7.73744585741042" fill="#ffbb11" stroke="none" /><line stroke="#e1ed5e" stroke-width="0.3" x1="172.87174338648825" x2="177.1583165268699" y1="56.24261187166439" y2="53.66864786411523" /><path d="M 173.72905801456457 55.72781907015455 a86.0,86.0 0 0,1 12.242430191666344,42.057860355516425" fill="none" id="id27" stroke="none" /><text fill="#e1ed5e" style="font-size:6.75px; font-family:Arial;" text-anchor="middle"><textPath startOffset="22.145653131862474" xlink:href="#id27">March</textPath></text><path d="M 118.00360718960297 89.18935116829356 l 23.70664533310094 -14.23515937528175 a48.65221140142518,48.65221140142518 0 0,0 0.4237985012211868,0.7197025062756021 l -23.947517544451895 13.826105700712592" fill="#aaff21" stroke="none" /><path d="M 118.18653347947321 89.5 l 7.82884907953665 -4.51998812351544 a30.03997624703088,30.03997624703088 0 0,0 0.2540046427153842,0.4488018654232972 l -7.905287087273411 4.384929487993025" fill="#ff6b09" stroke="none" /><path d="M 118.36410011445183 89.81374322990088 l 55.092300343355504 -30.558770310297362 a84.0,84.0 0 0,0 0.6886186015386349,1.2669806661015868 l -55.60876429450948 29.60853481072117" fill="#4dd2ff" stroke="none" /><path d="M 118.53625476483649 90.13048839642627 l 1.3713306197282586 -0.7301563145009666 a22.553600950118764,22.553600950118764 0 0,0 0.1790239663782772,0.3433020607251153 l -1.3836626550814806 0.706508010671353" fill="#ff0000" stroke="none" /><path d="M 118.70294669586156 90.45014215332178 l 6.719866570204526 -3.4312117516914205 a28.545185273159145,28.545185273159145 0 0,0 0.2190912114149923,0.4383291862141655 l -6.777777694831255 3.3153507093135044" fill="#ff5608" stroke="none" /><path d="M 118.8641267826498 90.77261029715802 l 13.492779518825238 -6.599994594461494 a36.020486935866984,36.020486935866984 0 0,0 0.2669302336002341,0.5577815248129148 l -13.604089010385383 6.367400567583476" fill="#ffbb11" stroke="none" /><path d="M 119.0197475246899 91.09779779509293 l 13.596634715037228 -6.363911580971101 a36.01225653206651,36.01225653206651 0 0,0 0.2572570445445299,0.5621530698344099 l -13.703876224436808 6.129569528922008" fill="#ffbb11" stroke="none" /><path d="M 119.16976305983485 91.42560881287824 l 13.711935721020158 -6.133174439231081 a36.021085510688835,36.021085510688835 0 0,0 0.24762972765299548,0.5666252777156234 l -13.815199330690122 5.896887091739608" fill="#ffbb11" stroke="none" /><path d="M 119.31412917781788 91.75594674310238 l 14.126381606730835 -6.029712301339458 a36.35942992874109,36.35942992874109 0 0,0 0.24010063040490895,0.5761541074063272 l -14.227808081672226 5.786325684491853" fill="#ffbf11" stroke="none" /><path d="M 119.4528033332814 92.08871423366111 l 13.890271909820399 -5.649052661871651 a35.995047505938246,35.995047505938246 0 0,0 0.22786806238555848,0.5743763716471094 l -13.985198647172082 5.409775273010976" fill="#ffba11" stroke="none" /><path d="M 119.58574465831526 92.42381321644754 l 25.327717424235846 -9.797305201034547 a48.15659144893112,48.15659144893112 0 0,0 0.29162099068513936,0.77355932445025 l -25.492169098735427 9.361077596390139" fill="#b0ff20" stroke="none" /><path d="M 119.71291397450082 92.76114493625339 l 34.082036245106394 -12.515395794595165 a57.30730403800475,57.30730403800475 0 0,0 0.33118117491868104,0.9263726888073022 l -34.29185759006902 11.928488149406945" fill="#4dff2c" stroke="none" /><path d="M 119.83427380445688 93.10060997987247 l 25.555825781136857 -8.88964280158688 a48.05782660332542,48.05782660332542 0 0,0 0.26435140858245326,0.7815079673069866 l -25.704662611291674 8.449633159805732" fill="#b1ff20" stroke="none" /><path d="M 119.94978838288452 93.4421083053983 l 22.802039481588093 -7.495483283651025 a45.00240142517815,45.00240142517815 0 0,0 0.23494528909311302,0.735962771793192 l -22.92734948645846 7.102951478166446" fill="#d4ff1c" stroke="none" /><path d="M 120.05942366710727 93.78553927170692 l 14.362594992735893 -4.449568642647219 a36.03604988123515,36.03604988123515 0 0,0 0.17799008124831228,0.5924710923390225 l -14.436861393987833 4.202359946717474" fill="#ffbb11" stroke="none" /><path d="M 120.16314734710363 94.1308016681162 l 30.35391811317659 -8.835583180003123 a52.613729216152024,52.613729216152024 0 0,0 0.2449833228730935,0.8693593872341563 l -30.501119928124268 8.313215868865953" fill="#7eff26" stroke="none" /><path d="M 120.26092885502905 94.47779374421319 l 14.578484259880469 -3.9734307126703574 a36.110273159144896,36.110273159144896 0 0,0 0.15787156795352883,0.5994640578905507 l -14.644545308638728 3.7225861504070084" fill="#ffbc11" stroke="none" /><path d="M 120.35273937422433 94.82641323984039 l 30.6713848617601 -7.796546092341909 a52.64680047505938,52.64680047505938 0 0,0 0.21513105570324478,0.8778081209219916 l -30.800703443979636 7.268882146811823" fill="#7eff26" stroke="none" /><path d="M 120.43855184770803 95.1765574152323 l 36.07268467759011 -8.513055363083236 a58.063603325415684,58.063603325415684 0 0,0 0.2206116611520159,0.9720556846190445 l -36.213507200299794 7.892565344525166" fill="#46ff2c" stroke="none" /><path d="M 120.51834098615036 95.52812308129327 l 8.823861367084382 -1.9231195157526224 a30.03099762470309,30.03099762470309 0 0,0 0.10545497671779089,0.5046402387259437 l -8.85557405462654 1.7713628257412743" fill="#ff6b09" stroke="none" /><path d="M 120.592083275326 95.88100663000786 l 27.99858118003613 -5.6005003820056505 a49.553216152019004,49.553216152019004 0 0,0 0.1596880888738493,0.8355555587514123 l -28.09059556119214 5.119042258220924" fill="#a0ff22" stroke="none" /><path d="M 120.65975698304385 96.23510406497455 l 14.813929071867838 -2.6995913548356483 a36.05789786223278,36.05789786223278 0 0,0 0.10574439146152284,0.6099055494715595 l -14.858088280821596 2.444892772443496" fill="#ffbb11" stroke="none" /><path d="M 120.7213421655516 96.59031103205396 l 36.98316602490416 -6.085565895652773 a58.480510688836105,58.480510688836105 0 0,0 0.1544957843813743,0.9919737635260997 l -37.0821833014238 5.449803950195233" fill="#42ff2d" stroke="none" /><path d="M 120.77682067341334 96.94652285012252 l 23.872418900397964 -3.508423486464694 a45.128850356294535,45.128850356294535 0 0,0 0.10606458222106599,0.7674304809391195 l -23.92912799917424 3.098104697325489" fill="#d3ff1c" stroke="none" /><path d="M 120.82617615685814 97.30363454192243 l 28.67482487193441 -3.7125301696656647 a49.914156769596204,49.914156769596204 0 0,0 0.10272312960428734,0.8506948723273577 l -28.73433008779836 3.219741620414894" fill="#9cff22" stroke="none" /><path d="M 120.86939407059847 97.66154086499901 l 35.070248385027675 -3.929694481080335 a56.28972684085511,56.28972684085511 0 0,0 0.09935835723100211,0.9612019755742731 l -35.13253913474035 3.3270879832231306" fill="#58ff2a" stroke="none" /><path d="M 120.9064616781168 98.02013634271609 l 26.961886706690585 -2.5533187032915174 a48.08251781472684,48.08251781472684 0 0,0 0.07076459224878798,0.8223918280111743 l -27.001744921637115 2.090105827904681" fill="#b1ff20" stroke="none" /><path d="M 120.93736805541906 98.37931529534042 l 28.81523928301682 -2.230481760815397 a49.90143705463183,49.90143705463183 0 0,0 0.0587792326143992,0.8546371419450911 l -28.849282476796283 1.735501194715972" fill="#9cff22" stroke="none" /><path d="M 120.96210409425399 98.7389718711861 l 14.984867162902885 -0.9014523978124981 a36.01195724465558,36.01195724465558 0 0,0 0.031824985096127155,0.6173962087517714 l -14.998133737455584 0.644084395683996" fill="#ffbb11" stroke="none" /><path d="M 120.98066250479742 99.09900007780936 l 37.447492452891694 -1.6081564525703163 a58.48200712589074,58.48200712589074 0 0,0 0.03446348301121218,1.0033667049130919 l -37.469580622899755 0.9650834830931043" fill="#42ff2d" stroke="none" /><path d="M 120.99303781780057 99.45929381324524 l 24.01852849845908 -0.6186320945342354 a45.02649406175772,45.02649406175772 0 0,0 0.01326902563683074,0.7728542213171947 l -24.025608955694576 0.20623095724797433" fill="#d4ff1c" stroke="none" /><line stroke="#e1ed5e" stroke-width="0.3" x1="184.99686870605535" x2="189.99668451229388" y1="99.2704041080226" y2="99.22748670261217" /><path d="M 185.99683186730306 99.26182062694052 a86.0,86.0 0 0,1 -10.086455211305974,41.156179273409016" fill="none" id="id28" stroke="none" /><text fill="#e1ed5e" style="font-size:6.75px; font-family:Arial;" text-anchor="middle"><textPath startOffset="21.40746469413373" xlink:href="#id28">April</textPath></text><path d="M 120.99922638620191 99.81974689727618 l 31.455444503397885 -0.2700071595504222 a52.45660332541568,52.45660332541568 0 0,0 0.0,0.9005205245484943 l -31.455444503397885 -0.2700071595504184" fill="#80ff25" stroke="none" /><path d="M 120.99922638620191 100.18025310272382 l 28.895883215968073 0.2480364042861117 a49.89694774346793,49.89694774346793 0 0,0 -0.014704317815624843,0.856452795136339 l -28.88736746655378 -0.7440361153915218" fill="#9cff22" stroke="none" /><path d="M 120.99303781780057 100.54070618675476 l 27.045116202471494 0.6965862577438866 a48.054085510688836,48.054085510688836 0 0,0 -0.02831830234643387,0.8244564748381774 l -27.029173213128214 -1.1607489971461746" fill="#b1ff20" stroke="none" /><path d="M 120.98066250479742 100.90099992219065 l 28.460692287832025 1.2222245856614387 a49.48692399049881,49.48692399049881 0 0,0 -0.043733269140336185,0.8484137378857777 l -28.435517429235116 -1.7106101169239472" fill="#a1ff22" stroke="none" /><path d="M 120.96210409425399 101.26102812881392 l 15.001447639538014 0.9024498381139133 a36.028567695961996,36.028567695961996 0 0,0 -0.04243828808068388,0.6170433947691965 l -14.983745390292263 -1.1598366570374532" fill="#ffbb11" stroke="none" /><path d="M 120.93736805541906 101.62068470465957 l 31.560023796904314 2.442945441420771 a52.65443230403801,52.65443230403801 0 0,0 -0.07749322625832686,0.9005887545711299 l -31.513436947948247 -2.984355243367558" fill="#7eff26" stroke="none" /><path d="M 120.9064616781168 101.97986365728391 l 27.073619577891918 2.5638999223625083 a48.194750593824224,48.194750593824224 0 0,0 -0.08506971902170798,0.8229723625070178 l -27.025617466388542 -3.0282768071524577" fill="#afff20" stroke="none" /><path d="M 120.86939407059847 102.33845913500097 l 31.481505741001435 3.5275683824163613 a52.67852494061758,52.67852494061758 0 0,0 -0.10841218794532224,0.8978084365045216 l -31.41631146679645 -4.067470495844291" fill="#7eff26" stroke="none" /><path d="M 120.82617615685814 102.69636545807757 l 17.112290168372898 2.2155285622803467 a38.25511638954869,38.25511638954869 0 0,0 -0.08990951255442271,0.6505404444702089 l -17.071736139263265 -2.508957314950641" fill="#ffd714" stroke="none" /><path d="M 120.77682067341334 103.0534771498775 l 28.213047132011734 4.146346358769506 a49.516104513064136,49.516104513064136 0 0,0 -0.1308133139766855,0.839915314870042 l -28.137712325896782 -4.630049855570999" fill="#a0ff22" stroke="none" /><path d="M 120.7213421655516 103.40968896794604 l 28.497997895141054 4.689334708885405 a49.881235154394304,49.881235154394304 0 0,0 -0.14628309384267382,0.8437220120651117 l -28.413299983806144 -5.177849753871105" fill="#9cff22" stroke="none" /><path d="M 120.65975698304385 103.76489593502545 l 14.887980314830818 2.713085958080192 a36.13316864608076,36.13316864608076 0 0,0 -0.11644121399401511,0.6092696349902791 l -14.839212808554644 -2.9682581581037857" fill="#ffbc11" stroke="none" /><path d="M 120.592083275326 104.11899336999214 l 36.737499370977034 7.348528767871786 a58.46524703087886,58.46524703087886 0 0,0 -0.20530291206076356,0.9824487547015109 l -36.6059387480919 -7.978093973858706" fill="#42ff2d" stroke="none" /><path d="M 120.51834098615036 104.47187691870673 l 26.515447538040636 5.778918379150579 a48.13788598574822,48.13788598574822 0 0,0 -0.18289906901134512,0.8058870452070112 l -26.412337607471628 -6.233239758296608" fill="#b0ff20" stroke="none" /><path d="M 120.43855184770803 104.8234425847677 l 30.81104408897622 7.271322510874905 a52.65742517814727,52.65742517814727 0 0,0 -0.2151744715152332,0.8779852722506224 l -30.681682090944694 -7.799163607733627" fill="#7eff26" stroke="none" /><path d="M 120.35273937422433 105.17358676015961 l 30.647309649863754 7.790426267623237 a52.62195961995249,52.62195961995249 0 0,0 -0.23005949684668364,0.8735733819820263 l -30.50906067221234 -8.315380153978067" fill="#7eff26" stroke="none" /><path d="M 120.26092885502905 105.52220625578681 l 27.570119096632975 7.514358558661231 a49.575812351543945,49.575812351543945 0 0,0 -0.23083798516007825,0.8191625739074814 l -27.437062619398315 -7.98652905647172" fill="#a0ff22" stroke="none" /><path d="M 120.16314734710363 105.8691983318838 l 30.47245443071597 8.87008737447203 a52.73718527315914,52.73718527315914 0 0,0 -0.26048071091345015,0.8670555698709967 l -30.31569739979889 -9.39188054793375" fill="#7dff26" stroke="none" /><path d="M 120.05942366710727 106.21446072829308 l 14.35258910444589 4.446468792877761 a36.02557482185273,36.02557482185273 0 0,0 -0.1880797207086474,0.5891570463282022 l -14.274144667959987 -4.692194872897346" fill="#ffbb11" stroke="none" /><path d="M 119.94978838288452 106.5578916946017 l 35.61733810404812 11.708126485028165 a58.4923325415677,58.4923325415677 0 0,0 -0.3217484349899157,0.9511920770974258 l -35.411104247485845 -12.317820236599752" fill="#42ff2d" stroke="none" /><path d="M 119.83427380445688 106.89939002012753 l 25.59342138801561 8.902720505235486 a48.09763182897862,48.09763182897862 0 0,0 -0.27795811524066044,0.7774983184189813 l -25.436823102731005 -9.340753780035389" fill="#b0ff20" stroke="none" /><path d="M 119.71291397450082 107.23885506374661 l 29.673320294348375 10.896454230397863 a52.610736342042756,52.610736342042756 0 0,0 -0.3185938745064921,0.8451081033577594 l -29.481895736027443 -11.404230613949782" fill="#7fff26" stroke="none" /><path d="M 119.58574465831526 107.57618678355244 l 31.361987657349275 12.131490558091595 a54.626586698337285,54.626586698337285 0 0,0 -0.345815753226421,0.8716816017003748 l -31.14911322915673 -12.668073177005535" fill="#69ff28" stroke="none" /><path d="M 119.4528033332814 107.91128576633889 l 26.450498822138403 10.757187602165946 a49.55426365795724,49.55426365795724 0 0,0 -0.32723312678016897,0.7852403792354151 l -26.261939850821747 -11.209660490842637" fill="#a0ff22" stroke="none" /><path d="M 119.31412917781788 108.2440532568976 l 29.066846876787988 12.406908510146012 a52.604002375296915,52.604002375296915 0 0,0 -0.36163026729961584,0.8274808221981967 l -28.849582727471407 -12.904051402120054" fill="#7fff26" stroke="none" /><path d="M 119.16976305983485 108.57439118712176 l 13.70496903753285 6.130058330319848 a36.01345368171021,36.01345368171021 0 0,0 -0.2572655964990194,0.5621717573983611 l -13.597718976178774 -6.3644190699328975" fill="#ffbb11" stroke="none" /><path d="M 119.0197475246899 108.90220220490707 l 33.90552355948254 15.869497016084878 a58.43561757719715,58.43561757719715 0 0,0 -0.43303781756829673,0.9048824890575808 l -33.628106483954326 -16.449192007207564" fill="#42ff2d" stroke="none" /><path d="M 118.8641267826498 109.22738970284198 l 24.303806097171638 11.8882094413812 a48.05558194774347,48.05558194774347 0 0,0 -0.3688382318570477,0.7379235386504687 l -24.096147952102857 -12.303664836195413" fill="#b1ff20" stroke="none" /><path d="M 118.70294669586154 109.54985784667822 l 28.167703925204307 14.382630327045911 a52.627197149643706,52.627197149643706 0 0,0 -0.41773948177667414,0.8010705373220766 l -27.916656374452685 -14.864047107472489" fill="#7eff26" stroke="none" /><path d="M 118.5362547648365 109.86951160357373 l 33.16818428614177 17.66018992696097 a58.576731591448926,58.576731591448926 0 0,0 -0.48020270227628664,0.8835188858308074 l -32.86013623425015 -18.226963646266384" fill="#41ff2d" stroke="none" /><line stroke="#e1ed5e" stroke-width="0.3" x1="174.33088141563837" x2="178.70328620479359" y1="141.23008692659167" y2="143.65538615756765" /><path d="M 175.20536237346943 141.71514677278685 a86.0,86.0 0 0,1 -30.301960400862466,31.631185727798858" fill="none" id="id29" stroke="none" /><text fill="#e1ed5e" style="font-size:6.75px; font-family:Arial;" text-anchor="middle"><textPath startOffset="22.145653131862474" xlink:href="#id29">May</textPath></text><path d="M 118.36410011445183 110.18625677009912 l 24.94595062815643 13.837098299885946 a49.52657957244655,49.52657957244655 0 0,0 -0.41877467031810844,0.7399347162381995 l -24.704742592816945 -14.263289786223268" fill="#a0ff22" stroke="none" /><path d="M 118.18653347947321 110.5 l 27.373108799532055 15.803871733966737 a52.60774346793349,52.60774346793349 0 0,0 -0.4582542538587687,0.7782159070012472 l -27.09778083554352 -16.271438809261532" fill="#7fff26" stroke="none" /><path d="M 118.00360718960297 110.81064883170644 l 12.872408084915877 7.72951120066696 a36.01480047505939,36.01480047505939 0 0,0 -0.3228161525310899,0.5272959245838301 l -12.737823967929382 -7.949344241375347" fill="#ffbb11" stroke="none" /><path d="M 117.81537515405839 111.11811171558189 l 31.805522666665205 19.848998470284858 a58.49098574821853,58.49098574821853 0 0,0 -0.5389033781734521,0.8472456199606078 l -31.46010159686586 -20.39205776492414" fill="#42ff2d" stroke="none" /><path d="M 117.62189284568427 111.42229804090321 l 22.68176195437239 14.70204406555059 a48.0298432304038,48.0298432304038 0 0,0 -0.4543979072547625,0.6880163468536141 l -22.4260396081969 -15.089240290743264" fill="#b1ff20" stroke="none" /><path d="M 117.423217284605 111.72311816256416 l 26.244083156435664 17.658190383868014 a52.6316864608076,52.6316864608076 0 0,0 -0.5108037080681304,0.7452778756251632 l -25.93708971155221 -18.10610299456322" fill="#7eff26" stroke="none" /><path d="M 117.21940702142032 112.02048342749411 l 31.3145755503675 21.86000574665298 a59.18982185273159,59.18982185273159 0 0,0 -0.5887552431303343,0.8281579813019048 l -30.934705208707207 -22.394340954664386" fill="#3bff2e" stroke="none" /><path d="M 117.01052211995028 112.31430620078461 l 23.114026752718566 16.732772866053303 a49.53495961995249,49.53495961995249 0 0,0 -0.5045441820335459,0.6845110834443401 l -22.82338055110119 -17.12709025876652" fill="#a0ff22" stroke="none" /><path d="M 116.79662413953412 112.60449989151573 l 25.30337617227326 18.988125207119534 a52.635577197149644,52.635577197149644 0 0,0 -0.5485329519243364,0.718047242213273 l -24.973691242994622 -19.419693362573685" fill="#7eff26" stroke="none" /><path d="M 116.57777611688842 112.89097897827486 l 11.865119951403367 9.226389039747694 a36.03021377672209,36.03021377672209 0 0,0 -0.383865158714934,0.48500108815094123 l -11.70498836204687 -9.428710071813319" fill="#ffbb11" stroke="none" /><path d="M 116.35404254752997 113.17365903436017 l 21.124450720942963 17.016362179385265 a48.12561520190023,48.12561520190023 0 0,0 -0.5237744014520075,0.6389196052450529 l -20.82922950025233 -17.37648406632881" fill="#b0ff20" stroke="none" /><path d="M 116.1254893667686 113.45245675266167 l 29.445066978069267 24.564122123202253 a59.34590023752969,59.34590023752969 0 0,0 -0.6593200551895286,0.7766773671765669 l -29.019052359372626 -25.065966272828376" fill="#39ff2e" stroke="none" /><path d="M 115.89218393027572 113.72728997021213 l 11.370914225095397 9.821924883270988 a36.02557482185273,36.02557482185273 0 0,0 -0.4082708677206238,0.46453730221658707 l -11.200632293416188 -10.015674463298868" fill="#ffbb11" stroke="none" /><path d="M 115.6541949942343 113.99807769240083 l 24.112665961665225 21.561694588997835 a53.34698337292161,53.34698337292161 0 0,0 -0.6162905152105138,0.6774112344241834 l -23.738977745612832 -21.97244339897969" fill="#77ff27" stroke="none" /><path d="M 115.41159269507618 114.26474011684316 l 22.83668573433436 21.13729538377791 a52.117510688836106,52.117510688836106 0 0,0 -0.6133589869968552,0.6513659888913804 l -22.470470913601243 -21.526202832613787" fill="#84ff25" stroke="none" /><path d="M 115.16444852881244 114.52719865689866 l 22.836903062968485 21.877236542677043 a52.62495249406176,52.62495249406176 0 0,0 -0.6305301255389376,0.6469794554752418 l -22.45798613627874 -22.26603869022002" fill="#7eff26" stroke="none" /><line stroke="#e1ed5e" stroke-width="0.3" x1="143.1302829299769" x2="145.66735839644613" y1="173.24464959558577" y2="177.55315839532614" /><path d="M 143.63769802327073 174.10635135553383 a86.0,86.0 0 0,1 -40.68552437913181,11.842963189579606" fill="none" id="id30" stroke="none" /><text fill="#e1ed5e" style="font-size:6.75px; font-family:Arial;" text-anchor="middle"><textPath startOffset="21.407464694133747" xlink:href="#id30">June</textPath></text><line stroke="#e1ed5e" stroke-width="0.3" x1="101.45913802915013" x2="101.54496967792366" y1="184.9874750549273" y2="189.98673829345242" /><path d="M 101.47630435890484 185.9873277026323 a86.0,86.0 0 0,1 -42.54439059252881,-10.42667462771756" fill="none" id="id31" stroke="none" /><text fill="#e1ed5e" style="font-size:6.75px; font-family:Arial;" text-anchor="middle"><textPath startOffset="22.145653131862474" xlink:href="#id31">July</textPath></text><line stroke="#e1ed5e" stroke-width="0.3" x1="58.13341422392154" x2="55.67067388415222" y1="173.97424548756322" y2="178.32567169271397" /><path d="M 57.64086615596768 174.84453072859336 a86.0,86.0 0 0,1 -31.369924170532247,-30.572349798747897" fill="none" id="id32" stroke="none" /><text fill="#e1ed5e" style="font-size:6.75px; font-family:Arial;" text-anchor="middle"><textPath startOffset="22.145653131862474" xlink:href="#id32">August</textPath></text><line stroke="#e1ed5e" stroke-width="0.3" x1="26.387840678322732" x2="22.057713659400548" y1="142.50000000000003" y2="145.00000000000006" /><path d="M 25.521815274538298 143.00000000000003 a86.0,86.0 0 0,1 -11.493303480769221,-40.785679425670985" fill="none" id="id33" stroke="none" /><text fill="#e1ed5e" style="font-size:6.75px; font-family:Arial;" text-anchor="middle"><textPath startOffset="21.40746469413373" xlink:href="#id33">September</textPath></text><line stroke="#e1ed5e" stroke-width="0.3" x1="15.003131293944662" x2="10.003315487706104" y1="100.72959589197737" y2="100.7725132973878" /><path d="M 14.003168132696942 100.73817937305945 a86.0,86.0 0 0,1 10.791469493833604,-42.45332614584628" fill="none" id="id34" stroke="none" /><text fill="#e1ed5e" style="font-size:6.75px; font-family:Arial;" text-anchor="middle"><textPath startOffset="22.145653131862435" xlink:href="#id34">October</textPath></text><line stroke="#e1ed5e" stroke-width="0.3" x1="26.387840678322718" x2="22.05771365940052" y1="57.49999999999999" y2="54.99999999999999" /><path d="M 25.521815274538284 56.99999999999999 a86.0,86.0 0 0,1 29.574782752854787,-30.34633250058573" fill="none" id="id35" stroke="none" /><text fill="#e1ed5e" style="font-size:6.75px; font-family:Arial;" text-anchor="middle"><textPath startOffset="21.40746469413373" xlink:href="#id35">November</textPath></text><line stroke="#e1ed5e" stroke-width="0.3" x1="56.869717070023135" x2="54.33264160355391" y1="26.7553504044142" y2="22.446841604673864" /><path d="M 56.362301976729285 25.89364864446614 a86.0,86.0 0 0,1 42.16139366436587,-11.88097634709845" fill="none" id="id36" stroke="none" /><text fill="#e1ed5e" style="font-size:6.75px; font-family:Arial;" text-anchor="middle"><textPath startOffset="22.145653131862474" xlink:href="#id36">December</textPath></text></svg>