<?xml version="1.0" encoding="utf-8" ?>
<svg baseProfile="full" height="200mm" version="1.1" viewBox="0,0,200,200" width="200mm" xmlns="http://www.w3.org/2000/svg" xmlns:ev="http://www.w3.org/2001/xml-events" xmlns:xlink="http://www.w3.org/1999/xlink"><defs /><rect fill="#1a1a1a" height="200" width="200" x="0" y="0" /><text alignment-baseline="middle" fill="#e1ed5e" style="dominant-baseline: central; font-size:9.0px; font-family:Arial;" text-anchor="middle" x="100.0" y="100.0">2025</text><line stroke="#e1ed5e" stroke-width="0.3" x1="100.0" x2="100.0" y1="15.0" y2="10.0" /><path d="M 100.0 14.0 a86.0,86.0 0 0,1 42.46469731375804,11.215312516191453" fill="none" id="id37" stroke="none" /><text fill="#e1ed5e" style="font-size:6.75px; font-family:Arial;" text-anchor="middle"><textPath startOffset="22.20632615414155" xlink:href="#id37">January</textPath></text><path d="M 100.0 79.0 l 0.0 -29.585014470098656 a50.585014470098656,50.585014470098656 0 0,0 0.8707378702218593,0.007494715750756041 l -0.5092573909493309 29.58063113095646" fill="#a4ff21" stroke="none" /><path d="M 100.36148047927253 79.00311137660856 l 0.4835495331530632 -28.08736923205524 a49.091531295549125,49.091531295549125 0 0,0 0.8447796117956685,0.021818165030057936 l -0.9669557801435995 28.074884274882823" fill="#b5ff20" stroke="none" /><path d="M 100.72285384407766 79.0124445844662 l 0.5087620213409842 -14.771549191714238 a35.780307991296816,35.780307991296816 0 0,0 0.6153517262376241,0.02649833975853274 l -0.7629545799679399 14.76060312543151" fill="#ff9e0e" stroke="none" /><path d="M 101.08401301168833 79.027996857942 l 2.6735201663247534 -51.723616528543005 a72.79266566678638,72.79266566678638 0 0,0 1.2507788732717295,0.07545039736469175 l -3.5634610884360947 51.66993286179801" fill="#3effb9" stroke="none" /><path d="M 101.44485096284872 79.0497635885617 l 1.016666713967147 -14.741595193498169 a35.776611250765754,35.776611250765754 0 0,0 0.6140115088640771,0.047659110453590586 l -1.2702684121935652 14.721910820856113" fill="#ff9e0e" stroke="none" /><path d="M 101.80526077348638 79.07773832637324 l 3.1128758142702013 -36.077005217305604 a57.2110521979763,57.2110521979763 0 0,0 0.9804200066085774,0.09310269317045508 l -3.733420947969023 36.01807697961998" fill="#59ff2a" stroke="none" /><path d="M 102.16513564639614 79.11191278185805 l 3.505849743157239 -33.822589975210605 a55.00380236168909,55.00380236168909 0 0,0 0.9409141543756728,0.10572266846767119 l -4.087530601042637 33.75723135327233" fill="#71ff27" stroke="none" /><path d="M 102.52436894288641 79.15227682838746 l 3.9183825774925904 -32.3603075082322 a53.596675045945204,53.596675045945204 0 0,0 0.9149342192820198,0.11878472045072193 l -4.474831525282457 32.28806446461734" fill="#81ff25" stroke="none" /><path d="M 102.88285421437855 79.19881850522331 l 3.3437511840192746 -24.126775091591885 a45.35737975031159,45.35737975031159 0 0,0 0.772438379294694,0.11383733794509493 l -3.7585585437426245 24.06564326948582" fill="#e2ff1b" stroke="none" /><path d="M 103.2404852339499 79.25152402106235 l 4.105614039974611 -26.287802022590324 a47.60647668941043,47.60647668941043 0 0,0 0.8085638016068167,0.13341995530711662 l -4.5575070477203035 26.21323580434358" fill="#c7ff1e" stroke="none" /><path d="M 103.59715602781102 79.31037775812273 l 7.605301259078419 -43.74311508020921 a65.39933247428125,65.39933247428125 0 0,0 1.1074438906889479,0.2023782924201991 l -8.357140270870268 43.60572130643827" fill="#35ff63" stroke="none" /><path d="M 103.95276090670814 79.375362276772 l 2.7828837340403774 -14.520475737108606 a35.78474407993409,35.78474407993409 0 0,0 0.6039673966929081,0.12115017794632636 l -3.0324175402004108 14.470421603085072" fill="#ff9e0e" stroke="none" /><path d="M 104.307194497241 79.44645832069477 l 6.670590699047846 -31.831454104589085 a53.52288810494518,53.52288810494518 0 0,0 0.9000951123132372,0.19672592879175518 l -7.217528535514611 31.711914677701458" fill="#82ff25" stroke="none" /><path d="M 104.66035177308747 79.52364482259891 l 6.890686652782606 -30.2758577439054 a52.05010667736961,52.05010667736961 0 0,0 0.871904505722496,0.20635162639975663 l -7.410814845467626 30.15276020536478" fill="#93ff23" stroke="none" /><path d="M 105.01212808612495 79.60689891045804 l 7.763739360569686 -31.58872217397008 a53.52880288979488,53.52880288979488 0 0,0 0.8928887548393567,0.22761722460599673 l -8.306337004094068 31.450401953195215" fill="#82ff25" stroke="none" /><path d="M 105.36241919743992 79.69619591428918 l 9.447376074961904 -35.7707344180839 a57.99727497412282,57.99727497412282 0 0,0 0.963036771559499,0.26323432859201323 l -10.061710735745113 35.60281354866559" fill="#51ff2b" stroke="none" /><path d="M 105.71112130821622 79.79150937346287 l 11.896048085167891 -42.093516009912236 a64.74219987747946,64.74219987747946 0 0,0 1.069817937313834,0.31230919224133236 l -12.618856240205153 41.8825084887522" fill="#34ff5b" stroke="none" /><path d="M 106.0581310904928 79.89281104454417 l 14.99020267986022 -49.75310591042558 a72.96227212235155,72.96227212235155 0 0,0 1.1994115988998448,0.3726630222146789 l -15.844399651470784 49.48770275332838" fill="#3fffbb" stroke="none" /><path d="M 106.40334571778207 80.00007090966166 l 9.089498228656593 -28.389739997179834 a50.80933268552357,50.80933268552357 0 0,0 0.8306531762542878,0.2738532923594225 l -9.576834227153299 28.229072980561178" fill="#a1ff22" stroke="none" /><path d="M 106.74666289553966 80.11325718540242 l 10.032797037742096 -29.573087834659674 a52.22858531020934,52.22858531020934 0 0,0 0.8488836223186189,0.2961588275601098 l -10.540362664123988 29.396008153927358" fill="#91ff24" stroke="none" /><path d="M 107.08798089147638 80.2323363322302 l 10.479373397702476 -29.22591524250116 a52.047888633050974,52.047888633050974 0 0,0 0.8407411300262622,0.30965205349493935 l -10.980896853501314 29.041199921199894" fill="#93ff23" stroke="none" /><path d="M 107.4271985657038 80.35727306442388 l 9.974318128460641 -26.379099149256863 a49.20184203299605,49.20184203299605 0 0,0 0.7896118608641275,0.3063571346590002 l -10.426913154324435 26.203499310707315" fill="#b4ff20" stroke="none" /><path d="M 107.76421540070413 80.48803036053334 l 5.466009391568611 -13.736431022721762 a35.78400473182788,35.78400473182788 0 0,0 0.5703563616413457,0.2326626807088754 l -5.701649622798344 13.640307455829307" fill="#ff9e0e" stroke="none" /><path d="M 108.09893153111575 80.62456947434976 l 22.37706433477293 -53.53363634704893 a79.02226494011282,79.02226494011282 0 0,0 1.2504943874188768,0.5353964360537455 l -23.29524247998212 53.140520383032396" fill="#47fffb" stroke="none" /><path d="M 108.43124777332544 80.76684994638697 l 16.038825622577573 -36.58736502308947 a60.94845687488118,60.94845687488118 0 0,0 0.9572329013901008,0.4294825001843984 l -16.666240642434456 36.30586219238854" fill="#32ff2f" stroke="none" /><path d="M 108.76106565485865 80.91482961587045 l 6.169026000308874 -13.438651981192084 a35.78696212425273,35.78696212425273 0 0,0 0.5576320837357865,0.2618157403438631 l -6.399436295344259 13.330471258208219" fill="#ff9e0e" stroke="none" /><path d="M 109.08828744355905 81.06846463323043 l 10.238458128921277 -21.327420966007324 a44.65766070259194,44.65766070259194 0 0,0 0.6901282879090568,0.3386429536827267 l -10.604057683840766 21.148022852189765" fill="#ebff1a" stroke="none" /><path d="M 109.41281617654863 81.2277094730956 l 10.641240485019809 -21.22217774199588 a44.740615560109006,44.740615560109006 0 0,0 0.6854678016804003,0.35112323173456234 l -11.004968774288965 21.035861984948813" fill="#eaff1a" stroke="none" /><path d="M 109.73455568895987 81.39251694778311 l 9.598699493043053 -18.34779561050574 a41.70692241069732,41.70692241069732 0 0,0 0.6332599430814395,0.3382655304134523 l -9.913104482652805 18.179851353590536" fill="#ffed16" stroke="none" /><path d="M 110.05341064243156 81.56283822128135 l 7.786213175613109 -14.27930053473362 a37.26417964046558,37.26417964046558 0 0,0 0.5605169851864471,0.31192709539739427 l -8.030854249871592 14.143158041776045" fill="#ffb210" stroke="none" /><path d="M 110.36928655335952 81.73862282372117 l 11.28685856316165 -19.877315598962703 a43.85827753015484,43.85827753015484 0 0,0 0.6532863104702334,0.37842559773797446 l -11.627341606097211 19.68008584383468" fill="#f5ff19" stroke="none" /><line stroke="#e1ed5e" stroke-width="0.3" x1="143.23703022742887" x2="145.7803849466894" y1="26.81831364943548" y2="22.513508569990506" /><path d="M 143.74570117128098 25.957352633546492 a86.0,86.0 0 0,1 28.547481713284135,27.462654790039103" fill="none" id="id38" stroke="none" /><text fill="#e1ed5e" style="font-size:6.75px; font-family:Arial;" text-anchor="middle"><textPath startOffset="19.985693538727396" xlink:href="#id38">February</textPath></text><path d="M 110.68208982089419 81.91981866633111 l 15.905457766437165 -26.921095537850785 a52.268657977566065,52.268657977566065 0 0,0 0.7706837741785978,0.46432835070299916 l -16.3665036068334 26.64332057768917" fill="#90ff24" stroke="none" /><path d="M 110.99172775467656 82.1063720568725 l 7.766815805021879 -12.643736764562298 a35.83871649168761,35.83871649168761 0 0,0 0.5228712541244476,0.32742193136442804 l -7.98330621151859 12.508170491874926" fill="#ff9f0e" stroke="none" /><path d="M 111.2981086023043 82.29822771554956 l 15.104558550510871 -23.665682932429913 a49.07511776759121,49.07511776759121 0 0,0 0.7081608998618991,0.4606075480471471 l -15.509686476157052 23.402176460223238" fill="#b5ff1f" stroke="none" /><path d="M 111.60114157652 82.49532879139004 l 8.168840051909287 -12.325757626629185 a35.78696212425273,35.78696212425273 0 0,0 0.510552659708429,0.3447274348930956 l -8.379797406024258 12.183318279437419" fill="#ff9e0e" stroke="none" /><path d="M 111.90073688211348 82.69761687909136 l 10.385920905026465 -15.100004675534736 a39.326960856798834,39.326960856798834 0 0,0 0.5544518325957523,0.38842894141568957 l -10.644303877205868 14.918990891355111" fill="#ffce13" stroke="none" /><path d="M 112.19680574252982 82.90503203632743 l 8.587412818152453 -12.036065025226705 a35.78548342804031,35.78548342804031 0 0,0 0.49836343976544123,0.36208223339262885 l -8.793321574271683 11.886463557017402" fill="#ff9e0e" stroke="none" /><path d="M 112.48926042617603 83.11751280151076 l 7.057346297982824 -9.539840988605325 a32.86653710471282,32.86653710471282 0 0,0 0.45192090483945935,0.3403774562221694 l -7.220513356580666 9.416946942877308" fill="#ff750a" stroke="none" /><path d="M 112.77801427241765 83.33499621200491 l 4.512258502585923 -5.884858432215538 a28.415661505312745,28.415661505312745 0 0,0 0.38559706917254805,0.3009646287285374 l -4.612888126917902 5.806315414263777" fill="#ff3505" stroke="none" /><path d="M 113.06298171725822 83.55741782278167 l 39.188945151774654 -49.32774653165496 a84.0,84.0 0 0,0 1.1243864057420354,0.9091756109434814 l -40.032234956081176 48.64586482344735" fill="#4dd2ff" stroke="none" /><path d="M 113.34407831869373 83.78471172551755 l 2.5970857343043066 -3.155893786706486 a25.087116331143456,25.087116331143456 0 0,0 0.33108120050505946,0.2772709840373814 l -2.6510244717684834 3.110721645275285" fill="#ff0300" stroke="none" /><path d="M 113.6212207817346 84.01681056812373 l 2.544561477424669 -2.9857975849910745 a24.92298105156425,24.92298105156425 0 0,0 0.32412479435197084,0.281077827683268 l -2.595580070423404 2.9415547638881354" fill="#ff0000" stroke="none" /><path d="M 114.16331599549186 84.49514656593476 l 5.001345851960828 -5.475069145700426 a28.4155136356915,28.4155136356915 0 0,0 0.3582954280310066,0.3329965519084379 l -5.094849163786681 5.388168007717348" fill="#ff3505" stroke="none" /><path d="M 114.42810811169701 84.74124197986012 l 10.174662381168842 -10.760434424871733 a35.80914256743911,35.80914256743911 0 0,0 0.44423246050903425,0.42735127504477377 l -10.358378085290294 10.583700063064658" fill="#ff9f0e" stroke="none" /><path d="M 114.68862486808459 84.99185889309783 l 15.531878552851158 -15.86973777803714 a43.20558102199033,43.20558102199033 0 0,0 0.5270344328954317,0.5247711795495875 l -15.802748785913913 15.600030747837433" fill="#fdff18" stroke="none" /><path d="M 114.94478906791727 85.2469230424477 l 10.531658110769557 -10.396557749507693 a35.79879169395213,35.79879169395213 0 0,0 0.4291350088388602,0.44226134864068367 l -10.709057383311526 10.213732205316894" fill="#ff9e0e" stroke="none" /><path d="M 115.19652480421416 85.50635884689758 l 16.407607053058282 -15.648707311173723 a43.67358837322293,43.67358837322293 0 0,0 0.5141684863176932,0.5484790918427566 l -16.67454286134644 15.363958802452911" fill="#f8ff18" stroke="none" /><path d="M 115.4437574822437 85.77008943001954 l 23.13785166210377 -21.31926510188741 a52.462219311772536,52.462219311772536 0 0,0 0.6062043401618015,0.6693859732496709 l -23.50139964288161 20.91782634136819" fill="#8eff24" stroke="none" /><path d="M 115.68641384162765 86.03803664274999 l 19.958130389020635 -17.764078391916904 a47.7187097319335,47.7187097319335 0 0,0 0.5408305321793853,0.6182627902917195 l -20.260952784777867 17.417900045422236" fill="#c6ff1e" stroke="none" /><path d="M 115.9244219780498 86.31012108654704 l 16.846470197104598 -14.482543695171518 a43.215931895477304,43.215931895477304 0 0,0 0.4800865828323059,0.5682710869701951 l -17.09326739342402 14.190413658572217" fill="#fdff18" stroke="none" /><path d="M 116.15771136456269 86.58626213691792 l 11.38982294166453 -9.455553190626096 a35.80322778258941,35.80322778258941 0 0,0 0.38957578746921395,0.47757385147763554 l -11.550897221210151 9.25809516954036" fill="#ff9e0e" stroke="none" /><path d="M 116.38621287248628 86.86637796730983 l 28.88705052744155 -23.153098657937512 a58.02063837427914,58.02063837427914 0 0,0 0.6179085244638471,0.7846810764759758 l -29.28131313249936 22.6524251875085" fill="#51ff2b" stroke="none" /><path d="M 116.60985879189232 87.15038557335679 l 11.713226994007872 -9.061512951465794 a35.80914256743911,35.80914256743911 0 0,0 0.37296766854494257,0.4907817330264528 l -11.86747060277693 8.858546442558307" fill="#ff9f0e" stroke="none" /><path d="M 116.82858285166822 87.43820079747576 l 11.865100663565194 -8.856777386853356 a35.806185175014264,35.806185175014264 0 0,0 0.36443430834099383,0.4970879870176023 l -12.015797584419815 8.651226956164258" fill="#ff9e0e" stroke="none" /><path d="M 117.04232023915458 87.72973835380427 l 25.659421936368382 -18.474469229020496 a52.6182217621834,52.6182217621834 0 0,0 0.5228932785775414,0.7395954601838798 l -25.973627834749806 18.030047268504823" fill="#8cff24" stroke="none" /><path d="M 117.2510076193507 88.02491185347247 l 21.953288022067873 -15.239258191242088 a47.724180907919475,47.724180907919475 0 0,0 0.4626416966119876,0.6788696027911636 l -22.212354184348595 14.859110565180519" fill="#c5ff1e" stroke="none" /><path d="M 117.45458315368197 88.32363383020206 l 25.963657105947284 -17.3685710398742 a52.237457487483894,52.237457487483894 0 0,0 0.49352796789829345,0.751676954116754 l -26.2587817092035 16.919076021779773" fill="#90ff24" stroke="none" /><path d="M 117.65298651832404 88.62581576622439 l 12.44100679256356 -8.015997925642 a35.79982678130084,35.79982678130084 0 0,0 0.32931136158677593,0.5208914897357347 l -12.57714575039629 7.80065878819206" fill="#ff9e0e" stroke="none" /><line stroke="#e1ed5e" stroke-width="0.3" x1="172.23445277983987" x2="176.4835382374775" y1="55.19839476539836" y2="52.563006222186495" /><path d="M 173.08426987136738 54.67131705675599 a86.0,86.0 0 0,1 12.851231095245387,41.99856678651699" fill="none" id="id39" stroke="none" /><text fill="#e1ed5e" style="font-size:6.75px; font-family:Arial;" text-anchor="middle"><textPath startOffset="22.20632615414155" xlink:href="#id39">March</textPath></text><path d="M 117.84615892207809 88.93136811851018 l 26.525893665564976 -16.45201937255261 a52.21365047846385,52.21365047846385 0 0,0 0.4671485732718239,0.7678694260119584 l -26.80515803712302 15.992982173333571" fill="#91ff24" stroke="none" /><path d="M 118.03404312379186 89.2402003453031 l 25.460131844715047 -15.1904881202093 a50.647415450263,50.647415450263 0 0,0 0.44024741445369436,0.7525255395974982 l -25.71783893363907 14.749983168257906" fill="#a3ff22" stroke="none" /><path d="M 118.21658344932153 89.55222093294921 l 12.834740488385984 -7.3611241854785145 a35.79583430152728,35.79583430152728 0 0,0 0.30195040571798937,0.5371360792406183 l -12.959548535396406 7.139104596303103" fill="#ff9e0e" stroke="none" /><line stroke="#e1ed5e" stroke-width="0.3" x1="184.98032266829074" x2="189.97916517819016" y1="98.17113171792111" y2="98.06355123074" /><path d="M 185.9800911702706 98.14961562048488 a86.0,86.0 0 0,1 -9.607161424134198,41.387399972396054" fill="none" id="id40" stroke="none" /><text fill="#e1ed5e" style="font-size:6.75px; font-family:Arial;" text-anchor="middle"><textPath startOffset="21.466115282336823" xlink:href="#id40">April</textPath></text><line stroke="#e1ed5e" stroke-width="0.3" x1="174.80103733775053" x2="179.2010983576182" y1="140.37084112569926" y2="142.7455964860345" /><path d="M 175.68104954172406 140.8457921977663 a86.0,86.0 0 0,1 -30.038265399797805,32.042727171017184" fill="none" id="id41" stroke="none" /><text fill="#e1ed5e" style="font-size:6.75px; font-family:Arial;" text-anchor="middle"><textPath startOffset="22.206326154141568" xlink:href="#id41">May</textPath></text><line stroke="#e1ed5e" stroke-width="0.3" x1="143.8653032363475" x2="146.44561519142675" y1="172.8068346515853" y2="177.08958963109032" /><path d="M 144.38136562736335 173.6633856474863 a86.0,86.0 0 0,1 -40.68145358897372,12.25698825130547" fill="none" id="id42" stroke="none" /><text fill="#e1ed5e" style="font-size:6.75px; font-family:Arial;" text-anchor="middle"><textPath startOffset="21.466115282336833" xlink:href="#id42">June</textPath></text><line stroke="#e1ed5e" stroke-width="0.3" x1="102.19456741930631" x2="102.32365962044197" y1="184.97166512339345" y2="189.96999836594603" /><path d="M 102.22038585953345 185.97133177190398 a86.0,86.0 0 0,1 -42.740103519485714,-10.115201625700543" fill="none" id="id43" stroke="none" /><text fill="#e1ed5e" style="font-size:6.75px; font-family:Arial;" text-anchor="middle"><textPath startOffset="22.20632615414155" xlink:href="#id43">July</textPath></text><line stroke="#e1ed5e" stroke-width="0.3" x1="58.666819895761336" x2="56.23545636021788" y1="174.27360380694188" y2="178.64263932499728" /><path d="M 58.180547188652646 175.14741091055294 a86.0,86.0 0 0,1 -31.652253787137756,-30.449443065178592" fill="none" id="id44" stroke="none" /><text fill="#e1ed5e" style="font-size:6.75px; font-family:Arial;" text-anchor="middle"><textPath startOffset="22.20632615414155" xlink:href="#id44">August</textPath></text><line stroke="#e1ed5e" stroke-width="0.3" x1="26.63291911575756" x2="22.317208475507996" y1="142.92168965132927" y2="145.44649492493687" /><path d="M 25.769776987707644 143.4266507060508 a86.0,86.0 0 0,1 -11.730757126820373,-40.83630448921669" fill="none" id="id45" stroke="none" /><text fill="#e1ed5e" style="font-size:6.75px; font-family:Arial;" text-anchor="middle"><textPath startOffset="21.46611528233685" xlink:href="#id45">September</textPath></text><line stroke="#e1ed5e" stroke-width="0.3" x1="15.007084014347285" x2="10.007500721073583" y1="101.09737516637583" y2="101.16192664675087" /><path d="M 14.007167355692545 101.11028546245083 a86.0,86.0 0 0,1 10.666146001902534,-42.60595125391555" fill="none" id="id46" stroke="none" /><text fill="#e1ed5e" style="font-size:6.75px; font-family:Arial;" text-anchor="middle"><textPath startOffset="22.20632615414155" xlink:href="#id46">October</textPath></text><line stroke="#e1ed5e" stroke-width="0.3" x1="26.266209847984243" x2="21.928928074336255" y1="57.711370442889674" y2="55.22380399835377" /><path d="M 25.398753493254645 57.213857153982495 a86.0,86.0 0 0,1 29.58750427330803,-30.492523968695096" fill="none" id="id47" stroke="none" /><text fill="#e1ed5e" style="font-size:6.75px; font-family:Arial;" text-anchor="middle"><textPath startOffset="21.46611528233685" xlink:href="#id47">November</textPath></text><line stroke="#e1ed5e" stroke-width="0.3" x1="56.762969772571076" x2="54.21961505331055" y1="26.818313649435495" y2="22.513508569990535" /><path d="M 56.25429882871897 25.957352633546506 a86.0,86.0 0 0,1 42.265352541879196,-11.944610805530505" fill="none" id="id48" stroke="none" /><text fill="#e1ed5e" style="font-size:6.75px; font-family:Arial;" text-anchor="middle"><textPath startOffset="22.20632615414155" xlink:href="#id48">December</textPath></text></svg>