<?xml version="1.0" encoding="utf-8" ?>
<svg baseProfile="full" height="200mm" version="1.1" viewBox="0,0,200,200" width="200mm" xmlns="http://www.w3.org/2000/svg" xmlns:ev="http://www.w3.org/2001/xml-events" xmlns:xlink="http://www.w3.org/1999/xlink"><defs /><rect fill="#1a1a1a" height="200" width="200" x="0" y="0" /><text alignment-baseline="middle" fill="#e1ed5e" style="dominant-baseline: central; font-size:9.0px; font-family:Arial;" text-anchor="middle" x="100.0" y="100.0">2025</text><line stroke="#e1ed5e" stroke-width="0.3" x1="100.0" x2="100.0" y1="15.0" y2="10.0" /><path d="M 100.0 14.0 a86.0,86.0 0 0,1 42.46469731375804,11.215312516191453" fill="none" id="id37" stroke="none" /><text fill="#e1ed5e" style="font-size:6.75px; font-family:Arial;" text-anchor="middle"><textPath startOffset="22.20632615414155" xlink:href="#id37">January</textPath></text><path d="M 100.0 79.0 l 0.0 -23.345109551238124 a44.345109551238124,44.345109551238124 0 0,0 0.7633281644749682,0.006570206502938228 l -0.40184768520243985 23.341650721343743" fill="#e8ff1a" stroke="none" /><path d="M 100.36148047927253 79.00311137660856 l 0.3815619842375784 -22.163339226726364 a43.166623451188116,43.166623451188116 0 0,0 0.7428222839919989,0.01918490805630626 l -0.7630109034244452 22.153487526527698" fill="#f6ff19" stroke="none" /><path d="M 100.72285384407766 79.0124445844662 l 0.40145679616681357 -11.656017084953683 a32.66292852777212,32.66292852777212 0 0,0 0.5617388608960445,0.024189656999266305 l -0.6020364894521896 11.647379701430221" fill="#ff7d0b" stroke="none" /><path d="M 101.08401301168833 79.027996857942 l 2.1096363239361167 -40.81436213139162 a61.86884781360547,61.86884781360547 0 0,0 1.063077537415012,0.06412774019570062 l -2.8118759101907407 40.77200112181561" fill="#31ff3b" stroke="none" /><path d="M 101.44485096284872 79.0497635885617 l 0.8022370865712534 -11.632380815633669 a32.66001148297001,32.66001148297001 0 0,0 0.5605232644762373,0.04350739324561067 l -1.002350540409832 11.616848160199595" fill="#ff7d0b" stroke="none" /><path d="M 101.80526077348638 79.07773832637324 l 2.4563255487667544 -28.467846109381348 a49.57362065452929,49.57362065452929 0 0,0 0.8495381158440559,0.0806738805847454 l -2.9459887917010543 28.421346684281424" fill="#a9ff21" stroke="none" /><path d="M 102.16513564639614 79.11191278185805 l 2.7664156259550032 -26.68891945535246 a47.831911544089046,47.831911544089046 0 0,0 0.8182292981625874,0.09193759538836742 l -3.2254116276273157 26.63734590649349" fill="#beff1f" stroke="none" /><path d="M 102.52436894288641 79.15227682838746 l 3.091939354218687 -25.53505338504961 a46.72156761061619,46.72156761061619 0 0,0 0.7975711356871795,0.10354762385705889 l -3.5310252184137125 25.478047438028415" fill="#cbff1d" stroke="none" /><path d="M 102.88285421437855 79.19881850522331 l 2.638505983558231 -19.038091335076423 a40.22005815568685,40.22005815568685 0 0,0 0.6849495431160498,0.100943757722443 l -2.965824507102937 18.989853093193013" fill="#ffe315" stroke="none" /><path d="M 103.2404852339499 79.25152402106235 l 3.239681009288654 -20.74332661553651 a41.99478821328691,41.99478821328691 0 0,0 0.7132530690506119,0.11769286778147318 l -3.596263284478141 20.684487484815413" fill="#fff917" stroke="none" /><path d="M 103.59715602781102 79.31037775812273 l 6.001233876116569 -34.51706318048304 a56.034874891189595,56.034874891189595 0 0,0 0.948870233318837,0.1733999701131211 l -6.5944992305383066 34.40864772901918" fill="#62ff29" stroke="none" /><path d="M 103.95276090670814 79.375362276772 l 2.1959335428141364 -11.457898631805712 a32.666428981534644,32.666428981534644 0 0,0 0.5513371292291657,0.11059304141294961 l -2.3928370815104274 11.418401634315554" fill="#ff7d0b" stroke="none" /><path d="M 104.307194497241 79.44645832069477 l 5.263667212268319 -25.117742767977855 a46.663343396366194,46.663343396366194 0 0,0 0.7847380588451974,0.17151334494841267 l -5.695247995267045 25.023415924933573" fill="#cbff1d" stroke="none" /><path d="M 104.66035177308747 79.52364482259891 l 5.437341764867078 -23.890244045799708 a45.501192747207966,45.501192747207966 0 0,0 0.7622019915914469,0.18038858565101534 l -5.8477674434210485 23.793109548007827" fill="#d9ff1c" stroke="none" /><path d="M 105.01212808612495 79.60689891045804 l 6.126255104013623 -24.926206491475053 a46.66801066804956,46.66801066804956 0 0,0 0.7784471104652471,0.19844350130553037 l -6.554411103163895 24.817059994000658" fill="#cbff1d" stroke="none" /><path d="M 105.36241919743992 79.69619591428918 l 7.454788628365888 -28.226172225212643 a50.19401774304077,50.19401774304077 0 0,0 0.8334647588257535,0.22781740290074332 l -7.939551276415353 28.093668281485606" fill="#a2ff22" stroke="none" /><path d="M 105.71112130821622 79.79150937346287 l 9.387000505128192 -33.21538827170025 a55.5163410071676,55.5163410071676 0 0,0 0.9173673050328192,0.26780467220691356 l -9.957358027884437 33.04888527057463" fill="#67ff28" stroke="none" /><path d="M 106.0581310904928 79.89281104454417 l 11.828553408695806 -39.25946053422245 a62.002681829126,62.002681829126 0 0,0 1.0192491761227453,0.3166856804720975 l -12.50258795752927 39.050034718867835" fill="#31ff3d" stroke="none" /><path d="M 106.40334571778207 80.00007090966166 l 7.1723923653387835 -22.401935650062903 a44.522115829829794,44.522115829829794 0 0,0 0.7278670073568264,0.23996630851796855 l -7.556942194938028 22.275155617285698" fill="#e5ff1a" stroke="none" /><path d="M 106.74666289553966 80.11325718540242 l 7.916735893036242 -23.335698414691887 a45.642027670253555,45.642027670253555 0 0,0 0.741830734042836,0.258810176879252 l -8.317248631142352 23.19596738464043" fill="#d8ff1c" stroke="none" /><path d="M 107.08798089147638 80.2323363322302 l 8.269122877899981 -23.061749513794123 a45.49944252032671,45.49944252032671 0 0,0 0.7349626223995033,0.27069293643445624 l -8.664867826072062 22.915993309553343" fill="#d9ff1c" stroke="none" /><path d="M 107.4271985657038 80.35727306442388 l 7.870591026519705 -20.81536786553819 a43.253668068082895,43.253668068082895 0 0,0 0.6941530625933459,0.2693206039713483 l -8.227727254112718 20.67680455767629" fill="#f5ff19" stroke="none" /><path d="M 107.76421540070413 80.48803036053334 l 4.313149421753186 -10.839220220513083 a32.66584557257422,32.66584557257422 0 0,0 0.5206564488893023,0.2123888384068254 l -4.499089740230876 10.763370495922677" fill="#ff7d0b" stroke="none" /><path d="M 108.09893153111575 80.62456947434976 l 17.657419733843906 -42.24262274609031 a66.78453503231901,66.78453503231901 0 0,0 1.0568374152219668,0.45248262710399434 l -18.38194090685619 41.93242059102353" fill="#37ff77" stroke="none" /><path d="M 108.43124777332544 80.76684994638697 l 12.65600669591391 -28.870563694279422 a52.52275294945641,52.52275294945641 0 0,0 0.8249020528610659,0.3701095058010687 l -13.151090867241756 28.648433857961823" fill="#88ff25" stroke="none" /><path d="M 108.76106565485865 80.91482961587045 l 4.867889719885163 -10.604247060246456 a32.66817920841591,32.66817920841591 0 0,0 0.5090352397220541,0.23899887046687968 l -5.049703170906815 10.518883207139574" fill="#ff7e0b" stroke="none" /><path d="M 109.08828744355905 81.06846463323043 l 8.079020103133812 -16.829161243102604 a39.66791991554461,39.66791991554461 0 0,0 0.6130180852630167,0.30080531213024814 l -8.367509455407262 16.687600770837523" fill="#ffdb14" stroke="none" /><path d="M 109.41281617654863 81.2277094730956 l 8.396849869211144 -16.7461153282001 a39.73337840090382,39.73337840090382 0 0,0 0.6087522758646793,0.3118265597645616 l -8.68386263266458 16.59909624312304" fill="#ffdc14" stroke="none" /><path d="M 109.73455568895987 81.39251694778311 l 7.574195761877436 -14.477981715503079 a37.33953475450521,37.33953475450521 0 0,0 0.5669474103239175,0.3028436719628257 l -7.822288218729665 14.345459317038499" fill="#ffbd11" stroke="none" /><path d="M 110.05341064243156 81.56283822128135 l 6.143988868340601 -11.267590747177955 a33.833830311336655,33.833830311336655 0 0,0 0.5089186652274122,0.28321268620450707 l -6.3370316226400485 11.160162663413269" fill="#ff8e0d" stroke="none" /><path d="M 110.36928655335952 81.73862282372117 l 8.906297812111914 -15.684903947277725 a39.03713814753765,39.03713814753765 0 0,0 0.5814735413215313,0.33682700665352977 l -9.174968085898772 15.529272783234145" fill="#ffd313" stroke="none" /><line stroke="#e1ed5e" stroke-width="0.3" x1="143.23703022742887" x2="145.7803849466894" y1="26.81831364943548" y2="22.513508569990506" /><path d="M 143.74570117128098 25.957352633546492 a86.0,86.0 0 0,1 28.547481713284135,27.462654790039103" fill="none" id="id38" stroke="none" /><text fill="#e1ed5e" style="font-size:6.75px; font-family:Arial;" text-anchor="middle"><textPath startOffset="19.985693538727396" xlink:href="#id38">February</textPath></text><path d="M 110.68208982089419 81.91981866633111 l 12.550768038168503 -21.243049423067554 a45.673648435908355,45.673648435908355 0 0,0 0.6734425776188903,0.40574161781494994 l -12.91457268200503 21.023861195793987" fill="#d7ff1c" stroke="none" /><path d="M 110.99172775467656 82.1063720568725 l 6.128682682098378 -9.976990891927718 a32.70901783564536,32.70901783564536 0 0,0 0.4772103147407517,0.29882905531130033 l -6.299512149211393 9.870017495293473" fill="#ff7e0b" stroke="none" /><path d="M 111.2981086023043 82.29822771554956 l 11.918789982041574 -18.674250141767814 a43.153671772266776,43.153671772266776 0 0,0 0.6227135954989979,0.40503024441811375 l -12.238470603324851 18.46632097319017" fill="#f6ff19" stroke="none" /><path d="M 111.60114157652 82.49532879139004 l 6.44591423509715 -9.726078126021875 a32.66817920841591,32.66817920841591 0 0,0 0.46605872062510567,0.31468492860737135 l -6.612377650128797 9.613681285115833" fill="#ff7e0b" stroke="none" /><path d="M 111.90073688211348 82.69761687909136 l 8.195380859569632 -11.915196584772564 a35.461541310910675,35.461541310910675 0 0,0 0.4999551487870766,0.35025053175408244 l -8.399267147940359 11.772361210254546" fill="#ffa40f" stroke="none" /><path d="M 112.19680574252982 82.90503203632743 l 6.776203986788414 -9.497485859394477 a32.66701239049506,32.66701239049506 0 0,0 0.45493432258709987,0.3305291328088359 l -6.938683625729303 9.379437491768966" fill="#ff7d0b" stroke="none" /><path d="M 112.48926042617603 83.11751280151076 l 5.568850494697238 -7.527751362280827 a30.363713814753766,30.363713814753766 0 0,0 0.4175066261995177,0.31445733503338413 l -5.697603274655139 7.430777437741596" fill="#ff5d08" stroke="none" /><path d="M 112.77801427241765 83.33499621200491 l 3.5605583080866694 -4.64365717760425 a26.851591873020578,26.851591873020578 0 0,0 0.3643728345693562,0.28439877696751537 l -3.639963697815456 4.581680011413511" fill="#ff2a04" stroke="none" /><path d="M 113.06298171725822 83.55741782278167 l 30.923433168852895 -38.923815564162254 a70.71239419924805,70.71239419924805 0 0,0 0.9465244613703151,0.7653569547306862 l -31.5888610287877 38.38575251216744" fill="#3cffa4" stroke="none" /><path d="M 113.34407831869373 83.78471172551755 l 2.0493230125869717 -2.4902704123128636 a24.225084733206156,24.225084733206156 0 0,0 0.31970474525403986,0.2677435299339907 l -2.091885294800129 2.454625724985054" fill="#ff0300" stroke="none" /><path d="M 113.6212207817346 84.01681056812373 l 2.0078768766659714 -2.3560499451466534 a24.09556794399274,24.09556794399274 0 0,0 0.313364239553936,0.27174638059867995 l -2.0481349148666714 2.3211385711283024" fill="#ff0100" stroke="none" /><path d="M 114.16331599549186 84.49514656593476 l 3.9464901034833453 -4.3202983434793625 a26.85147519122849,26.85147519122849 0 0,0 0.3385742351959792,0.3146678524615189 l -4.020272222474171 4.2517259049432035" fill="#ff2a04" stroke="none" /><path d="M 114.42810811169701 84.74124197986012 l 8.028679795824209 -8.490904093402897 a32.68568147722853,32.68568147722853 0 0,0 0.4054841770840589,0.3900754570901722 l -8.173647216520687 8.351445549550421" fill="#ff7e0b" stroke="none" /><path d="M 114.68862486808459 84.99185889309783 l 12.255982051971161 -12.522581908896527 a38.52210471727817,38.52210471727817 0 0,0 0.46990400622724626,0.467886089089505 l -12.46972185836573 12.309759969156904" fill="#ffcd13" stroke="none" /><path d="M 114.94478906791727 85.2469230424477 l 8.310379993242607 -8.203774240615456 a32.67751375178264,32.67751375178264 0 0,0 0.39171895165032294,0.4037008127436158 l -8.45036320859604 8.059509232321725" fill="#ff7e0b" stroke="none" /><path d="M 115.19652480421416 85.50635884689758 l 12.947006820444377 -12.348169945424175 a38.891402589224526,38.891402589224526 0 0,0 0.45786788640280246,0.4884215372993578 l -13.157642028817643 12.123478991246762" fill="#ffd113" stroke="none" /><path d="M 115.4437574822437 85.77008943001954 l 18.257746075400465 -16.822725567988872 a45.82638490174652,45.82638490174652 0 0,0 0.5295268439993372,0.5847167668540858 l -18.544616560015836 16.505956013865237" fill="#d6ff1c" stroke="none" /><path d="M 115.68641384162765 86.03803664274999 l 15.748673736174371 -14.017378850878051 a42.08334969347878,42.08334969347878 0 0,0 0.47696093499745795,0.5452487997365248 l -15.987626534749678 13.74421449493858" fill="#fffa17" stroke="none" /><path d="M 115.9244219780498 86.31012108654704 l 13.293307417529329 -11.427967002892077 a38.530272442724055,38.530272442724055 0 0,0 0.428033505730349,0.5066566620671672 l -13.488051536746795 11.197451391195804" fill="#ffcd13" stroke="none" /><path d="M 116.15771136456269 86.58626213691792 l 8.987545522788349 -7.46124107276765 a32.68101420554516,32.68101420554516 0 0,0 0.3556029060209225,0.4359271158207493 l -9.11464692088568 7.3054297873388006" fill="#ff7e0b" stroke="none" /><path d="M 116.38621287248628 86.86637796730983 l 22.7943562392662 -18.269777260594772 a50.21245346619006,50.21245346619006 0 0,0 0.5347528724323273,0.6790818429846238 l -23.10546319229249 17.87470302365711" fill="#a2ff22" stroke="none" /><path d="M 116.60985879189232 87.15038557335679 l 9.242739010657024 -7.150309585473954 a32.68568147722853,32.68568147722853 0 0,0 0.3404354737733771,0.4479731780880799 l -9.364450424654514 6.99015163150484" fill="#ff7e0b" stroke="none" /><path d="M 116.82858285166822 87.43820079747576 l 9.362580339697022 -6.9887556950831735 a32.68334784138685,32.68334784138685 0 0,0 0.3326501610441159,0.453734445824404 l -9.481493113254764 6.826558805587276" fill="#ff7e0b" stroke="none" /><path d="M 117.04232023915458 87.72973835380427 l 20.24748092421552 -14.577938046586429 a45.94948419239531,45.94948419239531 0 0,0 0.4566227370225654,0.645860478905632 l -20.495416281041965 14.227251067349004" fill="#d4ff1c" stroke="none" /><path d="M 117.2510076193507 88.02491185347247 l 17.323023938455062 -12.02507953185947 a42.0876669197859,42.0876669197859 0 0,0 0.40800091818818046,0.5986910027721509 l -17.527449322311973 11.725110505816913" fill="#fffa17" stroke="none" /><path d="M 117.45458315368197 88.32363383020206 l 20.487548522300937 -13.705289685902697 a45.6490285777786,45.6490285777786 0 0,0 0.4312819458320721,0.6568719920557917 l -20.720427103490934 13.35059962986923" fill="#d8ff1c" stroke="none" /><path d="M 117.65298651832404 88.62581576622439 l 9.817019585832414 -6.325308710791583 a32.67833052432723,32.67833052432723 0 0,0 0.30059769800254527,0.47547336954670677 l -9.924444880080916 6.1553876935306695" fill="#ff7e0b" stroke="none" /><line stroke="#e1ed5e" stroke-width="0.3" x1="172.23445277983987" x2="176.4835382374775" y1="55.19839476539836" y2="52.563006222186495" /><path d="M 173.08426987136738 54.67131705675599 a86.0,86.0 0 0,1 12.851231095245387,41.99856678651699" fill="none" id="id39" stroke="none" /><text fill="#e1ed5e" style="font-size:6.75px; font-family:Arial;" text-anchor="middle"><textPath startOffset="22.20632615414155" xlink:href="#id39">March</textPath></text><path d="M 117.84615892207809 88.93136811851018 l 20.931201307776238 -12.982051943206365 a45.630242809253055,45.630242809253055 0 0,0 0.4082477021058229,0.6710518807563419 l -21.151564808168285 12.619832289242943" fill="#d8ff1c" stroke="none" /><path d="M 118.03404312379186 89.2402003453031 l 20.090223978242907 -11.986595770013324 a44.394349267497645,44.394349267497645 0 0,0 0.38589328414128604,0.6596167117433825 l -20.29357693685452 11.638999645916046" fill="#e7ff1a" stroke="none" /><path d="M 118.21658344932153 89.55222093294921 l 10.127709184185612 -5.808557258065503 a32.675180115940954,32.675180115940954 0 0,0 0.2756265941396368,0.49030895573255845 l -10.226193419617681 5.63336479239815" fill="#ff7e0b" stroke="none" /><path d="M 118.3937258080291 89.86733742301442 l 21.73500454277526 -11.973292928236207 a45.81471672253811,45.81471672253811 0 0,0 0.3745721808504835,0.6940253634607515 l -21.93788482284421 11.597386581442997" fill="#d6ff1c" stroke="none" /><path d="M 118.56541770881063 90.18545643968196 l 10.32752722437906 -5.459611380892128 a32.68183097808976,32.68183097808976 0 0,0 0.25863866741019076,0.4996075824020803 l -10.419975324949366 5.281031076229703" fill="#ff7e0b" stroke="none" /><path d="M 118.73160827565052 90.50648371742162 l 21.970757924443255 -11.135175636115882 a45.631409627173895,45.631409627173895 0 0,0 0.3490585262584258,0.7036806890969988 l -22.15917646365509 10.755335358519932" fill="#d8ff1c" stroke="none" /><path d="M 118.89224826269711 90.83032412892265 l 10.497684031777936 -5.095230521528498 a32.66887929916841,32.66887929916841 0 0,0 0.24119247865279678,0.5080128717936758 l -10.583834704272489 4.913775234094281" fill="#ff7e0b" stroke="none" /><path d="M 119.04729006885535 91.15688171328212 l 2.7378737655693586 -1.2711173860170293 a24.018557961217194,24.018557961217194 0 0,0 0.17087223377559072,0.37649431715161696 l -2.759348316308296 1.2238010600233495" fill="#ff0000" stroke="none" /><path d="M 119.196687751892 91.48605970444005 l 10.684021754915085 -4.738480122897522 a32.68766506769396,32.68766506769396 0 0,0 0.22369148303707145,0.5163107840200338 l -10.764003947794837 4.553870194290886" fill="#ff7e0b" stroke="none" /><path d="M 119.34039704204932 91.81776055985345 l 22.677298801992638 -9.593964811075617 a45.62324190172801,45.62324190172801 0 0,0 0.2997627598277803,0.7258992998917967 l -22.839083248706615 9.202190940730517" fill="#d8ff1c" stroke="none" /><path d="M 119.47837535516314 92.15188598940014 l 25.983300614762577 -10.46904076331463 a49.01308132535699,49.01308132535699 0 0,0 0.3085640710183319,0.7852619040495337 l -26.15965823566261 10.020229854369312" fill="#b0ff20" stroke="none" /><path d="M 119.61058180528143 92.48833698450437 l 19.638185461629497 -7.522236356283841 a42.029559387327986,42.029559387327986 0 0,0 0.2529687358979381,0.6778304440637896 l -19.764758786029063 7.1830827751907185" fill="#fffa17" stroke="none" /><path d="M 119.7369772167798 92.82701384747503 l 23.14997955374771 -8.41336953204231 a45.631409627173895,45.631409627173895 0 0,0 0.26193932613625764,0.7405377481162045 l -23.291371960693777 8.013634157499492" fill="#d8ff1c" stroke="none" /><path d="M 119.85752413597 93.16781622104841 l 11.04662817305937 -3.800705128157162 a32.682181023466,32.682181023466 0 0,0 0.17844892007578636,0.5335395576193371 l -11.110414386906927 3.609992467615511" fill="#ff7e0b" stroke="none" /><path d="M 119.97218684219823 93.5106431181261 l 23.410437665420353 -7.606512294927771 a45.61519085807419,45.61519085807419 0 0,0 0.23620961250867725,0.7488490217499145 l -23.537902761697236 7.202413106751437" fill="#d8ff1c" stroke="none" /><path d="M 120.08093135843002 93.85539295169968 l 11.170573619609609 -3.418107665001109 a32.68183097808976,32.68183097808976 0 0,0 0.15997616648284352,0.5393601049677536 l -11.227755683204155 3.2253181732868255" fill="#ff7e0b" stroke="none" /><path d="M 120.18372546131832 94.20196356495316 l 23.664897557441527 -6.798048186528153 a45.621958402015075,45.621958402015075 0 0,0 0.21032424409457734,0.7566482108244108 l -23.778408572102467 6.38968867228479" fill="#d8ff1c" stroke="none" /><path d="M 120.28053869075195 94.5502522615342 l 22.22618279951098 -5.972577518446147 a44.014666716055785,44.014666716055785 0 0,0 0.19031872330114114,0.7333756767725695 l -22.32569785468242 5.589105416124727" fill="#ecff1a" stroke="none" /><path d="M 120.37134235888165 94.90015583598534 l 20.983165535389023 -5.2530104503178014 a42.630703980145576,42.630703980145576 0 0,0 0.17208025710985142,0.7133837601609186 l -21.07047859275969 4.891041458497477" fill="#fdff18" stroke="none" /><path d="M 120.45610955862082 95.25157060432595 l 36.68187762649938 -8.51487940612748 a58.657181486488994,58.657181486488994 0 0,0 0.21984044883937373,0.9855016257668103 l -36.823012462340785 7.882199610810707" fill="#46ff2c" stroke="none" /><path d="M 120.53481517161879 95.60439243477599 l 11.449415477052222 -2.4508200764271275 a32.70878447206119,32.70878447206119 0 0,0 0.11311118848217619,0.5515703256600502 l -11.489905961449395 2.2533740946036653" fill="#ff7e0b" stroke="none" /><path d="M 120.6074358757038 95.95851677861258 l 46.288698563113385 -9.07803375980633 a68.17048135869464,68.17048135869464 0 0,0 0.215919534204286,1.1534507855559002 l -46.438103821227536 8.279904896787867" fill="#39ff87" stroke="none" /><path d="M 120.67395015179393 96.31383870115 l 62.02185045538181 -11.058483896549978 a84.0,84.0 0 0,0 0.2415525539191079,1.4256568467366484 l -62.20301487082114 9.98924126149749" fill="#4dd2ff" stroke="none" /><path d="M 120.78858239683441 97.02765380044208 l 13.877022701955921 -1.9841331603071932 a35.01815050099087,35.01815050099087 0 0,0 0.080181561032499,0.5974457628249578 l -13.909120262046256 1.7449690554175712" fill="#ff9e0e" stroke="none" /><path d="M 120.83666639777658 97.38593545837742 l 11.587498915160843 -1.4537099870948764 a32.67833052432723,32.67833052432723 0 0,0 0.0652160617479333,0.5587313902785614 l -11.610805329912365 1.2540348584914622" fill="#ff7e0b" stroke="none" /><path d="M 120.87857604477298 97.74499172005257 l 17.40918956367909 -1.8802942561353 a38.510436538069754,38.510436538069754 0 0,0 0.06550968973199879,0.6596736355236991 l -17.438976379093315 1.580345089907166" fill="#ffcc13" stroke="none" /><path d="M 120.91429891909075 98.10471618934814 l 11.909913301081314 -1.079293451486542 a32.95871687070546,32.95871687070546 0 0,0 0.0463391965835574,0.5654555712002236 l -11.926726981484366 0.8741239630785497" fill="#ff820b" stroke="none" /><path d="M 120.94382443527127 98.46500227214037 l 19.139318827639126 -1.4027433721097577 a40.190654344081636,40.190654344081636 0 0,0 0.04462963364046686,0.6904006788746107 l -19.16062905228401 1.0730836289821117" fill="#ffe215" stroke="none" /><path d="M 120.96714384426684 98.82574320788733 l 11.684873192339555 -0.6544068096729243 a32.703183746041155,32.703183746041155 0 0,0 0.026639689198653827,0.5623217347029857 l -11.694406489771705 0.4531739683469387" fill="#ff7e0b" stroke="none" /><path d="M 120.98425023603335 99.18683210126433 l 24.60932192405916 -0.9536442986146724 a45.62779249161928,45.62779249161928 0 0,0 0.02365758790300832,0.78508016830093 l -24.622091206417814 0.5298939828887433" fill="#d8ff1c" stroke="none" /><line stroke="#e1ed5e" stroke-width="0.3" x1="184.98032266829074" x2="189.97916517819016" y1="98.17113171792111" y2="98.06355123074" /><path d="M 185.9800911702706 98.14961562048488 a86.0,86.0 0 0,1 -9.607161424134198,41.387399972396054" fill="none" id="id40" stroke="none" /><text fill="#e1ed5e" style="font-size:6.75px; font-family:Arial;" text-anchor="middle"><textPath startOffset="21.466115282336823" xlink:href="#id40">April</textPath></text><path d="M 120.99513854157772 99.54816195383933 l 28.02631101039419 -0.6031564680056692 a49.032800548219214,49.032800548219214 0 0,0 0.010896939578905336,0.8439799792349673 l -28.03254095709081 0.12064023071023927" fill="#b0ff20" stroke="none" /><path d="M 120.99980553446 99.90962569577887 l 21.038232382140333 -0.09053967716312342 a42.03842720352638,42.03842720352638 0 0,0 -0.003114252149788393,0.7236425231094842 l -21.03667383270104 -0.27161232415004544" fill="#fffa17" stroke="none" /><path d="M 120.99824983174949 100.27111621757518 l 24.64464085322419 0.3181961289708279 a45.646694941936914,45.646694941936914 0 0,0 -0.01690653009023679,0.7855800203589454 l -24.635512260448944 -0.7423659651198882" fill="#d8ff1c" stroke="none" /><path d="M 120.9904718944345 100.63252640178507 l 11.680029571307013 0.35196574496454786 a32.685331431852276,32.685331431852276 0 0,0 -0.02178690129035527,0.5622231143844435 l -11.672240537165456 -0.5529661063629976" fill="#ff7e0b" stroke="none" /><path d="M 120.9764740272857 100.99374915477107 l 29.17075277705155 1.381948695406254 a50.20346896819958,50.20346896819958 0 0,0 -0.04832358599771418,0.8628500899381005 l -29.14264284016631 -1.8838705016797779" fill="#a2ff22" stroke="none" /><path d="M 120.95626037817324 101.35467743843564 l 11.688122997949893 0.7555563939964601 a32.71251828940788,32.71251828940788 0 0,0 -0.041160824188664284,0.5616067436272506 l -11.67338561509689 -0.956636274120481" fill="#ff7e0b" stroke="none" /><path d="M 120.92983693683757 101.71520430193887 l 24.549113667676227 2.0118047502546275 a45.631409627173895,45.631409627173895 0 0,0 -0.07089253150155711,0.7822931777403113 l -24.510846539897596 -2.4340793165435093" fill="#d8ff1c" stroke="none" /><path d="M 120.89721153311464 102.0752229133903 l 20.917105161414653 2.077198474254639 a42.01999148037709,42.01999148037709 0 0,0 -0.0776723504863641,0.7191494996389168 l -20.878250509427236 -2.4369442957783476" fill="#fff917" stroke="none" /><path d="M 120.8583938346157 102.4346265915055 l 20.89806855257572 2.4392574908989046 a42.03994406682348,42.03994406682348 0 0,0 -0.09008257306447516,0.7180467403581217 l -20.852984470264396 -2.7986219855444214" fill="#fffa17" stroke="none" /><path d="M 120.81339534386255 102.79330883721812 l 24.412536497475823 3.276339723082103 a45.631409627173895,45.631409627173895 0 0,0 -0.11117973223926408,0.7775907883333771 l -24.35252271421996 -3.6960759833958896" fill="#d8ff1c" stroke="none" /><path d="M 120.76222939487914 103.15116336523771 l 11.542642860537976 1.7518712768447149 a32.6748300705647,32.6748300705647 0 0,0 -0.08918399696132319,0.5553488342109326 l -11.510777109215365 -1.9502993407488525" fill="#ff7e0b" stroke="none" /><path d="M 120.70491114924044 103.5080841355445 l 28.778150716107326 4.87595301664399 a50.18830033522864,50.18830033522864 0 0,0 -0.15164886710569261,0.8505273819941717 l -28.689955406662445 -5.37059914937138" fill="#a2ff22" stroke="none" /><path d="M 120.64145759157962 103.86396538481128 l 11.488116325685313 2.1505111071827367 a32.68766506769396,32.68766506769396 0 0,0 -0.10828966902992912,0.5521666893792899 l -11.44939672367972 -2.3479415236299714" fill="#ff7e0b" stroke="none" /><line stroke="#e1ed5e" stroke-width="0.3" x1="174.80103733775053" x2="179.2010983576182" y1="140.37084112569926" y2="142.7455964860345" /><path d="M 175.68104954172406 140.8457921977663 a86.0,86.0 0 0,1 -30.038265399797805,32.042727171017184" fill="none" id="id41" stroke="none" /><text fill="#e1ed5e" style="font-size:6.75px; font-family:Arial;" text-anchor="middle"><textPath startOffset="22.206326154141568" xlink:href="#id41">May</textPath></text><line stroke="#e1ed5e" stroke-width="0.3" x1="143.8653032363475" x2="146.44561519142675" y1="172.8068346515853" y2="177.08958963109032" /><path d="M 144.38136562736335 173.6633856474863 a86.0,86.0 0 0,1 -40.68145358897372,12.25698825130547" fill="none" id="id42" stroke="none" /><text fill="#e1ed5e" style="font-size:6.75px; font-family:Arial;" text-anchor="middle"><textPath startOffset="21.466115282336833" xlink:href="#id42">June</textPath></text><line stroke="#e1ed5e" stroke-width="0.3" x1="102.19456741930631" x2="102.32365962044197" y1="184.97166512339345" y2="189.96999836594603" /><path d="M 102.22038585953345 185.97133177190398 a86.0,86.0 0 0,1 -42.740103519485714,-10.115201625700543" fill="none" id="id43" stroke="none" /><text fill="#e1ed5e" style="font-size:6.75px; font-family:Arial;" text-anchor="middle"><textPath startOffset="22.20632615414155" xlink:href="#id43">July</textPath></text><line stroke="#e1ed5e" stroke-width="0.3" x1="58.666819895761336" x2="56.23545636021788" y1="174.27360380694188" y2="178.64263932499728" /><path d="M 58.180547188652646 175.14741091055294 a86.0,86.0 0 0,1 -31.652253787137756,-30.449443065178592" fill="none" id="id44" stroke="none" /><text fill="#e1ed5e" style="font-size:6.75px; font-family:Arial;" text-anchor="middle"><textPath startOffset="22.20632615414155" xlink:href="#id44">August</textPath></text><line stroke="#e1ed5e" stroke-width="0.3" x1="26.63291911575756" x2="22.317208475507996" y1="142.92168965132927" y2="145.44649492493687" /><path d="M 25.769776987707644 143.4266507060508 a86.0,86.0 0 0,1 -11.730757126820373,-40.83630448921669" fill="none" id="id45" stroke="none" /><text fill="#e1ed5e" style="font-size:6.75px; font-family:Arial;" text-anchor="middle"><textPath startOffset="21.46611528233685" xlink:href="#id45">September</textPath></text><line stroke="#e1ed5e" stroke-width="0.3" x1="15.007084014347285" x2="10.007500721073583" y1="101.09737516637583" y2="101.16192664675087" /><path d="M 14.007167355692545 101.11028546245083 a86.0,86.0 0 0,1 10.666146001902534,-42.60595125391555" fill="none" id="id46" stroke="none" /><text fill="#e1ed5e" style="font-size:6.75px; font-family:Arial;" text-anchor="middle"><textPath startOffset="22.20632615414155" xlink:href="#id46">October</textPath></text><line stroke="#e1ed5e" stroke-width="0.3" x1="26.266209847984243" x2="21.928928074336255" y1="57.711370442889674" y2="55.22380399835377" /><path d="M 25.398753493254645 57.213857153982495 a86.0,86.0 0 0,1 29.58750427330803,-30.492523968695096" fill="none" id="id47" stroke="none" /><text fill="#e1ed5e" style="font-size:6.75px; font-family:Arial;" text-anchor="middle"><textPath startOffset="21.46611528233685" xlink:href="#id47">November</textPath></text><line stroke="#e1ed5e" stroke-width="0.3" x1="56.762969772571076" x2="54.21961505331055" y1="26.818313649435495" y2="22.513508569990535" /><path d="M 56.25429882871897 25.957352633546506 a86.0,86.0 0 0,1 42.265352541879196,-11.944610805530505" fill="none" id="id48" stroke="none" /><text fill="#e1ed5e" style="font-size:6.75px; font-family:Arial;" text-anchor="middle"><textPath startOffset="22.20632615414155" xlink:href="#id48">December</textPath></text></svg>